<svg xmlns="http://www.w3.org/2000/svg" viewBox="0 0 854.04 55.68"><g id="图层_2" data-name="图层 2"><g id="图层_1-2" data-name="图层 1"><path d="M51.36,8.7c1.8,1.68,2.76,2.76,2.76,3.24s-.66.9-1.86.9a14.13,14.13,0,0,0-1.74.3,42.91,42.91,0,0,1-7.8,5.46,1.86,1.86,0,0,1-.72-.54,28,28,0,0,0,2.94-6.72H8.7c0,.3.06.54.06.78,0,5.34-1.8,8-5.34,8.16C1.2,20.28.06,19.56,0,18a3.76,3.76,0,0,1,.48-2.1c.12-.36,1.08-1.14,2.82-2.4,1.92-1.56,3.18-4,3.72-7.38.6.06,1,.06,1,.06a35.81,35.81,0,0,1,.54,3.66H44.4c1.86-2.16,3.12-3.3,3.78-3.48A14.48,14.48,0,0,1,51.36,8.7Zm-6.6,18.24c0,.48-.36.72-1,.72h-3.3c-5.52,3.24-13.14,5.88-22.92,7.92v9.36c0,1.8,1,2.7,2.88,2.82h19a4.78,4.78,0,0,0,4.5-3.18q.9-2,2.16-9.54a10.41,10.41,0,0,0,1.08.06v9.24a1.89,1.89,0,0,0,1.32,1.74,2.9,2.9,0,0,1,1.44,2.16c-.12,1.86-1.92,3.12-5.34,3.78-3.84.3-7.8.48-11.88.48q-12.15,0-15.48-.36c-3.24-.24-4.8-2.94-4.8-8.28V23.22A33.7,33.7,0,0,0,12,17.1c5.82,1,8.76,1.8,8.76,2.34s-1.08,1.32-3.24,2V34.2A63.53,63.53,0,0,0,37.38,21.78C42.3,24.66,44.76,26.4,44.76,26.94ZM29.34,2.34a4.92,4.92,0,0,1,2.52,4.44c0,1.74-1,2.58-3,2.58s-3.24-1-3.9-3.12a7.67,7.67,0,0,0-5.34-4.86A1.32,1.32,0,0,0,19.8.9h1.68A17.67,17.67,0,0,1,29.34,2.34Z"/><path d="M80.1,15.84q0,.81-3.78,1.26a47.62,47.62,0,0,1-4.44,6.48V48.66c.12,1.32.18,3.06.18,5.28,0,.84-1,1.32-3,1.44-1.56,0-2.4-.18-2.4-.54.06-1,.12-3.12.12-6.48V29.16a38.13,38.13,0,0,1-7.08,5.4c-.12-.12-.3-.36-.6-.72,7-7.32,11.28-14.46,12.72-21.48C77.34,14,80.1,15.12,80.1,15.84ZM77.34,3.72q0,1.17-3.06,1.44A33.46,33.46,0,0,1,60.54,17.7a9,9,0,0,0-1-.6A33.91,33.91,0,0,0,69.6.72C74.76,2.34,77.34,3.36,77.34,3.72Zm30.9,27.18a12.28,12.28,0,0,1,2.52,2.88c0,.6-.18,1-.42,1H97.5V48.42A57.81,57.81,0,0,0,106,49a61.47,61.47,0,0,0,9.06-.42c0,.3.06.6.06.9a3.39,3.39,0,0,0-1.8.78,3.74,3.74,0,0,0-1.14,2.64c0,1-1,1.44-3,1.44-.6,0-2.34-.06-5.16-.12-7.74-.48-13.2-2-16.32-4.74a15.42,15.42,0,0,1-4.08-6.54,23.06,23.06,0,0,1-2,5.34,16,16,0,0,1-8,7.44c-.12-.06-.18-.36-.3-1A14.67,14.67,0,0,0,77,49.38,33.23,33.23,0,0,0,79.26,41,74.41,74.41,0,0,0,80,29.1c1.74.48,3.72,1,5.94,1.5,1.32.42,2,.78,2,1.14a.94.94,0,0,1-.72.9c-.72.3-1.44.66-2.28,1-.12,2-.36,4-.6,5.64a12.61,12.61,0,0,0,4.8,6.36,11.65,11.65,0,0,0,3.12,1.56V29.1a45.87,45.87,0,0,0-.36-6.42c5.64.84,8.46,1.56,8.46,2.22,0,.48-.36.84-1,1q-1.8.72-1.8,1.26v5.94h4.74a19.92,19.92,0,0,1,3.24-3.84c.12,0,.24-.06.36-.06A8,8,0,0,1,108.24,30.9ZM92.1,3.84c0,.6-1,1-2.82,1.32a31.71,31.71,0,0,1-1.62,5.1c4.14,2.64,6.24,5,6.3,7.08,0,1.56-.42,2.52-1.26,2.94a2.34,2.34,0,0,1-1.5.42q-1,0-1.62-2.88A27.89,27.89,0,0,0,87,11.88,36.69,36.69,0,0,1,76.68,25.14a.85.85,0,0,1-.54-.48,49.28,49.28,0,0,0,8.4-23.22C89.58,2.46,92.1,3.24,92.1,3.84Zm15.36-.12c0,.6-1,1-2.76,1.32a33.09,33.09,0,0,1-1.8,5.52c5.28,3,7.92,5.64,8,8,0,1.56-.48,2.52-1.32,3a2.64,2.64,0,0,1-1.5.36c-.84,0-1.5-1-2-3.06a25.58,25.58,0,0,0-3.78-7,32.49,32.49,0,0,1-8.16,10.44.76.76,0,0,1-.54-.42A48.31,48.31,0,0,0,100,1.32C104.94,2.34,107.46,3.12,107.46,3.72Z"/><path d="M169.8,2.82c2.76,2.28,4.14,3.78,4.14,4.44s-.24.78-.66.78H154.2a19.69,19.69,0,0,1-2.88,5.16,43.77,43.77,0,0,1-2.58,3.66c2.34.72,3.54,1.26,3.54,1.62s-.48.66-1.32.9-1.26.66-1.26.84V38.88c.12,5,.24,9.84.24,14.28-.18,1-1.5,1.62-3.9,1.8-1.56,0-2.34-.42-2.34-1.2.12-4.86.24-9.78.24-14.76V22.68a81.94,81.94,0,0,1-22.32,16.56,3.93,3.93,0,0,1-.72-1Q138.72,25,146,10.74c.54-1,1-1.92,1.32-2.7H135.6c-6.9,0-11.22.24-12.9.72-.42-1-.9-2-1.38-3.12a112.34,112.34,0,0,0,14.4.6h27.72c1.92-2.46,3.3-4,4.2-4.5.18,0,.36.06.54.06A13.76,13.76,0,0,1,169.8,2.82ZM173,35.28a3.1,3.1,0,0,1-1.32,2.94,2.64,2.64,0,0,1-1.5.36c-1.92,0-3.54-1.56-4.86-4.8A38.18,38.18,0,0,0,153.3,20.34c0-.06.18-.24.6-.54C166.5,25.5,172.92,30.66,173,35.28Z"/><path d="M193.62,14.82c1.26,1.2,1.92,2,1.92,2.46s-.6.9-1.8,1.38a2.84,2.84,0,0,0-1.14.54l-5.22,11h2.28c1.38-1.62,2.22-2.46,2.52-2.46A6.08,6.08,0,0,1,194.82,29c1.44,1,2.22,1.68,2.22,2s-.42.72-1.14,1.08-1.08.6-1.2,1a38.65,38.65,0,0,1-4.08,11.1,17.44,17.44,0,0,0,7.2,3.24c3,1.08,8.76,1.62,17.16,1.62,9.18-.24,15.48-.78,19-1.62a2.85,2.85,0,0,0,.12,1.2,6.86,6.86,0,0,0-1.8,1A3.88,3.88,0,0,0,231.18,52c0,1.32-.72,2-2.16,2-8.7,0-13.86-.18-15.48-.42q-12.69,0-18.18-3.24a17.55,17.55,0,0,1-5.52-4.8,23,23,0,0,1-1.92,2.64,23.25,23.25,0,0,1-8.16,6.9.8.8,0,0,1-.42-.48,38.43,38.43,0,0,0,6.84-9.9A41.43,41.43,0,0,0,190,31.62h-3.36q-.54,1.17-.9,1.8c-.24.66-.9,1-2,1-1.86-.12-2.76-.6-2.76-1.38,2.76-5.64,5.22-10.92,7.32-15.84H182.4a20.11,20.11,0,0,0-2.16.36c-.36-.84-.66-1.56-.9-2.22a14,14,0,0,0,2.76.3H188c1.8-1.68,2.88-2.52,3.12-2.52C191.7,13.08,192.54,13.68,193.62,14.82ZM189.06,3c2.52,1.68,3.84,3.6,3.84,5.82a3.32,3.32,0,0,1-1.14,2.76,2.48,2.48,0,0,1-1.8.54c-1.32,0-2.22-1.14-2.64-3.48a18.61,18.61,0,0,0-1.74-4.56,16.71,16.71,0,0,0-1.74-2.34c.12-.12.3-.36.54-.66A14.1,14.1,0,0,1,189.06,3Zm42.42,2.34a15.27,15.27,0,0,1,2.58,2.88c0,.6-.18,1-.42,1h-29.1l.06,7.38v1.92h5V13.38a16.83,16.83,0,0,1-.3-3.3q6.75.9,7.56,2,0,.72-1.08,1.08c-1,.48-1.5.84-1.5,1v4.44h6.48v-5.1a23.19,23.19,0,0,1-.3-3.3q6.75.9,7.56,2,0,.72-1.08,1.08c-1,.48-1.44.84-1.44,1v4.38h.9c1.5-2.64,2.52-4,3-4.2.3,0,1.14.9,2.58,2.58a7.72,7.72,0,0,1,1.74,2.46c0,.54-.18.78-.48.78h-7.74V31.62c0,1-1.08,1.5-3.12,1.56q-1.8,0-1.8-.9c0-.72,0-1.5.06-2.28h-6.36v1.68c0,1-1,1.5-3.06,1.56-1.26,0-1.86-.3-1.86-.9.12-3.72.18-7.74.24-12.18h-5a55.86,55.86,0,0,1-.9,9.6A23.38,23.38,0,0,1,201,37.14c-1.86,3.54-3.72,5.88-5.52,7a1,1,0,0,1-.84-.54,41,41,0,0,0,3.66-10.2q1.17-5,1.26-16.56c0-4.44-.06-7.2-.12-8.28,0-.84-.06-1.92-.18-3.12l4.8,2.16h11.58a6.8,6.8,0,0,1-1.8-2.34A14.81,14.81,0,0,0,210.48,1,1.34,1.34,0,0,0,210.9.3c5,.42,7.68,1.68,7.92,3.72a6.11,6.11,0,0,1-.3,2,2.39,2.39,0,0,1-1.32,1.5h8.34a16.26,16.26,0,0,1,3.24-3.84.51.51,0,0,1,.36-.12A9,9,0,0,1,231.48,5.34Zm-24.9,29.88a29.34,29.34,0,0,1,.54,4.74c0,3.84-1.56,5.82-4.56,5.88-1.8,0-2.7-.6-2.76-1.8a2.79,2.79,0,0,1,.42-1.68,10.7,10.7,0,0,1,2.34-1.8,7.76,7.76,0,0,0,3.18-5.4A6.79,6.79,0,0,0,206.58,35.22Zm8.76,6.42c-.12,2.76-1.14,4.14-3.18,4.14-1.2,0-1.74-.72-1.74-2.16A7.34,7.34,0,0,1,211,41.7a8.23,8.23,0,0,0,.3-2.46,25.4,25.4,0,0,0-.24-2.58,2.24,2.24,0,0,0,.9-.3C214.2,38.4,215.34,40.14,215.34,41.64Zm5.4-21.48h-6.48v8.22h6.36C220.62,25.74,220.68,23,220.74,20.16ZM224.1,42.6c-.06,1.8-1,2.76-2.94,2.88-1.08,0-1.8-.66-2-2a8,8,0,0,1-.18-2.1,15.82,15.82,0,0,0-.18-2.28,10.78,10.78,0,0,0-.72-2.64c.3-.12.48-.24.48-.36C222.24,37.2,224.1,39.36,224.1,42.6Zm9-1.86a5.1,5.1,0,0,1-.78,3.18A2.75,2.75,0,0,1,230,45c-.84,0-1.38-.84-1.62-2.58a18.5,18.5,0,0,0-3.24-7.32l.78-.54C230.64,36.84,233,38.88,233.1,40.74Z"/><path d="M255,2.4c0,.36-.18.6-.48.6-.42.18-.9.42-1.44.66s-.84.54-.84.72V14.64h.42a19.82,19.82,0,0,1,2.94-3.24h.3a13.3,13.3,0,0,1,2.82,2.52c.72.78,1.14,1.32,1.14,1.68,0,.54-.3.78-.9.78h-6.72V24.6a30.67,30.67,0,0,0,5.94-3.24c.12.06.24.24.36.6a32.15,32.15,0,0,1-6.3,6.48V47.58c0,5-2,7.56-6.06,7.56a.9.9,0,0,1-1-1,5.15,5.15,0,0,0-1.8-3,6.58,6.58,0,0,0-3.12-1.44,2.1,2.1,0,0,0,.18-1c1,.12,2.88.12,5.82.12q.9,0,.9-1.62V31.86c-1,.6-2,1.2-2.94,1.68,0,1.32-.24,1.92-.6,1.92s-.72-.6-1.38-1.86-1.5-3.06-2.58-5.7a58.38,58.38,0,0,0,7.5-1.62v-9.9h-3.36a12,12,0,0,0-2.94.36,10.93,10.93,0,0,1-1.32-2.82,6.33,6.33,0,0,0,3,.72h4.62V7.92a57.7,57.7,0,0,0-.42-7.74C251.82,1,254.52,1.8,255,2.4Zm34.14,4.5C291.66,9.06,293,10.38,293,11s-.24.84-.66.84H278.4a19.34,19.34,0,0,0,6.6,6.9A24.57,24.57,0,0,0,294.36,23c0,.54-.06.84-.18,1A4.61,4.61,0,0,0,292,25.92c-.24.72-.42,1.38-.66,1.92s-.42.84-.66.84a4.93,4.93,0,0,1-3.06-1.56,12.63,12.63,0,0,0-1.08,1v8.46c.18,3.3.3,5.4.3,6.36,0,1.26-1,1.92-2.94,1.92-1.44,0-2.22-.3-2.28-1V42.12H275.4v4.5c.18,1.86,2.1,2.76,5.7,2.76h4.5A3.07,3.07,0,0,0,289,46.32a67.79,67.79,0,0,0,1.2-7.74,2.51,2.51,0,0,0,1.2.3c0,1-.06,3.48-.18,7.44a2.3,2.3,0,0,0,1,2.1c1.2.72,1.86,1.38,1.86,2,0,1.74-1.44,2.76-4.26,3.06a25.54,25.54,0,0,1-4.92.3c-4.74,0-7.08-.06-7.08-.18-4.92-.12-7.32-2.22-7.32-6.42v-5.1h-5.94c0,.72,0,1.38.06,2-.24,1-1.44,1.38-3.54,1.38-1.08,0-1.56-.3-1.56-.9.06-3.36.12-7.08.12-11.16V26.88a34,34,0,0,1-6,4.5c-.18,0-.42-.18-.66-.54a53.28,53.28,0,0,0,12.6-19,27.28,27.28,0,0,0-6.48.66q-.63-1.53-1.44-3.06a41,41,0,0,0,8.64.6A65.26,65.26,0,0,0,268.8.48c5.76,1.14,8.7,2,8.7,2.76,0,.36-.3.6-.9.84a16.55,16.55,0,0,0-2.64.66c-.72,1.86-1.44,3.6-2.22,5.28h11.52c1.8-2.28,3.06-3.66,3.9-4.14h.54A7.08,7.08,0,0,1,289.14,6.9Zm-26,16.44,1.68.9h5.64V21.72c-.06-1.62-.12-3.3-.24-5,5.1.84,7.68,1.5,7.68,2s-.84,1.14-2.46,1.68v3.84h5.7a13,13,0,0,1,2-1.86c-.42-.48-.78-.9-1.14-1.38a39.93,39.93,0,0,1-5-9.18h-6.12A55.16,55.16,0,0,1,263.1,23.34Zm1.2,8.82h6.12V25.74H264.3Zm.12,8.34h6V33.72H264.3C264.3,35.88,264.3,38.1,264.42,40.5Zm11-8.34h6.24V25.74H275.4Zm0,8.34h6.24V33.72H275.4Z"/><path d="M306.24,6.84h2.22a48.58,48.58,0,0,0,1-6.84c4.2,1.26,6.36,2.22,6.36,2.82,0,.42-1,.72-2.88.84a10.23,10.23,0,0,1-2.88,3.18h5.1c1.32-1.56,2.22-2.34,2.76-2.4A9.08,9.08,0,0,1,320.7,6c1.2,1,1.86,1.62,1.86,2s-.24.66-.72,1a9.91,9.91,0,0,0-1.38,1.14V13.2c.18,1.2.3,1.92.3,2.28,0,1.14-.9,1.74-2.7,1.74-1.32,0-2-.3-2.1-1v-.18h-9.24v4.44h8.94c1.32-1.44,2.22-2.16,2.76-2.16a8.35,8.35,0,0,1,2.76,1.5c1.2,1,1.86,1.68,1.86,2.1s-.3.66-.78.9a5.45,5.45,0,0,0-1.32,1.2V27.3c.12,1.32.24,2.1.24,2.46,0,1.14-.9,1.74-2.64,1.74-1.32,0-2-.3-2.1-1v-.3h-1.56v8h1.26c1.5-2.16,2.52-3.36,3-3.48.3,0,1.14.78,2.58,2.22,1.14,1.2,1.74,1.86,1.74,2.1,0,.6-.18.84-.48.84h-8.1v7c2.76-.3,5.64-.66,8.52-1.08a4,4,0,0,0,.36.72A112.82,112.82,0,0,1,304,52.26a5.39,5.39,0,0,0-.54,2.1c-.06.48-.24.72-.6.72s-1.32-1.26-2.4-3.66a24.36,24.36,0,0,0-1.32-3.12,24.42,24.42,0,0,0,3-.18v-10a36.17,36.17,0,0,0-.3-5c4.44.6,6.66,1.2,6.66,1.68s-.3.66-.78.78c-1,.36-1.44.72-1.44,1v11.1c1.38-.06,2.76-.18,4.08-.3V30.24h-3.66v.18c-.24,1.14-1.26,1.68-3.06,1.68-1.14,0-1.8-.18-2-.54,0-4.2.06-8.34.24-12.36v-8A44.77,44.77,0,0,0,301.44,5ZM316,14.52V8.34h-9.24v6.18Zm.48,14.1V22.08h-9.72v6.54Zm10.62-6.24a17.6,17.6,0,0,1,.18,2.94H346.5c1.62-1.8,2.7-2.76,3.3-2.88a14.18,14.18,0,0,1,2.76,2c1.56,1.44,2.4,2.4,2.4,2.76,0,.54-.54.84-1.56.84a7.11,7.11,0,0,0-1.56.24,29.15,29.15,0,0,1-5.34,2.76,2.09,2.09,0,0,1-.66-.42,21,21,0,0,0,1.2-3.78H327.18c-.18,3.72-1.38,5.64-3.6,5.7-1.44,0-2.16-.48-2.22-1.44a3.27,3.27,0,0,1,1.38-2.4A7.71,7.71,0,0,0,325,26.16a11.38,11.38,0,0,0,1.38-3.78ZM347.88,3.12c1.44,1,2.16,1.74,2.16,2.22s-.78,1.26-2.34,2.28v3.6h.84q2-3.15,2.52-3.24.36,0,1.62,1.8a8.86,8.86,0,0,1,1.44,2.28q0,.9-.72.9h-5.7v8.46c0,.78-.84,1.2-2.52,1.32-1.44,0-2.28-.18-2.46-.54V20.52h-4.44c-4.68.06-8.28.24-10.92.54a11.54,11.54,0,0,1-1-2.58,124.63,124.63,0,0,0,12.48.42h3.84V13h-9.18c-5.82.12-8.76.3-8.76.54a17.61,17.61,0,0,1-1.14-3.12c.84.3,3.9.6,9.24.84h9.84V5.64h-11a11.44,11.44,0,0,0-4.26.48,18.89,18.89,0,0,1-1.38-3.06,13.34,13.34,0,0,0,5,1h10.86c1.68-1.68,2.82-2.58,3.3-2.58A11.62,11.62,0,0,1,347.88,3.12Zm-18.6,30.66h6v-2.4a16.05,16.05,0,0,0-.36-3.66q7.2.81,7.2,2c0,.3-.24.48-.6.54-.84.36-1.32.66-1.38.9v2.64h4.92c1.5-1.44,2.4-2.16,2.76-2.16a12.25,12.25,0,0,1,2.28,1.2c1.38,1,2.1,1.74,2.16,2.1a1.21,1.21,0,0,1-.78,1,5,5,0,0,0-1.26,1v7.2c-.06,3.18-1.86,5.1-5.46,5.82-.48-.12-.66-.48-.66-1a6,6,0,0,0-1-2.4A8.4,8.4,0,0,0,341,44.88a3.51,3.51,0,0,0,.12-.78,12.25,12.25,0,0,0,2.94.42c1.14,0,1.74-.3,1.74-1V35.34h-5.64V46.56c.06,1,.12,3.3.12,7.14-.12.6-1.26,1-3.48,1-1.08,0-1.68-.24-1.68-.66q0-3.15.18-7.56V35.34h-5v14c-.24,1-1.14,1.56-2.76,1.56-1.08,0-1.68-.18-1.92-.54,0-2.82.06-5.64.18-8.4V36.48a19.05,19.05,0,0,0-.36-4.2Z"/><path d="M380.76,15.48c0,.6-.6,1-1.68,1.26a42.79,42.79,0,0,0,8.76.6H405a18.35,18.35,0,0,1,3.6-3.78c.12,0,.3.06.48.06a13,13,0,0,1,1.32.9c2.34,2,3.54,3.24,3.54,3.78s-.24.84-.66.84H397.74a26.46,26.46,0,0,1-5.58,8h10.38c1.68-2,2.82-3.18,3.42-3.36a7.49,7.49,0,0,1,2.82,1.74c1.5,1.32,2.28,2.16,2.28,2.52s-.3.78-.9,1.14a8.19,8.19,0,0,0-1.62,1.26v13q.18,5,.18,10.44c-.12.84-1.32,1.32-3.54,1.44-1.2,0-1.86-.3-2-.78V50.22H385.14v3.12c-.24,1.2-1.38,1.8-3.3,1.8-1.2,0-1.92-.24-2.16-.6,0-4.68.06-9.12.24-13.56V32a39.74,39.74,0,0,0-.48-6.72l4.8,1.8h6.06a50.31,50.31,0,0,0,1.32-8h-2.88c-4.5,0-7.32.24-8.4.72-.42-1.08-.9-2.1-1.38-3.12a4.12,4.12,0,0,1-1.44.3,66.4,66.4,0,0,1-4.92,8.52c1.68.6,2.58,1,2.58,1.32s-.42.54-1.26.78-1.14.66-1.14.84V42.72c.12,3.84.24,7.44.24,10.92-.18,1-1.38,1.5-3.66,1.62-1.5,0-2.22-.36-2.22-1.08.12-3.78.24-7.56.24-11.46V31.92a41.84,41.84,0,0,1-6.78,5.58,3.49,3.49,0,0,0-1.08-.66q9.18-9.63,13-24.66C378,14,380.76,15.06,380.76,15.48ZM410.1,7.26c1.68,1.56,2.58,2.58,2.58,3,0,.6-.6.9-1.68.9a8.52,8.52,0,0,0-1.68.24,36.53,36.53,0,0,1-7.44,4.14,1.86,1.86,0,0,1-.72-.54,19.19,19.19,0,0,0,3-5.28H368.94c0,.36.06.72.06,1,0,4.44-1.74,6.66-5.1,6.78-2.22,0-3.36-.72-3.42-2.22a3.85,3.85,0,0,1,.48-2.16,12.07,12.07,0,0,1,2.7-2,9.22,9.22,0,0,0,3.54-6.3c.66.06,1,.06,1.08.06a31.49,31.49,0,0,1,.54,3.3h34.8c1.74-1.92,2.94-2.94,3.54-3.06A17.17,17.17,0,0,1,410.1,7.26ZM391,4a8.22,8.22,0,0,1-.3,2.34,2.57,2.57,0,0,1-2.28,1.86,1.17,1.17,0,0,1-.42.06.45.45,0,0,1-.3-.06,7.18,7.18,0,0,1-2.88-2.7A18,18,0,0,0,380,.9c.24-.12.36-.42.48-.84C387.24.54,390.72,1.8,391,4Zm12.24,33.6V28.74H385.14v8.82Zm0,11V39.12H385.14V48.6Z"/><path d="M491.4,26.52a.89.89,0,0,1-.72.72,6.72,6.72,0,0,1-2.58.36,30.94,30.94,0,0,1-7.2,11.82c2,4.5,4.38,7.26,7.08,8.22,1,0,2.4-2.52,4.38-7.62.6.06.9.12.9.24a20.29,20.29,0,0,0-1.74,7.8,4,4,0,0,0,1.08,2.34A4.88,4.88,0,0,1,493.92,53c0,1.08-.84,1.62-2.4,1.74-2.64,0-5.52-1.14-8.7-3.36a29.14,29.14,0,0,1-6-8.4A51.32,51.32,0,0,1,461,50.76a8.22,8.22,0,0,0-.48-.84,50,50,0,0,0,14.64-10.68A63,63,0,0,1,471.36,20H459.18v9.24c3.12-.9,6.3-1.92,9.54-3.12l.48,1a77.39,77.39,0,0,1-10,5.94V49.32c-.12,3.3-2.4,5.16-6.84,5.64a1,1,0,0,1-1.08-1.08,9.62,9.62,0,0,0-.9-2.1q-.36-1.35-5.76-2.34v-1c2.28.18,4.68.24,7.14.24,1.08,0,1.68-.18,1.74-.6V35.64c-2.28,1-4.62,1.92-7.08,2.76a5.79,5.79,0,0,0-.66,2.7c-.12.66-.36,1-.84,1s-1.62-1.56-3.06-4.8a36.09,36.09,0,0,0-1.74-4.08,100.15,100.15,0,0,0,13.38-2.46V20c-6.48.06-10.5.3-12.12.66-.42-1-.9-2-1.44-3.12a113.11,113.11,0,0,0,13.56.6V9.42A87.25,87.25,0,0,1,442,10.74a8.18,8.18,0,0,0-.24-1c9.36-1.92,16.38-4.8,21-8.64,3.72,2.64,5.64,4.2,5.64,4.62s-.36.6-1,.6c-1.44-.18-2.64-.3-3.48-.42a23.49,23.49,0,0,1-4.68,2v10.2h12.06C470.76,10,470.4,4.38,470,1.38c5.7.6,8.58,1.14,8.7,1.68,0,.36-.24.6-.72.78q-1.17.63-2.16,1.08c0,4.92.12,9.36.36,13.2h7a22.43,22.43,0,0,1,3.9-4.14c.18,0,.36.06.54.06a10,10,0,0,1,1.44,1c2.52,2.16,3.84,3.54,3.84,4.14s-.24.84-.66.84h-16c.18,2.88.42,5.46.78,7.68a65.71,65.71,0,0,0,1.8,6.66,33,33,0,0,0,4.62-11.7C488.76,24.66,491.4,26,491.4,26.52Zm-2-17.46a8.62,8.62,0,0,1-.24,2,2.39,2.39,0,0,1-2.34,1.74c-.66,0-1.56-1.08-2.76-3.24a17.37,17.37,0,0,0-4.08-5.22,1.57,1.57,0,0,0,.42-.78C486.12,4.26,489.12,6.06,489.36,9.06Z"/><path d="M520.26,16.44c0,.42-.78.78-2.22,1,7.8,2,11.76,5.1,11.76,9.3a4.18,4.18,0,0,1-.3,1.5q-.27,1.17-2,1.44c-.72,0-1.74-1.14-3.12-3.48a30.67,30.67,0,0,0-8.28-8,44.15,44.15,0,0,1-6.06,7.32,38.6,38.6,0,0,1-9.72,7.2,8.8,8.8,0,0,1-.6-.66C506.46,25.56,510.54,19.2,512,13,517.5,14.58,520.26,15.72,520.26,16.44Zm-4.2-12c0,.72-1,1.08-2.94,1.2-2.52,4.2-6.48,8.22-11.88,12a3.64,3.64,0,0,0-1.14-.48A35.3,35.3,0,0,0,508.8,1.5C513.6,2.94,516.06,3.9,516.06,4.44Zm-6.66,29h10.44q2.34-3.24,3.24-3.42a10.7,10.7,0,0,1,3.18,1.8c1.44,1.14,2.22,1.92,2.22,2.4s-.36.78-1,1.14a6.07,6.07,0,0,0-1.62,1.38V45.6c.18,3.48.3,5.64.3,6.66,0,1.32-1.08,2-3.12,2-1.56,0-2.4-.36-2.46-1.08V50.58H510.3v2.64c-.24,1.2-1.38,1.8-3.3,1.8-1.2,0-1.92-.24-2.16-.6,0-3.6.06-7.08.18-10.56v-7a23,23,0,0,0-.42-5.28ZM520.62,49V35H510.3V49Zm9-38.58a4.7,4.7,0,0,1-.84,3.18,2.44,2.44,0,0,1-1.8.72c-1,0-1.92-1.14-2.88-3.54a22.89,22.89,0,0,0-6.54-7.38l.36-.72Q529.26,5.94,529.62,10.44Zm8.46-5.22h7.14A11,11,0,0,1,548,2.28a7.42,7.42,0,0,1,2.88,1.44c1.62,1.08,2.46,1.86,2.46,2.4,0,.36-.42.78-1.14,1.14a3.76,3.76,0,0,0-1.32,1.2v32.1q0,5.4-6.3,6.66c-.42,0-.66-.36-.78-1.14a5.57,5.57,0,0,0-2.22-3.24,14.59,14.59,0,0,0-3-1.5,7.55,7.55,0,0,0,.06-1,38.08,38.08,0,0,0,5.94.36,1.16,1.16,0,0,0,1.32-1.26V6.84h-8.82v46.5c-.24,1.2-1.38,1.8-3.3,1.8-1.2,0-1.92-.24-2.16-.6,0-8.22.06-16.26.24-24.06V14.64c-.12-6.72-.24-10.74-.48-11.94Z"/><path d="M582.48,1.86c2.4,2.16,3.78,3.54,4.08,4.26,0,.54-.18.78-.42.78H580.5V45.3c.06,1.56.12,3.36.18,5.28a43.12,43.12,0,0,0,7.92-12.9q3.6-7,4-22.14h-4.14c.06.78.12,1.5.12,2.22-.18,4-1.68,5.94-4.44,6-1.68-.06-2.58-.72-2.64-2A4.51,4.51,0,0,1,583.08,19,11.28,11.28,0,0,0,586,13.56c.12-1.14.24-2.28.36-3.36a3.3,3.3,0,0,0,1-.18c.36,1.38.66,2.7.9,4h4.32l-.18-8.28a27.92,27.92,0,0,0-.54-5.22c5.64.72,8.52,1.44,8.52,2.16,0,.48-.48.78-1.38,1a2.39,2.39,0,0,0-1.2,1.08L597.72,14h8.16c1.56-2,2.7-3.12,3.3-3.3a16.77,16.77,0,0,1,2.7,2c1.56,1.44,2.4,2.4,2.4,2.82s-.54.78-1.56.78a9.1,9.1,0,0,0-1.5.3,36.47,36.47,0,0,1-5.82,6.12,1.25,1.25,0,0,1-.6-.48,43.76,43.76,0,0,0,1.56-6.78h-8.64v1.08q-1.53,26.82-17,35.76v1.44c0,.72-1.08,1.2-3.12,1.32-1.68,0-2.52-.3-2.52-.84q.18-2.61.18-9.36V41.1a60.79,60.79,0,0,1-11,5.22,6.12,6.12,0,0,0-.54,2.1c-.06.54-.24.78-.6.78s-1.32-1.2-2.4-3.72c-.48-1.26-.9-2.28-1.32-3.12,1.68-.18,3.42-.42,5.1-.72V6.9a30.23,30.23,0,0,0-4.26.48c-.24-.72-.48-1.5-.84-2.4a41.43,41.43,0,0,0,6.6.36H577.5c1-1.32,2-2.58,2.94-3.66.3-.3.54-.48.78-.48A3.09,3.09,0,0,1,582.48,1.86ZM575.22,16.2V6.9H569.4v9.3Zm0,11.34V17.76H569.4v9.78Zm0,11.46V29.1H569.4V40.62C571.32,40.14,573.3,39.6,575.22,39ZM605,27q-.09.36-.72.72a4.39,4.39,0,0,0-1.86,1V47.22c.12,1.38.72,2,1.92,2h2.1c1.44,0,2.46-1.68,2.94-4.92.78-3.72,1.2-6.12,1.32-7.32a4.27,4.27,0,0,0,1,.06c.06,0,.12,2.94.12,8.7A2.44,2.44,0,0,0,612.9,48c1.08.78,1.68,1.5,1.68,2.34,0,1.44-1.08,2.4-3.12,3a16,16,0,0,1-4.74.6,27.87,27.87,0,0,1-4.38-.24c-3.18-.3-4.74-2.22-4.74-5.76V29.7a42.27,42.27,0,0,0-.3-4.86C602.4,25.68,605,26.4,605,27Z"/><path d="M629.58,21.36a6.11,6.11,0,0,1-.3,2A2.27,2.27,0,0,1,627,25.14q-1.08,0-3.06-2.7a17.09,17.09,0,0,0-4.5-4.32,1.34,1.34,0,0,0,.42-.72Q629.22,18.12,629.58,21.36Zm6.3-8.4c-1.08,4.56-2.58,10.5-4.5,17.88q-2.7,10.8-2.7,12.42a16.13,16.13,0,0,0,.72,4.32,17.93,17.93,0,0,1,.78,3.6c0,1.8-1,2.76-3,2.76-2.4,0-3.66-1.2-3.72-3.48A44.61,44.61,0,0,1,624,45.6c0-2-.48-3.36-1.38-4a13.11,13.11,0,0,0-3.12-1.32,2.39,2.39,0,0,1,.18-1c.6,0,1.14.06,1.74.06,2.34,0,4-1.32,5-3.9L635,12.54C635,12.78,635.28,12.9,635.88,13ZM632.58,8a6.78,6.78,0,0,1-.3,2.1,2.31,2.31,0,0,1-2.34,1.68c-.72,0-1.8-.9-3.12-2.76a17.12,17.12,0,0,0-4.56-4.5,1.57,1.57,0,0,0,.42-.78C629,4.32,632.34,5.76,632.58,8ZM641,22.5h4.32c1.5-1.68,2.58-2.52,3.18-2.58a8.63,8.63,0,0,1,3.12,1.86q2,1.8,2,2.34c0,.42-.48.78-1.32,1.14a3.69,3.69,0,0,0-1.2,1c-.66,12-1.5,19.74-2.58,23.22a7,7,0,0,1-6.18,5.28c-.48,0-.78-.42-1-1.26a4,4,0,0,0-1.8-2.46,23,23,0,0,0-3.72-1.5,3,3,0,0,1,.12-1,34.13,34.13,0,0,0,5.94.6c1.5-.12,2.28-.84,2.28-2.16.36-.84.78-3.78,1.26-8.94A34.63,34.63,0,0,1,635.88,44c0,1.14-.18,1.68-.54,1.68s-.6-.54-1.14-1.62a40.24,40.24,0,0,1-2.22-5,51.14,51.14,0,0,0,13.5-2.82c.24-3.3.48-7.32.72-12.12h-5.46c-.12.6-.18.84-.18.84-.24.6-1,.9-2.28.9-1.92,0-2.82-.24-2.82-.84,1.38-7.26,2.16-11.94,2.28-14.1,2.1,1,3.54,1.62,4.32,2h4V5.16h-6.54a18.56,18.56,0,0,0-4.86.48c-.18-.72-.42-1.5-.72-2.4a19.58,19.58,0,0,0,5.34.42h5.88c1.56-1.68,2.58-2.58,3.18-2.58a7.69,7.69,0,0,1,2.52,1.5c1.32,1.2,2,2,2,2.4s-.24.6-.72.9c-.3.24-.72.6-1.32,1.08V12.3a22.42,22.42,0,0,1,.3,3.24c0,1-1.2,1.5-3.48,1.62q-1.62,0-1.62-1.08V14.64h-4C641.58,18.24,641.22,20.82,641,22.5Zm2.4,9.48a7.26,7.26,0,0,1-.24,1.8,2.05,2.05,0,0,1-2,1.44c-.66,0-1.56-.84-2.76-2.58a17,17,0,0,0-4.08-4.2,1.12,1.12,0,0,0,.3-.66C640.2,28.26,643.14,29.7,643.38,32Zm15.9-9.48h5.64c1.5-1.68,2.58-2.52,3.18-2.58a8.63,8.63,0,0,1,3.12,1.86q2,1.8,2,2.34c0,.42-.48.78-1.32,1.14a3.69,3.69,0,0,0-1.2,1c-.6,12.18-1.44,20.1-2.52,23.7a6.88,6.88,0,0,1-6.06,5.34c-.48,0-.78-.48-1-1.38a4.18,4.18,0,0,0-1.8-2.7,20.8,20.8,0,0,0-3.84-1.68,3.15,3.15,0,0,1,.12-1,35.15,35.15,0,0,0,6.06.6q2.16-.18,2.16-2.16.54-1.26,1.26-9.36a33.89,33.89,0,0,1-10,6.6c0,1.08-.18,1.62-.48,1.62s-.6-.48-1.2-1.56-1.26-2.7-2.22-5c5.88-.6,10.56-1.68,14-3.24.18-3.24.42-7.2.66-11.88H659a6.69,6.69,0,0,1-.12.78c-.18.6-1,.9-2.28.9-1.92,0-2.82-.24-2.82-.84q1.8-10.53,2-13.68c1.62.72,2.82,1.32,3.66,1.68h5.64V5.1h-6.48a17.52,17.52,0,0,0-4.74.48c-.24-.72-.48-1.5-.78-2.4a19.83,19.83,0,0,0,5.4.42h5.88c1.56-1.68,2.58-2.52,3.18-2.52a7.7,7.7,0,0,1,2.58,1.5c1.32,1.2,2,2,2,2.4s-.3.6-.78.9-.84.6-1.5,1.08v5.28a24,24,0,0,1,.3,3.24q0,1.44-3.42,1.62-1.62,0-1.62-1.08V14.64h-4.92C659.76,18.24,659.46,20.82,659.28,22.5Zm3.48,9.6a5.12,5.12,0,0,1-.3,1.8,2,2,0,0,1-2,1.44q-1.08,0-2.88-2.52a16.68,16.68,0,0,0-4.14-4.08,2.15,2.15,0,0,0,.36-.66C659.52,28.56,662.52,29.88,662.76,32.1Z"/><path d="M691.2,22.74a69.53,69.53,0,0,0,5-9.6h-.42c-6.84,0-11,.24-12.72.72-.42-1-.9-2-1.44-3.12a107.15,107.15,0,0,0,14,.6H697A96.31,96.31,0,0,0,700.8.24c5.88,1.86,8.88,3,8.88,3.48,0,.9-1.2,1.44-3.48,1.62-1,2.16-2,4.14-2.94,6H722.4A23.78,23.78,0,0,1,727,6.42c.12,0,.3.06.54.06a12.24,12.24,0,0,1,1.74,1.14c2.94,2.46,4.44,4,4.44,4.74,0,.54-.24.78-.66.78H702.24A80.21,80.21,0,0,1,695.4,23.7a3.7,3.7,0,0,1,1.2.78c0,.54-.42.9-1.14,1.14q-1.62.81-1.62,1.08V53.76c0,1-1.14,1.56-3.3,1.68-1.32,0-2-.36-2-1,.12-7,.18-14.64.18-23.16a55,55,0,0,1-7.86,6.42c-.42-.24-.84-.48-1.2-.66a71.57,71.57,0,0,0,9.06-10.5v-.66a26.39,26.39,0,0,1-.3-3.48C689.46,22.5,690.36,22.62,691.2,22.74ZM718,18.6c0,.54-.36.9-1,1q-1.8.72-1.8,1.26V30.3h4.26c1.14-1.56,2.28-3,3.36-4.2.36-.36.6-.54.84-.54a3.69,3.69,0,0,1,1.38.78c2.76,2.4,4.32,4,4.68,4.74,0,.54-.18.78-.48.78h-14V50.22h7.14c2.28-3.36,3.78-5,4.5-5.1.54,0,1.62.9,3.3,2.64a12,12,0,0,1,2.76,3.3c0,.6-.24.9-.72,1h-25.8c-5.82.12-8.76.3-8.76.54a25.34,25.34,0,0,1-1.14-3.12,65.85,65.85,0,0,0,9.24.78h4.2V31.86h-5.34a27.13,27.13,0,0,0-5.7.48c-.24-.72-.48-1.5-.84-2.4a40,40,0,0,0,6.54.36h5.34V22.8a44.92,44.92,0,0,0-.36-6.36Q718,17.7,718,18.6Z"/><path d="M746.34,11.16c1.38.24,2.1.6,2.1,1.08s-.3.54-.9.66c-1,.36-1.44.66-1.44.84V36c0,2.34.06,4.38.12,6.12h3.3V8a51,51,0,0,0-.3-5.94c5.22.78,7.86,1.44,7.86,2s-.36.78-1,.9c-1.08.48-1.68.84-1.68,1.2V42.12h3.36c0-2.28.06-5.1.06-8.46v-18c-.12-1.68-.24-3.3-.42-4.92,1.68.24,3.54.54,5.52.78,1.38.3,2.1.66,2.1,1.08s-.36.6-1,.72c-1,.36-1.44.66-1.44.78V33.84c.06,5.82.12,9.9.24,12.3,0,.9-1.2,1.32-3.48,1.32-1.2,0-1.74-.3-1.74-1s.06-1.62.12-2.76H746.22c0,2,.06,3.54.12,4.62s-1.2,1.38-3.48,1.38c-1.2,0-1.74-.36-1.74-1.08q.09-3,.18-12.78V15.24c-.12-1.68-.24-3.3-.48-4.92C742.56,10.56,744.42,10.86,746.34,11.16Zm43.8-2.64C792.66,10.68,794,12,794,12.6s-.24.84-.66.84H779.76v10.5h4.14c1.74-1.68,2.94-2.58,3.6-2.76.48,0,1.5.66,3,1.92,1.74,1.38,2.64,2.34,2.64,2.94s-1,1.2-3.06,1.92a33.62,33.62,0,0,1-9.18,15,32.57,32.57,0,0,0,13.68,5.82,3.8,3.8,0,0,0-.3,1.32,3.37,3.37,0,0,0-1.8.6A4.49,4.49,0,0,0,790.74,53c-.6,1.08-1,1.62-1.32,1.62-1.44,0-4.68-2-9.66-5.94A25.17,25.17,0,0,1,777.3,46a54.14,54.14,0,0,1-18.48,8.28,3.75,3.75,0,0,1-.6-1c7-3,12.54-6.48,16.74-10.56a38.44,38.44,0,0,1-6.12-17.16,16.24,16.24,0,0,0-3.72.42A13.6,13.6,0,0,1,764,23.22a27.61,27.61,0,0,0,6.66.72h3.78V13.44H773c-3.72,0-6,.24-6.9.72-.42-1-.9-2-1.44-3.12a25.05,25.05,0,0,0,6.72.6h3.12V7A45.87,45.87,0,0,0,774.12.6c5.64.84,8.52,1.56,8.52,2.22,0,.48-.36.84-1.08,1q-1.8.72-1.8,1.26v6.6h4.5c1.8-2.28,3.06-3.66,3.9-4.14.12,0,.3.06.54.06C789.12,7.8,789.6,8.16,790.14,8.52Zm-5.58,17H769.92c2,6.3,4.5,11.1,7.62,14.46A31.06,31.06,0,0,0,784.56,25.56Z"/><path d="M806.64,4.92h8.7q2.34-3,3.24-3.06a10.7,10.7,0,0,1,3.18,1.8C823.2,4.74,824,5.58,824,6.06s-.3.72-.78,1.08a6.87,6.87,0,0,0-1.38,1.38V15.3c.24,2.64.36,4.38.36,5.16,0,1.32-1.08,2-3.12,2-1.56,0-2.4-.36-2.46-1.14V21.3h-1.26v8.94h1.86c1.32-2.16,2.22-3.36,2.7-3.48.24,0,1,.78,2.34,2.22,1,1.2,1.56,1.86,1.56,2.1a.87.87,0,0,1-.06.36,49.35,49.35,0,0,0,7.74-6.6c.84-.84,1.68-1.74,2.46-2.64a34.33,34.33,0,0,1-4.62-7.8A25.82,25.82,0,0,1,824,20.1c-.36-.24-.72-.42-1-.6,3.24-5,5.52-11.46,6.84-19.32q7.74,2.52,7.74,3.06c0,.72-1,1.2-3.06,1.38-.42,1.08-.84,2-1.26,3h8.16q2.88-2.7,3.6-2.7A8.62,8.62,0,0,1,848,6.84c1.86,1.62,2.82,2.7,2.82,3.18s-1.08,1-3.18,1.38a53.08,53.08,0,0,1-8.46,11.46,8.5,8.5,0,0,0,1.38.84,26,26,0,0,0,13.44,4,6.75,6.75,0,0,1-.12,1.2,4.33,4.33,0,0,0-1.56,1,12.21,12.21,0,0,0-1.2,2.4c-.24.84-.66,1.2-1.26,1.2-2.22,0-5.88-2-11-6.24a18.44,18.44,0,0,1-2.28-2c-1,.78-1.86,1.5-2.76,2.1a49.71,49.71,0,0,1-15,8.64c-.3-.54-.48-.84-.48-.84,1.74-1.14,3.3-2.22,4.74-3.24h-7.8v13.2a65.55,65.55,0,0,0,7.86-2,1.6,1.6,0,0,0,.18.72c-4.32,3.6-10.68,6.36-19.2,8.28-.18,2-.54,3.06-1.14,3.06-.36,0-1.14-1.44-2.34-4.2a19.1,19.1,0,0,1-1.32-4,19.45,19.45,0,0,0,2.7-.12V32.58c0-2.28-.12-4.14-.24-5.52,4.8.72,7.26,1.32,7.26,1.86s-.3.72-.9.84c-1,.48-1.56.84-1.56,1.08V46.5a36.08,36.08,0,0,0,3.78-.48V21.3h-2.7v.18c-.24,1.2-1.38,1.8-3.3,1.8-1.2,0-1.92-.18-2.16-.6,0-3.12.06-6.12.18-9.06V7.68a16.49,16.49,0,0,0-.42-4.5Zm10,14.82V6.42h-8.88V19.74Zm13.08,16.08H841.8Q844.14,33,845,32.94a10,10,0,0,1,3.24,1.8c1.44,1.14,2.16,1.92,2.16,2.4a1.65,1.65,0,0,1-.78,1.14,7.27,7.27,0,0,0-1.38,1.32v7.68c.18,2.94.3,4.86.3,5.76,0,1.32-1.08,2-3.12,2-1.56,0-2.4-.42-2.4-1.14V51H830.88v2.22c-.3,1.2-1.38,1.8-3.3,1.8-1.2,0-1.92-.24-2.16-.6,0-3.24.06-6.36.18-9.42V38.76a25.75,25.75,0,0,0-.42-4.68ZM835.74,20a37.39,37.39,0,0,0,5.94-11h-9.12a42.49,42.49,0,0,1-2.34,4.14A35.2,35.2,0,0,0,835.74,20Zm7.32,29.46V37.38H830.88V49.44Z"/></g></g></svg>