<svg xmlns="http://www.w3.org/2000/svg" viewBox="0 0 735.3 55.5"><g id="图层_2" data-name="图层 2"><g id="图层_1-2" data-name="图层 1"><path d="M53.7,15.48a7.66,7.66,0,0,1,1.56,2.16c0,.54-.18.78-.42.78H42.66c.06,3.48.24,7.26.48,11.28a56,56,0,0,0,1.38,7.14A35.81,35.81,0,0,0,47.1,23c4.2.72,6.3,1.32,6.3,1.68s-.24.48-.6.48a4.26,4.26,0,0,0-1.38.54,32.35,32.35,0,0,1-5.34,15.9c1.38,3.42,3.06,5.4,5,6q.72-.27,2.7-7.38c.36.12.66.3,1,.42-.36,4.2-.48,7.26-.48,9.06A6.9,6.9,0,0,0,55.2,52a3.3,3.3,0,0,1,.42,1.38c0,.84-.72,1.32-2.1,1.32a5.93,5.93,0,0,1-2.64-.66q-5-2.16-8.1-8.46A37.19,37.19,0,0,1,29.1,54.12a1.74,1.74,0,0,0-.3-.6A43.11,43.11,0,0,0,41.4,42.24C39.6,37,38.52,30.3,38.22,22v-3.6H17.1L17.22,24q0,12.33-1.08,16.74a29,29,0,0,1-2,6.54,17.85,17.85,0,0,1-6.48,7.8C7.2,55,7,54.84,7,54.54,9.9,50.7,11.7,44.46,12.3,35.7H8.4c-.18,2.52-.36,4.2-.54,5.16C7,46,4.92,49.32,1.8,50.64q0-.18-.36-.54c1.38-2,2.34-5.34,2.82-10,.12-1.44.18-2.88.24-4.2-1.44.12-2.58.24-3.54.36a12.73,12.73,0,0,1-1-2.58,69.12,69.12,0,0,0,9.36.42h3c.12-1.86.18-3.84.18-5.88v-.6H7.62v.6c0,.9-1,1.38-2.88,1.5-1.14,0-1.68-.24-1.68-.84.12-2.76.18-6,.18-9.6a18.78,18.78,0,0,1-.3-3q6.3.72,7,1.8c0,.48-.36.78-1,1-.9.48-1.32.78-1.32.9v6h4.92V19.44a23.5,23.5,0,0,0-.36-4.5l4.68,1.86h21.3a36.71,36.71,0,0,0-.3-5c4.74.48,7.2,1.08,7.38,1.68,0,.24-.24.54-.66.78a16.93,16.93,0,0,0-1.92,1V16.8h6c1.38-2.16,2.28-3.36,2.76-3.48C51.66,13.32,52.44,14,53.7,15.48ZM51.24,3.36C53.76,5.52,55,6.84,55,7.44s-.24.84-.6.84H37.56l.06,3.06Q37.53,13,34.56,13c-1.56,0-2.34-.36-2.34-1.2,0-1.2.06-2.4.06-3.48H21.84L21.9,12c-.12,1-1.14,1.56-3.06,1.56-1.56,0-2.34-.36-2.34-1.14,0-1.44.06-2.82.06-4.14H15.42Q4.71,8.28,2.1,9C1.68,8,1.2,7,.66,5.88a128.27,128.27,0,0,0,15.3.6h.6v-2c-.06-1.92-.12-3.36-.24-4.32,5.4.84,8.16,1.56,8.16,2.16,0,.36-.42.66-1.14,1Q21.72,4,21.72,4.38l.06,2.1H32.34v-2c-.12-1.92-.18-3.36-.24-4.32q8.1,1.26,8.1,2.16c0,.36-.36.66-1.08,1Q37.5,4,37.5,4.32l.06,2.16h7.8c1.8-2.28,3.06-3.66,3.9-4.14.12,0,.3.06.48.06A15.36,15.36,0,0,1,51.24,3.36ZM22.86,22.8h8.46c1.2-1.74,2-2.64,2.46-2.76.24,0,.9.66,2.1,1.86a6.35,6.35,0,0,1,1.38,1.74c0,.6-.18.84-.48.84H30.36v5.34h2c1-1.26,1.68-1.92,2-2a8.3,8.3,0,0,1,2.1,1.2c.9.72,1.38,1.2,1.38,1.5s-.3.48-.78.72a13.57,13.57,0,0,0-1.38.9v3.6c.12,1.44.24,2.34.24,2.7,0,.84-.72,1.32-2,1.32-1,0-1.56-.24-1.56-.72v-.9H30.72V44.7h1.14c1.2-2,2-3,2.46-3.12.24,0,.9.66,2,2a7.68,7.68,0,0,1,1.38,1.92c0,.6-.18.84-.42.84H23.52v2c-.24,1-1.08,1.44-2.58,1.44-1,0-1.5-.18-1.74-.48q0-6.66.18-13V27.78a61.69,61.69,0,0,0-.3-6.42Zm.66,1.68v5.34h3.72V24.48ZM32.4,36.6V31.32H23.52V36.6Zm-4.8,8.1V38.16H23.52V44.7ZM47,9.78c1.56.72,2.34,1.62,2.34,2.64a2.54,2.54,0,0,1-.78,2,2,2,0,0,1-1.32.36c-.72,0-1.14-.54-1.38-1.62a9.72,9.72,0,0,0-.9-2.16,12.05,12.05,0,0,0-1.26-1.62,3.92,3.92,0,0,0,.42-.48A13.64,13.64,0,0,1,47,9.78Z"/><path d="M72,22.68a69.53,69.53,0,0,0,5-9.6h-.42c-6.84,0-11,.24-12.72.72-.42-1-.9-2-1.44-3.12a107.15,107.15,0,0,0,14,.6h1.38A96.31,96.31,0,0,0,81.6.18c5.88,1.86,8.88,3,8.88,3.48,0,.9-1.2,1.44-3.48,1.62-1,2.16-2,4.14-2.94,6H103.2a23.78,23.78,0,0,1,4.56-4.92c.12,0,.3.06.54.06A12.24,12.24,0,0,1,110,7.56c2.94,2.46,4.44,4,4.44,4.74,0,.54-.24.78-.66.78H83A80.21,80.21,0,0,1,76.2,23.64a3.7,3.7,0,0,1,1.2.78c0,.54-.42.9-1.14,1.14q-1.62.81-1.62,1.08V53.7c0,1-1.14,1.56-3.3,1.68-1.32,0-2-.36-2-1,.12-7,.18-14.64.18-23.16a55,55,0,0,1-7.86,6.42c-.42-.24-.84-.48-1.2-.66a71.57,71.57,0,0,0,9.06-10.5V25.8a26.39,26.39,0,0,1-.3-3.48C70.26,22.44,71.16,22.56,72,22.68Zm26.82-4.14c0,.54-.36.9-1,1q-1.8.72-1.8,1.26v9.42h4.26c1.14-1.56,2.28-3,3.36-4.2.36-.36.6-.54.84-.54a3.69,3.69,0,0,1,1.38.78c2.76,2.4,4.32,4,4.68,4.74,0,.54-.18.78-.48.78H96V50.16h7.14c2.28-3.36,3.78-5,4.5-5.1.54,0,1.62.9,3.3,2.64A12,12,0,0,1,113.7,51c0,.6-.24.9-.72,1H87.18c-5.82.12-8.76.3-8.76.54a25.34,25.34,0,0,1-1.14-3.12,65.85,65.85,0,0,0,9.24.78h4.2V31.8H85.38a27.13,27.13,0,0,0-5.7.48c-.24-.72-.48-1.5-.84-2.4a40,40,0,0,0,6.54.36h5.34v-7.5a44.92,44.92,0,0,0-.36-6.36Q98.82,17.64,98.82,18.54Z"/><path d="M170.28,5.52c1.8,1.86,2.7,3.18,2.7,3.9s-1,.9-2.76.9c-.12,0-.72-.06-1.74-.06A153.23,153.23,0,0,1,152.22,18a.85.85,0,0,0,.36.12.94.94,0,0,1,.42.78,1.39,1.39,0,0,1-.9,1,6.1,6.1,0,0,0-1.08.6V47.82c-.36,4.26-3.18,6.72-8.4,7.38-.66,0-1.08-.6-1.2-1.74q-.45-1.89-3.6-3.6a15.3,15.3,0,0,0-4.08-1.5A3.94,3.94,0,0,1,134,47a67.53,67.53,0,0,0,8.34.84c1.92,0,2.94-.78,2.94-2.46V25.92a80,80,0,0,0-.36-9.3c1.68.24,3.3.48,5,.84a98.14,98.14,0,0,0,13.38-9.9h-27a91.85,91.85,0,0,0-11.4.72c-.6-1.32-1.08-2.34-1.44-3.18a76.86,76.86,0,0,0,12.84.84h26.58c2.46-1.86,4-2.82,4.5-2.82A10.6,10.6,0,0,1,170.28,5.52Z"/><path d="M232.2,26.46a.89.89,0,0,1-.72.72,6.72,6.72,0,0,1-2.58.36,30.94,30.94,0,0,1-7.2,11.82c2,4.5,4.38,7.26,7.08,8.22,1,0,2.4-2.52,4.38-7.62.6.06.9.12.9.24a20.29,20.29,0,0,0-1.74,7.8,4,4,0,0,0,1.08,2.34A4.88,4.88,0,0,1,234.72,53c0,1.08-.84,1.62-2.4,1.74-2.64,0-5.52-1.14-8.7-3.36a29.14,29.14,0,0,1-6-8.4,51.32,51.32,0,0,1-15.84,7.74,8.22,8.22,0,0,0-.48-.84,50,50,0,0,0,14.64-10.68,63,63,0,0,1-3.78-19.26H200v9.24c3.12-.9,6.3-1.92,9.54-3.12l.48,1a77.39,77.39,0,0,1-10,5.94V49.26c-.12,3.3-2.4,5.16-6.84,5.64a1,1,0,0,1-1.08-1.08,9.62,9.62,0,0,0-.9-2.1q-.36-1.35-5.76-2.34v-1c2.28.18,4.68.24,7.14.24,1.08,0,1.68-.18,1.74-.6V35.58c-2.28,1-4.62,1.92-7.08,2.76a5.79,5.79,0,0,0-.66,2.7c-.12.66-.36,1-.84,1s-1.62-1.56-3.06-4.8a36.09,36.09,0,0,0-1.74-4.08,100.15,100.15,0,0,0,13.38-2.46V19.92c-6.48.06-10.5.3-12.12.66-.42-1-.9-2-1.44-3.12a113.11,113.11,0,0,0,13.56.6V9.36a87.25,87.25,0,0,1-11.52,1.32,8.18,8.18,0,0,0-.24-1c9.36-1.92,16.38-4.8,21-8.64,3.72,2.64,5.64,4.2,5.64,4.62s-.36.6-1,.6c-1.44-.18-2.64-.3-3.48-.42a23.49,23.49,0,0,1-4.68,2v10.2H212c-.48-8.16-.84-13.74-1.2-16.74,5.7.6,8.58,1.14,8.7,1.68,0,.36-.24.6-.72.78q-1.17.63-2.16,1.08c0,4.92.12,9.36.36,13.2h7a22.43,22.43,0,0,1,3.9-4.14c.18,0,.36.06.54.06a10,10,0,0,1,1.44,1c2.52,2.16,3.84,3.54,3.84,4.14s-.24.84-.66.84h-16c.18,2.88.42,5.46.78,7.68a65.71,65.71,0,0,0,1.8,6.66,33,33,0,0,0,4.62-11.7C229.56,24.6,232.2,25.92,232.2,26.46ZM230.16,9a8.62,8.62,0,0,1-.24,2,2.39,2.39,0,0,1-2.34,1.74c-.66,0-1.56-1.08-2.76-3.24a17.37,17.37,0,0,0-4.08-5.22,1.57,1.57,0,0,0,.42-.78C226.92,4.2,229.92,6,230.16,9Z"/><path d="M293.4,35.4a13.44,13.44,0,0,1,1.44,3.12c0,.6-.24,1-.72,1H249.9c-5.82.12-8.76.3-8.76.54a26.67,26.67,0,0,1-1.2-3.12,31.27,31.27,0,0,0,5.76.6l-.84-26.28c-.24-2.52-.54-4.86-.84-6.9l5.34,2.28A18.06,18.06,0,0,0,255.48.72c.84.54,2.28,1.38,4.26,2.46,1,.72,1.5,1.14,1.5,1.38s-.3.48-.78.48c-1,.12-1.68.18-2,.24-1.38.6-2.94,1.2-4.62,1.74a27,27,0,0,1-4.08,1l.24,8.22h2c1.5-2.4,2.52-3.72,3-3.84.3,0,1.14.84,2.58,2.4a8.14,8.14,0,0,1,1.74,2.28c0,.54-.18.78-.48.78H250l.3,8.88h1.38c1.5-2.4,2.52-3.72,3.06-3.84q.36,0,2.52,2.34A8.89,8.89,0,0,1,259,27.6c0,.54-.18.78-.48.78h-8.16l.36,9.3h8.46a120.77,120.77,0,0,0,1.62-15c4.44.72,6.72,1.38,6.72,2,0,.36-.24.6-.72.6a5.06,5.06,0,0,0-1.68.72l-1,11.7H269l1.08-18.6H264.9c-.3,1.26-.6,1.92-.84,1.92a14.91,14.91,0,0,1-2.7.18c-1.32,0-2-.18-2-.66C261.24,11,262.2,4.32,262.2.36q7.2,1.44,7.38,2.16,0,.54-.72.72a13.23,13.23,0,0,0-1.92.42c0,.3-.24,2-.6,5.22h2.94A16.23,16.23,0,0,1,272,5.76a2.6,2.6,0,0,1,.3-.06,8.09,8.09,0,0,1,2,1.44,10.49,10.49,0,0,1,2.1,2.46c0,.6-.18.9-.42,1h-9.9c-.12.84-.18,1.74-.3,2.58-.24,1.8-.42,3.18-.54,4.26h4.14c1.74-2,2.82-3.12,3.24-3.12s1.26.6,2.7,1.74,2.22,2.16,2.22,2.64-.9,1.2-2.7,1.68l-.72,17.34h9.18l.6-9.24h-.6a23.89,23.89,0,0,0-4.92.54,12.73,12.73,0,0,1-1-2.58,27.91,27.91,0,0,0,5.94.42H284l.6-9.12h-1a25.72,25.72,0,0,0-5.22.54,11.54,11.54,0,0,1-1-2.58,31.43,31.43,0,0,0,6.24.42h1.08l.54-8.64h-3.48a12.27,12.27,0,0,0-3.72.3c-.3-.84-.6-1.68-.9-2.64.66.48,2,.66,4,.66h3.42c1.8-1.92,2.82-2.94,3.12-2.94.6,0,1.68.6,3.12,1.8s2.28,2.1,2.28,2.52-.6,1-1.56,1.26-1.26.54-1.26.66l-2,28.62h.9c1.32-3.12,2.16-4.68,2.52-4.74S292.56,33.78,293.4,35.4Zm-26.94,9.54c0,.48-1.2.84-3.54,1-4.68,3.6-11.88,6.6-21.6,9.06a5.11,5.11,0,0,0-1-1c8-3.6,14.1-7.92,18.18-13Q266.46,43.68,266.46,44.94Zm19,.66c4.92,1.86,7.38,3.78,7.38,5.94a3.91,3.91,0,0,1-.6,2.34,2,2,0,0,1-1.8,1q-1.35,0-5.76-4a36.82,36.82,0,0,0-13.8-7.8v-1A66.49,66.49,0,0,1,285.42,45.6Z"/><path d="M314.94,5.1c1.62.36,2.46.78,2.46,1.26s-.36.72-1.08.84c-1.2.42-1.74.72-1.74.9V18.48h9v-13A19.57,19.57,0,0,1,323.22,2c4.86.6,7.56,1.26,8.16,2.1,0,.54-.42.9-1.14,1.14q-1.62.81-1.62,1.08V18.48h9.3V5.88a22.12,22.12,0,0,1-.36-3.72c5.16.6,8.1,1.38,8.7,2.28,0,.54-.42,1-1.2,1.2-1.2.6-1.74,1-1.74,1.14v11.7h2.34a36.4,36.4,0,0,1,3.78-4.38,1.47,1.47,0,0,1,.42.06c.48.12,1.62,1.14,3.54,3.18,1,1,1.5,1.68,1.5,2.16s-.36.72-1,.72H343.32V38.7c0,1.14-1.2,1.74-3.54,1.8-1.44,0-2.1-.3-2.1-1,0-1.14.06-2.28.06-3.42h-9.12v3.18c0,1.08-1.14,1.62-3.3,1.74-1.32,0-2-.3-2-1,.12-6.06.18-12.66.24-19.74h-9v18.9c.06,3.9.12,7.08.18,9.6H344c1.8-2.52,3-4.08,3.72-4.56a.87.87,0,0,1,.42-.12,11.07,11.07,0,0,1,2.76,2,13.7,13.7,0,0,1,3,3.42c0,.54-.18.84-.42,1H314.82c0,1.2,0,2.22.06,3.06,0,1-1.38,1.56-4.08,1.56-1.32,0-2-.42-2-1.2.12-2.4.18-7.32.18-14.88V20.22c-2.7.06-5.28.18-7.8.36a10.93,10.93,0,0,1-1.32-2.82,55.1,55.1,0,0,0,9.12.72V10q-.18-3-.54-5.76Q311.52,4.56,314.94,5.1Zm22.8,29.4c.06-4.56.12-9.36.18-14.28h-9.3V34.5Z"/><path d="M406.68,2.58q2.52,1.89,2.52,2.52c0,.36-.3.72-.78,1.08-.84.72-1.32,1.2-1.44,1.32V17.76c.06,3.54.18,5.88.3,7.08s-1.32,1.92-4,1.92c-1.08,0-1.62-.42-1.62-1.32V24.12h-7.56a26,26,0,0,0,9.3,7.26,28.84,28.84,0,0,0,11.88,2.76,9,9,0,0,0-.12,1,4,4,0,0,0-1.44,1,11.75,11.75,0,0,0-1.14,2.22c-.24.72-.6,1.08-1.14,1.08-1.92,0-5.16-1.5-9.66-4.56a3.74,3.74,0,0,1-.72-.54c-.06.48-.42.84-1.14,1.08-1.08.54-1.56.9-1.56,1.08V53.82c0,1-1.14,1.56-3.36,1.68-1.32,0-2-.36-2-1,.12-5.46.24-11.7.24-18.78a19.57,19.57,0,0,1-.36-3.48,31.84,31.84,0,0,1,7.32,1.5,26.24,26.24,0,0,1-7.44-9.6h-7a16,16,0,0,1-2,2.64,21,21,0,0,1-5.4,5.4c4.56.72,6.84,1.32,6.84,1.92s-1,1-2.76,1.08a18.1,18.1,0,0,1-1.08,7.2c-2,5.52-8,9.66-17.76,12.6a2.62,2.62,0,0,0-.54-.66c9.18-4.38,13.8-9.9,13.92-16.68,0-2-.06-3.48-.12-4.44a59.91,59.91,0,0,1-15.54,6.54c-.24,0-.48-.3-.66-.9,9-4,14.88-8.28,17.64-12.9a13.2,13.2,0,0,0,1.2-1.8h-6.18v1.2c-.24,1.2-1.38,1.8-3.3,1.8-1.2,0-1.92-.18-2.16-.6,0-3.84.06-7.56.24-11.22V7.92a27.75,27.75,0,0,0-.48-5.58l4.62,1.74h28.26c1.8-1.92,2.94-2.94,3.42-2.94A10.94,10.94,0,0,1,406.68,2.58Zm-22,10.56V5.58H373.44v7.56Zm0,9.42v-7.8H373.44v7.8Zm17-9.42V5.58H390.06v7.56Zm0,9.42v-7.8H390.06v7.8Z"/><path d="M441.48,36.06a10.44,10.44,0,0,0-1.08-.66,42.47,42.47,0,0,0,13.86-20.64c5.52,1.8,8.34,2.88,8.34,3.3,0,.84-1.14,1.32-3.3,1.56a51,51,0,0,1-5.58,7.32V48.3c.12,1.32.24,3.06.24,5.28,0,.84-1,1.32-3,1.44-1.56,0-2.4-.18-2.4-.54,0-1,.06-3.12.06-6.48V31.62A40.37,40.37,0,0,1,441.48,36.06ZM461,4c0,.84-1.08,1.32-3.24,1.5a37.53,37.53,0,0,1-15.54,13.62,11.15,11.15,0,0,0-1.14-.66A36.78,36.78,0,0,0,452.76.66C458.28,2.46,461,3.54,461,4Zm7.08,11c-4.56,0-7.44.24-8.52.66-.42-1-.9-2-1.44-3.12a43,43,0,0,0,8.88.6H484a22.43,22.43,0,0,1,3.9-4.14c.18,0,.36.06.54.06a10,10,0,0,1,1.44,1c2.52,2.16,3.84,3.54,3.84,4.14s-.24.84-.66.84H477.54v15.3h3.78a22.09,22.09,0,0,1,4-4.14c.12,0,.3.06.48.06a15.36,15.36,0,0,1,1.5,1Q491,30.36,491,31.26c0,.6-.24.84-.66.84H477.54V50.28h7c1.92-2.46,3.3-4,4.2-4.5.18,0,.36.06.54.06a13.76,13.76,0,0,1,1.62,1c2.7,2.28,4.08,3.72,4.08,4.44,0,.54-.24.84-.6.84H467.46c-4.92,0-8,.18-9.18.66-.42-1.08-.9-2.1-1.38-3.06a55.72,55.72,0,0,0,9.42.54h5.82V32.1h-3.42c-4,0-6.48.24-7.44.66-.42-1-.9-2-1.38-3.06a33.89,33.89,0,0,0,7.32.54h4.92V14.94Zm9.78-6.3a3.44,3.44,0,0,1-1.2,3,3.26,3.26,0,0,1-2,.72c-1.38,0-2.34-1.26-2.88-3.84a14.37,14.37,0,0,0-3.9-6.72,4,4,0,0,1,.72-.72C474.78,3.72,477.9,6.24,477.9,8.64Z"/><path d="M549.84,6.18C552.6,8.52,554,10,554,10.62s-.24.84-.66.84H530.1V25a30.38,30.38,0,0,0,10.08,10.8c5.34,3.78,10.14,6.06,14.34,6.9a3.15,3.15,0,0,1-.12,1.08,4.61,4.61,0,0,0-2.4,2c-.24.78-.42,1.5-.66,2.1s-.42.9-.72.9c-2.88,0-7.56-3.66-14.16-11.1a56.66,56.66,0,0,1-6.36-9.6V39.3c.12,6.84.18,11.58.3,14.34,0,1-1.38,1.56-4.08,1.56-1.38,0-2-.42-2-1.2.12-2.4.18-7.32.24-14.88V34.38q-11.16,11.52-23.46,16.2c-.18-.24-.36-.48-.6-.78Q515,41.25,524.52,24.9V11.46h-8.94c-6.9,0-11.22.24-12.9.72a20.57,20.57,0,0,0-1.38-3.12,114.09,114.09,0,0,0,14.46.6h8.76V6.3q-.18-2.88-.54-5.76c2,.3,4.14.6,6.42,1,1.62.3,2.46.72,2.46,1.26s-.36.66-1.08.78c-1.14.42-1.68.72-1.68,1V9.66h13.38a25.83,25.83,0,0,1,4.2-4.56c.18,0,.36.06.6.06A13.55,13.55,0,0,1,549.84,6.18Zm-30.78,11.1c0,.78-1,1.26-3,1.44-.48,1.2-1,2.22-1.44,3.18a17.79,17.79,0,0,1,2.58,1c2.4,1.26,3.66,2.76,3.66,4.44a3.63,3.63,0,0,1-1.14,2.94,3.23,3.23,0,0,1-2,.54c-1.14,0-1.92-.84-2.28-2.64a15.93,15.93,0,0,0-1.5-3.54c-.12-.24-.3-.42-.42-.66A37.9,37.9,0,0,1,503.1,36.78a6.37,6.37,0,0,0-1-.6c4.44-5.76,7.5-13.08,9.3-22C516.48,15.9,519.06,16.92,519.06,17.28Zm28.68-.12q0,1.17-3.06,1.44A27.11,27.11,0,0,1,543,21.84c5.4,1.92,8.22,4.14,8.4,6.54q0,2.52-.9,3.42a2.37,2.37,0,0,1-1.92.78c-.78,0-1.62-1.14-2.46-3.42A22.38,22.38,0,0,0,542,23.4a23.78,23.78,0,0,1-6.6,7c-.36-.24-.72-.42-1-.6A41.43,41.43,0,0,0,540,14.1Q547.74,16.62,547.74,17.16Z"/><path d="M569.58,12.78h1a70.42,70.42,0,0,0,2-12.24C577.5,2,580,3,580,3.48c0,.72-1,1.14-2.94,1.26a28.93,28.93,0,0,1-4.5,8h4.92c1.8-1.86,2.94-2.82,3.42-2.82a9.07,9.07,0,0,1,2.7,1.5q2.52,1.89,2.52,2.52t-.9,1.08a9.3,9.3,0,0,0-1.56,1.32V36.3c.12,6.84.18,11.46.3,13.8,0,1.2-1.32,1.86-4,1.86-1.08,0-1.56-.42-1.56-1.26V47.34h-8.76V51.9q-.36,1.8-3.24,1.8c-1.2,0-2-.24-2.22-.6,0-6.72.06-13.32.24-19.74V20.46c-.12-5.52-.24-8.76-.42-9.78Zm8.82,15.9V14.34h-8.76V28.68Zm0,17V30.24h-8.76V45.72ZM600.54,3.36c0,.6-1,1-2.94,1.26-.84,2.76-1.74,5.34-2.7,7.68H606c1.62-2,2.76-3.06,3.42-3.12a10.3,10.3,0,0,1,3.36,2q2.16,2,2.16,2.52,0,.72-1.44,1.26a3.76,3.76,0,0,0-1.32,1.08c-.84,16.44-1.92,27.06-3.24,31.92-1.2,4.2-3.78,6.66-7.8,7.26-.66,0-1.14-.6-1.5-1.8A5.45,5.45,0,0,0,597,50a43.42,43.42,0,0,0-5.52-2.16,5.38,5.38,0,0,1,.12-1.32,65.16,65.16,0,0,0,9,.84c2.16-.18,3.3-1.14,3.3-2.94,1-1.8,2-12,3.06-30.48H594.18c-2.76,6.12-5.88,10.8-9.48,13.92a2.48,2.48,0,0,1-.3-.66c3.84-6.6,6.54-15.54,8-26.7C597.78,1.62,600.54,2.58,600.54,3.36Zm.54,29.88a5.78,5.78,0,0,1-1,3.72,3,3,0,0,1-2.64,1.2c-1,0-1.68-1.2-1.92-3.72-.9-4.56-2.16-8.1-3.84-10.56l.9-.66C598.2,26.94,601,30.24,601.08,33.24Z"/><path d="M644.82,6.78c0,.54-1.38,1-4.08,1.32A61.52,61.52,0,0,1,633,19.5,47.44,47.44,0,0,1,621.3,30c-.12-.12-.3-.42-.66-.78Q633.24,15.81,635.94,3C641.82,4.74,644.82,6,644.82,6.78ZM629.94,27.24a22.79,22.79,0,0,0-1.08-2.82,59.64,59.64,0,0,0,10.8.72h18c1.56-1.74,2.7-2.64,3.48-2.7,3.24,2,4.92,3.48,4.92,4.56,0,.42-.36.84-1,1.26-.84.48-1.32.9-1.32,1.38-.6,10.32-1.68,16.92-3.18,19.68a9,9,0,0,1-8,5c-.6,0-1-.66-1.2-2a5.51,5.51,0,0,0-2.58-2.94,33.69,33.69,0,0,0-4.62-2.22,2.44,2.44,0,0,0,.3-1.26,37.49,37.49,0,0,0,7.56.78c2.16-.12,3.48-.9,4-2.22,1.2-2.52,2-8.46,2.28-17.82H644.88c-.12,2.34-.3,3.48-.42,3.48-1.68,12.84-9.36,21.12-23,25a1.62,1.62,0,0,1-.48-.42c10.08-5,16-13.56,17.64-25.68a19.47,19.47,0,0,0,.12-2.34A51.87,51.87,0,0,0,629.94,27.24ZM659.88,4.5c0,.54-.66.9-1.86,1.08-.84.18-1.38.42-1.5.72q0,2.88,4.5,7.74a30.19,30.19,0,0,0,14,8.28,6.36,6.36,0,0,1-.18,1.08,2.88,2.88,0,0,0-2.64,1.2c-.66,2-1.32,3-1.92,3-1.92-.18-4.44-2.1-7.56-5.82a34,34,0,0,1-8.58-16.62h-3.84a19.48,19.48,0,0,0-4.56.36,21.79,21.79,0,0,1-1.14-2.64,26.44,26.44,0,0,0,5,.66h3.06C654,1.68,655,.66,655.56.54Q659.88,3.42,659.88,4.5Z"/><path d="M731.22,11.46c2.7,2.34,4.08,3.84,4.08,4.44s-.24.84-.6.84h-14V47.52c-.36,4.26-2.82,6.72-7.44,7.38-.72,0-1.2-.6-1.32-1.74-.36-1.26-1.74-2.46-4.08-3.6a18.46,18.46,0,0,0-4.56-1.5,3.94,3.94,0,0,1,.24-1.38,69.6,69.6,0,0,0,8.46.84c1.92,0,2.94-.78,2.94-2.4V16.74H696.48c-7,0-11.34.24-13,.66-.42-1-.9-2-1.38-3.06a116.18,116.18,0,0,0,14.64.6H714.9v-.36q0-10.44-.36-14.58a63.17,63.17,0,0,1,7.74,1.56.89.89,0,0,1,.36.78c0,.36-.3.66-.9,1a6.1,6.1,0,0,0-1.08.6v11h4.2a23.68,23.68,0,0,1,4.2-4.56c.12,0,.3.06.54.06A13.76,13.76,0,0,1,731.22,11.46ZM704.64,34.32a5.47,5.47,0,0,1-1,3.66,2.68,2.68,0,0,1-2.1.84c-1.08,0-2.16-1.56-3.3-4.68a29.47,29.47,0,0,0-7.5-9.72,3.67,3.67,0,0,1,.42-.84C699.84,26.58,704.34,30.18,704.64,34.32Z"/></g></g></svg>