<svg xmlns="http://www.w3.org/2000/svg" viewBox="0 0 733.98 55.38"><g id="图层_2" data-name="图层 2"><g id="图层_1-2" data-name="图层 1"><path d="M19.68,7.62q1.89,1.71,2.88,2.7H37.08a9,9,0,0,1-2.34-3.18,18.88,18.88,0,0,0-4.08-5.52,1.57,1.57,0,0,0,.42-.78C37,1.56,40,3.54,40.2,6.78a6.37,6.37,0,0,1-.3,2,2.06,2.06,0,0,1-1.38,1.5h7.62c1.62-2.64,2.7-4,3.24-4.2.36,0,1.26.9,2.82,2.58a9.4,9.4,0,0,1,1.92,2.46c0,.6-.18.84-.48.84H38.52a35.48,35.48,0,0,1-9,10.2c3.24.18,6.6.24,10.2.24a59.39,59.39,0,0,0,2.64-5.58c4.92,2.34,7.44,3.84,7.44,4.5a.65.65,0,0,1-.48.48A4.12,4.12,0,0,1,48,22a14.29,14.29,0,0,0-2,.12c-5,8.52-12.66,15.12-23,19.92a1.52,1.52,0,0,1-.48-.6,57.49,57.49,0,0,0,16.2-17.34A74.87,74.87,0,0,1,25.92,27.6a7,7,0,0,1-.6,1.62c-.06.24-.24.3-.54.3s-1.14-2.58-2.34-7.74c1.62.18,3.3.3,5.1.36A32.8,32.8,0,0,0,32,12H23.82c-.06.42-.24.6-.48.6H6.6a27.37,27.37,0,0,0-5.76.48C.6,12.42.36,11.64,0,10.68a39.06,39.06,0,0,0,6.6.42h8.1a39.08,39.08,0,0,1,2.94-3.66c.36-.3.6-.48.78-.48A3.09,3.09,0,0,1,19.68,7.62ZM18.06,16a19.41,19.41,0,0,1,3.6,3.72c0,.48-.18.72-.48.72H8.76A27.37,27.37,0,0,0,3,20.88c-.24-.66-.48-1.44-.84-2.4a39.59,39.59,0,0,0,6.6.42h5a28.56,28.56,0,0,1,2.58-3.12,1.2,1.2,0,0,1,.66-.42A3.35,3.35,0,0,1,18.06,16Zm0,8.22a21.46,21.46,0,0,1,3.6,3.72c0,.54-.18.78-.48.78H8.82a27.37,27.37,0,0,0-5.76.48c-.24-.72-.48-1.5-.84-2.4a39.59,39.59,0,0,0,6.6.42h4.92a28.56,28.56,0,0,1,2.58-3.12c.24-.3.48-.48.66-.48A3.35,3.35,0,0,1,18.06,24.18ZM7.92,35.76H14c1.56-1.92,2.64-2.94,3.24-3a10,10,0,0,1,3.24,1.8C22,35.7,22.68,36.48,22.68,37a1.58,1.58,0,0,1-.84,1.14,6.38,6.38,0,0,0-1.62,1.32v6.42c.24,2.52.36,4.08.36,4.86,0,1.26-1.08,1.92-3.12,2-1.56,0-2.4-.36-2.46-1.08V49.44H8.34v2.64C8.1,53.28,7,53.88,5,53.88c-1.2,0-1.92-.24-2.16-.6,0-3.12.06-6.06.18-9.06V38.28a17.09,17.09,0,0,0-.42-4.56ZM11.1,1.56C13.44,3,14.64,4.62,14.64,6.48a3.49,3.49,0,0,1-1.08,2.76,2.75,2.75,0,0,1-1.86.54c-1.14,0-1.92-1-2.28-2.94a14.84,14.84,0,0,0-1.56-3.9A16.49,16.49,0,0,0,6.12.66,4.38,4.38,0,0,1,6.66,0,15.33,15.33,0,0,1,11.1,1.56ZM15,47.82V37.32H8.34v10.5Zm5.52,6.9A2.51,2.51,0,0,1,20,54Q38.31,43.38,46,28.08c5.4,2.52,8.1,4.14,8.1,4.8a.78.78,0,0,1-.54.6,4.53,4.53,0,0,1-1.38.18,17.91,17.91,0,0,0-2.22.12,49,49,0,0,1-7.32,8c7.62,3.18,11.46,6,11.52,8.52,0,1.68-.48,2.76-1.38,3.24a3.3,3.3,0,0,1-1.68.42c-1.2,0-2.16-1.08-3-3.18a27,27,0,0,0-6.36-8.16A73.9,73.9,0,0,1,20.52,54.72Z"/><path d="M79.44,8.28c2.28,2,3.54,3.36,3.84,4,0,.48-.18.72-.48.72H66.12a27.37,27.37,0,0,0-5.76.48c-.24-.66-.48-1.44-.84-2.4a39.59,39.59,0,0,0,6.6.42h8.7a42.54,42.54,0,0,1,2.7-3.42c.3-.3.54-.48.72-.48S78.84,7.86,79.44,8.28ZM78.3,16.62c1.92,1.74,3.06,2.88,3.3,3.48,0,.48-.18.72-.48.72H68.88a27.37,27.37,0,0,0-5.76.48c-.24-.66-.48-1.44-.84-2.4a39.06,39.06,0,0,0,6.6.42h5.4a22.73,22.73,0,0,1,2.4-2.82c.24-.24.42-.42.6-.42A2.34,2.34,0,0,1,78.3,16.62Zm-11.52,19h7.14c1.44-1.56,2.4-2.4,3-2.46a9.89,9.89,0,0,1,3,1.68c1.32,1,2,1.74,2,2.22s-.3.66-.84,1a5.49,5.49,0,0,0-1.44,1.26V46c.24,2.64.36,4.26.36,5,0,1.2-1,1.86-2.94,1.86-1.44,0-2.22-.36-2.28-1V49.44H67.74V53c-.24,1.08-1.26,1.68-3.06,1.68-1.14,0-1.8-.24-2-.6,0-3.24.06-6.3.24-9.36V38.58a25.75,25.75,0,0,0-.42-4.68ZM78.3,24.66a18.07,18.07,0,0,1,3.3,3.42c0,.54-.18.78-.48.78H69.3a27.37,27.37,0,0,0-5.76.48c-.24-.72-.48-1.5-.84-2.4a39.06,39.06,0,0,0,6.6.42h5a23.47,23.47,0,0,1,2.4-2.88c.24-.24.42-.36.6-.36A2.34,2.34,0,0,1,78.3,24.66ZM70.68,2c2.4,1.44,3.66,3.12,3.66,5a3.49,3.49,0,0,1-1.08,2.76,2.75,2.75,0,0,1-1.86.54c-1.2,0-2-1-2.46-3.06a14.07,14.07,0,0,0-1.62-4,16.49,16.49,0,0,0-1.74-2.28,4.38,4.38,0,0,1,.54-.66A14,14,0,0,1,70.68,2Zm4.14,45.78V37.14H67.74V47.82Zm35.34-44.1q0,.72-3.6,1.08a28.52,28.52,0,0,1-7.44,9.42h5c1.44-1.68,2.4-2.58,3-2.58s1.44.54,3,1.62c1.32,1.08,2,1.8,2,2.28s-.3.66-.9,1a8.19,8.19,0,0,0-1.62,1.26v6.9q.36,4.05.36,5.22c0,1.2-1,1.86-2.94,1.86-1.44,0-2.22-.3-2.28-1v-.72h-1.68V46.5c.3,1.5,1,2.22,2,2.22H107c1.68,0,2.64-1.26,2.88-3.9a68.79,68.79,0,0,0,1.38-7.68,5.82,5.82,0,0,0,1,.06V45a3.1,3.1,0,0,0,.78,2.46,2.77,2.77,0,0,1,1.26,2.1c0,1.32-1.08,2.28-3.24,2.94a12.17,12.17,0,0,1-4.26.78,26.2,26.2,0,0,1-3-.12c-3.72-.3-5.58-2.22-5.64-5.7V30.06H96.3a19.92,19.92,0,0,0-.18,2.22C95.34,38.94,93.6,44,91,47.64a17.9,17.9,0,0,1-12,7.2c-.06-.24-.18-.6-.3-1a21.24,21.24,0,0,0,7.44-6.06C89,44,90.66,38.82,91.26,32.1c.06-.72.12-1.38.18-2H89.76v.24C89.52,31.44,88.5,32,86.7,32c-1.14,0-1.8-.18-2-.6,0-3,.06-5.94.24-8.82V16.74a23.09,23.09,0,0,0-.42-4.38l4.92,1.86h8.46a43.18,43.18,0,0,0,4.2-14.1Q110.16,2.55,110.16,3.72ZM95.4,8.34a5.1,5.1,0,0,1-.78,3.18,2.75,2.75,0,0,1-2.34,1.08c-1.08,0-1.8-1-2.1-3a20.59,20.59,0,0,0-4.26-8.52L86.7.54C92.46,3.42,95.34,6,95.4,8.34Zm9.42,20.1V15.72H89.76V28.44Z"/><path d="M172.08,5.34A11.13,11.13,0,0,1,174.42,8c0,.6-.18,1-.42,1H157.38a37.46,37.46,0,0,0,3.42,12.78A67.73,67.73,0,0,0,165,12.3c5.28,1.8,8,3.12,8,3.9,0,.54-1.2.9-3.6,1a47.77,47.77,0,0,1-5.94,8.88,18.94,18.94,0,0,0,6.06,5.16c1.26-.06,2.52-2.82,3.84-8.34,0,.12.24.18.66.18-.48,2.46-1,4.8-1.32,7a3,3,0,0,0,.78,2.1,6.15,6.15,0,0,1,1.32,3.3c-.24,1.14-1.26,1.68-3.12,1.68-4.44,0-8.52-2.28-12.12-6.9a49.17,49.17,0,0,1-7.8,6.06c-.3-.36-.6-.66-1-1a57.1,57.1,0,0,0,6.66-8,15.64,15.64,0,0,1-1-1.68c-2-3.72-3.42-9.24-4.26-16.56H130l.12,2.1c0,7.14-.42,12-1.14,14.58a20.56,20.56,0,0,1-2,5.64,15.25,15.25,0,0,1-6.54,6.78.59.59,0,0,1-.66-.6c3.48-4,5.28-11.28,5.28-21.84V8.52a15.36,15.36,0,0,0-.42-3.66l6.06,2.46H152c-.3-2.28-.48-4.68-.6-7.26,4.74.72,7.14,1.32,7.14,1.74s-.12.54-.36.6c-.78.36-1.2.72-1.2,1a39,39,0,0,0,.24,4h9.36a17,17,0,0,1,3-3.48.46.46,0,0,1,.3-.12A8.08,8.08,0,0,1,172.08,5.34ZM129.9,39.18a46.93,46.93,0,0,1,.18,4.92c-.06,5-2,7.5-6,7.62-1.92,0-2.88-.66-3-1.86A4.31,4.31,0,0,1,123,46.62a11.8,11.8,0,0,0,3.66-3.06,10.61,10.61,0,0,0,2.22-4.44A6.89,6.89,0,0,1,129.9,39.18Zm6.3-17.76H145c1.32-1.38,2.28-2.1,2.76-2.16a9.08,9.08,0,0,1,2.76,1.56c1.2,1,1.86,1.62,1.86,2s-.3.66-.9,1A13.6,13.6,0,0,0,149.76,25v4.2c.18,1.68.3,2.7.3,3.18,0,1.14-.9,1.74-2.64,1.74-1.38,0-2.1-.3-2.1-1V31.86H136.8v1.2c-.24,1.14-1.26,1.68-3.06,1.68-1.08,0-1.74-.18-2-.6,0-2.28.06-4.5.18-6.72V23a14,14,0,0,0-.42-3.36Zm12.36-9.66c2.1,1.92,3.3,3.12,3.54,3.72,0,.54-.18.78-.42.78H138.3a28.2,28.2,0,0,0-5.76.48c-.24-.72-.48-1.5-.78-2.4a38.21,38.21,0,0,0,6.54.42h5.94a28.56,28.56,0,0,1,2.58-3.12c.24-.3.48-.48.66-.48A3.35,3.35,0,0,1,148.56,11.76Zm-6.48,27.18c0,.66-1.08,1.32-3.24,2V46.2c0,1.62,1,2.46,2.88,2.58h10.74c2,0,3.48-.66,4.2-2,.6-.84,1.26-2.88,2-6.06a9.6,9.6,0,0,0,1,.06v5.94c0,.48.42.9,1.26,1.14,1,.48,1.56.9,1.56,1.38-.12,1.74-1.8,2.88-5,3.48-2.7.24-5.46.42-8.28.42-5.64,0-9.24-.12-10.8-.3-3.24-.18-4.8-2.76-4.8-7.68V42.72a32.07,32.07,0,0,0-.42-6.12Q142.08,38.13,142.08,38.94Zm3.24-8.7V22.92H136.8v7.32Zm8.1,11.58a5.12,5.12,0,0,1-.3,1.8,2,2,0,0,1-2,1.44c-.72,0-1.68-1.08-2.88-3.3a19.06,19.06,0,0,0-4.2-5.34,2.15,2.15,0,0,0,.36-.66C150.18,36.48,153.18,38.46,153.42,41.82ZM167.1,3.3a7.26,7.26,0,0,1-.24,1.8,2.05,2.05,0,0,1-2,1.44c-.6,0-1.38-.66-2.34-2a12.76,12.76,0,0,0-3.42-3.3,2.15,2.15,0,0,0,.36-.66C164.34.9,166.92,1.8,167.1,3.3ZM173.58,48a3.36,3.36,0,0,1-1.14,2.82,3.23,3.23,0,0,1-1.92.66c-1.44,0-2.4-1.5-2.94-4.5a17.12,17.12,0,0,0-4-7.92,6,6,0,0,0,.72-.66C170.46,41.76,173.58,45,173.58,48Z"/><path d="M195.06,7.62a18.07,18.07,0,0,1,3.3,3.42c0,.54-.18.78-.48.78H186.06a27.37,27.37,0,0,0-5.76.48c-.24-.72-.48-1.5-.84-2.46a39.59,39.59,0,0,0,6.6.42h5a22.73,22.73,0,0,1,2.4-2.82A1.34,1.34,0,0,1,194,7,2.75,2.75,0,0,1,195.06,7.62Zm-1.38,7.62a16.15,16.15,0,0,1,3.3,3.42c0,.54-.18.78-.42.78H188a28.2,28.2,0,0,0-5.76.48,22.28,22.28,0,0,0-.78-2.46,38.21,38.21,0,0,0,6.54.42h1.74a29.19,29.19,0,0,1,2.34-2.82,1.34,1.34,0,0,1,.6-.42A2.75,2.75,0,0,1,193.68,15.24Zm.06,7.68A17.36,17.36,0,0,1,197,26.4c0,.54-.18.78-.42.78H188a34.37,34.37,0,0,0-5.76.42c-.18-.66-.42-1.44-.78-2.4a38.21,38.21,0,0,0,6.54.42h1.8a29.19,29.19,0,0,1,2.34-2.82,1.34,1.34,0,0,1,.6-.42A2.34,2.34,0,0,1,193.74,22.92Zm-7.8,11.76h3.84c1.32-1.62,2.28-2.46,2.76-2.52a9.08,9.08,0,0,1,2.76,1.56c1.26,1,1.92,1.62,1.92,2s-.24.66-.72,1a7.52,7.52,0,0,0-1.2,1.14V45.6c.18,3,.3,4.92.3,5.82,0,1.08-.9,1.68-2.7,1.74-1.32,0-2-.3-2.1-.9V49.92h-4.08v2.94c-.24,1-1.2,1.56-2.82,1.56-1.08,0-1.68-.18-1.86-.48,0-3.36.06-6.54.18-9.66V37.92a41,41,0,0,0-.36-4.8Zm4.92-29.4a6.78,6.78,0,0,1-.3,2.1,2.4,2.4,0,0,1-2.34,1.68c-.48,0-1.08-1-1.86-3.12a19.77,19.77,0,0,0-2.7-5,1.34,1.34,0,0,0,.42-.72C188.4.78,190.68,2.46,190.86,5.28Zm-.06,43V36.18h-4.08V48.3Zm22-45.84c0,.36-.48.54-1.32.66a5,5,0,0,0-1.56.3A17.57,17.57,0,0,1,206.4,8h2.88a9.28,9.28,0,0,1,2.58-2.58,7.18,7.18,0,0,1,2.64,1.32c1.5,1,2.28,1.74,2.28,2.22s-.36.72-1,1.08a4.12,4.12,0,0,0-1.26,1.08V28c.6-1,1.14-1.92,1.68-2.88,1,.9,1.86,1.62,2.46,2.16a35.71,35.71,0,0,0-1-5.82c.42-.12.66-.18.66-.3,3.06,4,4.62,8,4.62,12.24-.12,2-1,3-2.52,3-1.14,0-1.68-.6-1.68-1.92V33.12c0-.72.06-1.62.12-2.64,0-.24-.06-.42-.06-.6a.26.26,0,0,1-.18-.06,52,52,0,0,1-4.14,5V48.9c0,3.3-1.92,5.34-5.7,6.12q-.54,0-.72-1.08a5.06,5.06,0,0,0-1.92-3,12.58,12.58,0,0,0-2.7-1.32,1.79,1.79,0,0,0,.12-.84,30.07,30.07,0,0,0,5.16.3,1.06,1.06,0,0,0,1.2-1.14V39.36a53.68,53.68,0,0,1-13.2,9l-.3-.66a78.16,78.16,0,0,0,13.5-13.14V31.62a22.87,22.87,0,0,1-9.54,4.62c-.12,1.56-.36,2.34-.84,2.34-.24,0-.84-1-1.8-3.18a15.23,15.23,0,0,1-1-3.12,18.57,18.57,0,0,0,2.58-.12V10.44A40.51,40.51,0,0,0,199,5.88c1.62.84,3.12,1.5,4.5,2.1h2c.12-2.46.18-5,.24-7.74C210.42,1.2,212.82,1.92,212.82,2.46ZM209.94,9.6h-6v5.94h6Zm0,7.56h-6V23.4h6Zm0,13.38V25h-6v6.72A37.93,37.93,0,0,0,209.94,30.54Zm22-28a.55.55,0,0,1-.42.6c-.42.18-.9.42-1.5.66s-.78.54-.78.72V15.48h.54c1.14-2.64,1.86-4,2.22-4s.72.72,1.44,2.1a15.74,15.74,0,0,1,1.14,2.7c0,.6-.24,1-.66,1h-4.68v30.3c0,4.68-2.1,7-6.24,7a.88.88,0,0,1-1-1,4.64,4.64,0,0,0-1.8-2.76,6.53,6.53,0,0,0-3.18-1.32,2,2,0,0,0,.18-.9c1,.12,2.94.12,6,.12.6,0,1-.48,1-1.56V17.28c-5.1.12-7.68.24-7.68.48a21.71,21.71,0,0,1-1.2-3.06,62.09,62.09,0,0,0,8.88.78V8.1A57.7,57.7,0,0,0,223.8.36C228.78,1.2,231.48,2,232,2.58Z"/><path d="M249.18,12.66h1a70.42,70.42,0,0,0,2-12.24c4.86,1.44,7.32,2.46,7.32,2.94,0,.72-1,1.14-2.94,1.26a28.93,28.93,0,0,1-4.5,8H257c1.8-1.86,2.94-2.82,3.42-2.82a9.07,9.07,0,0,1,2.7,1.5q2.52,1.89,2.52,2.52t-.9,1.08a9.3,9.3,0,0,0-1.56,1.32V36.18c.12,6.84.18,11.46.3,13.8,0,1.2-1.32,1.86-4,1.86-1.08,0-1.56-.42-1.56-1.26V47.22h-8.76v4.56q-.36,1.8-3.24,1.8c-1.2,0-2-.24-2.22-.6,0-6.72.06-13.32.24-19.74V20.34c-.12-5.52-.24-8.76-.42-9.78ZM258,28.56V14.22h-8.76V28.56Zm0,17V30.12h-8.76V45.6ZM280.14,3.24c0,.6-1,1-2.94,1.26-.84,2.76-1.74,5.34-2.7,7.68h11.1c1.62-2,2.76-3.06,3.42-3.12a10.3,10.3,0,0,1,3.36,2q2.16,2,2.16,2.52,0,.72-1.44,1.26A3.76,3.76,0,0,0,291.78,16c-.84,16.44-1.92,27.06-3.24,31.92-1.2,4.2-3.78,6.66-7.8,7.26-.66,0-1.14-.6-1.5-1.8a5.45,5.45,0,0,0-2.64-3.42,43.42,43.42,0,0,0-5.52-2.16,5.38,5.38,0,0,1,.12-1.32,65.16,65.16,0,0,0,9,.84c2.16-.18,3.3-1.14,3.3-2.94,1-1.8,2-12,3.06-30.48H273.78C271,20,267.9,24.66,264.3,27.78a2.48,2.48,0,0,1-.3-.66c3.84-6.6,6.54-15.54,8-26.7C277.38,1.5,280.14,2.46,280.14,3.24Zm.54,29.88a5.78,5.78,0,0,1-1,3.72,3,3,0,0,1-2.64,1.2c-1,0-1.68-1.2-1.92-3.72-.9-4.56-2.16-8.1-3.84-10.56l.9-.66C277.8,26.82,280.62,30.12,280.68,33.12Z"/><path d="M300.9,54.24a1.75,1.75,0,0,0-.78-.66q10-6.39,17.1-19.14c4-6.12,6.18-15.84,6.54-29.16l-.24-2.58a3.34,3.34,0,0,0-.66-1.56c7.26,1,10.92,1.92,10.92,2.82q0,.9-1.8,1.26a3.28,3.28,0,0,0-1.56,1.38l-.06,1.14c-.12,1.32-.24,2.52-.36,3.66a46.81,46.81,0,0,0,9.84,24.24c4.32,5.7,9,9.54,14.16,11.52a2.77,2.77,0,0,1-.3,1.38c-1.08.12-1.62.24-1.68.48a4.45,4.45,0,0,0-2.22,1.86c-.72,1.56-1.44,2.34-2.1,2.4-1.68,0-4.8-3.3-9.36-9.78q-7.29-10.44-9.18-26.28C325.8,35.82,316.38,48.12,300.9,54.24Z"/><path d="M399.66,7.62q1.89,1.71,2.88,2.7h14.52a9,9,0,0,1-2.34-3.18,18.88,18.88,0,0,0-4.08-5.52,1.57,1.57,0,0,0,.42-.78c5.88.72,8.88,2.7,9.12,5.94a6.37,6.37,0,0,1-.3,2,2.06,2.06,0,0,1-1.38,1.5h7.62c1.62-2.64,2.7-4,3.24-4.2.36,0,1.26.9,2.82,2.58a9.4,9.4,0,0,1,1.92,2.46c0,.6-.18.84-.48.84H418.5a35.48,35.48,0,0,1-9,10.2c3.24.18,6.6.24,10.2.24a59.39,59.39,0,0,0,2.64-5.58c4.92,2.34,7.44,3.84,7.44,4.5a.65.65,0,0,1-.48.48A4.12,4.12,0,0,1,428,22a14.29,14.29,0,0,0-2,.12c-5,8.52-12.66,15.12-23,19.92a1.52,1.52,0,0,1-.48-.6,57.49,57.49,0,0,0,16.2-17.34A74.87,74.87,0,0,1,405.9,27.6a7,7,0,0,1-.6,1.62c-.06.24-.24.3-.54.3s-1.14-2.58-2.34-7.74c1.62.18,3.3.3,5.1.36A32.8,32.8,0,0,0,412,12H403.8c-.06.42-.24.6-.48.6H386.58a27.37,27.37,0,0,0-5.76.48c-.24-.66-.48-1.44-.84-2.4a39.06,39.06,0,0,0,6.6.42h8.1a39.08,39.08,0,0,1,2.94-3.66c.36-.3.6-.48.78-.48A3.09,3.09,0,0,1,399.66,7.62ZM398,16a19.41,19.41,0,0,1,3.6,3.72c0,.48-.18.72-.48.72H388.74a27.37,27.37,0,0,0-5.76.48c-.24-.66-.48-1.44-.84-2.4a39.59,39.59,0,0,0,6.6.42h5a28.56,28.56,0,0,1,2.58-3.12,1.2,1.2,0,0,1,.66-.42A3.35,3.35,0,0,1,398,16Zm0,8.22a21.46,21.46,0,0,1,3.6,3.72c0,.54-.18.78-.48.78H388.8a27.37,27.37,0,0,0-5.76.48c-.24-.72-.48-1.5-.84-2.4a39.59,39.59,0,0,0,6.6.42h4.92a28.56,28.56,0,0,1,2.58-3.12c.24-.3.48-.48.66-.48A3.35,3.35,0,0,1,398,24.18ZM387.9,35.76H394c1.56-1.92,2.64-2.94,3.24-3a10,10,0,0,1,3.24,1.8c1.44,1.14,2.16,1.92,2.16,2.4a1.58,1.58,0,0,1-.84,1.14,6.38,6.38,0,0,0-1.62,1.32v6.42c.24,2.52.36,4.08.36,4.86,0,1.26-1.08,1.92-3.12,2-1.56,0-2.4-.36-2.46-1.08V49.44h-6.66v2.64c-.24,1.2-1.38,1.8-3.3,1.8-1.2,0-1.92-.24-2.16-.6,0-3.12.06-6.06.18-9.06V38.28a17.09,17.09,0,0,0-.42-4.56Zm3.18-34.2c2.34,1.44,3.54,3.06,3.54,4.92a3.49,3.49,0,0,1-1.08,2.76,2.75,2.75,0,0,1-1.86.54c-1.14,0-1.92-1-2.28-2.94a14.84,14.84,0,0,0-1.56-3.9A16.49,16.49,0,0,0,386.1.66a4.38,4.38,0,0,1,.54-.66A15.33,15.33,0,0,1,391.08,1.56ZM395,47.82V37.32h-6.66v10.5Zm5.52,6.9A2.51,2.51,0,0,1,400,54q18.27-10.62,25.92-25.92c5.4,2.52,8.1,4.14,8.1,4.8a.78.78,0,0,1-.54.6,4.53,4.53,0,0,1-1.38.18,17.91,17.91,0,0,0-2.22.12,49,49,0,0,1-7.32,8c7.62,3.18,11.46,6,11.52,8.52,0,1.68-.48,2.76-1.38,3.24A3.3,3.3,0,0,1,431,54c-1.2,0-2.16-1.08-3-3.18a27,27,0,0,0-6.36-8.16A73.9,73.9,0,0,1,400.5,54.72Z"/><path d="M459.42,8.28c2.28,2,3.54,3.36,3.84,4,0,.48-.18.72-.48.72H446.1a27.37,27.37,0,0,0-5.76.48c-.24-.66-.48-1.44-.84-2.4a39.59,39.59,0,0,0,6.6.42h8.7a42.54,42.54,0,0,1,2.7-3.42c.3-.3.54-.48.72-.48S458.82,7.86,459.42,8.28Zm-1.14,8.34c1.92,1.74,3.06,2.88,3.3,3.48,0,.48-.18.72-.48.72H448.86a27.37,27.37,0,0,0-5.76.48c-.24-.66-.48-1.44-.84-2.4a39.06,39.06,0,0,0,6.6.42h5.4a22.73,22.73,0,0,1,2.4-2.82c.24-.24.42-.42.6-.42A2.34,2.34,0,0,1,458.28,16.62Zm-11.52,19h7.14c1.44-1.56,2.4-2.4,3-2.46a9.89,9.89,0,0,1,3,1.68c1.32,1,2,1.74,2,2.22s-.3.66-.84,1a5.49,5.49,0,0,0-1.44,1.26V46c.24,2.64.36,4.26.36,5,0,1.2-1,1.86-2.94,1.86-1.44,0-2.22-.36-2.28-1V49.44h-7.08V53c-.24,1.08-1.26,1.68-3.06,1.68-1.14,0-1.8-.24-2-.6,0-3.24.06-6.3.24-9.36V38.58a25.75,25.75,0,0,0-.42-4.68Zm11.52-10.92a18.07,18.07,0,0,1,3.3,3.42c0,.54-.18.78-.48.78H449.28a27.37,27.37,0,0,0-5.76.48c-.24-.72-.48-1.5-.84-2.4a39.06,39.06,0,0,0,6.6.42h5a23.47,23.47,0,0,1,2.4-2.88c.24-.24.42-.36.6-.36A2.34,2.34,0,0,1,458.28,24.66ZM450.66,2c2.4,1.44,3.66,3.12,3.66,5a3.49,3.49,0,0,1-1.08,2.76,2.75,2.75,0,0,1-1.86.54c-1.2,0-2-1-2.46-3.06a14.07,14.07,0,0,0-1.62-4,16.49,16.49,0,0,0-1.74-2.28,4.38,4.38,0,0,1,.54-.66A14,14,0,0,1,450.66,2Zm4.14,45.78V37.14h-7.08V47.82Zm35.34-44.1q0,.72-3.6,1.08a28.52,28.52,0,0,1-7.44,9.42h5c1.44-1.68,2.4-2.58,3-2.58s1.44.54,3,1.62c1.32,1.08,2,1.8,2,2.28s-.3.66-.9,1a8.19,8.19,0,0,0-1.62,1.26v6.9q.36,4.05.36,5.22c0,1.2-1,1.86-2.94,1.86-1.44,0-2.22-.3-2.28-1v-.72h-1.68V46.5c.3,1.5,1,2.22,2,2.22H487c1.68,0,2.64-1.26,2.88-3.9a68.79,68.79,0,0,0,1.38-7.68,5.82,5.82,0,0,0,1,.06V45a3.1,3.1,0,0,0,.78,2.46,2.77,2.77,0,0,1,1.26,2.1c0,1.32-1.08,2.28-3.24,2.94a12.17,12.17,0,0,1-4.26.78,26.2,26.2,0,0,1-3-.12c-3.72-.3-5.58-2.22-5.64-5.7V30.06h-1.92a19.92,19.92,0,0,0-.18,2.22c-.78,6.66-2.52,11.76-5.16,15.36a17.9,17.9,0,0,1-12,7.2c-.06-.24-.18-.6-.3-1a21.24,21.24,0,0,0,7.44-6.06c2.88-3.72,4.56-8.94,5.16-15.66.06-.72.12-1.38.18-2h-1.68v.24c-.24,1.14-1.26,1.68-3.06,1.68-1.14,0-1.8-.18-2-.6,0-3,.06-5.94.24-8.82V16.74a23.09,23.09,0,0,0-.42-4.38l4.92,1.86h8.46A43.18,43.18,0,0,0,482,.12Q490.14,2.55,490.14,3.72ZM475.38,8.34a5.1,5.1,0,0,1-.78,3.18,2.75,2.75,0,0,1-2.34,1.08c-1.08,0-1.8-1-2.1-3a20.59,20.59,0,0,0-4.26-8.52l.78-.54C472.44,3.42,475.32,6,475.38,8.34Zm9.42,20.1V15.72H469.74V28.44Z"/><path d="M515.76,2.52a.55.55,0,0,1-.48.6c-.42.18-1,.42-1.56.72s-.9.54-.9.78v9.66h.9c1.44-2.64,2.34-4,2.82-4,.3,0,.9.72,1.86,2.16A11.93,11.93,0,0,1,520,15.06c0,.6-.24,1-.66,1h-6.48V27.66A53.7,53.7,0,0,0,519,26.4a1.6,1.6,0,0,0,.18.72,24.67,24.67,0,0,1-6.36,4.08v16c0,5-2,7.56-6.06,7.56a.92.92,0,0,1-1-1,5,5,0,0,0-1.86-3,7,7,0,0,0-3.3-1.44,2.1,2.1,0,0,0,.18-1c.9.12,2.82.12,5.7.12.6,0,1-.54,1-1.62V33.18c-1,.3-1.86.54-2.82.78-.18,2-.54,3.06-1.14,3.06-.36,0-1.14-1.38-2.34-4.2a19.1,19.1,0,0,1-1.32-4c2.64,0,5.16-.18,7.62-.42V16.08c-4.08.12-6.12.3-6.12.48a26.67,26.67,0,0,1-1.2-3.12,47.46,47.46,0,0,0,7.32.72V7.8A57.7,57.7,0,0,0,507,.06C512.34,1,515.28,1.8,515.76,2.52Zm17.58,1c0,.6-1,1-2.94,1.2-.72,1.8-1.44,3.42-2.16,4.92H545.1c1.56-2,2.64-3.12,3.18-3.12a7.25,7.25,0,0,1,2.94,1.68c1.56,1.2,2.4,2,2.4,2.46s-.6,1.14-1.8,1.92a1.8,1.8,0,0,0-.72,1.68,192.77,192.77,0,0,1-1.86,21.12c-.84,4.8-3.24,7.14-7.14,7.14-.6,0-1-.54-1.2-1.62a4.64,4.64,0,0,0-1.38-1.92,10,10,0,0,0-4.86-1.86c0-.12.06-.48.06-1.14,2,.12,3.66.24,5,.3,3,0,4.68-1.62,4.92-4.86a141,141,0,0,0,1.2-20H527.34a44.93,44.93,0,0,1-4.26,6.48l3,1.32h7.56c1.56-1.8,2.64-2.76,3.24-2.82a10,10,0,0,1,3.24,1.8c1.44,1.08,2.16,1.92,2.16,2.4s-.3.72-.84,1.08A6.51,6.51,0,0,0,539.88,23V28.2c.24,2,.36,3.3.36,3.9,0,1.32-1.08,2-3.12,2-1.56,0-2.4-.36-2.46-1.08V31.74h-7.74V44.58c0,2.4,1.68,3.6,5.1,3.6,1.92.12,3.9.18,5.88.24l5.88-.36c2.64,0,4.14-.9,4.5-2.82a62.8,62.8,0,0,0,2-7.92,7.44,7.44,0,0,0,1.26.12q-.18,3.24-.18,7.74a1.88,1.88,0,0,0,1.32,1.68,2.27,2.27,0,0,1,1.08,1.8c-.06,1.56-1.5,2.76-4.26,3.54a36.58,36.58,0,0,1-9.84,1.08c-3.84,0-6.66-.12-8.52-.3-6.48-.06-9.72-2.28-9.72-6.6V23.22c0-1.2-.06-2.34-.06-3.36a26.43,26.43,0,0,1-5.46,4.74,4.75,4.75,0,0,1-.3-.6c4.56-5.76,7.74-13.56,9.54-23.34C530.58,1.74,533.34,2.7,533.34,3.48Zm1.32,26.64V20.64h-7.74v9.48Z"/><path d="M588.54,7.14c2.1,1.8,3.18,3,3.18,3.48s-.24.84-.66.84H580.92V16.8h2.58a9.55,9.55,0,0,1,2.7-2.34,10.73,10.73,0,0,1,2.1,1.32c1,.78,1.56,1.38,1.56,1.8s-.66.84-1.86,1.56v4.2h.66c1.2-2.1,1.92-3.18,2.28-3.24.12,0,.36.24.66.66A105.47,105.47,0,0,0,594.66.24c5,1,7.5,1.92,7.5,2.64,0,.48-.9.9-2.7,1.14a76.91,76.91,0,0,1-2.4,8.22h9.3c1.68-2.52,2.76-3.78,3.36-3.84a4.17,4.17,0,0,0,.9.54c2.4,2.34,3.66,3.9,3.66,4.62a.82.82,0,0,1-.48.66,10.75,10.75,0,0,0-2.88.48,45.76,45.76,0,0,1-6.72,7.74c-.12,0-.3-.18-.54-.42a40.16,40.16,0,0,0,3.3-8.34H596.52a26.72,26.72,0,0,1-4.44,7.8,3.44,3.44,0,0,1,.24.42,9.32,9.32,0,0,1,1.2,2.28q0,.9-.72.9H588v3.24c.12,2,.24,3.66.24,4.86,0,.84-.78,1.26-2.22,1.26q-1.8,0-1.8-.54V32.76h-3.3v2c5.16,3.12,7.8,6.12,7.8,8.88a2,2,0,0,1-.72,1.8,1.83,1.83,0,0,1-1.2.42c-1.56,0-2.58-1.32-3.18-4.08a15.23,15.23,0,0,0-2.7-5.4V46.2c.12,2.16.18,4.74.18,7.86,0,.66-1,1.08-2.88,1.2-1.56,0-2.28-.3-2.28-.78.06-1.62.12-4.5.12-8.58V32.76c-1.32,0-2.52.06-3.54.06v13.5c.12,2.16.18,4.74.18,7.86,0,.66-1,1.08-2.88,1.2-1.56,0-2.34-.3-2.34-.78.12-1.62.18-4.5.18-8.58V41.58a24.92,24.92,0,0,1-7.5,9.66,1.31,1.31,0,0,0-.42-.54,39.57,39.57,0,0,0,5.82-12.9,44.32,44.32,0,0,0,1-4.8c-1.68.12-3.12.18-4.32.3a16.29,16.29,0,0,1-1-2.58c1,.12,3.12.24,6.48.3V25.14c-4.74.12-7.14.3-7.14.48a17.61,17.61,0,0,1-1.14-3.12c.78.3,3.54.54,8.28.78v-4.8a23.8,23.8,0,0,0-5,.48c-.48-1-.9-2-1.2-2.82a40.13,40.13,0,0,0,6.24.6V11.46c-3.24.12-5.34.36-6.18.72A29.38,29.38,0,0,0,560,9.06a35.69,35.69,0,0,0,8,.6h9.18a29,29,0,0,0,2.88-9.6c4.62,1.38,7,2.4,7,3.06,0,.48-1.08.78-3.12,1a18.79,18.79,0,0,1-5,5.58h4.56a15.49,15.49,0,0,1,3.3-3.36h.42C587.64,6.54,588.06,6.78,588.54,7.14Zm-18.3-5.4c2.34,1.32,3.54,2.82,3.54,4.56a3.14,3.14,0,0,1-1.08,2.76,2.75,2.75,0,0,1-1.86.54c-1.14,0-1.92-.9-2.28-2.76A14.43,14.43,0,0,0,567,3.18,16.49,16.49,0,0,0,565.26.9a4.38,4.38,0,0,1,.54-.66A14.76,14.76,0,0,1,570.24,1.74Zm5.82,9.72h-3.54V16.8h3.54Zm-3.54,11.88h3.54V18.48h-3.54Zm0,7.74c1.14.06,2.34.06,3.54.06V25.08h-3.54Zm8.4-7.74h3.3V18.48h-3.3Zm0,7.8h3.3V25.08h-3.3ZM601.86,19.5c1.32.42,2,.84,2,1.2a.83.83,0,0,1-.72.84c-.72.36-1.5.66-2.34,1-.12,1.5-.18,2.94-.3,4.26A35.4,35.4,0,0,0,604,37.74c2.52,5.16,6.06,8.64,10.56,10.32a2.36,2.36,0,0,1-.3,1.2,3.14,3.14,0,0,0-1.86,1.08,4.74,4.74,0,0,0-1.2,1.86c-.36,1.44-1,2.22-1.74,2.22-1.68-.9-3.84-4-6.36-9.36a43.36,43.36,0,0,1-3.3-13.26A40.38,40.38,0,0,1,595.92,44c-3,5.34-7,9-11.82,10.92a2.48,2.48,0,0,1-.3-1,21.21,21.21,0,0,0,6.72-7.56,38.3,38.3,0,0,0,4.08-11.64,82.61,82.61,0,0,0,1.32-16.68Q598.53,18.78,601.86,19.5Z"/><path d="M629.16,12.66h1a70.42,70.42,0,0,0,2-12.24c4.86,1.44,7.32,2.46,7.32,2.94,0,.72-1,1.14-2.94,1.26a28.93,28.93,0,0,1-4.5,8H637c1.8-1.86,2.94-2.82,3.42-2.82a9.07,9.07,0,0,1,2.7,1.5q2.52,1.89,2.52,2.52t-.9,1.08a9.3,9.3,0,0,0-1.56,1.32V36.18c.12,6.84.18,11.46.3,13.8,0,1.2-1.32,1.86-4,1.86-1.08,0-1.56-.42-1.56-1.26V47.22h-8.76v4.56q-.36,1.8-3.24,1.8c-1.2,0-2-.24-2.22-.6,0-6.72.06-13.32.24-19.74V20.34c-.12-5.52-.24-8.76-.42-9.78ZM638,28.56V14.22h-8.76V28.56Zm0,17V30.12h-8.76V45.6ZM660.12,3.24c0,.6-1,1-2.94,1.26-.84,2.76-1.74,5.34-2.7,7.68h11.1c1.62-2,2.76-3.06,3.42-3.12a10.3,10.3,0,0,1,3.36,2q2.16,2,2.16,2.52,0,.72-1.44,1.26A3.76,3.76,0,0,0,671.76,16c-.84,16.44-1.92,27.06-3.24,31.92-1.2,4.2-3.78,6.66-7.8,7.26-.66,0-1.14-.6-1.5-1.8a5.45,5.45,0,0,0-2.64-3.42,43.42,43.42,0,0,0-5.52-2.16,5.38,5.38,0,0,1,.12-1.32,65.16,65.16,0,0,0,9,.84c2.16-.18,3.3-1.14,3.3-2.94,1-1.8,2-12,3.06-30.48H653.76c-2.76,6.12-5.88,10.8-9.48,13.92a2.48,2.48,0,0,1-.3-.66c3.84-6.6,6.54-15.54,8-26.7C657.36,1.5,660.12,2.46,660.12,3.24Zm.54,29.88a5.78,5.78,0,0,1-1,3.72,3,3,0,0,1-2.64,1.2c-1,0-1.68-1.2-1.92-3.72-.9-4.56-2.16-8.1-3.84-10.56l.9-.66C657.78,26.82,660.6,30.12,660.66,33.12Z"/><path d="M680.88,54.24a1.75,1.75,0,0,0-.78-.66q10-6.39,17.1-19.14c4-6.12,6.18-15.84,6.54-29.16L703.5,2.7a3.34,3.34,0,0,0-.66-1.56c7.26,1,10.92,1.92,10.92,2.82q0,.9-1.8,1.26A3.28,3.28,0,0,0,710.4,6.6l-.06,1.14c-.12,1.32-.24,2.52-.36,3.66a46.81,46.81,0,0,0,9.84,24.24c4.32,5.7,9,9.54,14.16,11.52a2.77,2.77,0,0,1-.3,1.38c-1.08.12-1.62.24-1.68.48a4.45,4.45,0,0,0-2.22,1.86c-.72,1.56-1.44,2.34-2.1,2.4-1.68,0-4.8-3.3-9.36-9.78Q711,33.06,709.14,17.22C705.78,35.82,696.36,48.12,680.88,54.24Z"/></g></g></svg>