<svg xmlns="http://www.w3.org/2000/svg" viewBox="0 0 834.06 56.1"><g id="图层_2" data-name="图层 2"><g id="图层_1-2" data-name="图层 1"><path d="M28,2.1c1.56,1.32,2.4,2.22,2.4,2.64s-.3.78-.84,1.08A11.08,11.08,0,0,1,28,6.9q-.45,31.68-2.52,38.94c-1,4.8-3.48,7.5-7.44,8q-.81,0-.9-1.62a6.27,6.27,0,0,0-2.64-3.48A16.82,16.82,0,0,0,11.58,47c.06-.3.12-.6.18-.84a40,40,0,0,0,5.94,1.32c1.5,0,2.46-1,2.94-3,.54-3.42,1-7.38,1.38-11.88H16.2c-1,0-1.8.06-2.58.06C11.16,42.12,6.72,49.56.36,55.08.3,55,.18,54.84,0,54.6c4-5.52,6.72-12.84,8.34-21.84-2.34.12-4.32.24-6,.36a11.54,11.54,0,0,1-1-2.58c1.08.12,3.48.24,7.32.3.42-2.88.78-5.94,1-9.12a28.85,28.85,0,0,0,.24-3c-3,.12-5.52.24-7.5.42a12.73,12.73,0,0,1-1-2.58,83.52,83.52,0,0,0,8.52.36c.12-2.94.18-6.78.18-11.58H9.9a37.18,37.18,0,0,0-7.56.6c-.24-.6-.54-1.44-1-2.64a59.3,59.3,0,0,0,8.76.48H22.38C23.94,1.62,25,.54,25.56.54A6.72,6.72,0,0,1,28,2.1ZM14,30.9C15,31,16,31,17,31h5.1c.3-3.78.54-7.92.66-12.36H15.66A74.5,74.5,0,0,1,14,30.9Zm1.74-17c0,1.08-.06,2.1-.06,3.12h7.14c.06-3.72.12-7.56.12-11.64H15.9C15.9,7.14,15.84,10,15.78,13.86ZM38.16,3.78h7.2C46.92,2,48,1,48.72.84c.3,0,1.26.72,2.94,2.1s2.4,2.34,2.4,2.76-.3.78-.9.9c-1.2.48-2,.84-2.4,1a65.9,65.9,0,0,1-8.22,13.14c6.42,4.62,9.72,10,10,16.08q0,7.74-5.76,9A1.46,1.46,0,0,1,45.3,44.7,5,5,0,0,0,43,41.4a15,15,0,0,0-2.88-1.26,1.42,1.42,0,0,0,.18-.9,23.13,23.13,0,0,0,4.92.48c1.38-.12,2.1-1.38,2.1-3.72,0-6.54-2-11.58-6.06-15.12,2.16-4,3.66-9.3,4.62-15.78H38.1V53.22c-.3,1.2-1.38,1.8-3.3,1.8-1.2,0-1.92-.24-2.16-.6,0-8.34.06-16.5.18-24.54V13.8A120.09,120.09,0,0,0,32.4,1.56Z"/><path d="M108.72,45.48c2.94,2.52,4.44,4,4.44,4.74,0,.54-.24.84-.66.84H74.76c-6.9,0-11.22.24-12.9.72a20.57,20.57,0,0,0-1.38-3.12,109.18,109.18,0,0,0,14.16.6h27.24a23.78,23.78,0,0,1,4.56-4.92c.18,0,.36.06.54.06A19.86,19.86,0,0,1,108.72,45.48Zm-25.86-42c0,.48-.36.84-1,1-1.08.48-1.68.84-1.68,1.14v8.7H82a16.23,16.23,0,0,1,2.76-3.12,2.6,2.6,0,0,1,.3-.06,8,8,0,0,1,2,1.44,12.23,12.23,0,0,1,2.1,2.4c0,.6-.18,1-.42,1H80.22v11c2.82-.36,5.64-.84,8.52-1.38a6.45,6.45,0,0,0,.42.9A117.54,117.54,0,0,1,66.42,33.9a6.37,6.37,0,0,0-.6,2.52q-.09.9-.72.9c-.6,0-1.56-1.44-2.88-4.44a31.81,31.81,0,0,0-1.56-3.78Q63,29,65.34,28.74V15.48A42.9,42.9,0,0,0,65,10c4.8.72,7.26,1.32,7.26,1.86s-.3.72-.84.84c-1,.42-1.56.78-1.56,1.08V28.32c1.8-.18,3.6-.42,5.4-.66V7.44A51,51,0,0,0,75,1.5C80.22,2.22,82.86,2.88,82.86,3.48ZM100.38,35c2.7,2.28,4.08,3.78,4.08,4.44s-.24.78-.6.78H80.16q-6.48,0-8.1.72a27.65,27.65,0,0,0-1.38-3.12,35.07,35.07,0,0,0,8,.6H94c1.92-2.46,3.3-4,4.2-4.5.12,0,.3.06.54.06A13.76,13.76,0,0,1,100.38,35ZM99.18,4c0,.66-1.08,1.32-3.18,2V16.26a43.61,43.61,0,0,0,10.26-8.52c3.72,2.76,5.64,4.32,5.64,4.68s-.3.72-.78.72a20.56,20.56,0,0,0-2.64-.3,52.92,52.92,0,0,1-12.48,5v7.74c0,1.68,1,2.52,2.88,2.58h4.26a4.31,4.31,0,0,0,4.2-2.22,28.69,28.69,0,0,0,2-6.6c.6.06,1,.06,1,.06v6.48c0,.6.48,1,1.32,1.26,1,.48,1.44,1,1.44,1.56-.12,1.74-1.8,2.88-4.92,3.42a28,28,0,0,1-5.46.48,40.47,40.47,0,0,1-7.08-.36c-3.24-.12-4.8-2.7-4.8-7.62V7.74a32.07,32.07,0,0,0-.42-6.12C96.24,2.64,99.18,3.42,99.18,4Z"/><path d="M120.48,54.36a1.75,1.75,0,0,0-.78-.66q10-6.39,17.1-19.14c4-6.12,6.18-15.84,6.54-29.16l-.24-2.58a3.34,3.34,0,0,0-.66-1.56c7.26,1,10.92,1.92,10.92,2.82q0,.9-1.8,1.26A3.28,3.28,0,0,0,150,6.72l-.06,1.14c-.12,1.32-.24,2.52-.36,3.66a46.81,46.81,0,0,0,9.84,24.24c4.32,5.7,9,9.54,14.16,11.52a2.77,2.77,0,0,1-.3,1.38c-1.08.12-1.62.24-1.68.48A4.45,4.45,0,0,0,169.38,51c-.72,1.56-1.44,2.34-2.1,2.4-1.68,0-4.8-3.3-9.36-9.78q-7.29-10.44-9.18-26.28C145.38,35.94,136,48.24,120.48,54.36Z"/><path d="M213.3,2.52c0,.6-.42,1-1.14,1.08-1.26.54-1.92,1-1.92,1.38V16.32h10A22.93,22.93,0,0,1,224,11.76a.87.87,0,0,1,.42-.12,12.48,12.48,0,0,1,2.7,2,13.7,13.7,0,0,1,3,3.42c0,.6-.18.9-.42,1H210.24V31.32h8.28c1.8-2.28,3.06-3.66,3.9-4.14.18,0,.36.06.54.06a10,10,0,0,1,1.44,1c2.52,2.16,3.84,3.54,3.84,4.14s-.24.78-.66.78H210.24V50.4H222.9c2-2.64,3.54-4.32,4.5-4.92.18,0,.36.06.6.06a11.91,11.91,0,0,1,1.68,1.14c2.94,2.46,4.44,4,4.44,4.74,0,.54-.24.84-.6.84H195.06c-7,0-11.4.18-13.14.66a17.64,17.64,0,0,0-1.38-3.06,132.42,132.42,0,0,0,14.52.54h9.48V33.12h-6.42c-5.4,0-8.7.24-10,.72-.42-1-.9-2-1.44-3.12a65.56,65.56,0,0,0,10.92.6h7V18H192.42A49.6,49.6,0,0,1,182.1,31.2c-.3-.36-.66-.78-1.08-1.2,4.44-7.2,7.74-15.9,10-26.1,6.18,2.1,9.3,3.6,9.3,4.56,0,.6-1.44,1-4.2,1.2a57,57,0,0,1-2.82,6.66h11.22V7.08a68.33,68.33,0,0,0-.3-6.9C210.24,1.08,213.3,1.86,213.3,2.52Z"/><path d="M252.12,4.38h28.14c1.56-1.92,2.64-2.88,3.24-2.94a10.7,10.7,0,0,1,3.18,1.8c1.44,1.08,2.22,1.92,2.22,2.4s-.36.72-1,1.08a6.85,6.85,0,0,0-1.68,1.38V20.58c.18,4.86.3,8,.3,9.42s-1.08,2-3.12,2c-1.56,0-2.4-.36-2.46-1.08V28.8h-11.4v9.3h10.68a20.53,20.53,0,0,1,3.9-4.14c.12,0,.3.06.48.06a15.36,15.36,0,0,1,1.5,1q3.78,3.24,3.78,4.14c0,.6-.24.84-.6.84H269.58V50H284c1.8-2.28,3.06-3.66,3.9-4.14h.54a13.31,13.31,0,0,1,1.44,1c2.52,2.16,3.84,3.48,3.84,4.08s-.24.84-.66.84H254.16c-7.08,0-11.52.18-13.26.66a23.9,23.9,0,0,0-1.44-3.06,142.91,142.91,0,0,0,15.3.6h9.42V40H257c-5.94,0-9.6.24-11,.66-.42-1-.9-2-1.44-3.12a82.26,82.26,0,0,0,12.24.6h7.44V28.8H252.72v1.74c-.24,1.2-1.38,1.8-3.3,1.8-1.2,0-1.92-.18-2.16-.6,0-4.62.06-9.18.18-13.62V9.24A36.53,36.53,0,0,0,247,2.46Zm12.06,11.4V5.88H252.72v9.9Zm0,11.46V17.4H252.72v9.84ZM281,15.78V5.88h-11.4v9.9Zm0,11.46V17.4h-11.4v9.84Z"/><path d="M338.94,27.18q2.79-3.24,3.6-3.24a8.61,8.61,0,0,1,2.88,1.56q2.7,2.07,2.7,2.7c0,.36-.36.78-1.08,1.2a11.34,11.34,0,0,0-1.86,1.38V43.86c.12,4.56.24,7.5.36,9.06,0,1.38-1.44,2.1-4.26,2.1-1.2,0-1.74-.48-1.74-1.44V51.12H318.48c0,.72,0,1.38.06,2.1-.36,1.08-1.74,1.68-4.14,1.68q-1.8,0-1.8-1.08c.06-4.44.12-9.24.12-14.52V32.16a67,67,0,0,1-12.06,7.74c-.24,0-.48-.24-.66-.84a73.09,73.09,0,0,0,16.38-17.28h-1.92c-7,0-11.22.24-12.9.66q-.63-1.53-1.44-3.06a120.25,120.25,0,0,0,14.82.6h2.58a40.34,40.34,0,0,0,2.76-5.28h-9.66a27.37,27.37,0,0,0-5.76.48c-.24-.72-.48-1.5-.84-2.46a39.59,39.59,0,0,0,6.6.42h10.32l.72-2q.9-2.16,1.44-3.6-8.28.54-18.36.72c-.06-.3-.12-.66-.24-1.08Q329.16,4.77,341.34.06c4.08,2.88,6.18,4.5,6.18,5s-.42.66-1.14.66c-1.56-.18-2.82-.36-3.72-.48a120.4,120.4,0,0,1-13.2,1.86,51.74,51.74,0,0,1-2.34,5.7.93.93,0,0,0-.18.36h10.5c1.08-1.44,2.1-2.76,3.12-3.9.36-.36.6-.54.84-.54a3.17,3.17,0,0,1,1.32.72c2.58,2.28,4,3.78,4.38,4.5,0,.54-.18.78-.42.78h-20.4A39.67,39.67,0,0,1,323.52,20h19.8c1.8-2.28,3.06-3.66,3.9-4.14h.54a7.08,7.08,0,0,1,1.44,1C351.72,19,353,20.34,353,20.94s-.24.84-.66.84h-30a47.32,47.32,0,0,1-4.32,5.4h20.88Zm.6,1.5h-21.3V33.9h21.3Zm-21.3,10.8c0,.78,0,1.5.06,2.22h21.24V35.46h-21.3Zm21.3,3.78H318.3c0,2.1,0,4.2.12,6.3h21.12Z"/><path d="M360.12,31.26a1,1,0,0,1-.6-.48q8.1-12.69,9.9-30.18c5.4,1.08,8.16,2,8.16,2.58s-1,1.08-3,1.44A54.34,54.34,0,0,1,370.5,17c2,.6,3,1,3,1.38s-.42.54-1.2.78-1,.54-1,.72V39c.12,5.22.18,10.14.18,14.7-.12.84-1.26,1.38-3.36,1.5-1.38,0-2-.36-2-1q.18-7.47.18-15.12V24.18A48.88,48.88,0,0,1,360.12,31.26ZM387,4.32c0,.48-.36.78-1,.9-1.08.48-1.68.84-1.68,1.2V37.86A69.64,69.64,0,0,0,396.42,31a6.85,6.85,0,0,0,.54,1,57.81,57.81,0,0,1-16.2,13.68,14,14,0,0,0-.36,3.06c0,.42-.24.6-.72.6s-2.46-2.52-5.7-7.56c1.86-.54,3.66-1.14,5.46-1.86V8.22a51,51,0,0,0-.3-5.94C384.36,3.06,387,3.72,387,4.32Zm22-1.2q2.34.54,2.34,1.26t-.9.9a20.14,20.14,0,0,0-2.58,1.08c0,9.6-.54,17-1.62,22a54.33,54.33,0,0,1-2.88,8.82c7.2,4,10.8,7.5,10.86,10.68,0,1.8-.54,2.94-1.5,3.54a3.62,3.62,0,0,1-1.8.42c-1.08,0-2-1.32-2.7-3.84a32.06,32.06,0,0,0-5.46-9.48,29.76,29.76,0,0,1-19.14,16.32l-.54-1q15.75-10.17,18.12-27.12c.84-3.78,1.26-12.06,1.26-24.9C404.16,2.16,406.32,2.64,409,3.12ZM398.52,16.56a3.16,3.16,0,0,1-1.14,2.76,2.78,2.78,0,0,1-1.92.66q-2.16,0-3.06-4.5a17.33,17.33,0,0,0-4.2-7.92,6,6,0,0,0,.72-.66C395.28,10.26,398.52,13.5,398.52,16.56Z"/><path d="M426.66,3.36c1.44.42,2.16.72,2.16,1s-.3.54-.84.78a13.89,13.89,0,0,0-1.68.84L426,26.46q0,20.25-6.12,27.72c-.24-.24-.48-.42-.6-.54A78.44,78.44,0,0,0,420.84,43c.48-4.62.72-10.86.78-18.78l.06-16.56c-.12-2.22-.24-4-.36-5.34C423.48,2.7,425.28,3.06,426.66,3.36Zm8.22,3.9c1.26.24,1.92.6,1.92,1s-.3.48-.84.6c-.9.36-1.32.6-1.32.72V35.4c.06,5.34.12,9.06.18,11.22,0,.84-1.08,1.26-3.18,1.26-1.08,0-1.56-.3-1.56-1q.09-2.7.18-11.7V11c-.12-1.56-.3-3.06-.42-4.5Q432.18,6.9,434.88,7.26Zm8.58-4.2q2.16.36,2.16,1.08a29.53,29.53,0,0,0,6.48.48h13.38A19.83,19.83,0,0,1,469.14.84c.12,0,.24.06.42.06a13.33,13.33,0,0,1,1.38.9c2.28,2,3.48,3.24,3.48,3.78s-.24.84-.6.84H461.64a25.22,25.22,0,0,1-5.1,6.66h7.56c1.44-1.92,2.4-2.88,3-2.94a9.89,9.89,0,0,1,3,1.68c1.32,1,2,1.74,2,2.22a1.28,1.28,0,0,1-.72,1A6.68,6.68,0,0,0,470,16.32V31.08c.18,5.76.3,9.42.3,11.1,0,1.2-1,1.86-2.88,1.86-1.44,0-2.22-.3-2.28-1v-1.5H452.4v.66c-.24,1.2-1.38,1.8-3.3,1.8-1.2,0-1.92-.18-2.16-.6,0-5.16.06-10.14.24-15.06v-9.9a51.27,51.27,0,0,0-.48-7.56l5.76,2.22h2.22a42.06,42.06,0,0,0,1.38-6.66h-2.58c-3.72,0-6,.24-6.9.72a20.93,20.93,0,0,0-1.2-2.64,1,1,0,0,1-.72.3c-1,.36-1.44.66-1.44.84v32c.06,5.82.12,9.9.24,12.24,0,.9-1.2,1.38-3.48,1.38-1.2,0-1.74-.36-1.74-1,.06-2,.12-6.3.18-12.84V7.2c-.12-1.68-.24-3.36-.48-4.92C439.68,2.52,441.54,2.76,443.46,3.06Zm13.26,43.26c1.5,1.08,2.28,1.74,2.28,2s-.24.6-.66.66c-1.62-.12-2.64-.24-3-.24q-4.86,4.5-15.3,6.12c0-.54-.12-.78-.24-.78a27.8,27.8,0,0,0,13.56-10C454,44.46,455,45.24,456.72,46.32Zm8.46-24.72v-7H452.4v7Zm0,9V23.16H452.4V30.6Zm0,9.36V32.22H452.4V40Zm8.64,11.46a3.91,3.91,0,0,1-.36,1.56c-.18.72-.84,1.14-1.92,1.38-.72,0-1.8-.9-3.18-2.64a29.22,29.22,0,0,0-8.94-6.3,3.14,3.14,0,0,0,.42-.9C469.14,45.9,473.82,48.18,473.82,51.42Z"/><path d="M529.38,7.92a11,11,0,0,1,2.34,2.7c0,.6-.24,1-.66,1H520.5v26h3.66c1.8-2.28,3.06-3.66,3.9-4.14h.54a13.31,13.31,0,0,1,1.44,1c2.52,2.16,3.84,3.48,3.84,4.08s-.24.84-.66.84H494.46c-7.08,0-11.52.24-13.2.66q-.63-1.53-1.44-3.06a104.11,104.11,0,0,0,12.84.6v-26h-1.5c-5.82.12-8.76.3-8.76.54A19.62,19.62,0,0,1,481.26,9c.84.3,3.9.6,9.24.84h2.16V7.14a52.47,52.47,0,0,0-.36-6.9c6.06.9,9.12,1.68,9.12,2.34s-.42,1-1.14,1.08c-1.26.54-1.92,1-1.92,1.38v4.8H514.8V6.9a66.13,66.13,0,0,0-.3-6.84c6,.84,9.06,1.62,9.06,2.34,0,.54-.42.9-1.14,1-1.26.54-1.92,1-1.92,1.38v5h2.1c2-2.64,3.36-4,4-4S527.94,6.54,529.38,7.92ZM505,44.1c0,.6-1.14,1.14-3.36,1.56-4,3.54-10.74,6.48-20.34,8.94-.42,0-.6-.3-.6-.78Q493,48.06,496.74,41,505,42.93,505,44.1Zm9.78-25.56v-7H498.36v7Zm0,9.06V20.16H498.36V27.6Zm0,10v-8.4H498.36v8.4Zm15.72,13.68a3.91,3.91,0,0,1-.36,1.56c-.18.72-.84,1.14-1.92,1.38-1,0-2.52-1.2-4.56-3.54a39.63,39.63,0,0,0-12.78-8.4,5.36,5.36,0,0,0,.42-1C524.1,43.26,530.52,46.56,530.52,51.24Z"/><path d="M586.2,9.3q2.52,1.89,2.52,2.52t-.9,1.08a10.62,10.62,0,0,0-1.5,1.32V37.86c.06,8.1.18,13.5.3,16.32,0,1.26-1.32,1.92-4,1.92-1.08,0-1.62-.48-1.62-1.32V50.46H552.12v2.82c-.24,1.32-1.44,2-3.48,2-1.32,0-2.1-.24-2.34-.66,0-7.2.06-14.28.24-21.18V19.56A96.51,96.51,0,0,0,546.06,9l5.76,2.22h9.66A46.27,46.27,0,0,0,563.7.06q8.1,2.43,8.1,3.6,0,.72-3.6,1.08A20.07,20.07,0,0,1,563,11.22h17.16q2.7-3.42,3.42-3.42A9.83,9.83,0,0,1,586.2,9.3ZM581,22.86V12.72H552.12V22.86Zm0,12.66v-11H552.12v11Zm0,13.38V37.14H552.12V48.9Z"/><path d="M617.76,2.64c0,.54-.9.9-2.7,1.14-.48,1.32-1,2.58-1.5,3.78h7.26c1.62-2,2.58-3,2.94-3a7.44,7.44,0,0,1,3.06,1.5c1.68,1.2,2.58,2,2.58,2.4s-.48.84-1.32,1.26-1.32.78-1.44,1.2c-.48,1.74-1,3.36-1.62,4.92h6.66c.3-3.36.48-8.34.48-14.94,1.74.36,4,.84,6.6,1.38,1.5.36,2.28.72,2.28,1.2s-.3.72-.9,1a22.52,22.52,0,0,0-2.58,1,100.68,100.68,0,0,1-.48,10.38h7.14A19.92,19.92,0,0,1,647.46,12c.12,0,.24-.06.36-.06a8.67,8.67,0,0,1,2.4,1.68,11,11,0,0,1,2.52,2.94c0,.6-.18.9-.42,1H638.76a18.41,18.41,0,0,0,4.08,9.12,18.78,18.78,0,0,0,10.86,6.72,3.15,3.15,0,0,1-.36,1.2,3.48,3.48,0,0,0-1.8,1.08,5.12,5.12,0,0,0-1.26,1.86c-.36,1.5-1,2.22-1.74,2.22-1.8-.6-4-2.82-6.6-6.6-2.64-4-3.9-9.12-3.9-15.3l.12-.3H636.9c-.18,1.44-.42,2.76-.66,3.84-2.64,10.2-8.76,16.56-18.36,19l-.54-1c8-5,12.66-11.7,13.86-20,.12-.48.18-1.08.3-1.8h-7.14a40.59,40.59,0,0,1-9.06,13.86,36.68,36.68,0,0,1-13.74,9.42,1.06,1.06,0,0,1-.48-.54A52.45,52.45,0,0,0,614,26.82,45,45,0,0,0,621.18,9H612.9c-.6,1.38-1.26,2.64-1.86,3.72,4,1.26,6.06,3.42,6.06,6.42-.06,1.68-1,2.58-2.76,2.7-1,0-1.68-.6-1.92-1.92a7.13,7.13,0,0,1-.36-2.16,23.34,23.34,0,0,0-.6-2.4,9.72,9.72,0,0,0-1-1.68,47,47,0,0,1-4.68,6.72c3.6,1.26,5.4,3.3,5.4,6.18q0,2.52-2.7,2.7c-1,0-1.68-.6-1.92-1.92a12.88,12.88,0,0,1-.36-2.1,19.5,19.5,0,0,0-.48-2.28c-.24-.6-.54-1.14-.78-1.62a25.62,25.62,0,0,1-4.74,4.2A1.31,1.31,0,0,1,600,25c4.92-6.18,8.34-14.52,10.26-25C615.24,1,617.76,1.92,617.76,2.64ZM609.9,41.46a48.54,48.54,0,0,1,.18,4.92c-.06,5.52-2.16,8.34-6.36,8.46-1.92,0-2.88-.66-3-1.92a4.3,4.3,0,0,1,1.86-3.18,12.06,12.06,0,0,0,4-3.42,13,13,0,0,0,2.34-4.92A6.89,6.89,0,0,1,609.9,41.46Zm14,8.82c0,2.34-1,3.54-2.76,3.6-2,0-3-.9-3-2.58,0-.48-.06-1.5-.06-2.94v-2.7a9.52,9.52,0,0,0-.78-3.84.56.56,0,0,0,.48-.36Q623.7,45.51,623.88,50.28Zm15.06-1.44a5.89,5.89,0,0,1-1,3.72,3.21,3.21,0,0,1-2.7,1.2c-.9,0-1.44-1-1.68-3a22.22,22.22,0,0,0-3.48-8.52l1-.66C636.24,44.22,638.82,46.68,638.94,48.84Zm7-45.48c2.16,1.14,3.24,2.46,3.24,4A3.46,3.46,0,0,1,648,10.32a3.23,3.23,0,0,1-2,.54c-.9,0-1.5-.78-1.74-2.46a16.14,16.14,0,0,0-1.14-3.24,24.12,24.12,0,0,0-1.86-2.46c.12-.12.3-.36.54-.66A13,13,0,0,1,645.9,3.36Zm7.68,46.14a5.08,5.08,0,0,1-.9,3.42,2.87,2.87,0,0,1-2.52,1.2c-1.2,0-2-1.14-2.34-3.3a21.52,21.52,0,0,0-4.74-9.3l.9-.6C650.28,44,653.46,46.92,653.58,49.5Z"/><path d="M668.76,12.78h1a70.42,70.42,0,0,0,2-12.24C676.68,2,679.14,3,679.14,3.48c0,.72-1,1.14-2.94,1.26a28.93,28.93,0,0,1-4.5,8h4.92c1.8-1.86,2.94-2.82,3.42-2.82a9.07,9.07,0,0,1,2.7,1.5q2.52,1.89,2.52,2.52t-.9,1.08a9.3,9.3,0,0,0-1.56,1.32V36.3c.12,6.84.18,11.46.3,13.8,0,1.2-1.32,1.86-4,1.86-1.08,0-1.56-.42-1.56-1.26V47.34h-8.76V51.9q-.36,1.8-3.24,1.8c-1.2,0-2-.24-2.22-.6,0-6.72.06-13.32.24-19.74V20.46c-.12-5.52-.24-8.76-.42-9.78Zm8.82,15.9V14.34h-8.76V28.68Zm0,17V30.24h-8.76V45.72ZM699.72,3.36c0,.6-1,1-2.94,1.26-.84,2.76-1.74,5.34-2.7,7.68h11.1c1.62-2,2.76-3.06,3.42-3.12a10.3,10.3,0,0,1,3.36,2q2.16,2,2.16,2.52,0,.72-1.44,1.26a3.76,3.76,0,0,0-1.32,1.08c-.84,16.44-1.92,27.06-3.24,31.92-1.2,4.2-3.78,6.66-7.8,7.26-.66,0-1.14-.6-1.5-1.8A5.45,5.45,0,0,0,696.18,50a43.42,43.42,0,0,0-5.52-2.16,5.38,5.38,0,0,1,.12-1.32,65.16,65.16,0,0,0,9,.84c2.16-.18,3.3-1.14,3.3-2.94,1-1.8,2-12,3.06-30.48H693.36c-2.76,6.12-5.88,10.8-9.48,13.92a2.48,2.48,0,0,1-.3-.66c3.84-6.6,6.54-15.54,8-26.7C697,1.62,699.72,2.58,699.72,3.36Zm.54,29.88a5.78,5.78,0,0,1-1,3.72,3,3,0,0,1-2.64,1.2c-1,0-1.68-1.2-1.92-3.72-.9-4.56-2.16-8.1-3.84-10.56l.9-.66C697.38,26.94,700.2,30.24,700.26,33.24Z"/><path d="M733.38,2a.55.55,0,0,1-.42.6c-.36.12-.84.36-1.38.6s-.72.48-.72.66v11h.48c1.44-2.64,2.34-4,2.82-4,.24,0,.9.72,1.86,2.1a11.84,11.84,0,0,1,1.56,2.7c0,.6-.24,1-.72,1h-6V28.14c1.38-.18,2.7-.42,4-.72-.3-1.08-.66-2.46-1-4a13.26,13.26,0,0,0,2.76.66,39.31,39.31,0,0,0,3.78-12.72c4.74,1.56,7.14,2.46,7.14,2.82,0,.72-1,1.14-2.82,1.32a23.69,23.69,0,0,1-6.36,8.88,30.58,30.58,0,0,0,4.8.36c.48-1.68,1-3.48,1.32-5.4,3.54,1.2,5.76,2,6.6,2.4a63.39,63.39,0,0,0,2.7-10.56c4.44,1.68,6.72,2.82,6.72,3.36s-1,.78-2.7,1a42.54,42.54,0,0,1-1.92,4.14H767a16.23,16.23,0,0,1,2.76-3.12,2.6,2.6,0,0,1,.3-.06,8,8,0,0,1,2,1.44,9.49,9.49,0,0,1,2,2.4c0,.6-.12,1-.36,1h-8.1v7.38h.72c1.38-1.92,2.28-3,2.76-3.12.24,0,1,.72,2.28,2,1,1.08,1.56,1.68,1.56,1.92,0,.54-.18.78-.48.78h-6.84V38.1h.84c1.38-1.92,2.28-3,2.76-3.12.24,0,1,.72,2.28,2,1,1.08,1.56,1.68,1.56,1.92,0,.6-.18.84-.48.84h-7v9.54h.72c1.68-2.64,2.76-4.08,3.3-4.2.3,0,1.26.9,2.82,2.58,1.2,1.32,1.86,2.1,1.86,2.46s-.18.78-.42.78H756.78V52c.06.72.12,1.44.12,2.22q0,1.44-2.88,1.44c-1.32,0-2-.3-2.16-.78V32.46a4.55,4.55,0,0,0-1,.54c-1.68,11.16-7.26,18.18-16.62,21.24a2.66,2.66,0,0,0-.36-.6,29.77,29.77,0,0,0,10.86-15.78,40.17,40.17,0,0,1-8.52,3.42c-.24,1.5-.6,2.22-1,2.22s-.72-.66-1.14-2-1-3-1.56-5a23.44,23.44,0,0,0,4.74.3h.06a38.82,38.82,0,0,0,5.28-10.32,29.67,29.67,0,0,1-5.88,1.86,5,5,0,0,1-.48,1.38c-.06.18-.18.24-.42.24s-.36-.42-.6-1.38a20,20,0,0,1-4.38,3.18V47.1c0,5-2,7.56-5.82,7.56-.6,0-.9-.36-.9-1a4.94,4.94,0,0,0-1.68-3,5.42,5.42,0,0,0-2.88-1.44,2.1,2.1,0,0,0,.18-1c.9.12,2.76.12,5.58.12.54,0,.84-.54.84-1.62V33.66a9.67,9.67,0,0,1-1.74.54q-.18,3.06-1.08,3.06c-.36,0-1.14-1.38-2.34-4.2a19.1,19.1,0,0,1-1.32-4,57,57,0,0,0,6.48-.36v-12c-3.84.12-5.76.3-5.76.48a26.67,26.67,0,0,1-1.2-3.12,44.22,44.22,0,0,0,7,.72V7.68A56,56,0,0,0,725.76,0C730.44.78,733,1.44,733.38,2Zm37.44,3.84c2.1,1.8,3.18,3,3.18,3.48s-.24.78-.6.78h-28q-7.74,0-9.54.72c-.42-1-.9-2-1.44-3.12a63.87,63.87,0,0,0,10.8.6h8.22a9.62,9.62,0,0,1-2-2.52,16.58,16.58,0,0,0-3.78-4.68,1.57,1.57,0,0,0,.42-.78c5.52.54,8.34,2,8.58,4.56a9.05,9.05,0,0,1-.24,2,2.27,2.27,0,0,1-1.14,1.38h10.56A16.8,16.8,0,0,1,769.2,5c.12,0,.24.06.42.06A11.16,11.16,0,0,1,770.82,5.88Zm-25,24.42c3.12.6,5.1,1,6.06,1.32V26c-.72,1-1.44,1.92-2.22,2.88a4.18,4.18,0,0,1-1.32-.42c.84-1.74,1.56-3.54,2.28-5.34a6.8,6.8,0,0,1-1.8.36c-2.58,5.76-5.7,10.14-9.42,13.2,2.46-.12,4.38-.24,5.7-.42A47.27,47.27,0,0,0,745.8,30.3Zm11-1.56h4V21.36h-4Zm0,9.36h4V30.36h-4Zm0,11.22h4V39.78h-4ZM764,11.88c1.92,1,2.94,2.22,2.94,3.54a3.38,3.38,0,0,1-1.14,2.94,2.9,2.9,0,0,1-2,.6c-.72,0-1.14-.72-1.38-2.22a13.08,13.08,0,0,0-.84-2.88,13.14,13.14,0,0,0-1.92-2.46c.12-.18.36-.42.6-.72A15.06,15.06,0,0,1,764,11.88Z"/><path d="M830,6.06c2.7,2.28,4.08,3.78,4.08,4.38s-.24.84-.6.84H802.08a57.07,57.07,0,0,1-5.46,8.34l1.92,1H819a10.13,10.13,0,0,1,3-2.94,8.74,8.74,0,0,1,3.12,1.5c1.68,1.2,2.58,2,2.58,2.58s-.42.84-1.14,1.26a3.91,3.91,0,0,0-1.44,1.26V47.76c0,3.9-2,6.3-5.82,7.26-.6,0-1-.42-1.14-1.26A6.34,6.34,0,0,0,815,50.22a24.89,24.89,0,0,0-4.38-1.56,2.64,2.64,0,0,0,.12-1.08,50.85,50.85,0,0,0,7.62.42,1.26,1.26,0,0,0,1.44-1.38v-6.3H798.42c0,4.08.12,8.46.3,13.08Q798.18,55,794.58,55c-1.2,0-1.8-.36-1.8-1,.06-5.64.12-11.82.12-18.54V24.06a76.06,76.06,0,0,1-12.72,11.1c-.48,0-.66-.24-.66-.78a76.29,76.29,0,0,0,16.74-23.1h-1.8c-7.08,0-11.52.24-13.26.72a29.38,29.38,0,0,0-1.44-3.12,124.23,124.23,0,0,0,15.06.6h2.28A74.75,74.75,0,0,0,800.28.12c5.52,1.2,8.34,2.22,8.34,3.06,0,.6-1.14,1.08-3.42,1.5-.72,1.68-1.44,3.24-2.16,4.8h20.58a23.68,23.68,0,0,1,4.2-4.56c.18,0,.36.06.54.06Q829.08,5.43,830,6.06ZM819.78,29.4V22.26H798.42V29.4Zm0,9.36V31H798.42v7.8Z"/></g></g></svg>