<svg xmlns="http://www.w3.org/2000/svg" viewBox="0 0 674.4 56.1"><g id="图层_2" data-name="图层 2"><g id="图层_1-2" data-name="图层 1"><path d="M5,24.84a32.63,32.63,0,0,1,.48,3.6c0,4.2-1.2,6.3-3.48,6.36-1.32,0-2-.42-2-1.32a2,2,0,0,1,.3-1.26,10.46,10.46,0,0,1,1.8-1.86,9.43,9.43,0,0,0,2.34-5.52Zm18.9,9.24c0,.48-1,.9-3,1.26A20.41,20.41,0,0,1,19.68,37H44.1a17,17,0,0,1,3-3.48,2.6,2.6,0,0,1,.3-.06A8.83,8.83,0,0,1,49.62,35,11,11,0,0,1,52,37.74c0,.6-.18.9-.42,1H41.34a22,22,0,0,1-8.46,9.12,52.8,52.8,0,0,0,15.6,2.46c1.8.12,3.54.18,5.34.18v.84c-.3,0-.72.3-1.2.84a4.26,4.26,0,0,0-1,2.22c-.24.78-.6,1.2-1.2,1.2A54.19,54.19,0,0,1,28.8,50c-7,3.18-16.2,5-27.84,5.4A1,1,0,0,1,.72,55c10.44-2,18.6-4.38,24.42-7.26a37.18,37.18,0,0,1-7.92-8.28c-3.6,3.24-8.4,5.64-14.34,7.26a1.82,1.82,0,0,1-.3-.6c7.44-4,12.18-8.64,14.16-14Q23.94,33.18,23.94,34.08Zm-5.4-13c0,1.5-.66,2.22-1.86,2.22A1.47,1.47,0,0,1,15,21.66a3.3,3.3,0,0,0-.18-1A88.24,88.24,0,0,1,4.08,23.22c-.24,1.26-.48,1.86-.84,1.86s-.6-.54-1-1.74S1.44,20.88,1,19.2a20.76,20.76,0,0,0,3.84.24,37.84,37.84,0,0,0,5.82-7.2,64,64,0,0,1-7,1.86c-.24.6-.36,1-.42,1.08a.36.36,0,0,1-.36.18c-.24,0-.72-1.68-1.56-5.16.72.06,1.5.12,2.28.12a19.82,19.82,0,0,0,3.6-9c4,1.08,6,1.8,6,2.16s-.48.6-1.38.72c-.66.12-1,.24-1,.3a20.59,20.59,0,0,1-5.58,5.88c2,.12,4.14.18,6.42.18a27.05,27.05,0,0,0,1.74-3.78C17.1,8.22,19,9.12,19,9.6s-.84.66-2.28.78A42.14,42.14,0,0,1,6.9,19.44c3.12,0,5.64,0,7.5-.06-.18-.48-.36-1-.6-1.5a10.53,10.53,0,0,0-.9-1.44,1.81,1.81,0,0,1,.54-.36C16.8,17.76,18.54,19.44,18.54,21.12Zm-6.78,9.12c-.06,2.16-.84,3.18-2.4,3.18-1,0-1.38-.54-1.38-1.62a8.61,8.61,0,0,1,.54-2.1A13.85,13.85,0,0,0,8.76,27c-.06-.78-.12-1.44-.18-2a1.46,1.46,0,0,0,.66-.24C10.92,26.88,11.76,28.68,11.76,30.24Zm6.12-.78c-.06,1.68-.72,2.46-2,2.46-1,0-1.44-.48-1.44-1.56a2.46,2.46,0,0,1,.06-.66c0-.36.06-.84.06-1.32a7.89,7.89,0,0,0-1.74-4.32c.36-.12.54-.18.54-.3C16.32,25.62,17.88,27.54,17.88,29.46Zm11.52-26a5.78,5.78,0,0,1-.24,1.62A1.74,1.74,0,0,1,28,6.36h2.46c.84-1.08,1.62-2,2.4-2.82a1.34,1.34,0,0,1,.6-.42,2.34,2.34,0,0,1,1,.54,19.58,19.58,0,0,1,3.3,3.48c0,.54-.18.78-.48.78H24.48a33,33,0,0,0-5.7.42c-.24-.66-.48-1.44-.84-2.4a38.21,38.21,0,0,0,6.54.42h2.46a5,5,0,0,1-1.56-1.92,12.73,12.73,0,0,0-2.76-3.36A1.73,1.73,0,0,0,23,.48C27.06.84,29.22,1.86,29.4,3.48ZM28.32,46c3.6-2.22,6-4.68,7.14-7.32H18.12l-.06.06A33.56,33.56,0,0,0,28.32,46ZM32.64,9a15.93,15.93,0,0,1,2.76,2.94c0,.54-.18.78-.48.78H25.74a34.37,34.37,0,0,0-5.76.42c-.24-.66-.48-1.44-.78-2.4a38.21,38.21,0,0,0,6.54.42h3.54c.66-.84,1.32-1.56,2-2.28q.36-.36.54-.36A2.54,2.54,0,0,1,32.64,9Zm.18,5.1A15.93,15.93,0,0,1,35.58,17c0,.54-.18.78-.48.78H25.92a34.37,34.37,0,0,0-5.76.42c-.24-.66-.48-1.44-.78-2.4a38.21,38.21,0,0,0,6.54.42h3.54c.66-.84,1.32-1.56,2-2.28q.36-.36.54-.36A2.54,2.54,0,0,1,32.82,14.1Zm-9.54,7.62h6.48c1.2-1.44,2-2.22,2.52-2.28a8.27,8.27,0,0,1,2.52,1.44c1.14.84,1.74,1.5,1.74,1.86s-.24.6-.72.9a4.12,4.12,0,0,0-1.26,1.08v3.42c.18,1.32.3,2.22.3,2.58,0,1.08-.84,1.62-2.46,1.62-1.26,0-1.92-.24-1.92-.84V29.64H24.12V31c-.24,1-1.08,1.44-2.58,1.44-1,0-1.56-.12-1.74-.48q0-2.7.18-5.4V23a8,8,0,0,0-.36-2.7Zm7.2,6.36V23.22H24.12v4.86Zm10.14-3.42A21.2,21.2,0,0,1,41,28.2c0,3.36-1.08,5.1-3.18,5.16-1.32,0-2-.42-2-1.38a2.19,2.19,0,0,1,.3-1.26,7.64,7.64,0,0,1,1.68-1.5A7.47,7.47,0,0,0,40,24.6ZM53.88,21.6c0,1.44-.66,2.22-1.86,2.22s-1.68-.54-1.68-1.74A6,6,0,0,0,50,20.4,62.25,62.25,0,0,1,39.6,23.22c-.24,1.26-.48,1.86-.78,1.86s-.6-.54-1-1.74S37,20.88,36.54,19.2a15.39,15.39,0,0,0,3.3.24,39.7,39.7,0,0,0,5.64-7.14c-1.8.6-4.08,1.2-6.78,1.8-.24.6-.36,1-.42,1.08a.36.36,0,0,1-.36.18c-.24,0-.72-1.68-1.56-5.16.84.06,1.74.12,2.64.12a23.15,23.15,0,0,0,3-9c4,1.08,6,1.8,6,2.16s-.48.6-1.38.72c-.6.12-.9.24-.9.3a20.91,20.91,0,0,1-5,5.88c1.86.12,3.78.18,5.82.18a27.05,27.05,0,0,0,1.74-3.78C52,8.22,53.88,9.12,53.88,9.6s-.84.66-2.28.78a39.94,39.94,0,0,1-9.54,9.06c3.24,0,5.76-.12,7.56-.24a9.23,9.23,0,0,1-.48-1.14,16,16,0,0,0-.9-1.62,1.81,1.81,0,0,1,.54-.36C52.14,17.94,53.88,19.8,53.88,21.6ZM47.1,30.18c-.06,2.16-.84,3.18-2.4,3.18-1,0-1.38-.54-1.38-1.62a8.61,8.61,0,0,1,.54-2.1,14.91,14.91,0,0,0,.18-2.7,19.68,19.68,0,0,0-.12-2,1.46,1.46,0,0,0,.66-.24C46.26,26.82,47.1,28.62,47.1,30.18Zm6.54-.3c-.06,1.86-.84,2.76-2.28,2.76-1,0-1.56-.54-1.56-1.74a2.92,2.92,0,0,1,.06-.72c0-.36.06-.84.06-1.38a10.59,10.59,0,0,0-1.38-4.62c.36-.12.6-.18.6-.3C52.14,25.86,53.64,27.84,53.64,29.88Z"/><path d="M80.94,16.26q0,.81-3.78,1.26a43,43,0,0,1-4.92,7.14V49.08c.12,1.32.18,3.06.18,5.28,0,.84-1,1.32-3,1.44-1.56,0-2.4-.18-2.4-.54.06-1,.12-3.12.12-6.48V30.06a43.59,43.59,0,0,1-6.9,5.1,4,4,0,0,0-.6-.66c7.2-7.44,11.52-14.64,13-21.72C78.18,14.4,80.94,15.54,80.94,16.26ZM77.82,4c0,.72-1,1.14-2.82,1.32A32.76,32.76,0,0,1,61.68,17.64a5.36,5.36,0,0,0-1-.54,33,33,0,0,0,10-15.9C75.42,2.7,77.82,3.6,77.82,4Zm32,20.94c2.1,1.8,3.18,3,3.18,3.48s-.24.84-.66.84H104.7v5.7h1.56a16.8,16.8,0,0,1,3.36-3.36c.12,0,.24.06.42.06.36.24.78.48,1.2.78,2.1,1.8,3.18,3,3.18,3.48s-.24.84-.6.84H104.7V49.14c0,3.6-2.34,5.64-7,6.24-.42,0-.72-.54-1-1.56A3.76,3.76,0,0,0,94,51.18a14,14,0,0,0-3.48-1.32,2.19,2.19,0,0,1,.12-.84c1.56.12,4,.3,7.08.48,1.14,0,1.74-.42,1.74-1.32V36.72H85.68c-5.16,0-8.34.24-9.6.72a29.38,29.38,0,0,0-1.44-3.12,64.23,64.23,0,0,0,10.86.6h14v-5.7H85.92q-7.29,0-9,.72a29.38,29.38,0,0,0-1.44-3.12,55.11,55.11,0,0,0,10.08.6h19.32a17,17,0,0,1,3.3-3.36c.12,0,.3.06.42.06C109,24.36,109.38,24.6,109.86,24.9Zm-23-20.82h13.92q2.7-2.88,3.42-2.88a10.94,10.94,0,0,1,2.64,1.44q2.52,1.89,2.52,2.52c0,.36-.36.72-1,1.08a19.21,19.21,0,0,0-1.62,1.32v8.88c.06,3.12.18,5.16.3,6.18,0,1.32-1.32,1.92-4,1.92-1.08,0-1.62-.42-1.62-1.32v-1H86.94v1q-.36,1.8-3.24,1.8c-1.2,0-2-.18-2.22-.6,0-3.54.06-7,.24-10.5V7.14a33.75,33.75,0,0,0-.42-5.22Zm-.06,35.64C89,41.22,90.24,43,90.24,45a3.63,3.63,0,0,1-1.14,2.94,3.23,3.23,0,0,1-2,.54c-1,0-1.68-1-2-3.12a19.41,19.41,0,0,0-1.32-4.2A24.12,24.12,0,0,0,81.9,38.7a4.38,4.38,0,0,1,.54-.66A13,13,0,0,1,86.76,39.72Zm14.7-34.14H86.94v6.9h14.52Zm0,8.46H86.94v6.6h14.52Z"/><path d="M169.5,2c2.52,2.16,3.84,3.48,3.84,4.08s-.24.84-.66.84h-22.5v6.36h9.3c1.68-2.16,2.82-3.3,3.42-3.36a10.86,10.86,0,0,1,3.48,1.92c1.56,1.2,2.34,2,2.34,2.58s-.36.78-1,1.14a6.72,6.72,0,0,0-1.62,1.5V27.12q.36,5.85.36,7.56c0,1.44-1.14,2.16-3.36,2.16-1.68,0-2.58-.36-2.64-1.14V33.12H149.58c-.72,5.16-2,9.06-3.72,11.76,6.48,2.22,14,3.3,22.8,3.3,2.64-.06,4.8-.12,6.42-.12v1a10.22,10.22,0,0,0-1.62,1.14,4.48,4.48,0,0,0-1.08,2c-.42,1.2-1,1.8-1.8,1.86-11.1-.12-20.16-2-27.12-5.7-.12,0-.12-.06-.12-.06-3.9,4.56-11.46,6.9-22.74,6.9,0-.36-.06-.66-.06-.78,8.64-1.92,14.58-4.68,17.88-8.28a6,6,0,0,0,.66-.6,45.13,45.13,0,0,1-7.86-8l.66-.48A34.64,34.64,0,0,0,140.94,43a29.58,29.58,0,0,0,2.88-9.84H134v.42c-.3,1.32-1.5,2-3.54,2-1.32,0-2.1-.18-2.34-.66,0-3.72.06-7.44.24-11v-7.2a27.48,27.48,0,0,0-.48-5.52l5.58,2.16h11V6.9h-9.3q-10.26,0-12.78.72a20.57,20.57,0,0,0-1.38-3.12,115.7,115.7,0,0,0,14.58.6h28c1.8-2.28,3.06-3.66,3.9-4.14.18,0,.36.06.54.06A6.68,6.68,0,0,1,169.5,2Zm-25,19.08V14.82H134V22h10.5Zm0,2.52H134V31.5h10Q144.36,28,144.54,23.58Zm16,0H150.24c-.06,3-.24,5.64-.48,7.92H160.5Zm0-8.76H150.18l.06,7.2H160.5Z"/><path d="M188,23.88h10.32c1.56-1.68,2.76-2.64,3.66-2.76a14.47,14.47,0,0,1,4.92,4.08,1.11,1.11,0,0,1-.66,1.14,14.28,14.28,0,0,1-1.92,1.38c-.6,11.7-1.74,19.44-3.54,23.22-1.44,2.94-3.54,4.44-6.24,4.44-.36,0-.66-.42-.9-1.2A4.17,4.17,0,0,0,191.16,51,13.32,13.32,0,0,0,188,49.62a5.88,5.88,0,0,1,.3-1.14,34.52,34.52,0,0,0,5.34.84,2.9,2.9,0,0,0,3-2.4,57.65,57.65,0,0,0,1.5-8,67.24,67.24,0,0,1-13.5,5.52,6.37,6.37,0,0,0-.48,2.1c-.06.54-.24.78-.6.78s-1.32-1.2-2.4-3.72c-.48-1.26-.9-2.28-1.32-3.12a112.23,112.23,0,0,0,18.48-2.94q.54-5.22.72-11.88H187.62c-.18.72-.3,1.08-.3,1.08-.24.66-1,1-2.46,1q-3.06,0-3.06-.9c2-7.56,3.06-12.42,3.24-14.64,2.16,1,3.66,1.68,4.5,2.1h9.12V5.88H189.6a35.14,35.14,0,0,0-6.66.48c-.24-.72-.48-1.5-.78-2.4a39.56,39.56,0,0,0,7.62.42h8.28c1.68-1.74,2.82-2.64,3.48-2.64q.63,0,2.7,1.62c1.44,1.26,2.22,2.1,2.22,2.58s-.36.66-1,1c-.36.24-1,.66-1.74,1.14v5.88a20.2,20.2,0,0,1,.36,3.54c0,1-1.26,1.62-3.72,1.74-1.2,0-1.74-.42-1.74-1.14V15.84h-9C188.94,19.5,188.4,22.2,188,23.88Zm7,9.24a7.92,7.92,0,0,1-.24,1.92,2.18,2.18,0,0,1-2.22,1.56q-1.08,0-2.88-2.7a17.76,17.76,0,0,0-4.2-4.5,1.14,1.14,0,0,0,.42-.66C191.82,29.22,194.82,30.72,195.06,33.12Zm18.54-9.24h11.52c1.56-1.56,2.76-2.34,3.66-2.46a13.32,13.32,0,0,1,4.92,4.08,1.11,1.11,0,0,1-.66,1.14A19.7,19.7,0,0,1,231.12,28c-.6,11.52-1.8,19.14-3.66,22.86C226,53.7,223.8,55.2,221,55.2c-.36,0-.66-.42-.9-1.2a4.4,4.4,0,0,0-2.58-3.18,13.32,13.32,0,0,0-3.12-1.38c.12-.54.24-.9.3-1.14a35.18,35.18,0,0,0,5.4.84,3,3,0,0,0,3.18-2.4A57.08,57.08,0,0,0,225,38.22a69.76,69.76,0,0,1-14.4,6.6,6.6,6.6,0,0,0-.54,2.28c-.06.6-.3.84-.66.84-.54,0-1.44-1.32-2.64-4.08a19.51,19.51,0,0,0-1.44-3.42,113.72,113.72,0,0,0,19.86-3.72c.36-3.24.54-7,.66-11H213.18a10,10,0,0,1-.3,1c-.24.66-1,1-2.46,1q-3.06,0-3.06-.9c2-7.44,3.06-12.24,3.18-14.4,2,1,3.54,1.62,4.38,2H224V5.88h-8.52a30.21,30.21,0,0,0-6.24.48c-.24-.72-.48-1.5-.78-2.4a35.52,35.52,0,0,0,7.2.42h7.8c1.68-2,2.82-3,3.48-3q.63,0,2.7,1.62c1.44,1.26,2.22,2.1,2.22,2.58s-.36.66-1,1c-.42.24-1,.66-1.8,1.2v5.94a21.47,21.47,0,0,1,.36,3.66c0,1-1.26,1.62-3.72,1.74-1.2,0-1.74-.42-1.74-1.14v-2h-8.82C214.5,19.5,214,22.2,213.6,23.88Zm7.26,9.18a6.37,6.37,0,0,1-.3,2,2.4,2.4,0,0,1-2.34,1.68c-.66,0-1.62-.9-2.82-2.82a18.22,18.22,0,0,0-4.14-4.62,1.57,1.57,0,0,0,.42-.78Q220.5,29.37,220.86,33.06Z"/><path d="M289.86,6c1.8,1.86,2.7,3.18,2.7,3.9s-1,.9-2.76.9c-.12,0-.72-.06-1.74-.06a153.23,153.23,0,0,1-16.26,7.74.85.85,0,0,0,.36.12.94.94,0,0,1,.42.78,1.39,1.39,0,0,1-.9,1,6.1,6.1,0,0,0-1.08.6V48.3c-.36,4.26-3.18,6.72-8.4,7.38-.66,0-1.08-.6-1.2-1.74q-.45-1.89-3.6-3.6a15.3,15.3,0,0,0-4.08-1.5,3.94,3.94,0,0,1,.24-1.38,67.53,67.53,0,0,0,8.34.84c1.92,0,2.94-.78,2.94-2.46V26.4a80,80,0,0,0-.36-9.3c1.68.24,3.3.48,5,.84A98.14,98.14,0,0,0,282.84,8h-27a91.85,91.85,0,0,0-11.4.72c-.6-1.32-1.08-2.34-1.44-3.18a76.86,76.86,0,0,0,12.84.84h26.58c2.46-1.86,4-2.82,4.5-2.82A10.6,10.6,0,0,1,289.86,6Z"/><path d="M306.66,8h4.26C312.54,6,313.56,5,314,5a9.07,9.07,0,0,1,2.52,1.38q2.34,1.71,2.34,2.34a1.56,1.56,0,0,1-.66,1c-.72.66-1.08,1.08-1.2,1.2V28.56c.12,6.06.24,10.14.36,12.18,0,1.2-1.26,1.74-3.72,1.74-1,0-1.5-.36-1.5-1.2v-1.8h-4.86v4c-.24,1.14-1.26,1.68-3.06,1.68-1.14,0-1.8-.18-2-.6,0-6.06.06-12,.24-17.76V15.12c-.12-5-.24-7.92-.42-8.82Zm5.52,29.88V9.54h-4.86V37.92Zm8,1.2a28.26,28.26,0,0,1,.6,5.16c0,4.92-1.5,7.38-4.44,7.5-1.92,0-2.88-.66-2.94-1.92a3.34,3.34,0,0,1,.42-1.8,11.25,11.25,0,0,1,2.34-2.28c1.68-1.44,2.7-3.66,3.12-6.72A8.15,8.15,0,0,0,320.16,39.12Zm30-36.66a11,11,0,0,1,2.52,2.94c0,.6-.18.9-.42,1H339v6.72h3.06a17,17,0,0,1,3-3.48.46.46,0,0,1,.3-.12,8.08,8.08,0,0,1,2.22,1.62c1.38,1.32,2.16,2.16,2.28,2.64s-.12,1-.36,1H339v7.32h3.24a17,17,0,0,1,3-3.48,2.6,2.6,0,0,1,.3-.06,8.83,8.83,0,0,1,2.22,1.56A11.64,11.64,0,0,1,350,22.8c0,.6-.18.9-.42,1H339v7.68h7.14q2.43-3.06,3.06-3.06a8.76,8.76,0,0,1,3.18,1.86c1.26,1,1.92,1.74,1.92,2.22s-.42.72-1.14,1.14a4.25,4.25,0,0,1-1.2.66,67.74,67.74,0,0,1-2.58,14.58c-1.62,4.56-3.9,7-6.9,7.26-.48,0-1-.48-1.38-1.38a5.76,5.76,0,0,0-3.12-3.9,20.31,20.31,0,0,0-3.54-1.62c.12,0,.18-.36.18-1a62.62,62.62,0,0,0,7.92.72,2.44,2.44,0,0,0,2.16-1.74A92.56,92.56,0,0,0,346.92,33H326.58v1.26q-.36,1.8-3.24,1.8c-1.2,0-2-.18-2.22-.6,0-5.16.06-10.26.24-15.18v-10a66.68,66.68,0,0,0-.42-7.56l5,1.92h18.24A19.92,19.92,0,0,1,347.4.84a.85.85,0,0,1,.36-.12A11.3,11.3,0,0,1,350.16,2.46Zm-20.82,42.9c-.12,2.22-1,3.3-2.7,3.3-1.26,0-1.92-.66-1.92-2.1a4.25,4.25,0,0,1,.06-.84c0-.48.06-1.08.12-1.74a15.61,15.61,0,0,0-1.38-5.76c.42-.12.66-.24.66-.36C327.6,40.32,329.34,42.84,329.34,45.36Zm4.32-39h-7.08v6.72h7.08Zm0,8.4h-7.08v7.32h7.08Zm0,16.68V23.76h-7.08v7.68Zm3.54,12c0,1.86-.78,2.82-2.28,2.82a1.91,1.91,0,0,1-2.16-2.16,12.34,12.34,0,0,0-.3-2.1c-.24-.9-.6-1.86-1-2.94a10.1,10.1,0,0,0-1-2,4.2,4.2,0,0,1,.72-.48Q337.2,40.11,337.2,43.44Zm4.14-6.84c2,1.38,3,3,3,4.86a2.44,2.44,0,0,1-.84,2.16,2.17,2.17,0,0,1-1.44.42q-1.62,0-2.16-2.88a20.71,20.71,0,0,0-1.38-3.84,14.53,14.53,0,0,0-1.38-1.8,3.92,3.92,0,0,0,.42-.48A12.15,12.15,0,0,1,341.34,36.6Z"/><path d="M431.76,26.94a.89.89,0,0,1-.72.72,6.72,6.72,0,0,1-2.58.36,30.94,30.94,0,0,1-7.2,11.82c2,4.5,4.38,7.26,7.08,8.22,1,0,2.4-2.52,4.38-7.62.6.06.9.12.9.24a20.29,20.29,0,0,0-1.74,7.8A4,4,0,0,0,433,50.82a4.88,4.88,0,0,1,1.32,2.64c0,1.08-.84,1.62-2.4,1.74-2.64,0-5.52-1.14-8.7-3.36a29.14,29.14,0,0,1-6-8.4,51.32,51.32,0,0,1-15.84,7.74,8.22,8.22,0,0,0-.48-.84A50,50,0,0,0,415.5,39.66a63,63,0,0,1-3.78-19.26H399.54v9.24c3.12-.9,6.3-1.92,9.54-3.12l.48,1a77.39,77.39,0,0,1-10,5.94V49.74c-.12,3.3-2.4,5.16-6.84,5.64a1,1,0,0,1-1.08-1.08,9.62,9.62,0,0,0-.9-2.1q-.36-1.35-5.76-2.34v-1c2.28.18,4.68.24,7.14.24,1.08,0,1.68-.18,1.74-.6V36.06c-2.28,1-4.62,1.92-7.08,2.76a5.79,5.79,0,0,0-.66,2.7c-.12.66-.36,1-.84,1s-1.62-1.56-3.06-4.8a36.09,36.09,0,0,0-1.74-4.08,100.15,100.15,0,0,0,13.38-2.46V20.4c-6.48.06-10.5.3-12.12.66-.42-1-.9-2-1.44-3.12a113.11,113.11,0,0,0,13.56.6V9.84a87.25,87.25,0,0,1-11.52,1.32,8.18,8.18,0,0,0-.24-1c9.36-1.92,16.38-4.8,21-8.64,3.72,2.64,5.64,4.2,5.64,4.62s-.36.6-1,.6c-1.44-.18-2.64-.3-3.48-.42a23.49,23.49,0,0,1-4.68,2v10.2H411.6c-.48-8.16-.84-13.74-1.2-16.74,5.7.6,8.58,1.14,8.7,1.68,0,.36-.24.6-.72.78q-1.17.63-2.16,1.08c0,4.92.12,9.36.36,13.2h7a22.43,22.43,0,0,1,3.9-4.14c.18,0,.36.06.54.06a10,10,0,0,1,1.44,1c2.52,2.16,3.84,3.54,3.84,4.14s-.24.84-.66.84h-16c.18,2.88.42,5.46.78,7.68a65.71,65.71,0,0,0,1.8,6.66A33,33,0,0,0,423.9,23C429.12,25.08,431.76,26.4,431.76,26.94Zm-2-17.46a8.62,8.62,0,0,1-.24,2,2.39,2.39,0,0,1-2.34,1.74c-.66,0-1.56-1.08-2.76-3.24A17.37,17.37,0,0,0,420.3,4.8a1.57,1.57,0,0,0,.42-.78C426.48,4.68,429.48,6.48,429.72,9.48Z"/><path d="M490.68,12.66c0,.54-.54,1.14-1.56,1.86a5,5,0,0,0-1.14,1c-.18,12.06-.78,19.08-1.86,21a7.22,7.22,0,0,1-6.9,4.38c-.6-.12-1-.78-1.14-2A5.48,5.48,0,0,0,476,36a17.91,17.91,0,0,0-3.42-1.32l.42-1.14a26.72,26.72,0,0,0,5.1.72c1.92,0,3-.54,3.3-1.62.66-2.1,1-8,1-17.76-4.08,1.08-7.86,2.1-11.22,3V28.2c.12,6.78.18,11.58.3,14.34,0,1.08-1.38,1.56-4,1.56-1.38,0-2-.36-2-1.2.12-2.34.18-7.32.24-14.94V19.38c-4,1.08-7.32,2-10.2,2.82v23c.24,2.16,2.4,3.24,6.6,3.24h22.5a3.64,3.64,0,0,0,4-3.42A66.52,66.52,0,0,0,490,36.48a3.38,3.38,0,0,0,1.38.3c0,1.14-.06,3.9-.18,8.34a2.52,2.52,0,0,0,1.14,2.34c1.38.78,2.1,1.56,2.1,2.28q0,3.06-5,3.6-2.7.36-12.78.36c-12.24,0-18.36-.12-18.36-.24-5.7-.12-8.52-2.64-8.52-7.56V23.82A56,56,0,0,0,442,26.4a15.41,15.41,0,0,0-1.92-2.82,54.59,54.59,0,0,0,9.66-1.68V11.64c-.12-1.92-.18-3.84-.3-5.82,5.94,1,8.94,1.74,8.94,2.28q0,1.08-2.88,2V20.52c3-.78,6.42-1.68,10.2-2.76V7.26c-.12-1.92-.36-3.84-.6-5.76,2,.24,4.2.6,6.48,1,1.62.3,2.46.72,2.46,1.26s-.36.66-1.08.78c-1.2.42-1.74.72-1.74,1V16.14c3.24-.9,6.66-1.92,10.32-3.06,1.32-2.52,2.4-3.84,3.18-3.84Q490.68,11.58,490.68,12.66Z"/><path d="M550.14,3.24c2.76,2.28,4.14,3.78,4.14,4.44s-.24.78-.66.78H534.54a19.69,19.69,0,0,1-2.88,5.16,43.77,43.77,0,0,1-2.58,3.66c2.34.72,3.54,1.26,3.54,1.62s-.48.66-1.32.9-1.26.66-1.26.84V39.3c.12,5,.24,9.84.24,14.28-.18,1-1.5,1.62-3.9,1.8-1.56,0-2.34-.42-2.34-1.2.12-4.86.24-9.78.24-14.76V23.1A81.94,81.94,0,0,1,502,39.66a3.93,3.93,0,0,1-.72-1q17.82-13.32,25.14-27.54c.54-1,1-1.92,1.32-2.7H515.94c-6.9,0-11.22.24-12.9.72-.42-1-.9-2-1.38-3.12a112.34,112.34,0,0,0,14.4.6h27.72c1.92-2.46,3.3-4,4.2-4.5.18,0,.36.06.54.06A13.76,13.76,0,0,1,550.14,3.24Zm3.24,32.46a3.1,3.1,0,0,1-1.32,2.94,2.64,2.64,0,0,1-1.5.36c-1.92,0-3.54-1.56-4.86-4.8a38.18,38.18,0,0,0-12.06-13.44c0-.06.18-.24.6-.54C546.84,25.92,553.26,31.08,553.38,35.7Z"/><path d="M595.8,4.2a12.59,12.59,0,0,0,3.3.3h3.42c1.8-1.8,2.88-2.76,3.18-2.76.6,0,1.62.66,3.12,1.86S611,5.7,611,6.12s-.54,1-1.5,1.26-1.26.54-1.26.66l-.54,14.28h.12c1.44-2,2.46-3.18,3.06-3.36a13.54,13.54,0,0,1,2.52,1.92c1.44,1.32,2.16,2.22,2.16,2.58s-.48.72-1.44.72c-.6.12-1.08.18-1.38.24a37.14,37.14,0,0,1-7.32,5.22,1.71,1.71,0,0,1-.6-.42,17.41,17.41,0,0,0,3.48-5.4H566.22a9,9,0,0,1,.12,1.2c-.18,3.9-1.68,5.88-4.44,5.94-1.68-.06-2.58-.72-2.64-2,0-.6.48-1.26,1.32-2a7.6,7.6,0,0,0,2.28-3.9c.18-1.08.3-2.22.42-3.36a2.65,2.65,0,0,0,.9-.12,13.37,13.37,0,0,1,1.62,2.7h1.56l-.3-15.42c-.12-1.5-.18-2.88-.3-4.08l4.86,2A30.54,30.54,0,0,0,577.5,0c3.24,2.4,4.92,3.72,4.92,4,0,.48-.24.66-.72.66-1-.12-1.8-.24-2.28-.24a40,40,0,0,1-7.44,2v3.84h1.92a12.22,12.22,0,0,1,2.46-2.76,2.6,2.6,0,0,1,.3-.06,6.28,6.28,0,0,1,1.8,1.32A9.57,9.57,0,0,1,580.32,11c0,.6-.18,1-.42,1H572v4.56h2.16a14.41,14.41,0,0,1,2.52-2.7.46.46,0,0,1,.3-.12,7,7,0,0,1,1.8,1.38,9.57,9.57,0,0,1,1.86,2.16c0,.6-.18.9-.42,1H572v4.08H602.7l.18-4.32H602a34.92,34.92,0,0,0-5.4.48,16.29,16.29,0,0,1-1-2.58,34.63,34.63,0,0,0,6.54.42h.84l.12-4.38h-1a26.41,26.41,0,0,0-5.28.54,18.9,18.9,0,0,1-1-2.58,32.92,32.92,0,0,0,6.42.42h1l.12-4.2h-3.6q-3.33,0-3.78.36c-.12-.36-.3-.78-.42-1.2h-.18c-.6,0-1.2.06-1.8.06-.54.36-1.08.72-1.56,1a4.86,4.86,0,0,1,1.86,3.6,2.79,2.79,0,0,1-.3,1.26c-.12.6-.66,1-1.56,1.14-.54,0-1.38-.84-2.46-2.52a10.59,10.59,0,0,1-1.14-1.38,60.74,60.74,0,0,1-7.14,3.18,1.73,1.73,0,0,1-.36-.6,35.62,35.62,0,0,0,5.64-4.5,19.2,19.2,0,0,0-3.9-2.82,5.2,5.2,0,0,0,.3-.72,40.38,40.38,0,0,1,5.52,1.44A14.36,14.36,0,0,0,590.58.9,42.32,42.32,0,0,1,595.8,4.2Zm1.38,23.1c1.44-1.8,2.4-2.7,3-2.7s1.44.54,2.94,1.62c1.32,1.08,2,1.8,2,2.28s-.3.66-.78,1a5.49,5.49,0,0,0-1.44,1.26V38.4c.18,2.94.3,4.86.3,5.7,0,1.26-1,1.86-2.88,1.86-1.44,0-2.22-.3-2.28-1v-.84h-3.6v4.62a2.1,2.1,0,0,0,2.22,1.8h10.44c1.44,0,2.28-1,2.46-3.12.54-2.52.9-4.56,1.14-6.24a3.69,3.69,0,0,0,.84.06v6.3a2.1,2.1,0,0,0,1.08,2c1.08.48,1.68,1.08,1.68,1.68,0,1.08-.9,1.92-2.7,2.46a71.26,71.26,0,0,1-9.6.66c-3.48,0-5.76-.06-6.84-.12-4-.24-6-1.8-6.06-4.68V44.16H584.7A9.65,9.65,0,0,1,583,48c-2.88,4-9.3,6.6-19.32,7.68a2.39,2.39,0,0,0-.6-.78c7.32-1.56,12.18-4.14,14.58-7.68a10.4,10.4,0,0,0,1.2-3.06h-3.36v.06c-.24,1.2-1.38,1.8-3.3,1.8-1.2,0-1.92-.18-2.16-.6,0-3.12.06-6.24.18-9.24V30.06a17.09,17.09,0,0,0-.42-4.56l4.8,1.8Zm.9,1.5H575.52v3.36h22.56Zm-22.56,8.4h22.56V33.72H575.52Zm22.56,1.56H575.52V42.6h22.56Zm-3.24-24c0,.42-.3.6-.84.6s-1.2.06-1.8.06c-.36.24-.66.48-1,.66,1.5,1,2.28,2.16,2.28,3.48a3.15,3.15,0,0,1-.24,1q-.18.72-1.26.9c-.66,0-1.62-.72-2.82-2.28-.42-.36-.78-.72-1.14-1.08a57.29,57.29,0,0,1-7.68,3.72c-.18-.06-.3-.24-.42-.54a36.53,36.53,0,0,0,5.88-5,21.63,21.63,0,0,0-4.44-2.58,5.35,5.35,0,0,0,.3-.6,44.71,44.71,0,0,1,5.64,1.26A14.64,14.64,0,0,0,589.26,11Q594.84,14.13,594.84,14.76Z"/><path d="M640.92,16.26q0,.81-3.78,1.26a43,43,0,0,1-4.92,7.14V49.08c.12,1.32.18,3.06.18,5.28,0,.84-1,1.32-3,1.44-1.56,0-2.4-.18-2.4-.54.06-1,.12-3.12.12-6.48V30.06a43.59,43.59,0,0,1-6.9,5.1,4,4,0,0,0-.6-.66c7.2-7.44,11.52-14.64,13-21.72C638.16,14.4,640.92,15.54,640.92,16.26ZM637.8,4c0,.72-1,1.14-2.82,1.32a32.76,32.76,0,0,1-13.32,12.36,5.36,5.36,0,0,0-1-.54,33,33,0,0,0,10-15.9C635.4,2.7,637.8,3.6,637.8,4Zm32,20.94c2.1,1.8,3.18,3,3.18,3.48s-.24.84-.66.84h-7.68v5.7h1.56a16.8,16.8,0,0,1,3.36-3.36c.12,0,.24.06.42.06.36.24.78.48,1.2.78,2.1,1.8,3.18,3,3.18,3.48s-.24.84-.6.84h-9.12V49.14c0,3.6-2.34,5.64-7,6.24-.42,0-.72-.54-1-1.56a3.76,3.76,0,0,0-2.7-2.64,14,14,0,0,0-3.48-1.32,2.19,2.19,0,0,1,.12-.84c1.56.12,4,.3,7.08.48,1.14,0,1.74-.42,1.74-1.32V36.72h-13.8c-5.16,0-8.34.24-9.6.72a29.38,29.38,0,0,0-1.44-3.12,64.23,64.23,0,0,0,10.86.6h14v-5.7H645.9q-7.29,0-9,.72a29.38,29.38,0,0,0-1.44-3.12,55.11,55.11,0,0,0,10.08.6h19.32a17,17,0,0,1,3.3-3.36c.12,0,.3.06.42.06C668.94,24.36,669.36,24.6,669.84,24.9Zm-23-20.82h13.92q2.7-2.88,3.42-2.88a10.94,10.94,0,0,1,2.64,1.44q2.52,1.89,2.52,2.52c0,.36-.36.72-1,1.08a19.21,19.21,0,0,0-1.62,1.32v8.88c.06,3.12.18,5.16.3,6.18,0,1.32-1.32,1.92-4,1.92-1.08,0-1.62-.42-1.62-1.32v-1H646.92v1q-.36,1.8-3.24,1.8c-1.2,0-2-.18-2.22-.6,0-3.54.06-7,.24-10.5V7.14a33.75,33.75,0,0,0-.42-5.22Zm-.06,35.64c2.28,1.5,3.48,3.24,3.48,5.28a3.63,3.63,0,0,1-1.14,2.94,3.23,3.23,0,0,1-2,.54c-1,0-1.68-1-2-3.12a19.41,19.41,0,0,0-1.32-4.2,24.12,24.12,0,0,0-1.86-2.46,4.38,4.38,0,0,1,.54-.66A13,13,0,0,1,646.74,39.72Zm14.7-34.14H646.92v6.9h14.52Zm0,8.46H646.92v6.6h14.52Z"/></g></g></svg>