<svg xmlns="http://www.w3.org/2000/svg" viewBox="0 0 673.26 55.98"><g id="图层_2" data-name="图层 2"><g id="图层_1-2" data-name="图层 1"><path d="M19.26,4c-.06.6-1.26,1-3.54,1a36.08,36.08,0,0,1-9,9.9c1.92.18,4.08.3,6.54.36q5.22,0,9.18-.36A14.52,14.52,0,0,0,19,8.82c.12-.12.36-.3.6-.54,5.94,3.42,8.94,6.66,8.94,9.78a2.74,2.74,0,0,1-1,2.4,2.81,2.81,0,0,1-1.68.54c-1.38,0-2.34-1.44-2.88-4.38-.12-.3-.18-.54-.24-.72A63.36,63.36,0,0,1,3.06,20Q2.7,21.42,2,21.42c-.18,0-.48-.6-.84-1.92A46.86,46.86,0,0,1,0,14.1a23.36,23.36,0,0,0,4.56.66C8.28,9.84,10.62,5,11.52.3,16.68,2.22,19.26,3.48,19.26,4ZM8.76,24.18H19.44c1.74-1.74,2.82-2.64,3.24-2.64a12.44,12.44,0,0,1,2.64,1.38q2.43,1.8,2.52,2.52c0,.48-.3.84-.9,1.2a11.26,11.26,0,0,0-1.44,1.08V48.06c-.12,3.72-2,6-5.64,6.9-.84-.18-1.2-.6-1.2-1.2A5.2,5.2,0,0,0,17,50.88,12,12,0,0,0,13.14,49a6,6,0,0,0,.12-1,28,28,0,0,0,5,.48c1.32,0,2-.36,2-1.14V40.86H9.3v12.9q-.36,1.8-3.24,1.8c-1.2,0-2-.24-2.22-.6,0-5.22.06-10.26.24-15.24v-10a69.1,69.1,0,0,0-.42-7.56Zm11.52,7.26v-5.7H9.3v5.7Zm0,7.86V33H9.3v6.3Zm18.3-9.42c0,.66-1.08,1.32-3.24,2V39.6c5.22-2.52,9.06-5.52,11.46-8.94,4,2.88,6.06,4.44,6.06,4.68a.71.71,0,0,1-.72.78,20.76,20.76,0,0,1-2.58-.18,65.49,65.49,0,0,1-14.22,5.4v5.22c0,1.8,1,2.7,2.88,2.82H43.8q3.33,0,4.5-2.16c.6-.9,1.32-3.12,2.16-6.6.66.06,1,.06,1.14.06v6.48c0,.54.48,1,1.32,1.2,1.08.48,1.62,1,1.62,1.56-.12,1.86-1.92,3.12-5.34,3.72a42.22,42.22,0,0,1-6.18.48,52.79,52.79,0,0,1-8-.36c-3.24-.24-4.8-2.94-4.8-8.22V33.66a32.07,32.07,0,0,0-.42-6.12Q38.58,29.07,38.58,29.88ZM38.1,2.7c0,.6-1,1.26-3,1.92v7.86c5-2.4,8.7-5.16,11.1-8.34,4,2.88,6,4.44,6,4.68a.64.64,0,0,1-.72.72,19.9,19.9,0,0,1-2.58-.12,61.08,61.08,0,0,1-13.8,4.8v5c0,1.62.9,2.46,2.7,2.58H44c2,0,3.42-.72,4.14-2,.6-.84,1.26-2.88,2-6.12a9.6,9.6,0,0,0,1,.06v6c0,.54.48.9,1.38,1.14,1,.48,1.56,1,1.56,1.44-.12,1.8-1.8,2.94-5,3.48a43,43,0,0,1-6.24.42,57.11,57.11,0,0,1-8.16-.3c-3-.12-4.5-2.7-4.5-7.68V6.24A30.81,30.81,0,0,0,29.94.48C35.34,1.44,38.1,2.22,38.1,2.7Z"/><path d="M109.68,2.46Q112.2,4.35,112.2,5c0,.36-.3.72-.84,1.08-.84.72-1.38,1.2-1.5,1.32V34.74c.12,9.36.24,15.6.36,18.84,0,1.26-1.38,1.92-4,1.92-1.08,0-1.56-.48-1.56-1.32V51H69v2.52q-.36,1.8-3.24,1.8c-1.2,0-2-.24-2.22-.6,0-8.28.06-16.44.24-24.42v-16c-.12-6.84-.24-10.86-.42-12.12l5.88,2.28h34.38C105.36,2.16,106.5,1,107,1A10,10,0,0,1,109.68,2.46Zm-5,47V5.94H69v43.5Zm-15-41.16c1.5.3,2.28.72,2.28,1.2s-.36.6-1,.72c-1.08.42-1.56.72-1.56.9v7.68H93.9a39.08,39.08,0,0,1,2.94-3.66c.3-.3.54-.48.72-.48a3.09,3.09,0,0,1,1.26.66c2.46,2.16,3.84,3.54,4.14,4.26,0,.48-.18.72-.48.72H91.86c1.2,6.6,4.14,11.4,8.7,14.4A11.74,11.74,0,0,0,104,36.54a2.26,2.26,0,0,1-.24,1,4.9,4.9,0,0,0-1.5.6,4.35,4.35,0,0,0-1.44,2.1c-.48.9-.9,1.32-1.26,1.32s-.72-.36-1.38-1.08C94,36.72,91.5,30,90.54,20.28h-1.2v12c.06,6.3.12,10.74.24,13.26,0,1-1.26,1.5-3.78,1.5-1.26,0-1.86-.36-1.86-1.14q.18-3.24.18-13.86V29A33,33,0,0,1,70.56,41.4c-.18,0-.36-.18-.48-.6,6.24-5.52,10.38-11.4,12.3-17.7a21.1,21.1,0,0,0,.9-2.82H77.1a27.13,27.13,0,0,0-5.7.48c-.24-.66-.48-1.44-.84-2.4a38.21,38.21,0,0,0,6.54.42h7v-6c-.12-1.8-.24-3.6-.48-5.34C85.5,7.68,87.48,8,89.64,8.28Z"/><path d="M120.12,31.2a1.88,1.88,0,0,1-.66-.54A57.58,57.58,0,0,0,132.24.78c5.88,1.2,8.82,2.1,8.82,2.76s-1.14,1.2-3.3,1.56a45.79,45.79,0,0,1-4.86,12c1.38.48,2.1.84,2.1,1.08s-.42.54-1.14.78-1.08.54-1.08.72v19.5q.18,7.92.18,14.94c-.12.84-1.26,1.38-3.36,1.5-1.38,0-2-.36-2-1,.12-5.1.18-10.2.18-15.36V24.12A57.24,57.24,0,0,1,120.12,31.2ZM169,10.92q3.78,3.24,3.78,4.14c0,.54-.24.78-.66.78h-15.9V30.66h4.08a22.73,22.73,0,0,1,4.2-4.5c.18,0,.36.06.6.06a13.55,13.55,0,0,1,1.56,1c2.76,2.28,4.14,3.78,4.14,4.44s-.24.84-.66.84H156.24V50.34h7.86a23.68,23.68,0,0,1,4.2-4.56c.12,0,.3.06.54.06a13.76,13.76,0,0,1,1.62,1c2.7,2.34,4.08,3.78,4.08,4.44s-.24.84-.6.84H146.28c-5,0-8.22.18-9.42.66a23.9,23.9,0,0,0-1.44-3.06,58.89,58.89,0,0,0,9.84.6h5.64V32.52h-3.12c-4.08,0-6.66.24-7.62.66-.42-1-.9-2-1.38-3.06a34.55,34.55,0,0,0,7.38.54h4.74V15.84H147c-4.62,0-7.5.24-8.58.72-.42-1-.9-2-1.44-3.12a44.07,44.07,0,0,0,8.94.6h17.16a18.68,18.68,0,0,1,4-4.14c.12,0,.3.06.48.06A15.36,15.36,0,0,1,169,10.92ZM156.84,9.18a3.44,3.44,0,0,1-1.2,3,3.26,3.26,0,0,1-2,.72c-1.32,0-2.28-1.26-2.76-3.9A14.21,14.21,0,0,0,147,2.22a4,4,0,0,1,.72-.72C153.78,4.2,156.84,6.78,156.84,9.18Z"/><path d="M231.6,26.7a.89.89,0,0,1-.72.72,6.72,6.72,0,0,1-2.58.36,30.94,30.94,0,0,1-7.2,11.82c2,4.5,4.38,7.26,7.08,8.22,1,0,2.4-2.52,4.38-7.62.6.06.9.12.9.24a20.29,20.29,0,0,0-1.74,7.8,4,4,0,0,0,1.08,2.34,4.88,4.88,0,0,1,1.32,2.64c0,1.08-.84,1.62-2.4,1.74-2.64,0-5.52-1.14-8.7-3.36a29.14,29.14,0,0,1-6-8.4,51.32,51.32,0,0,1-15.84,7.74,8.22,8.22,0,0,0-.48-.84,50,50,0,0,0,14.64-10.68,63,63,0,0,1-3.78-19.26H199.38V29.4c3.12-.9,6.3-1.92,9.54-3.12l.48,1a77.39,77.39,0,0,1-10,5.94V49.5c-.12,3.3-2.4,5.16-6.84,5.64a1,1,0,0,1-1.08-1.08,9.62,9.62,0,0,0-.9-2.1q-.36-1.35-5.76-2.34v-1c2.28.18,4.68.24,7.14.24,1.08,0,1.68-.18,1.74-.6V35.82c-2.28,1-4.62,1.92-7.08,2.76a5.79,5.79,0,0,0-.66,2.7c-.12.66-.36,1-.84,1s-1.62-1.56-3.06-4.8a36.09,36.09,0,0,0-1.74-4.08,100.15,100.15,0,0,0,13.38-2.46V20.16c-6.48.06-10.5.3-12.12.66-.42-1-.9-2-1.44-3.12a113.11,113.11,0,0,0,13.56.6V9.6a87.25,87.25,0,0,1-11.52,1.32,8.18,8.18,0,0,0-.24-1c9.36-1.92,16.38-4.8,21-8.64,3.72,2.64,5.64,4.2,5.64,4.62s-.36.6-1,.6c-1.44-.18-2.64-.3-3.48-.42a23.49,23.49,0,0,1-4.68,2V18.3h12.06c-.48-8.16-.84-13.74-1.2-16.74,5.7.6,8.58,1.14,8.7,1.68,0,.36-.24.6-.72.78q-1.17.63-2.16,1.08c0,4.92.12,9.36.36,13.2h7a22.43,22.43,0,0,1,3.9-4.14c.18,0,.36.06.54.06a10,10,0,0,1,1.44,1c2.52,2.16,3.84,3.54,3.84,4.14s-.24.84-.66.84h-16c.18,2.88.42,5.46.78,7.68a65.71,65.71,0,0,0,1.8,6.66,33,33,0,0,0,4.62-11.7C229,24.84,231.6,26.16,231.6,26.7Zm-2-17.46a8.62,8.62,0,0,1-.24,2A2.39,2.39,0,0,1,227,13c-.66,0-1.56-1.08-2.76-3.24a17.37,17.37,0,0,0-4.08-5.22,1.57,1.57,0,0,0,.42-.78C226.32,4.44,229.32,6.24,229.56,9.24Z"/><path d="M249,13h1a70.42,70.42,0,0,0,2-12.24c4.86,1.44,7.32,2.46,7.32,2.94,0,.72-1,1.14-2.94,1.26a28.93,28.93,0,0,1-4.5,8h4.92c1.8-1.86,2.94-2.82,3.42-2.82a9.07,9.07,0,0,1,2.7,1.5q2.52,1.89,2.52,2.52t-.9,1.08A9.3,9.3,0,0,0,263,16.62V36.54c.12,6.84.18,11.46.3,13.8,0,1.2-1.32,1.86-4,1.86-1.08,0-1.56-.42-1.56-1.26V47.58h-8.76v4.56q-.36,1.8-3.24,1.8c-1.2,0-2-.24-2.22-.6,0-6.72.06-13.32.24-19.74V20.7c-.12-5.52-.24-8.76-.42-9.78Zm8.82,15.9V14.58h-8.76V28.92Zm0,17V30.48h-8.76V46ZM280,3.6c0,.6-1,1-2.94,1.26-.84,2.76-1.74,5.34-2.7,7.68h11.1c1.62-2,2.76-3.06,3.42-3.12a10.3,10.3,0,0,1,3.36,2q2.16,2,2.16,2.52,0,.72-1.44,1.26a3.76,3.76,0,0,0-1.32,1.08c-.84,16.44-1.92,27.06-3.24,31.92-1.2,4.2-3.78,6.66-7.8,7.26-.66,0-1.14-.6-1.5-1.8a5.45,5.45,0,0,0-2.64-3.42,43.42,43.42,0,0,0-5.52-2.16A5.38,5.38,0,0,1,271,46.8a65.16,65.16,0,0,0,9,.84c2.16-.18,3.3-1.14,3.3-2.94,1-1.8,2-12,3.06-30.48H273.6c-2.76,6.12-5.88,10.8-9.48,13.92a2.48,2.48,0,0,1-.3-.66c3.84-6.6,6.54-15.54,8-26.7C277.2,1.86,280,2.82,280,3.6Zm.54,29.88a5.78,5.78,0,0,1-1,3.72,3,3,0,0,1-2.64,1.2c-1,0-1.68-1.2-1.92-3.72-.9-4.56-2.16-8.1-3.84-10.56l.9-.66C277.62,27.18,280.44,30.48,280.5,33.48Z"/><path d="M349.32,3.3c2.52,2.16,3.84,3.54,3.84,4.14s-.24.78-.66.78H329.4v4.14H340c1.44-1.44,2.46-2.22,3-2.28a9.23,9.23,0,0,1,3,1.68c1.32,1.08,2,1.8,2,2.22s-.3.72-.84,1a6.25,6.25,0,0,0-1.5,1.26v3.18c.18,1.26.3,2,.3,2.4,0,1.2-1,1.86-2.88,1.86-1.44,0-2.22-.3-2.28-1V22H329.4v4.8h12.12c1.68-1.62,2.82-2.46,3.42-2.46.42,0,1.32.54,2.76,1.62,1.44,1.26,2.16,2.1,2.16,2.58s-.3.66-.84,1a18.59,18.59,0,0,0-1.56,1.14v2.88h1q2-3.51,2.52-3.6.36,0,1.62,2a9.86,9.86,0,0,1,1.44,2.46c0,.6-.24,1-.72,1h-5.88v4.2c.18,2,.3,3.84.3,5.34,0,1.08-1.26,1.68-3.72,1.8-1.2,0-1.74-.42-1.74-1.2V43H329.4v4.32c0,5-2.52,7.56-7.44,7.56-.78,0-1.2-.36-1.2-1a5,5,0,0,0-2.28-3,9.43,9.43,0,0,0-4-1.44,3.76,3.76,0,0,0,.12-1c1.38.12,4.2.12,8.46.12.66,0,1-.54,1-1.62V43c-7.92.06-14.22.24-19,.48a11.54,11.54,0,0,1-1-2.58c2.4.18,9.06.3,19.92.36v-6H309.12c-5.82.12-8.76.24-8.76.48a16.73,16.73,0,0,1-1.14-3.06,65.85,65.85,0,0,0,9.24.78h15.6V28.26h-2.52c-7,0-12.18.18-15.42.48-.24-.72-.48-1.5-.78-2.4,2.58.3,8.34.42,17.28.42h1.44V22H312.72v.72c-.24,1.2-1.38,1.8-3.3,1.8-1.2,0-1.92-.18-2.16-.6,0-2.16.06-4.26.24-6.3V13.44a9.15,9.15,0,0,0-.48-3.12l5.4,2h11.64V8.22H314.4q-10.44,0-13,.72c-.42-1-.9-2-1.44-3.12a120.75,120.75,0,0,0,14.88.6h9.18a43.18,43.18,0,0,0-.48-6.06c5.4,1,8.28,1.74,8.76,2.46a.55.55,0,0,1-.48.6c-.42.18-1,.42-1.56.72s-.9.54-.9.78v1.5h14c1.8-2.28,3.06-3.66,3.9-4.14.18,0,.36.06.54.06A10,10,0,0,1,349.32,3.3ZM324.06,13.86H312.72V20.4h11.34Zm16.8,0H329.4V20.4h11.46ZM329.4,33.48h12.9V28.26H329.4Zm0,7.86h12.9V35.28H329.4Z"/><path d="M366.06,19.44c-.12,3.6-1.5,5.46-4.08,5.52-1.62-.06-2.46-.66-2.52-1.86a5.39,5.39,0,0,1,1.44-2.88,13.12,13.12,0,0,0,2.58-5.7c.12-1.08.24-2.1.36-3.12a2.64,2.64,0,0,0,.84-.18A27.14,27.14,0,0,1,366.06,19.44ZM373,1.5c1.56.24,2.34.66,2.34,1.14s-.36.66-1,.78c-1.08.36-1.62.66-1.62.84v37c.12,6.3.18,10.68.3,13.32Q373,56,369.24,56c-1.26,0-1.86-.36-1.86-1.08.06-2.22.12-6.78.18-13.86V5.94c-.12-1.8-.24-3.6-.48-5.34Q369.87,1,373,1.5Zm6.84,15.18c0,1.86-.78,2.82-2.34,2.82s-2.1-.72-2.1-2.16a21.51,21.51,0,0,0-.18-2.4c-.18-1-.36-2.1-.6-3.3-.24-1-.48-1.74-.6-2.16A2.87,2.87,0,0,1,374.7,9C378.12,11.58,379.86,14.16,379.86,16.68ZM409.92,4.74c2.1,1.8,3.18,3,3.18,3.48s-.24.84-.66.84H397v5.1h5.88a17,17,0,0,1,3.3-3.36c.12,0,.24.06.42.06.36.24.78.48,1.26.78,2.1,1.86,3.18,3.06,3.18,3.54s-.24.78-.66.78H397v5.28h9.18a16.8,16.8,0,0,1,3.36-3.36c.12,0,.24.06.42.06a11.16,11.16,0,0,1,1.2.84c2.1,1.8,3.18,3,3.18,3.48s-.24.78-.6.78H386.64c-4.92,0-8,.24-9.24.72A27.65,27.65,0,0,0,376,20.64a57.81,57.81,0,0,0,10.32.6h5.4V16h-2.46c-3.9,0-6.3.24-7.26.72a27.65,27.65,0,0,0-1.38-3.12,31.79,31.79,0,0,0,7.62.6h3.48V9.06h-4.2c-4.56,0-7.44.24-8.52.72a29.38,29.38,0,0,0-1.44-3.12,47.82,47.82,0,0,0,9.36.6h4.8V7a45.87,45.87,0,0,0-.36-6.42c5.64.84,8.52,1.56,8.52,2.22,0,.48-.36.84-1.08,1Q397,4.44,397,5V7.26h7.92a17,17,0,0,1,3.3-3.36c.12,0,.3.06.42.06C409,4.2,409.44,4.44,409.92,4.74ZM385.26,27.48h17.28a11,11,0,0,1,3-2.94c.6,0,1.62.54,3.12,1.56,1.74,1.14,2.64,2,2.64,2.52s-.42.84-1.2,1.26a5.41,5.41,0,0,0-1.44,1.26V48.9c0,3.6-2.28,5.88-6.78,6.72-.42,0-.72-.42-.84-1.2a5.57,5.57,0,0,0-2.22-3.24,16.19,16.19,0,0,0-3.12-1.44,2.3,2.3,0,0,0,.12-1,40.37,40.37,0,0,0,6.06.36q1.44,0,1.44-1.26V42.6H385.86V53.82c-.3,1.2-1.38,1.8-3.3,1.8-1.2,0-1.92-.24-2.16-.6q0-7,.18-13.68v-9a36.53,36.53,0,0,0-.42-6.78ZM403.32,34V29H385.86V34Zm0,7V35.52H385.86V41Z"/><path d="M452.4,15.3c1.26,1.2,1.92,2,1.92,2.46s-.6.9-1.8,1.38a5.26,5.26,0,0,0-1.2.48c-1.5,4.56-2.7,8.16-3.54,10.68h2.1c1.5-1.68,2.4-2.58,2.76-2.58a6.31,6.31,0,0,1,2.82,1.44c1.56,1.08,2.4,1.86,2.4,2.22s-.42.78-1.2,1.14-1.2.72-1.32,1.08A38.75,38.75,0,0,1,451,44.82a19.16,19.16,0,0,0,7.2,2.88q4.59,1.44,17.46,1.44c9.36-.24,15.84-.78,19.32-1.5,0,.6,0,1,.12,1.08a5.49,5.49,0,0,0-1.68,1,3.4,3.4,0,0,0-1.08,2.1,1.73,1.73,0,0,1-2,1.92c-8.94,0-14.22-.18-15.9-.42-8.7,0-14.94-1-18.72-2.94a17.72,17.72,0,0,1-5.58-4.26,23.87,23.87,0,0,1-1.74,2.22A22.79,22.79,0,0,1,440,55.14a1.94,1.94,0,0,1-.48-.54,34.54,34.54,0,0,0,6.84-9.84,41.1,41.1,0,0,0,3.84-13H447.3c-.3.84-.54,1.44-.72,1.92-.24.66-.9,1-2,1-1.92-.12-2.82-.6-2.82-1.38,2-5.58,3.78-10.86,5.22-15.78h-4.56a20.11,20.11,0,0,0-2.16.36c-.36-.84-.66-1.56-.9-2.22a14,14,0,0,0,2.76.3h4.62a15.71,15.71,0,0,1,3.06-2.4C450.42,13.5,451.32,14.1,452.4,15.3ZM447.6,3.54c2.64,1.68,4,3.72,4,6a2.44,2.44,0,0,1-.84,2.16,2.17,2.17,0,0,1-1.44.42c-1.74,0-2.88-1.14-3.48-3.54A17.32,17.32,0,0,0,443.58,4a9,9,0,0,0-1.38-1.8,5.81,5.81,0,0,0,.42-.54A16,16,0,0,1,447.6,3.54Zm44.88,13a7.32,7.32,0,0,1,2,2.28c0,.6-.24,1-.66,1H465.18c-5.76.12-8.7.3-8.7.54a26.67,26.67,0,0,1-1.2-3.12c.84.3,3.9.54,9.24.78h22.26q2.61-3.15,3.42-3.24C490.56,14.7,491.28,15.3,492.48,16.5ZM464,23.22h17.4c1.44-1.74,2.4-2.64,3-2.7a9.89,9.89,0,0,1,3,1.68c1.32,1,2,1.74,2,2.22s-.3.72-.84,1a5.49,5.49,0,0,0-1.44,1.26v2.4a17,17,0,0,1,.3,1.8c0,1.26-1,1.92-2.88,1.92-1.44,0-2.22-.3-2.28-1v-.06H476.1a10.41,10.41,0,0,1-.9,1.2v1.62A78.36,78.36,0,0,1,483.06,37a22,22,0,0,0,4.86-5.1c3,2.22,4.56,3.48,4.56,3.78s-.24.6-.66.6c-1-.12-1.68-.24-2.1-.24a23.56,23.56,0,0,1-4.8,1.8q4.86,2.43,5,5a4.79,4.79,0,0,1-.42,2.1,1.89,1.89,0,0,1-1.92,1c-.66,0-2.1-1.44-4.26-4.44a26.56,26.56,0,0,0-8.16-5.76v8.16c.06.78.12,1.5.12,2.22,0,1-1,1.44-2.94,1.44-1.32,0-2-.24-2.1-.78V37.68q-5.22,3.69-14.4,6.12c-.24,0-.48-.24-.6-.84,7.2-3.12,11.94-6.42,14.16-10a9,9,0,0,0,.84-1.2h-5.64v.66c-.24,1.14-1.26,1.68-3.06,1.68-1.14,0-1.8-.18-2-.54,0-1.92.06-3.78.24-5.64V24.24a10.43,10.43,0,0,0-.42-2.82ZM461.28,3.6h23.16c1.44-1.74,2.4-2.64,3-2.7a9.2,9.2,0,0,1,2.94,1.68c1.32,1,2,1.74,2,2.22s-.3.66-.84,1A5.81,5.81,0,0,0,490,7.08V10.5c.18,1.32.3,2.16.3,2.52,0,1.26-1,1.92-2.88,1.92-1.38,0-2.1-.24-2.22-.84H461.76v.78c-.24,1.14-1.26,1.68-3.06,1.68-1.14,0-1.8-.18-2-.54,0-2.28.06-4.5.24-6.66V5a13.77,13.77,0,0,0-.42-3.3Zm5.34,8.94V5.16h-4.86v7.38Zm15.72,17.64v-5.4h-17.7v5.4ZM471.12,12.54h4.74V5.16h-4.74Zm9.24,0h4.8V5.16h-4.8Z"/><path d="M550.2,6.3c2.7,2.28,4.08,3.78,4.08,4.38s-.24.84-.6.84H522.3a57.07,57.07,0,0,1-5.46,8.34l1.92,1h20.46a10.13,10.13,0,0,1,3-2.94,8.74,8.74,0,0,1,3.12,1.5c1.68,1.2,2.58,2,2.58,2.58s-.42.84-1.14,1.26a3.91,3.91,0,0,0-1.44,1.26V48c0,3.9-2,6.3-5.82,7.26-.6,0-1-.42-1.14-1.26a6.34,6.34,0,0,0-3.18-3.54,24.89,24.89,0,0,0-4.38-1.56,2.64,2.64,0,0,0,.12-1.08,50.85,50.85,0,0,0,7.62.42A1.26,1.26,0,0,0,540,46.86v-6.3H518.64c0,4.08.12,8.46.3,13.08q-.54,1.62-4.14,1.62c-1.2,0-1.8-.36-1.8-1,.06-5.64.12-11.82.12-18.54V24.3A76.06,76.06,0,0,1,500.4,35.4c-.48,0-.66-.24-.66-.78a76.29,76.29,0,0,0,16.74-23.1h-1.8c-7.08,0-11.52.24-13.26.72A29.38,29.38,0,0,0,500,9.12a124.23,124.23,0,0,0,15.06.6h2.28A74.75,74.75,0,0,0,520.5.36c5.52,1.2,8.34,2.22,8.34,3.06,0,.6-1.14,1.08-3.42,1.5-.72,1.68-1.44,3.24-2.16,4.8h20.58A23.68,23.68,0,0,1,548,5.16c.18,0,.36.06.54.06Q549.3,5.67,550.2,6.3ZM540,29.64V22.5H518.64v7.14ZM540,39V31.2H518.64V39Z"/><path d="M610.38,4.62c1.68,1.74,2.58,2.94,2.58,3.6s-1,.9-2.64.9c-.12,0-.6-.06-1.56-.06a73.13,73.13,0,0,1-8.94,6.72l1.5.36a.91.91,0,0,1,.42.72c-.06.36-.36.66-.9,1a3.68,3.68,0,0,0-1,.54V26.1h4.56a21.38,21.38,0,0,1,3.72-4.56.87.87,0,0,1,.42-.12,11.07,11.07,0,0,1,2.76,2,13.7,13.7,0,0,1,3,3.42c0,.6-.18.9-.42,1h-14v20.7c-.36,3.66-2.58,5.76-6.72,6.36q-.9,0-1.08-1.44c-.3-1.08-1.38-2.16-3.24-3.12A11.92,11.92,0,0,0,585.18,49a4.48,4.48,0,0,1,.18-1.2,49.38,49.38,0,0,0,6.36.66c1.8,0,2.7-.66,2.7-2V27.78H581.34a56,56,0,0,1-3.54,10.44c3.12,1.92,4.8,4,5,6.24a3.66,3.66,0,0,1-.72,2.64,1.77,1.77,0,0,1-1.5.66c-1.44,0-3-1.5-4.62-4.5a3.56,3.56,0,0,1-.48-.66,28.94,28.94,0,0,1-14.1,11.82c-.12-.12-.3-.42-.6-.84a44.42,44.42,0,0,0,11.52-14.16,1,1,0,0,1,.12-.3,40.33,40.33,0,0,0-4.86-3.84c-.24.6-.42,1.08-.54,1.5-.18.9-1.14,1.38-2.94,1.44s-2.7-.42-2.7-1.32a168.88,168.88,0,0,0,6.54-21.48h-.12a26.86,26.86,0,0,0-6.24.6c-.24-.72-.6-1.62-1.08-2.76a62.56,62.56,0,0,0,7.26.6h.54A85.42,85.42,0,0,0,570,1.26c5.4,1.08,8.1,1.92,8.1,2.4s-.36.66-1,.78a9,9,0,0,0-2.16.84c-.66,3.12-1.26,5.94-1.86,8.58H577c1.68-1.8,2.82-2.76,3.36-2.76a9.3,9.3,0,0,1,3.42,2.28C585.24,14.82,586,15.66,586,16a1,1,0,0,1-.78,1c-.72.3-1.44.6-2.16,1-.36,2.94-.78,5.7-1.32,8.22h12.72V25c0-4.92-.12-8.28-.3-10.2,1.2.18,2.46.36,3.66.6A65.48,65.48,0,0,0,603.9,7H589.2a27.48,27.48,0,0,0-6.18.72c-.66-1.32-1.14-2.4-1.44-3.18a26.71,26.71,0,0,0,7.14.78h14.76c2.28-1.92,3.72-2.94,4.2-2.94A9.53,9.53,0,0,1,610.38,4.62Zm-36.72,31.5a69.71,69.71,0,0,0,4-20.7h-4.86c-1.8,7.86-3.36,14-4.8,18.6C570.12,34.74,572,35.4,573.66,36.12Z"/><path d="M660.84,6.06c1.74,1.5,2.64,2.46,2.64,2.88s-.54.84-1.5,1.08a16.24,16.24,0,0,1-2.16.6,50.08,50.08,0,0,1-15,13.2,69.67,69.67,0,0,1-21,8.4,1.59,1.59,0,0,1-.3-.78,89.9,89.9,0,0,0,19.14-11c6.54-5,10.32-8.88,11.4-11.76H641a62.15,62.15,0,0,1-5.34,4c4.86.78,7.38,2.46,7.62,5a5.6,5.6,0,0,1-.3,1.92,2.16,2.16,0,0,1-2.16,1.56c-.72,0-1.68-1-2.88-3a18.44,18.44,0,0,0-3.66-4.5,92.53,92.53,0,0,1-10.32,6c-.48-.18-.84-.36-1.2-.48A54.29,54.29,0,0,0,641.58,0c4.74,2.16,7.14,3.6,7.14,4.2s-1.2.72-3.54.72c-.84.84-1.68,1.62-2.46,2.28h11c2-2.1,3.24-3.18,3.66-3.3Q658.32,3.9,660.84,6.06Zm10.08,19.26c1.56,1.44,2.34,2.46,2.34,2.94,0,.24-.36.54-1,.9a9,9,0,0,0-2.7,1.5c-7,13.32-22,21.18-44.94,23.76a1.74,1.74,0,0,0-.36-1c13.32-3.36,22.68-7.14,28.2-11.46,6.24-4.32,10.26-8.94,12.06-13.74H652.2a68.69,68.69,0,0,1-6.84,4.68,4.48,4.48,0,0,1-.72.42c4.26.78,6.48,2.46,6.72,5a6.78,6.78,0,0,1-.3,2.1,2.4,2.4,0,0,1-2.34,1.68c-.6,0-1.38-1-2.34-3.12a16.67,16.67,0,0,0-3.12-4.74,76,76,0,0,1-15.12,6.84c-.12-.12-.3-.36-.6-.72q20.43-10.71,24.72-21c5.52,1.62,8.28,2.82,8.28,3.54q0,.72-3.78,1.26-1.35,1.35-2.7,2.52h10c1.8-2.34,3.06-3.54,3.66-3.54S669.3,23.88,670.92,25.32Z"/></g></g></svg>