<svg xmlns="http://www.w3.org/2000/svg" viewBox="0 0 735 55.62"><g id="图层_2" data-name="图层 2"><g id="图层_1-2" data-name="图层 1"><path d="M11.64,8.46A32.33,32.33,0,0,1,1,18.66a4.53,4.53,0,0,0-1-.6A39.43,39.43,0,0,0,9.24.18c5.1,1.68,7.68,2.7,7.68,3.06,0,.72-1,1.2-3,1.44-.42.78-.84,1.5-1.2,2.1h8a17,17,0,0,1,3-3.48c.12,0,.24-.06.36-.06A8.83,8.83,0,0,1,26.28,4.8a11.64,11.64,0,0,1,2.28,2.7c0,.6-.18.9-.42,1h-11c3.18,1,4.8,2.64,4.8,4.92q0,2.52-2.7,2.7c-1,0-1.68-.6-1.92-1.86A5.25,5.25,0,0,1,17,12.36a15.94,15.94,0,0,0-.54-1.92,5,5,0,0,0-1.5-2Zm29,8.88c1-.84,1.68-1.5,2.28-2a.89.89,0,0,1-.54.12c-1.08,0-1.68-.6-1.92-1.86a4.77,4.77,0,0,1-.36-1.74,13.57,13.57,0,0,0-.48-1.8,5.82,5.82,0,0,0-1.08-1.56H34.44c-.6.72-1.2,1.44-1.8,2.1a25.44,25.44,0,0,1-6.3,5.28,6.55,6.55,0,0,0-.54-.66c3.78-5,6.06-10,6.9-14.76,5,1.56,7.62,2.64,7.62,3.24s-1.2.9-3.48,1.2a14.94,14.94,0,0,1-1.2,1.92H46.08A19.92,19.92,0,0,1,49.32,3a.51.51,0,0,1,.36-.12,11.3,11.3,0,0,1,2.4,1.74A14.2,14.2,0,0,1,54.6,7.56c0,.6-.18.9-.42,1H41.28c2.52,1,3.78,2.46,3.78,4.26a2.39,2.39,0,0,1-.84,2.1,10.65,10.65,0,0,1,2.46,1.44q2.52,1.89,2.52,2.52c0,.36-.3.72-.78,1.08A12.7,12.7,0,0,0,47,21.24v9.3c.06,3.24.18,5.34.3,6.42,0,1.32-1.32,1.92-4,1.92-1.08,0-1.62-.42-1.62-1.32v-.42H39.54V42.3h6.12a18.35,18.35,0,0,1,3.6-3.78c.12,0,.3.06.48.06a13,13,0,0,1,1.32.9c2.34,2,3.54,3.24,3.54,3.78s-.24.84-.66.84H39.54v.6c.12,2.58.24,5.64.24,9.24q0,1.26-3.42,1.44c-1.8,0-2.76-.3-2.76-.9.12-1.92.24-5.22.24-10.08v-.3H21.6A17.79,17.79,0,0,1,17,50.22c-3.66,3-8.52,4.8-14.52,5.4a11,11,0,0,0-.36-1.14A29.32,29.32,0,0,0,11.28,50,15.68,15.68,0,0,0,16,44.1h-.54c-7,0-11.4.24-13.08.72A29.38,29.38,0,0,0,1,41.7a128.27,128.27,0,0,0,15.3.6h.48a24,24,0,0,0,1-3.84,10.78,10.78,0,0,0,.12-1.32h-3.3v.6c-.3,1.32-1.5,1.92-3.54,1.92-1.32,0-2.1-.18-2.34-.66,0-3.72.06-7.44.24-11V20.7a26.64,26.64,0,0,0-.48-5.46L14,17.34Zm1.08,1.5H14.52v4.32H41.7ZM14.52,29.16H41.7V24.78H14.52ZM41.7,30.72H14.52v4.8H41.7ZM23.34,38.64a27,27,0,0,1-1,3.66H33.84V37.14H23.58A14.09,14.09,0,0,0,23.34,38.64Z"/><path d="M110.64,3c2.76,2.28,4.14,3.78,4.14,4.44s-.24.78-.66.78H95a19.69,19.69,0,0,1-2.88,5.16A43.77,43.77,0,0,1,89.58,17c2.34.72,3.54,1.26,3.54,1.62s-.48.66-1.32.9-1.26.66-1.26.84V39.06c.12,5,.24,9.84.24,14.28-.18,1-1.5,1.62-3.9,1.8-1.56,0-2.34-.42-2.34-1.2.12-4.86.24-9.78.24-14.76V22.86A81.94,81.94,0,0,1,62.46,39.42a3.93,3.93,0,0,1-.72-1Q79.56,25.14,86.88,10.92c.54-1,1-1.92,1.32-2.7H76.44c-6.9,0-11.22.24-12.9.72-.42-1-.9-2-1.38-3.12a112.34,112.34,0,0,0,14.4.6h27.72c1.92-2.46,3.3-4,4.2-4.5.18,0,.36.06.54.06A13.76,13.76,0,0,1,110.64,3Zm3.24,32.46a3.1,3.1,0,0,1-1.32,2.94,2.64,2.64,0,0,1-1.5.36c-1.92,0-3.54-1.56-4.86-4.8A38.18,38.18,0,0,0,94.14,20.52c0-.06.18-.24.6-.54C107.34,25.68,113.76,30.84,113.88,35.46Z"/><path d="M141.42,16q0,.81-3.78,1.26a43,43,0,0,1-4.92,7.14V48.84c.12,1.32.18,3.06.18,5.28,0,.84-1,1.32-3,1.44-1.56,0-2.4-.18-2.4-.54.06-1,.12-3.12.12-6.48V29.82a43.59,43.59,0,0,1-6.9,5.1,4,4,0,0,0-.6-.66c7.2-7.44,11.52-14.64,13-21.72C138.66,14.16,141.42,15.3,141.42,16ZM138.3,3.72c0,.72-1,1.14-2.82,1.32A32.76,32.76,0,0,1,122.16,17.4a5.36,5.36,0,0,0-1-.54,33,33,0,0,0,10-15.9C135.9,2.46,138.3,3.36,138.3,3.72Zm32,20.94c2.1,1.8,3.18,3,3.18,3.48s-.24.84-.66.84h-7.68v5.7h1.56a16.8,16.8,0,0,1,3.36-3.36c.12,0,.24.06.42.06.36.24.78.48,1.2.78,2.1,1.8,3.18,3,3.18,3.48s-.24.84-.6.84h-9.12V48.9c0,3.6-2.34,5.64-7,6.24-.42,0-.72-.54-1-1.56a3.76,3.76,0,0,0-2.7-2.64A14,14,0,0,0,151,49.62a2.19,2.19,0,0,1,.12-.84c1.56.12,4,.3,7.08.48,1.14,0,1.74-.42,1.74-1.32V36.48h-13.8c-5.16,0-8.34.24-9.6.72a29.38,29.38,0,0,0-1.44-3.12,64.23,64.23,0,0,0,10.86.6h14V29H146.4q-7.29,0-9,.72A29.38,29.38,0,0,0,136,26.58a55.11,55.11,0,0,0,10.08.6h19.32a17,17,0,0,1,3.3-3.36c.12,0,.3.06.42.06C169.44,24.12,169.86,24.36,170.34,24.66Zm-23-20.82h13.92Q163.92,1,164.64,1a10.94,10.94,0,0,1,2.64,1.44q2.52,1.89,2.52,2.52c0,.36-.36.72-1,1.08a19.21,19.21,0,0,0-1.62,1.32V16.2c.06,3.12.18,5.16.3,6.18,0,1.32-1.32,1.92-4,1.92-1.08,0-1.62-.42-1.62-1.32V22H147.42v1q-.36,1.8-3.24,1.8c-1.2,0-2-.18-2.22-.6,0-3.54.06-7,.24-10.5V6.9a33.75,33.75,0,0,0-.42-5.22Zm-.06,35.64c2.28,1.5,3.48,3.24,3.48,5.28a3.63,3.63,0,0,1-1.14,2.94,3.23,3.23,0,0,1-2,.54c-1,0-1.68-1-2-3.12a19.41,19.41,0,0,0-1.32-4.2,24.12,24.12,0,0,0-1.86-2.46,4.38,4.38,0,0,1,.54-.66A13,13,0,0,1,147.24,39.48Zm14.7-34.14H147.42v6.9h14.52Zm0,8.46H147.42v6.6h14.52Z"/><path d="M230.94,18.3c2.7,2.28,4.08,3.78,4.08,4.38s-.24.84-.6.84H211v9.36h8.1a19,19,0,0,1,3.48-4.2.85.85,0,0,1,.36-.12,8.82,8.82,0,0,1,2.58,1.86,11.73,11.73,0,0,1,2.76,3.12c0,.6-.18,1-.42,1H211v12.6q5.4.54,13,.54c4.32,0,8.22-.12,11.58-.42l.06,1.26a4.81,4.81,0,0,0-2.64,1.56,7.68,7.68,0,0,0-.84,2.16,1.56,1.56,0,0,1-1.68,1.5h-7.62c-10.44-.24-17.88-1.62-22.38-4A15.21,15.21,0,0,1,193,41.22a22.54,22.54,0,0,1-1.08,2.1c-2.16,4.68-5.82,8.58-10.86,11.82a3,3,0,0,0-.72-1,35.39,35.39,0,0,0,9.42-21.72c.06-1.74.12-3.36.12-4.86,5.52.72,8.28,1.32,8.28,1.86s-1,1.2-2.82,1.92a32,32,0,0,1-1.56,7.86c2.28,3.12,4.68,5.1,7.26,5.94a17.73,17.73,0,0,0,4.5,1.32V23.52h-9.78c-7.08,0-11.52.24-13.2.72-.42-1-.9-2-1.44-3.12a120.75,120.75,0,0,0,14.88.6h9v-9.9h-6.36q-7.38,0-9.18.72A29.38,29.38,0,0,0,188,9.42a52.58,52.58,0,0,0,9.78.6H205V6.84a45.87,45.87,0,0,0-.36-6.42c5.64.84,8.52,1.56,8.52,2.22,0,.48-.36.84-1.08,1q-1.8.72-1.8,1.26V10h6.24c1.8-2.28,3.06-3.66,3.9-4.14.18,0,.36.06.54.06a6.68,6.68,0,0,1,1.44,1c2.52,2.16,3.84,3.48,3.84,4.08s-.24.84-.66.84H210.3v9.9h14.28a23.68,23.68,0,0,1,4.2-4.56c.18,0,.36.06.54.06Q230,17.67,230.94,18.3Z"/><path d="M290.34,5.76c1.8,1.86,2.7,3.18,2.7,3.9s-1,.9-2.76.9c-.12,0-.72-.06-1.74-.06a153.23,153.23,0,0,1-16.26,7.74.85.85,0,0,0,.36.12.94.94,0,0,1,.42.78,1.39,1.39,0,0,1-.9,1,6.1,6.1,0,0,0-1.08.6V48.06c-.36,4.26-3.18,6.72-8.4,7.38-.66,0-1.08-.6-1.2-1.74q-.45-1.89-3.6-3.6a15.3,15.3,0,0,0-4.08-1.5,3.94,3.94,0,0,1,.24-1.38,67.53,67.53,0,0,0,8.34.84c1.92,0,2.94-.78,2.94-2.46V26.16a80,80,0,0,0-.36-9.3c1.68.24,3.3.48,5,.84a98.14,98.14,0,0,0,13.38-9.9h-27a91.85,91.85,0,0,0-11.4.72c-.6-1.32-1.08-2.34-1.44-3.18a76.86,76.86,0,0,0,12.84.84H282.9c2.46-1.86,4-2.82,4.5-2.82A10.6,10.6,0,0,1,290.34,5.76Z"/><path d="M341.52,6.06c1.74,1.5,2.64,2.46,2.64,2.88s-.54.84-1.5,1.08a16.24,16.24,0,0,1-2.16.6,50.08,50.08,0,0,1-15,13.2,69.67,69.67,0,0,1-21,8.4,1.59,1.59,0,0,1-.3-.78,89.9,89.9,0,0,0,19.14-11c6.54-5,10.32-8.88,11.4-11.76H321.66a62.15,62.15,0,0,1-5.34,4c4.86.78,7.38,2.46,7.62,5a5.6,5.6,0,0,1-.3,1.92,2.16,2.16,0,0,1-2.16,1.56c-.72,0-1.68-1-2.88-3a18.44,18.44,0,0,0-3.66-4.5,92.53,92.53,0,0,1-10.32,6c-.48-.18-.84-.36-1.2-.48A54.29,54.29,0,0,0,322.26,0c4.74,2.16,7.14,3.6,7.14,4.2s-1.2.72-3.54.72c-.84.84-1.68,1.62-2.46,2.28h11c2-2.1,3.24-3.18,3.66-3.3Q339,3.9,341.52,6.06ZM351.6,25.32c1.56,1.44,2.34,2.46,2.34,2.94,0,.24-.36.54-1,.9a9,9,0,0,0-2.7,1.5c-7,13.32-22,21.18-44.94,23.76a1.74,1.74,0,0,0-.36-1c13.32-3.36,22.68-7.14,28.2-11.46,6.24-4.32,10.26-8.94,12.06-13.74h-12.3A68.69,68.69,0,0,1,326,32.94a4.48,4.48,0,0,1-.72.42c4.26.78,6.48,2.46,6.72,5a6.78,6.78,0,0,1-.3,2.1,2.4,2.4,0,0,1-2.34,1.68c-.6,0-1.38-1-2.34-3.12a16.67,16.67,0,0,0-3.12-4.74,76,76,0,0,1-15.12,6.84c-.12-.12-.3-.36-.6-.72q20.43-10.71,24.72-21c5.52,1.62,8.28,2.82,8.28,3.54q0,.72-3.78,1.26-1.35,1.35-2.7,2.52h10c1.8-2.34,3.06-3.54,3.66-3.54S350,23.88,351.6,25.32Z"/><path d="M374.46,15c1.26,1.2,1.92,2,1.92,2.46s-.6.9-1.8,1.38a2.84,2.84,0,0,0-1.14.54l-5.22,11h2.28c1.38-1.62,2.22-2.46,2.52-2.46a6.08,6.08,0,0,1,2.64,1.32c1.44,1,2.22,1.68,2.22,2s-.42.72-1.14,1.08-1.08.6-1.2,1A42.05,42.05,0,0,1,372,43.5a18.94,18.94,0,0,0,6.9,3.18c3,1.14,8.76,1.68,17.28,1.68Q410,48,415.26,46.74c0,.66,0,1.08.12,1.2a7.16,7.16,0,0,0-1.8,1.08,3.48,3.48,0,0,0-1.14,2.22,1.87,1.87,0,0,1-2.1,2.1c-8.76,0-14-.18-15.6-.48-8.52,0-14.64-1.14-18.36-3.3A16.49,16.49,0,0,1,371.16,45a25.47,25.47,0,0,1-2.4,3.36,23.25,23.25,0,0,1-8.16,6.9.8.8,0,0,1-.42-.48,38.43,38.43,0,0,0,6.84-9.9,41.43,41.43,0,0,0,3.84-13.08H367.5q-.54,1.17-.9,1.8c-.24.66-.9,1-2,1-1.86-.12-2.76-.6-2.76-1.38,2.76-5.64,5.22-10.92,7.32-15.84h-5.88a20.11,20.11,0,0,0-2.16.36c-.36-.84-.66-1.56-.9-2.22a14,14,0,0,0,2.76.3h5.88c1.8-1.68,2.88-2.52,3.12-2.52C372.54,13.26,373.38,13.86,374.46,15ZM369.12,3.12c2.34,1.62,3.54,3.48,3.54,5.64a3.46,3.46,0,0,1-1.14,2.94,2.9,2.9,0,0,1-2,.6q-1.62,0-2.16-3.42a25.72,25.72,0,0,0-1.44-4.44A15.6,15.6,0,0,0,364.08,2c.12-.18.36-.42.6-.72A12.55,12.55,0,0,1,369.12,3.12ZM385.5,19.5h17c1.44-1.68,2.4-2.52,3-2.52s1.44.54,2.94,1.62c1.32,1.08,2,1.8,2,2.28s-.3.66-.84,1a5.81,5.81,0,0,0-1.56,1.26V26a20.35,20.35,0,0,1,.3,2.1c0,1.26-1,1.92-2.88,1.92-1.44,0-2.22-.3-2.28-1v-.36H398.1a6.38,6.38,0,0,1-.66,1.14v3.36a44.28,44.28,0,0,1,6.12,1.62,20.39,20.39,0,0,0,4.74-5.1c3,2.22,4.56,3.48,4.56,3.72a.58.58,0,0,1-.66.66c-1-.12-1.68-.24-2.1-.24a25,25,0,0,1-4.56,1.74c3.72,1.68,5.64,3.78,5.88,6.18a3.53,3.53,0,0,1-.24,1.44c-.24.72-.84,1-1.74,1-1.32,0-3.06-1.56-5.28-4.68a28.38,28.38,0,0,0-6.72-5.16v6c.12,1.32.18,3.12.18,5.34,0,.84-1,1.32-3,1.38-1.56,0-2.4-.18-2.4-.54.06-.84.12-3,.12-6.48v-3.9c-3.54,3.18-8.52,5.82-14.88,7.92-.24,0-.48-.3-.66-.9,7-4,11.64-8.28,13.8-12.9.36-.66.66-1.2.84-1.62h-4.68V30c-.3,1.2-1.38,1.8-3.3,1.8-1.2,0-1.92-.18-2.16-.6,0-2.1.06-4.14.18-6.18V20.88a12,12,0,0,0-.42-3.06Zm24.9-8.1c2.28,2,3.48,3.24,3.48,3.78s-.24.84-.66.84H387.78c-4.68,0-7.56.24-8.7.72-.42-1-.9-2-1.44-3.12a47.82,47.82,0,0,0,9.36.6h5.22V8.88h-3.66c-3.84,0-6.18.24-7.14.72A29.38,29.38,0,0,0,380,6.48a29.32,29.32,0,0,0,7.26.6h5V6.54a45.87,45.87,0,0,0-.36-6.42c5.64.84,8.52,1.56,8.52,2.22s-.36.84-1.08,1q-1.8.72-1.8,1.26V7.08h3.66a18.35,18.35,0,0,1,3.6-3.78c.12,0,.3.06.48.06.36.24.84.54,1.32.9C408.84,6.24,410,7.5,410,8s-.24.84-.6.84H397.5v5.34h7.44a18.35,18.35,0,0,1,3.6-3.78c.12,0,.3.06.48.06A13.33,13.33,0,0,1,410.4,11.4Zm-7.14,15.66V21h-16.5v6.06Z"/><path d="M490,21.72c2.94,2.46,4.44,4,4.44,4.74s-.24.84-.66.84H455.7c-7,0-11.34.24-13,.66a22.92,22.92,0,0,0-1.38-3.06,128.55,128.55,0,0,0,14.34.54h27.54a23.78,23.78,0,0,1,4.56-4.92c.12,0,.3.06.54.06A12.24,12.24,0,0,1,490,21.72Z"/><path d="M507.48,5.1h8.7q2.34-3,3.24-3.06a10.7,10.7,0,0,1,3.18,1.8c1.44,1.08,2.22,1.92,2.22,2.4s-.3.72-.78,1.08a6.87,6.87,0,0,0-1.38,1.38v6.78c.24,2.64.36,4.38.36,5.16,0,1.32-1.08,2-3.12,2-1.56,0-2.4-.36-2.46-1.14v-.06h-1.26v8.94H518c1.32-2.16,2.22-3.36,2.7-3.48.24,0,1,.78,2.34,2.22,1,1.2,1.56,1.86,1.56,2.1a.87.87,0,0,1-.06.36,49.35,49.35,0,0,0,7.74-6.6c.84-.84,1.68-1.74,2.46-2.64a34.33,34.33,0,0,1-4.62-7.8,25.82,25.82,0,0,1-5.34,5.7c-.36-.24-.72-.42-1-.6,3.24-5,5.52-11.46,6.84-19.32q7.74,2.52,7.74,3.06c0,.72-1,1.2-3.06,1.38-.42,1.08-.84,2-1.26,3h8.16q2.88-2.7,3.6-2.7A8.62,8.62,0,0,1,548.88,7c1.86,1.62,2.82,2.7,2.82,3.18s-1.08,1-3.18,1.38A53.08,53.08,0,0,1,540.06,23a8.5,8.5,0,0,0,1.38.84,26,26,0,0,0,13.44,4,6.75,6.75,0,0,1-.12,1.2,4.33,4.33,0,0,0-1.56,1,12.21,12.21,0,0,0-1.2,2.4c-.24.84-.66,1.2-1.26,1.2-2.22,0-5.88-2-11-6.24a18.44,18.44,0,0,1-2.28-2c-1,.78-1.86,1.5-2.76,2.1a49.71,49.71,0,0,1-15,8.64c-.3-.54-.48-.84-.48-.84,1.74-1.14,3.3-2.22,4.74-3.24h-7.8V45.3a65.55,65.55,0,0,0,7.86-2,1.6,1.6,0,0,0,.18.72c-4.32,3.6-10.68,6.36-19.2,8.28-.18,2-.54,3.06-1.14,3.06-.36,0-1.14-1.44-2.34-4.2a19.1,19.1,0,0,1-1.32-4,19.45,19.45,0,0,0,2.7-.12V32.76c0-2.28-.12-4.14-.24-5.52,4.8.72,7.26,1.32,7.26,1.86s-.3.72-.9.84c-1,.48-1.56.84-1.56,1.08V46.68a36.08,36.08,0,0,0,3.78-.48V21.48h-2.7v.18c-.24,1.2-1.38,1.8-3.3,1.8-1.2,0-1.92-.18-2.16-.6,0-3.12.06-6.12.18-9.06V7.86a16.49,16.49,0,0,0-.42-4.5Zm10,14.82V6.6h-8.88V19.92ZM530.52,36h12.12q2.34-2.79,3.24-2.88a10,10,0,0,1,3.24,1.8c1.44,1.14,2.16,1.92,2.16,2.4a1.65,1.65,0,0,1-.78,1.14,7.27,7.27,0,0,0-1.38,1.32v7.68c.18,2.94.3,4.86.3,5.76,0,1.32-1.08,2-3.12,2-1.56,0-2.4-.42-2.4-1.14V51.18H531.72V53.4c-.3,1.2-1.38,1.8-3.3,1.8-1.2,0-1.92-.24-2.16-.6,0-3.24.06-6.36.18-9.42V38.94a25.75,25.75,0,0,0-.42-4.68Zm6.06-15.84a37.39,37.39,0,0,0,5.94-11H533.4a42.49,42.49,0,0,1-2.34,4.14A35.2,35.2,0,0,0,536.58,20.16Zm7.32,29.46V37.56H531.72V49.62Z"/><path d="M589.32,1.38c2.64,2.28,4.08,3.78,4.44,4.5,0,.54-.18.78-.48.78H580a40.43,40.43,0,0,1-8.4,12.48c6.48-.06,11.58-.18,15.36-.42a24.83,24.83,0,0,0-4.56-5.52,2,2,0,0,1,.36-.72c6.9,2.34,10.44,5.1,10.62,8.34a5.1,5.1,0,0,1-.78,3.18,2.44,2.44,0,0,1-1.8.72c-.84,0-1.74-1.2-2.58-3.72-.12-.24-.3-.54-.42-.78a77.31,77.31,0,0,1-7.92,1.92V32.82h4.38c1-1.32,2-2.58,2.94-3.66.3-.3.54-.48.72-.48a3.09,3.09,0,0,1,1.26.66c2.46,2.16,3.84,3.54,4.14,4.26,0,.54-.18.78-.48.78h-13V45.54a80.8,80.8,0,0,0,13.68-2.1c.24.42.42.78.6,1.14-5.4,2.58-14.64,5.16-27.66,7.8-.36,2-.78,3-1.26,3s-1-1-1.56-2.76-1.38-4-2.1-6.66a39.1,39.1,0,0,0,6.3.36l6.6-.36V34.38h-4.38a27.13,27.13,0,0,0-5.7.48c-.24-.72-.48-1.5-.84-2.4a40,40,0,0,0,6.54.36h4.38V23.16c-2.58.48-5.34,1-8.34,1.38-.36,1.74-.72,2.58-1.14,2.58s-.84-.78-1.38-2.4a53.27,53.27,0,0,1-1.8-5.82,31.76,31.76,0,0,0,5.52.3h2.1a46.45,46.45,0,0,0,4-12.54h-5.28a27.13,27.13,0,0,0-5.7.48c-.24-.72-.48-1.5-.84-2.4a38.21,38.21,0,0,0,6.54.42h16a31.4,31.4,0,0,1,3.12-4c.36-.36.6-.54.78-.54A2.86,2.86,0,0,1,589.32,1.38ZM601,7.32c1.56.3,2.34.72,2.34,1.2s-.36.66-1,.78c-1.08.36-1.62.66-1.62.84V29c.12,6.3.18,10.74.3,13.32q0,1.44-3.78,1.44c-1.26,0-1.86-.36-1.86-1.14q.09-3.24.18-13.86V11.82c-.12-1.8-.24-3.6-.48-5.34C596.94,6.72,598.92,7,601,7.32Zm13.68-4.5a.55.55,0,0,1-.48.6,16.7,16.7,0,0,0-1.56.72c-.6.3-.9.54-.9.78V47.34c0,5-2.1,7.56-6.24,7.56-.84,0-1.26-.36-1.26-1a5,5,0,0,0-2.4-3,10.35,10.35,0,0,0-4.2-1.44,3.76,3.76,0,0,0,.12-1c1.2.12,3.72.12,7.56.12.66,0,1-.54,1-1.62V8.1a47.43,47.43,0,0,0-.48-7.74C611.28,1.32,614.22,2.1,614.7,2.82Z"/><path d="M622.5,28.2c-.48,0-.72-.24-.72-.78C633.42,19.2,641.1,10.08,644.7.12c5.88,1.32,8.88,2.4,8.88,3.24,0,.6-.9,1.08-2.7,1.5,1.92,3.48,5.34,6.72,10.26,9.6a41.12,41.12,0,0,0,14,5.7,1.87,1.87,0,0,1-.18,1.08,4.7,4.7,0,0,0-2.52,2.22,23.09,23.09,0,0,1-.78,2.22c-.18.66-.42,1-.78,1-2.76,0-7.26-3.24-13.62-9.72a49.34,49.34,0,0,1-7.68-11.28C644.16,14.52,635.1,22.08,622.5,28.2Zm44,2.76c1.5,1.56,2.28,2.52,2.28,2.88,0,.6-1.38,1.2-4,1.86-1.08,3.06-4.08,9.36-9.06,18.9a4,4,0,0,1-2.82.72q-3.6,0-3.6-1.8c3.36-6.24,6.72-12.9,10.2-19.92h-22.2c-4.38.06-7.38.18-8.94.3-.24-.54-.54-1.44-1-2.64a48.81,48.81,0,0,0,9.12.72H659.1c1.86-2.22,3.18-3.42,4-3.66C663.54,28.32,664.68,29.22,666.48,31Zm-14.16-6.72a5.47,5.47,0,0,1-1,3.66,2.68,2.68,0,0,1-2.1.84c-.66,0-1.38-1.08-2.1-3.3a21.74,21.74,0,0,0-4.74-7,2.27,2.27,0,0,1,.36-.78C648.9,19.56,652.08,21.72,652.32,24.24Z"/><path d="M697.38,7.44c-5.7,0-9.24.24-10.62.66q-.63-1.53-1.44-3.06a86.12,86.12,0,0,0,11.7.54h22.44a22.43,22.43,0,0,1,3.9-4.14c.18,0,.36.06.54.06a10,10,0,0,1,1.44,1c2.52,2.16,3.84,3.54,3.84,4.14s-.24.84-.66.84h-19c-.06,1.8-.12,4.14-.18,7.08a62.33,62.33,0,0,1-.78,9.84h15a25.83,25.83,0,0,1,4.2-4.56c.18,0,.36.06.6.06.48.3,1,.66,1.56,1.08,2.76,2.28,4.14,3.78,4.14,4.38s-.24.84-.66.84H711q3.69,13.05,17.1,19a29.74,29.74,0,0,0,6.9,2.4,2.48,2.48,0,0,1-.3,1.14,4.9,4.9,0,0,0-1.8.66,5.82,5.82,0,0,0-1.62,2.46c-.54,1-1,1.56-1.5,1.56A8.21,8.21,0,0,1,726.66,52c-9.24-4.8-15-13.44-17.16-25.8h-1.32c-2.88,14.94-11.88,24.36-27,28.38a5,5,0,0,0-.36-1.08q17.73-7.92,21.3-27.3h-6.3c-6.84,0-11.16.24-12.84.72a27.65,27.65,0,0,0-1.38-3.12,111.86,111.86,0,0,0,14.34.6h6.48a57.73,57.73,0,0,0,.66-8.76c.06-1.68.12-4.38.24-8.16Z"/></g></g></svg>