<svg xmlns="http://www.w3.org/2000/svg" viewBox="0 0 615.24 55.56"><g id="图层_2" data-name="图层 2"><g id="图层_1-2" data-name="图层 1"><path d="M50.46,6.24c2.7,2.28,4.08,3.78,4.08,4.38s-.24.84-.6.84H22.56A57.07,57.07,0,0,1,17.1,19.8l1.92,1H39.48a10.13,10.13,0,0,1,3-2.94,8.74,8.74,0,0,1,3.12,1.5c1.68,1.2,2.58,2,2.58,2.58s-.42.84-1.14,1.26a3.91,3.91,0,0,0-1.44,1.26V47.94c0,3.9-2,6.3-5.82,7.26-.6,0-1-.42-1.14-1.26a6.34,6.34,0,0,0-3.18-3.54,24.89,24.89,0,0,0-4.38-1.56,2.64,2.64,0,0,0,.12-1.08,50.85,50.85,0,0,0,7.62.42,1.26,1.26,0,0,0,1.44-1.38V40.5H18.9c0,4.08.12,8.46.3,13.08q-.54,1.62-4.14,1.62c-1.2,0-1.8-.36-1.8-1,.06-5.64.12-11.82.12-18.54V24.24A76.06,76.06,0,0,1,.66,35.34c-.48,0-.66-.24-.66-.78a76.29,76.29,0,0,0,16.74-23.1h-1.8c-7.08,0-11.52.24-13.26.72A29.38,29.38,0,0,0,.24,9.06a124.23,124.23,0,0,0,15.06.6h2.28A74.75,74.75,0,0,0,20.76.3c5.52,1.2,8.34,2.22,8.34,3.06,0,.6-1.14,1.08-3.42,1.5C25,6.54,24.24,8.1,23.52,9.66H44.1A23.68,23.68,0,0,1,48.3,5.1c.18,0,.36.06.54.06Q49.56,5.61,50.46,6.24ZM40.26,29.58V22.44H18.9v7.14Zm0,9.36v-7.8H18.9v7.8Z"/><path d="M61,54.54a1.75,1.75,0,0,0-.78-.66q10-6.39,17.1-19.14c4-6.12,6.18-15.84,6.54-29.16L83.58,3a3.34,3.34,0,0,0-.66-1.56c7.26,1,10.92,1.92,10.92,2.82q0,.9-1.8,1.26A3.28,3.28,0,0,0,90.48,6.9L90.42,8c-.12,1.32-.24,2.52-.36,3.66A46.81,46.81,0,0,0,99.9,35.94c4.32,5.7,9,9.54,14.16,11.52a2.77,2.77,0,0,1-.3,1.38c-1.08.12-1.62.24-1.68.48a4.45,4.45,0,0,0-2.22,1.86c-.72,1.56-1.44,2.34-2.1,2.4-1.68,0-4.8-3.3-9.36-9.78q-7.29-10.44-9.18-26.28C85.86,36.12,76.44,48.42,61,54.54Z"/><path d="M131.64,22.86a69.53,69.53,0,0,0,5-9.6h-.42c-6.84,0-11,.24-12.72.72-.42-1-.9-2-1.44-3.12a107.15,107.15,0,0,0,14,.6h1.38A96.31,96.31,0,0,0,141.24.36c5.88,1.86,8.88,3,8.88,3.48,0,.9-1.2,1.44-3.48,1.62-1,2.16-2,4.14-2.94,6h19.14a23.78,23.78,0,0,1,4.56-4.92c.12,0,.3.06.54.06a12.24,12.24,0,0,1,1.74,1.14c2.94,2.46,4.44,4,4.44,4.74,0,.54-.24.78-.66.78H142.68a80.21,80.21,0,0,1-6.84,10.56,3.7,3.7,0,0,1,1.2.78c0,.54-.42.9-1.14,1.14q-1.62.81-1.62,1.08V53.88c0,1-1.14,1.56-3.3,1.68-1.32,0-2-.36-2-1,.12-7,.18-14.64.18-23.16a55,55,0,0,1-7.86,6.42c-.42-.24-.84-.48-1.2-.66a71.57,71.57,0,0,0,9.06-10.5V26a26.39,26.39,0,0,1-.3-3.48C129.9,22.62,130.8,22.74,131.64,22.86Zm26.82-4.14c0,.54-.36.9-1,1q-1.8.72-1.8,1.26v9.42h4.26c1.14-1.56,2.28-3,3.36-4.2.36-.36.6-.54.84-.54a3.69,3.69,0,0,1,1.38.78c2.76,2.4,4.32,4,4.68,4.74,0,.54-.18.78-.48.78h-14V50.34h7.14c2.28-3.36,3.78-5,4.5-5.1.54,0,1.62.9,3.3,2.64a12,12,0,0,1,2.76,3.3c0,.6-.24.9-.72,1h-25.8c-5.82.12-8.76.3-8.76.54a25.34,25.34,0,0,1-1.14-3.12,65.85,65.85,0,0,0,9.24.78h4.2V32H145a27.13,27.13,0,0,0-5.7.48c-.24-.72-.48-1.5-.84-2.4a40,40,0,0,0,6.54.36h5.34v-7.5a44.92,44.92,0,0,0-.36-6.36Q158.46,17.82,158.46,18.72Z"/><path d="M231.84,26.64a.89.89,0,0,1-.72.72,6.72,6.72,0,0,1-2.58.36,30.94,30.94,0,0,1-7.2,11.82c2,4.5,4.38,7.26,7.08,8.22,1,0,2.4-2.52,4.38-7.62.6.06.9.12.9.24a20.29,20.29,0,0,0-1.74,7.8A4,4,0,0,0,233,50.52a4.88,4.88,0,0,1,1.32,2.64c0,1.08-.84,1.62-2.4,1.74-2.64,0-5.52-1.14-8.7-3.36a29.14,29.14,0,0,1-6-8.4,51.32,51.32,0,0,1-15.84,7.74,8.22,8.22,0,0,0-.48-.84,50,50,0,0,0,14.64-10.68A63,63,0,0,1,211.8,20.1H199.62v9.24c3.12-.9,6.3-1.92,9.54-3.12l.48,1a77.39,77.39,0,0,1-10,5.94V49.44c-.12,3.3-2.4,5.16-6.84,5.64A1,1,0,0,1,191.7,54a9.62,9.62,0,0,0-.9-2.1q-.36-1.35-5.76-2.34v-1c2.28.18,4.68.24,7.14.24,1.08,0,1.68-.18,1.74-.6V35.76c-2.28,1-4.62,1.92-7.08,2.76a5.79,5.79,0,0,0-.66,2.7c-.12.66-.36,1-.84,1s-1.62-1.56-3.06-4.8a36.09,36.09,0,0,0-1.74-4.08,100.15,100.15,0,0,0,13.38-2.46V20.1c-6.48.06-10.5.3-12.12.66-.42-1-.9-2-1.44-3.12a113.11,113.11,0,0,0,13.56.6V9.54a87.25,87.25,0,0,1-11.52,1.32,8.18,8.18,0,0,0-.24-1c9.36-1.92,16.38-4.8,21-8.64,3.72,2.64,5.64,4.2,5.64,4.62s-.36.6-1,.6c-1.44-.18-2.64-.3-3.48-.42a23.49,23.49,0,0,1-4.68,2v10.2h12.06c-.48-8.16-.84-13.74-1.2-16.74,5.7.6,8.58,1.14,8.7,1.68,0,.36-.24.6-.72.78q-1.17.63-2.16,1.08c0,4.92.12,9.36.36,13.2h7a22.43,22.43,0,0,1,3.9-4.14c.18,0,.36.06.54.06a10,10,0,0,1,1.44,1c2.52,2.16,3.84,3.54,3.84,4.14s-.24.84-.66.84h-16c.18,2.88.42,5.46.78,7.68a65.71,65.71,0,0,0,1.8,6.66A33,33,0,0,0,224,22.74C229.2,24.78,231.84,26.1,231.84,26.64Zm-2-17.46a8.62,8.62,0,0,1-.24,2A2.39,2.39,0,0,1,227.22,13c-.66,0-1.56-1.08-2.76-3.24a17.37,17.37,0,0,0-4.08-5.22,1.57,1.57,0,0,0,.42-.78C226.56,4.38,229.56,6.18,229.8,9.18Z"/><path d="M273.42,3.24c0,.42-.54.66-1.5.78a8.94,8.94,0,0,0-1.86.36,20.15,20.15,0,0,1-4.14,4.32h10.92a11.94,11.94,0,0,1,3-3.3A8.74,8.74,0,0,1,283,6.9c1.74,1.2,2.64,2,2.64,2.58s-.42.84-1.2,1.26A5.41,5.41,0,0,0,283,12V26.34a38.26,38.26,0,0,0,4.68-8.16c4.8,2.76,7.2,4.44,7.2,4.92s-.3.78-.72.78c-.6,0-1.5-.06-2.76-.18a59.48,59.48,0,0,1-8.4,10V47.94c0,3.9-2.34,6.3-7,7.26-.54,0-.9-.42-1.14-1.26a6.13,6.13,0,0,0-3.06-3.54,23.22,23.22,0,0,0-4.32-1.56,2.64,2.64,0,0,0,.12-1.08,65.52,65.52,0,0,0,8.58.42,1.26,1.26,0,0,0,1.44-1.38V38.22C268,45.42,255.72,50,241,52a1.85,1.85,0,0,0-.18-.78Q264.63,44.4,277,32.94q-10.8,4.05-29.52,6.3-.18,3.06-1.08,3.06c-.36,0-1.14-1.38-2.34-4.2a19.1,19.1,0,0,1-1.32-4c3.12,0,6.24-.12,9.24-.24V11.28c-.06-1.2-.18-3-.42-5.28q3.15,1.53,5.76,2.7h6.84a65.56,65.56,0,0,0,1-8C270.66,1.8,273.42,2.64,273.42,3.24Zm4.2,7H257.34V16h20.28Zm0,7.38H257.34v6.42h20.28Zm0,13.68v-5.7H257.34v7.92C264.42,33.06,271.2,32.34,277.62,31.32Z"/><path d="M324.48,5h4.8A12.83,12.83,0,0,0,331,.36c4.38.84,6.6,1.56,6.6,2s-.42.54-1.2.6a4.87,4.87,0,0,0-1.5.3A18.69,18.69,0,0,1,331.14,5h10.38c1.44-1.5,2.4-2.28,3-2.34a9.89,9.89,0,0,1,3,1.68c1.32,1,2,1.74,2,2.22s-.3.72-.9,1a9.22,9.22,0,0,0-1.56,1.26v5.7q.36,3.42.36,4.32c0,1.2-1,1.86-2.94,1.86-1.44,0-2.22-.3-2.28-1v-.36h-8a2.54,2.54,0,0,1,2.16,2.52,2,2,0,0,1-.18.9h10a9,9,0,0,1,3-2.22,10.23,10.23,0,0,1,2.58,1.86c1.44,1.32,2.16,2.22,2.16,2.58s-.48.72-1.44.72c-.6.12-1.08.18-1.38.24a61.65,61.65,0,0,1-7.38,1.26,2.09,2.09,0,0,1-.66-.42,11.46,11.46,0,0,0,3.54-2.46H340.5v2.88c0,1,.66,1.44,2.1,1.44s2.7-.06,4.14-.06a2,2,0,0,0,1.68-.84,1.69,1.69,0,0,1,1-.6c.12,0,.24.06.36.06,1.56,1.14,2.4,2,2.52,2.76a1.32,1.32,0,0,1-1,1.26,5.85,5.85,0,0,1-2.1.42c.12.12.18.18.24.18,1.86,1.68,2.82,2.7,2.82,3.18s-.24.78-.6.78H330.42c-.18,1.2-.36,2.1-.54,2.82H341c1.32-1.26,2.28-1.92,2.88-1.92A6.29,6.29,0,0,1,346.14,38c1.44,1.14,2.22,1.92,2.22,2.28s-.24.66-.72.84L346,42.18c-.24,2.4-.78,4-1.68,4.68a7.5,7.5,0,0,1-4.62,1.68,1.17,1.17,0,0,1-1.32-1c-.18-.78-1-1.56-2.4-2.28A18,18,0,0,0,332.76,44a5.35,5.35,0,0,1,.12-.66c2,.18,4.14.3,6.36.36,1,0,1.62-.12,1.74-.42a7.52,7.52,0,0,0,.66-3.18H329.22q-2.88,6.3-12.6,8.1a7.86,7.86,0,0,0,1.62.36c3.06.84,8.88,1.26,17.4,1.26,9.36-.3,15.78-.78,19.26-1.56,0,.6,0,1,.12,1.14a4.52,4.52,0,0,0-1.68,1,3.4,3.4,0,0,0-1.08,2.1,1.73,1.73,0,0,1-2,1.92q-13.32,0-15.84-.36c-8.64,0-14.88-.9-18.66-2.7a17.64,17.64,0,0,1-6.12-4.5c-.42.6-.78,1.08-1.14,1.5A21.65,21.65,0,0,1,301,55a.8.8,0,0,1-.42-.48,38.34,38.34,0,0,0,6.12-9.78,45.56,45.56,0,0,0,3.42-13H308a18.3,18.3,0,0,0-.66,1.74c-.24.66-.9,1-2.1,1-2-.12-3-.6-3-1.44,2-5.46,3.84-10.62,5.4-15.42h-4.2c-.66.06-1.38.18-2.16.3-.36-.78-.66-1.5-1-2.16a14.48,14.48,0,0,0,2.82.3h4.2a15.83,15.83,0,0,1,3.3-2.46c.6,0,1.5.66,2.7,1.86s2,2.16,2,2.64-.66.9-1.92,1.44q-.9.36-1.26.54c-1.56,4.5-2.82,7.92-3.66,10.26h1.26a7.36,7.36,0,0,1,2.58-1.62,5.92,5.92,0,0,1,2.58,1.26c1.44,1,2.22,1.74,2.22,2.1s-.42.72-1.14,1.08-1.08.6-1.2,1a38.39,38.39,0,0,1-4.38,11.64,15.35,15.35,0,0,0,5.7,2.4c-.12-.18-.3-.36-.42-.54,4.44-1.62,7.38-4.32,8.82-8.16a13.63,13.63,0,0,0,.72-3.66c-4,.06-6.42.3-7.44.72a27.65,27.65,0,0,0-1.38-3.12,52.26,52.26,0,0,0,9.72.6h6.18a6.23,6.23,0,0,1-1.56-2.16,15.06,15.06,0,0,0-2.34-3.18c-2.52,2.16-6.06,3.36-10.74,3.6a1,1,0,0,1-.18-.36c5-1.74,8-4.26,8.88-7.56h-6.6v.06c0,3.12-1.14,4.62-3.42,4.62-1.74,0-2.64-.54-2.7-1.68A2.67,2.67,0,0,1,315.12,25a6.13,6.13,0,0,0,3.54-4.62h.9q.09.9.18,2.34H333.3q-.18-.09-.18-.18a8.49,8.49,0,0,0-3.42-2.82,1.11,1.11,0,0,0,.12-.42h-5c-.24,1.14-1.26,1.68-3.06,1.68-1.14,0-1.8-.18-2-.54,0-2.76.06-5.4.24-8V7.08a18.85,18.85,0,0,0-.42-4ZM308.34,3.36c2.58,1.56,3.9,3.36,3.9,5.4a3.29,3.29,0,0,1-1,2.52,2.42,2.42,0,0,1-1.74.48c-1.44,0-2.4-1-2.88-3.18a17,17,0,0,0-1.92-4.26,9.43,9.43,0,0,0-1.62-2.1c.12-.12.3-.36.54-.6A13.27,13.27,0,0,1,308.34,3.36Zm33.9,5.76V6.48h-17.4V9.12Zm0,4.2V10.68h-17.4v2.64Zm0,4.44V14.94h-17.4v2.82Zm-7.56,13.62a4.89,4.89,0,0,1-.24,1.5,1.69,1.69,0,0,1-.9,1.08h11.34a27.32,27.32,0,0,1,2.1-2.22c-.72.06-1.5.06-2.34.06a23.24,23.24,0,0,1-5.76-.42c-1.74-.24-2.58-1.32-2.58-3.24V24.3h-4.86a11,11,0,0,1-2,3.3Q334.5,28.59,334.68,31.38Z"/><path d="M381.12,36.24a10.44,10.44,0,0,0-1.08-.66A42.47,42.47,0,0,0,393.9,14.94c5.52,1.8,8.34,2.88,8.34,3.3,0,.84-1.14,1.32-3.3,1.56a51,51,0,0,1-5.58,7.32V48.48c.12,1.32.24,3.06.24,5.28,0,.84-1,1.32-3,1.44-1.56,0-2.4-.18-2.4-.54,0-1,.06-3.12.06-6.48V31.8A40.37,40.37,0,0,1,381.12,36.24Zm19.56-32.1c0,.84-1.08,1.32-3.24,1.5A37.53,37.53,0,0,1,381.9,19.26a11.15,11.15,0,0,0-1.14-.66A36.78,36.78,0,0,0,392.4.84C397.92,2.64,400.68,3.72,400.68,4.14Zm7.08,11c-4.56,0-7.44.24-8.52.66-.42-1-.9-2-1.44-3.12a43,43,0,0,0,8.88.6H423.6a22.43,22.43,0,0,1,3.9-4.14c.18,0,.36.06.54.06a10,10,0,0,1,1.44,1c2.52,2.16,3.84,3.54,3.84,4.14s-.24.84-.66.84H417.18v15.3H421a22.09,22.09,0,0,1,4-4.14c.12,0,.3.06.48.06a15.36,15.36,0,0,1,1.5,1q3.78,3.24,3.78,4.14c0,.6-.24.84-.66.84H417.18V50.46h7c1.92-2.46,3.3-4,4.2-4.5.18,0,.36.06.54.06a13.76,13.76,0,0,1,1.62,1c2.7,2.28,4.08,3.72,4.08,4.44,0,.54-.24.84-.6.84H407.1c-4.92,0-8,.18-9.18.66-.42-1.08-.9-2.1-1.38-3.06a55.72,55.72,0,0,0,9.42.54h5.82V32.28h-3.42c-4,0-6.48.24-7.44.66-.42-1-.9-2-1.38-3.06a33.89,33.89,0,0,0,7.32.54h4.92V15.12Zm9.78-6.3a3.44,3.44,0,0,1-1.2,3,3.26,3.26,0,0,1-2,.72c-1.38,0-2.34-1.26-2.88-3.84A14.37,14.37,0,0,0,407.52,2a4,4,0,0,1,.72-.72C414.42,3.9,417.54,6.42,417.54,8.82Z"/><path d="M489.48,6.36c2.76,2.34,4.14,3.84,4.14,4.44s-.24.84-.66.84H469.74V25.2A30.38,30.38,0,0,0,479.82,36c5.34,3.78,10.14,6.06,14.34,6.9A3.15,3.15,0,0,1,494,44a4.61,4.61,0,0,0-2.4,2c-.24.78-.42,1.5-.66,2.1s-.42.9-.72.9c-2.88,0-7.56-3.66-14.16-11.1a56.66,56.66,0,0,1-6.36-9.6V39.48c.12,6.84.18,11.58.3,14.34,0,1-1.38,1.56-4.08,1.56-1.38,0-2-.42-2-1.2.12-2.4.18-7.32.24-14.88V34.56Q453,46.08,440.7,50.76c-.18-.24-.36-.48-.6-.78q14.58-8.55,24.06-24.9V11.64h-8.94c-6.9,0-11.22.24-12.9.72a20.57,20.57,0,0,0-1.38-3.12,114.09,114.09,0,0,0,14.46.6h8.76V6.48Q464,3.6,463.62.72c2,.3,4.14.6,6.42,1,1.62.3,2.46.72,2.46,1.26s-.36.66-1.08.78c-1.14.42-1.68.72-1.68,1V9.84h13.38a25.83,25.83,0,0,1,4.2-4.56c.18,0,.36.06.6.06A13.55,13.55,0,0,1,489.48,6.36ZM458.7,17.46c0,.78-1,1.26-3,1.44-.48,1.2-1,2.22-1.44,3.18a17.79,17.79,0,0,1,2.58,1c2.4,1.26,3.66,2.76,3.66,4.44a3.63,3.63,0,0,1-1.14,2.94,3.23,3.23,0,0,1-2,.54c-1.14,0-1.92-.84-2.28-2.64a15.93,15.93,0,0,0-1.5-3.54c-.12-.24-.3-.42-.42-.66A37.9,37.9,0,0,1,442.74,37a6.37,6.37,0,0,0-1-.6c4.44-5.76,7.5-13.08,9.3-22C456.12,16.08,458.7,17.1,458.7,17.46Zm28.68-.12q0,1.17-3.06,1.44A27.11,27.11,0,0,1,482.64,22c5.4,1.92,8.22,4.14,8.4,6.54q0,2.52-.9,3.42a2.37,2.37,0,0,1-1.92.78c-.78,0-1.62-1.14-2.46-3.42a22.38,22.38,0,0,0-4.08-5.76,23.78,23.78,0,0,1-6.6,7c-.36-.24-.72-.42-1-.6a41.43,41.43,0,0,0,5.58-15.66Q487.38,16.8,487.38,17.34Z"/><path d="M541.62,19.68a46.11,46.11,0,0,1-6.3-.24c-3.06,0-4.74-1.08-5.1-3.3V13.38c-.06-1.38-.18-2.82-.3-4.38,2.16.36,3.9.72,5.22,1s2.1.6,2.22.84a1.15,1.15,0,0,1-1,.9,12.9,12.9,0,0,0-1.44.66v2.52c.12.9.9,1.38,2.34,1.38h5.52a7.84,7.84,0,0,0,3.48-.54,3.55,3.55,0,0,0,2.1-1.32l.36-.18a3.66,3.66,0,0,1,2.1,1.14A3.9,3.9,0,0,1,552.12,17v.48c-.36,1.14-2.64,1.8-6.9,2a1.59,1.59,0,0,0,.36.3c2.34,2,3.54,3.24,3.54,3.78s-.24.84-.66.84h-10v9.06h5.58a18.67,18.67,0,0,1,3.48-4.2.85.85,0,0,1,.36-.12,10.23,10.23,0,0,1,2.58,1.86c1.68,1.56,2.58,2.58,2.76,3.18,0,.6-.18.9-.42,1H538.5V49.08c-.06,3.6-2.34,5.7-6.78,6.18a1.06,1.06,0,0,1-1.14-1.2,7.89,7.89,0,0,0-.9-2.34c-.24-1-2.22-1.8-5.94-2.58V48.06c2.58.24,5.22.3,8,.3,1,0,1.56-.18,1.62-.66V35.22h-1.2A10.49,10.49,0,0,1,529.5,38q-9.72,9-28.44,14.82a8.66,8.66,0,0,1-.72-1q16.56-7.38,23.4-15.3l1.08-1.26h-12.3c-.6,1.5-1.26,2.28-1.86,2.28a11.91,11.91,0,0,1-2.88.24c-1.44,0-2.1-.24-2.1-.78,2.52-5.28,3.78-9,3.78-11.28,5.16,1,7.74,1.8,7.86,2.28a.83.83,0,0,1-.72.84,12,12,0,0,0-2,.42c0,.24-.54,1.68-1.5,4.32h20.28V24.48H516.18c-5.88,0-9.6.24-11,.66a22.92,22.92,0,0,0-1.38-3.06,85,85,0,0,0,12.48.6h23.94a31.54,31.54,0,0,1,2.64-3Zm-33-16c.06.72.12,1.8.18,3.12h35.82q2.79-3.15,3.78-3.42a14.48,14.48,0,0,1,3.18,2.34c1.8,1.68,2.76,2.76,2.76,3.24s-.66,1-1.86,1a14.13,14.13,0,0,0-1.74.3,67.77,67.77,0,0,1-8.58,2.52,1.86,1.86,0,0,1-.72-.54,13.07,13.07,0,0,0,3.72-3.9H508.8c-.12,5.28-2,8-5.64,8-1.74,0-2.64-.54-2.76-1.74a4,4,0,0,1,1.74-2.94,11,11,0,0,0,3.48-3.24,14.37,14.37,0,0,0,2.1-4.8A5.12,5.12,0,0,1,508.62,3.72Zm17,8.34c0,.48-.54.78-1.56.84a11.84,11.84,0,0,0-2.34.12c-4.62,3.6-11,6.12-19.32,7.56-.18-.12-.42-.36-.72-.6a61.57,61.57,0,0,0,11-5.58,19.81,19.81,0,0,0,5.7-5.82C523.2,10.32,525.66,11.46,525.66,12.06Zm4.8-9a6.78,6.78,0,0,1-.3,2.1,2.31,2.31,0,0,1-2.34,1.68c-.72,0-1.8-.72-3.12-2.28A17.3,17.3,0,0,0,520.08.9a1.34,1.34,0,0,0,.42-.72C526.86.54,530.22,1.5,530.46,3.06Z"/><path d="M561.18,17.34a26.67,26.67,0,0,1-1.2-3.12,49.5,49.5,0,0,0,7.8.78V5.76c-.12-1.8-.24-3.54-.48-5.34q2.79.36,5.94.9c1.56.3,2.34.66,2.34,1.14s-.36.66-1,.78c-1.08.36-1.62.66-1.62.84v11h.66c1.56-2.4,2.58-3.6,3.06-3.66s1,.66,2.1,2a9.07,9.07,0,0,1,1.8,2.46c0,.6-.24,1-.72,1h-6.9v5.34q7,3.78,7,7.2a2.43,2.43,0,0,1-.9,2.22,2.19,2.19,0,0,1-1.5.54c-1.32,0-2.28-1.2-2.76-3.66a16.36,16.36,0,0,0-1.86-4.14V40.8c.12,6.3.18,10.68.3,13.32q0,1.44-3.78,1.44c-1.26,0-1.86-.36-1.86-1.08.06-2.22.12-6.78.18-13.86V28.5a37.66,37.66,0,0,1-7.14,11.88,1.31,1.31,0,0,1-.78-.72A68.67,68.67,0,0,0,567,16.86C563.16,17,561.18,17.16,561.18,17.34Zm35.4,9.9c0,.72-1,1.14-2.82,1.32-.6,1-1.14,2-1.74,2.88h10.32c1.86-2.22,2.94-3.36,3.24-3.36.48,0,1.26.48,2.4,1.44,1.8,1.56,2.76,2.64,2.76,3.18s-.9,1.2-2.7,1.74A27,27,0,0,1,601.14,45a41.9,41.9,0,0,0,14.1,4,3.33,3.33,0,0,0-.12,1.14,3.23,3.23,0,0,0-1.62.54A4.3,4.3,0,0,0,612,53c-.3.78-.66,1.2-1,1.2-3.12-.66-7.08-2.58-11.76-5.82a4.8,4.8,0,0,1-1.26-.9,5.48,5.48,0,0,1-.78.48,49.48,49.48,0,0,1-19.44,6.9,2,2,0,0,0-.42-.9A51.52,51.52,0,0,0,595.2,45l.06-.06a36.7,36.7,0,0,1-6.06-9.54,36.52,36.52,0,0,1-10.5,8.88c-.36-.24-.66-.42-.9-.6a40.48,40.48,0,0,0,11.64-19.26C594.18,26,596.58,26.88,596.58,27.24ZM598,3.48q0,.81-3.24.9A24.58,24.58,0,0,1,589.5,11c8.16,0,13.8-.18,17-.48a25.88,25.88,0,0,0-4.32-5.4c.12-.24.24-.54.36-.78,6.48,2,9.84,4.5,10,7.32a5.24,5.24,0,0,1-.84,3.42,2.49,2.49,0,0,1-2,.78c-.72,0-1.5-1.14-2.34-3.48L607,11.7a30.74,30.74,0,0,1-4,1.14v6.84c0,1.32.84,1.92,2.52,1.92.48,0,1.08-.06,1.68-.06a2.79,2.79,0,0,0,2.34-1.14,2.12,2.12,0,0,1,1.26-.78c.18,0,.36.06.54.06,2,1.5,3.18,2.7,3.3,3.66,0,.78-.48,1.32-1.38,1.68-1.08.6-3.24.84-6.48.84a18.87,18.87,0,0,1-5.7-.54c-2-.36-3-1.8-3-4.38V13.86a33.73,33.73,0,0,1-3.42.54,10.82,10.82,0,0,0-.3,1.14c-1.86,6.24-6.36,10.74-13.5,13.62a1.88,1.88,0,0,1-.54-.66,24.19,24.19,0,0,0,8.88-13.26c0-.06.06-.12.06-.24-1.56.18-3.18.3-4.74.36-.36,1.68-.78,2.58-1.32,2.64s-.9-1-1.32-3c-.54-1.86-.9-3.36-1.14-4.56a39.84,39.84,0,0,0,6.36.54,33.82,33.82,0,0,0,3.66-11C595.56,1.8,598,2.94,598,3.48Zm-.6,39.36a27.85,27.85,0,0,0,5.58-9.78h-12a11.34,11.34,0,0,1-.84,1.14C592.74,38.28,595.14,41.16,597.36,42.84Z"/></g></g></svg>