<svg xmlns="http://www.w3.org/2000/svg" viewBox="0 0 675.18 55.86"><g id="图层_2" data-name="图层 2"><g id="图层_1-2" data-name="图层 1"><path d="M11.64,8.46A32.33,32.33,0,0,1,1,18.66a4.53,4.53,0,0,0-1-.6A39.43,39.43,0,0,0,9.24.18c5.1,1.68,7.68,2.7,7.68,3.06,0,.72-1,1.2-3,1.44-.42.78-.84,1.5-1.2,2.1h8a17,17,0,0,1,3-3.48c.12,0,.24-.06.36-.06A8.83,8.83,0,0,1,26.28,4.8a11.64,11.64,0,0,1,2.28,2.7c0,.6-.18.9-.42,1h-11c3.18,1,4.8,2.64,4.8,4.92q0,2.52-2.7,2.7c-1,0-1.68-.6-1.92-1.86A5.25,5.25,0,0,1,17,12.36a15.94,15.94,0,0,0-.54-1.92,5,5,0,0,0-1.5-2Zm29,8.88c1-.84,1.68-1.5,2.28-2a.89.89,0,0,1-.54.12c-1.08,0-1.68-.6-1.92-1.86a4.77,4.77,0,0,1-.36-1.74,13.57,13.57,0,0,0-.48-1.8,5.82,5.82,0,0,0-1.08-1.56H34.44c-.6.72-1.2,1.44-1.8,2.1a25.44,25.44,0,0,1-6.3,5.28,6.55,6.55,0,0,0-.54-.66c3.78-5,6.06-10,6.9-14.76,5,1.56,7.62,2.64,7.62,3.24s-1.2.9-3.48,1.2a14.94,14.94,0,0,1-1.2,1.92H46.08A19.92,19.92,0,0,1,49.32,3a.51.51,0,0,1,.36-.12,11.3,11.3,0,0,1,2.4,1.74A14.2,14.2,0,0,1,54.6,7.56c0,.6-.18.9-.42,1H41.28c2.52,1,3.78,2.46,3.78,4.26a2.39,2.39,0,0,1-.84,2.1,10.65,10.65,0,0,1,2.46,1.44q2.52,1.89,2.52,2.52c0,.36-.3.72-.78,1.08A12.7,12.7,0,0,0,47,21.24v9.3c.06,3.24.18,5.34.3,6.42,0,1.32-1.32,1.92-4,1.92-1.08,0-1.62-.42-1.62-1.32v-.42H39.54V42.3h6.12a18.35,18.35,0,0,1,3.6-3.78c.12,0,.3.06.48.06a13,13,0,0,1,1.32.9c2.34,2,3.54,3.24,3.54,3.78s-.24.84-.66.84H39.54v.6c.12,2.58.24,5.64.24,9.24q0,1.26-3.42,1.44c-1.8,0-2.76-.3-2.76-.9.12-1.92.24-5.22.24-10.08v-.3H21.6A17.79,17.79,0,0,1,17,50.22c-3.66,3-8.52,4.8-14.52,5.4a11,11,0,0,0-.36-1.14A29.32,29.32,0,0,0,11.28,50,15.68,15.68,0,0,0,16,44.1h-.54c-7,0-11.4.24-13.08.72A29.38,29.38,0,0,0,1,41.7a128.27,128.27,0,0,0,15.3.6h.48a24,24,0,0,0,1-3.84,10.78,10.78,0,0,0,.12-1.32h-3.3v.6c-.3,1.32-1.5,1.92-3.54,1.92-1.32,0-2.1-.18-2.34-.66,0-3.72.06-7.44.24-11V20.7a26.64,26.64,0,0,0-.48-5.46L14,17.34Zm1.08,1.5H14.52v4.32H41.7ZM14.52,29.16H41.7V24.78H14.52ZM41.7,30.72H14.52v4.8H41.7ZM23.34,38.64a27,27,0,0,1-1,3.66H33.84V37.14H23.58A14.09,14.09,0,0,0,23.34,38.64Z"/><path d="M110.64,3c2.76,2.28,4.14,3.78,4.14,4.44s-.24.78-.66.78H95a19.69,19.69,0,0,1-2.88,5.16A43.77,43.77,0,0,1,89.58,17c2.34.72,3.54,1.26,3.54,1.62s-.48.66-1.32.9-1.26.66-1.26.84V39.06c.12,5,.24,9.84.24,14.28-.18,1-1.5,1.62-3.9,1.8-1.56,0-2.34-.42-2.34-1.2.12-4.86.24-9.78.24-14.76V22.86A81.94,81.94,0,0,1,62.46,39.42a3.93,3.93,0,0,1-.72-1Q79.56,25.14,86.88,10.92c.54-1,1-1.92,1.32-2.7H76.44c-6.9,0-11.22.24-12.9.72-.42-1-.9-2-1.38-3.12a112.34,112.34,0,0,0,14.4.6h27.72c1.92-2.46,3.3-4,4.2-4.5.18,0,.36.06.54.06A13.76,13.76,0,0,1,110.64,3Zm3.24,32.46a3.1,3.1,0,0,1-1.32,2.94,2.64,2.64,0,0,1-1.5.36c-1.92,0-3.54-1.56-4.86-4.8A38.18,38.18,0,0,0,94.14,20.52c0-.06.18-.24.6-.54C107.34,25.68,113.76,30.84,113.88,35.46Z"/><path d="M141.42,16q0,.81-3.78,1.26a43,43,0,0,1-4.92,7.14V48.84c.12,1.32.18,3.06.18,5.28,0,.84-1,1.32-3,1.44-1.56,0-2.4-.18-2.4-.54.06-1,.12-3.12.12-6.48V29.82a43.59,43.59,0,0,1-6.9,5.1,4,4,0,0,0-.6-.66c7.2-7.44,11.52-14.64,13-21.72C138.66,14.16,141.42,15.3,141.42,16ZM138.3,3.72c0,.72-1,1.14-2.82,1.32A32.76,32.76,0,0,1,122.16,17.4a5.36,5.36,0,0,0-1-.54,33,33,0,0,0,10-15.9C135.9,2.46,138.3,3.36,138.3,3.72Zm32,20.94c2.1,1.8,3.18,3,3.18,3.48s-.24.84-.66.84h-7.68v5.7h1.56a16.8,16.8,0,0,1,3.36-3.36c.12,0,.24.06.42.06.36.24.78.48,1.2.78,2.1,1.8,3.18,3,3.18,3.48s-.24.84-.6.84h-9.12V48.9c0,3.6-2.34,5.64-7,6.24-.42,0-.72-.54-1-1.56a3.76,3.76,0,0,0-2.7-2.64A14,14,0,0,0,151,49.62a2.19,2.19,0,0,1,.12-.84c1.56.12,4,.3,7.08.48,1.14,0,1.74-.42,1.74-1.32V36.48h-13.8c-5.16,0-8.34.24-9.6.72a29.38,29.38,0,0,0-1.44-3.12,64.23,64.23,0,0,0,10.86.6h14V29H146.4q-7.29,0-9,.72A29.38,29.38,0,0,0,136,26.58a55.11,55.11,0,0,0,10.08.6h19.32a17,17,0,0,1,3.3-3.36c.12,0,.3.06.42.06C169.44,24.12,169.86,24.36,170.34,24.66Zm-23-20.82h13.92Q163.92,1,164.64,1a10.94,10.94,0,0,1,2.64,1.44q2.52,1.89,2.52,2.52c0,.36-.36.72-1,1.08a19.21,19.21,0,0,0-1.62,1.32V16.2c.06,3.12.18,5.16.3,6.18,0,1.32-1.32,1.92-4,1.92-1.08,0-1.62-.42-1.62-1.32V22H147.42v1q-.36,1.8-3.24,1.8c-1.2,0-2-.18-2.22-.6,0-3.54.06-7,.24-10.5V6.9a33.75,33.75,0,0,0-.42-5.22Zm-.06,35.64c2.28,1.5,3.48,3.24,3.48,5.28a3.63,3.63,0,0,1-1.14,2.94,3.23,3.23,0,0,1-2,.54c-1,0-1.68-1-2-3.12a19.41,19.41,0,0,0-1.32-4.2,24.12,24.12,0,0,0-1.86-2.46,4.38,4.38,0,0,1,.54-.66A13,13,0,0,1,147.24,39.48Zm14.7-34.14H147.42v6.9h14.52Zm0,8.46H147.42v6.6h14.52Z"/><path d="M230.88,6.3c2.7,2.28,4.08,3.78,4.08,4.38s-.24.84-.6.84H203a57.07,57.07,0,0,1-5.46,8.34l1.92,1H219.9a10.13,10.13,0,0,1,3-2.94,8.74,8.74,0,0,1,3.12,1.5c1.68,1.2,2.58,2,2.58,2.58s-.42.84-1.14,1.26A3.91,3.91,0,0,0,226,24.54V48c0,3.9-2,6.3-5.82,7.26-.6,0-1-.42-1.14-1.26a6.34,6.34,0,0,0-3.18-3.54,24.89,24.89,0,0,0-4.38-1.56,2.64,2.64,0,0,0,.12-1.08,50.85,50.85,0,0,0,7.62.42,1.26,1.26,0,0,0,1.44-1.38v-6.3H199.32c0,4.08.12,8.46.3,13.08q-.54,1.62-4.14,1.62c-1.2,0-1.8-.36-1.8-1,.06-5.64.12-11.82.12-18.54V24.3a76.06,76.06,0,0,1-12.72,11.1c-.48,0-.66-.24-.66-.78a76.29,76.29,0,0,0,16.74-23.1h-1.8c-7.08,0-11.52.24-13.26.72a29.38,29.38,0,0,0-1.44-3.12,124.23,124.23,0,0,0,15.06.6H198A74.75,74.75,0,0,0,201.18.36c5.52,1.2,8.34,2.22,8.34,3.06,0,.6-1.14,1.08-3.42,1.5-.72,1.68-1.44,3.24-2.16,4.8h20.58a23.68,23.68,0,0,1,4.2-4.56c.18,0,.36.06.54.06Q230,5.67,230.88,6.3Zm-10.2,23.34V22.5H199.32v7.14Zm0,9.36V31.2H199.32V39Z"/><path d="M281.52,6.06c1.74,1.5,2.64,2.46,2.64,2.88s-.54.84-1.5,1.08a16.24,16.24,0,0,1-2.16.6,50.08,50.08,0,0,1-15,13.2,69.67,69.67,0,0,1-21,8.4,1.59,1.59,0,0,1-.3-.78,89.9,89.9,0,0,0,19.14-11c6.54-5,10.32-8.88,11.4-11.76H261.66a62.15,62.15,0,0,1-5.34,4c4.86.78,7.38,2.46,7.62,5a5.6,5.6,0,0,1-.3,1.92,2.16,2.16,0,0,1-2.16,1.56c-.72,0-1.68-1-2.88-3a18.44,18.44,0,0,0-3.66-4.5,92.53,92.53,0,0,1-10.32,6c-.48-.18-.84-.36-1.2-.48A54.29,54.29,0,0,0,262.26,0c4.74,2.16,7.14,3.6,7.14,4.2s-1.2.72-3.54.72c-.84.84-1.68,1.62-2.46,2.28h11c2-2.1,3.24-3.18,3.66-3.3Q279,3.9,281.52,6.06ZM291.6,25.32c1.56,1.44,2.34,2.46,2.34,2.94,0,.24-.36.54-1,.9a9,9,0,0,0-2.7,1.5c-7,13.32-22,21.18-44.94,23.76a1.74,1.74,0,0,0-.36-1c13.32-3.36,22.68-7.14,28.2-11.46,6.24-4.32,10.26-8.94,12.06-13.74h-12.3A68.69,68.69,0,0,1,266,32.94a4.48,4.48,0,0,1-.72.42c4.26.78,6.48,2.46,6.72,5a6.78,6.78,0,0,1-.3,2.1,2.4,2.4,0,0,1-2.34,1.68c-.6,0-1.38-1-2.34-3.12a16.67,16.67,0,0,0-3.12-4.74,76,76,0,0,1-15.12,6.84c-.12-.12-.3-.36-.6-.72q20.43-10.71,24.72-21c5.52,1.62,8.28,2.82,8.28,3.54q0,.72-3.78,1.26-1.35,1.35-2.7,2.52h10c1.8-2.34,3.06-3.54,3.66-3.54S290,23.88,291.6,25.32Z"/><path d="M315.9,1.32c1.56.3,2.34.66,2.34,1.14s-.36.66-1,.78c-1.08.36-1.62.66-1.62.84V15.42h1.68c1.5-2.64,2.52-4,3-4.2.3,0,1.14.9,2.58,2.58a9.44,9.44,0,0,1,1.74,2.46c0,.6-.18.84-.48.84H315.6V28.62c2.76-.9,5.58-2,8.46-3.18.12.3.24.54.36.78A60.64,60.64,0,0,1,315.6,32v9c.12,6.3.18,10.68.3,13.32q0,1.44-3.78,1.44c-1.26,0-1.86-.36-1.86-1.08.06-2.22.12-6.78.18-13.86V34.68c-1.62.78-3.3,1.5-5,2.16a5.29,5.29,0,0,0-.6,2.28c-.06.6-.3.84-.66.84-.54,0-1.44-1.32-2.64-4.08a19.51,19.51,0,0,0-1.44-3.42,74,74,0,0,0,10.32-2.22V17.1h-4.86a63.85,63.85,0,0,1-4.2,9.84,2.28,2.28,0,0,1-.78-.54,104.85,104.85,0,0,0,2.52-20.16c4.8,1.26,7.2,2.1,7.2,2.58s-.6.78-1.68.9c-.72.18-1.08.3-1.08.3q-.63,2.88-1.44,5.4h4.32V5.76c-.12-1.8-.24-3.54-.48-5.34Q312.75.78,315.9,1.32ZM353.82,30.6c.9.9,1.38,1.56,1.38,2s-.36.72-1,.72H346v15.3c0,3.24-2.16,5.46-6.48,6.6-.6-.06-.9-.48-1-1.26-.18-1.26-1.14-2.4-2.82-3.36a13.63,13.63,0,0,0-3.66-1.32,3.3,3.3,0,0,0,.18-1,65.59,65.59,0,0,0,7.08.3c.72-.06,1.08-.54,1.08-1.5V33.36h-13.2a38,38,0,0,0-5.34.36,10.93,10.93,0,0,1-1.32-2.82,23,23,0,0,0,5.94.72h13.92c-.12-3.48-.3-6.24-.42-8.28,1.44.36,3,.72,4.56,1.08a21.33,21.33,0,0,1,3.66.72.87.87,0,0,1,.6.9c0,.36-.66.72-1.86,1.08-.66.24-1,.36-1,.48v4h.6a31.16,31.16,0,0,1,3.54-4,.87.87,0,0,1,.36.06C350.94,27.78,352,28.74,353.82,30.6ZM347.4,5.82c2.4,2.16,3.78,3.54,4.14,4.26,0,.48-.18.72-.48.72h-12.6v9.78h6.18a35.51,35.51,0,0,1,3.12-3.9c.36-.36.6-.54.78-.54a2.86,2.86,0,0,1,1.32.72c2.64,2.28,4.08,3.78,4.44,4.5,0,.54-.18.78-.48.78H327.54a27.13,27.13,0,0,0-5.7.48c-.24-.72-.48-1.5-.84-2.4a40,40,0,0,0,6.54.36h5.64V10.8H329.4a27.37,27.37,0,0,0-5.76.48c-.24-.66-.48-1.44-.84-2.4a39.06,39.06,0,0,0,6.6.42h3.78v-2a45.87,45.87,0,0,0-.36-6.42c5.64.84,8.46,1.56,8.46,2.22,0,.48-.36.84-1,1q-1.8.72-1.8,1.26v4h4a39.08,39.08,0,0,1,2.94-3.66q.45-.54.72-.54A2.76,2.76,0,0,1,347.4,5.82ZM330.72,37.08q3.6,2.34,3.6,5.58a3,3,0,0,1-1.08,2.7,2.48,2.48,0,0,1-1.86.6c-1.2,0-2-1.08-2.34-3.36a18.72,18.72,0,0,0-1.56-4.38,24.6,24.6,0,0,0-1.8-2.28,4.38,4.38,0,0,1,.54-.66A14.1,14.1,0,0,1,330.72,37.08Z"/><path d="M369.18,5.1h14.16q2.34-2.52,3.24-2.52c.48,0,1.56.6,3.18,1.8C391.2,5.46,392,6.3,392,6.78s-.36.72-1,1.08a6.07,6.07,0,0,0-1.62,1.38v7.32c.18,2.88.3,4.68.3,5.52,0,1.32-1.08,2-3.12,2-1.56,0-2.4-.36-2.46-1.08V21.78h-7.5c-.12,2.58-.18,3.84-.3,3.84-.12,1.56-.3,3.06-.48,4.5h7.74c1.62-2,2.64-3,3.12-3s1.5.72,2.94,1.92,2.28,2.16,2.28,2.58-.36.78-1,1a10.57,10.57,0,0,0-1.38.84q-.9,11.25-2.52,14.58c-.66,3-2.76,4.92-6.24,5.64q-1,0-1.26-1.26A5.54,5.54,0,0,0,377.22,49a10,10,0,0,0-3.9-2c0-.06.12-.48.24-1.26a34.66,34.66,0,0,0,6.66,1.38,2.05,2.05,0,0,0,2.22-1.68c.6-1.56,1.2-6.18,1.8-13.74H375.6q-3,17.19-14.64,22.92a2.77,2.77,0,0,1-.42-.42c5.88-5.82,9.36-15.78,10.32-29.94a23.77,23.77,0,0,0,.12-2.46H369.6v.54q-.36,1.8-3.24,1.8c-1.2,0-2-.18-2.22-.6,0-3.24.06-6.36.24-9.48V7.8A25.75,25.75,0,0,0,364,3.12Zm14.94,15.12V6.6H369.6V20.22ZM400.56,7.5c1.5.3,2.28.72,2.28,1.2s-.36.6-1,.72c-1.08.42-1.56.72-1.56.9V26.16c.06,6.3.12,10.74.24,13.32q0,1.44-3.78,1.44c-1.26,0-1.86-.36-1.86-1.08Q395,36.6,395,26V12c-.12-1.8-.24-3.6-.48-5.34C396.42,6.9,398.4,7.2,400.56,7.5ZM414.3,3.06a.61.61,0,0,1-.48.66,16.7,16.7,0,0,0-1.56.72c-.6.3-.9.54-.9.78v41.7c0,5.4-2.4,8.1-7.14,8.1-.9,0-1.38-.36-1.38-1.08a5.19,5.19,0,0,0-2.52-3.18,10.8,10.8,0,0,0-4.38-1.62,2.1,2.1,0,0,0,.18-1c1.44.12,4.38.12,8.88.12.6,0,1-.6,1-1.8V8.22a44.91,44.91,0,0,0-.48-7.56C410.88,1.62,413.82,2.4,414.3,3.06Z"/><path d="M467.28,6.66c0,.48-.36.66-1.08.66-1.56-.18-2.82-.3-3.78-.42q-4.23,2.61-12.24,3.24v7.8h8.52c1.56-1.8,2.64-2.76,3.24-2.82s1.56.6,3.18,1.8c1.44,1.08,2.22,1.92,2.22,2.4s-.36.72-1,1.08a8.79,8.79,0,0,0-1.8,1.38V29c.18,2.82.3,4.62.3,5.4,0,1.32-1.08,2-3.12,2-1.56,0-2.4-.36-2.46-1.08V32.82h-9.12a55.13,55.13,0,0,1-.78,7A28.62,28.62,0,0,1,447,47.4c-1.68,3.54-3.3,5.88-4.92,7a1.06,1.06,0,0,1-.9-.54,56.07,56.07,0,0,0,2.7-10.38c.6-3.36.9-8.94,1-16.8,0-8.16-.06-13.26-.12-15.18,0-1.62-.12-3.54-.24-5.7l6.06,2.7a24.71,24.71,0,0,0,10.62-6.84C465.24,4.56,467.28,6.18,467.28,6.66Zm-8,24.54V19.5h-9.06l.06,7c0,1.74-.06,3.3-.06,4.74ZM493.62,6.72c0,.48-.42.72-1.2.72-1.68-.24-3.06-.36-4-.48-3.12,1.5-7.68,2.4-13.56,2.7L474.9,20v2.1h10.92a22.77,22.77,0,0,1,3.48-4.2.87.87,0,0,1,.42-.12,10.23,10.23,0,0,1,2.58,1.86,14.77,14.77,0,0,1,2.76,3.12c0,.6-.18,1-.42,1h-7.26V45.24c.12,2.4.18,5.16.18,8.52,0,.78-1.08,1.2-3.18,1.32-1.68,0-2.52-.3-2.52-.84.12-1.74.18-4.8.18-9.3V23.76h-7.2a59.21,59.21,0,0,1-1.38,12.9,27.39,27.39,0,0,1-3.9,9.42c-2.7,4.38-5.4,7.32-8.1,8.76a1.23,1.23,0,0,1-.9-.54,41.79,41.79,0,0,0,6.6-13.08q2.16-6.3,2.34-21.06c0-5.76-.06-9.36-.12-10.74,0-1.14-.12-2.46-.24-4L475.2,8c5.16-1.62,9.12-3.84,11.82-6.66C491.4,4.44,493.62,6.24,493.62,6.72Z"/><path d="M519.06,8.4c2.46,2.16,3.84,3.54,4.14,4.26,0,.48-.18.72-.48.72H507a27.37,27.37,0,0,0-5.76.48c-.24-.66-.48-1.44-.84-2.4a39.06,39.06,0,0,0,6.6.42h7.14a39.08,39.08,0,0,1,2.94-3.66q.45-.54.72-.54A2.76,2.76,0,0,1,519.06,8.4ZM518.28,17a19.88,19.88,0,0,1,3.6,3.66c0,.54-.18.78-.48.78H509.52a27.37,27.37,0,0,0-5.76.48c-.24-.72-.48-1.5-.84-2.4a39.06,39.06,0,0,0,6.6.42H514a28.56,28.56,0,0,1,2.58-3.12c.24-.3.48-.48.66-.48A2.86,2.86,0,0,1,518.28,17Zm-9.18,19.5h5.58c1.44-2,2.4-3.06,3-3.12a9.89,9.89,0,0,1,3,1.68c1.32,1,2,1.74,2,2.22s-.36.66-1,1a5.63,5.63,0,0,0-1.8,1.26v7.14c.18,2.76.3,4.56.3,5.4,0,1.2-1,1.8-2.94,1.86-1.44,0-2.22-.36-2.28-1V50.4h-6.72v2.7c-.24,1.08-1.26,1.68-3.06,1.68-1.14,0-1.8-.18-2-.54,0-3.24.06-6.3.24-9.36V38.76a25.75,25.75,0,0,0-.42-4.68Zm9.12-11.22a18.07,18.07,0,0,1,3.3,3.42c0,.54-.18.78-.48.78H509.82a27.37,27.37,0,0,0-5.76.48c-.24-.72-.48-1.5-.84-2.4a40.91,40.91,0,0,0,6.6.36h4.38a28.17,28.17,0,0,1,2.4-2.82c.24-.24.42-.42.6-.42A2.75,2.75,0,0,1,518.22,25.26Zm-7.38-23c2.16,1.38,3.24,3,3.24,4.8a3.65,3.65,0,0,1-1.2,2.94,3,3,0,0,1-2,.54q-1.26,0-1.62-2.88a21,21,0,0,0-1.14-3.78,10.61,10.61,0,0,0-1.86-2.46c.12-.18.36-.42.6-.72A12.12,12.12,0,0,1,510.84,2.28ZM515,48.78V38h-6.72v10.8ZM527.64,3.9h18.72C547.92,2,548.94,1.08,549.54,1a10,10,0,0,1,3.24,1.8C554.22,3.9,555,4.74,555,5.22s-.36.72-1,1.08a7.46,7.46,0,0,0-1.8,1.38v8.1c.18,3.12.3,5.1.3,6.06,0,1.32-1.08,2-3.12,2-1.56,0-2.4-.36-2.46-1.08V22H528.84v.3c-.3,1.2-1.38,1.8-3.3,1.8-1.2,0-1.92-.18-2.16-.6q0-5,.18-9.9V7.08a19.7,19.7,0,0,0-.42-4.92ZM532,27.3h11.7c1.8-2.28,2.88-3.48,3.3-3.48a18.55,18.55,0,0,1,2.64,1.44c1.56,1.2,2.4,2,2.46,2.46s-.3.84-.84,1.2a8.62,8.62,0,0,0-1.5,1.08V48.18c-.06,3.72-2,6-5.94,6.9-.84-.18-1.2-.6-1.2-1.2A5.26,5.26,0,0,0,540.9,51a14.09,14.09,0,0,0-4-1.86,6,6,0,0,0,.12-1,34.91,34.91,0,0,0,5.58.48c1.32,0,2-.36,2-1.14v-4H531.06v9.9c-.24,1.2-1.38,1.8-3.3,1.8-1.2,0-1.92-.24-2.16-.6,0-4.8.06-9.36.18-13.92V31.62a38.34,38.34,0,0,0-.42-6.9Zm3.18-15.24V5.4h-6.36v6.66Zm0,8.34V13.62h-6.36V20.4Zm9.42,13.92V28.86H531.06v5.46Zm0,7.68V35.88H531.06V42Zm-4-29.94h6.3V5.4h-6.3Zm0,8.34h6.3V13.62h-6.3Z"/><path d="M580.92,16q0,.81-3.78,1.26a47.62,47.62,0,0,1-4.44,6.48V48.84c.12,1.32.18,3.06.18,5.28,0,.84-1,1.32-3,1.44-1.56,0-2.4-.18-2.4-.54.06-1,.12-3.12.12-6.48V29.34a38.13,38.13,0,0,1-7.08,5.4c-.12-.12-.3-.36-.6-.72,7-7.32,11.28-14.46,12.72-21.48C578.16,14.16,580.92,15.3,580.92,16ZM578.16,3.9q0,1.17-3.06,1.44a33.46,33.46,0,0,1-13.74,12.54,9,9,0,0,0-1-.6A33.91,33.91,0,0,0,570.42.9C575.58,2.52,578.16,3.54,578.16,3.9Zm30.9,27.18A12.28,12.28,0,0,1,611.58,34c0,.6-.18,1-.42,1H598.32V48.6a57.81,57.81,0,0,0,8.46.54,61.47,61.47,0,0,0,9.06-.42c0,.3.06.6.06.9a3.39,3.39,0,0,0-1.8.78A3.74,3.74,0,0,0,613,53c0,1-1,1.44-3,1.44-.6,0-2.34-.06-5.16-.12-7.74-.48-13.2-2-16.32-4.74a15.42,15.42,0,0,1-4.08-6.54,23.06,23.06,0,0,1-2,5.34,16,16,0,0,1-8,7.44c-.12-.06-.18-.36-.3-1a14.67,14.67,0,0,0,3.78-5.34,33.23,33.23,0,0,0,2.28-8.34,74.41,74.41,0,0,0,.72-11.94c1.74.48,3.72,1,5.94,1.5,1.32.42,2,.78,2,1.14a.94.94,0,0,1-.72.9c-.72.3-1.44.66-2.28,1-.12,2-.36,4-.6,5.64a12.61,12.61,0,0,0,4.8,6.36A11.65,11.65,0,0,0,593,47.4V29.28a45.87,45.87,0,0,0-.36-6.42c5.64.84,8.46,1.56,8.46,2.22,0,.48-.36.84-1,1q-1.8.72-1.8,1.26v5.94h4.74a19.92,19.92,0,0,1,3.24-3.84c.12,0,.24-.06.36-.06A8,8,0,0,1,609.06,31.08ZM592.92,4c0,.6-1,1-2.82,1.32a31.71,31.71,0,0,1-1.62,5.1c4.14,2.64,6.24,5,6.3,7.08,0,1.56-.42,2.52-1.26,2.94a2.34,2.34,0,0,1-1.5.42q-1,0-1.62-2.88a27.89,27.89,0,0,0-2.58-5.94A36.69,36.69,0,0,1,577.5,25.32a.85.85,0,0,1-.54-.48,49.28,49.28,0,0,0,8.4-23.22C590.4,2.64,592.92,3.42,592.92,4Zm15.36-.12c0,.6-1,1-2.76,1.32a33.09,33.09,0,0,1-1.8,5.52c5.28,3,7.92,5.64,8,8,0,1.56-.48,2.52-1.32,3a2.64,2.64,0,0,1-1.5.36c-.84,0-1.5-1-2-3.06a25.58,25.58,0,0,0-3.78-7A32.49,32.49,0,0,1,595,22.44a.76.76,0,0,1-.54-.42A48.31,48.31,0,0,0,600.78,1.5C605.76,2.52,608.28,3.3,608.28,3.9Z"/><path d="M642.42,7.5a6.37,6.37,0,0,1-.3,2,1.92,1.92,0,0,1-.54.9H651.9c2.76-3.84,4.26-7.32,4.62-10.32q8.1,2.43,8.1,3.6c0,.48-1.26.84-3.66,1.08a21.88,21.88,0,0,1-7.08,5.64h11.64a20.53,20.53,0,0,1,3.9-4.14c.12,0,.3.06.48.06a15.36,15.36,0,0,1,1.5,1q3.78,3.24,3.78,4.14c0,.6-.24.84-.6.84H635.1c-7.2,0-11.7.24-13.44.66q-.63-1.53-1.44-3.06a151.38,151.38,0,0,0,15.54.54h2.88a17,17,0,0,1-1.86-2.94,20.69,20.69,0,0,0-4.26-6,2.38,2.38,0,0,0,.36-.78C639,1.56,642.18,3.78,642.42,7.5ZM631,18.48H641c1.8-1.86,2.88-2.82,3.3-2.82A18.55,18.55,0,0,1,647,17.1c1.56,1.2,2.4,2,2.46,2.46a1.41,1.41,0,0,1-.84,1.2,8.62,8.62,0,0,0-1.5,1.08V48.36c-.06,3.72-2,6-5.7,6.9a1.21,1.21,0,0,1-1.08-1.2,5.49,5.49,0,0,0-1.56-2.88,9.17,9.17,0,0,0-3.54-1.86c0-.36.06-.66.06-1a24.55,24.55,0,0,0,4.62.48c1.32,0,2-.36,2-1.14V39.12H631.5V53.88c-.3,1.2-1.38,1.8-3.3,1.8-1.2,0-1.92-.24-2.16-.6,0-6.12.06-12.06.18-17.94V25.44a63.65,63.65,0,0,0-.42-8.94Zm11,9.42V20.1H631.5v7.8Zm0,9.66v-8H631.5v8Zm18.84-18.42c0,.54-.42.9-1.14,1.14-1.08.54-1.56.9-1.56,1.08V42.6c0,1.08-1.14,1.62-3.36,1.68-1.32,0-2-.3-2-1,.12-6.66.24-14.28.24-22.8a19,19,0,0,1-.3-3.48C657.48,17.64,660.18,18.3,660.78,19.14Zm11.76-2.28a.61.61,0,0,1-.48.66c-.48.18-1,.42-1.62.66s-.84.54-.84.78v28.2c0,5-2.34,7.56-7,7.56-.84,0-1.26-.36-1.26-1A4.48,4.48,0,0,0,659,50.76a8.94,8.94,0,0,0-4.08-1.5,3.76,3.76,0,0,0,.12-1c1.32.12,4,.12,8.1.12.66,0,1-.54,1-1.62v-27a22.67,22.67,0,0,0-.48-5.34C669.12,15.36,672.06,16.14,672.54,16.86Z"/></g></g></svg>