<svg xmlns="http://www.w3.org/2000/svg" viewBox="0 0 675.18 55.86"><g id="图层_2" data-name="图层 2"><g id="图层_1-2" data-name="图层 1"><path d="M13,15.3c1.26,1.2,1.92,2,1.92,2.46s-.6.9-1.8,1.38a5.26,5.26,0,0,0-1.2.48c-1.5,4.56-2.7,8.16-3.54,10.68h2.1c1.5-1.68,2.4-2.58,2.76-2.58a6.31,6.31,0,0,1,2.82,1.44c1.56,1.08,2.4,1.86,2.4,2.22s-.42.78-1.2,1.14-1.2.72-1.32,1.08a38.75,38.75,0,0,1-4.38,11.22,19.16,19.16,0,0,0,7.2,2.88q4.59,1.44,17.46,1.44c9.36-.24,15.84-.78,19.32-1.5,0,.6,0,1,.12,1.08a5.49,5.49,0,0,0-1.68,1,3.4,3.4,0,0,0-1.08,2.1,1.73,1.73,0,0,1-2,1.92c-8.94,0-14.22-.18-15.9-.42-8.7,0-14.94-1-18.72-2.94a17.72,17.72,0,0,1-5.58-4.26A23.87,23.87,0,0,1,9,48.36,22.79,22.79,0,0,1,.66,55.14a1.94,1.94,0,0,1-.48-.54A34.54,34.54,0,0,0,7,44.76a41.1,41.1,0,0,0,3.84-13H7.92c-.3.84-.54,1.44-.72,1.92-.24.66-.9,1-2,1C3.3,34.5,2.4,34,2.4,33.24c2-5.58,3.78-10.86,5.22-15.78H3.06a20.11,20.11,0,0,0-2.16.36C.54,17,.24,16.26,0,15.6a14,14,0,0,0,2.76.3H7.38a15.71,15.71,0,0,1,3.06-2.4C11,13.5,11.94,14.1,13,15.3ZM8.22,3.54c2.64,1.68,4,3.72,4,6a2.44,2.44,0,0,1-.84,2.16,2.17,2.17,0,0,1-1.44.42c-1.74,0-2.88-1.14-3.48-3.54A17.32,17.32,0,0,0,4.2,4a9,9,0,0,0-1.38-1.8,5.81,5.81,0,0,0,.42-.54A16,16,0,0,1,8.22,3.54Zm44.88,13a7.32,7.32,0,0,1,2,2.28c0,.6-.24,1-.66,1H25.8c-5.76.12-8.7.3-8.7.54a26.67,26.67,0,0,1-1.2-3.12c.84.3,3.9.54,9.24.78H47.4Q50,14.79,50.82,14.7C51.18,14.7,51.9,15.3,53.1,16.5ZM24.66,23.22h17.4c1.44-1.74,2.4-2.64,3-2.7a9.89,9.89,0,0,1,3,1.68c1.32,1,2,1.74,2,2.22s-.3.72-.84,1a5.49,5.49,0,0,0-1.44,1.26v2.4a17,17,0,0,1,.3,1.8c0,1.26-1,1.92-2.88,1.92-1.44,0-2.22-.3-2.28-1v-.06H36.72a10.41,10.41,0,0,1-.9,1.2v1.62A78.36,78.36,0,0,1,43.68,37a22,22,0,0,0,4.86-5.1c3,2.22,4.56,3.48,4.56,3.78s-.24.6-.66.6c-1-.12-1.68-.24-2.1-.24a23.56,23.56,0,0,1-4.8,1.8q4.86,2.43,5,5a4.79,4.79,0,0,1-.42,2.1,1.89,1.89,0,0,1-1.92,1c-.66,0-2.1-1.44-4.26-4.44a26.56,26.56,0,0,0-8.16-5.76v8.16c.06.78.12,1.5.12,2.22,0,1-1,1.44-2.94,1.44-1.32,0-2-.24-2.1-.78V37.68q-5.22,3.69-14.4,6.12c-.24,0-.48-.24-.6-.84,7.2-3.12,11.94-6.42,14.16-10a9,9,0,0,0,.84-1.2H25.26v.66C25,33.54,24,34.08,22.2,34.08c-1.14,0-1.8-.18-2-.54,0-1.92.06-3.78.24-5.64V24.24A10.43,10.43,0,0,0,20,21.42ZM21.9,3.6H45.06c1.44-1.74,2.4-2.64,3-2.7A9.2,9.2,0,0,1,51,2.58c1.32,1,2,1.74,2,2.22s-.3.66-.84,1a5.81,5.81,0,0,0-1.56,1.26V10.5c.18,1.32.3,2.16.3,2.52,0,1.26-1,1.92-2.88,1.92-1.38,0-2.1-.24-2.22-.84H22.38v.78c-.24,1.14-1.26,1.68-3.06,1.68-1.14,0-1.8-.18-2-.54,0-2.28.06-4.5.24-6.66V5a13.77,13.77,0,0,0-.42-3.3Zm5.34,8.94V5.16H22.38v7.38ZM43,30.18v-5.4H25.26v5.4ZM31.74,12.54h4.74V5.16H31.74Zm9.24,0h4.8V5.16H41Z"/><path d="M79.86,4c-.06.6-1.26,1-3.54,1a36.08,36.08,0,0,1-9,9.9c1.92.18,4.08.3,6.54.36q5.22,0,9.18-.36a14.52,14.52,0,0,0-3.48-6.12c.12-.12.36-.3.6-.54,5.94,3.42,8.94,6.66,8.94,9.78a2.74,2.74,0,0,1-1,2.4,2.81,2.81,0,0,1-1.68.54c-1.38,0-2.34-1.44-2.88-4.38-.12-.3-.18-.54-.24-.72A63.36,63.36,0,0,1,63.66,20q-.36,1.44-1.08,1.44c-.18,0-.48-.6-.84-1.92a46.86,46.86,0,0,1-1.14-5.4,23.36,23.36,0,0,0,4.56.66C68.88,9.84,71.22,5,72.12.3,77.28,2.22,79.86,3.48,79.86,4ZM69.36,24.18H80c1.74-1.74,2.82-2.64,3.24-2.64a12.44,12.44,0,0,1,2.64,1.38q2.43,1.8,2.52,2.52c0,.48-.3.84-.9,1.2a11.26,11.26,0,0,0-1.44,1.08V48.06c-.12,3.72-2,6-5.64,6.9-.84-.18-1.2-.6-1.2-1.2a5.2,5.2,0,0,0-1.68-2.88A12,12,0,0,0,73.74,49a6,6,0,0,0,.12-1,28,28,0,0,0,5,.48c1.32,0,2-.36,2-1.14V40.86h-11v12.9q-.36,1.8-3.24,1.8c-1.2,0-2-.24-2.22-.6,0-5.22.06-10.26.24-15.24v-10a69.1,69.1,0,0,0-.42-7.56Zm11.52,7.26v-5.7h-11v5.7Zm0,7.86V33h-11v6.3Zm18.3-9.42c0,.66-1.08,1.32-3.24,2V39.6c5.22-2.52,9.06-5.52,11.46-8.94,4,2.88,6.06,4.44,6.06,4.68a.71.71,0,0,1-.72.78,20.76,20.76,0,0,1-2.58-.18,65.49,65.49,0,0,1-14.22,5.4v5.22c0,1.8,1,2.7,2.88,2.82h5.58q3.33,0,4.5-2.16c.6-.9,1.32-3.12,2.16-6.6.66.06,1,.06,1.14.06v6.48c0,.54.48,1,1.32,1.2,1.08.48,1.62,1,1.62,1.56-.12,1.86-1.92,3.12-5.34,3.72a42.22,42.22,0,0,1-6.18.48,52.79,52.79,0,0,1-8-.36c-3.24-.24-4.8-2.94-4.8-8.22V33.66a32.07,32.07,0,0,0-.42-6.12Q99.18,29.07,99.18,29.88ZM98.7,2.7c0,.6-1,1.26-3,1.92v7.86c5-2.4,8.7-5.16,11.1-8.34,4,2.88,6,4.44,6,4.68a.64.64,0,0,1-.72.72,19.9,19.9,0,0,1-2.58-.12,61.08,61.08,0,0,1-13.8,4.8v5c0,1.62.9,2.46,2.7,2.58h6.24c2,0,3.42-.72,4.14-2,.6-.84,1.26-2.88,2-6.12a9.6,9.6,0,0,0,1,.06v6c0,.54.48.9,1.38,1.14,1,.48,1.56,1,1.56,1.44-.12,1.8-1.8,2.94-5,3.48a43,43,0,0,1-6.24.42,57.11,57.11,0,0,1-8.16-.3c-3-.12-4.5-2.7-4.5-7.68V6.24A30.81,30.81,0,0,0,90.54.48C95.94,1.44,98.7,2.22,98.7,2.7Z"/><path d="M140.88,16q0,.81-3.78,1.26a47.62,47.62,0,0,1-4.44,6.48V48.84c.12,1.32.18,3.06.18,5.28,0,.84-1,1.32-3,1.44-1.56,0-2.4-.18-2.4-.54.06-1,.12-3.12.12-6.48V29.34a38.13,38.13,0,0,1-7.08,5.4c-.12-.12-.3-.36-.6-.72,7-7.32,11.28-14.46,12.72-21.48C138.12,14.16,140.88,15.3,140.88,16ZM138.12,3.9q0,1.17-3.06,1.44a33.46,33.46,0,0,1-13.74,12.54,9,9,0,0,0-1-.6A33.91,33.91,0,0,0,130.38.9C135.54,2.52,138.12,3.54,138.12,3.9ZM169,31.08A12.28,12.28,0,0,1,171.54,34c0,.6-.18,1-.42,1H158.28V48.6a57.81,57.81,0,0,0,8.46.54,61.47,61.47,0,0,0,9.06-.42c0,.3.06.6.06.9a3.39,3.39,0,0,0-1.8.78A3.74,3.74,0,0,0,172.92,53c0,1-1,1.44-3,1.44-.6,0-2.34-.06-5.16-.12-7.74-.48-13.2-2-16.32-4.74a15.42,15.42,0,0,1-4.08-6.54,23.06,23.06,0,0,1-2,5.34,16,16,0,0,1-8,7.44c-.12-.06-.18-.36-.3-1a14.67,14.67,0,0,0,3.78-5.34A33.23,33.23,0,0,0,140,41.22a74.41,74.41,0,0,0,.72-11.94c1.74.48,3.72,1,5.94,1.5,1.32.42,2,.78,2,1.14a.94.94,0,0,1-.72.9c-.72.3-1.44.66-2.28,1-.12,2-.36,4-.6,5.64a12.61,12.61,0,0,0,4.8,6.36A11.65,11.65,0,0,0,153,47.4V29.28a45.87,45.87,0,0,0-.36-6.42c5.64.84,8.46,1.56,8.46,2.22,0,.48-.36.84-1,1q-1.8.72-1.8,1.26v5.94H163a19.92,19.92,0,0,1,3.24-3.84c.12,0,.24-.06.36-.06A8,8,0,0,1,169,31.08ZM152.88,4c0,.6-1,1-2.82,1.32a31.71,31.71,0,0,1-1.62,5.1c4.14,2.64,6.24,5,6.3,7.08,0,1.56-.42,2.52-1.26,2.94a2.34,2.34,0,0,1-1.5.42q-1,0-1.62-2.88a27.89,27.89,0,0,0-2.58-5.94,36.69,36.69,0,0,1-10.32,13.26.85.85,0,0,1-.54-.48,49.28,49.28,0,0,0,8.4-23.22C150.36,2.64,152.88,3.42,152.88,4Zm15.36-.12c0,.6-1,1-2.76,1.32a33.09,33.09,0,0,1-1.8,5.52c5.28,3,7.92,5.64,8,8,0,1.56-.48,2.52-1.32,3a2.64,2.64,0,0,1-1.5.36c-.84,0-1.5-1-2-3.06a25.58,25.58,0,0,0-3.78-7,32.49,32.49,0,0,1-8.16,10.44.76.76,0,0,1-.54-.42A48.31,48.31,0,0,0,160.74,1.5C165.72,2.52,168.24,3.3,168.24,3.9Z"/><path d="M208.8,2.34c1.56,1.32,2.4,2.22,2.4,2.64s-.3.78-.84,1.08a11.08,11.08,0,0,1-1.56,1.08q-.45,31.68-2.52,38.94c-1,4.8-3.48,7.5-7.44,8q-.81,0-.9-1.62A6.27,6.27,0,0,0,195.3,49a16.82,16.82,0,0,0-2.88-1.8c.06-.3.12-.6.18-.84a40,40,0,0,0,5.94,1.32c1.5,0,2.46-1,2.94-3,.54-3.42,1-7.38,1.38-11.88H197c-1,0-1.8.06-2.58.06-2.46,9.48-6.9,16.92-13.26,22.44-.06-.06-.18-.24-.36-.48,4-5.52,6.72-12.84,8.34-21.84-2.34.12-4.32.24-6,.36a11.54,11.54,0,0,1-1-2.58c1.08.12,3.48.24,7.32.3.42-2.88.78-5.94,1-9.12a28.85,28.85,0,0,0,.24-3c-3,.12-5.52.24-7.5.42a12.73,12.73,0,0,1-1-2.58,83.52,83.52,0,0,0,8.52.36c.12-2.94.18-6.78.18-11.58h-.3a37.18,37.18,0,0,0-7.56.6c-.24-.6-.54-1.44-1-2.64A59.3,59.3,0,0,0,191,4h12.24c1.56-2.16,2.64-3.24,3.18-3.24A6.72,6.72,0,0,1,208.8,2.34Zm-13.92,28.8c1,.06,1.92.06,3,.06H203c.3-3.78.54-7.92.66-12.36H196.5A74.5,74.5,0,0,1,194.88,31.14Zm1.74-17c0,1.08-.06,2.1-.06,3.12h7.14c.06-3.72.12-7.56.12-11.64h-7.08C196.74,7.38,196.68,10.26,196.62,14.1ZM219,4h7.2c1.56-1.8,2.64-2.82,3.36-2.94.3,0,1.26.72,2.94,2.1s2.4,2.34,2.4,2.76-.3.78-.9.9c-1.2.48-2,.84-2.4,1A65.9,65.9,0,0,1,223.38,21c6.42,4.62,9.72,10,10,16.08q0,7.74-5.76,9a1.46,1.46,0,0,1-1.44-1.14,5,5,0,0,0-2.28-3.3A15,15,0,0,0,221,40.38a1.42,1.42,0,0,0,.18-.9,23.13,23.13,0,0,0,4.92.48c1.38-.12,2.1-1.38,2.1-3.72,0-6.54-2-11.58-6.06-15.12,2.16-4,3.66-9.3,4.62-15.78h-7.8V53.46c-.3,1.2-1.38,1.8-3.3,1.8-1.2,0-1.92-.24-2.16-.6,0-8.34.06-16.5.18-24.54V14a120.09,120.09,0,0,0-.42-12.24Z"/><path d="M289.56,45.72c2.94,2.52,4.44,4,4.44,4.74,0,.54-.24.84-.66.84H255.6c-6.9,0-11.22.24-12.9.72a20.57,20.57,0,0,0-1.38-3.12,109.18,109.18,0,0,0,14.16.6h27.24a23.78,23.78,0,0,1,4.56-4.92c.18,0,.36.06.54.06A19.86,19.86,0,0,1,289.56,45.72Zm-25.86-42c0,.48-.36.84-1,1-1.08.48-1.68.84-1.68,1.14v8.7h1.8a16.23,16.23,0,0,1,2.76-3.12,2.6,2.6,0,0,1,.3-.06,8,8,0,0,1,2,1.44,12.23,12.23,0,0,1,2.1,2.4c0,.6-.18,1-.42,1h-8.58v11c2.82-.36,5.64-.84,8.52-1.38a6.45,6.45,0,0,0,.42.9,117.54,117.54,0,0,1-22.74,7.44,6.37,6.37,0,0,0-.6,2.52q-.09.9-.72.9c-.6,0-1.56-1.44-2.88-4.44a31.81,31.81,0,0,0-1.56-3.78q2.34-.09,4.68-.36V15.72a42.9,42.9,0,0,0-.3-5.46c4.8.72,7.26,1.32,7.26,1.86s-.3.72-.84.84c-1,.42-1.56.78-1.56,1.08V28.56c1.8-.18,3.6-.42,5.4-.66V7.68a51,51,0,0,0-.3-5.94C261.06,2.46,263.7,3.12,263.7,3.72Zm17.52,31.5c2.7,2.28,4.08,3.78,4.08,4.44s-.24.78-.6.78H261q-6.48,0-8.1.72A27.65,27.65,0,0,0,251.52,38a35.07,35.07,0,0,0,8,.6h15.36c1.92-2.46,3.3-4,4.2-4.5.12,0,.3.06.54.06A13.76,13.76,0,0,1,281.22,35.22ZM280,4.2c0,.66-1.08,1.32-3.18,2V16.5A43.61,43.61,0,0,0,287.1,8c3.72,2.76,5.64,4.32,5.64,4.68s-.3.72-.78.72a20.56,20.56,0,0,0-2.64-.3,52.92,52.92,0,0,1-12.48,5v7.74c0,1.68,1,2.52,2.88,2.58H284a4.31,4.31,0,0,0,4.2-2.22,28.69,28.69,0,0,0,2-6.6c.6.06,1,.06,1,.06v6.48c0,.6.48,1,1.32,1.26,1,.48,1.44,1,1.44,1.56-.12,1.74-1.8,2.88-4.92,3.42a28,28,0,0,1-5.46.48,40.47,40.47,0,0,1-7.08-.36c-3.24-.12-4.8-2.7-4.8-7.62V8a32.07,32.07,0,0,0-.42-6.12C277.08,2.88,280,3.66,280,4.2Z"/><path d="M314.7,3.54c0,.48-.9.9-2.7,1.14a49.71,49.71,0,0,1-2.88,6.18h7.44a16,16,0,0,1,3-3.42.51.51,0,0,1,.36-.12,7.27,7.27,0,0,1,2.16,1.62,11.13,11.13,0,0,1,2.34,2.64c0,.6-.18,1-.42,1h-8.1v10h3.24A21.21,21.21,0,0,1,322.38,19a.87.87,0,0,1,.36.06,15.32,15.32,0,0,1,3.06,2.76q1.26,1.26,1.26,1.8c0,.54-.36.78-1,.78H315.9V45.42H319c.06-3.9.12-8.16.12-12.72a20.2,20.2,0,0,1-.3-3c4.2.48,6.48,1.08,7,1.8,0,.48-.36.78-1,1-1,.48-1.38.78-1.38.9V48.9c0,.84-1,1.38-2.82,1.5-1.14,0-1.68-.3-1.68-.84,0-.84.06-1.68.06-2.52H307.26v4.38c0,.84-1,1.38-2.88,1.5-1.14,0-1.68-.3-1.68-.84q.18-8.82.18-20.16a18.28,18.28,0,0,1-.24-3c4.14.48,6.48,1.08,7,1.8,0,.48-.36.78-1,1-1,.48-1.38.78-1.38.9V45.42H311V24.36h-5.76a23.11,23.11,0,0,0-4.14.36,9.72,9.72,0,0,1-1.26-2.82,12.9,12.9,0,0,0,4.38.72H311v-10H308.1a23.47,23.47,0,0,1-7,7.62,1.31,1.31,0,0,1-.24-.6C303.9,15,306.06,8.76,307.26.9,312.18,1.92,314.7,2.82,314.7,3.54ZM348.6,11c1.32,1.2,2,2,2.1,2.46s-.78,1.26-2.22,2.22V28q2.07-4.41,2.7-4.5c.3,0,.9.84,1.86,2.46A11.73,11.73,0,0,1,354.66,29c0,.6-.24,1-.72,1H340.2a25.53,25.53,0,0,0,4.2,10.92,19.28,19.28,0,0,0,11.28,8.16,3.28,3.28,0,0,1-.36,1.08,3,3,0,0,0-1.68,1,5.13,5.13,0,0,0-1.14,1.74c-.36,1.38-.9,2.1-1.68,2.1-1.92-.72-4.26-3.24-7.08-7.56-2.82-4.56-4.2-10.38-4.2-17.4H338c-1.2,12.24-7.26,20.7-18.18,25.56a8.55,8.55,0,0,1-.72-.66,34.74,34.74,0,0,0,9.6-11.46,35.88,35.88,0,0,0,4-13.38c-4.32.12-6.48.3-6.48.42a21.71,21.71,0,0,1-1.2-3.06,54.82,54.82,0,0,0,7.86.72c.12-1.62.18-3.3.24-5l.06-9.18h-.6c-3.24,0-5,.24-5.16.6q-.45-1.08-1.08-3.06c1.08.48,3,.66,5.76.66h1.08V5.94c-.12-2.28-.3-4.14-.42-5.52,2.52.42,4.62.84,6.18,1.2s2.52.84,2.52,1.14-.36.6-1,.84c-.9.48-1.5.78-1.86,1l-.18,7.56h4.32c1.56-1.8,2.7-2.76,3.36-2.82A11.5,11.5,0,0,1,348.6,11ZM343.74,28.2V13.92h-5.4l-.18,11.76c0,1-.06,1.8-.06,2.52Z"/><path d="M366.12,20.22c-.12,3.36-1.38,5.1-3.78,5.1-1.5,0-2.28-.6-2.34-1.68a5.61,5.61,0,0,1,1.32-3.06,15.48,15.48,0,0,0,2.28-6c.12-1,.24-1.92.3-2.88a1.91,1.91,0,0,0,.78-.12A28.32,28.32,0,0,1,366.12,20.22ZM372.84,1.8c1.5.24,2.28.66,2.28,1.14s-.36.66-1,.78c-1.08.36-1.56.66-1.56.84V41c.06,6.3.12,10.68.24,13.32q0,1.44-3.78,1.44c-1.26,0-1.86-.36-1.86-1.08.12-2.22.18-6.78.18-13.86V6.24c-.12-1.8-.24-3.6-.48-5.34C368.7,1.14,370.68,1.44,372.84,1.8Zm5.94,15.72c-.12,2-1,3-2.52,3-1.14,0-1.74-.6-1.74-1.86a3.69,3.69,0,0,1,.06-.78c0-.36.06-.84.12-1.44A10.27,10.27,0,0,0,373,11.58c.36-.12.6-.24.6-.36C377,13.26,378.78,15.36,378.78,17.52ZM382.92,40a41.42,41.42,0,0,1,.18,4.56c-.12,4.8-1.92,7.14-5.52,7.26-1.74,0-2.64-.6-2.76-1.74a4.09,4.09,0,0,1,1.68-2.94,11.4,11.4,0,0,0,3.42-2.88A11.28,11.28,0,0,0,382,40ZM413.16,6.54A11.68,11.68,0,0,1,415,8.7c0,.6-.18,1-.42,1H403.08c.06,2,.18,4,.36,6.18a39.49,39.49,0,0,0,1.8,7.32,40.65,40.65,0,0,0,2.64-10.56c4.5,1.8,6.78,2.88,6.78,3.36a.77.77,0,0,1-.6.6,5.45,5.45,0,0,1-2.28.36,29.9,29.9,0,0,1-4.5,10.5,6.13,6.13,0,0,0,3.48,2.82c.6-.12,1.62-2.22,3.18-6.18.36.12.66.3,1,.42a50.07,50.07,0,0,0-1,7.86,6.44,6.44,0,0,0,.9,2.28,3.89,3.89,0,0,1,.42,1.38c0,.9-.72,1.32-2.1,1.32a5.23,5.23,0,0,1-2.64-.66,13.55,13.55,0,0,1-6.54-5.4,28.12,28.12,0,0,1-7.38,4.86c-.18-.3-.3-.54-.42-.72a30.56,30.56,0,0,0,6.18-6.9c-2.28-4.56-3.54-10.8-3.9-18.84H384.18l.12,3.18c0,7.5-.36,12.6-1,15.24a25.48,25.48,0,0,1-1.8,5.94,15.13,15.13,0,0,1-5.7,7.08c-.48,0-.72-.24-.72-.6,2.76-4.2,4.14-11.88,4.14-23.1V9.9a18.2,18.2,0,0,0-.42-4l5,2h14.7a69.16,69.16,0,0,0-.3-7.26c4.74.54,7.2,1.08,7.38,1.68,0,.3-.24.6-.66.84a16.93,16.93,0,0,0-1.92,1c0,1.26,0,2.52.06,3.78h5.52a14.41,14.41,0,0,1,2.52-2.7.62.62,0,0,1,.24-.06A7.17,7.17,0,0,1,413.16,6.54Zm-17.28,5.94a17.5,17.5,0,0,1,3.06,3.18c0,.54-.18.78-.48.78h-6.84a27.37,27.37,0,0,0-5.76.48c-.24-.72-.48-1.5-.84-2.4a39.59,39.59,0,0,0,6.6.42h.6a24.48,24.48,0,0,1,2.16-2.58A1.1,1.1,0,0,1,395,12,3.25,3.25,0,0,1,395.88,12.48Zm-2.1,28.68c0,.66-1,1.32-3,1.92v4.26c0,1.5.9,2.28,2.7,2.4h4.86c1.92-.06,3.18-.72,3.84-2.1.54-.84,1.14-2.94,1.86-6.24a8.17,8.17,0,0,0,1,.06v6.12c0,.54.42.9,1.14,1.14.9.48,1.38,1,1.38,1.44-.12,1.62-1.68,2.7-4.56,3.24a41,41,0,0,1-5.46.42,50.59,50.59,0,0,1-7-.3c-3-.24-4.5-2.58-4.5-7.08V44.76a30.81,30.81,0,0,0-.36-5.76C391,40,393.78,40.68,393.78,41.16Zm-4.62-20.22h3.66c1.2-1.32,2-2,2.52-2.1a10,10,0,0,1,2.52,1.44c1.14.84,1.74,1.5,1.74,1.86a1.08,1.08,0,0,1-.66.9,5.86,5.86,0,0,0-1.2,1.08v4.56c.18,1.8.3,2.94.3,3.42,0,1-.84,1.56-2.46,1.56-1.26,0-1.92-.24-1.92-.84v-1h-3.54v1.32c-.24,1-1.08,1.44-2.58,1.44-1,0-1.5-.12-1.68-.48,0-2.28.06-4.56.18-6.72V22.92a21.25,21.25,0,0,0-.36-3.36Zm4.5,9.3V22.5h-3.54v7.74Zm7.8,11.4a5.6,5.6,0,0,1-.3,1.92A2.16,2.16,0,0,1,399,45.12c-.6,0-1.38-1-2.4-2.94a17.46,17.46,0,0,0-3.54-4.74,1.34,1.34,0,0,0,.42-.72C398.58,37.32,401.22,38.94,401.46,41.64Zm7-40.62c1.56.66,2.34,1.44,2.34,2.28a2.57,2.57,0,0,1-.9,2.1,1.75,1.75,0,0,1-1.44.48c-.6,0-1-.48-1.14-1.44a8.59,8.59,0,0,0-.72-1.86,14.53,14.53,0,0,0-1.38-1.8,3.92,3.92,0,0,0,.42-.48A12.75,12.75,0,0,1,408.48,1Zm3.18,39.9c2.28,1.68,3.48,3.6,3.48,5.76A3.46,3.46,0,0,1,414,49.62a3.24,3.24,0,0,1-2,.6c-1,0-1.68-1.14-2-3.48a22,22,0,0,0-1.32-4.5,15.6,15.6,0,0,0-1.86-2.46c.12-.18.36-.42.6-.72A11.17,11.17,0,0,1,411.66,40.92Z"/><path d="M458.64,3.42a.61.61,0,0,1-.48.66c-.42.18-1,.42-1.56.72s-.9.54-.9.72v8.76h1.86a32.63,32.63,0,0,1,2.76-3.42,1.2,1.2,0,0,1,.66-.42,3.49,3.49,0,0,1,1.2.6c2.28,2,3.54,3.36,3.84,4,0,.48-.18.72-.48.72H455.7v12.3a74,74,0,0,0,9.54-2.4,3.38,3.38,0,0,0,.24.72,32.21,32.21,0,0,1-9.78,5.4V47.64q0,7.56-6.12,7.56c-.84,0-1.26-.36-1.26-1a5,5,0,0,0-2.28-3,9.43,9.43,0,0,0-4-1.44,2.1,2.1,0,0,0,.18-1c1.14.12,3.54.12,7.14.12.6,0,1-.54,1-1.62V33.54c-1.5.42-3,.78-4.56,1.14q-.18,3.06-1.08,3.06c-.36,0-1.14-1.38-2.34-4.2a19.1,19.1,0,0,1-1.32-4,78.12,78.12,0,0,0,9.3-.6V15.78h-2.88a27.13,27.13,0,0,0-5.7.48c-.24-.66-.48-1.44-.84-2.4a38.21,38.21,0,0,0,6.54.42h2.88V8.64A55,55,0,0,0,449.88,1C455.22,2,458.16,2.76,458.64,3.42ZM488,12.24a15.62,15.62,0,0,1,3.42,2.46,14.35,14.35,0,0,1,2,2c0,.72-.3,1.08-.78,1.08-6.6.84-12.18,1.5-16.74,2.1.24,2.88.48,5.4.84,7.56a61.62,61.62,0,0,0,2,7,40.28,40.28,0,0,0,8-12.66c4.5,2.52,6.78,4.26,6.78,5.22,0,.3-.36.42-1,.42a16.74,16.74,0,0,0-2.64.12,41.32,41.32,0,0,1-9.42,11.34c2.16,4.56,4.62,7.32,7.5,8.34,1,0,2.34-2.76,4.26-8.4.6.06,1,.12,1,.24a30.18,30.18,0,0,0-1.44,8.64,4.92,4.92,0,0,0,1.14,2.46,5.11,5.11,0,0,1,1.5,2.88c0,1.08-.9,1.68-2.64,1.8-2.76,0-5.88-1.2-9.3-3.6a28.67,28.67,0,0,1-6.54-8.82,48.63,48.63,0,0,1-18.42,8.28,3.48,3.48,0,0,0-.78-.9,57.93,57.93,0,0,0,17.4-11l.12-.12a59.3,59.3,0,0,1-3.72-18.06c-5.82.84-9.12,1.32-10,1.56-.42-.78-.9-1.68-1.5-2.7q4.14,0,11.34-.72a1.49,1.49,0,0,1-.06-.48c-.48-8.34-.9-14-1.26-17,6.12.6,9.24,1.2,9.36,1.74,0,.36-.3.66-.84.9A20.14,20.14,0,0,1,475.5,5q0,7.47.36,13.14c2.58-.3,5.4-.66,8.4-1.08C486,14.22,487.26,12.6,488,12.24Zm1.08-3.78a5.6,5.6,0,0,1-.3,1.92,2.16,2.16,0,0,1-2.16,1.56c-.72,0-1.8-1-3.12-3A17.53,17.53,0,0,0,479,4.08a1.59,1.59,0,0,0,.36-.66Q488.76,4.32,489.12,8.46Z"/><path d="M533.94,2.82c0,.6-.42,1-1.14,1.08-1.26.54-1.92,1-1.92,1.38V23.76H543c.06-4.14.12-8.7.12-13.62a22.65,22.65,0,0,1-.3-3.78c5.16.66,8.1,1.44,8.7,2.28q0,.9-1.26,1.26c-1.14.54-1.68.9-1.68,1.08V27.06c0,1.08-1.2,1.68-3.54,1.8-1.44,0-2.16-.3-2.16-1s.06-1.62.06-2.46H530.88V49.2h13.44c.06-4.44.12-9.24.12-14.4a23.37,23.37,0,0,1-.36-3.78c5.22.66,8.1,1.44,8.7,2.28,0,.6-.42,1-1.2,1.26-1.14.54-1.68.9-1.68,1.08V53.58c0,1.08-1.2,1.74-3.6,1.86-1.44,0-2.1-.36-2.1-1.08,0-1.2.06-2.4.06-3.6H511.08V53.7c0,1.08-1.2,1.68-3.54,1.8-1.44,0-2.16-.36-2.16-1,.12-5.76.24-12.42.24-19.86a22.65,22.65,0,0,1-.3-3.78c5.16.66,8.1,1.44,8.7,2.28q0,.9-1.26,1.26c-1.14.54-1.68.9-1.68,1.08V49.2h14.16V25.38H513.18v1.68c0,1.08-1.2,1.68-3.54,1.8-1.44,0-2.1-.3-2.1-1,.12-5.22.24-11.16.24-17.88a23.37,23.37,0,0,1-.36-3.78c5.16.66,8.1,1.44,8.7,2.28,0,.6-.42,1-1.2,1.26-1.2.54-1.74.9-1.74,1.08v13h12.06V7.38a52.47,52.47,0,0,0-.36-6.9C530.88,1.38,533.94,2.16,533.94,2.82Z"/><path d="M609.9,33c2.76,2.28,4.14,3.78,4.14,4.44s-.24.78-.66.78h-22.8a28.56,28.56,0,0,0,10.68,7.5,35.11,35.11,0,0,0,13.8,2.88,6.54,6.54,0,0,1-.24,1.32,4.63,4.63,0,0,0-1.74,1.2,16.11,16.11,0,0,0-1.38,2.76c-.3.9-.78,1.38-1.44,1.38-2.22,0-5.88-1.74-11-5.1A27.87,27.87,0,0,1,588.9,38.22h-1a19.4,19.4,0,0,1-7.26,10.32c-5,3.54-11.58,5.94-19.68,7.2a2.62,2.62,0,0,1-.36-1.08,38.36,38.36,0,0,0,12.42-5.34A22.2,22.2,0,0,0,580.74,41a15.33,15.33,0,0,0,1.2-2.82h-6c-6.84,0-11.16.24-12.84.72a27.65,27.65,0,0,0-1.38-3.12,111.86,111.86,0,0,0,14.34.6h6.36a32.28,32.28,0,0,0,.72-7.26c2,.54,4.32,1.08,6.84,1.68,1.56.48,2.34,1,2.34,1.38s-.3.78-.9,1c-.84.36-1.68.78-2.64,1.2-.12.72-.24,1.38-.36,2h15.12a22.73,22.73,0,0,1,4.2-4.5c.18,0,.36.06.6.06A13.55,13.55,0,0,1,609.9,33ZM602.64,3.6q0,.72-3.6,1.08a18.6,18.6,0,0,1-5.88,4.62h9.48c1.8-2.28,3.06-3.66,3.9-4.14.12,0,.3.06.48.06a15.36,15.36,0,0,1,1.5,1c2.52,2.16,3.78,3.48,3.78,4.08s-.24.84-.6.84H590.22v6.78h8.16A18.35,18.35,0,0,1,602,14.1c.12,0,.3.06.48.06a13,13,0,0,1,1.32.9c2.34,2,3.54,3.24,3.54,3.78s-.24.84-.66.84H590.22v7.14h13.32a25.83,25.83,0,0,1,4.2-4.56c.18,0,.36.06.6.06.48.3,1,.66,1.56,1.08,2.76,2.28,4.14,3.78,4.14,4.38s-.24.84-.66.84H575.7c-6.9,0-11.22.24-12.9.72a27.65,27.65,0,0,0-1.38-3.12,114.09,114.09,0,0,0,14.46.6h8.52V19.68h-5.94c-5.16,0-8.4.24-9.66.66-.42-1-.9-2-1.38-3.06a60.57,60.57,0,0,0,10.56.6h6.42V11.1h-7.86c-6.48,0-10.44.24-12,.72-.42-1-.9-2-1.44-3.12a100.28,100.28,0,0,0,13.56.6h14.7A25.16,25.16,0,0,0,594.54,0Q602.64,2.43,602.64,3.6Zm-23.34-2c2.82,1.08,4.26,2.4,4.26,3.9a3.35,3.35,0,0,1-1.08,2.7,2.75,2.75,0,0,1-1.86.54,3.16,3.16,0,0,1-3.24-2.34,10.12,10.12,0,0,0-2.16-3.12A16.49,16.49,0,0,0,573.48,1,4.38,4.38,0,0,1,574,.36,23.55,23.55,0,0,1,579.3,1.62Z"/><path d="M672.48,5.7a11.13,11.13,0,0,1,2.34,2.64c0,.6-.18,1-.42,1H657.78a37.46,37.46,0,0,0,3.42,12.78,67.73,67.73,0,0,0,4.2-9.48c5.28,1.8,8,3.12,8,3.9,0,.54-1.2.9-3.6,1a47.77,47.77,0,0,1-5.94,8.88,18.94,18.94,0,0,0,6.06,5.16c1.26-.06,2.52-2.82,3.84-8.34,0,.12.24.18.66.18-.48,2.46-1,4.8-1.32,7a3,3,0,0,0,.78,2.1,6.15,6.15,0,0,1,1.32,3.3c-.24,1.14-1.26,1.68-3.12,1.68-4.44,0-8.52-2.28-12.12-6.9a49.17,49.17,0,0,1-7.8,6.06c-.3-.36-.6-.66-1-1a57.1,57.1,0,0,0,6.66-8,15.64,15.64,0,0,1-1-1.68c-2-3.72-3.42-9.24-4.26-16.56h-22.2l.12,2.1c0,7.14-.42,12-1.14,14.58a20.56,20.56,0,0,1-2,5.64,15.25,15.25,0,0,1-6.54,6.78.59.59,0,0,1-.66-.6c3.48-4,5.28-11.28,5.28-21.84V8.88A15.36,15.36,0,0,0,625,5.22l6.06,2.46h21.3c-.3-2.28-.48-4.68-.6-7.26,4.74.72,7.14,1.32,7.14,1.74s-.12.54-.36.6c-.78.36-1.2.72-1.2,1a39,39,0,0,0,.24,4H667a17,17,0,0,1,3-3.48.46.46,0,0,1,.3-.12A8.08,8.08,0,0,1,672.48,5.7ZM630.3,39.54a46.93,46.93,0,0,1,.18,4.92c-.06,5-2,7.5-6,7.62-1.92,0-2.88-.66-3-1.86A4.31,4.31,0,0,1,623.4,47a11.8,11.8,0,0,0,3.66-3.06,10.61,10.61,0,0,0,2.22-4.44A6.89,6.89,0,0,1,630.3,39.54Zm6.3-17.76h8.76c1.32-1.38,2.28-2.1,2.76-2.16a9.08,9.08,0,0,1,2.76,1.56c1.2,1,1.86,1.62,1.86,2s-.3.66-.9,1a13.6,13.6,0,0,0-1.68,1.14v4.2c.18,1.68.3,2.7.3,3.18,0,1.14-.9,1.74-2.64,1.74-1.38,0-2.1-.3-2.1-1V32.22H637.2v1.2c-.24,1.14-1.26,1.68-3.06,1.68-1.08,0-1.74-.18-2-.6,0-2.28.06-4.5.18-6.72V23.34a14,14,0,0,0-.42-3.36ZM649,12.12c2.1,1.92,3.3,3.12,3.54,3.72,0,.54-.18.78-.42.78H638.7a28.2,28.2,0,0,0-5.76.48c-.24-.72-.48-1.5-.78-2.4a38.21,38.21,0,0,0,6.54.42h5.94A28.56,28.56,0,0,1,647.22,12c.24-.3.48-.48.66-.48A3.35,3.35,0,0,1,649,12.12ZM642.48,39.3c0,.66-1.08,1.32-3.24,2v5.22c0,1.62,1,2.46,2.88,2.58h10.74c2,0,3.48-.66,4.2-2,.6-.84,1.26-2.88,2-6.06a9.6,9.6,0,0,0,1,.06V47.1c0,.48.42.9,1.26,1.14,1,.48,1.56.9,1.56,1.38-.12,1.74-1.8,2.88-5,3.48-2.7.24-5.46.42-8.28.42-5.64,0-9.24-.12-10.8-.3-3.24-.18-4.8-2.76-4.8-7.68V43.08a32.07,32.07,0,0,0-.42-6.12Q642.48,38.49,642.48,39.3Zm3.24-8.7V23.28H637.2V30.6Zm8.1,11.58a5.12,5.12,0,0,1-.3,1.8,2,2,0,0,1-2,1.44c-.72,0-1.68-1.08-2.88-3.3a19.06,19.06,0,0,0-4.2-5.34,2.15,2.15,0,0,0,.36-.66C650.58,36.84,653.58,38.82,653.82,42.18ZM667.5,3.66a7.26,7.26,0,0,1-.24,1.8,2.05,2.05,0,0,1-2,1.44c-.6,0-1.38-.66-2.34-2a12.76,12.76,0,0,0-3.42-3.3,2.15,2.15,0,0,0,.36-.66C664.74,1.26,667.32,2.16,667.5,3.66ZM674,48.36a3.36,3.36,0,0,1-1.14,2.82,3.23,3.23,0,0,1-1.92.66c-1.44,0-2.4-1.5-2.94-4.5a17.12,17.12,0,0,0-4-7.92,6,6,0,0,0,.72-.66C670.86,42.12,674,45.36,674,48.36Z"/></g></g></svg>