<svg xmlns="http://www.w3.org/2000/svg" viewBox="0 0 614.76 55.62"><g id="图层_2" data-name="图层 2"><g id="图层_1-2" data-name="图层 1"><path d="M.84,36.72a11.52,11.52,0,0,0-.84-.9,61.75,61.75,0,0,0,13-23c4.86,1.68,7.32,2.88,7.32,3.6,0,.48-1.08.84-3.24,1a44.61,44.61,0,0,1-4.26,7.38V48.9C13,50.22,13,52,13,54.18c0,.84-1,1.32-3,1.44-1.56,0-2.4-.18-2.4-.54.06-1,.12-3.12.12-6.48V30.84A50.24,50.24,0,0,1,.84,36.72Zm17-32.82c0,.72-1,1.14-2.82,1.32-3.54,6.54-8,11.34-13.38,14.46a6.08,6.08,0,0,0-1-.6,37.7,37.7,0,0,0,10-17.94C15.48,2.64,17.88,3.54,17.88,3.9ZM38,4.14c-.06.54-1.14.84-3.3.9A26,26,0,0,1,28,12.84c4-.06,7.08-.12,9.48-.24a32.85,32.85,0,0,0,4.44-7.26C46.68,8,49.08,9.6,49.08,10.2s-.42.72-1.14.72-1.56.06-2.28.06a86,86,0,0,1-18,12.48c7.92-.12,14.22-.3,18.78-.66a25.44,25.44,0,0,0-4-5.16,1.24,1.24,0,0,1,.36-.6c6.6,2.64,10,5.7,10.2,9.3a4.13,4.13,0,0,1-.78,2.88,2.09,2.09,0,0,1-1.68.72c-.78,0-1.62-1.32-2.46-4-.24-.6-.54-1.2-.78-1.74-3.6,1-8.16,1.86-13.74,2.76a9.5,9.5,0,0,1-1,1.74,37.78,37.78,0,0,1-2.58,3.78H40.32c1.86-1.86,2.94-2.82,3.24-2.82.48,0,1.26.54,2.4,1.5,1.8,1.56,2.7,2.58,2.7,3.18s-.9,1.14-2.64,1.74a25.55,25.55,0,0,1-6.6,9.54,50.21,50.21,0,0,0,15.3,3.72,4,4,0,0,0-.18,1.26,3.52,3.52,0,0,0-1.74.66,4.86,4.86,0,0,0-1.68,2.46Q50.67,55,50,55c-3.3-.6-7.44-2.4-12.36-5.34a16.49,16.49,0,0,1-2-1.38,4.48,4.48,0,0,1-.72.42A53.16,53.16,0,0,1,15.24,55.2a1.8,1.8,0,0,0-.42-.84,55.5,55.5,0,0,0,18.06-8.52,35,35,0,0,1-6.42-9.48,47.15,47.15,0,0,1-9.54,7.14,3,3,0,0,1-.6-.78C21.42,37.92,25.08,33,27.24,28c-2.16.36-4.44.66-6.72.9-.3,1.8-.66,2.64-1.14,2.64s-.84-.78-1.38-2.4a50.82,50.82,0,0,1-1.8-5.88,30.44,30.44,0,0,0,5.52.36c1.2,0,2.28,0,3.36-.06a66.7,66.7,0,0,0,10.44-8.7c-3.12.84-7.14,1.74-12.06,2.58-.24,1.56-.6,2.28-1,2.28s-.66-.66-1.14-2-1-3-1.56-5a23.44,23.44,0,0,0,4.74.3h1.38a32.66,32.66,0,0,0,5-12.3C35.64,2.4,38,3.6,38,4.14ZM35.28,43.56a25,25,0,0,0,5.64-9.42H28.62c-.48.54-.84,1-1.2,1.32A32.74,32.74,0,0,0,35.28,43.56Z"/><path d="M109.68,6.36c2.76,2.34,4.14,3.84,4.14,4.44s-.24.84-.66.84H89.94V25.2A30.38,30.38,0,0,0,100,36c5.34,3.78,10.14,6.06,14.34,6.9a3.15,3.15,0,0,1-.12,1.08,4.61,4.61,0,0,0-2.4,2c-.24.78-.42,1.5-.66,2.1s-.42.9-.72.9c-2.88,0-7.56-3.66-14.16-11.1a56.66,56.66,0,0,1-6.36-9.6V39.48c.12,6.84.18,11.58.3,14.34,0,1-1.38,1.56-4.08,1.56-1.38,0-2-.42-2-1.2.12-2.4.18-7.32.24-14.88V34.56Q73.2,46.08,60.9,50.76c-.18-.24-.36-.48-.6-.78q14.58-8.55,24.06-24.9V11.64H75.42c-6.9,0-11.22.24-12.9.72a20.57,20.57,0,0,0-1.38-3.12,114.09,114.09,0,0,0,14.46.6h8.76V6.48Q84.18,3.6,83.82.72c2,.3,4.14.6,6.42,1,1.62.3,2.46.72,2.46,1.26s-.36.66-1.08.78c-1.14.42-1.68.72-1.68,1V9.84h13.38a25.83,25.83,0,0,1,4.2-4.56c.18,0,.36.06.6.06A13.55,13.55,0,0,1,109.68,6.36ZM78.9,17.46c0,.78-1,1.26-3,1.44-.48,1.2-1,2.22-1.44,3.18a17.79,17.79,0,0,1,2.58,1c2.4,1.26,3.66,2.76,3.66,4.44a3.63,3.63,0,0,1-1.14,2.94,3.23,3.23,0,0,1-2,.54c-1.14,0-1.92-.84-2.28-2.64a15.93,15.93,0,0,0-1.5-3.54c-.12-.24-.3-.42-.42-.66A37.9,37.9,0,0,1,62.94,37a6.37,6.37,0,0,0-1-.6c4.44-5.76,7.5-13.08,9.3-22C76.32,16.08,78.9,17.1,78.9,17.46Zm28.68-.12q0,1.17-3.06,1.44A27.11,27.11,0,0,1,102.84,22c5.4,1.92,8.22,4.14,8.4,6.54q0,2.52-.9,3.42a2.37,2.37,0,0,1-1.92.78c-.78,0-1.62-1.14-2.46-3.42a22.38,22.38,0,0,0-4.08-5.76,23.78,23.78,0,0,1-6.6,7c-.36-.24-.72-.42-1-.6a41.43,41.43,0,0,0,5.58-15.66Q107.58,16.8,107.58,17.34Z"/><path d="M170.4,12.42c2.76,2.28,4.14,3.78,4.14,4.44s-.24.84-.66.84H158V48.42c-.3,4-2.64,6.3-7.08,6.9-.72,0-1.2-.54-1.32-1.62-.36-1.2-1.68-2.28-4-3.36A19.57,19.57,0,0,0,141.06,49a3.13,3.13,0,0,1,.24-1.26,75.76,75.76,0,0,0,8,.72c1.92,0,2.94-.72,2.94-2.22V17.7h-1.14a37.92,37.92,0,0,1-2.52,5.82q-6.75,16.11-26.7,25.38-.45,0-.72-.9,16.47-12.06,21.6-26c.78-1.74,1.32-3.18,1.68-4.26h-7.74c-6.78,0-11,.24-12.66.66-.42-1-.9-2-1.44-3.12a110.28,110.28,0,0,0,14.22.6h15.42v-.72C152.22,8,152.1,3,151.86.24A63.17,63.17,0,0,1,159.6,1.8a.89.89,0,0,1,.36.78c0,.36-.3.66-.9,1a6.1,6.1,0,0,0-1.08.6v11.7H164c1.92-2.46,3.3-4,4.2-4.5.18,0,.36.06.54.06A13.76,13.76,0,0,1,170.4,12.42Z"/><path d="M196.32,4.14c0,.6-1,1-2.94,1.2a52.58,52.58,0,0,1-2.7,6.54h9.18A19.92,19.92,0,0,1,203.1,8a.85.85,0,0,1,.36-.12,11.3,11.3,0,0,1,2.4,1.74,11,11,0,0,1,2.52,2.94c0,.6-.18.9-.42,1h-9c-.06,1.56-.12,3.6-.12,6.12a69.52,69.52,0,0,1-.36,7.32h2.76A27.48,27.48,0,0,1,205,22.62a1.47,1.47,0,0,1,.42.06c.42.12,1.62,1.14,3.54,3.18,1,1,1.44,1.68,1.44,2.1s-.3.78-.9.78H198.3a48.73,48.73,0,0,1-1.14,5.88q11.52,6.12,11.7,11.16a4.47,4.47,0,0,1-.72,2.94,2.48,2.48,0,0,1-2.16,1q-2.52,0-3.24-3.78c-1.38-4.44-3.3-7.86-5.82-10.26-2.64,9.66-8,15.9-16.2,18.84a5.08,5.08,0,0,0-.36-1c7-4.8,11.1-13,12.3-24.72h-6.6a28.29,28.29,0,0,0-4.62.36,10.93,10.93,0,0,1-1.32-2.82,15.75,15.75,0,0,0,4.8.72h7.92c.12-2,.24-4.2.24-6.42,0-1.44.06-3.78.12-7h-3.42A29.91,29.91,0,0,1,181.5,23.7a1.34,1.34,0,0,1-.3-.66c3.36-5.4,5.7-12.6,7-21.72C193.62,2.4,196.32,3.36,196.32,4.14Zm19.56,4h9.66c1.8-2.1,2.94-3.18,3.42-3.18a9.83,9.83,0,0,1,2.64,1.5q2.52,1.89,2.52,2.52t-.9,1.08a11.38,11.38,0,0,0-1.62,1.32V35c.06,8.16.18,13.62.3,16.38,0,1.26-1.32,1.92-4,1.92-1.08,0-1.62-.48-1.62-1.32V47.58H216.6v4.5c-.3,1.2-1.38,1.8-3.3,1.8-1.2,0-1.92-.24-2.16-.6,0-7.44.06-14.76.18-21.9V17.1c-.12-6.12-.24-9.78-.42-10.92ZM226.32,46V9.66H216.6V46Z"/><path d="M256,15c1.26,1.2,1.92,2,1.92,2.46s-.6.9-1.8,1.38a3.22,3.22,0,0,0-1.2.54c-2.82,4.92-5,8.64-6.6,11.22h3.18c1.38-1.8,2.22-2.76,2.52-2.76a6.77,6.77,0,0,1,2.64,1.32c1.44,1,2.16,1.68,2.16,2s-.36.72-1.08,1.08-1.14.6-1.26,1a39.28,39.28,0,0,1-4.62,11.4c1.62,1.5,4.14,2.64,7.56,3.36,2.88,1,8.4,1.38,16.56,1.38,8.88-.24,15-.78,18.36-1.5,0,.6,0,1,.12,1.08a5.75,5.75,0,0,0-1.74,1,3.33,3.33,0,0,0-1,2.1,1.73,1.73,0,0,1-2,1.92c-8.46,0-13.44-.18-15-.42-8.22,0-14.1-1-17.7-2.82a19.65,19.65,0,0,1-5.94-5,27.86,27.86,0,0,1-1.86,2.4A25.51,25.51,0,0,1,240.36,55a.8.8,0,0,1-.42-.48,38.38,38.38,0,0,0,7.56-9.66A36,36,0,0,0,251.76,32h-4.32c-.48.78-.9,1.38-1.14,1.8-.24.6-.9.9-2,.9-1.86-.12-2.76-.54-2.76-1.38,3.48-5.64,6.48-10.92,9.06-15.9H243.3c-.6.06-1.32.18-2.16.3-.36-.78-.66-1.5-1-2.16a14.48,14.48,0,0,0,2.82.3h7.32c1.8-1.74,2.82-2.64,3.06-2.64C254,13.26,254.82,13.86,256,15ZM250.2,3.3c2.7,1.74,4.08,3.78,4.08,6.06a3.65,3.65,0,0,1-1.2,2.94,2.7,2.7,0,0,1-2,.6c-1.44,0-2.34-1.2-2.82-3.66a19.88,19.88,0,0,0-1.86-4.74A15.6,15.6,0,0,0,244.56,2q.18-.27.54-.72A16.76,16.76,0,0,1,250.2,3.3Zm40.92,4.2c2.1,1.8,3.18,3,3.18,3.48s-.24.84-.66.84H278.1a23.43,23.43,0,0,1-5.4,6.24h9.84c1.8-2.22,2.94-3.36,3.42-3.36a9.07,9.07,0,0,1,2.7,1.5q2.52,1.89,2.52,2.52t-.9,1.08a12.7,12.7,0,0,0-1.44,1.32v13.5c.12,4.68.18,7.8.3,9.36,0,1.32-1.32,1.92-4,1.92-1.08,0-1.56-.42-1.56-1.32V42.24H266.76v1.92q-.36,1.8-3.24,1.8c-1.2,0-2-.18-2.22-.6,0-4.68.06-9.24.24-13.68V22.74a54.81,54.81,0,0,0-.42-6.78l5.46,2.1h4a44.87,44.87,0,0,0,1.08-6.24H267c-4.92,0-7.92.24-9.12.72a20.57,20.57,0,0,0-1.38-3.12,55.89,55.89,0,0,0,10.14.6H277.8a29.74,29.74,0,0,0,3.06-10c4.56,1.38,6.9,2.4,6.9,3.06,0,.48-1,.78-3.06,1a18.63,18.63,0,0,1-5.58,6h7a17,17,0,0,1,3.3-3.36h.42C290.22,6.9,290.64,7.14,291.12,7.5ZM268.38,2.1c2.4,1.32,3.66,2.82,3.66,4.56a3.29,3.29,0,0,1-1,2.52,2.42,2.42,0,0,1-1.74.48q-1.89,0-2.52-2.7A14.87,14.87,0,0,0,265,3.42a11.21,11.21,0,0,0-1.62-2.16c.12-.12.3-.36.54-.6A16.76,16.76,0,0,1,268.38,2.1Zm15.24,17.52H266.76V25.5h16.86Zm0,7.5H266.76v5.82h16.86Zm0,13.5V34.56H266.76v6.06Z"/><path d="M370.38,2.94c2.76,2.28,4.14,3.78,4.14,4.44s-.24.78-.66.78H354.78a19.69,19.69,0,0,1-2.88,5.16A43.77,43.77,0,0,1,349.32,17c2.34.72,3.54,1.26,3.54,1.62s-.48.66-1.32.9-1.26.66-1.26.84V39c.12,5,.24,9.84.24,14.28-.18,1-1.5,1.62-3.9,1.8-1.56,0-2.34-.42-2.34-1.2.12-4.86.24-9.78.24-14.76V22.8A81.94,81.94,0,0,1,322.2,39.36a3.93,3.93,0,0,1-.72-1q17.82-13.32,25.14-27.54c.54-1,1-1.92,1.32-2.7H336.18c-6.9,0-11.22.24-12.9.72-.42-1-.9-2-1.38-3.12a112.34,112.34,0,0,0,14.4.6H364c1.92-2.46,3.3-4,4.2-4.5.18,0,.36.06.54.06A13.76,13.76,0,0,1,370.38,2.94Zm3.24,32.46a3.1,3.1,0,0,1-1.32,2.94,2.64,2.64,0,0,1-1.5.36c-1.92,0-3.54-1.56-4.86-4.8a38.18,38.18,0,0,0-12.06-13.44c0-.06.18-.24.6-.54C367.08,25.62,373.5,30.78,373.62,35.4Z"/><path d="M395,29q-10.71,0-13.32.72a29.38,29.38,0,0,0-1.44-3.12,128.27,128.27,0,0,0,15.3.6h29.34c1.8-2.28,3.06-3.66,3.9-4.14.12,0,.3.06.54.06.42.24.9.6,1.44,1,2.52,2.16,3.84,3.48,3.84,4.08s-.24.84-.66.84H411.36v8.16h9.36a22.77,22.77,0,0,1,3.48-4.2.87.87,0,0,1,.42-.12,11.45,11.45,0,0,1,2.58,1.86,12.26,12.26,0,0,1,2.7,3.12c0,.6-.12,1-.36,1H411.36v9.6A124.57,124.57,0,0,0,423.9,49c4.26,0,8-.12,11.34-.42l.06,1.2a4.36,4.36,0,0,0-2.46,1.44,8,8,0,0,0-.78,2,1.47,1.47,0,0,1-1.62,1.44c-1.8,0-4.32-.06-7.44-.06-10.2-.24-17.46-1.62-21.9-4.08a14.81,14.81,0,0,1-6.72-7.5,16.52,16.52,0,0,1-1.68,2.88q-3.33,5.76-11.16,9.72a3,3,0,0,0-.66-1c5.82-5.22,9.06-11.28,9.72-18.24,0-1.44.06-2.82.06-4.08,5.52.72,8.34,1.32,8.34,1.86s-1,1.2-2.82,1.92a25.23,25.23,0,0,1-.9,4.62c2,2.88,4.14,4.68,6.36,5.52A15.58,15.58,0,0,0,406,47.64V29Zm-1-24.9h24.6c1.68-2,2.82-3,3.48-3.06a11.52,11.52,0,0,1,3.42,1.92c1.56,1.2,2.34,2.1,2.34,2.58s-.36.84-1.08,1.2a11.12,11.12,0,0,0-1.92,1.44v7.92c.24,3.12.36,5.1.36,6,0,1.44-1.14,2.16-3.3,2.16-1.68,0-2.58-.36-2.64-1.2V21.66h-24V23C395,24.36,393.9,25,391.86,25c-1.32,0-2.1-.18-2.34-.66,0-3.48.06-6.9.24-10.26V7.32a22.93,22.93,0,0,0-.48-5.1ZM419.34,12V5.58h-24V12Zm0,8.1V13.56h-24V20.1Z"/><path d="M454.08,15.24c1.26,1.2,1.92,2,1.92,2.46s-.6.9-1.8,1.38a4.47,4.47,0,0,0-1.14.48q-2.88,6.84-4.5,10.62h1.86c1.5-1.44,2.4-2.22,2.76-2.22A6.67,6.67,0,0,1,456,29.34c1.56,1.08,2.4,1.86,2.4,2.28s-.42.78-1.2,1.14-1.2.72-1.32,1.08a40.63,40.63,0,0,1-3.72,9.84,17,17,0,0,0,7.38,3.6c2.88,1,8.28,1.5,16.32,1.5,8.76-.24,14.76-.78,18.06-1.62,0,.66,0,1.08.12,1.2a6.53,6.53,0,0,0-1.86,1.08,3.71,3.71,0,0,0-1.08,2.22c0,1.32-.72,2-2.16,2a144.25,144.25,0,0,1-14.58-.42c-8,0-13.8-1.08-17.28-3.12a17.9,17.9,0,0,1-5.64-5.22A22.85,22.85,0,0,1,449,48.36,24,24,0,0,1,440.64,55a1.94,1.94,0,0,1-.48-.54A37.13,37.13,0,0,0,447,44.64a39.44,39.44,0,0,0,3.78-13H448c-.42,1-.78,1.68-1,2.22s-1,.9-2,.9c-1.92-.12-2.82-.54-2.82-1.38,2.52-5.64,4.74-10.92,6.66-16H443a20.11,20.11,0,0,0-2.16.36c-.36-.84-.66-1.56-1-2.22a14.48,14.48,0,0,0,2.82.3h5.7a15,15,0,0,1,3.12-2.4Q452.46,13.44,454.08,15.24ZM449.22,2.76c2.7,1.68,4.08,3.6,4.08,5.88a3.63,3.63,0,0,1-1.14,2.94,3,3,0,0,1-2,.6c-1.38,0-2.28-1.14-2.76-3.54A19.7,19.7,0,0,0,445.5,4a15.6,15.6,0,0,0-1.86-2.46c.12-.18.36-.42.6-.72A16,16,0,0,1,449.22,2.76Zm41.22,3.48c2.28,2,3.48,3.24,3.48,3.84s-.24.78-.66.78H466.68c-4.86,0-7.92.24-9.12.72a27.65,27.65,0,0,0-1.38-3.12,52.91,52.91,0,0,0,9.84.6h19a17.53,17.53,0,0,1,3.6-3.72h.48A13.33,13.33,0,0,1,490.44,6.24Zm-3.9,15c2.1,1.8,3.18,3,3.18,3.48s-.24.78-.6.78h-20q-5.58,0-6.84.72c-.42-1-.9-2-1.44-3.12a28.2,28.2,0,0,0,7.14.6h13.62a16.8,16.8,0,0,1,3.36-3.36c.12,0,.24.06.42.06A11.16,11.16,0,0,1,486.54,21.24Zm-1-7.86c2.1,1.8,3.18,3,3.18,3.48s-.24.84-.66.84H469c-3.48,0-5.7.24-6.54.66A27.65,27.65,0,0,0,461,15.24a25.05,25.05,0,0,0,6.72.6H480.6a17,17,0,0,1,3.3-3.36c.12,0,.24.06.42.06C484.68,12.78,485.1,13,485.58,13.38ZM467.76,43.62c-.24,1.32-1.44,2-3.48,2-1.32,0-2.1-.18-2.34-.66,0-2.52.06-5,.24-7.5v-5a13,13,0,0,0-.48-3.72l5.46,2.1h14c1.68-1.92,2.82-2.94,3.48-3s1.68.66,3.42,1.92c1.56,1.2,2.34,2,2.34,2.58a1.58,1.58,0,0,1-.84,1.14A6.72,6.72,0,0,0,488,35v4.38a31.33,31.33,0,0,1,.36,3.3c0,1.44-1.14,2.16-3.36,2.16-1.68,0-2.52-.36-2.58-1.2v-1.8H467.76ZM482.4,32.4H467.76v7.86H482.4ZM477.66,4.68a6.37,6.37,0,0,1-.3,2,2.29,2.29,0,0,1-2.28,1.68c-.72,0-1.68-.9-2.94-2.82A17.08,17.08,0,0,0,467.94,1a1.34,1.34,0,0,0,.42-.72C474.36.78,477.42,2.28,477.66,4.68Z"/><path d="M501.24,16.2a23,23,0,0,1-1.2-3.12,49.5,49.5,0,0,0,7.8.78v-8c-.12-1.8-.24-3.54-.48-5.34q2.79.36,5.94.9c1.56.3,2.34.66,2.34,1.14s-.36.66-1,.78c-1.08.36-1.62.66-1.62.84v9.78h.42c1.56-2.1,2.64-3.18,3.12-3.24.3,0,1,.6,2.1,1.8a8.09,8.09,0,0,1,1.74,2.28c0,.6-.24.9-.66.9H513v5.46c4.5,2.4,6.78,4.74,6.78,6.9a2.32,2.32,0,0,1-.9,2.16,2.19,2.19,0,0,1-1.5.54c-1.08,0-1.8-1.08-2.22-3.36a13.6,13.6,0,0,0-2.16-4.8V40.68c.12,6.3.18,10.68.3,13.32q0,1.44-3.78,1.44c-1.26,0-1.86-.36-1.86-1.08.06-2.22.12-6.78.18-13.86V27.9a36.44,36.44,0,0,1-6.78,10.62,1.22,1.22,0,0,1-.78-.66,66.66,66.66,0,0,0,7.08-22.14C503.28,15.84,501.24,16,501.24,16.2Zm28.44,19.2c1.38,1.14,2.1,1.92,2.1,2.4,0,.24-.24.48-.66.72-1.2.24-1.8.54-1.8,1-2.76,5.4-7.5,9.42-14.1,12.06-.18-.24-.3-.48-.42-.6a25.82,25.82,0,0,0,6.3-6.24,22.08,22.08,0,0,0,3.6-7h-4.5a10.66,10.66,0,0,0-3.24.54,26.08,26.08,0,0,0-1.2-2.82,11.3,11.3,0,0,0,4.14.78h4.38c1.56-1.68,2.58-2.52,2.94-2.52S528.42,34.32,529.68,35.4ZM551,18.12c1.92,1.68,2.88,2.7,2.88,3.18s-.24.84-.66.84H528.42c-4.56,0-7.38.24-8.52.66a22.92,22.92,0,0,0-1.38-3.06,50.33,50.33,0,0,0,9.6.6h4.5V16h-1.44c-5.82.12-8.76.3-8.76.54a28.14,28.14,0,0,1-1.14-3.12c.84.3,3.9.6,9.24.84h2.1V10.14h-4c-5.82.12-8.76.24-8.76.48a22.81,22.81,0,0,1-1.14-3.06,65.85,65.85,0,0,0,9.24.78h10.08A25,25,0,0,0,540.84,0c4.56,1.38,6.9,2.4,6.9,3.06,0,.48-1,.78-3.06,1a16.08,16.08,0,0,1-4.92,4.32h6.42c1.68-2.1,2.82-3.18,3.36-3.24q.54,0,2.34,1.8a9.65,9.65,0,0,1,2,2.28c0,.6-.24,1-.72,1H538v4.08h5.46c1.56-1.86,2.64-2.82,3.12-2.88.3,0,1,.54,2.1,1.62a8.37,8.37,0,0,1,1.74,2.1c0,.6-.24.9-.66.9H538v4.38h8.52a13.42,13.42,0,0,1,3-3c.12,0,.24.06.36.06A8.71,8.71,0,0,1,551,18.12Zm-13,31.8c0,3.24-2,4.92-5.88,5a1.23,1.23,0,0,1-1.38-1.26c0-1-.78-2-2.34-3a5.9,5.9,0,0,0-2.28-.9c0-.24-.06-.54-.06-.84a22.63,22.63,0,0,0,5.28.48c1-.06,1.5-.66,1.5-1.86V31.74H525.3a5.35,5.35,0,0,0-2.4.36c-.48-1-.9-1.86-1.38-2.76a5.39,5.39,0,0,0,2.88.66h7.8c1.5-1.26,2.52-1.92,3.12-2,.54.24,1.26.6,2.22,1.14a7.19,7.19,0,0,1,2.28,2.1,2.21,2.21,0,0,1-1.26,1.32.19.19,0,0,0-.06.12,15.46,15.46,0,0,0,3,5.94,19,19,0,0,0,5.94-8q6.12,3.42,6.12,4.14c0,.42-.36.6-1,.6s-1.32.12-2,.12a40.78,40.78,0,0,1-8.4,4,2.4,2.4,0,0,0,.6.72c3,3.18,7.08,5.28,12.3,6.3a3.18,3.18,0,0,1-.24,1,2.88,2.88,0,0,0-1.5.84,4.21,4.21,0,0,0-1,1.5c-.3,1.2-.78,1.8-1.38,1.8-2.28-.6-5.1-2.58-8.46-6a18,18,0,0,1-4.5-9.06Zm-5.46-45.3a7.52,7.52,0,0,1-.24,1.92,2.23,2.23,0,0,1-2.22,1.62c-.48,0-1.14-.78-2-2.46a15,15,0,0,0-3-4A1.14,1.14,0,0,0,525.6,1Q532.35,1.65,532.62,4.62Zm9.66,22.08a2.67,2.67,0,0,1-.42,1.74,1.46,1.46,0,0,1-1.38.6c-.6,0-1.8-.66-3.48-2a18.09,18.09,0,0,0-4.44-1.92,26.41,26.41,0,0,0-3.3-.66c-.06,0-.06-.3-.06-.9a37.34,37.34,0,0,1,5.7-.36C539.64,23.4,542.1,24.54,542.28,26.7Z"/><path d="M569.4,13h1a70.42,70.42,0,0,0,2-12.24c4.86,1.44,7.32,2.46,7.32,2.94,0,.72-1,1.14-2.94,1.26a28.93,28.93,0,0,1-4.5,8h4.92c1.8-1.86,2.94-2.82,3.42-2.82a9.07,9.07,0,0,1,2.7,1.5q2.52,1.89,2.52,2.52t-.9,1.08a9.3,9.3,0,0,0-1.56,1.32V36.48c.12,6.84.18,11.46.3,13.8,0,1.2-1.32,1.86-4,1.86-1.08,0-1.56-.42-1.56-1.26V47.52h-8.76v4.56q-.36,1.8-3.24,1.8c-1.2,0-2-.24-2.22-.6,0-6.72.06-13.32.24-19.74V20.64c-.12-5.52-.24-8.76-.42-9.78Zm8.82,15.9V14.52h-8.76V28.86Zm0,17V30.42h-8.76V45.9ZM600.36,3.54c0,.6-1,1-2.94,1.26-.84,2.76-1.74,5.34-2.7,7.68h11.1c1.62-2,2.76-3.06,3.42-3.12a10.3,10.3,0,0,1,3.36,2q2.16,2,2.16,2.52,0,.72-1.44,1.26A3.76,3.76,0,0,0,612,16.26c-.84,16.44-1.92,27.06-3.24,31.92-1.2,4.2-3.78,6.66-7.8,7.26-.66,0-1.14-.6-1.5-1.8a5.45,5.45,0,0,0-2.64-3.42,43.42,43.42,0,0,0-5.52-2.16,5.38,5.38,0,0,1,.12-1.32,65.16,65.16,0,0,0,9,.84c2.16-.18,3.3-1.14,3.3-2.94,1-1.8,2-12,3.06-30.48H594c-2.76,6.12-5.88,10.8-9.48,13.92a2.48,2.48,0,0,1-.3-.66c3.84-6.6,6.54-15.54,8-26.7C597.6,1.8,600.36,2.76,600.36,3.54Zm.54,29.88a5.78,5.78,0,0,1-1,3.72,3,3,0,0,1-2.64,1.2c-1,0-1.68-1.2-1.92-3.72-.9-4.56-2.16-8.1-3.84-10.56l.9-.66C598,27.12,600.84,30.42,600.9,33.42Z"/></g></g></svg>