<svg xmlns="http://www.w3.org/2000/svg" viewBox="0 0 552.36 55.92"><g id="图层_2" data-name="图层 2"><g id="图层_1-2" data-name="图层 1"><path d="M11.22,7.92C8.88,11.16,5.28,13.68.48,15.42c-.3-.18-.48-.36-.48-.6A24.64,24.64,0,0,0,8.7.36q7.38,2.07,7.38,3.06c-.3.6-1.32,1-3.12,1.2q-.36.9-.72,1.62h8a17,17,0,0,1,3-3.48c.12,0,.24-.06.36-.06a8.83,8.83,0,0,1,2.22,1.56A11.64,11.64,0,0,1,28.14,7c0,.6-.18.9-.42,1H15.66c2.4,1.08,3.6,2.64,3.6,4.8A2.19,2.19,0,0,1,16.92,15c-.84,0-1.38-.48-1.62-1.56a8.63,8.63,0,0,1-.24-1.8,13.25,13.25,0,0,0-.36-1.92,8.61,8.61,0,0,0-.84-1.8ZM7.8,16H18.9c1.44-1.86,2.4-2.82,3-2.88a9.89,9.89,0,0,1,3,1.68c1.32,1,2,1.74,2,2.22s-.3.72-.78,1a5.49,5.49,0,0,0-1.44,1.26v5.58c.24,2.16.36,3.6.36,4.2,0,1.2-1,1.86-2.94,1.86-1.44,0-2.22-.3-2.28-1V29H9.06V53.52C8.82,54.6,7.8,55.2,6,55.2c-1.08,0-1.74-.24-2-.6,0-6.36.06-12.54.18-18.66V23.7c-.12-5.22-.24-8.34-.42-9.3Zm12.06,5.58v-4H9.06v4Zm0,5.88V23.1H9.06v4.32Zm.6,6.3H32.4c1.44-1.86,2.4-2.82,2.94-2.88a9.23,9.23,0,0,1,3,1.68c1.32,1,2,1.74,2,2.22s-.3.66-.78,1A6.25,6.25,0,0,0,38.1,37v6.06c.18,2.4.3,3.9.3,4.62,0,1.2-1,1.8-2.88,1.86-1.44,0-2.22-.3-2.28-1v-1H21.06v1c-.24,1.08-1.26,1.68-3,1.68-1.14,0-1.8-.24-2-.6,0-2.76.06-5.52.18-8.16V36a13.9,13.9,0,0,0-.42-4.08Zm12.78,5.7v-4.2H21.06v4.2Zm0,6.48V41H21.06V45.9ZM51.84,4.26A11,11,0,0,1,54.18,7c0,.6-.18.9-.42,1H41.16q3.78,1.53,3.78,4.32a2.16,2.16,0,0,1-2.34,2.28c-.84,0-1.38-.48-1.62-1.56a6,6,0,0,1-.3-1.68,11.43,11.43,0,0,0-.54-1.74A6.27,6.27,0,0,0,39,7.92H34.8A20.42,20.42,0,0,1,25.56,14c-.3-.24-.48-.42-.48-.6A22.19,22.19,0,0,0,32.52.24C37.44,1.62,40,2.64,40,3.3c-.3.6-1.38,1-3.18,1.2a9.41,9.41,0,0,1-.84,1.74H46.32a17,17,0,0,1,3-3.48,2.12,2.12,0,0,1,.36-.06A10.31,10.31,0,0,1,51.84,4.26ZM33.66,15.9h11.1a11.11,11.11,0,0,1,2.76-3.18,6.72,6.72,0,0,1,2.88,1.44c1.62,1.08,2.46,1.86,2.46,2.4,0,.36-.42.78-1.14,1.14a4.44,4.44,0,0,0-1.32,1.2V49.26q0,5-5,6.12c-.42,0-.72-.36-.84-1.08a5.29,5.29,0,0,0-2.28-3A16.9,16.9,0,0,0,39.06,50a6.81,6.81,0,0,0,.06-.84,29,29,0,0,0,5,.3c.84,0,1.32-.42,1.32-1.14V28.86h-11c-.3,1.08-1.32,1.56-3.06,1.56-1.14,0-1.8-.18-2-.54,0-2.46.06-4.92.24-7.32V17.82a16.6,16.6,0,0,0-.42-3.66Zm11.82,5.46V17.52h-11v3.84Zm0,5.94V22.92h-11V27.3Z"/><path d="M73.44,18.36H100c1.68-1.86,2.82-2.82,3.48-2.88s1.74.66,3.48,1.92c1.56,1.2,2.34,2,2.34,2.58,0,.36-.36.78-1.08,1.14a10.22,10.22,0,0,0-1.92,1.5v8.46c.24,3.3.36,5.46.36,6.42,0,1.44-1.14,2.16-3.36,2.16-1.68,0-2.58-.36-2.64-1.2V37.08h-11v6.36h15.48A20.53,20.53,0,0,1,109,39.3c.12,0,.3.06.48.06a15.36,15.36,0,0,1,1.5,1q3.78,3.24,3.78,4.14c0,.6-.24.84-.6.84H89.64c.12,2.46.18,5.28.18,8.58,0,.84-1.14,1.32-3.36,1.44-1.8,0-2.76-.3-2.76-.9.12-1.8.24-4.8.24-9.12H74.76c-7.2,0-11.7.24-13.44.66-.42-1-.9-2-1.44-3.12a130.49,130.49,0,0,0,15.48.6h8.58V37.08H73.62v1c-.3,1.32-1.5,2-3.54,2-1.32,0-2.1-.18-2.34-.66,0-3.72.06-7.32.24-10.86V21.48a26.38,26.38,0,0,0-.48-5.4Zm-3.84-4.2Q69.24,16,66.36,16c-1.2,0-2-.18-2.22-.6,0-2.16.06-4.32.24-6.48V4.68a9.8,9.8,0,0,0-.48-3.24l5.16,2h9.6C80.22,1.74,81.3.9,81.9.84a10,10,0,0,1,3.24,1.8C86.58,3.72,87.3,4.56,87.3,5s-.36.72-1,1.08A13.73,13.73,0,0,0,84.6,7.5v3.6A20.67,20.67,0,0,1,85,13.8c0,1.32-1.08,2-3.12,2-1.56,0-2.4-.36-2.46-1.08V13.26H69.6ZM79.38,5H69.6V11.7h9.78Zm4.56,21.6V19.92H73.62v6.66Zm0,8.88V28.14H73.62v7.32Zm11.4-21.24C95.1,15.42,94,16,92,16c-1.2,0-1.92-.18-2.16-.6,0-2.16.06-4.32.24-6.42V4.8a9.3,9.3,0,0,0-.48-3.18l4.68,1.8h10.56c1.56-1.56,2.64-2.4,3.24-2.46a10.7,10.7,0,0,1,3.18,1.8c1.44,1.08,2.22,1.92,2.22,2.4s-.42.72-1.14,1.08a11.19,11.19,0,0,0-2,1.38v3.54a23.62,23.62,0,0,1,.36,2.7c0,1.32-1.08,2-3.12,2-1.56,0-2.4-.36-2.46-1.08V13.2H95.34Zm-5.7,12.36h11V19.92h-11Zm0,8.88h11V28.14h-11ZM105.18,5H95.34v6.66h9.84Z"/><path d="M121.44,7.26c0-.42-.06-.66-.18-.66Q134,4.89,141.42,1c.54.36,1.56,1.08,3.12,2.1,1.38,1,2.1,1.62,2.1,1.86a.57.57,0,0,1-.6.6c-1.5-.12-2.4-.24-2.76-.24a54.65,54.65,0,0,1-7,1v11h1A32.51,32.51,0,0,0,140,7.68c4.2,1.26,6.36,2.22,6.36,2.82,0,.42-1,.72-2.88.84a19.49,19.49,0,0,1-4.86,6h2.64c1.56-2.4,2.58-3.6,3.06-3.66s1,.66,2.1,2a9.07,9.07,0,0,1,1.8,2.46c0,.6-.24,1-.72,1H136.32v.72h.6c6.36.6,9.54,2.82,9.54,6.6,0,1.44-.66,2.22-1.86,2.34a1.9,1.9,0,0,1-1.08-.42,15.34,15.34,0,0,1-2.58-3.24A17.49,17.49,0,0,0,136.32,21v1.38c.12,2.16.18,4.8.18,7.8,0,.72-1,1.14-2.88,1.2q-2.34,0-2.34-.72.18-2,.18-6.84-3.78,4.68-11.34,7.56c-.18,0-.36-.24-.48-.72,4.68-3.18,7.8-6.6,9.24-10.32a9.88,9.88,0,0,0,.54-1.26c-5,.12-7.62.3-7.62.54a26.67,26.67,0,0,1-1.2-3.12c.84.3,3.9.6,9.24.84h1.62V6.78C128.46,7,125.1,7.14,121.44,7.26ZM127.08,52V53.4c-.24,1-1.08,1.44-2.58,1.44-1,0-1.5-.18-1.68-.48,0-3.78.06-7.38.18-11v-7.2c-.12-3.06-.24-4.86-.36-5.46l3.9,1.5h13c1.32-1.74,2.28-2.64,2.76-2.7A9.08,9.08,0,0,1,145,31.08c1.26,1,1.92,1.62,1.92,2s-.24.66-.72,1a7.52,7.52,0,0,0-1.2,1.14V45.48c.18,4,.3,6.48.3,7.68s-.9,1.68-2.7,1.74c-1.32,0-2-.36-2.1-1V52Zm-.54-41.88c1.68,1.2,2.58,2.52,2.58,4.08a2.44,2.44,0,0,1-.84,2.16,2.17,2.17,0,0,1-1.44.42c-.78,0-1.26-.78-1.5-2.46a18.11,18.11,0,0,0-1-3.18A11.45,11.45,0,0,0,123,9.3a2.18,2.18,0,0,1,.42-.54A11.62,11.62,0,0,1,126.54,10.08Zm.54,23.64v7h5v-7Zm0,8.58v8h5v-8Zm13.44-1.62v-7h-4.44v7Zm0,9.66v-8h-4.44v8Zm20.16-46.5c.42.36.72.66.84.78h5.4a9.19,9.19,0,0,1,2.34-2.88,6.09,6.09,0,0,1,2.46,1.2c1.32.9,2,1.56,2,2s-.3.66-.9,1a4,4,0,0,0-1.14,1v42.3c0,3.3-1.86,5.34-5.46,6.12q-.54,0-.72-1.08a5.14,5.14,0,0,0-2-3,12.58,12.58,0,0,0-2.7-1.32,1.79,1.79,0,0,0,.12-.84,32.77,32.77,0,0,0,5.4.3,1,1,0,0,0,1.14-1.14V29.46a88.52,88.52,0,0,1-3.72,9.06,6.13,6.13,0,0,0,.42,1.62c0,.48-.18.66-.48.66s-1.68-1.08-4.08-3.24V49c0,4.08-1.92,6.36-5.76,7q-.72,0-.9-1.26a4.94,4.94,0,0,0-1.38-3.3,8,8,0,0,0-3-1.62,2.71,2.71,0,0,0,.12-1,48.55,48.55,0,0,0,5.34.36q1.26,0,1.26-1.62V31.26a80.17,80.17,0,0,1-4,7.26,6.13,6.13,0,0,0,.42,1.62c0,.48-.18.66-.48.66s-2-1.32-4.92-4a34,34,0,0,0,9-8.34V6.18h-3.12a10.42,10.42,0,0,0-3.9.48c-.24-.72-.54-1.62-1-2.76a14.14,14.14,0,0,0,4.5.72h2.88c1.38-1.86,2.34-2.82,2.88-2.82A10.3,10.3,0,0,1,160.68,3.84ZM153.6,20.46c-.06,2.22-1,3.3-2.7,3.3-1.26,0-1.86-.66-1.86-2.1v-1c0-.54.06-1.2.12-2a25.13,25.13,0,0,0-1.26-6.78q.72-.18.72-.36C151.92,14.46,153.6,17.46,153.6,20.46Zm13.92,5.94V6.18h-6.6c-.84.54-1.26.84-1.26,1V36.06A35.78,35.78,0,0,0,167.52,26.4Zm-1-6.18c-.12,2.22-1,3.3-2.7,3.3-1.26,0-1.92-.66-1.92-2.1a6.17,6.17,0,0,1,.06-1c0-.6.06-1.26.12-2a20.59,20.59,0,0,0-1.5-6.9q.72-.18.72-.36C164.76,14.1,166.5,17.1,166.5,20.22Z"/><path d="M187.08,3.36H198.6C200,1.8,201,1,201.6.9a9.23,9.23,0,0,1,3,1.68c1.32,1,2,1.74,2,2.22s-.3.66-.9,1a5.81,5.81,0,0,0-1.56,1.26V13.2c.18,2.4.3,3.9.3,4.62,0,1.2-1,1.86-2.94,1.86-1.44,0-2.22-.3-2.28-1V17.1H188.1V52.62c-.24,1.2-1.38,1.8-3.3,1.8-1.2,0-1.92-.24-2.16-.6,0-8.28.06-16.32.18-24.24v-16a115.26,115.26,0,0,0-.42-12.06ZM199.26,9.3V4.92H188.1V9.3Zm0,6.18V10.86H188.1v4.62Zm17.34,7.44c-.06.48-1.08.78-3.06.84a15.68,15.68,0,0,1-4,4h3.36c1.32-1.2,2.22-1.8,2.76-1.8a7.34,7.34,0,0,1,2.76,1.5c1.2,1,1.86,1.68,1.86,2.1s-.24.66-.72.9a6.32,6.32,0,0,0-1.38,1.2V34.8c.18,1.2.3,2,.3,2.34,0,1.14-.9,1.74-2.7,1.74-1.32,0-2-.3-2.1-1v-.48h-1.8v6.42c.24,1.38.9,2,1.86,2h2.58A2.34,2.34,0,0,0,219,43.62a38.47,38.47,0,0,0,1.26-4.44,4.85,4.85,0,0,0,1,.06v4.68a1.55,1.55,0,0,0,.72,1.5q1.08.63,1.08,1.26a2,2,0,0,1-.42,1.26c.6.06,1.2.06,1.8.06.9,0,1.38-.42,1.38-1.26V17h-11.1v.24q-.36,1.8-3.24,1.8c-1.2,0-2-.18-2.22-.6,0-2.64.06-5.28.24-7.8V5.52A13.34,13.34,0,0,0,209,1.68l4.68,1.8H225A9.15,9.15,0,0,1,228.06.84a8.2,8.2,0,0,1,3.06,1.5c1.74,1.14,2.64,2,2.64,2.58,0,.42-.42.84-1.2,1.26a4.11,4.11,0,0,0-1.38,1.26V47.82c0,3.6-2.22,5.82-6.6,6.66-.36,0-.6-.42-.72-1.14a5.63,5.63,0,0,0-2-3.24c-.54-.36-1-.6-1.38-.84a.85.85,0,0,1-.36.12,14.74,14.74,0,0,1-4.38.72,29,29,0,0,1-3.12-.12c-3.42-.24-5.16-1.92-5.16-5.16V37.44h-1.8a16.27,16.27,0,0,1-1.32,5C202,47.64,197,50.82,189.18,52.2a1,1,0,0,0-.48-.72c5.46-2,9.12-5.28,10.92-9.84a18.86,18.86,0,0,0,.9-4.2h-1.8c-.3,1-1.2,1.44-2.76,1.44-1,0-1.62-.18-1.86-.54,0-1.92.06-3.84.18-5.7V29a8.71,8.71,0,0,0-.36-2.82l4.26,1.62h9.36a25.35,25.35,0,0,0,2.4-8.1Q216.6,22.2,216.6,22.92Zm-12.12,1.86c0,1.86-.78,2.82-2.34,2.82A1.91,1.91,0,0,1,200,25.44a5,5,0,0,0-.36-1.56q-.36-1-.9-2.16a7.62,7.62,0,0,0-1-1.44,4.2,4.2,0,0,1,.72-.48C202.44,21.48,204.48,23.16,204.48,24.78Zm9.24,4.56H198.78v6.48h14.94ZM225.78,9.12v-4h-11.1v4Zm0,6.24V10.68h-11.1v4.68Z"/><path d="M275.82,3.12a.61.61,0,0,1-.48.66c-.42.18-1,.42-1.56.72s-.9.54-.9.72v9.84h.24c1.56-2.4,2.64-3.6,3.12-3.66.3,0,1,.66,2.1,2a9.82,9.82,0,0,1,1.74,2.46c0,.6-.24,1-.66,1h-6.54V27a47.75,47.75,0,0,0,6.06-2,1.21,1.21,0,0,0,.18.66,23,23,0,0,1-6.24,4.8v17.1c0,5-2.22,7.56-6.54,7.56a.9.9,0,0,1-1-1,5.37,5.37,0,0,0-1.74-3,6.58,6.58,0,0,0-3.12-1.44,2.1,2.1,0,0,0,.18-1c1,.12,2.88.12,5.82.12.6,0,1-.54,1-1.62V32.94a26.1,26.1,0,0,1-3.06,1c-.18,2-.54,3.06-1.14,3.06q-.54,0-2.34-4.14a19.41,19.41,0,0,1-1.32-4.08,55.45,55.45,0,0,0,7.86-.72V16.86c-4.5.12-6.78.3-6.78.48a26.67,26.67,0,0,1-1.2-3.12,51.15,51.15,0,0,0,8,.78V8.4a56.65,56.65,0,0,0-.42-7.68C272.4,1.68,275.34,2.46,275.82,3.12Zm19.74.12c0,.36-.24.66-.72.84a5.51,5.51,0,0,0-2,1.14L292.74,25q0,23.94-16.32,29.94a4.83,4.83,0,0,1-.54-.84,28.56,28.56,0,0,0,8.88-11.82c1.32-2.52,2.16-6.6,2.64-12.12-1.86,1.8-4,3.72-6.3,5.64a11.65,11.65,0,0,0-.3,2.58.61.61,0,0,1-.48.66c-.66,0-2.22-2.16-4.68-6.6,1.62-.12,5.58-1.56,11.88-4.26q.18-3.24.18-7.2V7.26a47.46,47.46,0,0,0-.42-6.48C292.74,1.74,295.5,2.58,295.56,3.24Zm-9.24,16.44c0,1.86-.78,2.82-2.34,2.82s-2.1-.72-2.1-2.16a14.58,14.58,0,0,0-.54-3.36c-.36-1.44-.78-3-1.32-4.68a20,20,0,0,0-1.38-3.06,4.2,4.2,0,0,1,.72-.48C284,12.48,286.32,16.08,286.32,19.68ZM304.56,3.36c0,.24-.24.54-.72.78a5.32,5.32,0,0,0-2,1V20.22A33.7,33.7,0,0,0,307.14,8.7q1.44.9,4.86,2.88c1.14.72,1.74,1.26,1.74,1.56s-.36.54-.9.54c-1.14.12-1.92.18-2.34.24a32.64,32.64,0,0,1-4,4.62,22.11,22.11,0,0,1-4.68,3.36v4.68a29.32,29.32,0,0,1,7.32,2.7c2.7,1.56,4.08,3.18,4.08,4.92a3.83,3.83,0,0,1-.72,2.7,2.1,2.1,0,0,1-2,1.08c-.48,0-1.38-1.14-2.76-3.54a22.21,22.21,0,0,0-5.88-6.54V47.16a2,2,0,0,0,2.16,2h2.46c1.62,0,2.76-1.2,3.36-3.66A51,51,0,0,0,311.22,40a4.27,4.27,0,0,0,1,.06c.06,0,.12,2.22.12,6.66a1.9,1.9,0,0,0,.9,1.74c.9.6,1.38,1.14,1.38,1.8,0,1.44-1.08,2.4-3.12,3a18.47,18.47,0,0,1-5.1.6,31.33,31.33,0,0,1-4.62-.24c-3.48-.3-5.16-2.22-5.16-5.7V6.3a50.94,50.94,0,0,0-.3-5.28Q304.56,2.46,304.56,3.36Z"/><path d="M335.82,2.28a.55.55,0,0,1-.48.6,12.5,12.5,0,0,0-1.44.6c-.6.3-.84.54-.84.72v9.72h.36c1.5-2.52,2.52-3.84,3.06-3.84.36,0,.9.6,1.74,1.8a9.06,9.06,0,0,1,1.62,2.94c0,.3-.12.48-.36.48h-6.42V26.82a33.51,33.51,0,0,0,6.18-2.76,3.38,3.38,0,0,0,.24.72,25.47,25.47,0,0,1-6.42,5.7V47.4c0,5-2.1,7.56-6.24,7.56-.72,0-1.08-.36-1.08-1a5.08,5.08,0,0,0-1.92-3,7.51,7.51,0,0,0-3.48-1.44,2.1,2.1,0,0,0,.18-1c1.08.12,3.24.12,6.6.12q.9,0,.9-1.62V33.18a28.72,28.72,0,0,1-3.54,1.38c-.18,2-.54,3.06-1.14,3.06-.36,0-1.14-1.38-2.34-4.2a19.1,19.1,0,0,1-1.32-4A37.78,37.78,0,0,0,328,28.32v-13H325.2a23.86,23.86,0,0,0-4.74.48,19.29,19.29,0,0,1-1-2.22c.66.12,1.74.24,3.3.36H328V7.74A57.7,57.7,0,0,0,327.6,0C332.64.84,335.34,1.62,335.82,2.28Zm22.62-.78c1.5.24,2.28.66,2.28,1.14s-.36.66-1,.78c-1.08.36-1.62.66-1.62.84V7.68h7.44a18.35,18.35,0,0,1,3.6-3.78c.12,0,.3.06.48.06.36.24.84.54,1.32.9,2.28,2,3.48,3.24,3.48,3.78s-.24.84-.6.84H358.14V16h7.44c1.32-1.56,2.22-2.4,2.76-2.46a7.34,7.34,0,0,1,2.76,1.5c1.2,1,1.86,1.68,1.86,2.1s-.3.66-.78.9a5.77,5.77,0,0,0-1.44,1.2v8.16c.18,3.12.3,5.16.3,6.12,0,1.14-.9,1.74-2.7,1.74-1.32,0-2-.3-2.1-1v-1.5h-6.18c2,4.32,4.26,7.32,6.6,9a14,14,0,0,0,8.58,3.48c-.06.48-.12.84-.18,1.2a5.34,5.34,0,0,0-1.62,1.14,9.15,9.15,0,0,0-1.26,2.58c-.3.84-.78,1.26-1.38,1.26-1.26,0-3.36-1.92-6.3-5.64-2.52-3.12-4.44-7.5-5.82-13h-.54V40.2c.12,6.36.18,10.74.3,13.32q0,1.44-3.78,1.44c-1.26,0-1.86-.36-1.86-1.08.06-2.22.12-6.78.18-13.86v-1.2a50.21,50.21,0,0,1-16.8,13.86,8.21,8.21,0,0,1-.6-.84c6.9-5.64,11.76-11.46,14.58-17.52.24-.54.48-1,.66-1.5h-5.34v.6c-.24,1.14-1.26,1.68-3.06,1.68-1.14,0-1.8-.18-2-.6q0-4.77.18-9.36V19a22.79,22.79,0,0,0-.36-4.68L344.64,16H353V9.48H348.3c-4.68,0-7.62.24-8.7.66q-.63-1.53-1.44-3.06a47.82,47.82,0,0,0,9.36.6H353V5.94c-.12-1.8-.3-3.6-.48-5.34Q355.29,1,358.44,1.5ZM353,31.2V17.58h-7.5V31.2Zm-1.08-5c-.06,2-.9,3-2.46,3-1.14,0-1.74-.6-1.74-1.92a2.92,2.92,0,0,1,.06-.72c0-.36.06-.84.06-1.44a12.06,12.06,0,0,0-1.2-4.8c.42-.12.66-.24.66-.36C350.34,22,351.9,24.06,351.9,26.16Zm14.34,5v-8a6.09,6.09,0,0,1-1.5.12,17.62,17.62,0,0,1-4.68,5.94,2.58,2.58,0,0,1-.84-.24,33.44,33.44,0,0,0,2.16-9.42,49.86,49.86,0,0,1,4.86,2V17.58h-8.1V31.2Z"/><path d="M429.06,45.66c2.94,2.52,4.44,4,4.44,4.74,0,.54-.24.84-.66.84H395.1c-6.9,0-11.22.24-12.9.72a20.57,20.57,0,0,0-1.38-3.12,109.18,109.18,0,0,0,14.16.6h27.24a23.78,23.78,0,0,1,4.56-4.92c.18,0,.36.06.54.06A19.86,19.86,0,0,1,429.06,45.66Zm-25.86-42c0,.48-.36.84-1,1-1.08.48-1.68.84-1.68,1.14v8.7h1.8a16.23,16.23,0,0,1,2.76-3.12,2.6,2.6,0,0,1,.3-.06,8,8,0,0,1,2,1.44,12.23,12.23,0,0,1,2.1,2.4c0,.6-.18,1-.42,1h-8.58v11c2.82-.36,5.64-.84,8.52-1.38a6.45,6.45,0,0,0,.42.9,117.54,117.54,0,0,1-22.74,7.44,6.37,6.37,0,0,0-.6,2.52q-.09.9-.72.9c-.6,0-1.56-1.44-2.88-4.44A31.81,31.81,0,0,0,381,29.28q2.34-.09,4.68-.36V15.66a42.9,42.9,0,0,0-.3-5.46c4.8.72,7.26,1.32,7.26,1.86s-.3.72-.84.84c-1,.42-1.56.78-1.56,1.08V28.5c1.8-.18,3.6-.42,5.4-.66V7.62a51,51,0,0,0-.3-5.94C400.56,2.4,403.2,3.06,403.2,3.66Zm17.52,31.5c2.7,2.28,4.08,3.78,4.08,4.44s-.24.78-.6.78H400.5q-6.48,0-8.1.72A27.65,27.65,0,0,0,391,38a35.07,35.07,0,0,0,8,.6h15.36c1.92-2.46,3.3-4,4.2-4.5.12,0,.3.06.54.06A13.76,13.76,0,0,1,420.72,35.16Zm-1.2-31c0,.66-1.08,1.32-3.18,2V16.44A43.61,43.61,0,0,0,426.6,7.92c3.72,2.76,5.64,4.32,5.64,4.68s-.3.72-.78.72a20.56,20.56,0,0,0-2.64-.3,52.92,52.92,0,0,1-12.48,5V25.8c0,1.68,1,2.52,2.88,2.58h4.26a4.31,4.31,0,0,0,4.2-2.22,28.69,28.69,0,0,0,2-6.6c.6.06,1,.06,1,.06V26.1c0,.6.48,1,1.32,1.26,1,.48,1.44,1,1.44,1.56-.12,1.74-1.8,2.88-4.92,3.42a28,28,0,0,1-5.46.48,40.47,40.47,0,0,1-7.08-.36c-3.24-.12-4.8-2.7-4.8-7.62V7.92a32.07,32.07,0,0,0-.42-6.12C416.58,2.82,419.52,3.6,419.52,4.14Z"/><path d="M458.28,2.34c2.46,2.16,3.84,3.54,4.14,4.26,0,.54-.18.78-.42.78h-9.84a55.93,55.93,0,0,1-1,5.52,62.5,62.5,0,0,1-2.52,9.24l1.14.6h3.36c1.44-1.86,2.46-2.82,3-2.88a9.23,9.23,0,0,1,3,1.68c1.32,1.08,2,1.8,2,2.22a1.28,1.28,0,0,1-.72,1A5.22,5.22,0,0,0,459.12,26V38.88c.18,5,.3,8.22.3,9.66,0,1.2-1,1.86-2.88,1.86-1.5,0-2.28-.36-2.28-1V46.26h-4.62c0,1.62.06,3.24.12,5-.24.9-1.44,1.38-3.54,1.38-1.08,0-1.56-.3-1.56-.9.06-4.86.12-10.26.12-16.14V30.24a39.3,39.3,0,0,1-4.74,6.3q-.36,0-.54-.72a83.65,83.65,0,0,0,6.72-24.36c.24-1.68.48-3,.6-4.08h-.18a27.37,27.37,0,0,0-5.76.48c-.24-.72-.48-1.5-.84-2.46a39.06,39.06,0,0,0,6.6.42h6.72c1-1.32,2-2.58,2.94-3.66.3-.3.54-.48.78-.48S457.68,1.92,458.28,2.34ZM449.52,36c0,2.7,0,5.58.06,8.7h4.68V24.3h-4.74Zm32.1-2c0,.36-.42.72-1.2,1-1.2.54-1.74.9-1.74,1.14v1.56h6.9a18.35,18.35,0,0,1,3.6-3.78c.12,0,.3.06.48.06.36.24.84.54,1.32.9,2.28,2,3.48,3.24,3.48,3.78s-.24.84-.6.84H478.68l.18,13.92c-.12,1.08-1.2,1.68-3.3,1.74q-2.52,0-2.52-1.26c.06-5.22.12-10,.12-14.4h-4c-4.5,0-7.32.24-8.4.66-.42-1-.9-2-1.38-3.06a43.29,43.29,0,0,0,8.94.6h4.8V36.3c-.12-2-.18-3.6-.3-4.68C478.68,32.58,481.62,33.36,481.62,34Zm9.24-27.3c2.1,1.8,3.18,3,3.18,3.48s-.24.84-.66.84H469.2q-6.66,0-8.28.72c-.42-1-.9-2-1.44-3.12a45.47,45.47,0,0,0,9.06.6H475A9.93,9.93,0,0,1,473,6.54,18.28,18.28,0,0,0,469,1.68a2.19,2.19,0,0,0,.42-.84c5.94.6,9,2.16,9.24,4.74a6.91,6.91,0,0,1-.3,2.16,2.84,2.84,0,0,1-1.08,1.44h8.64a17,17,0,0,1,3.3-3.36c.12,0,.24.06.42.06C490,6.12,490.38,6.36,490.86,6.66Zm-16.38,9.42q0,.81-3.78,1.26A37.9,37.9,0,0,1,469,21.42a12.34,12.34,0,0,1,2.94,1.26q3.24,2.07,3.24,4.86a3.13,3.13,0,0,1-1,2.58,2.61,2.61,0,0,1-1.74.48c-1.08,0-1.74-1-2.1-2.94A17.46,17.46,0,0,0,469,23.82c-.24-.3-.48-.66-.72-1-.54,1.08-1.08,2-1.62,2.94a31.52,31.52,0,0,1-6.12,7.8,3.48,3.48,0,0,0-.6-.72,59.12,59.12,0,0,0,6.3-20.22C471.72,14.22,474.48,15.36,474.48,16.08Zm15.3.06q0,.81-3.78,1.26-.81,1.89-1.62,3.42c5.7,2.64,8.58,5.1,8.64,7.26A3.1,3.1,0,0,1,491.7,31a2.64,2.64,0,0,1-1.5.36c-.9,0-1.68-.9-2.28-2.82a24.08,24.08,0,0,0-4.2-6.54c-.6,1-1.2,2-1.8,2.82a27.8,27.8,0,0,1-6.24,6.9c-.12-.12-.3-.36-.6-.72a49.21,49.21,0,0,0,6.42-18.36C487,14.28,489.78,15.42,489.78,16.14Z"/><path d="M519.18,5.52c0,.36-.3.66-.78.9-1.32.54-2,.9-2.1,1.14l-.06,10.38h13.14V7.8A52.09,52.09,0,0,0,529,1c6,.9,9.06,1.68,9.06,2.34s-.36,1-1.08,1.08c-1.32.48-2,1-2,1.32V17.94h7.44a22.93,22.93,0,0,1,3.78-4.56.87.87,0,0,1,.42-.12,11.34,11.34,0,0,1,2.76,2,13.37,13.37,0,0,1,2.94,3.36c0,.6-.18,1-.42,1h-35.7l-.06,4a73.82,73.82,0,0,1-.36,7.62h17.76c1.68-2,2.82-3.06,3.48-3.12a10.85,10.85,0,0,1,3.42,2q2.34,1.8,2.34,2.52c0,.42-.3.84-.9,1.2a10.36,10.36,0,0,0-1.68,1.44v9.72c.24,3.78.36,6.18.36,7.32,0,1.38-1.14,2.1-3.36,2.16-1.68,0-2.52-.42-2.58-1.2V32.82h-19c-1.44,11.52-5.82,18.84-13.08,22.2a3.58,3.58,0,0,1-.54-.9,31.53,31.53,0,0,0,6.54-12.36c1.44-4,2.22-11.4,2.22-22.32V8.22a26.63,26.63,0,0,0-.48-5.34C516.18,3.9,519.12,4.8,519.18,5.52Z"/></g></g></svg>