<svg xmlns="http://www.w3.org/2000/svg" viewBox="0 0 613.74 55.38"><g id="图层_2" data-name="图层 2"><g id="图层_1-2" data-name="图层 1"><path d="M11.52,22.68a69.53,69.53,0,0,0,5-9.6h-.42c-6.84,0-11,.24-12.72.72-.42-1-.9-2-1.44-3.12a107.15,107.15,0,0,0,14,.6h1.38A96.31,96.31,0,0,0,21.12.18C27,2,30,3.18,30,3.66c0,.9-1.2,1.44-3.48,1.62-1,2.16-2,4.14-2.94,6H42.72a23.78,23.78,0,0,1,4.56-4.92c.12,0,.3.06.54.06a12.24,12.24,0,0,1,1.74,1.14C52.5,10,54,11.58,54,12.3c0,.54-.24.78-.66.78H22.56a80.21,80.21,0,0,1-6.84,10.56,3.7,3.7,0,0,1,1.2.78c0,.54-.42.9-1.14,1.14q-1.62.81-1.62,1.08V53.7c0,1-1.14,1.56-3.3,1.68-1.32,0-2-.36-2-1,.12-7,.18-14.64.18-23.16A55,55,0,0,1,1.2,37.62C.78,37.38.36,37.14,0,37a71.57,71.57,0,0,0,9.06-10.5V25.8a26.39,26.39,0,0,1-.3-3.48C9.78,22.44,10.68,22.56,11.52,22.68Zm26.82-4.14c0,.54-.36.9-1,1q-1.8.72-1.8,1.26v9.42h4.26c1.14-1.56,2.28-3,3.36-4.2.36-.36.6-.54.84-.54a3.69,3.69,0,0,1,1.38.78c2.76,2.4,4.32,4,4.68,4.74,0,.54-.18.78-.48.78h-14V50.16h7.14c2.28-3.36,3.78-5,4.5-5.1.54,0,1.62.9,3.3,2.64A12,12,0,0,1,53.22,51c0,.6-.24.9-.72,1H26.7c-5.82.12-8.76.3-8.76.54a25.34,25.34,0,0,1-1.14-3.12,65.85,65.85,0,0,0,9.24.78h4.2V31.8H24.9a27.13,27.13,0,0,0-5.7.48c-.24-.72-.48-1.5-.84-2.4a40,40,0,0,0,6.54.36h5.34v-7.5a44.92,44.92,0,0,0-.36-6.36Q38.34,17.64,38.34,18.54Z"/><path d="M109.8,30.54c2.76,2.28,4.14,3.78,4.14,4.38s-.24.84-.66.84H92.64a26.88,26.88,0,0,0,9.48,7.14,30.88,30.88,0,0,0,12.6,2.82,10.58,10.58,0,0,0-.12,1.14A5.18,5.18,0,0,0,113,47.94a12.21,12.21,0,0,0-1.2,2.4c-.24.78-.66,1.2-1.26,1.2-2,0-5.46-1.62-10.14-4.86A25.8,25.8,0,0,1,91,35.76h-.66v8.7c.12,2.58.18,5.64.18,9.24,0,.84-1.14,1.32-3.36,1.44-1.8,0-2.76-.3-2.76-.9.12-1.92.18-5.22.18-10.08V38.52q-8.37,8.37-23.88,13.8a5.55,5.55,0,0,1-.72-1c9.12-4.68,15.6-9.48,19.38-14.52q.45-.63.72-1.08H75c-7,0-11.4.24-13.08.72-.42-1-.9-2-1.44-3.12a118,118,0,0,0,14.7.6H84.6V27.48h-5c0,.6.06,1.14.06,1.56,0,1.08-1.38,1.56-4.08,1.56-1.32,0-2-.36-2-1.2q.09-3.51.18-14.94V10.14q-8.73.09-11,.72c-.42-1-.9-2-1.38-3.12a95.81,95.81,0,0,0,12.36.6V6.18Q73.56,3.3,73.2.42c2,.3,4.2.6,6.48,1,1.62.3,2.46.72,2.46,1.26s-.42.66-1.14.78c-1.14.42-1.68.72-1.68,1v4H95.58V6.18Q95.4,3.3,95,.42c2,.3,4.14.6,6.42,1,1.62.3,2.46.72,2.46,1.26s-.36.66-1.08.78c-1.2.42-1.74.72-1.74,1v4h2.64a22.43,22.43,0,0,1,3.9-4.14c.18,0,.36.06.54.06a10,10,0,0,1,1.44,1c2.52,2.16,3.84,3.54,3.84,4.14s-.24.78-.66.78H101.1v4.32c.12,6.84.18,11.58.3,14.34,0,1.08-1.38,1.56-4,1.56-1.38,0-2-.36-2-1.2,0-.48.06-1,.06-1.68h-5V34h13.08a23.68,23.68,0,0,1,4.2-4.56c.18,0,.36.06.54.06Q108.9,29.91,109.8,30.54ZM95.58,17V10.14H79.32V14.7c0,.84.06,1.56.06,2.28Zm-.12,8.88c0-1.92.06-4.32.12-7.32H79.38c.06,3,.12,5.4.12,7.32Z"/><path d="M137.16,3.78q0,.81-3.78,1.26a98.75,98.75,0,0,1-3.9,10.8c2.76.72,4.14,1.32,4.14,1.68s-.42.54-1.2.78-1,.6-1,.78V38.64q.18,8.1.18,15.12c-.12.84-1.26,1.38-3.36,1.5-1.38,0-2-.36-2-1q.18-7.65.18-15.48V22.5A49.62,49.62,0,0,1,120,31.92a3.48,3.48,0,0,0-.6-.72c5.22-10.56,8.4-20.82,9.48-30.9C134.4,1.92,137.16,3.06,137.16,3.78Zm5.1.42h23Q168,1,168.72,1a10.94,10.94,0,0,1,2.64,1.44q2.52,1.89,2.52,2.52c0,.36-.36.72-1,1.08a19.21,19.21,0,0,0-1.62,1.32V34.5c.06,9.36.18,15.54.3,18.78,0,1.26-1.32,1.92-4,1.92-1.08,0-1.62-.48-1.62-1.32V51.06H142.8v2.16c-.24,1.2-1.38,1.8-3.3,1.8-1.2,0-1.92-.24-2.16-.6,0-8.28.06-16.32.24-24.24V14.28c-.12-6.78-.24-10.8-.48-12.06ZM166,49.5V5.7H142.8V49.5Zm-2.34-33.9a9.25,9.25,0,0,1,1.56,2c0,.6-.24,1-.66,1H156.9v9.54h.42c1.32-1.56,2.28-2.4,2.76-2.46a7.34,7.34,0,0,1,2.76,1.5c1.2,1,1.86,1.68,1.86,2.1s-.24.66-.72.9a6.32,6.32,0,0,0-1.38,1.2v6.78c.18,2.64.3,4.38.3,5.16,0,1.14-.9,1.74-2.7,1.74-1.32,0-2-.3-2.1-1v-2h-7.2V43.5c-.24,1.08-1.14,1.56-2.82,1.56-1,0-1.62-.18-1.86-.54,0-2.88.06-5.76.18-8.58V30.36A19.31,19.31,0,0,0,146,26.1l5.4,2h.9V18.66c-4.8.12-7.26.3-7.26.48A19.62,19.62,0,0,1,143.94,16c.78.3,3.6.54,8.4.78V13.08c0-2.28-.12-4.08-.24-5.46,4.8.72,7.26,1.32,7.26,1.86s-.3.72-.9.84c-1,.42-1.56.78-1.56,1.08v5.46H159c1.44-1.92,2.34-2.88,2.82-2.88C162.06,14,162.72,14.52,163.68,15.6ZM158.1,40.5V29.7h-7.2V40.5Z"/><path d="M230.88,16.62c2.52,2.16,3.78,3.48,3.78,4.08s-.24.84-.6.84h-39.3c-7.2,0-11.64.24-13.38.72a29.38,29.38,0,0,0-1.44-3.12,130,130,0,0,0,15.42.6H225a17.54,17.54,0,0,1,3.9-4.14c.12,0,.3.06.48.06A8.85,8.85,0,0,1,230.88,16.62ZM203.52,46.44c1.74,1.2,2.64,2,2.64,2.34s-.3.66-.78.78a33.73,33.73,0,0,0-3.42-.3c-4.38,2.52-11.22,4.2-20.46,5.1,0-.6-.12-.9-.24-.9,7.74-2,13.86-5.16,18.42-9.6C200.28,44.34,201.6,45.18,203.52,46.44ZM229.68,4.2c2.1,1.8,3.18,3,3.18,3.48s-.24.84-.66.84H218.1V15.9c0,1.14-1.2,1.74-3.54,1.8-1.44,0-2.16-.3-2.16-1a6.52,6.52,0,0,1,.06-1.08H200.88v.54c0,1.14-1.2,1.74-3.54,1.8-1.44,0-2.16-.3-2.16-1,.12-2.58.18-5.4.24-8.4-6.36,0-10.38.24-11.94.72-.42-1-.9-2-1.44-3.12a111,111,0,0,0,13.38.6V3.84a22.21,22.21,0,0,1-.36-3.78c5.22.66,8.16,1.44,8.76,2.34,0,.54-.42,1-1.26,1.2-1.14.6-1.68,1-1.68,1.14v2h11.76V3.78a21.74,21.74,0,0,1-.3-3.78c5.16.66,8.1,1.44,8.7,2.34,0,.54-.42,1-1.26,1.2-1.14.6-1.68,1-1.68,1.14v2h6.6A17,17,0,0,1,228,3.36c.12,0,.3.06.42.06C228.78,3.66,229.2,3.9,229.68,4.2Zm-10.2,22.26c1.56-1.92,2.64-2.94,3.24-3a10,10,0,0,1,3.24,1.8c1.44,1.08,2.16,1.92,2.16,2.4a1.53,1.53,0,0,1-.66,1.08,7.34,7.34,0,0,0-1.2,1.38v7.56c.18,2.88.3,4.8.3,5.64,0,1.32-1.08,2-3.12,2-1.56,0-2.4-.36-2.46-1.08v-1.5H193.2V44c-.24,1.2-1.38,1.8-3.3,1.8-1.2,0-1.92-.18-2.16-.6,0-3.3.06-6.54.18-9.66v-6.3a18.42,18.42,0,0,0-.42-4.8l5.28,2ZM204.12,28H193.2V33.6h10.92ZM193.2,41.16h10.92V35.22H193.2ZM212.52,14c0-1.8.06-3.6.12-5.52H200.88V14ZM221,28H209.52V33.6H221Zm-11.46,13.2H221V35.22H209.52Zm19.8,9.18a3.44,3.44,0,0,1,1,2.52c-.12,1.38-.72,2.1-1.92,2.1s-2.82-.78-5.22-2.34a54.76,54.76,0,0,0-13.5-5.88,5.75,5.75,0,0,1,.18-.9c2.82.06,6,.3,9.48.66C224.58,47.46,227.94,48.72,229.32,50.34Z"/><path d="M283.92,2.76c1.74,1.26,2.64,2,2.64,2.34,0,.48-.3.72-.78.78-1.92-.18-3.06-.3-3.48-.3-3.12.6-7,1.14-11.7,1.56a18.52,18.52,0,0,0,2.28,6.66h9.84a22.77,22.77,0,0,1,3.48-4.2.87.87,0,0,1,.42-.12,10.23,10.23,0,0,1,2.58,1.86A13.2,13.2,0,0,1,292,14.52c0,.6-.18.9-.42,1H274a13.13,13.13,0,0,0,2.34,2.46,24.44,24.44,0,0,0,12.3,6c1-.12,1.86-2.22,2.82-6.18a3.62,3.62,0,0,0,1,.3,43.88,43.88,0,0,0-.48,6,6.65,6.65,0,0,0,1.68,3.42,2.66,2.66,0,0,1,.6,1.5c0,1.08-.84,1.62-2.46,1.68A9.25,9.25,0,0,1,288,30a33,33,0,0,1-15.9-9.06,24.77,24.77,0,0,1-3.78-5.46H252.6V23.1c7.08-.6,12.36-1.44,16-2.64a8.74,8.74,0,0,1,.54,1c-4.68,2.46-12.54,4.92-23.7,7.38-.3,1.8-.66,2.64-1.14,2.64s-.84-.78-1.38-2.4a54.79,54.79,0,0,1-1.8-5.88,30.44,30.44,0,0,0,5.52.36H247V10.08a24.36,24.36,0,0,0-.66-5.34L253.14,7C264.36,5.58,273.3,3.3,280,.18,280.68.66,282,1.5,283.92,2.76ZM255,31h22.26c1.68-1.8,2.82-2.7,3.48-2.76a10.86,10.86,0,0,1,3.48,1.92c1.56,1.2,2.34,2.1,2.34,2.58a1.57,1.57,0,0,1-.84,1.2,7.39,7.39,0,0,0-1.44,1.44v9.9c.18,3.84.3,6.24.3,7.44,0,1.38-1.14,2.1-3.3,2.16-1.68,0-2.58-.42-2.64-1.2V50.88H255.3v2.34c-.3,1.32-1.44,2-3.48,2-1.32,0-2.1-.24-2.34-.66,0-4.08.06-8,.24-11.94V34.74a30.58,30.58,0,0,0-.48-5.94ZM265.86,7.5c-4,.3-8.4.54-13.26.66V13.8h14.94A21.32,21.32,0,0,1,265.86,7.5Zm12.78,32.22v-7.2H255.3v7.2Zm0,9.6v-8H255.3v8Z"/><path d="M371.7,26.46a.89.89,0,0,1-.72.72,6.72,6.72,0,0,1-2.58.36,30.94,30.94,0,0,1-7.2,11.82c2,4.5,4.38,7.26,7.08,8.22,1,0,2.4-2.52,4.38-7.62.6.06.9.12.9.24a20.29,20.29,0,0,0-1.74,7.8,4,4,0,0,0,1.08,2.34A4.88,4.88,0,0,1,374.22,53c0,1.08-.84,1.62-2.4,1.74-2.64,0-5.52-1.14-8.7-3.36a29.14,29.14,0,0,1-6-8.4,51.32,51.32,0,0,1-15.84,7.74,8.22,8.22,0,0,0-.48-.84,50,50,0,0,0,14.64-10.68,63,63,0,0,1-3.78-19.26H339.48v9.24c3.12-.9,6.3-1.92,9.54-3.12l.48,1a77.39,77.39,0,0,1-10,5.94V49.26c-.12,3.3-2.4,5.16-6.84,5.64a1,1,0,0,1-1.08-1.08,9.62,9.62,0,0,0-.9-2.1q-.36-1.35-5.76-2.34v-1c2.28.18,4.68.24,7.14.24,1.08,0,1.68-.18,1.74-.6V35.58c-2.28,1-4.62,1.92-7.08,2.76A5.79,5.79,0,0,0,326,41c-.12.66-.36,1-.84,1s-1.62-1.56-3.06-4.8a36.09,36.09,0,0,0-1.74-4.08,100.15,100.15,0,0,0,13.38-2.46V19.92c-6.48.06-10.5.3-12.12.66-.42-1-.9-2-1.44-3.12a113.11,113.11,0,0,0,13.56.6V9.36a87.25,87.25,0,0,1-11.52,1.32,8.18,8.18,0,0,0-.24-1c9.36-1.92,16.38-4.8,21-8.64,3.72,2.64,5.64,4.2,5.64,4.62s-.36.6-1,.6c-1.44-.18-2.64-.3-3.48-.42a23.49,23.49,0,0,1-4.68,2v10.2h12.06c-.48-8.16-.84-13.74-1.2-16.74,5.7.6,8.58,1.14,8.7,1.68,0,.36-.24.6-.72.78q-1.17.63-2.16,1.08c0,4.92.12,9.36.36,13.2h7a22.43,22.43,0,0,1,3.9-4.14c.18,0,.36.06.54.06a10,10,0,0,1,1.44,1c2.52,2.16,3.84,3.54,3.84,4.14s-.24.84-.66.84h-16c.18,2.88.42,5.46.78,7.68a65.71,65.71,0,0,0,1.8,6.66,33,33,0,0,0,4.62-11.7C369.06,24.6,371.7,25.92,371.7,26.46ZM369.66,9a8.62,8.62,0,0,1-.24,2,2.39,2.39,0,0,1-2.34,1.74c-.66,0-1.56-1.08-2.76-3.24a17.37,17.37,0,0,0-4.08-5.22,1.57,1.57,0,0,0,.42-.78C366.42,4.2,369.42,6,369.66,9Z"/><path d="M402.9,6.42a19.41,19.41,0,0,1,3.6,3.72c0,.48-.18.72-.48.72h-8.88V13.8c5.28,2.76,7.92,5.22,8,7.44,0,1.56-.42,2.52-1.26,3a2.78,2.78,0,0,1-1.5.36c-.78,0-1.44-.9-1.92-2.82a27.25,27.25,0,0,0-3.3-6.36V32c0,1.08-1.14,1.62-3.36,1.68-1.32,0-1.92-.3-1.92-1,0-4.08.06-8.46.12-13.14a29.4,29.4,0,0,1-10.74,10.8c-.24,0-.42-.18-.54-.66a37.46,37.46,0,0,0,9.12-16.32q.45-1.53.72-2.52h-2a27.37,27.37,0,0,0-5.76.48c-.24-.66-.48-1.44-.84-2.4a39.59,39.59,0,0,0,6.6.42H392V3.78a26.4,26.4,0,0,1-.3-3.54q7.29.9,8.1,2.16c0,.54-.42.9-1.14,1.14-1.08.54-1.56.9-1.56,1v4.8h1.44a28.56,28.56,0,0,1,2.58-3.12,1.2,1.2,0,0,1,.66-.42A3.35,3.35,0,0,1,402.9,6.42ZM389.76,38.1c.12,1.14.18,2.94.18,5.34-.06,5.16-2,7.68-5.82,7.8-2,0-3.12-.72-3.24-2a5,5,0,0,1,2-3.48,10.65,10.65,0,0,0,3.6-3.12A11.16,11.16,0,0,0,388.68,38,7.35,7.35,0,0,1,389.76,38.1ZM402,37.8c0,.72-1.08,1.38-3.18,2.1v6c0,1.8,1,2.7,2.88,2.82h10.68c2.16,0,3.66-.72,4.5-2.1.6-.9,1.32-3.06,2.16-6.42a10.41,10.41,0,0,0,1.08.06v6.3c0,.54.42,1,1.14,1.2.84.48,1.26,1,1.26,1.5-.12,1.86-1.86,3.12-5.28,3.72a73.56,73.56,0,0,1-8.16.48,91.42,91.42,0,0,1-10.62-.36c-3.24-.24-4.8-2.94-4.8-8.22V41.64a33.33,33.33,0,0,0-.42-6.18C399.06,36.54,402,37.32,402,37.8Zm11.94,3.48a6.11,6.11,0,0,1-.3,2,2.39,2.39,0,0,1-2.34,1.74c-.6,0-1.38-1.14-2.46-3.48a19.37,19.37,0,0,0-3.6-5.7,1.34,1.34,0,0,0,.42-.72Q413.58,36.24,413.94,41.28ZM412.38,3.84h11.16c1.56-1.92,2.64-2.94,3.24-3A10,10,0,0,1,430,2.64c1.44,1.08,2.16,1.92,2.16,2.4s-.3.72-.84,1.08a13.53,13.53,0,0,0-1.62,1.38v14c.24,5.46.36,9,.36,10.56,0,1.32-1.08,2-3.12,2-1.56,0-2.4-.36-2.46-1.08V30.78H412.92V32.1c-.24,1.2-1.38,1.8-3.3,1.8-1.2,0-1.92-.18-2.16-.6,0-5,.06-9.84.24-14.64V9.12a46.38,46.38,0,0,0-.48-7.26Zm12.12,8.28V5.34H412.92v6.78Zm0,8V13.68H412.92v6.48Zm0,9.06V21.78H412.92v7.44ZM433.56,47a3.16,3.16,0,0,1-1.14,2.76,3.23,3.23,0,0,1-1.92.66c-1.44,0-2.46-1.44-3-4.44a16.82,16.82,0,0,0-4.2-7.86,8.55,8.55,0,0,1,.72-.66Q433.56,42.48,433.56,47Z"/><path d="M463.44,8.16c2.1,1.86,3.3,3.12,3.54,3.72,0,.48-.18.72-.42.72H457.8v8.82h2.88a28.56,28.56,0,0,1,2.58-3.12,1.2,1.2,0,0,1,.66-.42,3.35,3.35,0,0,1,1.08.6,19.41,19.41,0,0,1,3.6,3.72c0,.48-.18.72-.48.72h-9.84V33.6h2.22c1.5-2.64,2.52-4,3-4.2.24,0,1.08.9,2.52,2.58a7.72,7.72,0,0,1,1.74,2.46c0,.54-.18.78-.48.78h-9V46.14c4.56,1.32,12.24,1.92,22.92,1.92,4.74,0,9-.12,12.72-.36l.06,1.14a4.26,4.26,0,0,0-2.46,1.5,5.58,5.58,0,0,0-.84,2,1.44,1.44,0,0,1-1.56,1.38c-2.1,0-4.92-.06-8.46-.06-11.58-.24-19.86-1.56-24.9-4a15.35,15.35,0,0,1-8-8c-1.26,5.82-3.6,10-7,12.48a6,6,0,0,0-.6-.66c2.28-4.32,3.48-11.16,3.54-20.46a54,54,0,0,0-.18-5.64c4.86.84,7.32,1.5,7.32,2s-.24.66-.72.84c-.9.48-1.32.84-1.32,1a59.29,59.29,0,0,1-.6,7.92,17.74,17.74,0,0,0,5.22,4.86V22.92H447a27.13,27.13,0,0,0-5.7.48c-.24-.66-.48-1.44-.84-2.4a38.21,38.21,0,0,0,6.54.42h5.88V12.6h-4.44a28.2,28.2,0,0,0-5.76.48c-.24-.66-.48-1.44-.78-2.4a38.21,38.21,0,0,0,6.54.42h4.44V6.18a51,51,0,0,0-.3-5.94c5.22.78,7.86,1.44,7.86,2s-.36.78-1,.9c-1.08.48-1.68.84-1.68,1.2V11.1h1.32C460,10,460.86,8.94,461.7,8a1.2,1.2,0,0,1,.66-.42A3.35,3.35,0,0,1,463.44,8.16Zm26-3.6c1.32,1,2,1.74,2,2.22s-.3.72-.9,1a6.25,6.25,0,0,0-1.5,1.26v8.52c.18,3.36.3,5.46.3,6.42,0,1.2-1,1.86-2.88,1.86-1.5,0-2.28-.3-2.28-1V22.68h-9.78v13c0,1.8.84,2.7,2.64,2.7a29.6,29.6,0,0,0,4.14.24,34.42,34.42,0,0,0,3.6-.18c1.32,0,2.22-1,2.7-3a40.83,40.83,0,0,0,1.5-7.38l.9-.06a71.73,71.73,0,0,0,.3,8c0,.48.24.84.84,1.2,1.2.6,1.86,1.32,1.86,2.22,0,1.8-1.68,2.94-4.92,3.36a41.1,41.1,0,0,1-6.18.42,45.93,45.93,0,0,1-6.3-.3c-3.72-.12-5.7-2.16-5.88-6.24V10.8c-.12-2.4-.24-4.8-.42-7.08l5.16,2h9.06c1.44-1.8,2.4-2.76,3-2.82A9.23,9.23,0,0,1,489.42,4.56ZM484.2,21.12V7.26h-9.78V21.12Z"/><path d="M519.72,3.54q0,.81-3.78,1.26a71.73,71.73,0,0,1-4.86,10.86c2.4.72,3.6,1.2,3.6,1.56s-.42.6-1.26.84-1.14.6-1.14.84V38.58c.12,5.4.24,10.44.24,15.18-.18,1-1.38,1.5-3.66,1.62q-2.16,0-2.16-1.08c.12-5.1.18-10.26.18-15.54V22.68a46.77,46.77,0,0,1-6.42,7.5,4,4,0,0,0-.6-.66C506.22,19.44,510.12,9.66,511.44.06,517,1.68,519.72,2.82,519.72,3.54Zm20.16-.9c0,.54-.42.9-1.14,1.14-1.08.54-1.56.9-1.56,1v11q3.6-1.08,7.56-2.52c1.26-2.52,2.28-3.84,3-3.84,3.66,1.44,5.52,2.46,5.52,3.18,0,.48-.48,1.08-1.44,1.74a4,4,0,0,0-1,1c-.18,11.4-.72,18.06-1.68,20q-1.89,4.14-5.94,4.14c-.6-.12-1-.66-1.2-1.74a4.66,4.66,0,0,0-2.22-2.46c-1-.42-1.86-.72-2.58-1v7.2c0,1.08-1.14,1.62-3.36,1.74-1.32,0-1.92-.3-1.92-1,.06-7,.12-14.64.18-22.92-2.64.84-4.86,1.56-6.78,2.16V45c.18,2.16,2.22,3.24,6.18,3.24H544.8c2.34,0,3.66-1.08,4-3.36a61,61,0,0,0,1.32-8.34,3.83,3.83,0,0,0,1.44.3c0,1.08-.06,3.84-.18,8.16a2.69,2.69,0,0,0,.9,2.28c1.08.78,1.68,1.56,1.68,2.28q0,3.06-5,3.6a60.2,60.2,0,0,1-8.64.36c-8.28,0-12.42-.12-12.42-.3Q520,53.13,520,45.66V23.22A25.09,25.09,0,0,0,515.4,25a15.35,15.35,0,0,0-1.86-2.82A29.82,29.82,0,0,0,520,21V11.34c-.12-1.74-.18-3.54-.3-5.4,5.52.9,8.34,1.62,8.34,2.16s-.9,1.2-2.7,1.8v9.66c2-.6,4.32-1.26,6.78-2.1V4a26.4,26.4,0,0,1-.3-3.54Q539.07,1.38,539.88,2.64Zm2.28,31c1.5,0,2.4-.48,2.64-1.56.54-2,.84-7.68.84-17-3.12,1-5.94,1.8-8.46,2.58V33.18A30.28,30.28,0,0,0,542.16,33.66Z"/><path d="M576.84,3.54c0,.48-1.2.9-3.54,1.2a91,91,0,0,1-4,11.4q4,1.08,4,1.62c0,.3-.42.54-1.14.78s-1.08.54-1.08.72v19.5c.12,5.34.18,10.32.18,15-.12.84-1.26,1.38-3.36,1.5-1.38,0-2-.36-2-1,.12-5,.18-10.2.18-15.36V23.22a49,49,0,0,1-5.7,8.64l-.6-.6a92.11,92.11,0,0,0,9.48-31C574.26,1.86,576.84,2.94,576.84,3.54Zm4.8,1.2h5.22c1.32-2,2.28-3,2.76-3.06a9.08,9.08,0,0,1,2.76,1.56c1.26,1,1.92,1.62,1.92,2s-.3.66-.78,1a7.12,7.12,0,0,0-1.32,1.2V17.82c.18,4,.3,6.6.3,7.8s-.9,1.74-2.64,1.74c-1.38,0-2.1-.3-2.1-1V23.58h-5.28V53.34c-.24,1.08-1.26,1.68-3.06,1.68-1.14,0-1.8-.24-2-.6,0-8.1.06-16.08.24-23.88V14.94c-.12-6.72-.24-10.68-.42-11.88ZM587.76,13V6.24h-5.28V13Zm0,9V14.64h-5.28V22ZM600,4.74h5.58a11.7,11.7,0,0,1,2.82-3.36,7.91,7.91,0,0,1,2.88,1.38c1.62,1.08,2.46,1.86,2.46,2.4,0,.36-.42.78-1.14,1.2s-1.2.84-1.32,1.14V47.76c0,3.9-2,6.3-5.94,7.26-.6,0-1-.42-1.2-1.26A6.34,6.34,0,0,0,601,50.22a24.93,24.93,0,0,0-4.44-1.56,2.64,2.64,0,0,0,.12-1.08A61.53,61.53,0,0,0,605,48a1.22,1.22,0,0,0,1.32-1.38V23.52h-5.22v2c-.24,1.08-1.14,1.56-2.82,1.56-1,0-1.62-.12-1.86-.48,0-3.72.06-7.32.18-10.86V8.64a30.23,30.23,0,0,0-.36-5.34ZM606.3,13V6.3h-5.22V13Zm0,8.94V14.64h-5.22V22Z"/></g></g></svg>