<svg xmlns="http://www.w3.org/2000/svg" viewBox="0 0 734.4 55.56"><g id="图层_2" data-name="图层 2"><g id="图层_1-2" data-name="图层 1"><path d="M16.92,7.38c2.1,1.92,3.3,3.12,3.54,3.72,0,.54-.18.78-.48.78H6.6a27.37,27.37,0,0,0-5.76.48C.6,11.64.36,10.86,0,9.9a39.59,39.59,0,0,0,6.6.42h6c.84-1.14,1.68-2.16,2.52-3.12a1.81,1.81,0,0,1,.66-.42A2.93,2.93,0,0,1,16.92,7.38ZM7.32,34.62h3.84c1.44-1.92,2.46-2.88,3-2.94a9.23,9.23,0,0,1,3,1.68c1.32,1.08,2,1.8,2,2.28s-.24.66-.72,1a7.07,7.07,0,0,0-1.26,1.32v7.74c.18,3.06.3,5,.3,5.88,0,1.2-1,1.8-2.94,1.86-1.44,0-2.22-.36-2.28-1V49.8H7.8v3c-.24,1.08-1.26,1.68-3.06,1.68-1.14,0-1.8-.24-2-.6,0-3.36.06-6.54.24-9.78V37.68a27.27,27.27,0,0,0-.42-4.86ZM16,15.36a18.07,18.07,0,0,1,3.3,3.42c0,.54-.18.78-.48.78H9.24A27.37,27.37,0,0,0,3.48,20c-.24-.72-.48-1.5-.84-2.46a39.59,39.59,0,0,0,6.6.42h2.7a22.73,22.73,0,0,1,2.4-2.82c.24-.24.42-.42.6-.42A2.75,2.75,0,0,1,16,15.36ZM15.78,23a19.58,19.58,0,0,1,3.3,3.48c0,.54-.18.78-.48.78H9.24a33.3,33.3,0,0,0-5.76.42c-.24-.66-.48-1.44-.84-2.4a39.59,39.59,0,0,0,6.6.42h2.52a22.73,22.73,0,0,1,2.4-2.82c.24-.24.42-.42.6-.42A2.34,2.34,0,0,1,15.78,23ZM9.36,1.74c2,1.32,3.12,2.94,3.12,4.74a3.29,3.29,0,0,1-1,2.52,2.42,2.42,0,0,1-1.74.48c-1,0-1.56-.9-1.86-2.82A18.69,18.69,0,0,0,6.6,2.94,20.18,20.18,0,0,0,5,.78c.12-.12.24-.36.48-.6A12.31,12.31,0,0,1,9.36,1.74ZM12.3,48.18V36.12H7.8V48.18Zm39.9-14.4C54.06,35.46,55,36.48,55,37s-.24.78-.6.78H39.66a14.51,14.51,0,0,0,3.9,6.18,14.68,14.68,0,0,0,5.16-5.58c3.36,2.4,5.1,3.72,5.1,3.9a.59.59,0,0,1-.6.66,13.78,13.78,0,0,1-2.16-.12,32,32,0,0,1-6.24,2.28,21,21,0,0,0,6.06,3.42,24.76,24.76,0,0,0,4.56,1.38,2.83,2.83,0,0,1-.24,1,5.29,5.29,0,0,0-1.56.54,4.64,4.64,0,0,0-1.38,2.16c-.48.84-.9,1.32-1.26,1.32a5,5,0,0,1-2-.9c-5.76-3.06-9.36-8.46-10.74-16.26H35.52a18,18,0,0,1-4.2,4.08v6.6a44.36,44.36,0,0,0,7.5-1,5.45,5.45,0,0,0,.42.84c-2.88,1.68-7.8,3.36-14.76,5.1-.3,1.44-.66,2.22-1,2.22s-.72-.72-1.14-2-1-3.06-1.56-5a23.44,23.44,0,0,0,4.74.3,4.54,4.54,0,0,0,.9-.06V44.4A32,32,0,0,1,18,46.26a4.94,4.94,0,0,0-.36-1c5.4-1.56,9.18-4.08,11.28-7.56-4.26.06-6.9.3-8,.72-.42-1-.9-2-1.38-3.12a46.92,46.92,0,0,0,8.7.6V31.56c-3.78.12-5.7.3-5.7.48a28.14,28.14,0,0,1-1.14-3.12,42.83,42.83,0,0,0,6.84.72V26.16c-4.92.18-7.44.36-7.44.54a19.62,19.62,0,0,1-1.14-3.12c.78.3,3.66.54,8.58.78-.06-1.56-.18-2.82-.3-3.9,4.8.72,7.26,1.32,7.26,1.86s-.3.72-.84.84c-1,.42-1.56.78-1.56,1.08v.18H39.6c-.06-1.68-.18-3.06-.3-4.14,4.8.72,7.26,1.32,7.26,1.86s-.3.72-.9.84c-1,.42-1.56.78-1.56,1.08v.36h3.42C49,22.8,49.86,22,50.28,21.9s1,.54,1.92,1.5a8.78,8.78,0,0,1,1.56,1.8c0,.6-.24,1-.72,1H44.1v3.6h2.1c1.44-1.62,2.4-2.46,2.82-2.52s.9.48,1.86,1.44a10.27,10.27,0,0,1,1.56,1.86c0,.6-.24,1-.66,1H44.1v4.44h3.54a17.79,17.79,0,0,1,3-2.94h.42C51.42,33.24,51.78,33.48,52.2,33.78ZM38.76,3.42a5.6,5.6,0,0,1-.3,1.92,1.87,1.87,0,0,1-.42.72h8.82c1.68-2.4,2.82-3.6,3.36-3.6.36,0,1.14.66,2.34,1.92a10.3,10.3,0,0,1,2,2.52q0,.9-.72.9H28.44c-5.76.12-8.7.3-8.7.54a23,23,0,0,1-1.2-3.12c.84.3,3.9.6,9.24.84h6.9a8.67,8.67,0,0,1-1.44-1.5A17.17,17.17,0,0,0,28.8.66.88.88,0,0,0,29.16,0C35.28.42,38.52,1.56,38.76,3.42ZM25,10.68h5c1.2-1.32,2-2,2.52-2.1A8.27,8.27,0,0,1,35,10c1.14.84,1.74,1.5,1.74,1.86a1.08,1.08,0,0,1-.66.9,8.47,8.47,0,0,0-1.2,1.08v2.58c.18,1.08.3,1.74.3,2,0,1.08-.84,1.62-2.46,1.62-1.26,0-1.92-.3-1.92-.9v-.3H26v.48c-.24,1-1.08,1.38-2.58,1.38-1,0-1.5-.12-1.68-.48,0-1.68,0-3.36.12-5V11.82a10.37,10.37,0,0,0-.3-2.52Zm5.82,6.6v-5H26v5Zm8.76,8.88H32.82v3.6H39.6Zm0,5.34H32.82v4.44H39.6Zm1.86-20.76h5.28q1.8-1.89,2.52-2a8.27,8.27,0,0,1,2.52,1.44c1.14.84,1.74,1.5,1.74,1.86a1.34,1.34,0,0,1-.6.9A3.92,3.92,0,0,0,51.78,14v2.52c.12,1,.24,1.62.24,1.86C52,19.5,51.18,20,49.56,20c-1.2,0-1.86-.3-1.92-.9v-.36H42.48Q42.12,20,40,20c-1,0-1.5-.12-1.68-.42,0-1.62.06-3.18.18-4.74V11.76a10.12,10.12,0,0,0-.36-2.34Zm6.18,6.48V12.3h-5.1v4.92Z"/><path d="M112.2,26.34a.89.89,0,0,1-.72.72,6.72,6.72,0,0,1-2.58.36,30.94,30.94,0,0,1-7.2,11.82c2,4.5,4.38,7.26,7.08,8.22,1,0,2.4-2.52,4.38-7.62.6.06.9.12.9.24a20.29,20.29,0,0,0-1.74,7.8,4,4,0,0,0,1.08,2.34,4.88,4.88,0,0,1,1.32,2.64c0,1.08-.84,1.62-2.4,1.74-2.64,0-5.52-1.14-8.7-3.36a29.14,29.14,0,0,1-6-8.4,51.32,51.32,0,0,1-15.84,7.74,8.22,8.22,0,0,0-.48-.84A50,50,0,0,0,95.94,39.06,63,63,0,0,1,92.16,19.8H80V29c3.12-.9,6.3-1.92,9.54-3.12l.48,1a77.39,77.39,0,0,1-10,5.94V49.14c-.12,3.3-2.4,5.16-6.84,5.64a1,1,0,0,1-1.08-1.08,9.62,9.62,0,0,0-.9-2.1q-.36-1.35-5.76-2.34v-1c2.28.18,4.68.24,7.14.24,1.08,0,1.68-.18,1.74-.6V35.46c-2.28,1-4.62,1.92-7.08,2.76a5.79,5.79,0,0,0-.66,2.7c-.12.66-.36,1-.84,1s-1.62-1.56-3.06-4.8A36.09,36.09,0,0,0,60.9,33a100.15,100.15,0,0,0,13.38-2.46V19.8c-6.48.06-10.5.3-12.12.66-.42-1-.9-2-1.44-3.12a113.11,113.11,0,0,0,13.56.6V9.24a87.25,87.25,0,0,1-11.52,1.32,8.18,8.18,0,0,0-.24-1c9.36-1.92,16.38-4.8,21-8.64,3.72,2.64,5.64,4.2,5.64,4.62s-.36.6-1,.6c-1.44-.18-2.64-.3-3.48-.42a23.49,23.49,0,0,1-4.68,2v10.2H92C91.56,9.78,91.2,4.2,90.84,1.2c5.7.6,8.58,1.14,8.7,1.68,0,.36-.24.6-.72.78q-1.17.63-2.16,1.08c0,4.92.12,9.36.36,13.2h7a22.43,22.43,0,0,1,3.9-4.14c.18,0,.36.06.54.06a10,10,0,0,1,1.44,1c2.52,2.16,3.84,3.54,3.84,4.14s-.24.84-.66.84h-16c.18,2.88.42,5.46.78,7.68a65.71,65.71,0,0,0,1.8,6.66,33,33,0,0,0,4.62-11.7C109.56,24.48,112.2,25.8,112.2,26.34Zm-2-17.46a8.62,8.62,0,0,1-.24,2,2.39,2.39,0,0,1-2.34,1.74c-.66,0-1.56-1.08-2.76-3.24a17.37,17.37,0,0,0-4.08-5.22,1.57,1.57,0,0,0,.42-.78C106.92,4.08,109.92,5.88,110.16,8.88Z"/><path d="M129.48,21.18a6.11,6.11,0,0,1-.3,2A2.39,2.39,0,0,1,126.84,25c-.6,0-1.5-1-2.58-3a16.88,16.88,0,0,0-3.78-4.74,1.57,1.57,0,0,0,.42-.78C126.42,17,129.24,18.6,129.48,21.18Zm6.78-7.8c-1,4.2-2.4,9.72-4.2,16.5s-2.46,10.5-2.46,11.52a19.74,19.74,0,0,0,.66,4.8,22,22,0,0,1,.78,4.08c0,1.68-1,2.52-2.82,2.52-2.28,0-3.48-1.08-3.48-3.18,0-1,.12-3.06.48-6.24q0-2.7-1.44-3.42a13.09,13.09,0,0,0-3.24-1.14,2.28,2.28,0,0,1,.18-1c.72,0,1.38.06,2.1.06,2.16,0,3.72-1.2,4.62-3.6l8-21.24C135.42,13.26,135.66,13.38,136.26,13.38ZM133.2,8.22a5.6,5.6,0,0,1-.3,1.92,2.16,2.16,0,0,1-2.16,1.56c-.72,0-1.68-1-3-2.88a17.74,17.74,0,0,0-4.44-4.74,1.34,1.34,0,0,0,.42-.72C129.78,4,133,5.58,133.2,8.22Zm13.86,21.12a.89.89,0,0,1-.78.84c-1,.6-1.44,1-1.44,1.14q-.27,17.55-12.9,23.46a6.35,6.35,0,0,1-.6-.72c5.4-4.5,8.16-11.46,8.34-21.06a25.39,25.39,0,0,0-.54-5.82Q147.06,28.44,147.06,29.34ZM170,6.18c2.52,2.16,3.84,3.48,3.84,4.08s-.24.84-.66.84H152.82A31.18,31.18,0,0,1,146,19.86c6.42-.06,12.36-.3,17.82-.66a21.09,21.09,0,0,0-4.44-4.5l.72-.54c7.8,3.06,11.76,5.82,11.82,8.28,0,1.68-.48,2.76-1.38,3.24a2.79,2.79,0,0,1-1.68.42q-1.62,0-2.7-3.06c-.48-1-1-1.8-1.5-2.58a138.17,138.17,0,0,1-24.36,3.66c-.36,1.74-.72,2.58-1.08,2.58s-.66-.6-1.14-1.92c-.78-2.28-1.32-4.14-1.68-5.46,2.1.24,4.26.42,6.42.54H144a34.84,34.84,0,0,0,2.76-8.76h-.54q-7.38,0-9.18.72A29.38,29.38,0,0,0,135.6,8.7a52.58,52.58,0,0,0,9.78.6H164.1c1.8-2.28,3.06-3.66,3.9-4.14.18,0,.36.06.54.06A10,10,0,0,1,170,6.18ZM155.88,5a6.37,6.37,0,0,1-.3,2,2.31,2.31,0,0,1-2.34,1.68c-.66,0-1.62-1-2.82-3.06a17.81,17.81,0,0,0-4.08-5,1.34,1.34,0,0,0,.42-.72C152.64.6,155.64,2.28,155.88,5ZM157,29.64c0,.54-.42.9-1.14,1.14-1.08.54-1.62.9-1.62,1V51.54c0,1-1.14,1.62-3.3,1.74-1.32,0-2-.36-2-1,.12-6.18.24-13.26.24-21.24a19.66,19.66,0,0,1-.36-3.54C153.66,28.08,156.36,28.8,157,29.64ZM167.28,29a1.21,1.21,0,0,1-.78,1,5.91,5.91,0,0,0-1.68,1v17c0,.84.84,1.26,2.58,1.26s2.76-.42,2.88-1.26a39.59,39.59,0,0,0,.84-4.44c.24-1.5.48-2.94.66-4.32l.84.18c-.12,2-.18,4.26-.18,6.54a3.46,3.46,0,0,0,1.38,2.58,2.32,2.32,0,0,1,1.08,2.1c-.06,1.2-.78,2-2.22,2.4a16.3,16.3,0,0,1-4.74.54,31.31,31.31,0,0,1-4.32-.18q-3.87-.09-4-4.5V31.86a20.87,20.87,0,0,0-.48-5Q167.28,28.08,167.28,29Z"/><path d="M186.06,17.4c2.52,1.32,3.78,2.82,3.78,4.56s-.48,2.76-1.32,3.36a3.08,3.08,0,0,1-2.22.66c-1.08,0-1.74-.9-2.1-2.82a15.8,15.8,0,0,0-1.38-3.72,15.29,15.29,0,0,0-2.1-2.76,3.5,3.5,0,0,1,.66-.78A15.89,15.89,0,0,1,186.06,17.4Zm10.86-5.1c-1.14,4.44-2.7,10.32-4.62,17.58s-2.76,11.28-2.76,12.36a22,22,0,0,0,.72,5,23.82,23.82,0,0,1,.78,4.2c0,1.8-1,2.76-3,2.76-2.4,0-3.66-1.2-3.72-3.48,0-1,.18-3.06.54-6.3,0-1.92-.42-3.18-1.14-3.72a9.9,9.9,0,0,0-2.52-1.2,2.39,2.39,0,0,1,.18-1c.3,0,.6.06.9.06,2.4,0,4.08-1.32,5-3.84l8.7-22.8C196,12.06,196.32,12.18,196.92,12.3Zm-7.08-9.36c2.64,1.44,4,3.06,4,4.92a4,4,0,0,1-1.38,3.3,3.08,3.08,0,0,1-2.22.66c-1.14,0-1.92-1-2.28-2.94a16.66,16.66,0,0,0-1.5-4,15.29,15.29,0,0,0-2.1-2.76,3.5,3.5,0,0,1,.66-.78A15.43,15.43,0,0,1,189.84,2.94Zm41.52,8.88c1.32,1,2,1.74,2,2.22s-.3.72-.84,1A5.81,5.81,0,0,0,231,16.32v3.84c.18,1.5.3,2.46.3,2.88,0,1.26-1,1.92-2.88,1.92-1.44,0-2.22-.3-2.28-1V22.62H203.7a101.52,101.52,0,0,1-.72,10.5h8.82c.06-1,.12-1.86.18-2.82,0-1.92-.06-4-.18-6.06,5.52.24,8.28.84,8.28,1.68-.18.84-1,1.38-2.4,1.5a52.82,52.82,0,0,1-.3,5.7h9.18a17.52,17.52,0,0,1,3.3-3.84,2.12,2.12,0,0,1,.36-.06A9,9,0,0,1,232.56,31a12.28,12.28,0,0,1,2.52,2.88c0,.6-.12,1-.36,1h-15.6c2.22,4.38,4.56,7.44,7.08,9.18a15.27,15.27,0,0,0,9.24,3.6c-.06.48-.12.84-.18,1.2A4.4,4.4,0,0,0,233.64,50a7.8,7.8,0,0,0-1.26,2.52c-.3.84-.78,1.32-1.38,1.32-1.44,0-3.72-1.92-7-5.76-2.76-3.18-4.86-7.56-6.36-13.2h-.6c-.12.54-.18,1-.24,1.38-1.8,8.94-8.52,15.12-20,18.66l-.6-1.08c8.88-4.2,14-10.5,15.36-19h-8.88a30.63,30.63,0,0,1-2.76,8.64c-2,4.26-4,7-5.94,8.4a1,1,0,0,1-.84-.54,48.24,48.24,0,0,0,4.14-12.48c.9-4,1.38-10.68,1.5-20.16,0-5.64-.06-9.12-.12-10.5,0-1.08-.06-2.4-.18-3.9L204.42,7c8.64-1.44,15.54-3.6,20.7-6.54C225.72.9,227,1.74,229,3c1.74,1.2,2.64,2,2.64,2.34s-.3.72-.78.78c-1.92-.18-3.06-.3-3.42-.3-5.1,1.08-13,1.86-23.64,2.22v4.62h21.66c1.44-1.62,2.4-2.46,2.94-2.52A9.23,9.23,0,0,1,231.36,11.82Zm-27.6,9.24h22.38V14.22H203.76Zm23.46,7.14a4.89,4.89,0,0,1-.24,1.5A1.76,1.76,0,0,1,225.3,31c-.42,0-1-.66-1.74-2.1A13.31,13.31,0,0,0,221,25.5a1.12,1.12,0,0,0,.3-.6C225.06,25.32,227,26.4,227.22,28.2Z"/><path d="M249.6,12.66h1a70.42,70.42,0,0,0,2-12.24C257.52,1.86,260,2.88,260,3.36c0,.72-1,1.14-2.94,1.26a28.93,28.93,0,0,1-4.5,8h4.92c1.8-1.86,2.94-2.82,3.42-2.82a9.07,9.07,0,0,1,2.7,1.5q2.52,1.89,2.52,2.52t-.9,1.08a9.3,9.3,0,0,0-1.56,1.32V36.18c.12,6.84.18,11.46.3,13.8,0,1.2-1.32,1.86-4,1.86-1.08,0-1.56-.42-1.56-1.26V47.22h-8.76v4.56q-.36,1.8-3.24,1.8c-1.2,0-2-.24-2.22-.6,0-6.72.06-13.32.24-19.74V20.34c-.12-5.52-.24-8.76-.42-9.78Zm8.82,15.9V14.22h-8.76V28.56Zm0,17V30.12h-8.76V45.6ZM280.56,3.24c0,.6-1,1-2.94,1.26-.84,2.76-1.74,5.34-2.7,7.68H286c1.62-2,2.76-3.06,3.42-3.12a10.3,10.3,0,0,1,3.36,2q2.16,2,2.16,2.52,0,.72-1.44,1.26A3.76,3.76,0,0,0,292.2,16C291.36,32.4,290.28,43,289,47.88c-1.2,4.2-3.78,6.66-7.8,7.26-.66,0-1.14-.6-1.5-1.8A5.45,5.45,0,0,0,277,49.92a43.42,43.42,0,0,0-5.52-2.16,5.38,5.38,0,0,1,.12-1.32,65.16,65.16,0,0,0,9,.84c2.16-.18,3.3-1.14,3.3-2.94,1-1.8,2-12,3.06-30.48H274.2c-2.76,6.12-5.88,10.8-9.48,13.92a2.48,2.48,0,0,1-.3-.66c3.84-6.6,6.54-15.54,8-26.7C277.8,1.5,280.56,2.46,280.56,3.24Zm.54,29.88a5.78,5.78,0,0,1-1,3.72A3,3,0,0,1,277.5,38c-1,0-1.68-1.2-1.92-3.72-.9-4.56-2.16-8.1-3.84-10.56l.9-.66C278.22,26.82,281,30.12,281.1,33.12Z"/><path d="M301.32,54.24a1.75,1.75,0,0,0-.78-.66q10-6.39,17.1-19.14c4-6.12,6.18-15.84,6.54-29.16l-.24-2.58a3.34,3.34,0,0,0-.66-1.56c7.26,1,10.92,1.92,10.92,2.82q0,.9-1.8,1.26a3.28,3.28,0,0,0-1.56,1.38l-.06,1.14c-.12,1.32-.24,2.52-.36,3.66a46.81,46.81,0,0,0,9.84,24.24c4.32,5.7,9,9.54,14.16,11.52a2.77,2.77,0,0,1-.3,1.38c-1.08.12-1.62.24-1.68.48a4.45,4.45,0,0,0-2.22,1.86c-.72,1.56-1.44,2.34-2.1,2.4-1.68,0-4.8-3.3-9.36-9.78q-7.29-10.44-9.18-26.28C326.22,35.82,316.8,48.12,301.32,54.24Z"/><path d="M421,10.8a6.74,6.74,0,0,1,2.1,2c0,.48-.72.84-2,1.08l-2.94,8.64h2.58c1.68-1.92,2.76-2.94,3.24-2.94a8,8,0,0,1,2.64,1.68c1.5,1.32,2.28,2.22,2.28,2.7s-.9,1.2-2.7,1.68l-1.44,6.66h1.86c1.44-2,2.4-3.06,2.94-3.06a9.07,9.07,0,0,1,2.76,1.56c1.44,1.14,2.16,1.92,2.16,2.28s-.6,1.08-1.68,1.8a1.83,1.83,0,0,0-.66,1.56,80.31,80.31,0,0,1-2,13.68c-1,3.12-3.66,4.68-8,4.68-.6,0-1-.54-1.08-1.5a3.85,3.85,0,0,0-1.38-1.8A8.81,8.81,0,0,0,415,49.8c0-.18.06-.54.06-1.08,1.92.12,3.6.24,4.92.24,3.6,0,5.58-1,5.82-2.88.9-2.64,1.38-6.66,1.5-12.06H394.5a57.47,57.47,0,0,1-14,12.66,1.42,1.42,0,0,1-.54-.72A80.16,80.16,0,0,0,399.72,14H389.4c-2.52,0-4.68.12-6.48.24-.06-.24-.36-1-.84-2.28a55.81,55.81,0,0,0,7.68.48H400.2A90.35,90.35,0,0,0,403,.12c5.7,1.56,8.58,2.76,8.58,3.48-.36.72-1.56,1.2-3.66,1.44-.6,2.58-1.26,5-2,7.44h9.6c1.68-1.92,2.88-2.94,3.48-3.06A20,20,0,0,1,421,10.8ZM393.18,39.72a48.54,48.54,0,0,1,.18,4.92c-.06,5.64-2,8.46-5.7,8.58-1.92,0-2.88-.66-3-1.86a4.4,4.4,0,0,1,1.86-3.24,10.19,10.19,0,0,0,3.54-3.42,12.83,12.83,0,0,0,2.1-5Zm-.72-37.5C395,3.84,396.3,5.7,396.3,7.86a3.56,3.56,0,0,1-1.2,2.94,2.7,2.7,0,0,1-2,.6c-1.26,0-2.1-1.08-2.46-3.36A19.33,19.33,0,0,0,389,3.54a15.6,15.6,0,0,0-1.86-2.46q.18-.27.54-.72A17.05,17.05,0,0,1,392.46,2.22Zm3.42,30.06H419.7l1.68-8H401A63.25,63.25,0,0,1,395.88,32.28Zm4.5,6.66c2.22,2.76,3.36,5.16,3.36,7.26-.18,3.36-1.14,5.1-2.94,5.1s-2.58-.66-2.58-1.92a14.59,14.59,0,0,1,.66-3.3,19.3,19.3,0,0,0,.78-5V39.3Q400.29,39.12,400.38,38.94Zm1.5-16.44h10.5L415.86,14h-10.5A67.37,67.37,0,0,1,401.88,22.5ZM413.52,45c0,2.22-.9,3.36-2.58,3.36-1.86,0-2.82-.78-2.82-2.4.06-.42.18-1.38.36-2.82.06-.9.12-1.74.12-2.58a8.38,8.38,0,0,0-.72-3.6.49.49,0,0,0,.48-.3C411.66,39.18,413.4,42,413.52,45Zm9.36-3.3a4.47,4.47,0,0,1-.72,2.94,2.38,2.38,0,0,1-2.16,1c-.84,0-1.38-.84-1.62-2.58a17,17,0,0,0-3.24-7.32l.78-.54C420.48,37.62,422.82,39.78,422.88,41.7Z"/><path d="M492.18,26.34a.89.89,0,0,1-.72.72,6.72,6.72,0,0,1-2.58.36,30.94,30.94,0,0,1-7.2,11.82c2,4.5,4.38,7.26,7.08,8.22,1,0,2.4-2.52,4.38-7.62.6.06.9.12.9.24a20.29,20.29,0,0,0-1.74,7.8,4,4,0,0,0,1.08,2.34,4.88,4.88,0,0,1,1.32,2.64c0,1.08-.84,1.62-2.4,1.74-2.64,0-5.52-1.14-8.7-3.36a29.14,29.14,0,0,1-6-8.4,51.32,51.32,0,0,1-15.84,7.74,8.22,8.22,0,0,0-.48-.84,50,50,0,0,0,14.64-10.68,63,63,0,0,1-3.78-19.26H460V29c3.12-.9,6.3-1.92,9.54-3.12l.48,1a77.39,77.39,0,0,1-10,5.94V49.14c-.12,3.3-2.4,5.16-6.84,5.64A1,1,0,0,1,452,53.7a9.62,9.62,0,0,0-.9-2.1q-.36-1.35-5.76-2.34v-1c2.28.18,4.68.24,7.14.24,1.08,0,1.68-.18,1.74-.6V35.46c-2.28,1-4.62,1.92-7.08,2.76a5.79,5.79,0,0,0-.66,2.7c-.12.66-.36,1-.84,1s-1.62-1.56-3.06-4.8A36.09,36.09,0,0,0,440.88,33a100.15,100.15,0,0,0,13.38-2.46V19.8c-6.48.06-10.5.3-12.12.66-.42-1-.9-2-1.44-3.12a113.11,113.11,0,0,0,13.56.6V9.24a87.25,87.25,0,0,1-11.52,1.32,8.18,8.18,0,0,0-.24-1c9.36-1.92,16.38-4.8,21-8.64,3.72,2.64,5.64,4.2,5.64,4.62s-.36.6-1,.6c-1.44-.18-2.64-.3-3.48-.42a23.49,23.49,0,0,1-4.68,2v10.2H472c-.48-8.16-.84-13.74-1.2-16.74,5.7.6,8.58,1.14,8.7,1.68,0,.36-.24.6-.72.78q-1.17.63-2.16,1.08c0,4.92.12,9.36.36,13.2h7a22.43,22.43,0,0,1,3.9-4.14c.18,0,.36.06.54.06a10,10,0,0,1,1.44,1c2.52,2.16,3.84,3.54,3.84,4.14s-.24.84-.66.84h-16c.18,2.88.42,5.46.78,7.68a65.71,65.71,0,0,0,1.8,6.66,33,33,0,0,0,4.62-11.7C489.54,24.48,492.18,25.8,492.18,26.34Zm-2-17.46a8.62,8.62,0,0,1-.24,2,2.39,2.39,0,0,1-2.34,1.74c-.66,0-1.56-1.08-2.76-3.24a17.37,17.37,0,0,0-4.08-5.22,1.57,1.57,0,0,0,.42-.78C486.9,4.08,489.9,5.88,490.14,8.88Z"/><path d="M509.46,21.18a6.11,6.11,0,0,1-.3,2A2.39,2.39,0,0,1,506.82,25c-.6,0-1.5-1-2.58-3a16.88,16.88,0,0,0-3.78-4.74,1.57,1.57,0,0,0,.42-.78C506.4,17,509.22,18.6,509.46,21.18Zm6.78-7.8c-1,4.2-2.4,9.72-4.2,16.5s-2.46,10.5-2.46,11.52a19.74,19.74,0,0,0,.66,4.8,22,22,0,0,1,.78,4.08c0,1.68-1,2.52-2.82,2.52-2.28,0-3.48-1.08-3.48-3.18,0-1,.12-3.06.48-6.24q0-2.7-1.44-3.42a13.09,13.09,0,0,0-3.24-1.14,2.28,2.28,0,0,1,.18-1c.72,0,1.38.06,2.1.06,2.16,0,3.72-1.2,4.62-3.6l8-21.24C515.4,13.26,515.64,13.38,516.24,13.38Zm-3.06-5.16a5.6,5.6,0,0,1-.3,1.92,2.16,2.16,0,0,1-2.16,1.56c-.72,0-1.68-1-3-2.88a17.74,17.74,0,0,0-4.44-4.74,1.34,1.34,0,0,0,.42-.72C509.76,4,512.94,5.58,513.18,8.22ZM527,29.34a.89.89,0,0,1-.78.84c-1,.6-1.44,1-1.44,1.14q-.27,17.55-12.9,23.46a6.35,6.35,0,0,1-.6-.72c5.4-4.5,8.16-11.46,8.34-21.06a25.39,25.39,0,0,0-.54-5.82Q527,28.44,527,29.34ZM550,6.18c2.52,2.16,3.84,3.48,3.84,4.08s-.24.84-.66.84H532.8A31.18,31.18,0,0,1,526,19.86c6.42-.06,12.36-.3,17.82-.66a21.09,21.09,0,0,0-4.44-4.5l.72-.54c7.8,3.06,11.76,5.82,11.82,8.28,0,1.68-.48,2.76-1.38,3.24a2.79,2.79,0,0,1-1.68.42q-1.62,0-2.7-3.06c-.48-1-1-1.8-1.5-2.58a138.17,138.17,0,0,1-24.36,3.66c-.36,1.74-.72,2.58-1.08,2.58s-.66-.6-1.14-1.92c-.78-2.28-1.32-4.14-1.68-5.46,2.1.24,4.26.42,6.42.54H524a34.84,34.84,0,0,0,2.76-8.76h-.54q-7.38,0-9.18.72a29.38,29.38,0,0,0-1.44-3.12,52.58,52.58,0,0,0,9.78.6h18.72c1.8-2.28,3.06-3.66,3.9-4.14.18,0,.36.06.54.06A10,10,0,0,1,550,6.18ZM535.86,5a6.37,6.37,0,0,1-.3,2,2.31,2.31,0,0,1-2.34,1.68c-.66,0-1.62-1-2.82-3.06a17.81,17.81,0,0,0-4.08-5,1.34,1.34,0,0,0,.42-.72C532.62.6,535.62,2.28,535.86,5Zm1.08,24.6c0,.54-.42.9-1.14,1.14-1.08.54-1.62.9-1.62,1V51.54c0,1-1.14,1.62-3.3,1.74-1.32,0-2-.36-2-1,.12-6.18.24-13.26.24-21.24a19.66,19.66,0,0,1-.36-3.54C533.64,28.08,536.34,28.8,536.94,29.64ZM547.26,29a1.21,1.21,0,0,1-.78,1,5.91,5.91,0,0,0-1.68,1v17c0,.84.84,1.26,2.58,1.26s2.76-.42,2.88-1.26a39.59,39.59,0,0,0,.84-4.44c.24-1.5.48-2.94.66-4.32l.84.18c-.12,2-.18,4.26-.18,6.54a3.46,3.46,0,0,0,1.38,2.58,2.32,2.32,0,0,1,1.08,2.1c-.06,1.2-.78,2-2.22,2.4a16.3,16.3,0,0,1-4.74.54,31.31,31.31,0,0,1-4.32-.18q-3.87-.09-4-4.5V31.86a20.87,20.87,0,0,0-.48-5Q547.26,28.08,547.26,29Z"/><path d="M566,17.4c2.52,1.32,3.78,2.82,3.78,4.56s-.48,2.76-1.32,3.36a3.08,3.08,0,0,1-2.22.66c-1.08,0-1.74-.9-2.1-2.82a15.8,15.8,0,0,0-1.38-3.72,15.29,15.29,0,0,0-2.1-2.76,3.5,3.5,0,0,1,.66-.78A15.89,15.89,0,0,1,566,17.4Zm10.86-5.1c-1.14,4.44-2.7,10.32-4.62,17.58s-2.76,11.28-2.76,12.36a22,22,0,0,0,.72,5,23.82,23.82,0,0,1,.78,4.2c0,1.8-1,2.76-3,2.76-2.4,0-3.66-1.2-3.72-3.48,0-1,.18-3.06.54-6.3,0-1.92-.42-3.18-1.14-3.72a9.9,9.9,0,0,0-2.52-1.2,2.39,2.39,0,0,1,.18-1c.3,0,.6.06.9.06,2.4,0,4.08-1.32,5-3.84l8.7-22.8C576,12.06,576.3,12.18,576.9,12.3Zm-7.08-9.36c2.64,1.44,4,3.06,4,4.92a4,4,0,0,1-1.38,3.3,3.08,3.08,0,0,1-2.22.66c-1.14,0-1.92-1-2.28-2.94a16.66,16.66,0,0,0-1.5-4,15.29,15.29,0,0,0-2.1-2.76,3.5,3.5,0,0,1,.66-.78A15.43,15.43,0,0,1,569.82,2.94Zm41.52,8.88c1.32,1,2,1.74,2,2.22s-.3.72-.84,1A5.81,5.81,0,0,0,611,16.32v3.84c.18,1.5.3,2.46.3,2.88,0,1.26-1,1.92-2.88,1.92-1.44,0-2.22-.3-2.28-1V22.62H583.68a101.52,101.52,0,0,1-.72,10.5h8.82c.06-1,.12-1.86.18-2.82,0-1.92-.06-4-.18-6.06,5.52.24,8.28.84,8.28,1.68-.18.84-1,1.38-2.4,1.5a52.82,52.82,0,0,1-.3,5.7h9.18a17.52,17.52,0,0,1,3.3-3.84,2.12,2.12,0,0,1,.36-.06A9,9,0,0,1,612.54,31a12.28,12.28,0,0,1,2.52,2.88c0,.6-.12,1-.36,1H599.1c2.22,4.38,4.56,7.44,7.08,9.18a15.27,15.27,0,0,0,9.24,3.6c-.06.48-.12.84-.18,1.2A4.4,4.4,0,0,0,613.62,50a7.8,7.8,0,0,0-1.26,2.52c-.3.84-.78,1.32-1.38,1.32-1.44,0-3.72-1.92-7-5.76-2.76-3.18-4.86-7.56-6.36-13.2h-.6c-.12.54-.18,1-.24,1.38-1.8,8.94-8.52,15.12-20,18.66l-.6-1.08c8.88-4.2,14-10.5,15.36-19h-8.88a30.63,30.63,0,0,1-2.76,8.64c-2,4.26-4,7-5.94,8.4a1,1,0,0,1-.84-.54,48.24,48.24,0,0,0,4.14-12.48c.9-4,1.38-10.68,1.5-20.16,0-5.64-.06-9.12-.12-10.5,0-1.08-.06-2.4-.18-3.9L584.4,7C593,5.52,599.94,3.36,605.1.42,605.7.9,607,1.74,608.94,3c1.74,1.2,2.64,2,2.64,2.34s-.3.72-.78.78c-1.92-.18-3.06-.3-3.42-.3-5.1,1.08-13,1.86-23.64,2.22v4.62H605.4c1.44-1.62,2.4-2.46,2.94-2.52A9.23,9.23,0,0,1,611.34,11.82Zm-27.6,9.24h22.38V14.22H583.74ZM607.2,28.2a4.89,4.89,0,0,1-.24,1.5A1.76,1.76,0,0,1,605.28,31c-.42,0-1-.66-1.74-2.1A13.31,13.31,0,0,0,601,25.5a1.12,1.12,0,0,0,.3-.6C605,25.32,607,26.4,607.2,28.2Z"/><path d="M629.58,12.66h1a70.42,70.42,0,0,0,2-12.24C637.5,1.86,640,2.88,640,3.36c0,.72-1,1.14-2.94,1.26a28.93,28.93,0,0,1-4.5,8h4.92c1.8-1.86,2.94-2.82,3.42-2.82a9.07,9.07,0,0,1,2.7,1.5q2.52,1.89,2.52,2.52t-.9,1.08a9.3,9.3,0,0,0-1.56,1.32V36.18c.12,6.84.18,11.46.3,13.8,0,1.2-1.32,1.86-4,1.86-1.08,0-1.56-.42-1.56-1.26V47.22h-8.76v4.56q-.36,1.8-3.24,1.8c-1.2,0-2-.24-2.22-.6,0-6.72.06-13.32.24-19.74V20.34c-.12-5.52-.24-8.76-.42-9.78Zm8.82,15.9V14.22h-8.76V28.56Zm0,17V30.12h-8.76V45.6ZM660.54,3.24c0,.6-1,1-2.94,1.26-.84,2.76-1.74,5.34-2.7,7.68H666c1.62-2,2.76-3.06,3.42-3.12a10.3,10.3,0,0,1,3.36,2q2.16,2,2.16,2.52,0,.72-1.44,1.26A3.76,3.76,0,0,0,672.18,16c-.84,16.44-1.92,27.06-3.24,31.92-1.2,4.2-3.78,6.66-7.8,7.26-.66,0-1.14-.6-1.5-1.8A5.45,5.45,0,0,0,657,49.92a43.42,43.42,0,0,0-5.52-2.16,5.38,5.38,0,0,1,.12-1.32,65.16,65.16,0,0,0,9,.84c2.16-.18,3.3-1.14,3.3-2.94,1-1.8,2-12,3.06-30.48H654.18c-2.76,6.12-5.88,10.8-9.48,13.92a2.48,2.48,0,0,1-.3-.66c3.84-6.6,6.54-15.54,8-26.7C657.78,1.5,660.54,2.46,660.54,3.24Zm.54,29.88a5.78,5.78,0,0,1-1,3.72,3,3,0,0,1-2.64,1.2c-1,0-1.68-1.2-1.92-3.72-.9-4.56-2.16-8.1-3.84-10.56l.9-.66C658.2,26.82,661,30.12,661.08,33.12Z"/><path d="M681.3,54.24a1.75,1.75,0,0,0-.78-.66q10-6.39,17.1-19.14c4-6.12,6.18-15.84,6.54-29.16l-.24-2.58a3.34,3.34,0,0,0-.66-1.56c7.26,1,10.92,1.92,10.92,2.82q0,.9-1.8,1.26a3.28,3.28,0,0,0-1.56,1.38l-.06,1.14c-.12,1.32-.24,2.52-.36,3.66a46.81,46.81,0,0,0,9.84,24.24c4.32,5.7,9,9.54,14.16,11.52a2.77,2.77,0,0,1-.3,1.38c-1.08.12-1.62.24-1.68.48a4.45,4.45,0,0,0-2.22,1.86c-.72,1.56-1.44,2.34-2.1,2.4-1.68,0-4.8-3.3-9.36-9.78q-7.29-10.44-9.18-26.28C706.2,35.82,696.78,48.12,681.3,54.24Z"/></g></g></svg>