<svg xmlns="http://www.w3.org/2000/svg" viewBox="0 0 793.08 55.38"><g id="图层_2" data-name="图层 2"><g id="图层_1-2" data-name="图层 1"><path d="M23.58,4.86c0,.48-.3.66-.9.66A17.91,17.91,0,0,1,20,5C17.58,6.66,13.86,7.56,8.82,7.8l.42,13a40.21,40.21,0,0,0,9.54-3.24,19.31,19.31,0,0,0-2.7-6l.78-.54c4.8,3.36,7.26,6.42,7.32,9.18a4.47,4.47,0,0,1-.72,2.94,2.38,2.38,0,0,1-2.16,1c-.9,0-1.5-1.08-1.74-3.3-.18-.72-.3-1.44-.42-2a50.91,50.91,0,0,1-14.94,9c0,1.2-.18,1.74-.54,1.74S3,29,2.4,27.84A54.58,54.58,0,0,1,0,22.44c1.32-.12,2.64-.36,4-.6L3.42,8c-.18-1.44-.36-2.76-.6-4L8.16,6.3c5-1.62,8.16-3.72,9.54-6.24C21.6,2.58,23.58,4.14,23.58,4.86ZM11,30.36h27.9q2.34-3,3.24-3.06a10.7,10.7,0,0,1,3.18,1.8c1.44,1.14,2.22,1.92,2.22,2.4s-.3.78-.9,1.14A6.85,6.85,0,0,0,45,34V44.64c.18,4.2.3,6.84.3,8s-1.08,2-3.12,2c-1.56,0-2.4-.36-2.4-1.08V52H11.94v.84c-.24,1.2-1.38,1.8-3.3,1.8-1.2,0-1.92-.24-2.16-.6,0-4.08.06-8,.18-11.82v-7.8a27.61,27.61,0,0,0-.42-5.88Zm12.24,9.18V31.92H11.94v7.62Zm0,10.8V41.1H11.94v9.24ZM49.86,2.7c1.44,1.2,2.16,2,2.28,2.4s-.18.84-.54,1a18.24,18.24,0,0,0-1.5,1.08c-.24,9.06-1.32,14.52-3.36,16.32A9,9,0,0,1,41,26.16c-.48,0-.78-.3-.84-1a4.91,4.91,0,0,0-1.92-2.82,17.59,17.59,0,0,0-2.88-1.56c.06-.24.12-.6.24-1a20.41,20.41,0,0,0,4.14.48c2.34,0,3.54-.54,3.66-1.74.78-1.8,1.32-6.18,1.56-13H37.2a37.88,37.88,0,0,1-1.38,8.22c-2.28,7.44-7.26,12.18-15,14.1-.06-.12-.24-.36-.48-.72,5.4-2.94,9-7.8,10.8-14.52a33.38,33.38,0,0,0,1-7.08c-3.66.06-5.76.24-6.36.54a27.52,27.52,0,0,1-.9-2.64c.9.36,3.54.6,8,.66H44.34C45.84,2.1,46.8,1,47.16,1A17.59,17.59,0,0,1,49.86,2.7ZM28.68,39.54h11.1V31.92H28.68Zm0,10.8h11.1V41.1H28.68Z"/><path d="M109.14,2.52c2.7,2.28,4.08,3.78,4.08,4.44s-.24.78-.6.78H87.18V19.92a53.19,53.19,0,0,1,13,4.38c5,2.52,7.62,5.16,7.62,8a4.2,4.2,0,0,1-.66,2.7,2.06,2.06,0,0,1-2,1c-1,0-2.88-1.68-5.82-5.1a39.4,39.4,0,0,0-12.12-9.42V44.4c.12,2.58.18,5.64.18,9.24q0,1.26-3.42,1.44-2.7,0-2.7-.9c.12-1.92.18-5.22.18-10.08V7.74H73.74c-7.08,0-11.52.24-13.26.72-.42-1-.9-2-1.44-3.12a122.4,122.4,0,0,0,15,.6h28.74c1.92-2.46,3.3-4,4.2-4.5.18,0,.36.06.54.06A13.76,13.76,0,0,1,109.14,2.52Z"/><path d="M168.36,21.42c2.94,2.46,4.44,4,4.44,4.74s-.24.84-.66.84H134c-7,0-11.34.24-13,.66a22.92,22.92,0,0,0-1.38-3.06,128.55,128.55,0,0,0,14.34.54h27.54a23.78,23.78,0,0,1,4.56-4.92c.12,0,.3.06.54.06A12.24,12.24,0,0,1,168.36,21.42Z"/><path d="M206.82,15.9q0,.72-3.6,1.08a28,28,0,0,1-6.06,8.82h5.16a26.63,26.63,0,0,1,2.76-3.36c.3-.3.54-.48.72-.48a3.41,3.41,0,0,1,1.14.66c2.28,2,3.6,3.3,3.84,4,0,.54-.18.78-.42.78H185.28a33.3,33.3,0,0,0-5.76.42c-.24-.66-.48-1.44-.84-2.4a39.06,39.06,0,0,0,6.6.42H195.6a50.08,50.08,0,0,0,3.12-13.5Q206.82,14.73,206.82,15.9Zm-1.44-10c2.28,2,3.54,3.36,3.84,4,0,.48-.18.72-.48.72H186.3a27.13,27.13,0,0,0-5.7.48c-.24-.66-.48-1.44-.84-2.4a38.21,38.21,0,0,0,6.54.42h14.46a32.63,32.63,0,0,1,2.76-3.42c.24-.3.48-.48.66-.48S204.78,5.52,205.38,5.94Zm-17,28.8H199.8c1.56-1.74,2.58-2.64,3.18-2.64s1.62.6,3.24,1.8c1.44,1.08,2.22,1.92,2.22,2.4s-.3.72-.84,1.08a7.11,7.11,0,0,0-1.5,1.38V47c.24,3.12.36,5.22.36,6.18,0,1.26-1.08,1.92-3.12,2-1.56,0-2.4-.36-2.46-1.08V50.58H188.64V53.1q-.36,1.8-3.24,1.8c-1.2,0-2-.24-2.22-.6,0-3.48.06-6.78.24-10v-6.6a22.45,22.45,0,0,0-.48-5Zm0-19.38c2.28,1.68,3.42,3.6,3.42,5.82a3.63,3.63,0,0,1-1.14,2.94,2.9,2.9,0,0,1-2,.6c-1,0-1.68-1.14-2-3.54a21.57,21.57,0,0,0-1.32-4.56,15.6,15.6,0,0,0-1.86-2.46q.18-.27.54-.72A13.06,13.06,0,0,1,188.34,15.36Zm8.4-10.44a6.37,6.37,0,0,1-.3,2,2.31,2.31,0,0,1-2.34,1.68c-.54,0-1.32-1-2.28-2.94A18.41,18.41,0,0,0,188.46.9a2,2,0,0,0,.36-.72C193.86.72,196.5,2.28,196.74,4.92ZM200.88,49V36.24H188.64V49Zm30.36-45.3c1.62,1.44,2.46,2.34,2.46,2.76s-.3.78-.9.9a19.77,19.77,0,0,0-2.4,1,76.1,76.1,0,0,1-9.06,14c7.26,4.38,11,9.48,11.34,15.24,0,5.64-2.46,8.94-7.32,9.84-.72,0-1.14-.42-1.32-1.26a5.59,5.59,0,0,0-2-3.42,10.19,10.19,0,0,0-2.52-1.32,1.65,1.65,0,0,0,.18-1,11.83,11.83,0,0,0,4.14.78c2.46-.12,3.72-1.62,3.72-4.44a16.45,16.45,0,0,0-7.44-14.4,48.07,48.07,0,0,0,5.46-16.8h-7.92V53.16c-.3,1.2-1.38,1.8-3.3,1.8-1.2,0-1.92-.24-2.16-.6q0-12.33.18-24.12V14.46c-.12-6.72-.24-10.74-.42-12L217,4.38h8c1.56-1.74,2.64-2.64,3.36-2.76A13.21,13.21,0,0,1,231.24,3.72Z"/><path d="M263.22,6.72c0,.54-1.38,1-4.08,1.32a61.52,61.52,0,0,1-7.74,11.4,47.44,47.44,0,0,1-11.7,10.5c-.12-.12-.3-.42-.66-.78q12.6-13.41,15.3-26.22C260.22,4.68,263.22,5.94,263.22,6.72ZM248.34,27.18a22.79,22.79,0,0,0-1.08-2.82,59.64,59.64,0,0,0,10.8.72h18c1.56-1.74,2.7-2.64,3.48-2.7,3.24,2,4.92,3.48,4.92,4.56,0,.42-.36.84-1,1.26-.84.48-1.32.9-1.32,1.38-.6,10.32-1.68,16.92-3.18,19.68a9,9,0,0,1-8,5c-.6,0-1-.66-1.2-2a5.51,5.51,0,0,0-2.58-2.94,33.69,33.69,0,0,0-4.62-2.22,2.44,2.44,0,0,0,.3-1.26,37.49,37.49,0,0,0,7.56.78c2.16-.12,3.48-.9,4-2.22,1.2-2.52,2-8.46,2.28-17.82H263.28c-.12,2.34-.3,3.48-.42,3.48-1.68,12.84-9.36,21.12-23,25a1.62,1.62,0,0,1-.48-.42c10.08-5,16-13.56,17.64-25.68a19.47,19.47,0,0,0,.12-2.34A51.87,51.87,0,0,0,248.34,27.18ZM278.28,4.44c0,.54-.66.9-1.86,1.08-.84.18-1.38.42-1.5.72q0,2.88,4.5,7.74a30.19,30.19,0,0,0,14,8.28,6.36,6.36,0,0,1-.18,1.08,2.88,2.88,0,0,0-2.64,1.2c-.66,2-1.32,3-1.92,3-1.92-.18-4.44-2.1-7.56-5.82A34,34,0,0,1,272.52,5.1h-3.84a19.48,19.48,0,0,0-4.56.36A21.79,21.79,0,0,1,263,2.82a26.44,26.44,0,0,0,5,.66h3.06c1.32-1.86,2.28-2.88,2.88-3Q278.28,3.36,278.28,4.44Z"/><path d="M318.6,3.48q0,.81-3.78,1.26A71.73,71.73,0,0,1,310,15.6c2.4.72,3.6,1.2,3.6,1.56s-.42.6-1.26.84-1.14.6-1.14.84V38.52c.12,5.4.24,10.44.24,15.18-.18,1-1.38,1.5-3.66,1.62q-2.16,0-2.16-1.08c.12-5.1.18-10.26.18-15.54V22.62a46.77,46.77,0,0,1-6.42,7.5,4,4,0,0,0-.6-.66C305.1,19.38,309,9.6,310.32,0,315.84,1.62,318.6,2.76,318.6,3.48Zm20.16-.9c0,.54-.42.9-1.14,1.14-1.08.54-1.56.9-1.56,1v11q3.6-1.08,7.56-2.52c1.26-2.52,2.28-3.84,3-3.84,3.66,1.44,5.52,2.46,5.52,3.18,0,.48-.48,1.08-1.44,1.74a4,4,0,0,0-1,1c-.18,11.4-.72,18.06-1.68,20q-1.89,4.14-5.94,4.14c-.6-.12-1-.66-1.2-1.74a4.66,4.66,0,0,0-2.22-2.46c-1-.42-1.86-.72-2.58-1v7.2c0,1.08-1.14,1.62-3.36,1.74-1.32,0-1.92-.3-1.92-1,.06-7,.12-14.64.18-22.92-2.64.84-4.86,1.56-6.78,2.16V44.94c.18,2.16,2.22,3.24,6.18,3.24h13.32c2.34,0,3.66-1.08,4-3.36A61,61,0,0,0,349,36.48a3.83,3.83,0,0,0,1.44.3c0,1.08-.06,3.84-.18,8.16a2.69,2.69,0,0,0,.9,2.28c1.08.78,1.68,1.56,1.68,2.28q0,3.06-5,3.6a60.2,60.2,0,0,1-8.64.36c-8.28,0-12.42-.12-12.42-.3q-7.92-.09-7.92-7.56V23.16a25.09,25.09,0,0,0-4.56,1.8,15.35,15.35,0,0,0-1.86-2.82,29.82,29.82,0,0,0,6.42-1.2V11.28c-.12-1.74-.18-3.54-.3-5.4,5.52.9,8.34,1.62,8.34,2.16s-.9,1.2-2.7,1.8V19.5c2-.6,4.32-1.26,6.78-2.1V4a26.4,26.4,0,0,1-.3-3.54Q337.95,1.32,338.76,2.58Zm2.28,31c1.5,0,2.4-.48,2.64-1.56.54-2,.84-7.68.84-17-3.12,1-5.94,1.8-8.46,2.58V33.12A30.28,30.28,0,0,0,341,33.6Z"/><path d="M375.72,3.48c0,.48-1.2.9-3.54,1.2a91,91,0,0,1-4,11.4q4,1.08,4,1.62c0,.3-.42.54-1.14.78s-1.08.54-1.08.72V38.7c.12,5.34.18,10.32.18,15-.12.84-1.26,1.38-3.36,1.5-1.38,0-2-.36-2-1,.12-5,.18-10.2.18-15.36V23.16a49,49,0,0,1-5.7,8.64l-.6-.6A92.11,92.11,0,0,0,368,.24C373.14,1.8,375.72,2.88,375.72,3.48Zm4.8,1.2h5.22c1.32-2,2.28-3,2.76-3.06a9.08,9.08,0,0,1,2.76,1.56c1.26,1,1.92,1.62,1.92,2s-.3.66-.78,1a7.12,7.12,0,0,0-1.32,1.2V17.76c.18,4,.3,6.6.3,7.8s-.9,1.74-2.64,1.74c-1.38,0-2.1-.3-2.1-1V23.52h-5.28V53.28c-.24,1.08-1.26,1.68-3.06,1.68-1.14,0-1.8-.24-2-.6,0-8.1.06-16.08.24-23.88V14.88c-.12-6.72-.24-10.68-.42-11.88ZM386.64,13V6.18h-5.28V13Zm0,9V14.58h-5.28V22ZM398.88,4.68h5.58a11.7,11.7,0,0,1,2.82-3.36,7.91,7.91,0,0,1,2.88,1.38c1.62,1.08,2.46,1.86,2.46,2.4,0,.36-.42.78-1.14,1.2s-1.2.84-1.32,1.14V47.7c0,3.9-2,6.3-5.94,7.26-.6,0-1-.42-1.2-1.26a6.34,6.34,0,0,0-3.18-3.54,24.93,24.93,0,0,0-4.44-1.56,2.64,2.64,0,0,0,.12-1.08,61.53,61.53,0,0,0,8.34.42,1.22,1.22,0,0,0,1.32-1.38V23.46H400v2c-.24,1.08-1.14,1.56-2.82,1.56-1,0-1.62-.12-1.86-.48,0-3.72.06-7.32.18-10.86V8.58a30.23,30.23,0,0,0-.36-5.34Zm6.3,8.28V6.24H400V13Zm0,8.94V14.58H400V21.9Z"/><path d="M446.76,22.74c.12.66.24,1.32.3,1.92h38.16c1.44-1.56,2.46-2.4,3-2.52A15.37,15.37,0,0,1,490.74,24c1.44,1.38,2.22,2.22,2.22,2.58s-.48.78-1.44.78a4.78,4.78,0,0,0-1.38.24A29.08,29.08,0,0,1,484.56,31a1.71,1.71,0,0,1-.6-.42,22.39,22.39,0,0,0,1.68-4.38h-17V33.6h9.78c1.74-1.74,2.82-2.64,3.24-2.64a18.55,18.55,0,0,1,2.64,1.44c1.62,1.2,2.46,2,2.52,2.46s-.3.84-.9,1.2a11.26,11.26,0,0,0-1.44,1.08V44c-.12,3.72-2.22,6-6.3,6.9-.78-.12-1.14-.54-1.14-1.2a6,6,0,0,0-1.56-2.88,14.29,14.29,0,0,0-3.72-1.8,6.68,6.68,0,0,0,.12-1,32.28,32.28,0,0,0,5.34.48c1.32,0,2-.36,2-1.14V35.16H468.66V45.54c.12,2.34.18,5.16.18,8.52,0,.72-1.08,1.2-3.12,1.32-1.68,0-2.52-.3-2.52-.84q.18-2.61.18-9.36v-10h-9.24V49.8c-.24,1.2-1.38,1.8-3.3,1.8-1.2,0-1.92-.24-2.16-.6,0-3.06.06-6.06.24-9V36.12a18.15,18.15,0,0,0-.48-4.5l5.16,2h9.78V26.16H447.24c.06.6.12,1.2.12,1.68,0,4.68-1.8,7-5.34,7.14-1.92,0-2.88-.6-2.94-1.92a3.56,3.56,0,0,1,.42-1.86,13.42,13.42,0,0,1,2.7-2.1,9.47,9.47,0,0,0,3.66-6.42A8.15,8.15,0,0,0,446.76,22.74ZM485.1,2.58a1,1,0,0,1-.84,1c-1,.42-1.62.72-1.86.84V8.88h2A17.53,17.53,0,0,1,488,5.16h.48c.36.24.84.54,1.32.9,2.28,2,3.48,3.24,3.48,3.84s-.24.78-.6.78H482.4V15.3c0,1.14.78,1.8,2.34,2a5.82,5.82,0,0,0,1,.06,4.46,4.46,0,0,0,2.7-1,1.8,1.8,0,0,1,1.08-.66,4.43,4.43,0,0,1,.72.12,5.89,5.89,0,0,1,2.16,1.86,1.34,1.34,0,0,1,.42,1c-.18,1.92-2.82,2.88-7.86,2.88a14.88,14.88,0,0,1-4.92-.6c-1.68-.3-2.58-1.62-2.7-4V10.68H473v10c0,1-1.08,1.5-3.12,1.56q-1.8,0-1.8-.9c0-.66,0-1.38.06-2.1H463v2.1c0,1-1.08,1.5-3.12,1.56q-1.8,0-1.8-.9.09-5.22.18-11.34H453.6c-.48,7-4.86,11.4-13.26,13.2a2.52,2.52,0,0,1-.54-.84,17.29,17.29,0,0,0,6.66-6.24c1-1.26,1.56-3.3,1.92-6.06a45.3,45.3,0,0,0-7.74.66c-.42-1-.9-2-1.44-3.12a80,80,0,0,0,9.36.54c.06-1,.12-2.1.12-3.3V1.8A3.13,3.13,0,0,0,448.2.06c5.46,1,8.22,1.74,8.28,2.4a.94.94,0,0,1-.66.84c-1.26.54-1.92.9-2,1.14l-.12,4.44h4.56V3.54a22.42,22.42,0,0,1-.3-3.24q6.75.9,7.56,2,0,.72-1.08,1.08c-1,.48-1.44.84-1.44,1V8.88h5.28V3.48a22.42,22.42,0,0,1-.3-3.24q6.75.9,7.56,2,0,.72-1.08,1.08c-1,.48-1.44.84-1.44,1V8.88h4.38v-4a38.16,38.16,0,0,0-.48-4.56C482,1.2,484.74,2,485.1,2.58ZM463,10.68v7h5.16c0-2.22.06-4.56.12-7Z"/><path d="M549.24,18c2.7,2.28,4.08,3.78,4.08,4.38s-.24.84-.6.84H529.26v9.36h8.1a19,19,0,0,1,3.48-4.2.85.85,0,0,1,.36-.12,8.82,8.82,0,0,1,2.58,1.86,11.73,11.73,0,0,1,2.76,3.12c0,.6-.18,1-.42,1H529.26v12.6q5.4.54,13,.54c4.32,0,8.22-.12,11.58-.42l.06,1.26a4.81,4.81,0,0,0-2.64,1.56,7.68,7.68,0,0,0-.84,2.16,1.56,1.56,0,0,1-1.68,1.5h-7.62c-10.44-.24-17.88-1.62-22.38-4a15.21,15.21,0,0,1-7.38-8.52,22.54,22.54,0,0,1-1.08,2.1c-2.16,4.68-5.82,8.58-10.86,11.82a3,3,0,0,0-.72-1,35.39,35.39,0,0,0,9.42-21.72c.06-1.74.12-3.36.12-4.86,5.52.72,8.28,1.32,8.28,1.86s-1,1.2-2.82,1.92a32,32,0,0,1-1.56,7.86c2.28,3.12,4.68,5.1,7.26,5.94a17.73,17.73,0,0,0,4.5,1.32V23.22h-9.78c-7.08,0-11.52.24-13.2.72-.42-1-.9-2-1.44-3.12a120.75,120.75,0,0,0,14.88.6h9v-9.9H517q-7.38,0-9.18.72a29.38,29.38,0,0,0-1.44-3.12,52.58,52.58,0,0,0,9.78.6h7.2V6.54A45.87,45.87,0,0,0,523,.12c5.64.84,8.52,1.56,8.52,2.22,0,.48-.36.84-1.08,1q-1.8.72-1.8,1.26V9.72h6.24c1.8-2.28,3.06-3.66,3.9-4.14.18,0,.36.06.54.06a6.68,6.68,0,0,1,1.44,1c2.52,2.16,3.84,3.48,3.84,4.08s-.24.84-.66.84H528.6v9.9h14.28a23.68,23.68,0,0,1,4.2-4.56c.18,0,.36.06.54.06Q548.34,17.37,549.24,18Z"/><path d="M608.34,21.42c2.94,2.46,4.44,4,4.44,4.74s-.24.84-.66.84H574c-7,0-11.34.24-13,.66a22.92,22.92,0,0,0-1.38-3.06,128.55,128.55,0,0,0,14.34.54H601.5a23.78,23.78,0,0,1,4.56-4.92c.12,0,.3.06.54.06A12.24,12.24,0,0,1,608.34,21.42Z"/><path d="M646.8,15.9q0,.72-3.6,1.08a28,28,0,0,1-6.06,8.82h5.16a26.63,26.63,0,0,1,2.76-3.36c.3-.3.54-.48.72-.48a3.41,3.41,0,0,1,1.14.66c2.28,2,3.6,3.3,3.84,4,0,.54-.18.78-.42.78H625.26a33.3,33.3,0,0,0-5.76.42c-.24-.66-.48-1.44-.84-2.4a39.06,39.06,0,0,0,6.6.42h10.32a50.08,50.08,0,0,0,3.12-13.5Q646.8,14.73,646.8,15.9Zm-1.44-10c2.28,2,3.54,3.36,3.84,4,0,.48-.18.72-.48.72H626.28a27.13,27.13,0,0,0-5.7.48c-.24-.66-.48-1.44-.84-2.4a38.21,38.21,0,0,0,6.54.42h14.46a32.63,32.63,0,0,1,2.76-3.42c.24-.3.48-.48.66-.48S644.76,5.52,645.36,5.94Zm-17,28.8h11.46c1.56-1.74,2.58-2.64,3.18-2.64s1.62.6,3.24,1.8c1.44,1.08,2.22,1.92,2.22,2.4s-.3.72-.84,1.08a7.11,7.11,0,0,0-1.5,1.38V47c.24,3.12.36,5.22.36,6.18,0,1.26-1.08,1.92-3.12,2-1.56,0-2.4-.36-2.46-1.08V50.58H628.62V53.1q-.36,1.8-3.24,1.8c-1.2,0-2-.24-2.22-.6,0-3.48.06-6.78.24-10v-6.6a22.45,22.45,0,0,0-.48-5Zm0-19.38c2.28,1.68,3.42,3.6,3.42,5.82a3.63,3.63,0,0,1-1.14,2.94,2.9,2.9,0,0,1-2,.6c-1,0-1.68-1.14-2-3.54a21.57,21.57,0,0,0-1.32-4.56,15.6,15.6,0,0,0-1.86-2.46q.18-.27.54-.72A13.06,13.06,0,0,1,628.32,15.36Zm8.4-10.44a6.37,6.37,0,0,1-.3,2,2.31,2.31,0,0,1-2.34,1.68c-.54,0-1.32-1-2.28-2.94A18.41,18.41,0,0,0,628.44.9a2,2,0,0,0,.36-.72C633.84.72,636.48,2.28,636.72,4.92ZM640.86,49V36.24H628.62V49Zm30.36-45.3c1.62,1.44,2.46,2.34,2.46,2.76s-.3.78-.9.9a19.77,19.77,0,0,0-2.4,1,76.1,76.1,0,0,1-9.06,14c7.26,4.38,11,9.48,11.34,15.24,0,5.64-2.46,8.94-7.32,9.84-.72,0-1.14-.42-1.32-1.26a5.59,5.59,0,0,0-2-3.42,10.19,10.19,0,0,0-2.52-1.32,1.65,1.65,0,0,0,.18-1,11.83,11.83,0,0,0,4.14.78c2.46-.12,3.72-1.62,3.72-4.44a16.45,16.45,0,0,0-7.44-14.4,48.07,48.07,0,0,0,5.46-16.8H657.6V53.16c-.3,1.2-1.38,1.8-3.3,1.8-1.2,0-1.92-.24-2.16-.6q0-12.33.18-24.12V14.46c-.12-6.72-.24-10.74-.42-12L657,4.38h8c1.56-1.74,2.64-2.64,3.36-2.76A13.21,13.21,0,0,1,671.22,3.72Z"/><path d="M703.2,6.72c0,.54-1.38,1-4.08,1.32a61.52,61.52,0,0,1-7.74,11.4,47.44,47.44,0,0,1-11.7,10.5c-.12-.12-.3-.42-.66-.78q12.6-13.41,15.3-26.22C700.2,4.68,703.2,5.94,703.2,6.72ZM688.32,27.18a22.79,22.79,0,0,0-1.08-2.82,59.64,59.64,0,0,0,10.8.72h18c1.56-1.74,2.7-2.64,3.48-2.7,3.24,2,4.92,3.48,4.92,4.56,0,.42-.36.84-1,1.26-.84.48-1.32.9-1.32,1.38-.6,10.32-1.68,16.92-3.18,19.68a9,9,0,0,1-8,5c-.6,0-1-.66-1.2-2a5.51,5.51,0,0,0-2.58-2.94,33.69,33.69,0,0,0-4.62-2.22,2.44,2.44,0,0,0,.3-1.26,37.49,37.49,0,0,0,7.56.78c2.16-.12,3.48-.9,4-2.22,1.2-2.52,2-8.46,2.28-17.82H703.26c-.12,2.34-.3,3.48-.42,3.48-1.68,12.84-9.36,21.12-23,25a1.62,1.62,0,0,1-.48-.42c10.08-5,16-13.56,17.64-25.68a19.47,19.47,0,0,0,.12-2.34A51.87,51.87,0,0,0,688.32,27.18ZM718.26,4.44c0,.54-.66.9-1.86,1.08-.84.18-1.38.42-1.5.72q0,2.88,4.5,7.74a30.19,30.19,0,0,0,14,8.28,6.36,6.36,0,0,1-.18,1.08,2.88,2.88,0,0,0-2.64,1.2c-.66,2-1.32,3-1.92,3-1.92-.18-4.44-2.1-7.56-5.82A34,34,0,0,1,712.5,5.1h-3.84a19.48,19.48,0,0,0-4.56.36A21.79,21.79,0,0,1,703,2.82a26.44,26.44,0,0,0,5,.66h3.06c1.32-1.86,2.28-2.88,2.88-3Q718.26,3.36,718.26,4.44Z"/><path d="M790.56,26.4a.89.89,0,0,1-.72.72,6.72,6.72,0,0,1-2.58.36,30.94,30.94,0,0,1-7.2,11.82c2,4.5,4.38,7.26,7.08,8.22,1,0,2.4-2.52,4.38-7.62.6.06.9.12.9.24a20.29,20.29,0,0,0-1.74,7.8,4,4,0,0,0,1.08,2.34,4.88,4.88,0,0,1,1.32,2.64c0,1.08-.84,1.62-2.4,1.74-2.64,0-5.52-1.14-8.7-3.36a29.14,29.14,0,0,1-6-8.4,51.32,51.32,0,0,1-15.84,7.74,8.22,8.22,0,0,0-.48-.84A50,50,0,0,0,774.3,39.12a63,63,0,0,1-3.78-19.26H758.34V29.1c3.12-.9,6.3-1.92,9.54-3.12l.48,1a77.39,77.39,0,0,1-10,5.94V49.2c-.12,3.3-2.4,5.16-6.84,5.64a1,1,0,0,1-1.08-1.08,9.62,9.62,0,0,0-.9-2.1q-.36-1.35-5.76-2.34v-1c2.28.18,4.68.24,7.14.24,1.08,0,1.68-.18,1.74-.6V35.52c-2.28,1-4.62,1.92-7.08,2.76a5.79,5.79,0,0,0-.66,2.7c-.12.66-.36,1-.84,1s-1.62-1.56-3.06-4.8a36.09,36.09,0,0,0-1.74-4.08,100.15,100.15,0,0,0,13.38-2.46V19.86c-6.48.06-10.5.3-12.12.66-.42-1-.9-2-1.44-3.12a113.11,113.11,0,0,0,13.56.6V9.3a87.25,87.25,0,0,1-11.52,1.32,8.18,8.18,0,0,0-.24-1c9.36-1.92,16.38-4.8,21-8.64,3.72,2.64,5.64,4.2,5.64,4.62s-.36.6-1,.6c-1.44-.18-2.64-.3-3.48-.42a23.49,23.49,0,0,1-4.68,2V18H770.4c-.48-8.16-.84-13.74-1.2-16.74,5.7.6,8.58,1.14,8.7,1.68,0,.36-.24.6-.72.78Q776,4.35,775,4.8c0,4.92.12,9.36.36,13.2h7a22.43,22.43,0,0,1,3.9-4.14c.18,0,.36.06.54.06a10,10,0,0,1,1.44,1c2.52,2.16,3.84,3.54,3.84,4.14s-.24.84-.66.84h-16c.18,2.88.42,5.46.78,7.68a65.71,65.71,0,0,0,1.8,6.66,33,33,0,0,0,4.62-11.7C787.92,24.54,790.56,25.86,790.56,26.4Zm-2-17.46a8.62,8.62,0,0,1-.24,2,2.39,2.39,0,0,1-2.34,1.74c-.66,0-1.56-1.08-2.76-3.24a17.37,17.37,0,0,0-4.08-5.22,1.57,1.57,0,0,0,.42-.78C785.28,4.14,788.28,5.94,788.52,8.94Z"/></g></g></svg>