<svg xmlns="http://www.w3.org/2000/svg" viewBox="0 0 774.3 55.5"><g id="图层_2" data-name="图层 2"><g id="图层_1-2" data-name="图层 1"><path d="M27.18,6.6c2.28,2,3.48,3.24,3.48,3.78s-.24.84-.66.84H8.7c-3.9,0-6.3.24-7.26.72A29.38,29.38,0,0,0,0,8.82a30.71,30.71,0,0,0,7.44.6H21.72a22.36,22.36,0,0,1,3.6-3.78c.12,0,.3.06.48.06A13.33,13.33,0,0,1,27.18,6.6ZM12.66,38.46c0,.48-1.08.66-3.18.66A42.75,42.75,0,0,1,1.38,50C1,49.8.6,49.68.24,49.56A47.11,47.11,0,0,0,6.12,34.62C10.44,36.6,12.66,37.86,12.66,38.46ZM8.94,17.4H20.52c1.44-2,2.46-3,3-3.06a7.63,7.63,0,0,1,3,1.62c1.32,1.08,2,1.8,2,2.28s-.3.66-.78,1a4.84,4.84,0,0,0-1.38,1.26v6.06c.18,2.4.3,4,.3,4.62,0,1.2-1,1.86-2.88,1.86-1.5,0-2.28-.3-2.28-1v-1.5h-3.3V48.3c0,4-2.1,6.24-6.24,6.84-.36,0-.66-.6-.9-1.74a3.86,3.86,0,0,0-2.52-2.88,14.91,14.91,0,0,0-3.3-1.44,5.18,5.18,0,0,1,.06-.9c1.44.12,3.54.3,6.42.48,1.08,0,1.62-.42,1.62-1.38V30.54H9.6v1.2c-.24,1.14-1.26,1.68-3.06,1.68-1.14,0-1.8-.18-2-.54,0-2.7.06-5.4.24-8V19.62a18.85,18.85,0,0,0-.42-4Zm12.6,1.5H9.6V29H21.54ZM18.42,4.74A7.63,7.63,0,0,1,18.12,7a2.55,2.55,0,0,1-2.52,1.8c-.6,0-1.38-1-2.4-2.94A18.81,18.81,0,0,0,9.66,1a1.54,1.54,0,0,0,.42-.84C15.42.72,18.18,2.22,18.42,4.74Zm9.42,38.52a4.47,4.47,0,0,1-.72,2.94,2.48,2.48,0,0,1-2.16,1q-1.17,0-1.44-3.06a24.69,24.69,0,0,0-3-8.76l.78-.54C25.62,37.92,27.78,40.74,27.84,43.26ZM51.12,15.6c2.28,2,3.48,3.3,3.48,3.84s-.24.78-.6.78H40.32C39.06,38.58,33.42,50,23.46,54.72a1.71,1.71,0,0,1-.42-.48Q33.48,44,35.28,20.22a14.22,14.22,0,0,0-4.8.72c-.42-1-.9-2-1.38-3.12a17.54,17.54,0,0,0,5.64.6h.66c.12-2.46.24-5,.24-7.62-.18-4.62-.3-7.92-.42-9.84,4.62.54,7,1.08,7,1.68s-.48.78-1.44,1c0,2.82-.06,5.58-.12,8.34,0,2.28-.06,4.44-.18,6.42h5.28a17.53,17.53,0,0,1,3.6-3.72c.12,0,.3.06.48.06C50.16,15,50.64,15.24,51.12,15.6Zm-3.18,11a1.28,1.28,0,0,1-.72,1,7.47,7.47,0,0,0-1.62.9V47c0,.9.66,1.32,2,1.32s2.1-.42,2.22-1.32c.3-1.32.6-3,.84-4.92.3-1.68.54-3.3.72-4.8l.9.18q-.18,3.42-.18,7.2a4,4,0,0,0,1.5,2.82,2.79,2.79,0,0,1,1.14,2.34c0,1.26-.78,2.16-2.28,2.64a13,13,0,0,1-4.2.54,22,22,0,0,1-3.78-.24c-2.4,0-3.66-1.62-3.72-4.86V29.28a22.21,22.21,0,0,0-.42-4.68Q47.94,25.86,47.94,26.58Zm3.12-16a5.12,5.12,0,0,1-.3,1.8,2,2,0,0,1-2,1.5c-.6,0-1.38-1-2.34-3.18a17.46,17.46,0,0,0-3.36-5.16,1.59,1.59,0,0,0,.36-.66C48.3,5.64,50.82,7.5,51.06,10.62Z"/><path d="M71.28,8.28a32.33,32.33,0,0,1-10.62,10.2,4.53,4.53,0,0,0-1-.6A39.43,39.43,0,0,0,68.88,0c5.1,1.68,7.68,2.7,7.68,3.06,0,.72-1,1.2-3,1.44-.42.78-.84,1.5-1.2,2.1h8a17,17,0,0,1,3-3.48c.12,0,.24-.06.36-.06a8.83,8.83,0,0,1,2.22,1.56,11.64,11.64,0,0,1,2.28,2.7c0,.6-.18.9-.42,1h-11c3.18,1,4.8,2.64,4.8,4.92q0,2.52-2.7,2.7c-1,0-1.68-.6-1.92-1.86a5.25,5.25,0,0,1-.36-1.86,15.94,15.94,0,0,0-.54-1.92,5,5,0,0,0-1.5-2Zm29,8.88c1-.84,1.68-1.5,2.28-2a.89.89,0,0,1-.54.12c-1.08,0-1.68-.6-1.92-1.86a4.77,4.77,0,0,1-.36-1.74,13.57,13.57,0,0,0-.48-1.8,5.82,5.82,0,0,0-1.08-1.56H94.08c-.6.72-1.2,1.44-1.8,2.1A25.44,25.44,0,0,1,86,15.72a6.55,6.55,0,0,0-.54-.66c3.78-5,6.06-10,6.9-14.76,5,1.56,7.62,2.64,7.62,3.24s-1.2.9-3.48,1.2a14.94,14.94,0,0,1-1.2,1.92h10.44A19.92,19.92,0,0,1,109,2.82a.51.51,0,0,1,.36-.12,11.3,11.3,0,0,1,2.4,1.74,14.2,14.2,0,0,1,2.52,2.94c0,.6-.18.9-.42,1h-12.9c2.52,1,3.78,2.46,3.78,4.26a2.39,2.39,0,0,1-.84,2.1,10.65,10.65,0,0,1,2.46,1.44q2.52,1.89,2.52,2.52c0,.36-.3.72-.78,1.08a12.7,12.7,0,0,0-1.44,1.32v9.3c.06,3.24.18,5.34.3,6.42,0,1.32-1.32,1.92-4,1.92-1.08,0-1.62-.42-1.62-1.32V37H99.18v5.16h6.12a18.35,18.35,0,0,1,3.6-3.78c.12,0,.3.06.48.06a13,13,0,0,1,1.32.9c2.34,2,3.54,3.24,3.54,3.78s-.24.84-.66.84H99.18v.6c.12,2.58.24,5.64.24,9.24Q99.42,55,96,55.2c-1.8,0-2.76-.3-2.76-.9.12-1.92.24-5.22.24-10.08v-.3H81.24A17.79,17.79,0,0,1,76.68,50c-3.66,3-8.52,4.8-14.52,5.4a11,11,0,0,0-.36-1.14,29.32,29.32,0,0,0,9.12-4.44,15.68,15.68,0,0,0,4.74-5.94h-.54c-7,0-11.4.24-13.08.72a29.38,29.38,0,0,0-1.44-3.12,128.27,128.27,0,0,0,15.3.6h.48a24,24,0,0,0,1-3.84A10.78,10.78,0,0,0,77.46,37h-3.3v.6c-.3,1.32-1.5,1.92-3.54,1.92-1.32,0-2.1-.18-2.34-.66,0-3.72.06-7.44.24-11V20.52A26.64,26.64,0,0,0,68,15.06l5.58,2.1Zm1.08,1.5H74.16V23h27.18ZM74.16,29h27.18V24.6H74.16Zm27.18,1.56H74.16v4.8h27.18ZM83,38.46a27,27,0,0,1-1,3.66H93.48V37H83.22A14.09,14.09,0,0,0,83,38.46Z"/><path d="M134.1,14.82c1.26,1.2,1.92,2,1.92,2.46s-.6.9-1.8,1.38a2.84,2.84,0,0,0-1.14.54l-5.22,11H130c1.5-1.62,2.4-2.46,2.76-2.46a6.67,6.67,0,0,1,2.82,1.38c1.56,1.08,2.4,1.86,2.4,2.28s-.42.78-1.2,1.14-1.2.72-1.32,1.08a41.79,41.79,0,0,1-3.66,10.08,18.09,18.09,0,0,0,6.66,2.94c3,1.08,8.76,1.56,17.16,1.56,9.18-.24,15.48-.78,19-1.62,0,.66,0,1.08.12,1.2a7.16,7.16,0,0,0-1.8,1.08,3.79,3.79,0,0,0-1.14,2.22,1.87,1.87,0,0,1-2.1,2.1c-8.7,0-13.86-.18-15.48-.48-8.46,0-14.52-1.08-18.24-3.18a17.26,17.26,0,0,1-5-4.32,28.14,28.14,0,0,1-2.34,3.12,23.12,23.12,0,0,1-8.28,6.78,1.11,1.11,0,0,1-.42-.54,38.7,38.7,0,0,0,6.72-9.84,39.75,39.75,0,0,0,3.78-13.08h-3.24q-.54,1.17-.9,1.8c-.24.66-.9,1-2,1-1.86-.12-2.76-.6-2.76-1.38,2.76-5.64,5.22-10.92,7.32-15.84h-5.88a20.11,20.11,0,0,0-2.16.36c-.36-.84-.66-1.56-.9-2.22a14,14,0,0,0,2.76.3h5.88c1.8-1.68,2.88-2.52,3.12-2.52C132.18,13.08,133,13.68,134.1,14.82ZM128.76,2.94c2.34,1.62,3.54,3.48,3.54,5.64a3.46,3.46,0,0,1-1.14,2.94,2.9,2.9,0,0,1-2,.6q-1.62,0-2.16-3.42a25.72,25.72,0,0,0-1.44-4.44,15.6,15.6,0,0,0-1.86-2.46c.12-.18.36-.42.6-.72A12.55,12.55,0,0,1,128.76,2.94ZM169.92,4.5c2.16,1.92,3.36,3.12,3.6,3.72,0,.54-.18.78-.48.78h-15.6v4.86h5.82c1.56-1.8,2.64-2.7,3.24-2.76a10.7,10.7,0,0,1,3.18,1.8c1.44,1.08,2.22,1.92,2.22,2.4s-.3.72-.84,1.08a7.88,7.88,0,0,0-1.44,1.38v6.9c.18,2.64.3,4.38.3,5.16,0,1.32-1.08,2-3.12,2-1.56,0-2.4-.36-2.46-1.08v-.54h-6.9v6.12h8.82A26.63,26.63,0,0,1,169,33c.3-.3.54-.48.72-.48a4.08,4.08,0,0,1,1.14.6c2.28,2,3.6,3.36,3.84,4,0,.48-.18.72-.42.72H157.5c.06,1.44.12,3.72.12,6.9q-.18,1.08-3.78,1.08c-1.2,0-1.86-.18-1.86-.66.06-2,.12-4.5.18-7.32h-7.62a27.37,27.37,0,0,0-5.76.48c-.24-.66-.48-1.44-.84-2.4a39.06,39.06,0,0,0,6.6.42h7.62V30.24h-6.48v.36c-.24,1.2-1.38,1.8-3.3,1.8-1.2,0-1.92-.18-2.16-.6,0-3.12.06-6.24.18-9.3V16.44a17.32,17.32,0,0,0-.42-4.62l5.28,2h6.9V9h-8.34a27.37,27.37,0,0,0-5.76.48c-.24-.72-.48-1.5-.84-2.4a39.59,39.59,0,0,0,6.6.42h8.34V4.32a19.18,19.18,0,0,0-.36-4c5.22.6,7.86,1.32,7.86,2.16,0,.36-.24.54-.66.6-1,.36-1.44.72-1.56,1V7.5h8.16a28.56,28.56,0,0,1,2.58-3.12c.24-.3.48-.48.66-.48A3.35,3.35,0,0,1,169.92,4.5ZM145.68,15.36V21.3h6.48V15.36Zm6.48,7.5h-6.48v5.82h6.48Zm12.18-7.5h-6.9V21.3h6.9Zm0,7.5h-6.9v5.82h6.9Z"/><path d="M234.3,12.84a.71.71,0,0,1-.54.66,9.94,9.94,0,0,0-3.12.6,38.66,38.66,0,0,1-6.3,5,2.89,2.89,0,0,1-.6-.48,35.34,35.34,0,0,0,2.58-6.84h-21c0,.48.06,1,.06,1.32-.12,4-1.62,5.94-4.38,6q-2.61-.09-2.7-2a2,2,0,0,1,.24-.78H193.2v9.84A37.64,37.64,0,0,0,200,23.34a3.38,3.38,0,0,0,.24.72c-.3.36-.6.66-.84,1a38.32,38.32,0,0,0,7.5.54,59.92,59.92,0,0,0,3.12-10.8c5.4,1.2,8.1,2.16,8.1,2.82S217,18.66,214.8,18.9q-1.26,3.24-2.52,6.66h13a17.53,17.53,0,0,1,3.6-3.72c.12,0,.3.06.48.06a11.8,11.8,0,0,1,1.32.84c2.34,2,3.54,3.3,3.54,3.84s-.24.84-.66.84h-6.66c-.24,1.2-.36,2-.42,2.58a31.13,31.13,0,0,1-4.8,12.12c7,2.28,10.56,5.28,10.8,9.12a4.65,4.65,0,0,1-.3,1.8,1.83,1.83,0,0,1-1.68.78c-.66,0-3.24-1.92-7.68-5.76q-2-1.35-4-2.52c-.6.6-1.2,1.08-1.74,1.56-5.46,4.44-12.72,7.08-21.72,7.92a5.56,5.56,0,0,0-.42-1.14q9.9-2.79,15.3-6.66a20.6,20.6,0,0,0,4.32-3.84c-2.52-1.08-5.16-2.1-8-3.06-.54,1.2-.9,1.86-1.08,1.86a2.36,2.36,0,0,1-1.56.36c-2.76,0-4.14-.42-4.14-1.38,2.64-5.16,4.74-9.72,6.36-13.68a24.62,24.62,0,0,0-5.58.6c-.42-1-.84-2-1.32-2.94A27.31,27.31,0,0,1,193.2,30V47.28c0,5-2,7.56-6.06,7.56-.72,0-1.14-.36-1.14-1a4.79,4.79,0,0,0-2-3,8.32,8.32,0,0,0-3.66-1.44,2.1,2.1,0,0,0,.18-1c1.08.12,3.36.12,6.78.12q.9,0,.9-1.62V32.46q-1.71.72-3.42,1.26c-.18,2-.54,3.06-1.14,3.06q-.54,0-2.34-4.14a19.41,19.41,0,0,1-1.32-4.08,41.07,41.07,0,0,0,8.22-1V16.44c-4.68.12-7,.3-7,.48a26.67,26.67,0,0,1-1.2-3.12c.84.3,3.54.54,8.22.78V8a56,56,0,0,0-.42-7.68c5,.84,7.74,1.62,8.22,2.22a.55.55,0,0,1-.48.6c-.42.18-.9.42-1.44.66s-.84.54-.84.72V14.64h.9c1.56-2.88,2.58-4.32,3.06-4.38s1,.78,2.1,2.28c.48.6.84,1.14,1.08,1.5a9.06,9.06,0,0,0,2.1-4.14c.18-1.08.3-2.22.42-3.36a2.65,2.65,0,0,0,.9-.12,17.61,17.61,0,0,1,1.32,3.9h20.64q2.7-3.06,3.6-3.06c.18.12.54.3,1,.6C233,10.38,234.3,12,234.3,12.84Zm-17.64,28a26.16,26.16,0,0,0,4.26-11,11.42,11.42,0,0,0,.3-2.4h-9.66c-1,2.64-2,5.28-3.06,8-.6,1.56-1,2.76-1.38,3.72Q212.43,39.9,216.66,40.8Zm2.76-34.68a6.11,6.11,0,0,1-.3,2,2.39,2.39,0,0,1-2.34,1.74c-.78,0-1.86-1.08-3.24-3.36a20.09,20.09,0,0,0-4.74-5.46,1.34,1.34,0,0,0,.42-.72C215.76,1,219.18,2.94,219.42,6.12Z"/><path d="M268.14,16q0,.72-3.6,1.08a28,28,0,0,1-6.06,8.82h5.16a26.63,26.63,0,0,1,2.76-3.36c.3-.3.54-.48.72-.48a3.41,3.41,0,0,1,1.14.66c2.28,2,3.6,3.3,3.84,4,0,.54-.18.78-.42.78H246.6a33.3,33.3,0,0,0-5.76.42c-.24-.66-.48-1.44-.84-2.4a39.06,39.06,0,0,0,6.6.42h10.32A50.08,50.08,0,0,0,260,12.42Q268.14,14.85,268.14,16Zm-1.44-10c2.28,2,3.54,3.36,3.84,4,0,.48-.18.72-.48.72H247.62a27.13,27.13,0,0,0-5.7.48c-.24-.66-.48-1.44-.84-2.4a38.21,38.21,0,0,0,6.54.42h14.46a32.63,32.63,0,0,1,2.76-3.42c.24-.3.48-.48.66-.48S266.1,5.64,266.7,6.06Zm-17,28.8h11.46c1.56-1.74,2.58-2.64,3.18-2.64s1.62.6,3.24,1.8c1.44,1.08,2.22,1.92,2.22,2.4s-.3.72-.84,1.08a7.11,7.11,0,0,0-1.5,1.38V47.1c.24,3.12.36,5.22.36,6.18,0,1.26-1.08,1.92-3.12,2-1.56,0-2.4-.36-2.46-1.08V50.7H250v2.52q-.36,1.8-3.24,1.8c-1.2,0-2-.24-2.22-.6,0-3.48.06-6.78.24-10V37.8a22.45,22.45,0,0,0-.48-5Zm0-19.38c2.28,1.68,3.42,3.6,3.42,5.82a3.63,3.63,0,0,1-1.14,2.94,2.9,2.9,0,0,1-2,.6c-1,0-1.68-1.14-2-3.54a21.57,21.57,0,0,0-1.32-4.56,15.6,15.6,0,0,0-1.86-2.46q.18-.27.54-.72A13.06,13.06,0,0,1,249.66,15.48ZM258.06,5a6.37,6.37,0,0,1-.3,2,2.31,2.31,0,0,1-2.34,1.68c-.54,0-1.32-1-2.28-2.94A18.41,18.41,0,0,0,249.78,1a2,2,0,0,0,.36-.72C255.18.84,257.82,2.4,258.06,5Zm4.14,44.1V36.36H250V49.14Zm30.36-45.3C294.18,5.28,295,6.18,295,6.6s-.3.78-.9.9a19.77,19.77,0,0,0-2.4,1,76.1,76.1,0,0,1-9.06,14c7.26,4.38,11,9.48,11.34,15.24,0,5.64-2.46,8.94-7.32,9.84-.72,0-1.14-.42-1.32-1.26a5.59,5.59,0,0,0-2-3.42,10.19,10.19,0,0,0-2.52-1.32,1.65,1.65,0,0,0,.18-1,11.83,11.83,0,0,0,4.14.78c2.46-.12,3.72-1.62,3.72-4.44a16.45,16.45,0,0,0-7.44-14.4,48.07,48.07,0,0,0,5.46-16.8h-7.92V53.28c-.3,1.2-1.38,1.8-3.3,1.8-1.2,0-1.92-.24-2.16-.6q0-12.33.18-24.12V14.58c-.12-6.72-.24-10.74-.42-12l5.1,1.92h8c1.56-1.74,2.64-2.64,3.36-2.76A13.21,13.21,0,0,1,292.56,3.84Z"/><path d="M327.18,6.6c2.28,2,3.48,3.24,3.48,3.78s-.24.84-.66.84H308.7c-3.9,0-6.3.24-7.26.72A29.38,29.38,0,0,0,300,8.82a30.71,30.71,0,0,0,7.44.6h14.28a22.36,22.36,0,0,1,3.6-3.78c.12,0,.3.06.48.06A13.33,13.33,0,0,1,327.18,6.6ZM312.66,38.46c0,.48-1.08.66-3.18.66A42.75,42.75,0,0,1,301.38,50c-.42-.18-.78-.3-1.14-.42a47.11,47.11,0,0,0,5.88-14.94C310.44,36.6,312.66,37.86,312.66,38.46ZM308.94,17.4h11.58c1.44-2,2.46-3,3-3.06a7.63,7.63,0,0,1,3,1.62c1.32,1.08,2,1.8,2,2.28s-.3.66-.78,1a4.84,4.84,0,0,0-1.38,1.26v6.06c.18,2.4.3,4,.3,4.62,0,1.2-1,1.86-2.88,1.86-1.5,0-2.28-.3-2.28-1v-1.5h-3.3V48.3c0,4-2.1,6.24-6.24,6.84-.36,0-.66-.6-.9-1.74a3.86,3.86,0,0,0-2.52-2.88,14.91,14.91,0,0,0-3.3-1.44,5.18,5.18,0,0,1,.06-.9c1.44.12,3.54.3,6.42.48,1.08,0,1.62-.42,1.62-1.38V30.54H309.6v1.2c-.24,1.14-1.26,1.68-3.06,1.68-1.14,0-1.8-.18-2-.54,0-2.7.06-5.4.24-8V19.62a18.85,18.85,0,0,0-.42-4Zm12.6,1.5H309.6V29h11.94ZM318.42,4.74a7.63,7.63,0,0,1-.3,2.22,2.55,2.55,0,0,1-2.52,1.8c-.6,0-1.38-1-2.4-2.94A18.81,18.81,0,0,0,309.66,1a1.54,1.54,0,0,0,.42-.84C315.42.72,318.18,2.22,318.42,4.74Zm9.42,38.52a4.47,4.47,0,0,1-.72,2.94,2.48,2.48,0,0,1-2.16,1q-1.17,0-1.44-3.06a24.69,24.69,0,0,0-3-8.76l.78-.54C325.62,37.92,327.78,40.74,327.84,43.26ZM351.12,15.6c2.28,2,3.48,3.3,3.48,3.84s-.24.78-.6.78H340.32c-1.26,18.36-6.9,29.82-16.86,34.5a1.71,1.71,0,0,1-.42-.48q10.44-10.26,12.24-34a14.22,14.22,0,0,0-4.8.72c-.42-1-.9-2-1.38-3.12a17.54,17.54,0,0,0,5.64.6h.66c.12-2.46.24-5,.24-7.62-.18-4.62-.3-7.92-.42-9.84,4.62.54,7,1.08,7,1.68s-.48.78-1.44,1c0,2.82-.06,5.58-.12,8.34,0,2.28-.06,4.44-.18,6.42h5.28a17.53,17.53,0,0,1,3.6-3.72c.12,0,.3.06.48.06C350.16,15,350.64,15.24,351.12,15.6Zm-3.18,11a1.28,1.28,0,0,1-.72,1,7.47,7.47,0,0,0-1.62.9V47c0,.9.66,1.32,2,1.32s2.1-.42,2.22-1.32c.3-1.32.6-3,.84-4.92.3-1.68.54-3.3.72-4.8l.9.18q-.18,3.42-.18,7.2a4,4,0,0,0,1.5,2.82,2.79,2.79,0,0,1,1.14,2.34c0,1.26-.78,2.16-2.28,2.64a13,13,0,0,1-4.2.54,22,22,0,0,1-3.78-.24c-2.4,0-3.66-1.62-3.72-4.86V29.28a22.21,22.21,0,0,0-.42-4.68Q347.94,25.86,347.94,26.58Zm3.12-16a5.12,5.12,0,0,1-.3,1.8,2,2,0,0,1-2,1.5c-.6,0-1.38-1-2.34-3.18a17.46,17.46,0,0,0-3.36-5.16,1.59,1.59,0,0,0,.36-.66C348.3,5.64,350.82,7.5,351.06,10.62Z"/><path d="M381.78,41.16a68.35,68.35,0,0,1-16.62,8.52,5.35,5.35,0,0,0-.6,2.34c-.06.54-.3.84-.66.84-.54,0-1.44-1.38-2.64-4.08a22.71,22.71,0,0,0-1.44-3.48,66.46,66.46,0,0,0,8.1-1.26V25.32c-3.9.12-5.88.3-5.88.48a24.19,24.19,0,0,1-1.14-3.12,44.4,44.4,0,0,0,7,.72V8h-1.14a27.37,27.37,0,0,0-5.76.48c-.24-.66-.48-1.44-.84-2.4a39.06,39.06,0,0,0,6.6.42h7a39.08,39.08,0,0,1,2.94-3.66q.45-.54.72-.54a2.76,2.76,0,0,1,1.26.72c2.46,2.16,3.84,3.54,4.14,4.26,0,.48-.18.72-.48.72H373V23.52h.6c1.44-2.4,2.4-3.6,2.82-3.6s.9.66,1.86,1.92a9.67,9.67,0,0,1,1.56,2.52c0,.6-.24.9-.66.9H373V42.84c2.76-.72,5.58-1.5,8.46-2.46C381.54,40.68,381.66,40.92,381.78,41.16ZM392,1.62q2.34.63,2.34,1.08c0,.3-.3.54-.9.78-.84.42-1.44.72-1.74.9l-.42,18.36c0,15.66-4.86,26.4-14.46,32.16a8,8,0,0,1-.66-.6c2.58-2.7,5-6.72,7.14-12.24,2.1-5.34,3.18-12.6,3.3-21.72l.06-15q-.18-3-.36-4.86C388.68.9,390.6,1.26,392,1.62ZM383.64,15a42.5,42.5,0,0,1,.6,5.1c0,8-1.26,12.18-3.66,12.36-1.92,0-2.88-.6-2.94-1.92a3.56,3.56,0,0,1,.42-1.86,17.17,17.17,0,0,1,2-3.42c1.44-2.22,2.34-5.64,2.7-10.32A8.15,8.15,0,0,0,383.64,15ZM410.52,2.1c2.4,2.16,3.78,3.54,4.08,4.26,0,.54-.18.78-.42.78h-9.3V25.38h1.2c1.68-2.34,2.82-3.54,3.36-3.6q.54,0,2.34,2a10.42,10.42,0,0,1,2,2.46c0,.6-.24,1-.72,1h-8.16V49.5H407a33.1,33.1,0,0,1,3.48-4,.87.87,0,0,1,.36.06c.42.12,1.5,1.08,3.3,2.94.9.9,1.38,1.5,1.38,2s-.3.78-.9.78H393.54a23.11,23.11,0,0,0-4.14.36,11.93,11.93,0,0,1-1.32-2.82,12.55,12.55,0,0,0,4.32.72H400V27.24c-3.84.12-5.82.3-5.82.42a21.71,21.71,0,0,1-1.2-3.06,48.28,48.28,0,0,0,7,.66V7.14h-.72a27.37,27.37,0,0,0-5.76.48c-.24-.72-.48-1.5-.84-2.46a39.06,39.06,0,0,0,6.6.42h6.3c1-1.32,2-2.58,2.94-3.66.3-.3.54-.48.78-.48A3.09,3.09,0,0,1,410.52,2.1Z"/><path d="M470.82,12.24c0,.54-.54,1.14-1.56,1.86a5,5,0,0,0-1.14,1c-.18,12.06-.78,19.08-1.86,21a7.22,7.22,0,0,1-6.9,4.38c-.6-.12-1-.78-1.14-2a5.48,5.48,0,0,0-2-2.94,17.91,17.91,0,0,0-3.42-1.32l.42-1.14a26.72,26.72,0,0,0,5.1.72c1.92,0,3-.54,3.3-1.62.66-2.1,1-8,1-17.76-4.08,1.08-7.86,2.1-11.22,3V27.78c.12,6.78.18,11.58.3,14.34,0,1.08-1.38,1.56-4,1.56-1.38,0-2-.36-2-1.2.12-2.34.18-7.32.24-14.94V19c-4,1.08-7.32,2-10.2,2.82v23c.24,2.16,2.4,3.24,6.6,3.24h22.5a3.64,3.64,0,0,0,4-3.42,66.52,66.52,0,0,0,1.38-8.52,3.38,3.38,0,0,0,1.38.3c0,1.14-.06,3.9-.18,8.34A2.52,2.52,0,0,0,472.5,47c1.38.78,2.1,1.56,2.1,2.28q0,3.06-5,3.6-2.7.36-12.78.36c-12.24,0-18.36-.12-18.36-.24-5.7-.12-8.52-2.64-8.52-7.56V23.4A56,56,0,0,0,422.16,26a15.41,15.41,0,0,0-1.92-2.82,54.59,54.59,0,0,0,9.66-1.68V11.22c-.12-1.92-.18-3.84-.3-5.82,5.94,1,8.94,1.74,8.94,2.28q0,1.08-2.88,2V20.1c3-.78,6.42-1.68,10.2-2.76V6.84c-.12-1.92-.36-3.84-.6-5.76,2,.24,4.2.6,6.48,1,1.62.3,2.46.72,2.46,1.26s-.36.66-1.08.78c-1.2.42-1.74.72-1.74,1V15.72c3.24-.9,6.66-1.92,10.32-3.06,1.32-2.52,2.4-3.84,3.18-3.84Q470.82,11.16,470.82,12.24Z"/><path d="M504.9,18.6a12.28,12.28,0,0,1,2.52,2.88c0,.6-.12,1-.36,1h-13.5V43.38a79.92,79.92,0,0,0,14-3.3,3.88,3.88,0,0,0,.24.78c-4.8,4.2-12.06,7.32-21.66,9.48-.18,2.34-.6,3.54-1.32,3.54-.36,0-1.26-1.62-2.64-4.8a23.4,23.4,0,0,1-1.56-4.68q3.6,0,7.2-.36V8a67.88,67.88,0,0,0-.3-6.84c6,.84,9.06,1.62,9.06,2.34s-.42,1-1.14,1.08c-1.26.48-1.92,1-1.92,1.32V20.76h5.34a17.52,17.52,0,0,1,3.3-3.84,2.12,2.12,0,0,1,.36-.06A9,9,0,0,1,504.9,18.6ZM518.58,3.3c-.06.24-.36.54-.84.84a8.29,8.29,0,0,0-2.16,1.08v18.3a47,47,0,0,0,10.56-10.44c4.5,3.3,6.78,5.16,6.78,5.64a.84.84,0,0,1-1,.9,21.05,21.05,0,0,0-3.18-.36,53,53,0,0,1-13.2,6.3v19.2c.3,1.5,1.86,2.22,4.62,2.22h5.16q2.25,0,3.06-4.86c.78-3.6,1.2-6,1.32-7.14a4.58,4.58,0,0,0,1,.06c.12,0,.18,2.88.18,8.52a2.32,2.32,0,0,0,1.32,2.22c1.26.78,1.92,1.56,1.92,2.34,0,1.5-1.14,2.58-3.36,3.24a38.78,38.78,0,0,1-8,.66,56.31,56.31,0,0,1-7.32-.3c-3.72-.3-5.52-2.34-5.52-6.18V6.42c0-1.92-.12-3.78-.3-5.64C515.58,1.8,518.58,2.64,518.58,3.3Z"/><path d="M563.1,6.48a19.41,19.41,0,0,1,3.6,3.72c0,.48-.18.72-.48.72h-8.88v2.94c5.28,2.76,7.92,5.22,8,7.44,0,1.56-.42,2.52-1.26,3a2.78,2.78,0,0,1-1.5.36c-.78,0-1.44-.9-1.92-2.82a27.25,27.25,0,0,0-3.3-6.36V32c0,1.08-1.14,1.62-3.36,1.68-1.32,0-1.92-.3-1.92-1,0-4.08.06-8.46.12-13.14a29.4,29.4,0,0,1-10.74,10.8c-.24,0-.42-.18-.54-.66A37.46,37.46,0,0,0,550,13.44q.45-1.53.72-2.52h-2a27.37,27.37,0,0,0-5.76.48c-.24-.66-.48-1.44-.84-2.4a39.59,39.59,0,0,0,6.6.42h3.54V3.84a26.4,26.4,0,0,1-.3-3.54q7.29.9,8.1,2.16c0,.54-.42.9-1.14,1.14-1.08.54-1.56.9-1.56,1v4.8h1.44a28.56,28.56,0,0,1,2.58-3.12,1.2,1.2,0,0,1,.66-.42A3.35,3.35,0,0,1,563.1,6.48ZM550,38.16c.12,1.14.18,2.94.18,5.34-.06,5.16-2,7.68-5.82,7.8-2,0-3.12-.72-3.24-2a5,5,0,0,1,2-3.48,10.65,10.65,0,0,0,3.6-3.12,11.16,11.16,0,0,0,2.22-4.56A7.35,7.35,0,0,1,550,38.16Zm12.24-.3c0,.72-1.08,1.38-3.18,2.1v6c0,1.8,1,2.7,2.88,2.82h10.68c2.16,0,3.66-.72,4.5-2.1.6-.9,1.32-3.06,2.16-6.42a10.41,10.41,0,0,0,1.08.06v6.3c0,.54.42,1,1.14,1.2.84.48,1.26,1,1.26,1.5-.12,1.86-1.86,3.12-5.28,3.72a73.56,73.56,0,0,1-8.16.48,91.42,91.42,0,0,1-10.62-.36c-3.24-.24-4.8-2.94-4.8-8.22V41.7a33.33,33.33,0,0,0-.42-6.18C559.26,36.6,562.2,37.38,562.2,37.86Zm11.94,3.48a6.11,6.11,0,0,1-.3,2,2.39,2.39,0,0,1-2.34,1.74c-.6,0-1.38-1.14-2.46-3.48a19.37,19.37,0,0,0-3.6-5.7,1.34,1.34,0,0,0,.42-.72Q573.78,36.3,574.14,41.34ZM572.58,3.9h11.16C585.3,2,586.38,1,587,.9a10,10,0,0,1,3.24,1.8c1.44,1.08,2.16,1.92,2.16,2.4s-.3.72-.84,1.08a13.53,13.53,0,0,0-1.62,1.38v14c.24,5.46.36,9,.36,10.56,0,1.32-1.08,2-3.12,2-1.56,0-2.4-.36-2.46-1.08V30.84H573.12v1.32c-.24,1.2-1.38,1.8-3.3,1.8-1.2,0-1.92-.18-2.16-.6,0-5,.06-9.84.24-14.64V9.18a46.38,46.38,0,0,0-.48-7.26Zm12.12,8.28V5.4H573.12v6.78Zm0,8V13.74H573.12v6.48Zm0,9.06V21.84H573.12v7.44ZM593.76,47a3.16,3.16,0,0,1-1.14,2.76,3.23,3.23,0,0,1-1.92.66c-1.44,0-2.46-1.44-3-4.44a16.82,16.82,0,0,0-4.2-7.86,8.55,8.55,0,0,1,.72-.66Q593.76,42.54,593.76,47Z"/><path d="M618.36,3.36c0,.6-1.08,1-3.12,1.32A83.92,83.92,0,0,1,610.8,15.6c1.92.6,2.88,1,2.88,1.38s-.42.54-1.26.78-1.14.6-1.14.84V38.46c.12,5.4.24,10.5.24,15.24-.18,1-1.38,1.5-3.66,1.62-1.5,0-2.22-.36-2.22-1.08.12-5.16.24-10.38.24-15.66V23.46a36.56,36.56,0,0,1-5.58,5.76,1.86,1.86,0,0,1-.36-.72q7-10.44,9.72-28.2C615.42,1.5,618.36,2.52,618.36,3.36Zm14.82.12q0,.81-3.78,1.26c-.42.6-.84,1.2-1.26,1.74h7.38a18.21,18.21,0,0,1,3.18-2.94c.48,0,1.68.72,3.48,2.16A12,12,0,0,1,644.4,8c0,.42-.3.72-.84.84A8.77,8.77,0,0,1,641,9.3a28.18,28.18,0,0,1-6,4h10.38c1.44-1.86,2.46-2.82,3-2.88a9.23,9.23,0,0,1,3,1.68c1.32,1,2,1.74,2,2.22s-.3.72-.9,1a5.48,5.48,0,0,0-1.62,1.26v4c.18,1.56.3,2.58.3,3.06,0,1.2-1,1.86-2.88,1.86-1.44,0-2.22-.3-2.28-1v-1h-9.48a16.57,16.57,0,0,1-3.24,3.24,26.71,26.71,0,0,1,4.68,6.3c3.24-2.52,5.4-5,6.48-7.68,4,2.28,6.06,3.66,6.06,4.14s-.36.6-1,.6-1.32.12-1.92.12a42.76,42.76,0,0,1-4.38,2.1,16.54,16.54,0,0,0,5.1,7.68,17.18,17.18,0,0,0,6.72,4.08,8,8,0,0,1-.3,1.14,3.11,3.11,0,0,0-2.1,1.08,8.74,8.74,0,0,0-1.26,2c-.36.6-.66.9-1,.9-.72-.06-2-1.32-3.84-3.72a29,29,0,0,1-4.74-12.66c-1.08.42-2.22.78-3.36,1.14a18.77,18.77,0,0,1,1.68,7.38c0,7.62-1.74,12-5.22,13.26a7.36,7.36,0,0,1-2.34.42c-.9,0-1.32-.42-1.32-1.14A4,4,0,0,0,629,50.46a16.81,16.81,0,0,0-4.62-1.56v-.72c3.66.3,6.6.48,8.82.48,1.2,0,1.86-2.52,2-7.68a72.28,72.28,0,0,1-20.16,7.56,2.36,2.36,0,0,1-.6-1c8.34-3.18,15.18-7.32,20.46-12.42a13.38,13.38,0,0,1-.24-1.38,67.16,67.16,0,0,1-19.92,7.5,2.36,2.36,0,0,1-.6-1A52.84,52.84,0,0,0,633,28.74a10.55,10.55,0,0,0-.72-1.2c-4.56,3.36-10.8,5.4-18.6,6.12a3.1,3.1,0,0,0-.42-1c7.92-1.92,13.44-5,16.62-9.18H622.5a7.65,7.65,0,0,0,.06,1.2c-.24,1-1.44,1.44-3.54,1.44-1.08,0-1.56-.3-1.56-.9.06-1.8.12-3.84.12-6.06V16.08c-.9.54-1.8,1-2.7,1.5a8.8,8.8,0,0,1-.6-.66Q623.1,8.28,624.9,0C630.42,1.62,633.18,2.76,633.18,3.48Zm-.48,9.84a31.23,31.23,0,0,0,3-5.28h-8.82a29.09,29.09,0,0,1-3.3,3.36,23.52,23.52,0,0,1-1.86,1.68l.48.24ZM631.38,22V14.88h-9.06V19a26.1,26.1,0,0,0,.12,3ZM646,22V14.88h-9.66V22Z"/><path d="M669,13h15.18v-7Q684,3.18,683.64.3c2,.3,4.2.6,6.48,1,1.62.3,2.46.72,2.46,1.26s-.42.72-1.14.84c-1.14.42-1.68.72-1.68.9V13h13.68c1.68-2.28,2.82-3.48,3.48-3.54a11.52,11.52,0,0,1,3.42,1.92c1.56,1.2,2.34,2,2.34,2.58s-.3.78-.9,1.14a9.57,9.57,0,0,0-1.68,1.5v10.8q.36,6.3.36,8.1c0,1.44-1.14,2.22-3.3,2.22-1.68,0-2.58-.36-2.64-1.2V33.3H689.76v5.52c.12,6.84.18,11.58.3,14.34,0,1.08-1.38,1.62-4.08,1.62-1.32,0-2-.42-2-1.2q.09-3.6.18-14.94V33.3H669.6v2.52c-.24,1.32-1.44,2-3.48,2-1.32,0-2.1-.18-2.34-.66,0-4.14.06-8.22.24-12.18V17a33,33,0,0,0-.48-6.06Zm15.18,18.72V14.58H669.6V31.74Zm5.58,0h14.76V14.58H689.76Z"/><path d="M730.5,15.84c-.06.9-.9,1.38-2.58,1.38-1.38,0-2-.3-2-1,0-2.46.06-4.8.06-7-3.06.12-4.62.3-4.62.42a26.67,26.67,0,0,1-1.2-3.12,35.17,35.17,0,0,0,5.82.66V4c-.06-1.62-.12-2.88-.18-3.72,4.62.78,7,1.38,7,1.86,0,.3-.36.6-1,.84-1,.42-1.38.72-1.38.9l.06,3.54h7.92V4.08c-.12-1.62-.18-2.88-.24-3.72,4.62.78,7,1.38,7,1.86,0,.3-.36.6-1,.84-1,.42-1.38.72-1.38.9l.06,3.48h1.38q2-3.24,2.52-3.24c.24,0,.78.6,1.62,1.74a10.25,10.25,0,0,1,1.38,2.28c0,.6-.24,1-.66,1H742.8l.06,6.6c-.06.9-.9,1.38-2.58,1.38-1.38,0-2-.3-2-1v-1h-1.5V19.8h3.72c1.32-1.56,2.22-2.34,2.76-2.4A9.08,9.08,0,0,1,746,19c1.2,1,1.86,1.62,1.86,2a1.25,1.25,0,0,1-.66,1A7.52,7.52,0,0,0,746,23.1v3c.18,1.2.3,1.92.3,2.28,0,1.14-.9,1.74-2.7,1.74-1.32,0-2-.3-2.1-1V29.1h-4.74v.36c0,1.62-.06,3.06-.06,4.38h3.18c1.74-2.1,2.88-3.18,3.36-3.24s1.14.6,2.34,1.8a7.32,7.32,0,0,1,2,2.28c0,.6-.24.9-.66.9H736.62c-.12,2-.24,3.6-.42,4.74h4.68c1.92-2.34,3.12-3.54,3.66-3.6s1.26.66,2.58,2a12.36,12.36,0,0,1,2.22,2.46c0,.6-.24,1-.72,1H735.78a2.18,2.18,0,0,1-.3.72,25.59,25.59,0,0,1,5.76,2.4c2.76,1.56,4.14,3.18,4.14,4.92a3,3,0,0,1-.54,2,1.75,1.75,0,0,1-1.56.78c-.48,0-1.44-1.14-2.94-3.3a24.92,24.92,0,0,0-5.4-5.52,15.06,15.06,0,0,1-3.18,4.5A24.73,24.73,0,0,1,720.6,55.5c-.3,0-.42-.24-.42-.6a23.53,23.53,0,0,0,8.64-8.52,14.9,14.9,0,0,0,1.8-4.26h-.54c-5.76.12-8.7.3-8.7.48a21.71,21.71,0,0,1-1.2-3.06,67.26,67.26,0,0,0,9.3.78H731c.24-1.44.42-3,.54-4.74h-.12c-5.82.12-8.76.3-8.76.54A17.61,17.61,0,0,1,721.56,33c.84.3,3.9.6,9.24.84h.9c.06-1.26.12-2.58.12-3.9V29.1h-4.5v1c-.24,1-1.2,1.5-2.82,1.5-1.08,0-1.68-.12-1.86-.48q0-3.06.18-5.94v-3.9a15.38,15.38,0,0,0-.36-2.94l4,1.5h5.4V15.24H730.5Zm1.32,11.7V21.3h-4.5v6.24ZM730.44,9.18l.06,4.44h7.74c0-1.56.06-3.06.06-4.44Zm6.3,18.36h4.74V21.3h-4.74Zm34.92-16a11,11,0,0,1,2.34,2.7c0,.6-.18.9-.42,1h-7.92v9.48h.72c1.38-2.4,2.28-3.72,2.76-3.84.24,0,1,.78,2.28,2.34A9.29,9.29,0,0,1,773,25.44c0,.6-.18.84-.48.84h-6.84v10h.78c1.38-2.4,2.28-3.72,2.76-3.84.24,0,1,.84,2.28,2.4A8.22,8.22,0,0,1,773,37.08c0,.54-.18.78-.48.78h-6.9V49H767c1.5-2.64,2.52-4.08,3-4.2.3,0,1.14.9,2.58,2.58,1.14,1.32,1.74,2.1,1.74,2.46s-.18.78-.48.78H755.7v1.2c0,.72.06,1.44.06,2.22q0,1.44-2.88,1.44c-1.32,0-2-.3-2.1-.78V22c-.84,1.68-1.68,3.36-2.58,5a7.6,7.6,0,0,1-1.38-.48A129.35,129.35,0,0,0,752.64.66c4.8,1.86,7.26,3.06,7.26,3.66s-1,.84-2.94,1.08q-1.08,4-2.52,8.1h11.7a17,17,0,0,1,3-3.48,2.12,2.12,0,0,1,.36-.06A7.89,7.89,0,0,1,771.66,11.52Zm-16,13.14h5.46V15.18H755.7Zm0,11.58h5.46v-10H755.7Zm0,12.72h5.46V37.86H755.7Zm11-40a2.74,2.74,0,0,1-1,2.4,2.81,2.81,0,0,1-1.68.54q-1.26,0-1.8-3.6A15.92,15.92,0,0,0,759.78,2c.12-.12.36-.3.6-.54C764.58,4.14,766.68,6.6,766.68,9Z"/></g></g></svg>