<svg xmlns="http://www.w3.org/2000/svg" viewBox="0 0 674.76 56.1"><g id="图层_2" data-name="图层 2"><g id="图层_1-2" data-name="图层 1"><path d="M10.8,3.72H42.18c1.44-1.44,2.4-2.16,3-2.16s1.44.54,3,1.62c1.32,1.08,2,1.8,2,2.28s-.3.66-.9,1a8.19,8.19,0,0,0-1.62,1.26v7c.18,2.7.3,4.44.3,5.28,0,1.2-1,1.86-2.88,1.86-1.44,0-2.22-.3-2.28-1v-.72h-2v6.66h5.82a16.8,16.8,0,0,1,3.36-3.36c.12,0,.24.06.42.06.36.24.78.48,1.2.78,2.1,1.8,3.18,3,3.18,3.48s-.24.84-.6.84H40.74V36h4A17,17,0,0,1,48,32.64c.12,0,.3.06.42.06.36.24.78.48,1.26.84,2.1,1.8,3.18,3,3.18,3.48s-.24.78-.6.78H29.88v5.76H40.74a17.53,17.53,0,0,1,3.6-3.72c.12,0,.3.06.48.06a11.8,11.8,0,0,1,1.32.84c2.34,2,3.54,3.3,3.54,3.84s-.24.78-.66.78H29.88c.12,2.34.24,5.16.24,8.52,0,.72-1.08,1.2-3.18,1.32-1.68,0-2.52-.3-2.52-.84q.18-2.52.18-9H17c-5.88,0-9.48.24-10.92.72-.42-1-.9-2-1.38-3.12a82.67,82.67,0,0,0,12.3.6H24.6V37.8H16.74c-6.48,0-10.56.24-12.12.72-.42-1-.9-2-1.44-3.12A82.83,82.83,0,0,0,13.8,36V28.62c-6.6.06-10.68.3-12.36.72-.42-1-.9-2-1.44-3.12a120.21,120.21,0,0,0,13.8.6V20.16H11.88v.36c-.24,1.14-1.26,1.68-3.06,1.68-1.08,0-1.74-.18-2-.6,0-3.06.06-6.06.18-9.06V6.6A24.28,24.28,0,0,0,6.6,2.1ZM24.6,10.8V5.22H11.88V10.8Zm0,7.74V12.42H11.88v6.12Zm-5.82,8.28H24.6V20.16H18.78Zm0,9.18H24.6V28.62H18.78Zm11.1-25.2h12.9V5.22H29.88Zm0,7.74h12.9V12.42H29.88Zm5.94,1.62H29.88v6.66h5.94Zm0,8.46H29.88V36h5.94Z"/><path d="M79.32,10.62c2.16,1.2,3.3,2.52,3.3,4.08a2.8,2.8,0,0,1-.84,2.16.83.83,0,0,1-.6.3H92a27.66,27.66,0,0,0,1.86-8.1c4.74,1.26,7.14,2.1,7.14,2.58s-.54.72-1.62.84c-.78.18-1.14.3-1.14.36a15.8,15.8,0,0,1-4.56,4.32h10.5c1.8-2.28,3.06-3.66,3.9-4.14.18,0,.36.06.54.06A6.68,6.68,0,0,1,110,14c2.52,2.16,3.84,3.48,3.84,4.08s-.24.84-.66.84H75.12c-7,0-11.34.24-13,.72a29.38,29.38,0,0,0-1.44-3.12,121.24,121.24,0,0,0,14.94.6h4q-1.26-.36-1.8-2.34a12.82,12.82,0,0,0-1.62-3.18,11.38,11.38,0,0,0-1.38-1.86,3.92,3.92,0,0,0,.42-.48A13,13,0,0,1,79.32,10.62ZM74.88,23.28H97.74c1.56-1.8,2.64-2.76,3.24-2.82a10.7,10.7,0,0,1,3.18,1.8c1.44,1.14,2.22,1.92,2.22,2.4s-.3.78-.9,1.14a6.38,6.38,0,0,0-1.62,1.32v6.72c.18,2.64.3,4.32.3,5,0,1.32-1.08,2-3.12,2-1.56,0-2.4-.36-2.4-1.08V39H94.5v7.14c.3,1.5,1,2.22,2.22,2.22h10.2c1.68,0,2.64-1,2.88-2.94a39.28,39.28,0,0,0,1.38-5.82,3,3,0,0,0,1,.12v5.94a1.88,1.88,0,0,0,1,1.92c1,.48,1.56,1,1.56,1.62,0,1.32-1.08,2.28-3.24,2.94A56.69,56.69,0,0,1,102,53c-3.48,0-5.7-.06-6.78-.18-4-.24-6-2.16-6.06-5.64V39H85.68C82.56,49,74.4,54.24,61.26,55a1,1,0,0,1-.24-.42c10.86-3.6,17.1-8.7,18.78-15.54H75.9v.78c-.24,1.2-1.38,1.8-3.3,1.8-1.2,0-1.92-.18-2.16-.6,0-3.06.06-6.06.18-9.06V26a16.49,16.49,0,0,0-.42-4.5ZM107,4.38c2.28,2,3.48,3.24,3.48,3.78s-.24.84-.6.84H76.56q-9.09,0-11.34.72A20.57,20.57,0,0,0,63.84,6.6a90.77,90.77,0,0,0,12.9.6h24.78a22.36,22.36,0,0,1,3.6-3.78c.12,0,.3.06.48.06A13.33,13.33,0,0,1,107,4.38Zm-8.34,25.8V24.84H75.9v5.34Zm0,7.26v-5.7H75.9v5.7ZM90.24,3.18a6.78,6.78,0,0,1-.3,2.1A2.29,2.29,0,0,1,87.66,7c-.72,0-1.68-.72-2.94-2.28A14.77,14.77,0,0,0,80.52.9a1.34,1.34,0,0,0,.42-.72C86.94.54,90,1.5,90.24,3.18Z"/><path d="M148.62,2.16c1.56,1.32,2.4,2.22,2.4,2.64s-.3.78-.84,1.08A11.08,11.08,0,0,1,148.62,7q-.45,31.68-2.52,38.94c-1,4.8-3.48,7.5-7.44,8q-.81,0-.9-1.62a6.27,6.27,0,0,0-2.64-3.48,16.82,16.82,0,0,0-2.88-1.8c.06-.3.12-.6.18-.84a40,40,0,0,0,5.94,1.32c1.5,0,2.46-1,2.94-3,.54-3.42,1-7.38,1.38-11.88h-5.82c-1,0-1.8.06-2.58.06-2.46,9.48-6.9,16.92-13.26,22.44-.06-.06-.18-.24-.36-.48,4-5.52,6.72-12.84,8.34-21.84-2.34.12-4.32.24-6,.36a11.54,11.54,0,0,1-1-2.58c1.08.12,3.48.24,7.32.3.42-2.88.78-5.94,1-9.12a28.85,28.85,0,0,0,.24-3c-3,.12-5.52.24-7.5.42a12.73,12.73,0,0,1-1-2.58,83.52,83.52,0,0,0,8.52.36c.12-2.94.18-6.78.18-11.58h-.3A37.18,37.18,0,0,0,123,6c-.24-.6-.54-1.44-1-2.64a59.3,59.3,0,0,0,8.76.48H143C144.6,1.68,145.68.6,146.22.6A6.72,6.72,0,0,1,148.62,2.16ZM134.7,31c1,.06,1.92.06,3,.06h5.1c.3-3.78.54-7.92.66-12.36h-7.14A74.5,74.5,0,0,1,134.7,31Zm1.74-17c0,1.08-.06,2.1-.06,3.12h7.14c.06-3.72.12-7.56.12-11.64h-7.08C136.56,7.2,136.5,10.08,136.44,13.92ZM158.82,3.84H166C167.58,2,168.66,1,169.38.9c.3,0,1.26.72,2.94,2.1s2.4,2.34,2.4,2.76-.3.78-.9.9c-1.2.48-2,.84-2.4,1a65.9,65.9,0,0,1-8.22,13.14c6.42,4.62,9.72,10,10,16.08q0,7.74-5.76,9A1.46,1.46,0,0,1,166,44.76a5,5,0,0,0-2.28-3.3,15,15,0,0,0-2.88-1.26,1.42,1.42,0,0,0,.18-.9,23.13,23.13,0,0,0,4.92.48c1.38-.12,2.1-1.38,2.1-3.72,0-6.54-2-11.58-6.06-15.12,2.16-4,3.66-9.3,4.62-15.78h-7.8V53.28c-.3,1.2-1.38,1.8-3.3,1.8-1.2,0-1.92-.24-2.16-.6,0-8.34.06-16.5.18-24.54V13.86a120.09,120.09,0,0,0-.42-12.24Z"/><path d="M229.38,45.54c2.94,2.52,4.44,4,4.44,4.74,0,.54-.24.84-.66.84H195.42c-6.9,0-11.22.24-12.9.72a20.57,20.57,0,0,0-1.38-3.12,109.18,109.18,0,0,0,14.16.6h27.24a23.78,23.78,0,0,1,4.56-4.92c.18,0,.36.06.54.06A19.86,19.86,0,0,1,229.38,45.54Zm-25.86-42c0,.48-.36.84-1,1-1.08.48-1.68.84-1.68,1.14v8.7h1.8a16.23,16.23,0,0,1,2.76-3.12,2.6,2.6,0,0,1,.3-.06,8,8,0,0,1,2,1.44,12.23,12.23,0,0,1,2.1,2.4c0,.6-.18,1-.42,1h-8.58V27c2.82-.36,5.64-.84,8.52-1.38a6.45,6.45,0,0,0,.42.9A117.54,117.54,0,0,1,187.08,34a6.37,6.37,0,0,0-.6,2.52q-.09.9-.72.9c-.6,0-1.56-1.44-2.88-4.44a31.81,31.81,0,0,0-1.56-3.78q2.34-.09,4.68-.36V15.54a42.9,42.9,0,0,0-.3-5.46c4.8.72,7.26,1.32,7.26,1.86s-.3.72-.84.84c-1,.42-1.56.78-1.56,1.08V28.38c1.8-.18,3.6-.42,5.4-.66V7.5a51,51,0,0,0-.3-5.94C200.88,2.28,203.52,2.94,203.52,3.54ZM221,35c2.7,2.28,4.08,3.78,4.08,4.44s-.24.78-.6.78h-23.7q-6.48,0-8.1.72a27.65,27.65,0,0,0-1.38-3.12,35.07,35.07,0,0,0,8,.6h15.36c1.92-2.46,3.3-4,4.2-4.5.12,0,.3.06.54.06A13.76,13.76,0,0,1,221,35Zm-1.2-31c0,.66-1.08,1.32-3.18,2V16.32A43.61,43.61,0,0,0,226.92,7.8c3.72,2.76,5.64,4.32,5.64,4.68s-.3.72-.78.72a20.56,20.56,0,0,0-2.64-.3,52.92,52.92,0,0,1-12.48,5v7.74c0,1.68,1,2.52,2.88,2.58h4.26A4.31,4.31,0,0,0,228,26a28.69,28.69,0,0,0,2-6.6c.6.06,1,.06,1,.06V26c0,.6.48,1,1.32,1.26,1,.48,1.44,1,1.44,1.56-.12,1.74-1.8,2.88-4.92,3.42a28,28,0,0,1-5.46.48,40.47,40.47,0,0,1-7.08-.36c-3.24-.12-4.8-2.7-4.8-7.62V7.8a32.07,32.07,0,0,0-.42-6.12C216.9,2.7,219.84,3.48,219.84,4Z"/><path d="M246.42,38.16a45.08,45.08,0,0,1,.6,5.16c0,6.72-1.32,10.14-3.9,10.32-1.92,0-2.88-.66-2.94-2a3.08,3.08,0,0,1,.42-1.8,11.22,11.22,0,0,1,2.1-2.94c1.5-1.86,2.46-4.8,2.82-8.76Zm11.16-35c0,.72-1,1.08-2.94,1.2a39.23,39.23,0,0,1-8.22,12.24c2.34.12,4.8.24,7.44.24a46.3,46.3,0,0,0,3.06-7.44c4.86,1.8,7.32,3,7.32,3.6s-1.08.84-2.94,1.08q-4.23,7.29-13.68,15.12a88.91,88.91,0,0,0,10.14-.72,17.13,17.13,0,0,0-2.28-4.2l.78-.54c4.62,2.64,7,5,7,7.14a4.47,4.47,0,0,1-.72,2.94,2.48,2.48,0,0,1-2.16,1c-.84,0-1.38-.9-1.62-2.76a20.92,20.92,0,0,0-.6-2.28,64.34,64.34,0,0,1-13.44,4.44c-.3,1.62-.66,2.4-1.08,2.4s-.78-.72-1.26-2.22-1.08-3.24-1.68-5.4a22.82,22.82,0,0,0,4.62.3,66.22,66.22,0,0,0,7.56-10.56,62.55,62.55,0,0,1-8.64,2.28,4.26,4.26,0,0,1-.54,1.38c-.06.18-.18.24-.42.24s-1-2.16-2-6.48l3.48.36A48.25,48.25,0,0,0,250.26.18C255.12,1.62,257.58,2.58,257.58,3.12Zm-2.52,44.46c-.12,2.94-1.26,4.44-3.42,4.44-1.32-.06-1.92-.84-1.92-2.34a16.8,16.8,0,0,1,.9-3.78,26,26,0,0,0,.36-5c-.06-1.08-.12-2-.24-2.76a1.92,1.92,0,0,0,1-.36C253.92,41.52,255.06,44.82,255.06,47.58ZM263,45.3c-.12,2.4-1.08,3.54-2.94,3.54-1.32,0-2-.72-2-2.22a7.65,7.65,0,0,1,.06-1.14c0-.6.06-1.26.12-2.1a17.05,17.05,0,0,0-2-7.26q.72-.18.72-.36C260.94,38.88,263,42.06,263,45.3Zm28.5,2.1q3.78,3.24,3.78,4.14c0,.54-.24.84-.6.84h-24.9c-4.56,0-7.44.18-8.52.66A23.9,23.9,0,0,0,259.8,50a49.45,49.45,0,0,0,8.82.54h5.52V37.92h-2.4q-5.67,0-7,.72c-.42-1-.9-2-1.44-3.12a27.65,27.65,0,0,0,7.08.6H284a21.18,21.18,0,0,1,3.6-3.72c.12,0,.3.06.48.06a12.18,12.18,0,0,1,1.38.84c2.28,2,3.48,3.3,3.48,3.84s-.24.78-.6.78H279.54v12.6h6.06a20.53,20.53,0,0,1,3.9-4.14c.12,0,.3.06.48.06A15.36,15.36,0,0,1,291.48,47.4Zm-1-45.06c2.28,2,3.48,3.24,3.48,3.78s-.24.84-.66.84H270.18c-4.26,0-6.9.24-7.92.66q-.63-1.53-1.44-3.06a37.86,37.86,0,0,0,8.28.6h16a18.35,18.35,0,0,1,3.6-3.78c.12,0,.3.06.48.06A13.33,13.33,0,0,1,290.52,2.34ZM273.84,11.7c0,.48-.3.78-.9.78s-1.32.18-1.8.24a24.49,24.49,0,0,1-6.42,8.1,18.9,18.9,0,0,1,4.56,4.44,9.3,9.3,0,0,1,2,5.16c-.12,1.92-1.14,2.82-3.06,2.82-1.08,0-1.8-.72-2.28-2.16a37.33,37.33,0,0,0-1.38-6.24A31.91,31.91,0,0,0,263,21a36.31,36.31,0,0,0,3.9-11.94C271.5,10.26,273.84,11.16,273.84,11.7Zm10-.06c0,.48-.3.78-.9.78s-1.32.18-1.8.24a23.38,23.38,0,0,1-6.66,8,21.13,21.13,0,0,1,5.16,4.14q2.34,2.7,2.34,4.86a2.73,2.73,0,0,1-3.06,2.88c-1.08,0-1.8-.72-2.28-2.16a31.77,31.77,0,0,0-1.8-5.94,25,25,0,0,0-2.1-3.6A35.81,35.81,0,0,0,276.9,9C281.52,10.2,283.86,11.1,283.86,11.64Zm9.48.78q0,.72-.9.72c-.72.12-1.32.18-1.8.3a21.42,21.42,0,0,1-6.78,7.14,23.11,23.11,0,0,1,5.7,4.08c1.68,1.68,2.58,3.3,2.58,4.74a2.73,2.73,0,0,1-3.06,2.88c-1.08,0-1.8-.72-2.28-2.16a24.5,24.5,0,0,0-2.16-5.82,26.84,26.84,0,0,0-2.52-3.54,30.64,30.64,0,0,0,4.26-11C291,11,293.34,11.88,293.34,12.42Z"/><path d="M315.36,14.82c1.26,1.2,1.92,2,1.92,2.46s-.6.9-1.8,1.38a3.22,3.22,0,0,0-1.2.54c-2.58,4.86-4.62,8.58-6.06,11.22h3.24c1.38-1.92,2.22-2.94,2.52-2.94a6.77,6.77,0,0,1,2.64,1.32c1.44,1,2.16,1.68,2.16,2s-.36.72-1.08,1.08a2.07,2.07,0,0,0-1.26,1,37.77,37.77,0,0,1-4.5,11.22,17.18,17.18,0,0,0,7.5,3.66q4.41,1.62,16.92,1.62c9.06-.24,15.3-.78,18.72-1.5,0,.6,0,1,.12,1.08a5.49,5.49,0,0,0-1.68,1,3.4,3.4,0,0,0-1.08,2.1,1.73,1.73,0,0,1-2,1.92c-8.64,0-13.8-.18-15.36-.42-8.4,0-14.46-1.08-18.12-3.18a18.35,18.35,0,0,1-5.82-5.16,22.74,22.74,0,0,1-2,2.58,25,25,0,0,1-8.82,6.9.8.8,0,0,1-.42-.48,36.61,36.61,0,0,0,7.62-9.66,36.07,36.07,0,0,0,4.26-12.78h-4.32c-.48.84-.84,1.5-1.14,2s-.9.9-2,.9c-1.86-.12-2.76-.54-2.76-1.38q4.86-8.46,8.46-16H303.3c-.6.06-1.32.18-2.16.3-.36-.78-.66-1.5-1-2.16a14.48,14.48,0,0,0,2.82.3h6.72q2.7-2.7,3.06-2.7C313.38,13.08,314.28,13.68,315.36,14.82ZM310.74,2.94c2.64,1.68,4,3.6,4,5.88a3.65,3.65,0,0,1-1.2,2.94,2.9,2.9,0,0,1-2,.6c-1.32,0-2.16-1.14-2.64-3.54A20.65,20.65,0,0,0,307.2,4.2a13.14,13.14,0,0,0-1.92-2.46c.12-.18.36-.42.6-.72A15.21,15.21,0,0,1,310.74,2.94Zm18.54,1.38H341.7c1.62-1.8,2.64-2.76,3.06-2.76s1.26.54,2.58,1.62,2.1,1.8,2.1,2.28c0,.24-.24.54-.66.78a10,10,0,0,0-1.56,1.44V19.74c1.32-1.08,2.1-1.68,2.46-1.68a11.41,11.41,0,0,1,2.4,1.32c1.5,1.08,2.28,1.86,2.34,2.28a1.37,1.37,0,0,1-.78,1.14,5.47,5.47,0,0,0-1.38,1V40.74c-.12,3.18-2.28,5.1-6.6,5.82-.6-.12-.9-.42-.9-1a5,5,0,0,0-1.14-2.46,8.81,8.81,0,0,0-2.76-1.56c0-.3.06-.6.06-.84a29.69,29.69,0,0,0,4.62.42c1.26,0,1.92-.3,1.92-1V21.9H325V44.22c-.24,1.14-1.26,1.68-3.06,1.68-1.14,0-1.8-.18-2-.54,0-4.2.06-8.28.24-12.3V25a44.77,44.77,0,0,0-.42-6.12l3.72,1.44h1.08V7.14A18.88,18.88,0,0,0,324,2.46Zm3.24,22.92H338c1.5-1.68,2.46-2.58,2.88-2.58a6.4,6.4,0,0,1,2.34,1.26q2.16,1.62,2.16,2.16t-.72.9c-.72.6-1.14,1-1.26,1.14V34.5a17.65,17.65,0,0,0,.3,3q0,1.62-3.42,1.62c-1,0-1.38-.36-1.38-1.08v-1h-5.94v1.86c-.24,1.08-1.14,1.56-2.76,1.56-1.08,0-1.68-.18-1.92-.54,0-2.28.06-4.5.24-6.66V28.86a13.23,13.23,0,0,0-.42-3.3Zm1-7V13.8a15.89,15.89,0,0,0-.54-4.32l4.8,1.68h4.62V5.82h-12.9V20.28Zm5.4,8.46h-5.94v6.72h5.94Zm3.48-8.46v-7.5H338v7.5Z"/><path d="M401.16,15.84q0,.81-3.78,1.26a43,43,0,0,1-4.92,7.14V48.66c.12,1.32.18,3.06.18,5.28,0,.84-1,1.32-3,1.44-1.56,0-2.4-.18-2.4-.54.06-1,.12-3.12.12-6.48V29.64a43.59,43.59,0,0,1-6.9,5.1,4,4,0,0,0-.6-.66c7.2-7.44,11.52-14.64,13-21.72C398.4,14,401.16,15.12,401.16,15.84ZM398,3.54c0,.72-1,1.14-2.82,1.32A32.76,32.76,0,0,1,381.9,17.22a5.36,5.36,0,0,0-1-.54,33,33,0,0,0,10-15.9C395.64,2.28,398,3.18,398,3.54Zm32,20.94c2.1,1.8,3.18,3,3.18,3.48s-.24.84-.66.84h-7.68v5.7h1.56a16.8,16.8,0,0,1,3.36-3.36c.12,0,.24.06.42.06.36.24.78.48,1.2.78,2.1,1.8,3.18,3,3.18,3.48s-.24.84-.6.84h-9.12V48.72c0,3.6-2.34,5.64-7,6.24-.42,0-.72-.54-1-1.56a3.76,3.76,0,0,0-2.7-2.64,14,14,0,0,0-3.48-1.32,2.19,2.19,0,0,1,.12-.84c1.56.12,4,.3,7.08.48,1.14,0,1.74-.42,1.74-1.32V36.3H405.9c-5.16,0-8.34.24-9.6.72a29.38,29.38,0,0,0-1.44-3.12,64.23,64.23,0,0,0,10.86.6h14V28.8H406.14q-7.29,0-9,.72a29.38,29.38,0,0,0-1.44-3.12,55.11,55.11,0,0,0,10.08.6H425.1a17,17,0,0,1,3.3-3.36c.12,0,.3.06.42.06C429.18,23.94,429.6,24.18,430.08,24.48ZM407,3.66H421q2.7-2.88,3.42-2.88A10.94,10.94,0,0,1,427,2.22q2.52,1.89,2.52,2.52c0,.36-.36.72-1,1.08A19.21,19.21,0,0,0,427,7.14V16c.06,3.12.18,5.16.3,6.18,0,1.32-1.32,1.92-4,1.92-1.08,0-1.62-.42-1.62-1.32v-1H407.16v1q-.36,1.8-3.24,1.8c-1.2,0-2-.18-2.22-.6,0-3.54.06-7,.24-10.5V6.72a33.75,33.75,0,0,0-.42-5.22ZM407,39.3c2.28,1.5,3.48,3.24,3.48,5.28a3.63,3.63,0,0,1-1.14,2.94,3.23,3.23,0,0,1-2,.54c-1,0-1.68-1-2-3.12a19.41,19.41,0,0,0-1.32-4.2,24.12,24.12,0,0,0-1.86-2.46,4.38,4.38,0,0,1,.54-.66A13,13,0,0,1,407,39.3Zm14.7-34.14H407.16v6.9h14.52Zm0,8.46H407.16v6.6h14.52Z"/><path d="M451.38,8.28a32.33,32.33,0,0,1-10.62,10.2,4.53,4.53,0,0,0-1-.6A39.43,39.43,0,0,0,449,0c5.1,1.68,7.68,2.7,7.68,3.06,0,.72-1,1.2-3,1.44-.42.78-.84,1.5-1.2,2.1h8a17,17,0,0,1,3-3.48c.12,0,.24-.06.36-.06A8.83,8.83,0,0,1,466,4.62a11.64,11.64,0,0,1,2.28,2.7c0,.6-.18.9-.42,1h-11c3.18,1,4.8,2.64,4.8,4.92q0,2.52-2.7,2.7c-1,0-1.68-.6-1.92-1.86a5.25,5.25,0,0,1-.36-1.86,15.94,15.94,0,0,0-.54-1.92,5,5,0,0,0-1.5-2Zm29,8.88c1-.84,1.68-1.5,2.28-2a.89.89,0,0,1-.54.12c-1.08,0-1.68-.6-1.92-1.86a4.77,4.77,0,0,1-.36-1.74,13.57,13.57,0,0,0-.48-1.8,5.82,5.82,0,0,0-1.08-1.56h-4.08c-.6.72-1.2,1.44-1.8,2.1a25.44,25.44,0,0,1-6.3,5.28,6.55,6.55,0,0,0-.54-.66c3.78-5,6.06-10,6.9-14.76,5,1.56,7.62,2.64,7.62,3.24s-1.2.9-3.48,1.2a14.94,14.94,0,0,1-1.2,1.92h10.44a19.92,19.92,0,0,1,3.24-3.84.51.51,0,0,1,.36-.12,11.3,11.3,0,0,1,2.4,1.74,14.2,14.2,0,0,1,2.52,2.94c0,.6-.18.9-.42,1H481c2.52,1,3.78,2.46,3.78,4.26a2.39,2.39,0,0,1-.84,2.1,10.65,10.65,0,0,1,2.46,1.44q2.52,1.89,2.52,2.52c0,.36-.3.72-.78,1.08a12.7,12.7,0,0,0-1.44,1.32v9.3c.06,3.24.18,5.34.3,6.42,0,1.32-1.32,1.92-4,1.92-1.08,0-1.62-.42-1.62-1.32V37h-2.16v5.16h6.12a18.35,18.35,0,0,1,3.6-3.78c.12,0,.3.06.48.06a13,13,0,0,1,1.32.9c2.34,2,3.54,3.24,3.54,3.78s-.24.84-.66.84h-14.4v.6c.12,2.58.24,5.64.24,9.24q0,1.26-3.42,1.44c-1.8,0-2.76-.3-2.76-.9.12-1.92.24-5.22.24-10.08v-.3H461.34A17.79,17.79,0,0,1,456.78,50c-3.66,3-8.52,4.8-14.52,5.4a11,11,0,0,0-.36-1.14A29.32,29.32,0,0,0,451,49.86a15.68,15.68,0,0,0,4.74-5.94h-.54c-7,0-11.4.24-13.08.72a29.38,29.38,0,0,0-1.44-3.12,128.27,128.27,0,0,0,15.3.6h.48a24,24,0,0,0,1-3.84,10.78,10.78,0,0,0,.12-1.32h-3.3v.6c-.3,1.32-1.5,1.92-3.54,1.92-1.32,0-2.1-.18-2.34-.66,0-3.72.06-7.44.24-11V20.52a26.64,26.64,0,0,0-.48-5.46l5.58,2.1Zm1.08,1.5H454.26V23h27.18ZM454.26,29h27.18V24.6H454.26Zm27.18,1.56H454.26v4.8h27.18Zm-18.36,7.92a27,27,0,0,1-1,3.66h11.46V37H463.32A14.09,14.09,0,0,0,463.08,38.46Z"/><path d="M549.36,45.54c2.94,2.52,4.44,4,4.44,4.74,0,.54-.24.84-.66.84H515.4c-6.9,0-11.22.24-12.9.72a20.57,20.57,0,0,0-1.38-3.12,109.18,109.18,0,0,0,14.16.6h27.24a23.78,23.78,0,0,1,4.56-4.92c.18,0,.36.06.54.06A19.86,19.86,0,0,1,549.36,45.54Zm-25.86-42c0,.48-.36.84-1,1-1.08.48-1.68.84-1.68,1.14v8.7h1.8a16.23,16.23,0,0,1,2.76-3.12,2.6,2.6,0,0,1,.3-.06,8,8,0,0,1,2,1.44,12.23,12.23,0,0,1,2.1,2.4c0,.6-.18,1-.42,1h-8.58V27c2.82-.36,5.64-.84,8.52-1.38a6.45,6.45,0,0,0,.42.9A117.54,117.54,0,0,1,507.06,34a6.37,6.37,0,0,0-.6,2.52q-.09.9-.72.9c-.6,0-1.56-1.44-2.88-4.44a31.81,31.81,0,0,0-1.56-3.78q2.34-.09,4.68-.36V15.54a42.9,42.9,0,0,0-.3-5.46c4.8.72,7.26,1.32,7.26,1.86s-.3.72-.84.84c-1,.42-1.56.78-1.56,1.08V28.38c1.8-.18,3.6-.42,5.4-.66V7.5a51,51,0,0,0-.3-5.94C520.86,2.28,523.5,2.94,523.5,3.54ZM541,35c2.7,2.28,4.08,3.78,4.08,4.44s-.24.78-.6.78H520.8q-6.48,0-8.1.72a27.65,27.65,0,0,0-1.38-3.12,35.07,35.07,0,0,0,8,.6h15.36c1.92-2.46,3.3-4,4.2-4.5.12,0,.3.06.54.06A13.76,13.76,0,0,1,541,35Zm-1.2-31c0,.66-1.08,1.32-3.18,2V16.32A43.61,43.61,0,0,0,546.9,7.8c3.72,2.76,5.64,4.32,5.64,4.68s-.3.72-.78.72a20.56,20.56,0,0,0-2.64-.3,52.92,52.92,0,0,1-12.48,5v7.74c0,1.68,1,2.52,2.88,2.58h4.26A4.31,4.31,0,0,0,548,26a28.69,28.69,0,0,0,2-6.6c.6.06,1,.06,1,.06V26c0,.6.48,1,1.32,1.26,1,.48,1.44,1,1.44,1.56-.12,1.74-1.8,2.88-4.92,3.42a28,28,0,0,1-5.46.48,40.47,40.47,0,0,1-7.08-.36c-3.24-.12-4.8-2.7-4.8-7.62V7.8a32.07,32.07,0,0,0-.42-6.12C536.88,2.7,539.82,3.48,539.82,4Z"/><path d="M580.86,3.54c0,.6-1.08,1-3.12,1.32a85.75,85.75,0,0,1-5,11.22c2.16.6,3.3,1.08,3.3,1.44s-.42.6-1.26.84-1.14.6-1.14.84V38.7c.12,5.34.24,10.32.24,15-.18,1-1.38,1.5-3.66,1.62-1.5,0-2.22-.36-2.22-1.08.12-5,.24-10.2.24-15.42V23.1a37.07,37.07,0,0,1-7.74,7.62,1.86,1.86,0,0,1-.36-.72Q568.74,19,572.16.48C577.92,1.68,580.86,2.7,580.86,3.54Zm30.24,14.4c2.7,2.28,4.08,3.78,4.08,4.44s-.24.78-.6.78h-15.9v17c.06,6.78.12,11.52.24,14.34,0,1-1.38,1.56-4,1.56-1.38,0-2-.42-2-1.2.12-2.4.18-7.32.24-14.94V23.16h-5q-7.2,0-9,.72c-.42-1-.9-2-1.44-3.12a47.51,47.51,0,0,0,9.3.6h6.18V6.54q-.18-2.88-.54-5.76c2,.3,4.14.6,6.42,1,1.62.3,2.46.72,2.46,1.26s-.36.66-1.08.78c-1.14.42-1.68.72-1.68,1V21.36h6.06c1.92-2.46,3.3-4,4.2-4.5.12,0,.3.06.54.06A13.76,13.76,0,0,1,611.1,17.94Z"/><path d="M671.4,4.86a12.28,12.28,0,0,1,2.52,2.88c0,.6-.18,1-.42,1H629.7l.12,5.58c0,10.68-.36,17.88-1,21.72A57.84,57.84,0,0,1,627,44.58c-1.56,4.74-3.48,8-5.82,10.08a.78.78,0,0,1-.78-.66q4-9.45,4-34.74V9.9a25.89,25.89,0,0,0-.42-4.8l4.92,2h19.26a10.84,10.84,0,0,1-1.92-1.86A18.76,18.76,0,0,0,640.68.84a1.14,1.14,0,0,0,.42-.66c7.26.48,11,1.92,11.28,4.2a7.52,7.52,0,0,1-.24,1.92,3,3,0,0,1-.42.78H665.4a19.92,19.92,0,0,1,3.24-3.84.51.51,0,0,1,.36-.12A11.3,11.3,0,0,1,671.4,4.86Zm-19,28.44c1,.72,1.5,1.14,1.5,1.38s-.3.48-.78.48c-1,.12-1.68.18-2,.24a29.65,29.65,0,0,1-4.68,2.94,14.62,14.62,0,0,1-2.64,1.14c1.2.12,2.58.18,4.08.18a44.35,44.35,0,0,0,7.2-.48,70.75,70.75,0,0,0,5.58-4.56c4.14,2.46,6.24,3.9,6.24,4.38s-.3.6-.84.6h-2.76a68.54,68.54,0,0,1-18,7.8H666a23,23,0,0,0-3.9-4.8l.72-.54c6.9,3.24,10.38,6.12,10.5,8.64q0,2.52-1.44,3.24a2.91,2.91,0,0,1-1.62.42c-1,0-1.74-1.08-2.34-3.12-.36-.9-.78-1.74-1.14-2.46A195.69,195.69,0,0,1,634,52q-.54,2.79-1.44,2.88-.72,0-1.44-3.24c-.54-2-1-3.6-1.2-4.92a81.26,81.26,0,0,0,10.2.6A73.3,73.3,0,0,0,652.38,41a66.69,66.69,0,0,1-14.46,2.4c-.24.84-.48,1.2-.84,1.2-.18,0-.42-.48-.72-1.56a40.44,40.44,0,0,1-.84-4.32,29.7,29.7,0,0,0,5.4.66,22,22,0,0,0,7.2-8.52C649,31.38,650.4,32.22,652.38,33.3Zm-2.76-20.76c1.2,1.08,2.1,1.92,2.64,2.52H659v-2.4a16.75,16.75,0,0,0-.3-3.3c4.32.48,6.54,1.08,6.54,1.74q0,.45-.54.54c-.78.36-1.2.6-1.26.84v2.58h3.24a16.23,16.23,0,0,1,2.76-3.12.46.46,0,0,1,.3-.12,9,9,0,0,1,2,1.5,12.23,12.23,0,0,1,2.1,2.4c0,.6-.18,1-.42,1h-10v9.6c.06.84.12,3,.12,6.42-.12.6-1.14.9-3.18.9-1,0-1.5-.18-1.5-.54,0-1.92.06-4.2.12-6.9V21.84a9.26,9.26,0,0,1-1.74.42c-.84,4.92-2.52,8.28-5.16,10.14-.12,0-.24-.18-.48-.54,1.2-3.12,1.92-7.38,2.22-12.78,2.52.72,4.26,1.32,5.16,1.68v-4H642.72V26.82c.12.84.18,3,.18,6.42q-.18.9-3.24.9c-1,0-1.5-.18-1.5-.54,0-1.92.06-4.2.12-6.9V22.26a9,9,0,0,1-1.44.24C635.94,28.14,634,32,631,34.08c-.06,0-.18-.18-.42-.54,1.56-3.48,2.52-8.16,2.88-14.16,2.34.66,4,1.14,4.86,1.5V16.74H637a27.37,27.37,0,0,0-5.76.48c-.24-.72-.48-1.5-.84-2.4a40.91,40.91,0,0,0,6.6.36h1.26V12.72a16.75,16.75,0,0,0-.3-3.3c4.38.48,6.6,1.08,6.6,1.74q0,.45-.54.54c-.84.36-1.26.6-1.32.84v2.64h2.88c.84-1,1.62-2,2.4-2.82a1.34,1.34,0,0,1,.6-.42A2.75,2.75,0,0,1,649.62,12.54ZM651.06,21c0,.36-.3.66-.78.78-.78.42-1.14.66-1.14.78V29c0,.72-.84,1.14-2.4,1.2-1,0-1.38-.18-1.38-.66.06-2.22.12-4.74.12-7.56a19.75,19.75,0,0,1-.24-2.52C648.72,19.92,650.64,20.4,651.06,21Zm19.5-.06c0,.06-.12.18-.24.36a2.32,2.32,0,0,0-1.08.6v5.82c.18.42.66.6,1.38.6a3.1,3.1,0,0,0,1.2-.42,2.81,2.81,0,0,1,1.14-.66,2.13,2.13,0,0,1,.42.06,3.73,3.73,0,0,1,1.14,1.62,2.32,2.32,0,0,1,.24,1c0,1.2-1.74,1.8-5.16,1.8-2.52,0-3.9-.84-4.14-2.58v-6.9c-.12-1.2-.18-2.16-.3-2.76Q670.56,20.4,670.56,20.94Z"/></g></g></svg>