<svg xmlns="http://www.w3.org/2000/svg" viewBox="0 0 649.86 55.56"><g id="图层_2" data-name="图层 2"><g id="图层_1-2" data-name="图层 1"><path d="M38.52,4.32c0,.54-1.2.9-3.6,1.14a21.92,21.92,0,0,1-6.3,6.42h11c1.56-1.68,2.64-2.58,3.24-2.64A10,10,0,0,1,46.08,11c1.44,1.08,2.16,1.92,2.16,2.4s-.36.72-1,1.08a6.44,6.44,0,0,0-1.74,1.38v7.26c.18,2.82.3,4.62.3,5.46,0,1.32-1.08,2-3.12,2-1.56,0-2.4-.36-2.46-1.08V28.38H5.7V29q-.36,1.8-3.24,1.8c-1.2,0-2-.18-2.22-.6,0-3.24.06-6.36.24-9.48V14.52A19.28,19.28,0,0,0,0,9.84l5.28,2H27.06A32.58,32.58,0,0,0,30.42.72Q38.52,3.15,38.52,4.32Zm-4.68,28.5c1.68-2,2.82-3.06,3.48-3.12a11.52,11.52,0,0,1,3.42,1.92c1.56,1.2,2.34,2,2.34,2.58s-.36.78-1,1.14a7.07,7.07,0,0,0-1.74,1.5v9c.18,3.54.3,5.76.3,6.84,0,1.38-1.14,2.1-3.3,2.16-1.68,0-2.58-.42-2.64-1.2V51.48h-23v1.74c-.3,1.32-1.44,2-3.48,2-1.32,0-2.16-.24-2.4-.66,0-3.84.06-7.5.24-11.16V36.12a37.24,37.24,0,0,0-.42-5.58l5.88,2.28Zm-13.5-6V13.38H5.7V26.82ZM14.46,3.18c2.46,1.44,3.72,3.12,3.72,5A3.46,3.46,0,0,1,17,11.16a2.9,2.9,0,0,1-2,.6c-1.2,0-2-1-2.4-3.06a13.81,13.81,0,0,0-1.62-4A10.61,10.61,0,0,0,9.18,2.22c.12-.18.36-.42.6-.72A14.17,14.17,0,0,1,14.46,3.18Zm-1,14c2,1.32,3.06,2.94,3.06,4.74a3.49,3.49,0,0,1-1.08,2.76,2.75,2.75,0,0,1-1.86.54c-.84,0-1.32-1-1.56-2.88a21.84,21.84,0,0,0-1.08-3.78,16.49,16.49,0,0,0-1.74-2.28,4.38,4.38,0,0,1,.54-.66A10.09,10.09,0,0,1,13.44,17.22Zm21.3,17.16h-23v6.54h23Zm-23,15.54h23V42.54h-23Zm14-23.1H40.26V13.38H25.74ZM38.4,17.94c0,.42-1,.72-2.82.84a20.54,20.54,0,0,1-5.94,6.72,3.56,3.56,0,0,1-.66-.06A31.13,31.13,0,0,0,32,15.12C36.24,16.38,38.4,17.34,38.4,17.94Z"/><path d="M72.66,4.26c0,.54-.36.84-1,1q-1.8.72-1.8,1.26V41a99,99,0,0,0,16.62-8,5,5,0,0,0,.66,1A78.61,78.61,0,0,1,65,49a15,15,0,0,0-.36,3.24c0,.36-.3.6-.78.6s-2.64-2.7-6.12-8c2.34-.6,4.62-1.2,6.78-1.92V8.46A60.59,60.59,0,0,0,64.2,2C69.84,2.88,72.66,3.6,72.66,4.26ZM93.12,43.8a33,33,0,0,1-20,11.28,3.34,3.34,0,0,0-.48-.84c7.68-4,13.14-8.28,16.5-13q6.3-7.38,6.3-30.3L95.28,5C95.1,4,94.92,3,94.8,2.16c5.52.54,8.52,1.26,9,2.1,0,.72-1,1.32-2.76,1.74l-.3,6c-.3,9-1,15.6-2,19.68a38.49,38.49,0,0,1-1.2,4.56c8.52,4.8,12.78,9.12,12.84,13,0,1.8-.54,2.94-1.5,3.48a3.06,3.06,0,0,1-1.8.48c-1.26,0-2.34-1.5-3.18-4.44A36.84,36.84,0,0,0,97,37.44,23.17,23.17,0,0,1,93.12,43.8ZM88.68,19.26c0,1.92-.6,3.18-1.68,3.78a2.94,2.94,0,0,1-1.92.48q-1.44,0-2.52-4a30.72,30.72,0,0,0-6.24-11,4.75,4.75,0,0,1,.84-.6C84.72,12.12,88.56,15.9,88.68,19.26Z"/><path d="M156.48,11a6.74,6.74,0,0,1,2.1,2c0,.48-.72.84-2,1.08l-2.94,8.64h2.58c1.68-1.92,2.76-2.94,3.24-2.94a8,8,0,0,1,2.64,1.68c1.5,1.32,2.28,2.22,2.28,2.7s-.9,1.2-2.7,1.68l-1.44,6.66h1.86c1.44-2,2.4-3.06,2.94-3.06A9.07,9.07,0,0,1,167.76,31c1.44,1.14,2.16,1.92,2.16,2.28s-.6,1.08-1.68,1.8a1.83,1.83,0,0,0-.66,1.56,80.31,80.31,0,0,1-2,13.68c-1,3.12-3.66,4.68-8,4.68-.6,0-1-.54-1.08-1.5a3.85,3.85,0,0,0-1.38-1.8A8.81,8.81,0,0,0,150.48,50c0-.18.06-.54.06-1.08,1.92.12,3.6.24,4.92.24,3.6,0,5.58-1,5.82-2.88.9-2.64,1.38-6.66,1.5-12.06H130a57.47,57.47,0,0,1-14,12.66,1.42,1.42,0,0,1-.54-.72,80.16,80.16,0,0,0,19.8-31.92H124.86c-2.52,0-4.68.12-6.48.24-.06-.24-.36-1-.84-2.28a55.81,55.81,0,0,0,7.68.48h10.44A90.35,90.35,0,0,0,138.42.36c5.7,1.56,8.58,2.76,8.58,3.48-.36.72-1.56,1.2-3.66,1.44-.6,2.58-1.26,5-2,7.44H151c1.68-1.92,2.88-2.94,3.48-3.06A20,20,0,0,1,156.48,11ZM128.64,40a48.54,48.54,0,0,1,.18,4.92c-.06,5.64-2,8.46-5.7,8.58-1.92,0-2.88-.66-3-1.86A4.4,4.4,0,0,1,122,48.36a10.19,10.19,0,0,0,3.54-3.42,12.83,12.83,0,0,0,2.1-5Zm-.72-37.5c2.52,1.62,3.84,3.48,3.84,5.64a3.56,3.56,0,0,1-1.2,2.94,2.7,2.7,0,0,1-2,.6c-1.26,0-2.1-1.08-2.46-3.36a19.33,19.33,0,0,0-1.68-4.5,15.6,15.6,0,0,0-1.86-2.46q.18-.27.54-.72A17.05,17.05,0,0,1,127.92,2.46Zm3.42,30.06h23.82l1.68-8h-20.4A63.25,63.25,0,0,1,131.34,32.52Zm4.5,6.66c2.22,2.76,3.36,5.16,3.36,7.26-.18,3.36-1.14,5.1-2.94,5.1s-2.58-.66-2.58-1.92a14.59,14.59,0,0,1,.66-3.3,19.3,19.3,0,0,0,.78-5V39.54Q135.75,39.36,135.84,39.18Zm1.5-16.44h10.5l3.48-8.46h-10.5A67.37,67.37,0,0,1,137.34,22.74ZM149,45.24c0,2.22-.9,3.36-2.58,3.36-1.86,0-2.82-.78-2.82-2.4.06-.42.18-1.38.36-2.82.06-.9.12-1.74.12-2.58a8.38,8.38,0,0,0-.72-3.6.49.49,0,0,0,.48-.3C147.12,39.42,148.86,42.24,149,45.24Zm9.36-3.3a4.47,4.47,0,0,1-.72,2.94,2.38,2.38,0,0,1-2.16,1c-.84,0-1.38-.84-1.62-2.58A17,17,0,0,0,150.6,36l.78-.54C155.94,37.86,158.28,40,158.34,41.94Z"/><path d="M227.16,2.16c1.32,1,2,1.74,2,2.22a1.28,1.28,0,0,1-.72,1,5.22,5.22,0,0,0-1.32,1.26V8.58a10.22,10.22,0,0,1,.3,1.5q0,1.62-2.16,1.8a1.26,1.26,0,0,0,.24.36,8.19,8.19,0,0,1,1.32,2.34.43.43,0,0,1-.42.48h-7.92a23.86,23.86,0,0,0-4.74.48,13.42,13.42,0,0,1-.9-2.22,31.83,31.83,0,0,0,3.24.36h5.52c.6-.84,1.08-1.5,1.44-1.92-.48-.18-.78-.48-.78-.84v-.06H185.46l.06,8.82a110,110,0,0,1-1,16.62A37.39,37.39,0,0,1,182,45.72c-1.8,4.38-3.54,7.32-5.34,8.76a1,1,0,0,1-.84-.54,60.71,60.71,0,0,0,3.42-13c.72-4.2,1.14-11.22,1.2-21.06,0-7.5-.06-12.12-.06-13.92,0-1.5-.12-3.24-.24-5.22l5,2.22h36c1.44-1.56,2.46-2.4,3-2.46A9.23,9.23,0,0,1,227.16,2.16ZM185.46,9.3H222.3V4.5H185.46Zm9.72,35.82c-.24,1-1.2,1.5-2.82,1.5-1.08,0-1.68-.12-1.86-.48,0-1.5.06-3,.18-4.44V38.76c0-.3-.06-.54-.06-.78A39.43,39.43,0,0,1,187,39.54a4.62,4.62,0,0,1-.54-.78c4.5-2.7,7.68-5.52,9.48-8.4.06-.12.12-.18.18-.3h-2.52v.3C193.32,31.5,192.3,32,190.5,32c-1.14,0-1.8-.18-2-.54a47.61,47.61,0,0,1,.24-5.1V23a7.54,7.54,0,0,0-.42-2.52l4.74,1.8H220.8c1.32-1.38,2.28-2.1,2.76-2.16a9.08,9.08,0,0,1,2.76,1.56c1.2,1,1.86,1.62,1.86,2s-.3.66-.78,1a10.44,10.44,0,0,0-1.5,1.14v2.22a12.3,12.3,0,0,1,.3,1.62,1.51,1.51,0,0,1-.12.6,7.4,7.4,0,0,1,2.34,1.38c1.62,1.2,2.46,2,2.46,2.52s-.3.66-.84.9c-.72.48-1.32.84-1.74,1.08-.3,7-1.08,11.52-2.4,13.8a8.56,8.56,0,0,1-6.48,4.86,1.08,1.08,0,0,1-1.2-.9,4,4,0,0,0-2.16-2.34,17.84,17.84,0,0,0-3-1.26,3.45,3.45,0,0,1,.12-.6,10.71,10.71,0,0,1,1.38.12c-.24-.36-.48-.72-.72-1.14-6.18,2-13.8,3.3-22.92,3.72-.3,1.56-.72,2.4-1.26,2.46-.36,0-.78-1-1.2-2.76s-.78-3.06-1-4.14a47,47,0,0,0,8.28.54c2.1,0,4-.06,5.82-.12v-3.9h-6.36Zm6.42-28.26A8.2,8.2,0,0,1,202.8,19c0,.36-.18.54-.42.54h-8.82a23.86,23.86,0,0,0-4.74.48,17.82,17.82,0,0,1-.9-2.28,31.83,31.83,0,0,0,3.24.36h6.78c1.14-1.68,1.92-2.58,2.34-2.58C200.52,15.54,201,16,201.6,16.86Zm-.36-4.38a8.56,8.56,0,0,1,1.32,2.16.43.43,0,0,1-.42.48h-8.46a23.86,23.86,0,0,0-4.74.48,19.29,19.29,0,0,1-1-2.22c.66.12,1.74.24,3.3.36h6.06c1.2-1.68,2-2.58,2.52-2.58C200.1,11.16,200.58,11.64,201.24,12.48Zm-9.12,24.78L194,38h7.56v-3.6h-4.62A35.06,35.06,0,0,1,192.12,37.26Zm7.26-13.44h-5.82v4.62h5.82Zm-4.2,19.08h6.36V39.54h-6.36ZM223.5,31.44c-1.32,0-2-.3-2.1-1v-.42H201.54a4.59,4.59,0,0,1-1,1.14,14.2,14.2,0,0,1-1.68,1.62h24a17.84,17.84,0,0,1,1.26-1.44A2.46,2.46,0,0,1,223.5,31.44Zm-13.14-7.62h-6v4.62h6Zm2-10.5c0,.36-.36.66-1,.9-1.08.48-1.56.78-1.56,1l.18,5q-.18,1.44-2.88,1.44-2.16,0-2.16-1.08c.06-1.92.12-3.66.12-5.22-.12-1.8-.18-3.12-.24-4.08C209.82,12.12,212.34,12.84,212.34,13.32Zm-1.2,32.58a2.52,2.52,0,0,0,.12-.3h1.44c3.12.36,4.68,1.44,4.68,3.36a2.12,2.12,0,0,1-.24,1,17,17,0,0,0,1.74.12q3.06,0,3.42-2a65,65,0,0,0,1.32-13.74H206.46V38h6.12c1.32-1.56,2.28-2.34,2.76-2.4a9.08,9.08,0,0,1,2.76,1.56c1.26,1,1.92,1.62,1.92,2s-.3.66-.84.9a7.59,7.59,0,0,0-1.44,1.2v1.38c.12.6.24,1,.24,1.08,0,1.14-.9,1.68-2.64,1.68-1.38,0-2.1-.3-2.1-.9h-6.78v3.72c2.88-.12,5.1-.24,6.72-.48A11.92,11.92,0,0,0,211.14,45.9Zm-4.68-3h6.78V39.54h-6.78Zm19.74-26a9.29,9.29,0,0,1,1.32,2.28c0,.36-.18.54-.42.54h-8.76a23.86,23.86,0,0,0-4.74.48,17.82,17.82,0,0,1-.9-2.28,31.83,31.83,0,0,0,3.24.36h6.36c1.2-1.86,2-2.82,2.52-2.82C225.06,15.48,225.54,16,226.2,16.92Zm-4.8,6.9h-6.12v4.62h6.12Z"/><path d="M261.48,8.88C264,11,265.26,12.36,265.26,13s-.24.84-.6.84H248.4c-.06,1.68-.12,3.72-.12,6.24,0,1.38-.06,2.7-.06,3.9h6.72c1.44-1.8,2.4-2.76,2.94-2.76a9.07,9.07,0,0,1,2.76,1.56c1.44,1.14,2.16,1.92,2.16,2.28s-.6,1.08-1.68,1.8a1.83,1.83,0,0,0-.66,1.56,129.83,129.83,0,0,1-2,18.84c-1,4.2-3.48,6.36-7.68,6.36-.48,0-.84-.54-1-1.5a4,4,0,0,0-1.2-1.74,7.31,7.31,0,0,0-4-1.74c0-.12.06-.42.06-1,1.56.12,2.88.18,4,.24q5.22,0,5.58-4.32,1.26-5.85,1.44-17.82h-7.5c-.84,15.48-4.8,25.08-11.94,28.92a4.76,4.76,0,0,0-.3-.9q7-8.64,7-32.76c0-1.44.06-3.84.06-7.14a19,19,0,0,0-5.58.72A29.38,29.38,0,0,0,236,11.4a25.05,25.05,0,0,0,6.72.6h12.9c1.8-2.28,3.06-3.66,3.9-4.14.12,0,.3.06.48.06A15.36,15.36,0,0,1,261.48,8.88Zm-12-6.6c2.76,1.38,4.2,3,4.2,4.86a3.63,3.63,0,0,1-1.14,2.94,3.23,3.23,0,0,1-2,.54c-1.56,0-2.52-1-3-2.88a15.45,15.45,0,0,0-2-3.9,10.61,10.61,0,0,0-1.86-2.46c.12-.18.36-.42.6-.72A17.86,17.86,0,0,1,249.48,2.28ZM279.84,3.9c0,.36-.3.6-.9.84a15,15,0,0,0-2.64.66,6.16,6.16,0,0,0-.24.84,29.21,29.21,0,0,0,5.7,8.82c3.3,3.66,6.24,5.88,8.88,6.66a2.38,2.38,0,0,1-.12.9,4.08,4.08,0,0,0-2,1.8,12.65,12.65,0,0,1-.6,1.8c-.12.48-.36.72-.6.72-1.68,0-4.5-3.42-8.4-10.38a63.37,63.37,0,0,1-3.48-8.28c-3.12,9.36-7.44,16.2-13,20.64-.18,0-.42-.18-.66-.54,4.8-7.08,7.86-16.2,9.3-27.24C276.9,2.22,279.84,3.18,279.84,3.9Zm3.78,46.2a5.66,5.66,0,0,1-.36,2.22,2.53,2.53,0,0,1-2.64,1.5c-1.32,0-3.06-2-5.34-5.94a29.66,29.66,0,0,0-9.54-8.22c.18,0,.3-.12.42-.48C277.38,41.28,283.2,44.94,283.62,50.1Zm-2.34-19.5a5.1,5.1,0,0,1-.78,3.18,2.44,2.44,0,0,1-1.8.72c-.9,0-1.8-1.08-2.76-3.3a22.92,22.92,0,0,0-6.18-6.9,1.8,1.8,0,0,1,.36-.66C277.32,25.56,281,27.9,281.28,30.6Z"/><path d="M310.38,5.22c1.62.36,2.46.78,2.46,1.26s-.36.72-1.08.84c-1.2.42-1.74.72-1.74.9V18.6h9v-13a19.57,19.57,0,0,1-.36-3.48c4.86.6,7.56,1.26,8.16,2.1,0,.54-.42.9-1.14,1.14q-1.62.81-1.62,1.08V18.6h9.3V6A22.12,22.12,0,0,1,333,2.28c5.16.6,8.1,1.38,8.7,2.28,0,.54-.42,1-1.2,1.2-1.2.6-1.74,1-1.74,1.14V18.6h2.34a36.4,36.4,0,0,1,3.78-4.38,1.47,1.47,0,0,1,.42.06c.48.12,1.62,1.14,3.54,3.18,1,1,1.5,1.68,1.5,2.16s-.36.72-1,.72H338.76V38.82c0,1.14-1.2,1.74-3.54,1.8-1.44,0-2.1-.3-2.1-1,0-1.14.06-2.28.06-3.42h-9.12v3.18c0,1.08-1.14,1.62-3.3,1.74-1.32,0-2-.3-2-1,.12-6.06.18-12.66.24-19.74h-9v18.9c.06,3.9.12,7.08.18,9.6h29.22c1.8-2.52,3-4.08,3.72-4.56a.87.87,0,0,1,.42-.12,11.07,11.07,0,0,1,2.76,2,13.7,13.7,0,0,1,3,3.42c0,.54-.18.84-.42,1H310.26c0,1.2,0,2.22.06,3.06,0,1-1.38,1.56-4.08,1.56-1.32,0-2-.42-2-1.2.12-2.4.18-7.32.18-14.88V20.34c-2.7.06-5.28.18-7.8.36a10.93,10.93,0,0,1-1.32-2.82,55.1,55.1,0,0,0,9.12.72V10.08q-.18-3-.54-5.76Q307,4.68,310.38,5.22Zm22.8,29.4c.06-4.56.12-9.36.18-14.28h-9.3V34.62Z"/><path d="M406.14,46.08c2.94,2.52,4.44,4,4.44,4.74,0,.54-.24.84-.6.84h-39.3c-7.2,0-11.7.24-13.44.72a24.74,24.74,0,0,0-1.44-3.12,135,135,0,0,0,14.94.6h6.84V7.68a52.47,52.47,0,0,0-.36-6.9c6,.9,9.06,1.68,9.06,2.34s-.36,1-1.08,1.08c-1.32.54-2,1-2,1.32V21.9H394.8c1.8-2.58,3-4.08,3.72-4.56a.87.87,0,0,1,.42-.12,11.07,11.07,0,0,1,2.76,2,13.88,13.88,0,0,1,3,3.36c0,.6-.18,1-.42,1H383.22V49.86h16.14c2-2.7,3.54-4.32,4.5-4.92.18,0,.36.06.6.06A7.84,7.84,0,0,1,406.14,46.08Z"/><path d="M466.68,4.86a13.88,13.88,0,0,1,3,3.36c0,.6-.18,1-.42,1H430.32a40.88,40.88,0,0,1-3.9,5,39.37,39.37,0,0,1-9.66,8.46c-.12-.12-.3-.36-.66-.72,6.6-7.5,10.56-14.82,11.94-22,5.88,1.74,8.82,3,8.82,3.72s-1.38,1-4,1.38c-.48.9-1,1.74-1.44,2.46h28.38c1.8-2.58,3-4.14,3.72-4.62a.87.87,0,0,1,.42-.12A10.29,10.29,0,0,1,466.68,4.86ZM432.6,15.78h22.08q2.61-2.79,3.6-2.88a9,9,0,0,1,3.66,2.16c1.5,1.38,2.28,2.28,2.28,2.64s-.54,1-1.5,1.38a4.64,4.64,0,0,0-1.44,1.14c-.24,3.3-.42,6.3-.66,9h.9a18.35,18.35,0,0,1,3.6-3.78c.12,0,.3.06.48.06.36.24.84.54,1.32.9,2.28,2,3.48,3.24,3.48,3.78s-.24.84-.6.84h-9.3c-.48,5.34-1,9.6-1.62,12.84h3.42a17,17,0,0,1,3-3.48,2.12,2.12,0,0,1,.36-.06,10.31,10.31,0,0,1,2.16,1.56,11,11,0,0,1,2.34,2.7c0,.6-.18.9-.42,1H458.52a31.5,31.5,0,0,1-.9,3.48c-1.32,3.84-4.32,6-8.94,6.54-.6,0-1-.54-1.32-1.5a4.82,4.82,0,0,0-2.4-2.94,48.44,48.44,0,0,0-5-1.86,3.89,3.89,0,0,1,.12-1.14,49.34,49.34,0,0,0,8.1.72q4-.18,4-2.7a2.77,2.77,0,0,0,.3-.6H428.1a9.28,9.28,0,0,1-.54,2q-.36,1.08-2.88,1.08c-2.4,0-3.54-.3-3.54-1,1.44-6.36,2.64-11.88,3.6-16.5a36.43,36.43,0,0,0-6.66.6,27.65,27.65,0,0,0-1.38-3.12c1.92.24,4.74.42,8.4.54,1.44-7.44,2.28-12.66,2.52-15.72C429.9,14.46,431.52,15.24,432.6,15.78Zm20.28,28.08A115.08,115.08,0,0,0,454.62,31H430.74c-1,5.88-1.74,10.14-2.28,12.84Zm1.92-14.64q.45-5.13.9-11.7H433q-1.08,6.66-2,11.7Zm-7.74,10c-.06,1.26-.48,2-1.26,2.28a3.3,3.3,0,0,1-1,.18c-.6,0-1.62-.72-2.94-2.22a16.89,16.89,0,0,0-7-5.34,6.16,6.16,0,0,1,.24-.84c.42.06,1.8.06,4.08.06C444.42,33.72,447.06,35.64,447.06,39.24Zm1.56-13.86c-.06,1.32-.48,2-1.26,2.28a3.3,3.3,0,0,1-1,.18c-.6,0-1.62-.72-2.94-2.28a18.12,18.12,0,0,0-7-5.58,2.07,2.07,0,0,1,.18-.78c.42.06,1.8.06,4.14.06C446,19.62,448.62,21.66,448.62,25.38Z"/><path d="M525.42,21.6c2.94,2.46,4.44,4,4.44,4.74s-.24.84-.66.84H491.1c-7,0-11.34.24-13,.66a22.92,22.92,0,0,0-1.38-3.06,128.55,128.55,0,0,0,14.34.54h27.54a23.78,23.78,0,0,1,4.56-4.92c.12,0,.3.06.54.06A12.24,12.24,0,0,1,525.42,21.6Z"/><path d="M553.08,3.9q0,.81-3.78,1.26A98.75,98.75,0,0,1,545.4,16c2.76.72,4.14,1.32,4.14,1.68s-.42.54-1.2.78-1,.6-1,.78V38.76q.18,8.1.18,15.12c-.12.84-1.26,1.38-3.36,1.5-1.38,0-2-.36-2-1q.18-7.65.18-15.48V22.62A49.62,49.62,0,0,1,535.92,32a3.48,3.48,0,0,0-.6-.72c5.22-10.56,8.4-20.82,9.48-30.9C550.32,2,553.08,3.18,553.08,3.9Zm5.1.42h23q2.7-3.24,3.42-3.24a10.94,10.94,0,0,1,2.64,1.44Q589.8,4.41,589.8,5c0,.36-.36.72-1,1.08a19.21,19.21,0,0,0-1.62,1.32V34.62c.06,9.36.18,15.54.3,18.78,0,1.26-1.32,1.92-4,1.92-1.08,0-1.62-.48-1.62-1.32V51.18H558.72v2.16c-.24,1.2-1.38,1.8-3.3,1.8-1.2,0-1.92-.24-2.16-.6,0-8.28.06-16.32.24-24.24V14.4c-.12-6.78-.24-10.8-.48-12.06Zm23.76,45.3V5.82H558.72v43.8Zm-2.34-33.9a9.25,9.25,0,0,1,1.56,2c0,.6-.24,1-.66,1h-7.68v9.54h.42c1.32-1.56,2.28-2.4,2.76-2.46a7.34,7.34,0,0,1,2.76,1.5c1.2,1,1.86,1.68,1.86,2.1s-.24.66-.72.9a6.32,6.32,0,0,0-1.38,1.2v6.78c.18,2.64.3,4.38.3,5.16,0,1.14-.9,1.74-2.7,1.74-1.32,0-2-.3-2.1-1v-2h-7.2v1.38c-.24,1.08-1.14,1.56-2.82,1.56-1,0-1.62-.18-1.86-.54,0-2.88.06-5.76.18-8.58V30.48a19.31,19.31,0,0,0-.36-4.26l5.4,2h.9V18.78c-4.8.12-7.26.3-7.26.48a19.62,19.62,0,0,1-1.14-3.12c.78.3,3.6.54,8.4.78V13.2c0-2.28-.12-4.08-.24-5.46,4.8.72,7.26,1.32,7.26,1.86s-.3.72-.9.84c-1,.42-1.56.78-1.56,1.08V17h2.1c1.44-1.92,2.34-2.88,2.82-2.88C578,14.1,578.64,14.64,579.6,15.72ZM574,40.62V29.82h-7.2v10.8Z"/><path d="M596.76,54.48a1.75,1.75,0,0,0-.78-.66q10-6.39,17.1-19.14c4-6.12,6.18-15.84,6.54-29.16l-.24-2.58a3.34,3.34,0,0,0-.66-1.56c7.26,1,10.92,1.92,10.92,2.82q0,.9-1.8,1.26a3.28,3.28,0,0,0-1.56,1.38L626.22,8c-.12,1.32-.24,2.52-.36,3.66a46.81,46.81,0,0,0,9.84,24.24c4.32,5.7,9,9.54,14.16,11.52a2.77,2.77,0,0,1-.3,1.38c-1.08.12-1.62.24-1.68.48a4.45,4.45,0,0,0-2.22,1.86c-.72,1.56-1.44,2.34-2.1,2.4-1.68,0-4.8-3.3-9.36-9.78Q626.91,33.3,625,17.46C621.66,36.06,612.24,48.36,596.76,54.48Z"/></g></g></svg>