<svg xmlns="http://www.w3.org/2000/svg" viewBox="0 0 615.12 56.7"><g id="图层_2" data-name="图层 2"><g id="图层_1-2" data-name="图层 1"><path d="M22.38,35.7A63.1,63.1,0,0,1,5.82,45.6a6.37,6.37,0,0,0-.6,2.52c-.12.6-.36.84-.78.84-.6,0-1.5-1.44-2.82-4.44A22.72,22.72,0,0,0,0,40.8a76.56,76.56,0,0,0,8.7-1.68V24c-4.8.12-7.2.3-7.2.48A26.67,26.67,0,0,1,.3,21.36c.84.3,3.6.54,8.4.78V8.46H6.84a27.37,27.37,0,0,0-5.76.48C.84,8.28.6,7.5.24,6.54A39.59,39.59,0,0,0,6.84,7h7.74a32.63,32.63,0,0,1,2.76-3.42,1.54,1.54,0,0,1,.72-.42,4.08,4.08,0,0,1,1.14.6c2.28,2,3.54,3.36,3.84,4,0,.48-.18.72-.42.72H14.1V22.2h.54c1.68-2.64,2.82-4,3.36-4q.54,0,2.34,2.16a12.48,12.48,0,0,1,2,2.7q0,.9-.72.9H14.1V37.56c2.58-.78,5.22-1.68,7.86-2.76C22.14,35.16,22.26,35.46,22.38,35.7ZM28.8,5H43.56c1.62-2,2.7-3.12,3.18-3.12A9,9,0,0,1,49.2,3.24Q51.54,5,51.54,5.58c0,.3-.3.66-.78,1a14.85,14.85,0,0,0-1.38,1.2v16c.06,5.46.18,9.12.3,11,0,1.2-1.26,1.8-3.72,1.8q-1.44,0-1.44-1.26V34.8H42.24V47.46c.3,1.44,1,2.16,2.1,2.16H47.7c1.68,0,2.64-1.2,2.88-3.72A63,63,0,0,0,52,38.52a3,3,0,0,0,1,.12v7.5a2.4,2.4,0,0,0,1.14,2.34c1.14.6,1.74,1.32,1.74,2,0,1.32-1.08,2.28-3.18,2.94a21.36,21.36,0,0,1-5.7.78c-2,0-3.42-.06-4-.12-3.72-.3-5.58-2.22-5.58-5.7V34.8h-1.8c-.48,3.66-1,6.18-1.74,7.62C31,49.68,24.48,54.24,14.46,56.16a2.18,2.18,0,0,0-.54-.72c7.68-2.88,12.78-7.5,15.3-14.1a26.71,26.71,0,0,0,1.26-6.54h-1v.9c-.24,1.14-1.26,1.68-3,1.68-1.14,0-1.8-.18-2-.54,0-5.34.06-10.56.18-15.6V11a48.35,48.35,0,0,0-.42-7.74Zm15.72,9.24V6.48H29.46v7.74Zm0,8.94V15.78H29.46v7.38Zm0,10V24.72H29.46v8.46Z"/><path d="M72.3,23.16a69.53,69.53,0,0,0,5-9.6h-.42c-6.84,0-11,.24-12.72.72-.42-1-.9-2-1.44-3.12a107.15,107.15,0,0,0,14,.6h1.38A96.31,96.31,0,0,0,81.9.66c5.88,1.86,8.88,3,8.88,3.48,0,.9-1.2,1.44-3.48,1.62-1,2.16-2,4.14-2.94,6H103.5a23.78,23.78,0,0,1,4.56-4.92c.12,0,.3.06.54.06A12.24,12.24,0,0,1,110.34,8c2.94,2.46,4.44,4,4.44,4.74,0,.54-.24.78-.66.78H83.34A80.21,80.21,0,0,1,76.5,24.12a3.7,3.7,0,0,1,1.2.78c0,.54-.42.9-1.14,1.14q-1.62.81-1.62,1.08V54.18c0,1-1.14,1.56-3.3,1.68-1.32,0-2-.36-2-1,.12-7,.18-14.64.18-23.16A55,55,0,0,1,62,38.1c-.42-.24-.84-.48-1.2-.66a71.57,71.57,0,0,0,9.06-10.5v-.66a26.39,26.39,0,0,1-.3-3.48C70.56,22.92,71.46,23,72.3,23.16ZM99.12,19c0,.54-.36.9-1,1q-1.8.72-1.8,1.26v9.42h4.26c1.14-1.56,2.28-3,3.36-4.2.36-.36.6-.54.84-.54a3.69,3.69,0,0,1,1.38.78c2.76,2.4,4.32,4,4.68,4.74,0,.54-.18.78-.48.78h-14V50.64h7.14c2.28-3.36,3.78-5,4.5-5.1.54,0,1.62.9,3.3,2.64a12,12,0,0,1,2.76,3.3c0,.6-.24.9-.72,1H87.48c-5.82.12-8.76.3-8.76.54a25.34,25.34,0,0,1-1.14-3.12,65.85,65.85,0,0,0,9.24.78H91V32.28H85.68a27.13,27.13,0,0,0-5.7.48c-.24-.72-.48-1.5-.84-2.4a40,40,0,0,0,6.54.36H91v-7.5a44.92,44.92,0,0,0-.36-6.36Q99.12,18.12,99.12,19Z"/><path d="M169,2.76a12.28,12.28,0,0,1,2.52,2.88c0,.6-.18,1-.42,1H137.7V12.6h21.54a16.26,16.26,0,0,1,3.24-3.84.51.51,0,0,1,.36-.12,9,9,0,0,1,2.34,1.74,15.27,15.27,0,0,1,2.58,2.88c0,.6-.18,1-.42,1H137.7V20.7h21.54a16.26,16.26,0,0,1,3.24-3.84.51.51,0,0,1,.36-.12,9,9,0,0,1,2.34,1.74,15.27,15.27,0,0,1,2.58,2.88c0,.6-.18,1-.42,1H137.7v6.78h27.9c1.8-2.28,3.06-3.66,3.9-4.14.12,0,.3.06.48.06a15.36,15.36,0,0,1,1.5,1q3.78,3.24,3.78,4.14c0,.54-.24.78-.6.78h-9.9c4,2.28,5.94,3.66,5.94,4.2s-.36.72-1.08.72-1.56.06-2.28.06a45.52,45.52,0,0,1-9.06,6.42,46.49,46.49,0,0,0,17.46,5.22,6.09,6.09,0,0,0-.12,1.5,5.82,5.82,0,0,0-2.1.72,6.28,6.28,0,0,0-1.92,2.88c-.36,1-.78,1.5-1.26,1.5-3.36-.72-7.56-2.88-12.6-6.36-4.86-3.24-8.82-8.88-11.94-16.86h-8.1V45c3.84-.72,7.68-1.56,11.52-2.58.18.42.36.78.48,1.08a91.68,91.68,0,0,1-20.46,9.18,6.64,6.64,0,0,0-.72,2.94q-.18,1.08-.9,1.08c-.66,0-1.74-1.74-3.3-5.22a36.9,36.9,0,0,0-1.86-4.38c3.12-.24,6.3-.66,9.54-1.14V31a56.81,56.81,0,0,0-9.6.72c-.42-1-.9-2-1.44-3.12a90,90,0,0,0,11,.6V7.68c-.06-1.32-.24-3.24-.48-5.7,2.4,1.14,4.56,2.16,6.54,3H163a19.92,19.92,0,0,1,3.24-3.84.85.85,0,0,1,.36-.12A11.3,11.3,0,0,1,169,2.76ZM156.72,41.52A28.18,28.18,0,0,0,163.38,31h-16C150.78,36.24,153.9,39.72,156.72,41.52Z"/><path d="M195.24,15.24c1.26,1.2,1.92,2,1.92,2.46s-.6.9-1.8,1.38a3.8,3.8,0,0,0-1.2.54c-2.28,4.8-4.08,8.46-5.4,11h2.82c1.5-2,2.4-3.12,2.76-3.12A6.31,6.31,0,0,1,197.16,29c1.56,1.08,2.4,1.86,2.4,2.22s-.42.78-1.2,1.14-1.2.72-1.32,1.08a39.11,39.11,0,0,1-4.32,10.92,21.88,21.88,0,0,0,8.16,3.42,103,103,0,0,0,18.42,1.38c8.16,0,13.5-.24,16.08-.78a6.19,6.19,0,0,0-.06,1.14,3.72,3.72,0,0,0-2.16,1.08,3.11,3.11,0,0,0-1,2.22,2,2,0,0,1-2,1.2c-2.28,0-6.24-.12-11.82-.24-8.82-.3-15.06-1.2-18.78-2.76q-5.58-1.89-7.74-5.22a27.11,27.11,0,0,1-2.22,2.82,25.27,25.27,0,0,1-9,7,1.11,1.11,0,0,1-.42-.54,38.2,38.2,0,0,0,7.5-9.9,37.09,37.09,0,0,0,4.26-13.08H188c-.42.84-.78,1.5-1,2-.24.66-.9,1-2,1-1.86-.12-2.76-.6-2.76-1.38,2.88-5.64,5.46-10.92,7.62-15.9H183.6c-.6.06-1.32.18-2.16.3-.36-.78-.66-1.5-1-2.16a14.48,14.48,0,0,0,2.82.3h6.3q2.7-2.7,3.06-2.7C193.26,13.5,194.16,14.1,195.24,15.24ZM189.18,3.12c2.58,1.74,3.9,3.78,3.9,6.06A3.49,3.49,0,0,1,192,11.94a2.75,2.75,0,0,1-1.86.54q-2.07,0-2.7-3.6a19.88,19.88,0,0,0-1.86-4.74,16.71,16.71,0,0,0-1.74-2.34c.12-.12.3-.36.54-.6A14.09,14.09,0,0,1,189.18,3.12Zm23.16.48c0,.6-1,1-2.94,1.26-.72,2-1.5,3.9-2.22,5.58V11h17.88c1.68-2.64,2.76-4,3.3-4.2.3,0,1.26.9,2.82,2.58A10,10,0,0,1,233,11.88c0,.6-.18.84-.42.84H219.78v8h3c1.8-2.88,3-4.38,3.6-4.56.36,0,1.38,1,3.06,2.76,1.32,1.44,2,2.34,2,2.64,0,.6-.18.84-.48.84H219.78v8.1h3.12c1.8-2.88,3-4.38,3.6-4.56.36,0,1.38,1,3.06,2.76,1.32,1.44,2,2.34,2,2.64,0,.6-.18.84-.48.84H219.78v8.58h6.06c1.8-2.88,2.94-4.38,3.54-4.56.36,0,1.38,1,3.06,2.76,1.38,1.44,2.1,2.34,2.1,2.64,0,.6-.18.84-.48.84h-26.7v2.16c0,.9-1,1.38-3,1.44Q202,46,202,45.48c0-.9.06-3.06.06-6.54V19.2a28.39,28.39,0,0,1-5.16,5.22,1.34,1.34,0,0,1-.3-.66c3.66-5.7,6.18-13.38,7.62-23C209.64,1.86,212.34,2.82,212.34,3.6Zm2.52,9.12h-7.68v8h7.68Zm0,9.66h-7.68v8.1h7.68Zm0,9.78h-7.68V39.3a11.65,11.65,0,0,0,.12,1.44h7.56ZM221,7.26a7.38,7.38,0,0,1-.24,1.86,2.23,2.23,0,0,1-2.22,1.62c-.6,0-1.44-1.14-2.52-3.48a19.67,19.67,0,0,0-3.72-5.58,1.59,1.59,0,0,0,.36-.66C218,1.74,220.74,3.84,221,7.26Z"/><path d="M290.58,6c1.8,1.86,2.7,3.18,2.7,3.9s-1,.9-2.76.9c-.12,0-.72-.06-1.74-.06a153.23,153.23,0,0,1-16.26,7.74.85.85,0,0,0,.36.12.94.94,0,0,1,.42.78,1.39,1.39,0,0,1-.9,1,6.1,6.1,0,0,0-1.08.6V48.3c-.36,4.26-3.18,6.72-8.4,7.38-.66,0-1.08-.6-1.2-1.74q-.45-1.89-3.6-3.6a15.3,15.3,0,0,0-4.08-1.5,3.94,3.94,0,0,1,.24-1.38,67.53,67.53,0,0,0,8.34.84c1.92,0,2.94-.78,2.94-2.46V26.4a80,80,0,0,0-.36-9.3c1.68.24,3.3.48,5,.84A98.14,98.14,0,0,0,283.56,8h-27a91.85,91.85,0,0,0-11.4.72c-.6-1.32-1.08-2.34-1.44-3.18a76.86,76.86,0,0,0,12.84.84h26.58c2.46-1.86,4-2.82,4.5-2.82A10.6,10.6,0,0,1,290.58,6Z"/><path d="M307.38,8h4.26C313.26,6,314.28,5,314.76,5a9.07,9.07,0,0,1,2.52,1.38q2.34,1.71,2.34,2.34a1.56,1.56,0,0,1-.66,1c-.72.66-1.08,1.08-1.2,1.2V28.56c.12,6.06.24,10.14.36,12.18,0,1.2-1.26,1.74-3.72,1.74-1,0-1.5-.36-1.5-1.2v-1.8H308v4c-.24,1.14-1.26,1.68-3.06,1.68-1.14,0-1.8-.18-2-.6,0-6.06.06-12,.24-17.76V15.12c-.12-5-.24-7.92-.42-8.82Zm5.52,29.88V9.54H308V37.92Zm8,1.2a28.26,28.26,0,0,1,.6,5.16c0,4.92-1.5,7.38-4.44,7.5-1.92,0-2.88-.66-2.94-1.92a3.34,3.34,0,0,1,.42-1.8,11.25,11.25,0,0,1,2.34-2.28c1.68-1.44,2.7-3.66,3.12-6.72A8.15,8.15,0,0,0,320.88,39.12Zm30-36.66A11,11,0,0,1,353.4,5.4c0,.6-.18.9-.42,1H339.72v6.72h3.06a17,17,0,0,1,3-3.48.46.46,0,0,1,.3-.12,8.08,8.08,0,0,1,2.22,1.62c1.38,1.32,2.16,2.16,2.28,2.64s-.12,1-.36,1h-10.5v7.32H343a17,17,0,0,1,3-3.48,2.6,2.6,0,0,1,.3-.06,8.83,8.83,0,0,1,2.22,1.56,11.64,11.64,0,0,1,2.28,2.7c0,.6-.18.9-.42,1H339.72v7.68h7.14q2.43-3.06,3.06-3.06a8.76,8.76,0,0,1,3.18,1.86c1.26,1,1.92,1.74,1.92,2.22s-.42.72-1.14,1.14a4.25,4.25,0,0,1-1.2.66,67.74,67.74,0,0,1-2.58,14.58c-1.62,4.56-3.9,7-6.9,7.26-.48,0-1-.48-1.38-1.38a5.76,5.76,0,0,0-3.12-3.9,20.31,20.31,0,0,0-3.54-1.62c.12,0,.18-.36.18-1a62.62,62.62,0,0,0,7.92.72,2.44,2.44,0,0,0,2.16-1.74A92.56,92.56,0,0,0,347.64,33H327.3v1.26q-.36,1.8-3.24,1.8c-1.2,0-2-.18-2.22-.6,0-5.16.06-10.26.24-15.18v-10a66.68,66.68,0,0,0-.42-7.56l5,1.92h18.24A19.92,19.92,0,0,1,348.12.84a.85.85,0,0,1,.36-.12A11.3,11.3,0,0,1,350.88,2.46Zm-20.82,42.9c-.12,2.22-1,3.3-2.7,3.3-1.26,0-1.92-.66-1.92-2.1a4.25,4.25,0,0,1,.06-.84c0-.48.06-1.08.12-1.74a15.61,15.61,0,0,0-1.38-5.76c.42-.12.66-.24.66-.36C328.32,40.32,330.06,42.84,330.06,45.36Zm4.32-39H327.3v6.72h7.08Zm0,8.4H327.3v7.32h7.08Zm0,16.68V23.76H327.3v7.68Zm3.54,12c0,1.86-.78,2.82-2.28,2.82a1.91,1.91,0,0,1-2.16-2.16,12.34,12.34,0,0,0-.3-2.1c-.24-.9-.6-1.86-1-2.94a10.1,10.1,0,0,0-1-2,4.2,4.2,0,0,1,.72-.48Q337.92,40.11,337.92,43.44Zm4.14-6.84c2,1.38,3,3,3,4.86a2.44,2.44,0,0,1-.84,2.16,2.17,2.17,0,0,1-1.44.42q-1.62,0-2.16-2.88a20.71,20.71,0,0,0-1.38-3.84,14.53,14.53,0,0,0-1.38-1.8,3.92,3.92,0,0,0,.42-.48A12.15,12.15,0,0,1,342.06,36.6Z"/><path d="M432.48,26.94a.89.89,0,0,1-.72.72,6.72,6.72,0,0,1-2.58.36A30.94,30.94,0,0,1,422,39.84c2,4.5,4.38,7.26,7.08,8.22,1,0,2.4-2.52,4.38-7.62.6.06.9.12.9.24a20.29,20.29,0,0,0-1.74,7.8,4,4,0,0,0,1.08,2.34A4.88,4.88,0,0,1,435,53.46c0,1.08-.84,1.62-2.4,1.74-2.64,0-5.52-1.14-8.7-3.36a29.14,29.14,0,0,1-6-8.4,51.32,51.32,0,0,1-15.84,7.74,8.22,8.22,0,0,0-.48-.84,50,50,0,0,0,14.64-10.68,63,63,0,0,1-3.78-19.26H400.26v9.24c3.12-.9,6.3-1.92,9.54-3.12l.48,1a77.39,77.39,0,0,1-10,5.94V49.74c-.12,3.3-2.4,5.16-6.84,5.64a1,1,0,0,1-1.08-1.08,9.62,9.62,0,0,0-.9-2.1q-.36-1.35-5.76-2.34v-1c2.28.18,4.68.24,7.14.24,1.08,0,1.68-.18,1.74-.6V36.06c-2.28,1-4.62,1.92-7.08,2.76a5.79,5.79,0,0,0-.66,2.7c-.12.66-.36,1-.84,1s-1.62-1.56-3.06-4.8a36.09,36.09,0,0,0-1.74-4.08,100.15,100.15,0,0,0,13.38-2.46V20.4c-6.48.06-10.5.3-12.12.66-.42-1-.9-2-1.44-3.12a113.11,113.11,0,0,0,13.56.6V9.84A87.25,87.25,0,0,1,383,11.16a8.18,8.18,0,0,0-.24-1c9.36-1.92,16.38-4.8,21-8.64,3.72,2.64,5.64,4.2,5.64,4.62s-.36.6-1,.6c-1.44-.18-2.64-.3-3.48-.42a23.49,23.49,0,0,1-4.68,2v10.2h12.06c-.48-8.16-.84-13.74-1.2-16.74,5.7.6,8.58,1.14,8.7,1.68,0,.36-.24.6-.72.78q-1.17.63-2.16,1.08c0,4.92.12,9.36.36,13.2h7a22.43,22.43,0,0,1,3.9-4.14c.18,0,.36.06.54.06a10,10,0,0,1,1.44,1C432.72,17.58,434,19,434,19.56s-.24.84-.66.84h-16c.18,2.88.42,5.46.78,7.68a65.71,65.71,0,0,0,1.8,6.66A33,33,0,0,0,424.62,23C429.84,25.08,432.48,26.4,432.48,26.94Zm-2-17.46a8.62,8.62,0,0,1-.24,2,2.39,2.39,0,0,1-2.34,1.74c-.66,0-1.56-1.08-2.76-3.24A17.37,17.37,0,0,0,421,4.8a1.57,1.57,0,0,0,.42-.78C427.2,4.68,430.2,6.48,430.44,9.48Z"/><path d="M490.86,3.24C493.62,5.52,495,7,495,7.68s-.24.78-.66.78H475.26a19.69,19.69,0,0,1-2.88,5.16,43.77,43.77,0,0,1-2.58,3.66c2.34.72,3.54,1.26,3.54,1.62s-.48.66-1.32.9-1.26.66-1.26.84V39.3c.12,5,.24,9.84.24,14.28-.18,1-1.5,1.62-3.9,1.8-1.56,0-2.34-.42-2.34-1.2.12-4.86.24-9.78.24-14.76V23.1a81.94,81.94,0,0,1-22.32,16.56,3.93,3.93,0,0,1-.72-1q17.82-13.32,25.14-27.54c.54-1,1-1.92,1.32-2.7H456.66c-6.9,0-11.22.24-12.9.72-.42-1-.9-2-1.38-3.12a112.34,112.34,0,0,0,14.4.6H484.5c1.92-2.46,3.3-4,4.2-4.5.18,0,.36.06.54.06A13.76,13.76,0,0,1,490.86,3.24ZM494.1,35.7a3.1,3.1,0,0,1-1.32,2.94,2.64,2.64,0,0,1-1.5.36c-1.92,0-3.54-1.56-4.86-4.8a38.18,38.18,0,0,0-12.06-13.44c0-.06.18-.24.6-.54C487.56,25.92,494,31.08,494.1,35.7Z"/><path d="M536.52,4.2a12.59,12.59,0,0,0,3.3.3h3.42c1.8-1.8,2.88-2.76,3.18-2.76.6,0,1.62.66,3.12,1.86s2.22,2.1,2.22,2.52-.54,1-1.5,1.26S549,7.92,549,8l-.54,14.28h.12c1.44-2,2.46-3.18,3.06-3.36a13.54,13.54,0,0,1,2.52,1.92c1.44,1.32,2.16,2.22,2.16,2.58s-.48.72-1.44.72c-.6.12-1.08.18-1.38.24a37.14,37.14,0,0,1-7.32,5.22,1.71,1.71,0,0,1-.6-.42,17.41,17.41,0,0,0,3.48-5.4H506.94a9,9,0,0,1,.12,1.2c-.18,3.9-1.68,5.88-4.44,5.94-1.68-.06-2.58-.72-2.64-2,0-.6.48-1.26,1.32-2a7.6,7.6,0,0,0,2.28-3.9c.18-1.08.3-2.22.42-3.36a2.65,2.65,0,0,0,.9-.12,13.37,13.37,0,0,1,1.62,2.7h1.56l-.3-15.42c-.12-1.5-.18-2.88-.3-4.08l4.86,2A30.54,30.54,0,0,0,518.22,0c3.24,2.4,4.92,3.72,4.92,4,0,.48-.24.66-.72.66-1-.12-1.8-.24-2.28-.24a40,40,0,0,1-7.44,2v3.84h1.92a12.22,12.22,0,0,1,2.46-2.76,2.6,2.6,0,0,1,.3-.06,6.28,6.28,0,0,1,1.8,1.32A9.57,9.57,0,0,1,521,11c0,.6-.18,1-.42,1H512.7v4.56h2.16a14.41,14.41,0,0,1,2.52-2.7.46.46,0,0,1,.3-.12,7,7,0,0,1,1.8,1.38,9.57,9.57,0,0,1,1.86,2.16c0,.6-.18.9-.42,1H512.7v4.08h30.72L543.6,18h-.9a34.92,34.92,0,0,0-5.4.48,16.29,16.29,0,0,1-1-2.58,34.63,34.63,0,0,0,6.54.42h.84l.12-4.38h-1a26.41,26.41,0,0,0-5.28.54,18.9,18.9,0,0,1-1-2.58,32.92,32.92,0,0,0,6.42.42h1l.12-4.2h-3.6q-3.33,0-3.78.36c-.12-.36-.3-.78-.42-1.2H536c-.6,0-1.2.06-1.8.06-.54.36-1.08.72-1.56,1a4.86,4.86,0,0,1,1.86,3.6,2.79,2.79,0,0,1-.3,1.26c-.12.6-.66,1-1.56,1.14-.54,0-1.38-.84-2.46-2.52A10.59,10.59,0,0,1,529,8.46a60.74,60.74,0,0,1-7.14,3.18,1.73,1.73,0,0,1-.36-.6,35.62,35.62,0,0,0,5.64-4.5,19.2,19.2,0,0,0-3.9-2.82,5.2,5.2,0,0,0,.3-.72,40.38,40.38,0,0,1,5.52,1.44A14.36,14.36,0,0,0,531.3.9,42.32,42.32,0,0,1,536.52,4.2Zm1.38,23.1c1.44-1.8,2.4-2.7,3-2.7s1.44.54,2.94,1.62c1.32,1.08,2,1.8,2,2.28s-.3.66-.78,1a5.49,5.49,0,0,0-1.44,1.26V38.4c.18,2.94.3,4.86.3,5.7,0,1.26-1,1.86-2.88,1.86-1.44,0-2.22-.3-2.28-1v-.84h-3.6v4.62a2.1,2.1,0,0,0,2.22,1.8h10.44c1.44,0,2.28-1,2.46-3.12.54-2.52.9-4.56,1.14-6.24a3.69,3.69,0,0,0,.84.06v6.3a2.1,2.1,0,0,0,1.08,2c1.08.48,1.68,1.08,1.68,1.68,0,1.08-.9,1.92-2.7,2.46a71.26,71.26,0,0,1-9.6.66c-3.48,0-5.76-.06-6.84-.12-4-.24-6-1.8-6.06-4.68V44.16h-4.44A9.65,9.65,0,0,1,523.74,48c-2.88,4-9.3,6.6-19.32,7.68a2.39,2.39,0,0,0-.6-.78c7.32-1.56,12.18-4.14,14.58-7.68a10.4,10.4,0,0,0,1.2-3.06h-3.36v.06c-.24,1.2-1.38,1.8-3.3,1.8-1.2,0-1.92-.18-2.16-.6,0-3.12.06-6.24.18-9.24V30.06a17.09,17.09,0,0,0-.42-4.56l4.8,1.8Zm.9,1.5H516.24v3.36H538.8Zm-22.56,8.4H538.8V33.72H516.24Zm22.56,1.56H516.24V42.6H538.8Zm-3.24-24c0,.42-.3.6-.84.6s-1.2.06-1.8.06c-.36.24-.66.48-1,.66,1.5,1,2.28,2.16,2.28,3.48a3.15,3.15,0,0,1-.24,1q-.18.72-1.26.9c-.66,0-1.62-.72-2.82-2.28-.42-.36-.78-.72-1.14-1.08a57.29,57.29,0,0,1-7.68,3.72c-.18-.06-.3-.24-.42-.54a36.53,36.53,0,0,0,5.88-5,21.63,21.63,0,0,0-4.44-2.58,5.35,5.35,0,0,0,.3-.6,44.71,44.71,0,0,1,5.64,1.26A14.64,14.64,0,0,0,530,11Q535.56,14.13,535.56,14.76Z"/><path d="M581.64,16.26q0,.81-3.78,1.26a43,43,0,0,1-4.92,7.14V49.08c.12,1.32.18,3.06.18,5.28,0,.84-1,1.32-3,1.44-1.56,0-2.4-.18-2.4-.54.06-1,.12-3.12.12-6.48V30.06a43.59,43.59,0,0,1-6.9,5.1,4,4,0,0,0-.6-.66c7.2-7.44,11.52-14.64,13-21.72C578.88,14.4,581.64,15.54,581.64,16.26ZM578.52,4c0,.72-1,1.14-2.82,1.32a32.76,32.76,0,0,1-13.32,12.36,5.36,5.36,0,0,0-1-.54,33,33,0,0,0,10-15.9C576.12,2.7,578.52,3.6,578.52,4Zm32,20.94c2.1,1.8,3.18,3,3.18,3.48s-.24.84-.66.84H605.4v5.7H607a16.8,16.8,0,0,1,3.36-3.36c.12,0,.24.06.42.06.36.24.78.48,1.2.78,2.1,1.8,3.18,3,3.18,3.48s-.24.84-.6.84H605.4V49.14c0,3.6-2.34,5.64-7,6.24-.42,0-.72-.54-1-1.56a3.76,3.76,0,0,0-2.7-2.64,14,14,0,0,0-3.48-1.32,2.19,2.19,0,0,1,.12-.84c1.56.12,4,.3,7.08.48,1.14,0,1.74-.42,1.74-1.32V36.72h-13.8c-5.16,0-8.34.24-9.6.72a29.38,29.38,0,0,0-1.44-3.12,64.23,64.23,0,0,0,10.86.6h14v-5.7H586.62q-7.29,0-9,.72a29.38,29.38,0,0,0-1.44-3.12,55.11,55.11,0,0,0,10.08.6h19.32a17,17,0,0,1,3.3-3.36c.12,0,.3.06.42.06C609.66,24.36,610.08,24.6,610.56,24.9Zm-23-20.82h13.92q2.7-2.88,3.42-2.88a10.94,10.94,0,0,1,2.64,1.44Q610,4.53,610,5.16c0,.36-.36.72-1,1.08a19.21,19.21,0,0,0-1.62,1.32v8.88c.06,3.12.18,5.16.3,6.18,0,1.32-1.32,1.92-4,1.92-1.08,0-1.62-.42-1.62-1.32v-1H587.64v1q-.36,1.8-3.24,1.8c-1.2,0-2-.18-2.22-.6,0-3.54.06-7,.24-10.5V7.14A33.75,33.75,0,0,0,582,1.92Zm-.06,35.64c2.28,1.5,3.48,3.24,3.48,5.28a3.63,3.63,0,0,1-1.14,2.94,3.23,3.23,0,0,1-2,.54c-1,0-1.68-1-2-3.12a19.41,19.41,0,0,0-1.32-4.2,24.12,24.12,0,0,0-1.86-2.46,4.38,4.38,0,0,1,.54-.66A13,13,0,0,1,587.46,39.72Zm14.7-34.14H587.64v6.9h14.52Zm0,8.46H587.64v6.6h14.52Z"/></g></g></svg>