<svg xmlns="http://www.w3.org/2000/svg" viewBox="0 0 670.26 55.68"><g id="图层_2" data-name="图层 2"><g id="图层_1-2" data-name="图层 1"><path d="M38.52,4.2c0,.54-1.2.9-3.6,1.14a21.92,21.92,0,0,1-6.3,6.42h11c1.56-1.68,2.64-2.58,3.24-2.64a10,10,0,0,1,3.24,1.8c1.44,1.08,2.16,1.92,2.16,2.4s-.36.72-1,1.08a6.44,6.44,0,0,0-1.74,1.38V23c.18,2.82.3,4.62.3,5.46,0,1.32-1.08,2-3.12,2-1.56,0-2.4-.36-2.46-1.08V28.26H5.7v.66q-.36,1.8-3.24,1.8c-1.2,0-2-.18-2.22-.6,0-3.24.06-6.36.24-9.48V14.4A19.28,19.28,0,0,0,0,9.72l5.28,2H27.06A32.58,32.58,0,0,0,30.42.6Q38.52,3,38.52,4.2ZM33.84,32.7c1.68-2,2.82-3.06,3.48-3.12a11.52,11.52,0,0,1,3.42,1.92c1.56,1.2,2.34,2,2.34,2.58s-.36.78-1,1.14a7.07,7.07,0,0,0-1.74,1.5v9c.18,3.54.3,5.76.3,6.84,0,1.38-1.14,2.1-3.3,2.16-1.68,0-2.58-.42-2.64-1.2V51.36h-23V53.1c-.3,1.32-1.44,2-3.48,2-1.32,0-2.16-.24-2.4-.66,0-3.84.06-7.5.24-11.16V36a37.24,37.24,0,0,0-.42-5.58l5.88,2.28Zm-13.5-6V13.26H5.7V26.7ZM14.46,3.06c2.46,1.44,3.72,3.12,3.72,5A3.46,3.46,0,0,1,17,11a2.9,2.9,0,0,1-2,.6c-1.2,0-2-1-2.4-3.06a13.81,13.81,0,0,0-1.62-4A10.61,10.61,0,0,0,9.18,2.1c.12-.18.36-.42.6-.72A14.17,14.17,0,0,1,14.46,3.06Zm-1,14c2,1.32,3.06,2.94,3.06,4.74a3.49,3.49,0,0,1-1.08,2.76,2.75,2.75,0,0,1-1.86.54c-.84,0-1.32-1-1.56-2.88a21.84,21.84,0,0,0-1.08-3.78A16.49,16.49,0,0,0,9.18,16.2a4.38,4.38,0,0,1,.54-.66A10.09,10.09,0,0,1,13.44,17.1Zm21.3,17.16h-23V40.8h23ZM11.7,49.8h23V42.42h-23Zm14-23.1H40.26V13.26H25.74ZM38.4,17.82c0,.42-1,.72-2.82.84a20.54,20.54,0,0,1-5.94,6.72,3.56,3.56,0,0,1-.66-.06A31.13,31.13,0,0,0,32,15C36.24,16.26,38.4,17.22,38.4,17.82Z"/><path d="M106.26,6.06c2.7,2.28,4.08,3.78,4.08,4.38s-.24.84-.6.84H78.36a57.07,57.07,0,0,1-5.46,8.34l1.92,1H95.28a10.13,10.13,0,0,1,3-2.94,8.74,8.74,0,0,1,3.12,1.5c1.68,1.2,2.58,2,2.58,2.58s-.42.84-1.14,1.26a3.91,3.91,0,0,0-1.44,1.26V47.76c0,3.9-2,6.3-5.82,7.26-.6,0-1-.42-1.14-1.26a6.34,6.34,0,0,0-3.18-3.54,24.89,24.89,0,0,0-4.38-1.56A2.64,2.64,0,0,0,87,47.58a50.85,50.85,0,0,0,7.62.42,1.26,1.26,0,0,0,1.44-1.38v-6.3H74.7c0,4.08.12,8.46.3,13.08Q74.46,55,70.86,55c-1.2,0-1.8-.36-1.8-1,.06-5.64.12-11.82.12-18.54V24.06a76.06,76.06,0,0,1-12.72,11.1c-.48,0-.66-.24-.66-.78a76.29,76.29,0,0,0,16.74-23.1h-1.8c-7.08,0-11.52.24-13.26.72A29.38,29.38,0,0,0,56,8.88a124.23,124.23,0,0,0,15.06.6h2.28A74.75,74.75,0,0,0,76.56.12c5.52,1.2,8.34,2.22,8.34,3.06,0,.6-1.14,1.08-3.42,1.5-.72,1.68-1.44,3.24-2.16,4.8H99.9a23.68,23.68,0,0,1,4.2-4.56c.18,0,.36.06.54.06Q105.36,5.43,106.26,6.06ZM96.06,29.4V22.26H74.7V29.4Zm0,9.36V31H74.7v7.8Z"/><path d="M131,14.76c1.26,1.2,1.92,2,1.92,2.46s-.6.9-1.8,1.38a3.22,3.22,0,0,0-1.2.54c-2.58,4.86-4.62,8.58-6.06,11.22h3.24c1.38-1.92,2.22-2.94,2.52-2.94a6.77,6.77,0,0,1,2.64,1.32c1.44,1,2.16,1.68,2.16,2s-.36.72-1.08,1.08a2.07,2.07,0,0,0-1.26,1,37.77,37.77,0,0,1-4.5,11.22,17.18,17.18,0,0,0,7.5,3.66q4.41,1.62,16.92,1.62c9.06-.24,15.3-.78,18.72-1.5,0,.6,0,1,.12,1.08a5.49,5.49,0,0,0-1.68,1,3.4,3.4,0,0,0-1.08,2.1,1.73,1.73,0,0,1-2,1.92c-8.64,0-13.8-.18-15.36-.42-8.4,0-14.46-1.08-18.12-3.18a18.35,18.35,0,0,1-5.82-5.16,22.74,22.74,0,0,1-2,2.58,25,25,0,0,1-8.82,6.9.8.8,0,0,1-.42-.48,36.61,36.61,0,0,0,7.62-9.66,36.07,36.07,0,0,0,4.26-12.78h-4.32c-.48.84-.84,1.5-1.14,2s-.9.9-2,.9c-1.86-.12-2.76-.54-2.76-1.38q4.86-8.46,8.46-16h-6.66c-.6.06-1.32.18-2.16.3-.36-.78-.66-1.5-1-2.16a14.48,14.48,0,0,0,2.82.3h6.72Q128,13,128.4,13C129,13,129.9,13.62,131,14.76ZM126.36,2.88c2.64,1.68,4,3.6,4,5.88a3.65,3.65,0,0,1-1.2,2.94,2.9,2.9,0,0,1-2,.6c-1.32,0-2.16-1.14-2.64-3.54a20.65,20.65,0,0,0-1.68-4.62,13.14,13.14,0,0,0-1.92-2.46c.12-.18.36-.42.6-.72A15.21,15.21,0,0,1,126.36,2.88ZM144.9,4.26h12.42c1.62-1.8,2.64-2.76,3.06-2.76S161.64,2,163,3.12s2.1,1.8,2.1,2.28c0,.24-.24.54-.66.78a10,10,0,0,0-1.56,1.44V19.68c1.32-1.08,2.1-1.68,2.46-1.68a11.41,11.41,0,0,1,2.4,1.32c1.5,1.08,2.28,1.86,2.34,2.28a1.37,1.37,0,0,1-.78,1.14,5.47,5.47,0,0,0-1.38,1V40.68c-.12,3.18-2.28,5.1-6.6,5.82-.6-.12-.9-.42-.9-1a5,5,0,0,0-1.14-2.46,8.81,8.81,0,0,0-2.76-1.56c0-.3.06-.6.06-.84a29.69,29.69,0,0,0,4.62.42c1.26,0,1.92-.3,1.92-1V21.84H140.64V44.16c-.24,1.14-1.26,1.68-3.06,1.68-1.14,0-1.8-.18-2-.54,0-4.2.06-8.28.24-12.3V24.9a44.77,44.77,0,0,0-.42-6.12l3.72,1.44h1.08V7.08a18.88,18.88,0,0,0-.54-4.68Zm3.24,22.92h5.46c1.5-1.68,2.46-2.58,2.88-2.58a6.4,6.4,0,0,1,2.34,1.26Q161,27.48,161,28t-.72.9c-.72.6-1.14,1-1.26,1.14v4.38a17.65,17.65,0,0,0,.3,3q0,1.62-3.42,1.62c-1,0-1.38-.36-1.38-1.08V37h-5.94v1.86c-.24,1.08-1.14,1.56-2.76,1.56-1.08,0-1.68-.18-1.92-.54,0-2.28.06-4.5.24-6.66V28.8a13.23,13.23,0,0,0-.42-3.3Zm1-7V13.74a15.89,15.89,0,0,0-.54-4.32l4.8,1.68H158V5.76h-12.9V20.22Zm5.4,8.46h-5.94V35.4h5.94ZM158,20.22v-7.5h-4.32v7.5Z"/><path d="M185,12.78h1a70.42,70.42,0,0,0,2-12.24C193,2,195.42,3,195.42,3.48c0,.72-1,1.14-2.94,1.26a28.93,28.93,0,0,1-4.5,8h4.92c1.8-1.86,2.94-2.82,3.42-2.82a9.07,9.07,0,0,1,2.7,1.5q2.52,1.89,2.52,2.52t-.9,1.08a9.3,9.3,0,0,0-1.56,1.32V36.3c.12,6.84.18,11.46.3,13.8,0,1.2-1.32,1.86-4,1.86-1.08,0-1.56-.42-1.56-1.26V47.34H185.1V51.9q-.36,1.8-3.24,1.8c-1.2,0-2-.24-2.22-.6,0-6.72.06-13.32.24-19.74V20.46c-.12-5.52-.24-8.76-.42-9.78Zm8.82,15.9V14.34H185.1V28.68Zm0,17V30.24H185.1V45.72ZM216,3.36c0,.6-1,1-2.94,1.26-.84,2.76-1.74,5.34-2.7,7.68h11.1c1.62-2,2.76-3.06,3.42-3.12a10.3,10.3,0,0,1,3.36,2q2.16,2,2.16,2.52,0,.72-1.44,1.26a3.76,3.76,0,0,0-1.32,1.08c-.84,16.44-1.92,27.06-3.24,31.92-1.2,4.2-3.78,6.66-7.8,7.26-.66,0-1.14-.6-1.5-1.8A5.45,5.45,0,0,0,212.46,50a43.42,43.42,0,0,0-5.52-2.16,5.38,5.38,0,0,1,.12-1.32,65.16,65.16,0,0,0,9,.84c2.16-.18,3.3-1.14,3.3-2.94,1-1.8,2-12,3.06-30.48H209.64c-2.76,6.12-5.88,10.8-9.48,13.92a2.48,2.48,0,0,1-.3-.66c3.84-6.6,6.54-15.54,8-26.7C213.24,1.62,216,2.58,216,3.36Zm.54,29.88a5.78,5.78,0,0,1-1,3.72,3,3,0,0,1-2.64,1.2c-1,0-1.68-1.2-1.92-3.72-.9-4.56-2.16-8.1-3.84-10.56l.9-.66C213.66,26.94,216.48,30.24,216.54,33.24Z"/><path d="M249.66,2a.55.55,0,0,1-.42.6c-.36.12-.84.36-1.38.6s-.72.48-.72.66v11h.48c1.44-2.64,2.34-4,2.82-4,.24,0,.9.72,1.86,2.1a11.84,11.84,0,0,1,1.56,2.7c0,.6-.24,1-.72,1h-6V28.14c1.38-.18,2.7-.42,4-.72-.3-1.08-.66-2.46-1-4a13.26,13.26,0,0,0,2.76.66,39.31,39.31,0,0,0,3.78-12.72c4.74,1.56,7.14,2.46,7.14,2.82,0,.72-1,1.14-2.82,1.32a23.69,23.69,0,0,1-6.36,8.88,30.58,30.58,0,0,0,4.8.36c.48-1.68,1-3.48,1.32-5.4,3.54,1.2,5.76,2,6.6,2.4a63.39,63.39,0,0,0,2.7-10.56c4.44,1.68,6.72,2.82,6.72,3.36s-1,.78-2.7,1a42.54,42.54,0,0,1-1.92,4.14h11.16a16.23,16.23,0,0,1,2.76-3.12,2.6,2.6,0,0,1,.3-.06,8,8,0,0,1,2,1.44,9.49,9.49,0,0,1,2,2.4c0,.6-.12,1-.36,1H282v7.38h.72c1.38-1.92,2.28-3,2.76-3.12.24,0,1,.72,2.28,2,1,1.08,1.56,1.68,1.56,1.92,0,.54-.18.78-.48.78H282V38.1h.84c1.38-1.92,2.28-3,2.76-3.12.24,0,1,.72,2.28,2,1,1.08,1.56,1.68,1.56,1.92,0,.6-.18.84-.48.84h-7v9.54h.72c1.68-2.64,2.76-4.08,3.3-4.2.3,0,1.26.9,2.82,2.58,1.2,1.32,1.86,2.1,1.86,2.46s-.18.78-.42.78H273.06V52c.06.72.12,1.44.12,2.22q0,1.44-2.88,1.44c-1.32,0-2-.3-2.16-.78V32.46a4.55,4.55,0,0,0-1,.54c-1.68,11.16-7.26,18.18-16.62,21.24a2.66,2.66,0,0,0-.36-.6A29.77,29.77,0,0,0,261,37.86a40.17,40.17,0,0,1-8.52,3.42c-.24,1.5-.6,2.22-1,2.22s-.72-.66-1.14-2-1-3-1.56-5a23.44,23.44,0,0,0,4.74.3h.06A38.82,38.82,0,0,0,258.9,26.4,29.67,29.67,0,0,1,253,28.26a5,5,0,0,1-.48,1.38c-.06.18-.18.24-.42.24s-.36-.42-.6-1.38a20,20,0,0,1-4.38,3.18V47.1c0,5-2,7.56-5.82,7.56-.6,0-.9-.36-.9-1a4.94,4.94,0,0,0-1.68-3,5.42,5.42,0,0,0-2.88-1.44,2.1,2.1,0,0,0,.18-1c.9.12,2.76.12,5.58.12.54,0,.84-.54.84-1.62V33.66a9.67,9.67,0,0,1-1.74.54q-.18,3.06-1.08,3.06c-.36,0-1.14-1.38-2.34-4.2A19.1,19.1,0,0,1,236,29a57,57,0,0,0,6.48-.36v-12c-3.84.12-5.76.3-5.76.48A26.67,26.67,0,0,1,235.5,14a44.22,44.22,0,0,0,7,.72V7.68A56,56,0,0,0,242,0C246.72.78,249.24,1.44,249.66,2ZM287.1,5.88c2.1,1.8,3.18,3,3.18,3.48s-.24.78-.6.78h-28q-7.74,0-9.54.72c-.42-1-.9-2-1.44-3.12a63.87,63.87,0,0,0,10.8.6h8.22a9.62,9.62,0,0,1-2-2.52,16.58,16.58,0,0,0-3.78-4.68,1.57,1.57,0,0,0,.42-.78c5.52.54,8.34,2,8.58,4.56a9.05,9.05,0,0,1-.24,2,2.27,2.27,0,0,1-1.14,1.38h10.56A16.8,16.8,0,0,1,285.48,5c.12,0,.24.06.42.06A11.16,11.16,0,0,1,287.1,5.88Zm-25,24.42c3.12.6,5.1,1,6.06,1.32V26c-.72,1-1.44,1.92-2.22,2.88a4.18,4.18,0,0,1-1.32-.42c.84-1.74,1.56-3.54,2.28-5.34a6.8,6.8,0,0,1-1.8.36c-2.58,5.76-5.7,10.14-9.42,13.2,2.46-.12,4.38-.24,5.7-.42A47.27,47.27,0,0,0,262.08,30.3Zm11-1.56h4V21.36h-4Zm0,9.36h4V30.36h-4Zm0,11.22h4V39.78h-4Zm7.2-37.44c1.92,1,2.94,2.22,2.94,3.54a3.38,3.38,0,0,1-1.14,2.94,2.9,2.9,0,0,1-2,.6c-.72,0-1.14-.72-1.38-2.22a13.08,13.08,0,0,0-.84-2.88,13.14,13.14,0,0,0-1.92-2.46c.12-.18.36-.42.6-.72A15.06,15.06,0,0,1,280.26,11.88Z"/><path d="M311.64,2.64a.55.55,0,0,1-.48.6c-.42.18-1,.42-1.56.72s-.9.54-.9.78V14.4h.9c1.44-2.64,2.34-4,2.82-4,.3,0,.9.72,1.86,2.16a11.93,11.93,0,0,1,1.56,2.64c0,.6-.24,1-.66,1H308.7V27.78a53.7,53.7,0,0,0,6.18-1.26,1.6,1.6,0,0,0,.18.72,24.67,24.67,0,0,1-6.36,4.08v16c0,5-2,7.56-6.06,7.56a.92.92,0,0,1-1-1,5,5,0,0,0-1.86-3,7,7,0,0,0-3.3-1.44,2.1,2.1,0,0,0,.18-1c.9.12,2.82.12,5.7.12.6,0,1-.54,1-1.62V33.3c-1,.3-1.86.54-2.82.78-.18,2-.54,3.06-1.14,3.06-.36,0-1.14-1.38-2.34-4.2a19.1,19.1,0,0,1-1.32-4c2.64,0,5.16-.18,7.62-.42V16.2c-4.08.12-6.12.3-6.12.48a26.67,26.67,0,0,1-1.2-3.12,47.46,47.46,0,0,0,7.32.72V7.92a57.7,57.7,0,0,0-.42-7.74C308.22,1.14,311.16,1.92,311.64,2.64Zm17.58,1c0,.6-1,1-2.94,1.2-.72,1.8-1.44,3.42-2.16,4.92H341c1.56-2,2.64-3.12,3.18-3.12a7.25,7.25,0,0,1,2.94,1.68c1.56,1.2,2.4,2,2.4,2.46s-.6,1.14-1.8,1.92a1.8,1.8,0,0,0-.72,1.68,192.77,192.77,0,0,1-1.86,21.12c-.84,4.8-3.24,7.14-7.14,7.14-.6,0-1-.54-1.2-1.62a4.64,4.64,0,0,0-1.38-1.92,10,10,0,0,0-4.86-1.86c0-.12.06-.48.06-1.14,2,.12,3.66.24,5,.3,3,0,4.68-1.62,4.92-4.86a141,141,0,0,0,1.2-20H323.22A44.93,44.93,0,0,1,319,17.94l3,1.32h7.56c1.56-1.8,2.64-2.76,3.24-2.82a10,10,0,0,1,3.24,1.8c1.44,1.08,2.16,1.92,2.16,2.4s-.3.72-.84,1.08a6.51,6.51,0,0,0-1.56,1.38v5.22c.24,2,.36,3.3.36,3.9,0,1.32-1.08,2-3.12,2-1.56,0-2.4-.36-2.46-1.08V31.86H322.8V44.7c0,2.4,1.68,3.6,5.1,3.6,1.92.12,3.9.18,5.88.24l5.88-.36c2.64,0,4.14-.9,4.5-2.82a62.8,62.8,0,0,0,2-7.92,7.44,7.44,0,0,0,1.26.12q-.18,3.24-.18,7.74A1.88,1.88,0,0,0,348.6,47a2.27,2.27,0,0,1,1.08,1.8c-.06,1.56-1.5,2.76-4.26,3.54a36.58,36.58,0,0,1-9.84,1.08c-3.84,0-6.66-.12-8.52-.3-6.48-.06-9.72-2.28-9.72-6.6V23.34c0-1.2-.06-2.34-.06-3.36a26.43,26.43,0,0,1-5.46,4.74,4.75,4.75,0,0,1-.3-.6c4.56-5.76,7.74-13.56,9.54-23.34C326.46,1.86,329.22,2.82,329.22,3.6Zm1.32,26.64V20.76H322.8v9.48Z"/><path d="M418.5,4.2c0,.54-1.2.9-3.6,1.14a21.92,21.92,0,0,1-6.3,6.42h11c1.56-1.68,2.64-2.58,3.24-2.64a10,10,0,0,1,3.24,1.8c1.44,1.08,2.16,1.92,2.16,2.4s-.36.72-1,1.08a6.44,6.44,0,0,0-1.74,1.38V23c.18,2.82.3,4.62.3,5.46,0,1.32-1.08,2-3.12,2-1.56,0-2.4-.36-2.46-1.08V28.26H385.68v.66q-.36,1.8-3.24,1.8c-1.2,0-2-.18-2.22-.6,0-3.24.06-6.36.24-9.48V14.4A19.28,19.28,0,0,0,380,9.72l5.28,2H407A32.58,32.58,0,0,0,410.4.6Q418.5,3,418.5,4.2Zm-4.68,28.5c1.68-2,2.82-3.06,3.48-3.12a11.52,11.52,0,0,1,3.42,1.92c1.56,1.2,2.34,2,2.34,2.58s-.36.78-1,1.14a7.07,7.07,0,0,0-1.74,1.5v9c.18,3.54.3,5.76.3,6.84,0,1.38-1.14,2.1-3.3,2.16-1.68,0-2.58-.42-2.64-1.2V51.36h-23V53.1c-.3,1.32-1.44,2-3.48,2-1.32,0-2.16-.24-2.4-.66,0-3.84.06-7.5.24-11.16V36a37.24,37.24,0,0,0-.42-5.58l5.88,2.28Zm-13.5-6V13.26H385.68V26.7ZM394.44,3.06c2.46,1.44,3.72,3.12,3.72,5A3.46,3.46,0,0,1,397,11a2.9,2.9,0,0,1-2,.6c-1.2,0-2-1-2.4-3.06a13.81,13.81,0,0,0-1.62-4,10.61,10.61,0,0,0-1.86-2.46c.12-.18.36-.42.6-.72A14.17,14.17,0,0,1,394.44,3.06Zm-1,14c2,1.32,3.06,2.94,3.06,4.74a3.49,3.49,0,0,1-1.08,2.76,2.75,2.75,0,0,1-1.86.54c-.84,0-1.32-1-1.56-2.88a21.84,21.84,0,0,0-1.08-3.78,16.49,16.49,0,0,0-1.74-2.28,4.38,4.38,0,0,1,.54-.66A10.09,10.09,0,0,1,393.42,17.1Zm21.3,17.16h-23V40.8h23Zm-23,15.54h23V42.42h-23Zm14-23.1h14.52V13.26H405.72Zm12.66-8.88c0,.42-1,.72-2.82.84a20.54,20.54,0,0,1-5.94,6.72,3.56,3.56,0,0,1-.66-.06A31.13,31.13,0,0,0,412,15C416.22,16.26,418.38,17.22,418.38,17.82Z"/><path d="M486.24,6.06c2.7,2.28,4.08,3.78,4.08,4.38s-.24.84-.6.84H458.34a57.07,57.07,0,0,1-5.46,8.34l1.92,1h20.46a10.13,10.13,0,0,1,3-2.94,8.74,8.74,0,0,1,3.12,1.5c1.68,1.2,2.58,2,2.58,2.58s-.42.84-1.14,1.26a3.91,3.91,0,0,0-1.44,1.26V47.76c0,3.9-2,6.3-5.82,7.26-.6,0-1-.42-1.14-1.26a6.34,6.34,0,0,0-3.18-3.54,24.89,24.89,0,0,0-4.38-1.56,2.64,2.64,0,0,0,.12-1.08,50.85,50.85,0,0,0,7.62.42A1.26,1.26,0,0,0,476,46.62v-6.3H454.68c0,4.08.12,8.46.3,13.08Q454.44,55,450.84,55c-1.2,0-1.8-.36-1.8-1,.06-5.64.12-11.82.12-18.54V24.06a76.06,76.06,0,0,1-12.72,11.1c-.48,0-.66-.24-.66-.78a76.29,76.29,0,0,0,16.74-23.1h-1.8c-7.08,0-11.52.24-13.26.72A29.38,29.38,0,0,0,436,8.88a124.23,124.23,0,0,0,15.06.6h2.28A74.75,74.75,0,0,0,456.54.12c5.52,1.2,8.34,2.22,8.34,3.06,0,.6-1.14,1.08-3.42,1.5-.72,1.68-1.44,3.24-2.16,4.8h20.58a23.68,23.68,0,0,1,4.2-4.56c.18,0,.36.06.54.06Q485.34,5.43,486.24,6.06ZM476,29.4V22.26H454.68V29.4Zm0,9.36V31H454.68v7.8Z"/><path d="M511,14.76c1.26,1.2,1.92,2,1.92,2.46s-.6.9-1.8,1.38a3.22,3.22,0,0,0-1.2.54c-2.58,4.86-4.62,8.58-6.06,11.22h3.24c1.38-1.92,2.22-2.94,2.52-2.94a6.77,6.77,0,0,1,2.64,1.32c1.44,1,2.16,1.68,2.16,2s-.36.72-1.08,1.08a2.07,2.07,0,0,0-1.26,1,37.77,37.77,0,0,1-4.5,11.22,17.18,17.18,0,0,0,7.5,3.66q4.41,1.62,16.92,1.62c9.06-.24,15.3-.78,18.72-1.5,0,.6,0,1,.12,1.08a5.49,5.49,0,0,0-1.68,1,3.4,3.4,0,0,0-1.08,2.1,1.73,1.73,0,0,1-2,1.92c-8.64,0-13.8-.18-15.36-.42-8.4,0-14.46-1.08-18.12-3.18a18.35,18.35,0,0,1-5.82-5.16,22.74,22.74,0,0,1-2,2.58,25,25,0,0,1-8.82,6.9.8.8,0,0,1-.42-.48,36.61,36.61,0,0,0,7.62-9.66,36.07,36.07,0,0,0,4.26-12.78H503c-.48.84-.84,1.5-1.14,2s-.9.9-2,.9c-1.86-.12-2.76-.54-2.76-1.38q4.86-8.46,8.46-16H498.9c-.6.06-1.32.18-2.16.3-.36-.78-.66-1.5-1-2.16a14.48,14.48,0,0,0,2.82.3h6.72Q508,13,508.38,13C509,13,509.88,13.62,511,14.76ZM506.34,2.88c2.64,1.68,4,3.6,4,5.88a3.65,3.65,0,0,1-1.2,2.94,2.9,2.9,0,0,1-2,.6c-1.32,0-2.16-1.14-2.64-3.54a20.65,20.65,0,0,0-1.68-4.62,13.14,13.14,0,0,0-1.92-2.46c.12-.18.36-.42.6-.72A15.21,15.21,0,0,1,506.34,2.88Zm18.54,1.38H537.3c1.62-1.8,2.64-2.76,3.06-2.76s1.26.54,2.58,1.62S545,4.92,545,5.4c0,.24-.24.54-.66.78a10,10,0,0,0-1.56,1.44V19.68c1.32-1.08,2.1-1.68,2.46-1.68a11.41,11.41,0,0,1,2.4,1.32c1.5,1.08,2.28,1.86,2.34,2.28a1.37,1.37,0,0,1-.78,1.14,5.47,5.47,0,0,0-1.38,1V40.68c-.12,3.18-2.28,5.1-6.6,5.82-.6-.12-.9-.42-.9-1a5,5,0,0,0-1.14-2.46,8.81,8.81,0,0,0-2.76-1.56c0-.3.06-.6.06-.84a29.69,29.69,0,0,0,4.62.42c1.26,0,1.92-.3,1.92-1V21.84H520.62V44.16c-.24,1.14-1.26,1.68-3.06,1.68-1.14,0-1.8-.18-2-.54,0-4.2.06-8.28.24-12.3V24.9a44.77,44.77,0,0,0-.42-6.12l3.72,1.44h1.08V7.08a18.88,18.88,0,0,0-.54-4.68Zm3.24,22.92h5.46c1.5-1.68,2.46-2.58,2.88-2.58a6.4,6.4,0,0,1,2.34,1.26Q541,27.48,541,28t-.72.9c-.72.6-1.14,1-1.26,1.14v4.38a17.65,17.65,0,0,0,.3,3q0,1.62-3.42,1.62c-1,0-1.38-.36-1.38-1.08V37h-5.94v1.86c-.24,1.08-1.14,1.56-2.76,1.56-1.08,0-1.68-.18-1.92-.54,0-2.28.06-4.5.24-6.66V28.8a13.23,13.23,0,0,0-.42-3.3Zm1-7V13.74a15.89,15.89,0,0,0-.54-4.32l4.8,1.68H538V5.76h-12.9V20.22Zm5.4,8.46h-5.94V35.4h5.94ZM538,20.22v-7.5h-4.32v7.5Z"/><path d="M565,12.78h1a70.42,70.42,0,0,0,2-12.24C572.94,2,575.4,3,575.4,3.48c0,.72-1,1.14-2.94,1.26a28.93,28.93,0,0,1-4.5,8h4.92c1.8-1.86,2.94-2.82,3.42-2.82a9.07,9.07,0,0,1,2.7,1.5q2.52,1.89,2.52,2.52t-.9,1.08a9.3,9.3,0,0,0-1.56,1.32V36.3c.12,6.84.18,11.46.3,13.8,0,1.2-1.32,1.86-4,1.86-1.08,0-1.56-.42-1.56-1.26V47.34h-8.76V51.9q-.36,1.8-3.24,1.8c-1.2,0-2-.24-2.22-.6,0-6.72.06-13.32.24-19.74V20.46c-.12-5.52-.24-8.76-.42-9.78Zm8.82,15.9V14.34h-8.76V28.68Zm0,17V30.24h-8.76V45.72ZM596,3.36c0,.6-1,1-2.94,1.26-.84,2.76-1.74,5.34-2.7,7.68h11.1c1.62-2,2.76-3.06,3.42-3.12a10.3,10.3,0,0,1,3.36,2q2.16,2,2.16,2.52,0,.72-1.44,1.26a3.76,3.76,0,0,0-1.32,1.08c-.84,16.44-1.92,27.06-3.24,31.92-1.2,4.2-3.78,6.66-7.8,7.26-.66,0-1.14-.6-1.5-1.8A5.45,5.45,0,0,0,592.44,50a43.42,43.42,0,0,0-5.52-2.16,5.38,5.38,0,0,1,.12-1.32,65.16,65.16,0,0,0,9,.84c2.16-.18,3.3-1.14,3.3-2.94,1-1.8,2-12,3.06-30.48H589.62c-2.76,6.12-5.88,10.8-9.48,13.92a2.48,2.48,0,0,1-.3-.66c3.84-6.6,6.54-15.54,8-26.7C593.22,1.62,596,2.58,596,3.36Zm.54,29.88a5.78,5.78,0,0,1-1,3.72,3,3,0,0,1-2.64,1.2c-1,0-1.68-1.2-1.92-3.72-.9-4.56-2.16-8.1-3.84-10.56l.9-.66C593.64,26.94,596.46,30.24,596.52,33.24Z"/><path d="M623,8.82h4.8c1.68-2,2.7-3.12,3.18-3.12A6.55,6.55,0,0,1,633.42,7q2.34,1.8,2.34,2.34c0,.36-.24.66-.72,1a11.2,11.2,0,0,0-1.26,1.26v12.9A68.85,68.85,0,0,0,641,.36c5.4,1.8,8.1,2.94,8.1,3.54s-1.08,1-3.18,1.56a56,56,0,0,1-2.7,7H662c1.5-1.8,2.58-2.76,3.18-2.82a8.63,8.63,0,0,1,3.12,1.86q2,1.8,2,2.34c0,.42-.48.78-1.32,1.14a3.69,3.69,0,0,0-1.2,1c-.84,16.32-2,26.94-3.48,31.74a9.45,9.45,0,0,1-8.34,7.2c-.54,0-1-.54-1.2-1.5a5,5,0,0,0-2.16-2.94,36.65,36.65,0,0,0-4.38-1.86,7.28,7.28,0,0,1,.06-1.08,47.32,47.32,0,0,0,7.2.66c2.58-.18,3.9-1.14,3.9-2.94,1.14-1.86,2.28-12.24,3.48-31.14h-2.88c-.42,2.16-.84,4.2-1.2,6.24q-4.77,22.14-23,32.4a3.18,3.18,0,0,1-.6-.72q14-12.6,18.36-32.22c.48-2.16.84-4.08,1.14-5.7h-3.78c-.3,1.62-.6,3.18-.9,4.74q-3.87,17.55-18.9,25.62a1.64,1.64,0,0,1-.54-.72,47,47,0,0,0,14.28-25.32q.54-2.52.9-4.32h-3.24a51.29,51.29,0,0,1-8.58,12.78c-.06,0-.12,0-.12-.06.12,5.16.18,8.58.3,10.38,0,1.2-1.26,1.8-3.66,1.8-1,0-1.5-.42-1.5-1.26v-1.5h-5.28V41.4c-.24,1.14-1.26,1.68-3.06,1.68-1.14,0-1.8-.18-2-.54,0-5.64.06-11.1.24-16.5V15.24A78.83,78.83,0,0,0,618.36,7Zm5.94,25.86V10.32h-5.28V34.68Z"/></g></g></svg>