<svg xmlns="http://www.w3.org/2000/svg" viewBox="0 0 733.14 55.38"><g id="图层_2" data-name="图层 2"><g id="图层_1-2" data-name="图层 1"><path d="M18.84,13.08a7.6,7.6,0,0,1,1.74,2c-.06.48-.48.84-1.2,1.08-1.08.42-1.68.72-1.8,1a30.4,30.4,0,0,1-4.8,8v3c.48.24,1,.48,1.38.72a21.54,21.54,0,0,0,2.64-6.72c.78.48,2.1,1.26,4,2.28.9.66,1.38,1.08,1.38,1.32s-.24.42-.72.42c-1,.12-1.56.18-1.92.24a13.22,13.22,0,0,1-2.22,1.8,15.86,15.86,0,0,1-2.22,1.2c3.84,2.22,5.82,4.32,5.82,6.3a2.85,2.85,0,0,1-1.08,2.58,2.56,2.56,0,0,1-1.74.6c-1.32,0-2.22-1.2-2.7-3.72a15.08,15.08,0,0,0-2.58-5.4V47.94c.12,1.32.24,3.06.24,5.34,0,.84-1,1.26-3,1.38-1.56,0-2.4-.18-2.4-.54,0-.9.06-3.06.06-6.48V30A36.84,36.84,0,0,1,.54,34.26,6.55,6.55,0,0,0,0,33.6a33.73,33.73,0,0,0,7.8-7.92,35.39,35.39,0,0,0,5-10.62H8.58a69.09,69.09,0,0,0-7.08.42C1.14,14.64.78,13.8.48,13a41,41,0,0,0,8,.6h3.9c1.68-1.8,2.76-2.7,3.3-2.7A12.26,12.26,0,0,1,18.84,13.08ZM10.44,2.76q3.42,2.07,3.42,4.86a3.56,3.56,0,0,1-1.2,2.94,2.7,2.7,0,0,1-2,.6c-1,0-1.56-1-1.86-2.94a19.79,19.79,0,0,0-1.26-3.9A15.6,15.6,0,0,0,5.7,1.86c.12-.18.36-.42.6-.72A11.94,11.94,0,0,1,10.44,2.76Zm17,1.92H43.32c1.56-1.8,2.64-2.76,3.24-2.82a10,10,0,0,1,3.24,1.8C51.24,4.74,52,5.58,52,6.06s-.3.72-.84,1.08a6.51,6.51,0,0,0-1.56,1.38V21.36q.36,7.56.36,9.72c0,1.32-1.08,2-3.12,2-1.56,0-2.4-.36-2.46-1.08V30.06H38.7v9.36h4.68A32.63,32.63,0,0,1,46.14,36c.3-.3.54-.48.72-.48a3.41,3.41,0,0,1,1.14.66,21.7,21.7,0,0,1,3.84,4c0,.54-.18.78-.42.78H38.7v9.72h5.7c1.08-1.44,2.1-2.76,3.18-4,.3-.3.54-.48.78-.48a3.17,3.17,0,0,1,1.32.72c2.64,2.28,4.08,3.72,4.38,4.5,0,.48-.18.78-.42.78H23.7a28.17,28.17,0,0,0-5.76.42c-.24-.72-.48-1.5-.84-2.4a46.88,46.88,0,0,0,6.6.42h9.66V40.92H27.84a28.2,28.2,0,0,0-5.76.48c-.24-.72-.48-1.5-.78-2.4a38.21,38.21,0,0,0,6.54.42h5.52V30.06H27.78v2c-.24,1.2-1.38,1.8-3.3,1.8-1.2,0-1.92-.18-2.16-.6q0-7.2.18-14.22V9.72a40,40,0,0,0-.42-7.08ZM33.36,16.5V6.18H27.78V16.5Zm0,12V18.06H27.78V28.5Zm5.34-12h5.64V6.18H38.7Zm0,12h5.64V18.06H38.7Z"/><path d="M109.92,1.56C112.62,3.9,114,5.4,114,6s-.24.84-.6.84H89.76a32.84,32.84,0,0,1-7.08,10.08h20.76c1.74-1.62,2.88-2.46,3.36-2.46a9.07,9.07,0,0,1,2.7,1.5Q112,17.85,112,18.48t-.9,1.08a16.81,16.81,0,0,0-1.5,1.32v19c.12,6.54.24,10.86.36,13.14,0,1.26-1.38,1.92-4,1.92-1.08,0-1.56-.48-1.56-1.32V50.28H69.9v2.94c-.24,1.2-1.38,1.8-3.3,1.8-1.2,0-1.92-.24-2.16-.6,0-6.24.06-12.3.24-18.3v-12A72.06,72.06,0,0,0,64.2,15l5.1,1.92H80.58A44.18,44.18,0,0,0,83.22,6.84H74.58c-7.08,0-11.46.24-13.2.66Q60.75,6,59.94,4.44A121.24,121.24,0,0,0,74.88,5h28.68a23.68,23.68,0,0,1,4.2-4.56c.18,0,.36.06.54.06A13.76,13.76,0,0,1,109.92,1.56Zm-40,16.86v30.3h7V18.42Zm12.42,0V27h9.24V18.42Zm0,10.14V37.5h9.24V28.56Zm0,10.5v9.66h9.24V39.06ZM104.4,18.42H97v30.3h7.44Z"/><path d="M145.8,39.72c0,.48-1.2.84-3.54,1q-7.11,8.73-21.84,14.64a5.11,5.11,0,0,0-1-1c8.16-5.16,14.28-11.28,18.42-18.6Q145.8,38.46,145.8,39.72ZM135.24,6.18h23.64c1.68-1.92,2.82-2.94,3.42-3a10.86,10.86,0,0,1,3.48,1.92c1.56,1.2,2.34,2.1,2.34,2.58s-.36.84-1,1.2a12.15,12.15,0,0,0-1.74,1.44v13q.36,7.56.36,9.72c0,1.44-1.14,2.16-3.36,2.16-1.68,0-2.58-.36-2.64-1.14v-3.3H134.94v3c-.3,1.32-1.44,1.92-3.48,1.92-1.32,0-2.1-.18-2.34-.6,0-5,.06-9.84.24-14.58V11a46.38,46.38,0,0,0-.48-7.26Zm24.48,23V7.68H134.94V29.16Zm11.64,18.3a9.85,9.85,0,0,1,.48,3.3,3.32,3.32,0,0,1-3.54,3.48c-.72,0-1.5-1.14-2.4-3.3a20.75,20.75,0,0,0-3.18-4.44,56.65,56.65,0,0,0-10.2-9.18,9.77,9.77,0,0,1,.66-1Q168.48,42.42,171.36,47.46Z"/><path d="M194.4,28.68q-10.71,0-13.32.72a29.38,29.38,0,0,0-1.44-3.12,128.27,128.27,0,0,0,15.3.6h29.34c1.8-2.28,3.06-3.66,3.9-4.14.12,0,.3.06.54.06.42.24.9.6,1.44,1,2.52,2.16,3.84,3.48,3.84,4.08s-.24.84-.66.84H210.72v8.16h9.36a22.77,22.77,0,0,1,3.48-4.2.87.87,0,0,1,.42-.12,11.45,11.45,0,0,1,2.58,1.86,12.26,12.26,0,0,1,2.7,3.12c0,.6-.12,1-.36,1H210.72v9.6a124.57,124.57,0,0,0,12.54.54c4.26,0,8-.12,11.34-.42l.06,1.2a4.36,4.36,0,0,0-2.46,1.44,8,8,0,0,0-.78,2,1.47,1.47,0,0,1-1.62,1.44c-1.8,0-4.32-.06-7.44-.06-10.2-.24-17.46-1.62-21.9-4.08a14.81,14.81,0,0,1-6.72-7.5,16.52,16.52,0,0,1-1.68,2.88q-3.33,5.76-11.16,9.72a3,3,0,0,0-.66-1C186.06,49.08,189.3,43,190,36.06c0-1.44.06-2.82.06-4.08,5.52.72,8.34,1.32,8.34,1.86s-1,1.2-2.82,1.92a25.23,25.23,0,0,1-.9,4.62c2,2.88,4.14,4.68,6.36,5.52a15.58,15.58,0,0,0,4.38,1.44V28.68Zm-1-24.9H218c1.68-2,2.82-3,3.48-3.06a11.52,11.52,0,0,1,3.42,1.92c1.56,1.2,2.34,2.1,2.34,2.58s-.36.84-1.08,1.2a11.12,11.12,0,0,0-1.92,1.44v7.92c.24,3.12.36,5.1.36,6,0,1.44-1.14,2.16-3.3,2.16-1.68,0-2.58-.36-2.64-1.2V21.36h-24v1.38c-.3,1.32-1.44,1.92-3.48,1.92-1.32,0-2.1-.18-2.34-.66,0-3.48.06-6.9.24-10.26V7a22.93,22.93,0,0,0-.48-5.1ZM218.7,11.7V5.28h-24V11.7Zm0,8.1V13.26h-24V19.8Z"/><path d="M290.76,28.32c2.28,2,3.48,3.24,3.48,3.84s-.24.78-.6.78H272.82a20.43,20.43,0,0,0,1.44,3.6,28.27,28.27,0,0,0,2.76,4.2,25.9,25.9,0,0,0,4.26-6.3c4.8,1.92,7.2,3.18,7.2,3.84,0,.48-1.2.84-3.6,1a36,36,0,0,1-4.68,4.86A17.32,17.32,0,0,0,288,48.3c1.38-.18,2.76-3.18,4.08-9.06.24.06.6.12,1,.18-.12,1.68-.24,4.56-.3,8.64a6.82,6.82,0,0,0,.6,2.88,5.3,5.3,0,0,1,.48,2c0,1-1.14,1.5-3.3,1.5a22.81,22.81,0,0,1-14.7-7.2c-5.7,3.36-12.72,5.52-21,6.36a1.15,1.15,0,0,1-.3-.72c7.8-2,14.1-4.92,18.78-8.7a22.35,22.35,0,0,1-1.5-2.34,33.23,33.23,0,0,1-4-8.94H255.6c-.12,1.38-.24,2.64-.42,3.72,6.24,1,9.48,3.3,9.72,6.9a5.11,5.11,0,0,1-.18,1.5A1.78,1.78,0,0,1,263,46.32c-1,0-2.22-1.14-3.9-3.54a24.33,24.33,0,0,0-4.2-4.68c-1.62,7.8-6.66,13.2-15.12,16.32l-.54-1c7-4.32,10.74-11.1,11.22-20.46a58,58,0,0,0-9.72.72c-.42-1-.9-2-1.44-3.12a83.91,83.91,0,0,0,11.22.54q0-2.52-.18-5.22c5.1.24,7.68.72,7.68,1.5-.18.78-.9,1.26-2.22,1.38,0,.84-.06,1.68-.06,2.4h11.64A92.59,92.59,0,0,1,265,8.52c-.12-1.62-.24-3.42-.24-5.4A26.37,26.37,0,0,0,264.48,0c5,1,7.56,1.8,7.56,2.4s-.9,1-2.64,1.74q.27,17.73,2.88,27h13.08a17.53,17.53,0,0,1,3.6-3.72h.48C289.8,27.66,290.28,28,290.76,28.32ZM264,23.58c0,1.62-.72,2.46-2,2.46a1.63,1.63,0,0,1-1.86-1.86,12.48,12.48,0,0,0-.24-1.8A94,94,0,0,1,245.16,26c-.3,1.62-.66,2.4-1.08,2.4s-.78-.72-1.26-2.22-1.08-3.24-1.68-5.4a27.61,27.61,0,0,0,5.16.3,50.36,50.36,0,0,0,7.26-6.84,88.22,88.22,0,0,1-8.82,2.1,5.32,5.32,0,0,1-.48,1.26.36.36,0,0,1-.36.18c-.24,0-.9-2-1.86-6,1.08.06,2.22.06,3.42.06A21.63,21.63,0,0,0,251.1.78c4.74,1.26,7.14,2.1,7.14,2.58s-.54.78-1.62.9c-.78.18-1.14.3-1.14.3a30.54,30.54,0,0,1-7.74,7.38c2.34.06,4.86.06,7.56.06a34.16,34.16,0,0,0,2.34-4c4.08,1.56,6.18,2.58,6.18,3.06s-.9.72-2.46.9c-2.64,2.94-6.72,6-12.24,9.12,4.38,0,7.8-.06,10.32-.18-.12-.42-.3-.84-.42-1.26a10.87,10.87,0,0,0-.9-1.74,6.16,6.16,0,0,1,.6-.42C262.2,19.56,264,21.6,264,23.58Zm28.68-.24c0,1.74-.72,2.64-2.16,2.64s-2-.66-2-2a9.44,9.44,0,0,0-.18-1.62A65.34,65.34,0,0,1,281,24.54c1.62.84,2.46,1.86,2.46,2.94a2.86,2.86,0,0,1-1,2.34,2,2,0,0,1-1.56.48c-.72,0-1.2-.6-1.44-1.86a10.57,10.57,0,0,0-1-2.52,5,5,0,0,0-.48-.72c-1,.24-1.92.42-2.94.6-.24,1.5-.6,2.22-1,2.22s-.72-.66-1.2-2-1-3-1.56-5a20,20,0,0,0,4.32.3,45.07,45.07,0,0,0,7-7.62,83.69,83.69,0,0,1-8.46,1.92,11.75,11.75,0,0,1-.48,1.26c-.06.18-.18.24-.42.24s-.9-2-1.86-6.06c.9.12,1.86.18,2.82.24A19.42,19.42,0,0,0,280,.78c4.8,1.26,7.2,2.1,7.2,2.58s-.6.78-1.68.9c-.72.18-1.08.3-1.08.3a28.44,28.44,0,0,1-8,6.78q3.69.18,7.74.18a42.22,42.22,0,0,0,2-4c4.44,1.68,6.72,2.82,6.72,3.36s-1,.78-2.7,1c-2.46,3-6.36,6.12-11.64,9.36,4-.06,7.2-.18,9.48-.3-.12-.42-.24-.9-.36-1.38-.3-.78-.54-1.32-.66-1.68a3.5,3.5,0,0,1,.6-.48C291,19.38,292.68,21.36,292.68,23.34Z"/><path d="M310.44,5.76A26.8,26.8,0,0,0,320.52.42c.6.42,1.8,1.2,3.6,2.4C325.74,4,326.58,4.68,326.58,5a.68.68,0,0,1-.66.72c-1.8-.18-2.88-.3-3.24-.3a54.28,54.28,0,0,1-12,1.68v9.06h4.8a16.26,16.26,0,0,1,3.24-3.84.51.51,0,0,1,.36-.12,13.44,13.44,0,0,1,2.34,1.74A13.3,13.3,0,0,1,324,16.86c0,.6-.18.9-.42,1h-12.9v9.42h3.84a19.92,19.92,0,0,1,3.24-3.84.85.85,0,0,1,.36-.12,8,8,0,0,1,2.4,1.74A12.28,12.28,0,0,1,323,27.9c0,.6-.18,1-.42,1H310.68v9.66a123.76,123.76,0,0,0,14.82-2.22c.06.24.12.42.18.66-3.72,2.22-8.7,4-15,5.46V53.22c-.3,1.2-1.38,1.8-3.3,1.8-1.2,0-1.92-.24-2.16-.6,0-3.72,0-7.26.06-10.8L303,44c-.12,1.92-.48,2.82-1,2.82-.36,0-1.08-1.26-2.16-3.84a15.5,15.5,0,0,1-1.2-3.78q3.42,0,6.66-.18c0-2.76.06-5.46.12-8.16V15.42A109.34,109.34,0,0,0,305,3.66ZM349.8,26.94c1.56,1.56,2.34,2.46,2.34,2.76a1.07,1.07,0,0,1-.84,1c-.72.36-1.5.66-2.28,1a25.59,25.59,0,0,1-7.44,12.66A37.27,37.27,0,0,0,355,48.72a4.93,4.93,0,0,0-.12,1.38,3.36,3.36,0,0,0-1.92.66,6.18,6.18,0,0,0-1.8,2.7c-.36.84-.72,1.32-1.14,1.32-3.12-.72-7-3-11.52-6.72a2.56,2.56,0,0,1-.72-.66c-5,3.42-11.58,5.82-19.68,7.2a5.71,5.71,0,0,1-.66-.9A57.51,57.51,0,0,0,335,44.88q.09,0,.18-.18a47.56,47.56,0,0,1-7.44-14.64q-1.44.18-2.52.36c-.24-.72-.6-1.62-1.08-2.76a77,77,0,0,0,8,.6h10.32c1.86-2.52,3.06-3.78,3.66-3.78S348.06,25.44,349.8,26.94Zm-16-23.16h5.76c1.8-1.74,2.82-2.64,3.18-2.64a8.58,8.58,0,0,1,2.64,1.62q2.34,1.53,2.34,2.34c0,.36-.24.6-.66.84a7.06,7.06,0,0,0-1.68,1.2v9.3c0,1.62.72,2.4,2.1,2.4s2.34-.3,2.76-1,.78-1.2.9-1.2a2.68,2.68,0,0,1,1.56.66c1.44,1.14,2.16,2,2.16,2.76q0,2-5,2.52c-1.5.06-2.82.06-4,.06-3.72,0-5.58-1.5-5.58-4.62V5.28h-6.3c0,3.54,0,6,.06,7.44-.48,6.78-3.6,11.22-9.36,13.26a1.42,1.42,0,0,1-.54-.9,14.52,14.52,0,0,0,2.88-4.68c1.08-1.56,1.68-5.88,1.68-12.84,0-2.64-.12-4.8-.24-6.42ZM337.86,42a23.07,23.07,0,0,0,5.34-12.12H332.28c-1.2,0-2.28.06-3.18.06C332.34,36,335.22,40,337.86,42Z"/><path d="M431.34,26.34a.89.89,0,0,1-.72.72,6.72,6.72,0,0,1-2.58.36,30.94,30.94,0,0,1-7.2,11.82c2,4.5,4.38,7.26,7.08,8.22,1,0,2.4-2.52,4.38-7.62.6.06.9.12.9.24a20.29,20.29,0,0,0-1.74,7.8,4,4,0,0,0,1.08,2.34,4.88,4.88,0,0,1,1.32,2.64c0,1.08-.84,1.62-2.4,1.74-2.64,0-5.52-1.14-8.7-3.36a29.14,29.14,0,0,1-6-8.4,51.32,51.32,0,0,1-15.84,7.74,8.22,8.22,0,0,0-.48-.84,50,50,0,0,0,14.64-10.68A63,63,0,0,1,411.3,19.8H399.12V29c3.12-.9,6.3-1.92,9.54-3.12l.48,1a77.39,77.39,0,0,1-10,5.94V49.14c-.12,3.3-2.4,5.16-6.84,5.64a1,1,0,0,1-1.08-1.08,9.62,9.62,0,0,0-.9-2.1q-.36-1.35-5.76-2.34v-1c2.28.18,4.68.24,7.14.24,1.08,0,1.68-.18,1.74-.6V35.46c-2.28,1-4.62,1.92-7.08,2.76a5.79,5.79,0,0,0-.66,2.7c-.12.66-.36,1-.84,1s-1.62-1.56-3.06-4.8A36.09,36.09,0,0,0,380,33a100.15,100.15,0,0,0,13.38-2.46V19.8c-6.48.06-10.5.3-12.12.66-.42-1-.9-2-1.44-3.12a113.11,113.11,0,0,0,13.56.6V9.24a87.25,87.25,0,0,1-11.52,1.32,8.18,8.18,0,0,0-.24-1C391,7.62,398,4.74,402.66.9c3.72,2.64,5.64,4.2,5.64,4.62s-.36.6-1,.6c-1.44-.18-2.64-.3-3.48-.42a23.49,23.49,0,0,1-4.68,2v10.2h12.06C410.7,9.78,410.34,4.2,410,1.2c5.7.6,8.58,1.14,8.7,1.68,0,.36-.24.6-.72.78q-1.17.63-2.16,1.08c0,4.92.12,9.36.36,13.2h7a22.43,22.43,0,0,1,3.9-4.14c.18,0,.36.06.54.06a10,10,0,0,1,1.44,1c2.52,2.16,3.84,3.54,3.84,4.14s-.24.84-.66.84h-16c.18,2.88.42,5.46.78,7.68a65.71,65.71,0,0,0,1.8,6.66,33,33,0,0,0,4.62-11.7C428.7,24.48,431.34,25.8,431.34,26.34Zm-2-17.46a8.62,8.62,0,0,1-.24,2,2.39,2.39,0,0,1-2.34,1.74c-.66,0-1.56-1.08-2.76-3.24a17.37,17.37,0,0,0-4.08-5.22,1.57,1.57,0,0,0,.42-.78C426.06,4.08,429.06,5.88,429.3,8.88Z"/><path d="M471.6,2.28c0,.48-.36.84-1,1q-1.8.72-1.8,1.26v.9h10.8a14.49,14.49,0,0,1,3-3.42.46.46,0,0,1,.3-.12,8.08,8.08,0,0,1,2.22,1.62,11.86,11.86,0,0,1,2.28,2.64c0,.6-.18,1-.42,1H468.78V11.4H485.7c1.56-1.68,2.7-2.64,3.3-2.82a16.32,16.32,0,0,1,2.76,2c1.56,1.44,2.34,2.4,2.34,2.82s-.54.78-1.56.78c-.72.12-1.2.18-1.5.24a27.67,27.67,0,0,1-5.82,4.32,1.71,1.71,0,0,1-.6-.42,30.35,30.35,0,0,0,1.56-5.46h-36.3V23.34a79.85,79.85,0,0,1-1,14.76,27.2,27.2,0,0,1-2.76,8.34c-2,3.9-4,6.48-5.88,7.74a1,1,0,0,1-.84-.54,48,48,0,0,0,3.78-11.52c.84-3.66,1.26-9.84,1.32-18.54,0-5.88-.06-9.54-.06-11,0-1.14-.12-2.52-.24-4.08l6.42,2.88h12.84V6.48a59.75,59.75,0,0,0-.3-6.42C468.78.9,471.6,1.62,471.6,2.28ZM470.46,32.7c0,.48-.36.78-1,.9-1.08.48-1.68.84-1.68,1.14V50.52h4.86V36.84a51,51,0,0,0-.3-5.94c5.22.72,7.86,1.44,7.86,2s-.36.78-1,.9c-1.08.48-1.68.84-1.68,1.14V42.3h5.34c0-2.16.06-4.2.06-6s-.18-3.12-.24-4.08c5,.84,7.56,1.5,7.56,2,0,.3-.36.6-1,.9-1.08.48-1.56.78-1.56,1l.18,8.64c-.12,1-1,1.44-2.82,1.44-1.5,0-2.22-.3-2.22-1V43.86H477.6v6.66h7.68a17.53,17.53,0,0,1,3.6-3.72c.12,0,.3.06.48.06.36.24.84.48,1.32.84,2.28,2,3.48,3.24,3.48,3.84s-.24.84-.6.84H459.84c-6.18,0-10,.18-11.52.66a29.38,29.38,0,0,0-1.44-3.12,105.62,105.62,0,0,0,13.14.6h2.88v-6.6h-5.1v1.8c-.12,1-1,1.5-2.82,1.5-1.5,0-2.22-.36-2.22-1.08.06-3.72.12-7.14.12-10.14-.12-1.8-.18-3.12-.24-4.08,5,.84,7.56,1.5,7.56,2,0,.3-.36.6-1,.9-1,.48-1.5.78-1.5,1l.12,6.54h5.1V36.6a51,51,0,0,0-.3-5.94C467.82,31.38,470.46,32.1,470.46,32.7Zm-1.74-17.4c1.56.42,2.4.78,2.52,1a1.28,1.28,0,0,1-1.14,1,8.47,8.47,0,0,0-1.62.72v1.08l7.26-.36c1.8-2.46,2.94-3.78,3.36-3.9a15.19,15.19,0,0,1,2.88,2.4c1.26,1.32,1.92,2.22,1.92,2.58s-.24.42-.66.42c-5.76.3-10.68.54-14.76.78V23c.12,1.08,1,1.68,2.7,1.68h8a11,11,0,0,0,4.38-.6,4.41,4.41,0,0,0,2.58-1.74l.42-.18a4.31,4.31,0,0,1,2.64,1.44,5.45,5.45,0,0,1,1.62,2.1c0,.24-.06.48-.06.6q-.72,2.7-13.68,2.7a61,61,0,0,1-8.22-.3c-3.54,0-5.52-1.38-5.88-4.14V21.42c-6.72.42-10.5.72-11.22,1-.3-.9-.54-1.74-.78-2.52,1.8,0,5.76-.18,12-.48v-.06c-.12-1.62-.24-3.3-.42-5.1Q466.38,14.85,468.72,15.3Z"/><path d="M550.26,4.86A14.77,14.77,0,0,1,553,8c0,.6-.18,1-.42,1H510.48v7.74h8.82V13.8a26.4,26.4,0,0,1-.3-3.54q7.29.9,8.1,2.16c0,.54-.42.9-1.14,1.14-1.08.54-1.56.9-1.56,1v2.16h11.16V13.92a18.53,18.53,0,0,1-.36-3.48c4.86.6,7.56,1.32,8.16,2.16,0,.48-.42.9-1.14,1.14-1.08.54-1.62.9-1.62,1v2h4.08a19.92,19.92,0,0,1,3.24-3.84.85.85,0,0,1,.36-.12,11.3,11.3,0,0,1,2.4,1.74,12.28,12.28,0,0,1,2.52,2.88c0,.6-.18,1-.42,1H540.6V27.9c0,1-1.14,1.56-3.3,1.68-1.32,0-2-.3-2-1,0-.48.06-1,.06-1.56h-11V28.5c0,1-1.14,1.56-3.36,1.68-1.32,0-1.92-.3-1.92-1,.06-3.24.12-6.78.18-10.74h-8.82l.06,6.78a73.59,73.59,0,0,1-1,14.1,23.55,23.55,0,0,1-2.82,7.86c-2,3.72-4,6.18-5.88,7.38a1.23,1.23,0,0,1-.9-.54,42.13,42.13,0,0,0,3.84-10.92c.84-3.48,1.32-9.36,1.38-17.64,0-8-.06-13.08-.12-15q0-2.43-.18-5.58l5.58,2.46h33.36c1.68-2.4,2.82-3.78,3.54-4.2a.51.51,0,0,1,.36-.12A8.82,8.82,0,0,1,550.26,4.86Zm-5,26.4a8.27,8.27,0,0,1,1.86,2c0,.9-.72,1.44-2.1,1.62a34,34,0,0,1-9.66,10.44,69.38,69.38,0,0,0,18.78,3.84,4.09,4.09,0,0,0-.12,1.26,4.49,4.49,0,0,0-1.8.6,5.36,5.36,0,0,0-1.62,2.52q-.45,1.26-1.08,1.26c-4.32-.66-9.66-2.58-16.08-5.7a15.86,15.86,0,0,1-2.22-1.2c-6.42,3.48-14.46,5.82-24.06,7l-.24-1c8.52-2.16,15.48-4.92,20.76-8.4a37.18,37.18,0,0,1-9.3-11.28h-.48a27.73,27.73,0,0,0-5.4.48q-.36-1.26-.9-2.7a34.41,34.41,0,0,0,6.18.48H538c1.92-2.16,3.18-3.36,3.84-3.6A11.7,11.7,0,0,1,545.28,31.26ZM530.64,43.38a28.73,28.73,0,0,0,7.8-9.18H519.9C523.74,38.64,527.28,41.7,530.64,43.38Zm1.2-39.18c-.06,1.56-.6,2.46-1.56,2.76a4.85,4.85,0,0,1-1.2.18c-.54,0-1.38-.54-2.52-1.74a15.93,15.93,0,0,0-6.12-4.26c.06-.24.12-.6.24-1,.54.06,2.22.06,5,.06C529.74.48,531.84,1.8,531.84,4.2Zm3.72,14.22H524.4v7h11C535.44,23.22,535.5,20.88,535.56,18.42Z"/><path d="M568.74,12.66h1a70.42,70.42,0,0,0,2-12.24c4.86,1.44,7.32,2.46,7.32,2.94,0,.72-1,1.14-2.94,1.26a28.93,28.93,0,0,1-4.5,8h4.92c1.8-1.86,2.94-2.82,3.42-2.82a9.07,9.07,0,0,1,2.7,1.5q2.52,1.89,2.52,2.52t-.9,1.08a9.3,9.3,0,0,0-1.56,1.32V36.18c.12,6.84.18,11.46.3,13.8,0,1.2-1.32,1.86-4,1.86-1.08,0-1.56-.42-1.56-1.26V47.22H568.8v4.56q-.36,1.8-3.24,1.8c-1.2,0-2-.24-2.22-.6,0-6.72.06-13.32.24-19.74V20.34c-.12-5.52-.24-8.76-.42-9.78Zm8.82,15.9V14.22H568.8V28.56Zm0,17V30.12H568.8V45.6ZM599.7,3.24c0,.6-1,1-2.94,1.26-.84,2.76-1.74,5.34-2.7,7.68h11.1c1.62-2,2.76-3.06,3.42-3.12a10.3,10.3,0,0,1,3.36,2q2.16,2,2.16,2.52,0,.72-1.44,1.26A3.76,3.76,0,0,0,611.34,16C610.5,32.4,609.42,43,608.1,47.88c-1.2,4.2-3.78,6.66-7.8,7.26-.66,0-1.14-.6-1.5-1.8a5.45,5.45,0,0,0-2.64-3.42,43.42,43.42,0,0,0-5.52-2.16,5.38,5.38,0,0,1,.12-1.32,65.16,65.16,0,0,0,9,.84c2.16-.18,3.3-1.14,3.3-2.94,1-1.8,2-12,3.06-30.48H593.34c-2.76,6.12-5.88,10.8-9.48,13.92a2.48,2.48,0,0,1-.3-.66c3.84-6.6,6.54-15.54,8-26.7C596.94,1.5,599.7,2.46,599.7,3.24Zm.54,29.88a5.78,5.78,0,0,1-1,3.72,3,3,0,0,1-2.64,1.2c-1,0-1.68-1.2-1.92-3.72-.9-4.56-2.16-8.1-3.84-10.56l.9-.66C597.36,26.82,600.18,30.12,600.24,33.12Z"/><path d="M627.24,6.72h6.54c1.56-1.92,2.64-2.88,3.24-2.94a10,10,0,0,1,3.24,1.8c1.44,1.08,2.16,1.92,2.16,2.4s-.36.72-1,1.08a11.88,11.88,0,0,0-1.8,1.38V29.58Q640,40.74,640,44c0,1.32-1.08,2-3.12,2-1.56,0-2.4-.36-2.46-1.08V41.34h-6.66V46c-.24,1.2-1.38,1.8-3.3,1.8-1.2,0-1.92-.18-2.16-.6,0-6.72.06-13.32.18-19.74v-13A75.62,75.62,0,0,0,622,4.74Zm7.14,16V8.22h-6.66V22.74Zm0,17V24.36h-6.66V39.78Zm38.76-10.26c.84.84,1.26,1.5,1.26,1.86,0,.54-.3.78-.9.78h-7.8V47.82q0,5.22-6.12,7c-.66-.06-1-.48-1.08-1.32-.18-1.32-1.2-2.58-3.12-3.66a18.84,18.84,0,0,0-4-1.38,3.33,3.33,0,0,0,.18-1q3.69.36,7.92.36c.66-.06,1-.6,1-1.68v-14H647.64a36,36,0,0,0-5.16.36,14.55,14.55,0,0,1-1.26-2.82,21.7,21.7,0,0,0,5.76.66h13.44c-.12-3.18-.24-5.7-.36-7.62,1.32.36,2.76.66,4.26,1a15.25,15.25,0,0,1,3.42.66.76.76,0,0,1,.54.84c0,.36-.6.72-1.74,1-.6.18-.84.3-.84.42v3.72h.84a22.37,22.37,0,0,1,3.24-3.6.87.87,0,0,1,.36.06C670.5,26.88,671.52,27.78,673.14,29.52Zm-5.94-23a23.08,23.08,0,0,1,3.9,4c0,.54-.18.78-.48.78H658.44V20.7h5.88A39.08,39.08,0,0,1,667.26,17c.36-.3.6-.48.78-.48a3.09,3.09,0,0,1,1.26.66c2.4,2.16,3.78,3.54,4.14,4.26,0,.54-.18.78-.48.78H648.18a33.3,33.3,0,0,0-5.76.42c-.24-.66-.48-1.44-.84-2.4a39.59,39.59,0,0,0,6.6.42h4.92V11.28h-3.54a27.13,27.13,0,0,0-5.7.48c-.24-.72-.48-1.5-.84-2.4a38.21,38.21,0,0,0,6.54.42h3.54V6.9a59.75,59.75,0,0,0-.3-6.42c5.64.84,8.46,1.56,8.46,2.22,0,.48-.36.84-1,1q-1.8.72-1.8,1.26V9.78h4.14a35.82,35.82,0,0,1,2.76-3.42c.3-.3.54-.48.72-.48S666.66,6.12,667.2,6.54ZM650.82,36.18c2.52,1.68,3.84,3.6,3.84,5.88a3.49,3.49,0,0,1-1.08,2.76,2.75,2.75,0,0,1-1.86.54c-1.32,0-2.22-1.14-2.64-3.54a23.15,23.15,0,0,0-1.8-4.62,16.49,16.49,0,0,0-1.74-2.28,4.38,4.38,0,0,1,.54-.66A14.46,14.46,0,0,1,650.82,36.18Z"/><path d="M687.24,3.24H698.4c1.44-1.62,2.4-2.46,3-2.52a9.23,9.23,0,0,1,3,1.68c1.32,1,2,1.74,2,2.22s-.36.66-1,1a5.48,5.48,0,0,0-1.62,1.26v7.8c.18,3.06.3,5,.3,5.88,0,1.26-1,1.92-2.94,1.92-1.44,0-2.22-.3-2.28-1v-2H688V52.92c-.3,1.2-1.38,1.8-3.3,1.8-1.2,0-1.92-.24-2.16-.6,0-8.34.06-16.5.18-24.54V13.5a118.47,118.47,0,0,0-.42-12.18Zm11.7,6.84V4.8H688v5.28Zm0,7.8V11.64H688v6.24Zm1.74,9.24h11c1.44-1.92,2.4-2.88,3-2.94a9.2,9.2,0,0,1,2.94,1.68c1.32,1.08,2,1.8,2,2.28s-.3.66-.84,1a6.38,6.38,0,0,0-1.62,1.32v9.06c.18,3.48.3,5.76.3,6.78,0,1.2-1,1.86-2.88,1.86-1.44,0-2.22-.3-2.28-1V45H701.1v2.58q-.36,1.8-3.24,1.8c-1.2,0-2-.18-2.22-.6,0-3.72.06-7.38.24-11V30.6a35.76,35.76,0,0,0-.42-5.46Zm11.64,7.74V28.62H701.1v6.24Zm0,8.52v-7H701.1v7Zm1.44-40.2H725A11,11,0,0,1,727.8.24a7.42,7.42,0,0,1,2.88,1.44c1.62,1.08,2.46,1.86,2.46,2.34s-.42.84-1.14,1.2a4.53,4.53,0,0,0-1.32,1.14v41.7c0,3.6-2.22,5.82-6.6,6.66-.42,0-.72-.42-.84-1.14a5.38,5.38,0,0,0-2.16-3.3,13.36,13.36,0,0,0-3-1.44,2.09,2.09,0,0,0,.12-1,42.16,42.16,0,0,0,6.18.36A1.16,1.16,0,0,0,725.7,47V19.62H714.06v.84c-.24,1.14-1.26,1.68-3.06,1.68-1.14,0-1.8-.18-2-.6,0-3.18.06-6.3.24-9.42V5.94a25.75,25.75,0,0,0-.42-4.68ZM725.7,10V4.8H714.06V10Zm0,8V11.58H714.06V18Z"/></g></g></svg>