<svg xmlns="http://www.w3.org/2000/svg" viewBox="0 0 653.88 55.56"><g id="图层_2" data-name="图层 2"><g id="图层_1-2" data-name="图层 1"><path d="M29.4,17.7c0,.6-1.14,1.08-3.42,1.5a22.75,22.75,0,0,1-1.2,2h19.5c1.92-2.46,3.3-4,4.2-4.5.12,0,.3.06.54.06a13.76,13.76,0,0,1,1.62,1c2.7,2.28,4.08,3.78,4.08,4.44s-.24.78-.6.78H23.64a49.12,49.12,0,0,1-7.38,8.46l.6.3h9.9V29.7q-.18-2.88-.54-5.76c2,.24,4.14.6,6.42,1,1.62.3,2.46.72,2.46,1.26s-.36.66-1.08.78c-1.14.42-1.68.72-1.68,1v3.9H42.66c1.8-2,2.88-3,3.3-3a18.55,18.55,0,0,1,2.64,1.44c1.62,1.2,2.46,2,2.52,2.46s-.3.84-.9,1.2A6.46,6.46,0,0,0,48.78,35v9.3c-.12,3.72-2.1,6-6.06,6.9-.9-.12-1.32-.54-1.32-1.2a5.24,5.24,0,0,0-1.92-2.88A17.46,17.46,0,0,0,35,45.3a6.68,6.68,0,0,0,.12-1,45.43,45.43,0,0,0,6.36.48c1.32,0,2-.36,2-1.14V33.36H32.34V39.6c.12,6.84.18,11.58.3,14.34,0,1-1.38,1.56-4.08,1.56-1.38,0-2-.42-2-1.2.12-2.4.18-7.32.24-14.88V33.36H16.62v7.2c0,2.88.06,6.18.3,9.78-.36,1-1.62,1.56-3.84,1.56-1.14,0-1.68-.36-1.68-1,0-3.12.06-6.6.06-10.32V35.46a74.16,74.16,0,0,1-10,6.3C1,41.76.84,41.52.84,41,8.16,35.4,13.62,29.4,17.22,23h-2.4c-7.2,0-11.64.24-13.38.72-.42-1-.9-2-1.44-3.12a125.24,125.24,0,0,0,15.18.6h3.06a39.7,39.7,0,0,0,2.82-6.6C26.58,15.9,29.4,16.92,29.4,17.7ZM30,7.08A34.24,34.24,0,0,0,38.88.3C44,2.16,46.62,3.42,46.62,4s-.6.84-1.68.84A14.26,14.26,0,0,0,42.48,5a50.24,50.24,0,0,1-6.36,3.66q7.56,2.34,9.36,4.68a4.63,4.63,0,0,1,.72,1.86c0,1.62-.6,2.46-1.74,2.52s-4.5-1.38-9.72-4.2c-1.68-.72-3.3-1.38-4.92-2A129.39,129.39,0,0,1,2.16,18.3a3.5,3.5,0,0,1-.78-.66,172.62,172.62,0,0,0,23.7-8,156.24,156.24,0,0,0-19-5.52A5.58,5.58,0,0,0,6.48,3C16.08,4.32,23.88,5.7,30,7.08Z"/><path d="M83.46,5.58C85.56,7.44,86.76,8.7,87,9.3c0,.54-.18.78-.42.78H71.52V20.34q0,2,2.7,2c.84,0,1.68-.06,2.64-.06a2.79,2.79,0,0,0,2.34-1.14,2,2,0,0,1,1.32-.84,1.85,1.85,0,0,1,.48.12c2,1.5,3.18,2.7,3.3,3.66A1.88,1.88,0,0,1,83,25.74c-1.26.6-3.66.84-7.26.84A22.27,22.27,0,0,1,69.48,26c-2.16-.36-3.24-1.8-3.24-4.38V10.08A34.53,34.53,0,0,0,61,10.5c-.24-.66-.48-1.44-.84-2.4a39.06,39.06,0,0,0,6.6.42H79.14C80,7.38,80.88,6.36,81.72,5.4A1.2,1.2,0,0,1,82.38,5,3.35,3.35,0,0,1,83.46,5.58Zm21.18,33.24c2.28,2,3.48,3.24,3.48,3.78s-.24.84-.66.84H89.94v7.08h15.24a17.53,17.53,0,0,1,3.6-3.72c.12,0,.3.06.48.06a13,13,0,0,1,1.32.9c2.34,1.92,3.54,3.18,3.54,3.78s-.24.84-.66.84H75.3c-7,0-11.34.18-13.08.66A17.64,17.64,0,0,0,60.84,50,143.94,143.94,0,0,0,76,50.52h8.1V43.44H78.66c-5.28,0-8.58.24-9.84.72-.42-1-.9-2-1.44-3.12a65.56,65.56,0,0,0,10.92.6h5.82V35.16c-5.4.18-11.46.3-18.12.36,0-.54-.12-.84-.24-.84,15.12-1.2,27.06-3.24,35.82-6,.6.48,1.92,1.32,3.84,2.58,1.74,1.2,2.64,2,2.64,2.34s-.3.72-.78.78c-1.86-.18-3-.3-3.42-.3-3.72.36-8.4.6-13.92.84v6.72h9.24a18.35,18.35,0,0,1,3.6-3.78c.12,0,.3.06.48.06A13.33,13.33,0,0,1,104.64,38.82ZM76.14,4.38a5.23,5.23,0,0,1-.3,1.86,2.21,2.21,0,0,1-2.16,1.62c-.48,0-1.08-.84-1.92-2.58A15.29,15.29,0,0,0,69.06,1a1.59,1.59,0,0,0,.36-.66C73.74.84,76,2.16,76.14,4.38Zm33.18-2c1.56,1.08,2.4,1.86,2.4,2.34s-.36.84-1.08,1.2A4.53,4.53,0,0,0,109.32,7V22.56c0,3.3-2,5.34-6,6.12-.42,0-.72-.36-.84-1.08a5.49,5.49,0,0,0-2.28-3A19.93,19.93,0,0,0,97,23.28a1.93,1.93,0,0,0,.12-.9,38.08,38.08,0,0,0,5.94.36c.84,0,1.32-.42,1.32-1.2V18.9H92.4a16.86,16.86,0,0,1-.78,2.94A9.61,9.61,0,0,1,88.8,26a14.85,14.85,0,0,1-6,4c-.3,0-.54-.18-.78-.54a17.42,17.42,0,0,0,4.14-5.64c.9-1.8,1.38-4.86,1.5-9.18,0-5.22-.06-8.46-.12-9.72q0-1.53-.18-3.6l5.58,2.46h10.68A10.07,10.07,0,0,1,106.44.9,7.42,7.42,0,0,1,109.32,2.34ZM92.7,14.4c0,1.08-.06,2.1-.12,2.94h11.76V12.42H92.7Zm0-3.6h11.64V5.28H92.64Z"/><path d="M171.6,8.76c1.8,1.68,2.76,2.76,2.76,3.24s-.66.9-1.86.9a14.13,14.13,0,0,0-1.74.3,42.91,42.91,0,0,1-7.8,5.46,1.86,1.86,0,0,1-.72-.54,28,28,0,0,0,2.94-6.72H128.94c0,.3.06.54.06.78,0,5.34-1.8,8-5.34,8.16-2.22,0-3.36-.72-3.42-2.28a3.76,3.76,0,0,1,.48-2.1c.12-.36,1.08-1.14,2.82-2.4,1.92-1.56,3.18-4,3.72-7.38.6.06,1,.06,1,.06a35.81,35.81,0,0,1,.54,3.66h35.82c1.86-2.16,3.12-3.3,3.78-3.48A14.48,14.48,0,0,1,171.6,8.76ZM165,27c0,.48-.36.72-1,.72h-3.3c-5.52,3.24-13.14,5.88-22.92,7.92V45c0,1.8,1,2.7,2.88,2.82h19a4.78,4.78,0,0,0,4.5-3.18q.9-2,2.16-9.54a10.41,10.41,0,0,0,1.08.06V44.4a1.89,1.89,0,0,0,1.32,1.74,2.9,2.9,0,0,1,1.44,2.16c-.12,1.86-1.92,3.12-5.34,3.78-3.84.3-7.8.48-11.88.48q-12.15,0-15.48-.36c-3.24-.24-4.8-2.94-4.8-8.28V23.28a33.7,33.7,0,0,0-.36-6.12c5.82,1,8.76,1.8,8.76,2.34s-1.08,1.32-3.24,2V34.26a63.53,63.53,0,0,0,19.86-12.42C162.54,24.72,165,26.46,165,27ZM149.58,2.4a4.92,4.92,0,0,1,2.52,4.44c0,1.74-1,2.58-3,2.58s-3.24-1-3.9-3.12a7.67,7.67,0,0,0-5.34-4.86A1.32,1.32,0,0,0,140,1h1.68A17.67,17.67,0,0,1,149.58,2.4Z"/><path d="M231.18,2.16c1.32,1,2,1.74,2,2.22a1.28,1.28,0,0,1-.72,1,5.22,5.22,0,0,0-1.32,1.26V8.58a10.22,10.22,0,0,1,.3,1.5q0,1.62-2.16,1.8a1.26,1.26,0,0,0,.24.36,8.19,8.19,0,0,1,1.32,2.34.43.43,0,0,1-.42.48h-7.92a23.86,23.86,0,0,0-4.74.48,13.42,13.42,0,0,1-.9-2.22,31.83,31.83,0,0,0,3.24.36h5.52c.6-.84,1.08-1.5,1.44-1.92-.48-.18-.78-.48-.78-.84v-.06H189.48l.06,8.82a110,110,0,0,1-1,16.62,37.39,37.39,0,0,1-2.52,9.42c-1.8,4.38-3.54,7.32-5.34,8.76a1,1,0,0,1-.84-.54,60.71,60.71,0,0,0,3.42-13c.72-4.2,1.14-11.22,1.2-21.06,0-7.5-.06-12.12-.06-13.92,0-1.5-.12-3.24-.24-5.22l5,2.22h36c1.44-1.56,2.46-2.4,3-2.46A9.23,9.23,0,0,1,231.18,2.16ZM189.48,9.3h36.84V4.5H189.48Zm9.72,35.82c-.24,1-1.2,1.5-2.82,1.5-1.08,0-1.68-.12-1.86-.48,0-1.5.06-3,.18-4.44V38.76c0-.3-.06-.54-.06-.78A39.43,39.43,0,0,1,191,39.54a4.62,4.62,0,0,1-.54-.78c4.5-2.7,7.68-5.52,9.48-8.4.06-.12.12-.18.18-.3h-2.52v.3c-.24,1.14-1.26,1.68-3.06,1.68-1.14,0-1.8-.18-2-.54a47.61,47.61,0,0,1,.24-5.1V23a7.54,7.54,0,0,0-.42-2.52l4.74,1.8h27.78c1.32-1.38,2.28-2.1,2.76-2.16a9.08,9.08,0,0,1,2.76,1.56c1.2,1,1.86,1.62,1.86,2s-.3.66-.78,1a10.44,10.44,0,0,0-1.5,1.14v2.22a12.3,12.3,0,0,1,.3,1.62,1.51,1.51,0,0,1-.12.6,7.4,7.4,0,0,1,2.34,1.38c1.62,1.2,2.46,2,2.46,2.52s-.3.66-.84.9c-.72.48-1.32.84-1.74,1.08-.3,7-1.08,11.52-2.4,13.8a8.56,8.56,0,0,1-6.48,4.86,1.08,1.08,0,0,1-1.2-.9,4,4,0,0,0-2.16-2.34,17.84,17.84,0,0,0-3-1.26,3.45,3.45,0,0,1,.12-.6,10.71,10.71,0,0,1,1.38.12c-.24-.36-.48-.72-.72-1.14-6.18,2-13.8,3.3-22.92,3.72-.3,1.56-.72,2.4-1.26,2.46-.36,0-.78-1-1.2-2.76s-.78-3.06-1-4.14a47,47,0,0,0,8.28.54c2.1,0,4-.06,5.82-.12v-3.9H199.2Zm6.42-28.26a8.2,8.2,0,0,1,1.2,2.16c0,.36-.18.54-.42.54h-8.82a23.86,23.86,0,0,0-4.74.48,17.82,17.82,0,0,1-.9-2.28,31.83,31.83,0,0,0,3.24.36H202c1.14-1.68,1.92-2.58,2.34-2.58C204.54,15.54,205,16,205.62,16.86Zm-.36-4.38a8.56,8.56,0,0,1,1.32,2.16.43.43,0,0,1-.42.48H197.7a23.86,23.86,0,0,0-4.74.48,19.29,19.29,0,0,1-1-2.22c.66.12,1.74.24,3.3.36h6.06c1.2-1.68,2-2.58,2.52-2.58C204.12,11.16,204.6,11.64,205.26,12.48Zm-9.12,24.78L198,38h7.56v-3.6h-4.62A35.06,35.06,0,0,1,196.14,37.26Zm7.26-13.44h-5.82v4.62h5.82ZM199.2,42.9h6.36V39.54H199.2Zm28.32-11.46c-1.32,0-2-.3-2.1-1v-.42H205.56a4.59,4.59,0,0,1-1,1.14,14.2,14.2,0,0,1-1.68,1.62h24a17.84,17.84,0,0,1,1.26-1.44A2.46,2.46,0,0,1,227.52,31.44Zm-13.14-7.62h-6v4.62h6Zm2-10.5c0,.36-.36.66-1,.9-1.08.48-1.56.78-1.56,1l.18,5q-.18,1.44-2.88,1.44-2.16,0-2.16-1.08c.06-1.92.12-3.66.12-5.22-.12-1.8-.18-3.12-.24-4.08C213.84,12.12,216.36,12.84,216.36,13.32Zm-1.2,32.58a2.52,2.52,0,0,0,.12-.3h1.44C219.84,46,221.4,47,221.4,49a2.12,2.12,0,0,1-.24,1,17,17,0,0,0,1.74.12q3.06,0,3.42-2a65,65,0,0,0,1.32-13.74H210.48V38h6.12c1.32-1.56,2.28-2.34,2.76-2.4a9.08,9.08,0,0,1,2.76,1.56c1.26,1,1.92,1.62,1.92,2s-.3.66-.84.9a7.59,7.59,0,0,0-1.44,1.2v1.38c.12.6.24,1,.24,1.08,0,1.14-.9,1.68-2.64,1.68-1.38,0-2.1-.3-2.1-.9h-6.78v3.72c2.88-.12,5.1-.24,6.72-.48A11.92,11.92,0,0,0,215.16,45.9Zm-4.68-3h6.78V39.54h-6.78Zm19.74-26a9.29,9.29,0,0,1,1.32,2.28c0,.36-.18.54-.42.54h-8.76a23.86,23.86,0,0,0-4.74.48,17.82,17.82,0,0,1-.9-2.28,31.83,31.83,0,0,0,3.24.36h6.36c1.2-1.86,2-2.82,2.52-2.82C229.08,15.48,229.56,16,230.22,16.92Zm-4.8,6.9H219.3v4.62h6.12Z"/><path d="M265.5,8.88C268,11,269.28,12.36,269.28,13s-.24.84-.6.84H252.42c-.06,1.68-.12,3.72-.12,6.24,0,1.38-.06,2.7-.06,3.9H259c1.44-1.8,2.4-2.76,2.94-2.76a9.07,9.07,0,0,1,2.76,1.56c1.44,1.14,2.16,1.92,2.16,2.28s-.6,1.08-1.68,1.8a1.83,1.83,0,0,0-.66,1.56,129.83,129.83,0,0,1-2,18.84c-1,4.2-3.48,6.36-7.68,6.36-.48,0-.84-.54-1-1.5a4,4,0,0,0-1.2-1.74,7.31,7.31,0,0,0-4-1.74c0-.12.06-.42.06-1,1.56.12,2.88.18,4,.24q5.22,0,5.58-4.32,1.26-5.85,1.44-17.82h-7.5c-.84,15.48-4.8,25.08-11.94,28.92a4.76,4.76,0,0,0-.3-.9q7-8.64,7-32.76c0-1.44.06-3.84.06-7.14a19,19,0,0,0-5.58.72A29.38,29.38,0,0,0,240,11.4a25.05,25.05,0,0,0,6.72.6h12.9c1.8-2.28,3.06-3.66,3.9-4.14.12,0,.3.06.48.06A15.36,15.36,0,0,1,265.5,8.88Zm-12-6.6c2.76,1.38,4.2,3,4.2,4.86a3.63,3.63,0,0,1-1.14,2.94,3.23,3.23,0,0,1-2,.54c-1.56,0-2.52-1-3-2.88a15.45,15.45,0,0,0-2-3.9,10.61,10.61,0,0,0-1.86-2.46c.12-.18.36-.42.6-.72A17.86,17.86,0,0,1,253.5,2.28ZM283.86,3.9c0,.36-.3.6-.9.84a15,15,0,0,0-2.64.66,6.16,6.16,0,0,0-.24.84,29.21,29.21,0,0,0,5.7,8.82c3.3,3.66,6.24,5.88,8.88,6.66a2.38,2.38,0,0,1-.12.9,4.08,4.08,0,0,0-2,1.8,12.65,12.65,0,0,1-.6,1.8c-.12.48-.36.72-.6.72-1.68,0-4.5-3.42-8.4-10.38a63.37,63.37,0,0,1-3.48-8.28c-3.12,9.36-7.44,16.2-13,20.64-.18,0-.42-.18-.66-.54,4.8-7.08,7.86-16.2,9.3-27.24C280.92,2.22,283.86,3.18,283.86,3.9Zm3.78,46.2a5.66,5.66,0,0,1-.36,2.22,2.53,2.53,0,0,1-2.64,1.5c-1.32,0-3.06-2-5.34-5.94a29.66,29.66,0,0,0-9.54-8.22c.18,0,.3-.12.42-.48C281.4,41.28,287.22,44.94,287.64,50.1ZM285.3,30.6a5.1,5.1,0,0,1-.78,3.18,2.44,2.44,0,0,1-1.8.72c-.9,0-1.8-1.08-2.76-3.3a22.92,22.92,0,0,0-6.18-6.9,1.8,1.8,0,0,1,.36-.66C281.34,25.56,285.06,27.9,285.3,30.6Z"/><path d="M314.4,5.22c1.62.36,2.46.78,2.46,1.26s-.36.72-1.08.84c-1.2.42-1.74.72-1.74.9V18.6h9v-13a19.57,19.57,0,0,1-.36-3.48c4.86.6,7.56,1.26,8.16,2.1,0,.54-.42.9-1.14,1.14q-1.62.81-1.62,1.08V18.6h9.3V6A22.12,22.12,0,0,1,337,2.28c5.16.6,8.1,1.38,8.7,2.28,0,.54-.42,1-1.2,1.2-1.2.6-1.74,1-1.74,1.14V18.6h2.34a36.4,36.4,0,0,1,3.78-4.38,1.47,1.47,0,0,1,.42.06c.48.12,1.62,1.14,3.54,3.18,1,1,1.5,1.68,1.5,2.16s-.36.72-1,.72H342.78V38.82c0,1.14-1.2,1.74-3.54,1.8-1.44,0-2.1-.3-2.1-1,0-1.14.06-2.28.06-3.42h-9.12v3.18c0,1.08-1.14,1.62-3.3,1.74-1.32,0-2-.3-2-1,.12-6.06.18-12.66.24-19.74h-9v18.9c.06,3.9.12,7.08.18,9.6h29.22c1.8-2.52,3-4.08,3.72-4.56a.87.87,0,0,1,.42-.12,11.07,11.07,0,0,1,2.76,2,13.7,13.7,0,0,1,3,3.42c0,.54-.18.84-.42,1H314.28c0,1.2,0,2.22.06,3.06,0,1-1.38,1.56-4.08,1.56-1.32,0-2-.42-2-1.2.12-2.4.18-7.32.18-14.88V20.34c-2.7.06-5.28.18-7.8.36a10.93,10.93,0,0,1-1.32-2.82,55.1,55.1,0,0,0,9.12.72V10.08q-.18-3-.54-5.76Q311,4.68,314.4,5.22Zm22.8,29.4c.06-4.56.12-9.36.18-14.28h-9.3V34.62Z"/><path d="M410.16,46.08c2.94,2.52,4.44,4,4.44,4.74,0,.54-.24.84-.6.84H374.7c-7.2,0-11.7.24-13.44.72a24.74,24.74,0,0,0-1.44-3.12,135,135,0,0,0,14.94.6h6.84V7.68a52.47,52.47,0,0,0-.36-6.9c6,.9,9.06,1.68,9.06,2.34s-.36,1-1.08,1.08c-1.32.54-2,1-2,1.32V21.9h11.58c1.8-2.58,3-4.08,3.72-4.56a.87.87,0,0,1,.42-.12,11.07,11.07,0,0,1,2.76,2,13.88,13.88,0,0,1,3,3.36c0,.6-.18,1-.42,1H387.24V49.86h16.14c2-2.7,3.54-4.32,4.5-4.92.18,0,.36.06.6.06A7.84,7.84,0,0,1,410.16,46.08Z"/><path d="M470.7,4.86a13.88,13.88,0,0,1,3,3.36c0,.6-.18,1-.42,1H434.34a40.88,40.88,0,0,1-3.9,5,39.37,39.37,0,0,1-9.66,8.46c-.12-.12-.3-.36-.66-.72,6.6-7.5,10.56-14.82,11.94-22,5.88,1.74,8.82,3,8.82,3.72s-1.38,1-4,1.38c-.48.9-1,1.74-1.44,2.46H463.8c1.8-2.58,3-4.14,3.72-4.62a.87.87,0,0,1,.42-.12A10.29,10.29,0,0,1,470.7,4.86ZM436.62,15.78H458.7q2.61-2.79,3.6-2.88A9,9,0,0,1,466,15.06c1.5,1.38,2.28,2.28,2.28,2.64s-.54,1-1.5,1.38a4.64,4.64,0,0,0-1.44,1.14c-.24,3.3-.42,6.3-.66,9h.9a18.35,18.35,0,0,1,3.6-3.78c.12,0,.3.06.48.06.36.24.84.54,1.32.9,2.28,2,3.48,3.24,3.48,3.78s-.24.84-.6.84h-9.3c-.48,5.34-1,9.6-1.62,12.84h3.42a17,17,0,0,1,3-3.48,2.12,2.12,0,0,1,.36-.06,10.31,10.31,0,0,1,2.16,1.56,11,11,0,0,1,2.34,2.7c0,.6-.18.9-.42,1H462.54a31.5,31.5,0,0,1-.9,3.48c-1.32,3.84-4.32,6-8.94,6.54-.6,0-1-.54-1.32-1.5a4.82,4.82,0,0,0-2.4-2.94,48.44,48.44,0,0,0-5-1.86,3.89,3.89,0,0,1,.12-1.14,49.34,49.34,0,0,0,8.1.72q4-.18,4-2.7a2.77,2.77,0,0,0,.3-.6h-24.3a9.28,9.28,0,0,1-.54,2q-.36,1.08-2.88,1.08c-2.4,0-3.54-.3-3.54-1,1.44-6.36,2.64-11.88,3.6-16.5a36.43,36.43,0,0,0-6.66.6,27.65,27.65,0,0,0-1.38-3.12c1.92.24,4.74.42,8.4.54,1.44-7.44,2.28-12.66,2.52-15.72C433.92,14.46,435.54,15.24,436.62,15.78ZM456.9,43.86A115.08,115.08,0,0,0,458.64,31H434.76c-1,5.88-1.74,10.14-2.28,12.84Zm1.92-14.64q.45-5.13.9-11.7H437q-1.08,6.66-2,11.7Zm-7.74,10c-.06,1.26-.48,2-1.26,2.28a3.3,3.3,0,0,1-1,.18c-.6,0-1.62-.72-2.94-2.22a16.89,16.89,0,0,0-7-5.34,6.16,6.16,0,0,1,.24-.84c.42.06,1.8.06,4.08.06C448.44,33.72,451.08,35.64,451.08,39.24Zm1.56-13.86c-.06,1.32-.48,2-1.26,2.28a3.3,3.3,0,0,1-1,.18c-.6,0-1.62-.72-2.94-2.28a18.12,18.12,0,0,0-7-5.58,2.07,2.07,0,0,1,.18-.78c.42.06,1.8.06,4.14.06C450,19.62,452.64,21.66,452.64,25.38Z"/><path d="M529.44,21.6c2.94,2.46,4.44,4,4.44,4.74s-.24.84-.66.84h-38.1c-7,0-11.34.24-13,.66a22.92,22.92,0,0,0-1.38-3.06,128.55,128.55,0,0,0,14.34.54H522.6a23.78,23.78,0,0,1,4.56-4.92c.12,0,.3.06.54.06A12.24,12.24,0,0,1,529.44,21.6Z"/><path d="M557.1,3.9q0,.81-3.78,1.26a98.75,98.75,0,0,1-3.9,10.8c2.76.72,4.14,1.32,4.14,1.68s-.42.54-1.2.78-1,.6-1,.78V38.76q.18,8.1.18,15.12c-.12.84-1.26,1.38-3.36,1.5-1.38,0-2-.36-2-1q.18-7.65.18-15.48V22.62A49.62,49.62,0,0,1,539.94,32a3.48,3.48,0,0,0-.6-.72c5.22-10.56,8.4-20.82,9.48-30.9C554.34,2,557.1,3.18,557.1,3.9Zm5.1.42h23q2.7-3.24,3.42-3.24a10.94,10.94,0,0,1,2.64,1.44q2.52,1.89,2.52,2.52c0,.36-.36.72-1,1.08a19.21,19.21,0,0,0-1.62,1.32V34.62c.06,9.36.18,15.54.3,18.78,0,1.26-1.32,1.92-4,1.92-1.08,0-1.62-.48-1.62-1.32V51.18H562.74v2.16c-.24,1.2-1.38,1.8-3.3,1.8-1.2,0-1.92-.24-2.16-.6,0-8.28.06-16.32.24-24.24V14.4c-.12-6.78-.24-10.8-.48-12.06ZM586,49.62V5.82H562.74v43.8Zm-2.34-33.9a9.25,9.25,0,0,1,1.56,2c0,.6-.24,1-.66,1h-7.68v9.54h.42c1.32-1.56,2.28-2.4,2.76-2.46a7.34,7.34,0,0,1,2.76,1.5c1.2,1,1.86,1.68,1.86,2.1s-.24.66-.72.9a6.32,6.32,0,0,0-1.38,1.2v6.78c.18,2.64.3,4.38.3,5.16,0,1.14-.9,1.74-2.7,1.74-1.32,0-2-.3-2.1-1v-2h-7.2v1.38c-.24,1.08-1.14,1.56-2.82,1.56-1,0-1.62-.18-1.86-.54,0-2.88.06-5.76.18-8.58V30.48a19.31,19.31,0,0,0-.36-4.26l5.4,2h.9V18.78c-4.8.12-7.26.3-7.26.48a19.62,19.62,0,0,1-1.14-3.12c.78.3,3.6.54,8.4.78V13.2c0-2.28-.12-4.08-.24-5.46,4.8.72,7.26,1.32,7.26,1.86s-.3.72-.9.84c-1,.42-1.56.78-1.56,1.08V17h2.1c1.44-1.92,2.34-2.88,2.82-2.88C582,14.1,582.66,14.64,583.62,15.72ZM578,40.62V29.82h-7.2v10.8Z"/><path d="M600.78,54.48a1.75,1.75,0,0,0-.78-.66q10-6.39,17.1-19.14c4-6.12,6.18-15.84,6.54-29.16l-.24-2.58a3.34,3.34,0,0,0-.66-1.56c7.26,1,10.92,1.92,10.92,2.82q0,.9-1.8,1.26a3.28,3.28,0,0,0-1.56,1.38L630.24,8c-.12,1.32-.24,2.52-.36,3.66a46.81,46.81,0,0,0,9.84,24.24c4.32,5.7,9,9.54,14.16,11.52a2.77,2.77,0,0,1-.3,1.38c-1.08.12-1.62.24-1.68.48a4.45,4.45,0,0,0-2.22,1.86c-.72,1.56-1.44,2.34-2.1,2.4-1.68,0-4.8-3.3-9.36-9.78Q630.93,33.3,629,17.46C625.68,36.06,616.26,48.36,600.78,54.48Z"/></g></g></svg>