<svg xmlns="http://www.w3.org/2000/svg" viewBox="0 0 853.8 55.44"><g id="图层_2" data-name="图层 2"><g id="图层_1-2" data-name="图层 1"><path d="M51.36,8.52c1.8,1.68,2.76,2.76,2.76,3.24s-.66.9-1.86.9a14.13,14.13,0,0,0-1.74.3,42.91,42.91,0,0,1-7.8,5.46,1.86,1.86,0,0,1-.72-.54,28,28,0,0,0,2.94-6.72H8.7c0,.3.06.54.06.78,0,5.34-1.8,8-5.34,8.16C1.2,20.1.06,19.38,0,17.82a3.76,3.76,0,0,1,.48-2.1c.12-.36,1.08-1.14,2.82-2.4C5.22,11.76,6.48,9.3,7,5.94,7.62,6,8,6,8,6a35.81,35.81,0,0,1,.54,3.66H44.4c1.86-2.16,3.12-3.3,3.78-3.48A14.48,14.48,0,0,1,51.36,8.52Zm-6.6,18.24c0,.48-.36.72-1,.72h-3.3c-5.52,3.24-13.14,5.88-22.92,7.92v9.36c0,1.8,1,2.7,2.88,2.82h19a4.78,4.78,0,0,0,4.5-3.18q.9-2,2.16-9.54a10.41,10.41,0,0,0,1.08.06v9.24a1.89,1.89,0,0,0,1.32,1.74,2.9,2.9,0,0,1,1.44,2.16c-.12,1.86-1.92,3.12-5.34,3.78-3.84.3-7.8.48-11.88.48q-12.15,0-15.48-.36c-3.24-.24-4.8-2.94-4.8-8.28V23A33.7,33.7,0,0,0,12,16.92c5.82,1,8.76,1.8,8.76,2.34s-1.08,1.32-3.24,2V34A63.53,63.53,0,0,0,37.38,21.6C42.3,24.48,44.76,26.22,44.76,26.76ZM29.34,2.16A4.92,4.92,0,0,1,31.86,6.6c0,1.74-1,2.58-3,2.58s-3.24-1-3.9-3.12A7.67,7.67,0,0,0,19.62,1.2,1.32,1.32,0,0,0,19.8.72h1.68A17.67,17.67,0,0,1,29.34,2.16Z"/><path d="M85.86,39.72c0,.48-1.2.84-3.54,1q-7.11,8.73-21.84,14.64a5.11,5.11,0,0,0-1-1c8.16-5.16,14.28-11.28,18.42-18.6Q85.86,38.46,85.86,39.72ZM75.3,6.18H98.94c1.68-1.92,2.82-2.94,3.42-3a10.86,10.86,0,0,1,3.48,1.92c1.56,1.2,2.34,2.1,2.34,2.58s-.36.84-1,1.2a12.15,12.15,0,0,0-1.74,1.44v13q.36,7.56.36,9.72c0,1.44-1.14,2.16-3.36,2.16-1.68,0-2.58-.36-2.64-1.14v-3.3H75v3c-.3,1.32-1.44,1.92-3.48,1.92-1.32,0-2.1-.18-2.34-.6,0-5,.06-9.84.24-14.58V11a46.38,46.38,0,0,0-.48-7.26Zm24.48,23V7.68H75V29.16Zm11.64,18.3a9.85,9.85,0,0,1,.48,3.3,3.32,3.32,0,0,1-3.54,3.48c-.72,0-1.5-1.14-2.4-3.3a20.75,20.75,0,0,0-3.18-4.44,56.65,56.65,0,0,0-10.2-9.18,9.77,9.77,0,0,1,.66-1Q108.54,42.42,111.42,47.46Z"/><path d="M134.46,28.68q-10.71,0-13.32.72a29.38,29.38,0,0,0-1.44-3.12,128.27,128.27,0,0,0,15.3.6h29.34c1.8-2.28,3.06-3.66,3.9-4.14.12,0,.3.06.54.06.42.24.9.6,1.44,1,2.52,2.16,3.84,3.48,3.84,4.08s-.24.84-.66.84H150.78v8.16h9.36a22.77,22.77,0,0,1,3.48-4.2.87.87,0,0,1,.42-.12,11.45,11.45,0,0,1,2.58,1.86,12.26,12.26,0,0,1,2.7,3.12c0,.6-.12,1-.36,1H150.78v9.6a124.57,124.57,0,0,0,12.54.54c4.26,0,8-.12,11.34-.42l.06,1.2a4.36,4.36,0,0,0-2.46,1.44,8,8,0,0,0-.78,2,1.47,1.47,0,0,1-1.62,1.44c-1.8,0-4.32-.06-7.44-.06-10.2-.24-17.46-1.62-21.9-4.08a14.81,14.81,0,0,1-6.72-7.5,16.52,16.52,0,0,1-1.68,2.88q-3.33,5.76-11.16,9.72a3,3,0,0,0-.66-1c5.82-5.22,9.06-11.28,9.72-18.24,0-1.44.06-2.82.06-4.08,5.52.72,8.34,1.32,8.34,1.86s-1,1.2-2.82,1.92a25.23,25.23,0,0,1-.9,4.62c2,2.88,4.14,4.68,6.36,5.52a15.58,15.58,0,0,0,4.38,1.44V28.68Zm-1-24.9h24.6c1.68-2,2.82-3,3.48-3.06A11.52,11.52,0,0,1,165,2.64c1.56,1.2,2.34,2.1,2.34,2.58s-.36.84-1.08,1.2a11.12,11.12,0,0,0-1.92,1.44v7.92c.24,3.12.36,5.1.36,6,0,1.44-1.14,2.16-3.3,2.16-1.68,0-2.58-.36-2.64-1.2V21.36h-24v1.38c-.3,1.32-1.44,1.92-3.48,1.92-1.32,0-2.1-.18-2.34-.66,0-3.48.06-6.9.24-10.26V7a22.93,22.93,0,0,0-.48-5.1Zm25.26,7.92V5.28h-24V11.7Zm0,8.1V13.26h-24V19.8Z"/><path d="M199.26,3.12c0,.48-.36.72-1,.84A9.69,9.69,0,0,0,196,4.8c-.72,2.94-1.32,5.64-1.92,8.16h5.46c1.68-1.92,2.82-2.88,3.36-2.88a10.21,10.21,0,0,1,3.42,2.28,9.48,9.48,0,0,1,2.16,2.58,1,1,0,0,1-.78,1c-.72.36-1.44.66-2.16,1-1,8.28-2.94,15.24-5.76,20.82,4.08,2,6.18,4.26,6.42,6.66a4.17,4.17,0,0,1-.72,2.88,2.09,2.09,0,0,1-1.68.72c-1.68,0-3.42-1.5-5.28-4.56-.36-.48-.78-1-1.14-1.44a31.86,31.86,0,0,1-16.08,12.72,3.49,3.49,0,0,1-.6-.78A47.36,47.36,0,0,0,193.92,39.3a3.54,3.54,0,0,0,.24-.48,51,51,0,0,0-6.36-4.26c-.36.9-.66,1.74-.9,2.46-.18,1-1.26,1.44-3.18,1.56s-2.88-.48-2.88-1.44a161.34,161.34,0,0,0,7.62-22.56,38.61,38.61,0,0,0-7.38.54q-.36-1.08-1.08-2.7c1.8.24,4.62.42,8.52.54h.3A83.6,83.6,0,0,0,190.68.6C196.38,1.8,199.26,2.64,199.26,3.12Zm-3.72,32.76c2.52-5.88,4-13,4.56-21.3h-6.48c-2,8-3.9,14.34-5.46,19C190.92,34.32,193.38,35.1,195.54,35.88ZM215,8.7H224c1.74-2,2.88-3,3.36-3A10,10,0,0,1,230,7.14q2.52,1.89,2.52,2.52t-.9,1.08a17.75,17.75,0,0,0-1.5,1.32v23.1c.12,7.92.24,13.26.36,16,0,1.26-1.38,1.92-4,1.92-1.08,0-1.56-.48-1.56-1.32V47.34h-9.78v4.92c-.24,1.2-1.38,1.8-3.3,1.8-1.2,0-1.92-.24-2.16-.6,0-7.44.06-14.7.24-21.78V17.4a102.38,102.38,0,0,0-.48-10.86Zm9.9,37V10.2h-9.78V45.72Z"/><path d="M285.6,5.28c0,.54-.6.84-1.74,1-.84.18-1.2.3-1.2.36a25.55,25.55,0,0,1-7.56,6.48h10.8c1.56-1.8,2.7-2.76,3.3-2.88a19.29,19.29,0,0,1,2.7,2c1.56,1.5,2.4,2.46,2.4,2.82,0,.54-.54.84-1.56.84a5.9,5.9,0,0,0-1.5.24,34,34,0,0,1-6.06,5.34,1.55,1.55,0,0,1-.66-.42,35.72,35.72,0,0,0,1.86-6.36h-38c-.06,5.58-1.8,8.46-5.28,8.58-1.92,0-2.88-.6-2.94-1.92a3.42,3.42,0,0,1,.42-1.86,11,11,0,0,1,2.7-2.52c1.92-1.56,3.12-4.08,3.6-7.5a8.15,8.15,0,0,0,.9.06c.24,1.2.36,2.4.48,3.6h16V6.6a45.87,45.87,0,0,0-.36-6.42c5.64.84,8.52,1.56,8.52,2.22,0,.48-.36.84-1.08,1q-1.8.72-1.8,1.26v8.46h3.66a21.17,21.17,0,0,0,4.74-10.56C283,3.84,285.6,4.8,285.6,5.28ZM256.8,19.56h18.66c1.56-1.86,2.58-2.82,3.18-2.88a10,10,0,0,1,3.24,1.8c1.44,1.08,2.22,1.92,2.22,2.4s-.3.72-.9,1.08a6.07,6.07,0,0,0-1.62,1.38v3.72c.18,1.44.3,2.4.3,2.82,0,1.32-1.08,2-3.12,2-1.56,0-2.4-.36-2.46-1.08V29.76h-7v6h11.58c1.8-1.8,2.88-2.76,3.3-2.76a19,19,0,0,1,2.58,1.44c1.62,1.2,2.46,2,2.52,2.46a1.41,1.41,0,0,1-.84,1.2,8.62,8.62,0,0,0-1.5,1.08v5.58c-.06,3.48-2,5.52-5.82,6.36q-1.26-.18-1.26-1.08A4.76,4.76,0,0,0,278,47.4a17.3,17.3,0,0,0-4.2-1.74,4.63,4.63,0,0,0,.12-.9,37,37,0,0,0,5.76.48c1.32,0,2-.36,2-1.08V37.32H269.28v8.16c.12,2.34.24,5.16.24,8.52,0,.72-1.08,1.2-3.18,1.32-1.68,0-2.52-.3-2.52-.84q.18-2.61.18-9.36v-7.8H252.48V50.1c-.24,1.2-1.38,1.8-3.3,1.8-1.2,0-1.92-.24-2.16-.6,0-2.76.06-5.4.24-8V38a15.17,15.17,0,0,0-.48-4l4.68,1.8H264v-6h-6.9v.9c-.24,1.2-1.38,1.8-3.3,1.8-1.2,0-1.92-.18-2.16-.6,0-2.28.06-4.5.24-6.66V20.82a10,10,0,0,0-.48-3.3ZM255.24,4.2q3.6,2,3.6,4.68a3.29,3.29,0,0,1-1,2.52,2.42,2.42,0,0,1-1.74.48c-1.26,0-2.1-.9-2.46-2.76a14.07,14.07,0,0,0-1.68-3.66,11.21,11.21,0,0,0-1.62-2.16c.12-.12.3-.36.54-.6A14.35,14.35,0,0,1,255.24,4.2ZM276.3,28.14V21.06H257.1v7.08Z"/><path d="M344.76,12.78a30.23,30.23,0,0,0,1.08-4.14H307.38V9c0,4.56-1.68,6.84-5,7-1.92,0-2.88-.66-2.94-2a3.34,3.34,0,0,1,.42-1.8,10.61,10.61,0,0,1,2.58-2.1,9.3,9.3,0,0,0,3.42-6.3c.6.06.9.06,1,.06.18,1.08.36,2.16.48,3.3h18.6a8.57,8.57,0,0,1-.9-1.08A13.64,13.64,0,0,0,320,1.32c.06-.24.18-.6.3-1,.48.06,2.16.06,5,.06,2.88.24,4.38,1.8,4.38,4.56a4,4,0,0,1-.6,2.16h16.26c1.62-1.92,2.7-2.94,3.3-3.12a16.32,16.32,0,0,1,2.76,2c1.56,1.44,2.34,2.4,2.34,2.76,0,.54-.54.84-1.56.84-.72.12-1.2.18-1.5.24a26.91,26.91,0,0,1-4.8,3.84c1.5,1.38,2.28,2.28,2.28,2.7,0,.6-.24.84-.66.84H336.78V22h2.34a16.6,16.6,0,0,1,3-3c.12,0,.3.06.42.06a8.71,8.71,0,0,1,1.14.72c1.92,1.68,2.88,2.7,2.88,3.18s-.24.84-.66.84h-9.12v5.7H344a18.35,18.35,0,0,1,3.6-3.78c.12,0,.3.06.48.06a13.33,13.33,0,0,1,1.38.9c2.28,2,3.48,3.24,3.48,3.78s-.24.84-.66.84H334.86a22.56,22.56,0,0,0,8,5.46,28.31,28.31,0,0,0,11.22,2.4,5.52,5.52,0,0,1-.12,1.14,5.41,5.41,0,0,0-1.56,1,12.21,12.21,0,0,0-1.2,2.4c-.24.84-.66,1.2-1.26,1.2-1.8,0-4.74-1.38-8.94-4.26a22.7,22.7,0,0,1-8-9.36H322.2a14.76,14.76,0,0,1-2.4,4.32c-3.36,4.44-10.08,7.56-20.22,9.36a2.75,2.75,0,0,0-.36-1c5.94-1.68,10.5-4.38,13.74-8a12.24,12.24,0,0,0,2.7-4.74h-.78c-6.84,0-11.16.24-12.84.72a20.57,20.57,0,0,0-1.38-3.12,120.75,120.75,0,0,0,14.88.6h.6v-5.7q-5.85.18-7.38.72a29.38,29.38,0,0,0-1.44-3.12,49,49,0,0,0,8.82.6V17.28c-4.56.06-7.38.3-8.58.66-.42-1-.9-2-1.38-3.12a61.15,61.15,0,0,0,10,.6c-.06-2.1-.18-3.84-.3-5.16,5.64.84,8.46,1.56,8.46,2.22,0,.48-.36.84-1,1-1.2.48-1.86.9-1.86,1.26v.72H331.5c-.06-2.16-.18-4-.36-5.34,5.64.84,8.52,1.56,8.52,2.22,0,.48-.36.84-1.08,1q-1.8.72-1.8,1.26v.9H340a17,17,0,0,1,3.3-3.36c.12,0,.24.06.42.06A9.77,9.77,0,0,1,344.76,12.78ZM338.1,51.36a6.14,6.14,0,0,1-.54,2.88,2.65,2.65,0,0,1-2.58,1.2c-.54,0-2.58-1.38-6.06-4.08a53.75,53.75,0,0,0-14.7-6c.12-.3.3-.72.54-1.2C330,45.36,337.8,47.76,338.1,51.36ZM334.74,40.2q0,3-2.7,3.24a2.69,2.69,0,0,1-1.44-.54,19.33,19.33,0,0,1-2.94-2.82,20.29,20.29,0,0,0-6.72-4.14c.12-.06.18-.24.3-.48.72,0,1.56-.06,2.52-.06C331,35.88,334.68,37.44,334.74,40.2ZM331.5,17.28H321.42V22H331.5Zm0,6.54H321.42v5.7H331.5Z"/><path d="M394.62,20.1a18.07,18.07,0,0,1,3.3,3.42c0,.54-.18.78-.48.78h-11v5.58h3.42c7.5-4,13.26-8.46,17.22-13.32,4.32,1.92,6.48,3.24,6.48,3.9-.12.36-.36.48-.78.48h-1.86a61.23,61.23,0,0,1-12,8.94h6.72a15.49,15.49,0,0,1,3.3-3.36h.42c.36.24.78.48,1.26.84,2.1,1.8,3.18,3,3.18,3.48s-.24.84-.66.84H395.7a87.38,87.38,0,0,1-11.58,5h14.94c1.68-1.92,2.76-2.94,3.36-3.06a7.49,7.49,0,0,1,2.82,1.74c1.5,1.32,2.28,2.16,2.28,2.52s-.3.78-.78,1.14a7.94,7.94,0,0,0-1.5,1.26V47.7c.12,1.92.18,3.9.18,6-.12.84-1.32,1.32-3.54,1.44-1.2,0-1.86-.3-2-.78V52.08H378.48v1.56c0,1-1.08,1.44-3.24,1.56-1.68,0-2.58-.24-2.58-.6.06-1,.12-3.3.12-7V39.9a112.45,112.45,0,0,1-12.48,2.22,3.85,3.85,0,0,0-.36-.6,159.18,159.18,0,0,0,26.46-9.84H374.76c-7,0-11.4.24-13.08.66q-.63-1.53-1.44-3.06a131.69,131.69,0,0,0,15.54.6h5.4V24.3H372.9a28.2,28.2,0,0,0-5.76.48c-.24-.72-.48-1.5-.78-2.46a38.21,38.21,0,0,0,6.54.42h8.28c-.06-1.92-.18-3.48-.3-4.74,5.64.84,8.46,1.56,8.46,2.22,0,.48-.36.84-1,1-1.2.48-1.86.9-1.86,1.26v.3h4.14a22.73,22.73,0,0,1,2.4-2.82,1.34,1.34,0,0,1,.6-.42A2.75,2.75,0,0,1,394.62,20.1ZM374.34,3.6h24.12c1.68-1.92,2.82-2.88,3.48-2.94a11.52,11.52,0,0,1,3.42,1.92c1.56,1.2,2.34,2.1,2.34,2.58s-.36.84-1.08,1.2A11.12,11.12,0,0,0,404.7,7.8v5.1c.24,2,.36,3.24.36,3.84,0,1.44-1.14,2.16-3.3,2.16-1.68,0-2.58-.36-2.64-1.2v-.36H374.94v.78c-.3,1.32-1.44,2-3.48,2-1.32,0-2.1-.18-2.34-.66,0-2.82.06-5.58.24-8.34V5.64a16,16,0,0,0-.48-4.14Zm24.78,5.88V5.1H374.94V9.48Zm0,6.24V11H374.94v4.68Zm.78,27.48V38.28h-21a1.34,1.34,0,0,1-.6.18V43.2Zm0,7.26V44.82H378.3v3.12c0,.78.06,1.56.12,2.52Z"/><path d="M487.38,33.36c0,.48-.36.66-1,.66s-1.44.12-2.1.12a43.68,43.68,0,0,1-10.08,5.28A13.57,13.57,0,0,0,478,42.66a39.17,39.17,0,0,0,16.86,5.82,4.93,4.93,0,0,0-.12,1.38,3.87,3.87,0,0,0-1.92.66,6.18,6.18,0,0,0-1.8,2.7c-.36.9-.72,1.38-1.14,1.38-3.24-.72-7.2-2.94-11.94-6.6-3.72-2.76-6.9-7.08-9.48-13a24,24,0,0,1-7,11.16c-5.1,4.38-11.76,7.38-20,8.94q-.18-.09-.36-1.08a35.68,35.68,0,0,0,12.72-6.42,24.59,24.59,0,0,0,7.86-10c1.68-3.3,2.52-8,2.52-14.28,2,.54,4.26,1.08,6.84,1.68,1.5.48,2.28,1,2.28,1.38a1,1,0,0,1-.9,1c-.78.36-1.68.78-2.64,1.2a34.56,34.56,0,0,1-.6,4,38.89,38.89,0,0,0,4.26,6.06c3.72-3.18,6.18-6.42,7.38-9.66C485.16,31.38,487.38,32.88,487.38,33.36Zm-25.26-11.1c-5,4.26-11.52,7.14-19.56,8.64q-.18-.09-.36-1.08a33.27,33.27,0,0,0,12.36-6.24,23.91,23.91,0,0,0,7.56-9.72c1.56-3.18,2.4-7.8,2.4-13.8,2,.48,4.32,1.08,6.9,1.68,1.5.48,2.28.9,2.28,1.32a1.07,1.07,0,0,1-.9,1c-.78.36-1.68.78-2.64,1.14a26.65,26.65,0,0,1-2.7,9.78c14.88,2.76,22.56,6.48,23.16,11.16a3.32,3.32,0,0,1-.54,1.92,2.48,2.48,0,0,1-2.28,1.44c-1.44-.06-3.9-2-7.38-5.88-3.24-2.88-7.74-5.4-13.38-7.68A24.11,24.11,0,0,1,462.12,22.26Zm-6.24,8a22,22,0,0,1-.36,4.08c-1.14,5.4-3.72,8-7.74,8-2,0-2.94-.78-2.94-2.34,0-.66.54-1.38,1.56-2.22,4.2-1.74,7-4.26,8.46-7.62C455.28,30.18,455.64,30.24,455.88,30.24Zm.06-24.9a22,22,0,0,1-.36,4.08c-1,5.64-3,8.46-6.24,8.46q-2.88,0-2.88-2.34a3.55,3.55,0,0,1,1.5-2.28,13.77,13.77,0,0,0,7-8C455.34,5.28,455.7,5.34,455.94,5.34Zm32.94,2.82a.76.76,0,0,1-.72.84,24.54,24.54,0,0,1-2.82-.18,42.2,42.2,0,0,1-11.88,5.58,10.82,10.82,0,0,1-.48-1.26,25.35,25.35,0,0,0,9.42-10Q488.88,7.8,488.88,8.16Z"/><path d="M509.46,21.18a6.11,6.11,0,0,1-.3,2A2.27,2.27,0,0,1,506.88,25c-.72,0-1.68-.9-2.94-2.7a16.22,16.22,0,0,0-4.26-4.32,1.34,1.34,0,0,0,.42-.72Q509.1,17.94,509.46,21.18Zm6-8.4c-1,4.56-2.46,10.5-4.26,17.88-1.74,7.2-2.58,11.34-2.58,12.42a16.13,16.13,0,0,0,.72,4.32,17.93,17.93,0,0,1,.78,3.6c0,1.8-1,2.76-3,2.76-2.4,0-3.66-1.2-3.72-3.48a44.61,44.61,0,0,1,.54-4.86c0-2-.48-3.36-1.32-4a10.88,10.88,0,0,0-2.88-1.32,2.39,2.39,0,0,1,.18-1c.48,0,1,.06,1.44.06,2.28,0,3.9-1.32,4.8-3.9l8.4-22.92C514.56,12.6,514.86,12.72,515.46,12.78ZM512.4,7.86a6.78,6.78,0,0,1-.3,2.1,2.31,2.31,0,0,1-2.34,1.68c-.72,0-1.68-.9-3-2.76a17.38,17.38,0,0,0-4.38-4.5,1.57,1.57,0,0,0,.42-.78C509,4.14,512.16,5.58,512.4,7.86Zm15.84,31.68c0,.48-1.2.72-3.54.72A44,44,0,0,1,514,50.1a8.27,8.27,0,0,0-1.2-.48,38.72,38.72,0,0,0,8.34-14.28C525.84,37.5,528.24,38.88,528.24,39.54ZM550.32,6.3c2.52,2.16,3.78,3.48,3.78,4.08s-.24.84-.6.84H525.84c-5,0-8.22.24-9.42.72A29.38,29.38,0,0,0,515,8.82a55.11,55.11,0,0,0,10.08.6h19.38c1.8-2.28,3.06-3.66,3.9-4.14.12,0,.3.06.48.06A15.36,15.36,0,0,1,550.32,6.3Zm-26,10.44h17.94c1.56-2,2.64-3.12,3.24-3.18a10.7,10.7,0,0,1,3.18,1.8c1.44,1.08,2.22,1.92,2.22,2.4s-.3.72-.9,1.08a9.33,9.33,0,0,0-1.5,1.38V27c.18,2.64.3,4.32.3,5,0,1.32-1.08,2-3.12,2-1.56,0-2.4-.36-2.46-1.08V30.3h-7V48.48c0,3.6-2.22,5.64-6.54,6.24-.48,0-.84-.54-1.08-1.56a4,4,0,0,0-2.94-2.64,18.29,18.29,0,0,0-3.84-1.32,2.19,2.19,0,0,1,.12-.84c1.62.12,4,.3,7.26.48,1.14,0,1.74-.42,1.74-1.26V30.3h-6.42v2c-.24,1.2-1.38,1.8-3.3,1.8-1.2,0-1.92-.18-2.16-.6,0-3,.06-5.88.24-8.76V19a17.26,17.26,0,0,0-.48-4.38Zm18.9,1.5H524.58v10.5h18.66Zm-6.9-13.56A7.63,7.63,0,0,1,536,6.9a2.55,2.55,0,0,1-2.52,1.8c-.72,0-1.68-1-2.94-2.88a16.48,16.48,0,0,0-4.2-4.62,1.54,1.54,0,0,0,.42-.84Q536,1.17,536.34,4.68ZM551.7,46.32a4.41,4.41,0,0,1-.84,3.12,2.49,2.49,0,0,1-1.8.78c-.84,0-1.74-1.44-2.7-4.44a28.46,28.46,0,0,0-6.12-9.3c.12-.24.24-.42.36-.66C547.8,38.76,551.46,42.24,551.7,46.32Z"/><path d="M580.26,16.26c0,.42-.78.78-2.22,1,7.8,2,11.76,5.1,11.76,9.3a4.18,4.18,0,0,1-.3,1.5q-.27,1.17-2,1.44c-.72,0-1.74-1.14-3.12-3.48a30.67,30.67,0,0,0-8.28-8,44.15,44.15,0,0,1-6.06,7.32,38.6,38.6,0,0,1-9.72,7.2,8.8,8.8,0,0,1-.6-.66c6.72-6.54,10.8-12.9,12.24-19.14C577.5,14.4,580.26,15.54,580.26,16.26Zm-4.2-12c0,.72-1,1.08-2.94,1.2-2.52,4.2-6.48,8.22-11.88,12A3.64,3.64,0,0,0,560.1,17a35.3,35.3,0,0,0,8.7-15.66C573.6,2.76,576.06,3.72,576.06,4.26Zm-6.66,29h10.44q2.34-3.24,3.24-3.42a10.7,10.7,0,0,1,3.18,1.8c1.44,1.14,2.22,1.92,2.22,2.4s-.36.78-1,1.14a6.07,6.07,0,0,0-1.62,1.38v8.82c.18,3.48.3,5.64.3,6.66,0,1.32-1.08,2-3.12,2-1.56,0-2.4-.36-2.46-1.08V50.4H570.3V53c-.24,1.2-1.38,1.8-3.3,1.8-1.2,0-1.92-.24-2.16-.6,0-3.6.06-7.08.18-10.56v-7a23,23,0,0,0-.42-5.28Zm11.22,15.54v-14H570.3v14Zm9-38.58a4.7,4.7,0,0,1-.84,3.18,2.44,2.44,0,0,1-1.8.72c-1,0-1.92-1.14-2.88-3.54a22.89,22.89,0,0,0-6.54-7.38l.36-.72Q589.26,5.76,589.62,10.26ZM598.08,5h7.14A11,11,0,0,1,608,2.1a7.42,7.42,0,0,1,2.88,1.44c1.62,1.08,2.46,1.86,2.46,2.4,0,.36-.42.78-1.14,1.14a3.76,3.76,0,0,0-1.32,1.2v32.1q0,5.4-6.3,6.66c-.42,0-.66-.36-.78-1.14a5.57,5.57,0,0,0-2.22-3.24,14.59,14.59,0,0,0-3-1.5,7.55,7.55,0,0,0,.06-1,38.08,38.08,0,0,0,5.94.36,1.16,1.16,0,0,0,1.32-1.26V6.66h-8.82v46.5c-.24,1.2-1.38,1.8-3.3,1.8-1.2,0-1.92-.24-2.16-.6,0-8.22.06-16.26.24-24.06V14.46c-.12-6.72-.24-10.74-.48-11.94Z"/><path d="M670,5.94c2.7,2.28,4.08,3.78,4.08,4.38s-.24.84-.6.84H642.12a57.07,57.07,0,0,1-5.46,8.34l1.92,1H659a10.13,10.13,0,0,1,3-2.94,8.74,8.74,0,0,1,3.12,1.5c1.68,1.2,2.58,2,2.58,2.58s-.42.84-1.14,1.26a3.91,3.91,0,0,0-1.44,1.26V47.64c0,3.9-2,6.3-5.82,7.26-.6,0-1-.42-1.14-1.26A6.34,6.34,0,0,0,655,50.1a24.89,24.89,0,0,0-4.38-1.56,2.64,2.64,0,0,0,.12-1.08,50.85,50.85,0,0,0,7.62.42,1.26,1.26,0,0,0,1.44-1.38V40.2H638.46c0,4.08.12,8.46.3,13.08q-.54,1.62-4.14,1.62c-1.2,0-1.8-.36-1.8-1,.06-5.64.12-11.82.12-18.54V23.94A76.06,76.06,0,0,1,620.22,35c-.48,0-.66-.24-.66-.78a76.29,76.29,0,0,0,16.74-23.1h-1.8c-7.08,0-11.52.24-13.26.72a29.38,29.38,0,0,0-1.44-3.12,124.23,124.23,0,0,0,15.06.6h2.28A74.75,74.75,0,0,0,640.32,0c5.52,1.2,8.34,2.22,8.34,3.06,0,.6-1.14,1.08-3.42,1.5-.72,1.68-1.44,3.24-2.16,4.8h20.58a23.68,23.68,0,0,1,4.2-4.56c.18,0,.36.06.54.06Q669.12,5.31,670,5.94Zm-10.2,23.34V22.14H638.46v7.14Zm0,9.36v-7.8H638.46v7.8Z"/><path d="M729.48,5.4c1.8,1.86,2.7,3.18,2.7,3.9s-1,.9-2.76.9c-.12,0-.72-.06-1.74-.06a153.23,153.23,0,0,1-16.26,7.74.85.85,0,0,0,.36.12.94.94,0,0,1,.42.78,1.39,1.39,0,0,1-.9,1,6.1,6.1,0,0,0-1.08.6V47.7c-.36,4.26-3.18,6.72-8.4,7.38-.66,0-1.08-.6-1.2-1.74q-.45-1.89-3.6-3.6a15.3,15.3,0,0,0-4.08-1.5,3.94,3.94,0,0,1,.24-1.38,67.53,67.53,0,0,0,8.34.84c1.92,0,2.94-.78,2.94-2.46V25.8a80,80,0,0,0-.36-9.3c1.68.24,3.3.48,5,.84a98.14,98.14,0,0,0,13.38-9.9h-27a91.85,91.85,0,0,0-11.4.72c-.6-1.32-1.08-2.34-1.44-3.18a76.86,76.86,0,0,0,12.84.84H722C724.5,4,726,3,726.54,3A10.6,10.6,0,0,1,729.48,5.4Z"/><path d="M773.16,2.46c0,.6-.42,1-1.14,1.08-1.26.54-1.92,1-1.92,1.38V23.4h12.12c.06-4.14.12-8.7.12-13.62A22.65,22.65,0,0,1,782,6c5.16.66,8.1,1.44,8.7,2.28q0,.9-1.26,1.26c-1.14.54-1.68.9-1.68,1.08V26.7c0,1.08-1.2,1.68-3.54,1.8-1.44,0-2.16-.3-2.16-1s.06-1.62.06-2.46H770.1V48.84h13.44c.06-4.44.12-9.24.12-14.4a23.37,23.37,0,0,1-.36-3.78c5.22.66,8.1,1.44,8.7,2.28,0,.6-.42,1-1.2,1.26-1.14.54-1.68.9-1.68,1.08V53.22c0,1.08-1.2,1.74-3.6,1.86-1.44,0-2.1-.36-2.1-1.08,0-1.2.06-2.4.06-3.6H750.3v2.94c0,1.08-1.2,1.68-3.54,1.8-1.44,0-2.16-.36-2.16-1,.12-5.76.24-12.42.24-19.86a22.65,22.65,0,0,1-.3-3.78c5.16.66,8.1,1.44,8.7,2.28q0,.9-1.26,1.26c-1.14.54-1.68.9-1.68,1.08V48.84h14.16V25H752.4V26.7c0,1.08-1.2,1.68-3.54,1.8-1.44,0-2.1-.3-2.1-1,.12-5.22.24-11.16.24-17.88a23.37,23.37,0,0,1-.36-3.78c5.16.66,8.1,1.44,8.7,2.28,0,.6-.42,1-1.2,1.26-1.2.54-1.74.9-1.74,1.08v13h12.06V7a52.47,52.47,0,0,0-.36-6.9C770.1,1,773.16,1.8,773.16,2.46Z"/><path d="M832.26,2.46c0,.48-.36.84-1.08,1q-1.8.72-1.8,1.26V5.1h10.14a17,17,0,0,1,3-3.48.46.46,0,0,1,.3-.12A8.08,8.08,0,0,1,845,3.12a11.86,11.86,0,0,1,2.28,2.64c0,.6-.18,1-.42,1H829.38v4h16c1.62-1.86,2.7-2.88,3.3-3a18.64,18.64,0,0,1,2.76,2c1.56,1.5,2.34,2.46,2.34,2.82,0,.54-.54.78-1.56.78a9.1,9.1,0,0,0-1.5.3,31.46,31.46,0,0,1-5.46,4.8,1.71,1.71,0,0,1-.6-.42,37.34,37.34,0,0,0,1.2-5.7H809l.06,2.28c0,10.2-.36,17.1-1,20.76a40.94,40.94,0,0,1-1.86,8.1c-1.62,4.56-3.6,7.74-6,9.66-.48-.12-.72-.3-.78-.66,2.76-6,4.2-17,4.2-32.94V12.24a16.31,16.31,0,0,0-.42-3.72l5.52,2.22H824.1V6.66a45.87,45.87,0,0,0-.36-6.42C829.38,1.08,832.26,1.8,832.26,2.46ZM820,26c1.2.48,1.86.84,1.92,1.08s-.36.66-1,.84a17.73,17.73,0,0,0-2,.54,21.92,21.92,0,0,1-1.2,3.18h5.58c1.5-1.68,2.4-2.58,2.76-2.58a6.31,6.31,0,0,1,2.82,1.44c1.56,1.08,2.4,1.86,2.4,2.22s-.42.78-1.26,1.14-1.2.72-1.32,1.08a30.53,30.53,0,0,1-5.76,9.6,13.16,13.16,0,0,0,2,1.38c3.6,2.1,9.84,3.12,18.78,3.12a58,58,0,0,0,10.08-.84c0,.3-.06.72-.06,1.2a3.1,3.1,0,0,0-2.1,2.64,1.78,1.78,0,0,1-2,1.92c-7.2,0-11.76-.24-13.68-.6-6.84-.84-12-3-15.36-6.48-.66.54-1.32,1-1.92,1.5a36,36,0,0,1-12.18,6.18,1.11,1.11,0,0,1-.42-.54,41.61,41.61,0,0,0,11.28-9l.9-1.08a22.11,22.11,0,0,1-3-7.86,25.4,25.4,0,0,1-7,6.66l-.72-.36c3.84-4.92,6.12-11,6.9-18.42C816.9,24.84,818.76,25.5,820,26Zm22-9.42c1.08,1.14,1.68,1.86,1.68,2.22s-.24.48-.6.48c-6,.18-11.16.36-15.42.48v1.26q.18,1.62,2.7,1.62h9.36a10,10,0,0,0,4.14-.6,4.28,4.28,0,0,0,2.4-1.62,1.11,1.11,0,0,0,.42-.12,4.32,4.32,0,0,1,2.46,1.32,4.78,4.78,0,0,1,1.5,1.92c0,.24-.06.48-.06.6q-.72,2.52-14,2.52a64.24,64.24,0,0,1-8.46-.3c-3.54,0-5.52-1.26-5.88-3.84V20c-7,.3-10.86.48-11.58.6a25.69,25.69,0,0,1-.84-2.58q2.79,0,12.42-.18v-.06c-.12-1.62-.24-3.3-.36-5.1l6.06,1.14c1.56.42,2.4.78,2.52,1a1.29,1.29,0,0,1-1.08,1c-.42.18-1,.42-1.68.78v1.2q4.14,0,9.18-.18a14.26,14.26,0,0,1,2.64-3.12A16.88,16.88,0,0,1,842,16.62ZM819.9,41.7a22.39,22.39,0,0,0,3.78-8.64h-6.6c-.3.6-.6,1.08-.84,1.56A19.81,19.81,0,0,0,819.9,41.7Zm15.6-11h4.92c1.26-1.38,2.16-2.1,2.64-2.1a9.61,9.61,0,0,1,3,1.56c.66.54,1,1,1,1.32a2.19,2.19,0,0,1-1.2,1.26v7.38A1,1,0,0,0,847,41.22h1.92a1.6,1.6,0,0,0,.9-.78c.24-.24.54-1.92.84-5a2.07,2.07,0,0,0,.54.06,13.59,13.59,0,0,0,.12,2.64c.06,1.26.36,2,.9,2.22a2.47,2.47,0,0,1,1.2,1.92,4.18,4.18,0,0,1-.12,1,3,3,0,0,1-2.58,1.86,15.12,15.12,0,0,1-2.58.3,17.07,17.07,0,0,1-2.88-.12c-3,0-4.62-1.32-4.74-4l.06-8.88h-3.78c.06,1.08.12,1.86.12,2.4,0,5.28-2.76,9.06-8.16,11.34a1.82,1.82,0,0,1-.54-.6,16.28,16.28,0,0,0,2.7-5,19.64,19.64,0,0,0,.84-6.66,19.15,19.15,0,0,0-.36-4.8Z"/></g></g></svg>