<svg xmlns="http://www.w3.org/2000/svg" viewBox="0 0 674.58 55.26"><g id="图层_2" data-name="图层 2"><g id="图层_1-2" data-name="图层 1"><path d="M50.58,12.18c0,.54-.54,1.14-1.56,1.86a5,5,0,0,0-1.14,1c-.18,12.06-.78,19.08-1.86,21a7.22,7.22,0,0,1-6.9,4.38c-.6-.12-1-.78-1.14-2a5.48,5.48,0,0,0-2-2.94,17.91,17.91,0,0,0-3.42-1.32l.42-1.14a26.72,26.72,0,0,0,5.1.72c1.92,0,3-.54,3.3-1.62.66-2.1,1-8,1-17.76-4.08,1.08-7.86,2.1-11.22,3V27.72c.12,6.78.18,11.58.3,14.34,0,1.08-1.38,1.56-4,1.56-1.38,0-2-.36-2-1.2.12-2.34.18-7.32.24-14.94V18.9c-4,1.08-7.32,2-10.2,2.82v23c.24,2.16,2.4,3.24,6.6,3.24h22.5a3.64,3.64,0,0,0,4-3.42A66.52,66.52,0,0,0,49.92,36a3.38,3.38,0,0,0,1.38.3c0,1.14-.06,3.9-.18,8.34A2.52,2.52,0,0,0,52.26,47c1.38.78,2.1,1.56,2.1,2.28q0,3.06-5,3.6-2.7.36-12.78.36c-12.24,0-18.36-.12-18.36-.24-5.7-.12-8.52-2.64-8.52-7.56V23.34a56,56,0,0,0-7.74,2.58A15.41,15.41,0,0,0,0,23.1a54.59,54.59,0,0,0,9.66-1.68V11.16c-.12-1.92-.18-3.84-.3-5.82,5.94,1,8.94,1.74,8.94,2.28q0,1.08-2.88,2V20c3-.78,6.42-1.68,10.2-2.76V6.78C25.5,4.86,25.26,2.94,25,1c2,.24,4.2.6,6.48,1,1.62.3,2.46.72,2.46,1.26s-.36.66-1.08.78c-1.2.42-1.74.72-1.74,1V15.66c3.24-.9,6.66-1.92,10.32-3.06,1.32-2.52,2.4-3.84,3.18-3.84Q50.58,11.1,50.58,12.18Z"/><path d="M82.86,6.42a19.41,19.41,0,0,1,3.6,3.72c0,.48-.18.72-.48.72H77.1V13.8c5.28,2.76,7.92,5.22,8,7.44,0,1.56-.42,2.52-1.26,3a2.78,2.78,0,0,1-1.5.36c-.78,0-1.44-.9-1.92-2.82a27.25,27.25,0,0,0-3.3-6.36V32c0,1.08-1.14,1.62-3.36,1.68-1.32,0-1.92-.3-1.92-1,0-4.08.06-8.46.12-13.14A29.4,29.4,0,0,1,61.2,30.36c-.24,0-.42-.18-.54-.66a37.46,37.46,0,0,0,9.12-16.32q.45-1.53.72-2.52h-2a27.37,27.37,0,0,0-5.76.48c-.24-.66-.48-1.44-.84-2.4a39.59,39.59,0,0,0,6.6.42H72V3.78A26.4,26.4,0,0,1,71.7.24q7.29.9,8.1,2.16c0,.54-.42.9-1.14,1.14-1.08.54-1.56.9-1.56,1v4.8h1.44a28.56,28.56,0,0,1,2.58-3.12,1.2,1.2,0,0,1,.66-.42A3.35,3.35,0,0,1,82.86,6.42ZM69.72,38.1c.12,1.14.18,2.94.18,5.34-.06,5.16-2,7.68-5.82,7.8-2,0-3.12-.72-3.24-2a5,5,0,0,1,2-3.48,10.65,10.65,0,0,0,3.6-3.12A11.16,11.16,0,0,0,68.64,38,7.35,7.35,0,0,1,69.72,38.1ZM82,37.8c0,.72-1.08,1.38-3.18,2.1v6c0,1.8,1,2.7,2.88,2.82H92.34c2.16,0,3.66-.72,4.5-2.1.6-.9,1.32-3.06,2.16-6.42a10.41,10.41,0,0,0,1.08.06v6.3c0,.54.42,1,1.14,1.2.84.48,1.26,1,1.26,1.5-.12,1.86-1.86,3.12-5.28,3.72a73.56,73.56,0,0,1-8.16.48,91.42,91.42,0,0,1-10.62-.36c-3.24-.24-4.8-2.94-4.8-8.22V41.64a33.33,33.33,0,0,0-.42-6.18C79,36.54,82,37.32,82,37.8ZM93.9,41.28a6.11,6.11,0,0,1-.3,2,2.39,2.39,0,0,1-2.34,1.74c-.6,0-1.38-1.14-2.46-3.48a19.37,19.37,0,0,0-3.6-5.7,1.34,1.34,0,0,0,.42-.72Q93.54,36.24,93.9,41.28ZM92.34,3.84H103.5c1.56-1.92,2.64-2.94,3.24-3A10,10,0,0,1,110,2.64c1.44,1.08,2.16,1.92,2.16,2.4s-.3.72-.84,1.08a13.53,13.53,0,0,0-1.62,1.38v14c.24,5.46.36,9,.36,10.56,0,1.32-1.08,2-3.12,2-1.56,0-2.4-.36-2.46-1.08V30.78H92.88V32.1c-.24,1.2-1.38,1.8-3.3,1.8-1.2,0-1.92-.18-2.16-.6,0-5,.06-9.84.24-14.64V9.12a46.38,46.38,0,0,0-.48-7.26Zm12.12,8.28V5.34H92.88v6.78Zm0,8V13.68H92.88v6.48Zm0,9.06V21.78H92.88v7.44ZM113.52,47a3.16,3.16,0,0,1-1.14,2.76,3.23,3.23,0,0,1-1.92.66c-1.44,0-2.46-1.44-3-4.44a16.82,16.82,0,0,0-4.2-7.86,8.55,8.55,0,0,1,.72-.66Q113.52,42.48,113.52,47Z"/><path d="M135,14.76c1.26,1.2,1.92,2,1.92,2.46s-.6.9-1.8,1.38a3.22,3.22,0,0,0-1.2.54c-2.58,4.86-4.62,8.58-6.06,11.22h3.24c1.38-1.92,2.22-2.94,2.52-2.94a6.77,6.77,0,0,1,2.64,1.32c1.44,1,2.16,1.68,2.16,2s-.36.72-1.08,1.08a2.07,2.07,0,0,0-1.26,1,37.77,37.77,0,0,1-4.5,11.22,17.18,17.18,0,0,0,7.5,3.66q4.41,1.62,16.92,1.62c9.06-.24,15.3-.78,18.72-1.5,0,.6,0,1,.12,1.08a5.49,5.49,0,0,0-1.68,1,3.4,3.4,0,0,0-1.08,2.1,1.73,1.73,0,0,1-2,1.92c-8.64,0-13.8-.18-15.36-.42-8.4,0-14.46-1.08-18.12-3.18a18.35,18.35,0,0,1-5.82-5.16,22.74,22.74,0,0,1-2,2.58,25,25,0,0,1-8.82,6.9.8.8,0,0,1-.42-.48,36.61,36.61,0,0,0,7.62-9.66A36.07,36.07,0,0,0,131.4,31.8h-4.32c-.48.84-.84,1.5-1.14,2s-.9.9-2,.9c-1.86-.12-2.76-.54-2.76-1.38q4.86-8.46,8.46-16h-6.66c-.6.06-1.32.18-2.16.3-.36-.78-.66-1.5-1-2.16a14.48,14.48,0,0,0,2.82.3h6.72q2.7-2.7,3.06-2.7C133,13,133.92,13.62,135,14.76ZM130.38,2.88c2.64,1.68,4,3.6,4,5.88a3.65,3.65,0,0,1-1.2,2.94,2.9,2.9,0,0,1-2,.6c-1.32,0-2.16-1.14-2.64-3.54a20.65,20.65,0,0,0-1.68-4.62,13.14,13.14,0,0,0-1.92-2.46c.12-.18.36-.42.6-.72A15.21,15.21,0,0,1,130.38,2.88Zm18.54,1.38h12.42C163,2.46,164,1.5,164.4,1.5S165.66,2,167,3.12s2.1,1.8,2.1,2.28c0,.24-.24.54-.66.78a10,10,0,0,0-1.56,1.44V19.68C168.18,18.6,169,18,169.32,18a11.41,11.41,0,0,1,2.4,1.32c1.5,1.08,2.28,1.86,2.34,2.28a1.37,1.37,0,0,1-.78,1.14,5.47,5.47,0,0,0-1.38,1V40.68c-.12,3.18-2.28,5.1-6.6,5.82-.6-.12-.9-.42-.9-1a5,5,0,0,0-1.14-2.46,8.81,8.81,0,0,0-2.76-1.56c0-.3.06-.6.06-.84a29.69,29.69,0,0,0,4.62.42c1.26,0,1.92-.3,1.92-1V21.84H144.66V44.16c-.24,1.14-1.26,1.68-3.06,1.68-1.14,0-1.8-.18-2-.54,0-4.2.06-8.28.24-12.3V24.9a44.77,44.77,0,0,0-.42-6.12l3.72,1.44h1.08V7.08a18.88,18.88,0,0,0-.54-4.68Zm3.24,22.92h5.46c1.5-1.68,2.46-2.58,2.88-2.58a6.4,6.4,0,0,1,2.34,1.26Q165,27.48,165,28t-.72.9c-.72.6-1.14,1-1.26,1.14v4.38a17.65,17.65,0,0,0,.3,3q0,1.62-3.42,1.62c-1,0-1.38-.36-1.38-1.08V37h-5.94v1.86c-.24,1.08-1.14,1.56-2.76,1.56-1.08,0-1.68-.18-1.92-.54,0-2.28.06-4.5.24-6.66V28.8a13.23,13.23,0,0,0-.42-3.3Zm1-7V13.74a15.89,15.89,0,0,0-.54-4.32l4.8,1.68H162V5.76H149.1V20.22Zm5.4,8.46h-5.94V35.4h5.94ZM162,20.22v-7.5h-4.32v7.5Z"/><path d="M230.22,2.58c2.7,2.28,4.08,3.78,4.08,4.44s-.24.78-.6.78H208.26V20a53.19,53.19,0,0,1,13,4.38c5,2.52,7.62,5.16,7.62,8a4.2,4.2,0,0,1-.66,2.7,2.06,2.06,0,0,1-2,1c-1,0-2.88-1.68-5.82-5.1a39.4,39.4,0,0,0-12.12-9.42V44.46c.12,2.58.18,5.64.18,9.24q0,1.26-3.42,1.44-2.7,0-2.7-.9c.12-1.92.18-5.22.18-10.08V7.8h-7.68c-7.08,0-11.52.24-13.26.72-.42-1-.9-2-1.44-3.12a122.4,122.4,0,0,0,15,.6h28.74c1.92-2.46,3.3-4,4.2-4.5.18,0,.36.06.54.06A13.76,13.76,0,0,1,230.22,2.58Z"/><path d="M260.7,28.68A60.43,60.43,0,0,1,247,44.22a18,18,0,0,0,.18,2.34c0,.6-.24.9-.66.9-.84,0-2.88-2.28-6-6.84a114.38,114.38,0,0,0,19.92-13A2.43,2.43,0,0,1,260.7,28.68Zm-5-11.82c0,1.92-.36,3.18-1,3.84a2.67,2.67,0,0,1-2.22,1c-1,0-2.1-1.5-3.24-4.56a29.9,29.9,0,0,0-7.32-9.6,3.67,3.67,0,0,1,.42-.84C250.92,9.54,255.42,12.9,255.66,16.86Zm20.52,2c1.5.48,2.28,1,2.28,1.32a1.07,1.07,0,0,1-.9,1c-.72.36-1.56.78-2.46,1.14A36.59,36.59,0,0,0,280.26,37a25,25,0,0,0,14.16,11.4,2.28,2.28,0,0,1-.36,1.08,3.42,3.42,0,0,0-1.68,1,4.82,4.82,0,0,0-1.14,1.8c-.36,1.32-.9,2-1.62,2-2.58-1-5.82-4.32-9.66-10-3.06-4.8-4.86-10.68-5.46-17.64-1,7-3.24,12.72-6.6,17a32.13,32.13,0,0,1-17.1,10.86,2.66,2.66,0,0,1-.36-1.14,27.27,27.27,0,0,0,10.44-7.56A30.77,30.77,0,0,0,267.24,34c1.38-4,2.1-9.54,2.1-16.86C271.32,17.64,273.6,18.24,276.18,18.84ZM274.86,3.3c0,.6-1.08,1-3.18,1.32a63.37,63.37,0,0,1-3.48,8h16.68c1.92-2.4,3.24-3.6,3.9-3.66.18.12.54.36,1.08.66,2.82,2.7,4.26,4.5,4.26,5.34a.85.85,0,0,1-.6.78,12.19,12.19,0,0,0-3.36.6,50.05,50.05,0,0,1-8.46,8.22,5.3,5.3,0,0,1-.66-.48,41.63,41.63,0,0,0,4.5-10H267.36a33.61,33.61,0,0,1-9.48,11.34,2.43,2.43,0,0,1-.36-.66c4.08-6.12,7-14.28,8.58-24.6C271.92,1.44,274.86,2.46,274.86,3.3Z"/><path d="M350.22,30.42c2.34,2,3.54,3.3,3.54,3.84s-.24.84-.66.84h-12a24.42,24.42,0,0,1-1.74,4.44,18.77,18.77,0,0,1-3.24,4.8c8.52,1.8,12.9,4.2,13.2,7.26a4.9,4.9,0,0,1-.36,2.1,1.93,1.93,0,0,1-1.86.84c-.84,0-3.84-1.62-9-4.74-1.68-.84-3.54-1.62-5.46-2.4Q322.38,54.69,301,54.9a3.84,3.84,0,0,1-.36-1q18.9-2.16,27.18-8.28c-3.06-1-6.36-1.8-9.9-2.58q-2,2.88-2.52,2.88a2.36,2.36,0,0,1-1.56.36c-2.76,0-4.14-.42-4.14-1.32a116.39,116.39,0,0,0,7.74-9.9h-2.58c-7,0-11.4.24-13.08.66-.42-1-.9-2-1.44-3.12a127.09,127.09,0,0,0,15.24.6h3.06a26.09,26.09,0,0,0,3.06-6.42c5.34,1.2,8,2.16,8,2.88s-1.14,1-3.36,1.26c-.54.78-1.08,1.56-1.56,2.28h20a17.53,17.53,0,0,1,3.6-3.72c.12,0,.3.06.48.06A11.8,11.8,0,0,1,350.22,30.42ZM349.56,1c2.52,2.16,3.84,3.48,3.84,4.08s-.24.84-.66.84H336.48V12.3h6.06q2.34-2.7,3.24-2.7c.48,0,1.56.6,3.18,1.8,1.44,1.08,2.22,1.92,2.22,2.4s-.36.72-1,1.08a6.85,6.85,0,0,0-1.68,1.38v5.88c.18,2.34.3,3.84.3,4.5,0,1.32-1.08,2-3.12,2-1.56,0-2.4-.36-2.4-1.08V26.28h-30.9v.78c-.24,1.2-1.38,1.8-3.3,1.8-1.2,0-1.92-.18-2.16-.6,0-2.82.06-5.58.24-8.28V14.52a15.12,15.12,0,0,0-.48-4.14l5.1,1.92h7.08V5.94h-3.72c-6.84,0-11.16.24-12.84.72A27.65,27.65,0,0,0,301,3.54a117.47,117.47,0,0,0,14.64.6h28.08c1.8-2.28,3.06-3.66,3.9-4.14.18,0,.36.06.54.06A10,10,0,0,1,349.56,1ZM318.9,13.8h-6.48V24.72h6.48Zm11.52,29.52a13,13,0,0,0,2.94-4.5A24.86,24.86,0,0,0,335,35.1H323.52c-1.5,2.1-3.06,4.26-4.68,6.54a1.26,1.26,0,0,0-.24.36C323,42.36,326.94,42.84,330.42,43.32Zm.72-37.38H324.3V12.3h6.84Zm0,7.86H324.3V24.72h6.84Zm12.18,0h-6.84V24.72h6.84Z"/><path d="M429.36,1.5c2.52,2.16,3.84,3.48,3.84,4.08s-.24.84-.66.84H410v6.36h9.3c1.68-2.16,2.82-3.3,3.42-3.36a10.86,10.86,0,0,1,3.48,1.92c1.56,1.2,2.34,2,2.34,2.58s-.36.78-1,1.14a6.72,6.72,0,0,0-1.62,1.5V26.64q.36,5.85.36,7.56c0,1.44-1.14,2.16-3.36,2.16-1.68,0-2.58-.36-2.64-1.14V32.64H409.44c-.72,5.16-2,9.06-3.72,11.76,6.48,2.22,14,3.3,22.8,3.3,2.64-.06,4.8-.12,6.42-.12v1a10.22,10.22,0,0,0-1.62,1.14,4.48,4.48,0,0,0-1.08,2c-.42,1.2-1,1.8-1.8,1.86-11.1-.12-20.16-2-27.12-5.7-.12,0-.12-.06-.12-.06-3.9,4.56-11.46,6.9-22.74,6.9,0-.36-.06-.66-.06-.78C389,52,395,49.26,398.28,45.66a6,6,0,0,0,.66-.6,45.13,45.13,0,0,1-7.86-8l.66-.48a34.64,34.64,0,0,0,9.06,5.88,29.58,29.58,0,0,0,2.88-9.84H393.9v.42c-.3,1.32-1.5,2-3.54,2-1.32,0-2.1-.18-2.34-.66,0-3.72.06-7.44.24-11v-7.2a27.48,27.48,0,0,0-.48-5.52l5.58,2.16h11V6.42h-9.3q-10.26,0-12.78.72A20.57,20.57,0,0,0,380.94,4a115.7,115.7,0,0,0,14.58.6h28c1.8-2.28,3.06-3.66,3.9-4.14.18,0,.36.06.54.06A6.68,6.68,0,0,1,429.36,1.5Zm-25,19.08V14.34H393.9v7.2h10.5Zm0,2.52H393.9V31h10Q404.22,27.51,404.4,23.1Zm16,0H410.1c-.06,3-.24,5.64-.48,7.92h10.74Zm0-8.76H410l.06,7.2h10.26Z"/><path d="M453.18,34.44c-.24,2-.48,3.66-.78,5a24.86,24.86,0,0,1-3.24,8.1c-2.22,3.84-4.44,6.36-6.66,7.62a1.34,1.34,0,0,1-.9-.6,41.27,41.27,0,0,0,4.5-11.22c1-3.6,1.5-9.66,1.62-18.12,0-9.12-.06-14.82-.12-17,0-1.8-.12-3.9-.24-6.3L454,4.8h28a11.4,11.4,0,0,1,3.18-3.24,8.19,8.19,0,0,1,3.36,1.62c1.86,1.2,2.82,2.16,2.82,2.76s-.48.9-1.32,1.38a4.25,4.25,0,0,0-1.5,1.32V47.1c0,3.84-2.4,6.24-7.08,7.2-.48,0-.84-.42-1-1.26a6.09,6.09,0,0,0-2.76-3.54,34.35,34.35,0,0,0-3.78-1.56,2.47,2.47,0,0,0,.12-1,57.39,57.39,0,0,0,7.26.36c1,0,1.5-.48,1.5-1.38V34.44H470v8c.12,2.58.18,5.64.18,9.24,0,.84-1.14,1.32-3.36,1.44-1.8,0-2.76-.3-2.76-.9.12-1.92.18-5.22.18-10.14V34.44Zm.36-14.4V25c0,3.06-.12,5.7-.24,7.86h11V20Zm-.06-13.68.06,12.06h10.74V6.36ZM482.7,18.42V6.36H470V18.42Zm0,14.4V20H470V32.82Z"/><path d="M552.66,16.32c0,.48-.42.9-1.14,1.38-.9.48-1.38,1-1.38,1.44-.72,14.64-2,24-3.72,28-1.92,4.44-5,6.78-9.42,7-.66,0-1.14-.66-1.38-2a6.35,6.35,0,0,0-3.06-2.94A46.76,46.76,0,0,0,527,47a2.44,2.44,0,0,0,.3-1.26,54.37,54.37,0,0,0,9.12.78c2.76-.24,4.38-1.38,5-3.42,1.56-3.84,2.52-12.78,2.88-26.94H527.7q-1.71,31-27.48,38.4a1.8,1.8,0,0,1-.54-.6q19.71-11,21.84-37.8h-3.18a110.92,110.92,0,0,0-13.74.6,15.84,15.84,0,0,0-1-2.82,113,113,0,0,0,15.06.78h3q.18-2.16.18-4.5-.54-6.93-.72-9.9c5.76.72,8.7,1.44,8.7,2.16q0,.81-1.8,1.26L527.82,12c0,1-.06,1.86-.06,2.7h15.9c1.62-2.1,2.88-3.18,3.72-3.24C550.86,13.62,552.66,15.24,552.66,16.32Z"/><path d="M581.94,46.32c0,.54-.54.84-1.56.84a12.9,12.9,0,0,0-2.34.12C574.14,50,568.68,52,561.6,53.1c-.18-.18-.42-.36-.72-.6A60.08,60.08,0,0,0,570,47.82a16.9,16.9,0,0,0,4.68-5C579.48,44.64,581.94,45.78,581.94,46.32Zm-6.36-16.44c3.72-2.28,5.82-4.26,6.36-6H567.42V25.8c-.24,1.14-1.26,1.68-3.06,1.68-1.14,0-1.8-.18-2-.6,0-4,.06-7.8.24-11.64V7.56a40.3,40.3,0,0,0-.42-5.82l4.92,1.92h13.08a17,17,0,0,1,3-3.48c.12,0,.24-.06.36-.06a8.83,8.83,0,0,1,2.22,1.56A11.64,11.64,0,0,1,588,4.38c0,.6-.18.9-.42,1H578v4.5h2.7c1.32-1.44,2.22-2.22,2.76-2.28a10.78,10.78,0,0,1,2.76,1.56c1.2,1,1.86,1.62,1.86,2s-.3.66-.9,1a8.23,8.23,0,0,0-1.62,1.14v2.16a12.3,12.3,0,0,1,.3,1.62c0,1.14-.9,1.74-2.7,1.74-1.32,0-2-.3-2.1-1v-.6H578.1v5h4.08a17,17,0,0,1,3-3.48.46.46,0,0,1,.3-.12,8.08,8.08,0,0,1,2.22,1.62A11.86,11.86,0,0,1,590,22.86c0,.6-.18,1-.42,1h-7.44c4.08,1.26,6.18,2.16,6.18,2.76q0,.63-2.88.9a27.93,27.93,0,0,1-6.9,2.46c1.5.12,3.18.18,5,.18,3.12,0,5.94-.06,8.46-.24a18.76,18.76,0,0,0,4.5-3.9c4.8,1.74,7.2,2.88,7.2,3.48s-.54.78-1.56.78a6.69,6.69,0,0,0-2.28.18c-5.64,3.48-13.08,6.12-22.44,7.8,2.46.12,5.16.18,8.16.18a153,153,0,0,0,17.82-.84A26.19,26.19,0,0,0,600,33.18l.36-.72c5.7,2,8.64,4.32,8.82,7.08a4.41,4.41,0,0,1-.84,3.12,2.28,2.28,0,0,1-1.8.78c-.66,0-1.32-1.08-2-3.36-.3-.72-.6-1.38-1-2.1a103.91,103.91,0,0,1-13.32,2.88v3.72c.12,2.58.18,5.64.18,9.24,0,.84-1.14,1.32-3.36,1.44-1.8,0-2.76-.3-2.76-.9.12-1.92.18-5.22.18-10.08V41.7q-8.37,1.08-17.82,1.44c-.24,1-.6,1.5-1.08,1.5-.24,0-.54-.6-.9-1.92q-.81-3.42-1.08-5.4,3.24.45,9,.72a102.13,102.13,0,0,0,15.06-5.58,4.48,4.48,0,0,0,.72-.42,89.14,89.14,0,0,1-16.74,2.22q-.36,1.26-.9,1.26c-.24,0-.48-.54-.78-1.68a36.08,36.08,0,0,1-1-4.68A52.16,52.16,0,0,0,575.58,29.88ZM573.06,5.34h-5.64v4.5h5.64Zm8,10.26V11.34H567.42V15.6Zm-7.86,6.6v-5h-5.76v5ZM610.62,2.88c1.62,1.32,2.46,2.22,2.46,2.76,0,.24-.3.54-.78.84q-2.07.36-2.16,1.08a35.21,35.21,0,0,1-7.08,10,26.68,26.68,0,0,0,5.34,2.94,22.77,22.77,0,0,0,5.94,2,2.32,2.32,0,0,1-.24,1,5.29,5.29,0,0,0-1.56.54,5.37,5.37,0,0,0-1.38,2.16c-.48.9-.9,1.32-1.26,1.32a6.38,6.38,0,0,1-2.7-1.2,25.37,25.37,0,0,1-7.62-5.7,43.21,43.21,0,0,1-8.88,5.22,5,5,0,0,1-.48-.72,35,35,0,0,0,7.38-7,32.45,32.45,0,0,1-5.22-12.9,20.74,20.74,0,0,0-2.46.36,29,29,0,0,0-1.14-2.82,36.15,36.15,0,0,0,7.56.78h8c1.8-1.8,2.94-2.76,3.36-2.76S609.12,1.56,610.62,2.88ZM599.94,15.06a32.46,32.46,0,0,0,4.86-10h-8.58c-1,.06-1.8.12-2.46.12A21.89,21.89,0,0,0,599.94,15.06Zm9.54,35a2.82,2.82,0,0,1-2.7,3.18,2.69,2.69,0,0,1-1.44-.54,23.49,23.49,0,0,1-3.36-3.6c-1.56-1.86-4.14-3.6-7.68-5.28.12-.06.18-.24.3-.54h2.52C605.28,43.86,609.42,46.14,609.48,50Z"/><path d="M634.86,2.52a.55.55,0,0,1-.42.6c-.42.18-.9.42-1.5.66s-.84.54-.84.72V14h.54c1.56-2.88,2.64-4.32,3.12-4.38s1,.78,2.1,2.28a11.47,11.47,0,0,1,1.74,2.94c0,.6-.24.9-.66.9H632.1v9.84a36.56,36.56,0,0,0,6.3-3.54,1.6,1.6,0,0,0,.18.72,26.27,26.27,0,0,1-6.48,6.66V47.4c0,5-2.1,7.56-6.24,7.56a.9.9,0,0,1-1-1,5,5,0,0,0-1.86-3,6.78,6.78,0,0,0-3.24-1.44,2.1,2.1,0,0,0,.18-1c1,.12,3.06.12,6.18.12.6,0,1-.54,1-1.62V32.46a30.69,30.69,0,0,1-2.88,1.32c-.18,2-.54,3.06-1.14,3.06q-.54,0-2.34-4.14a19.41,19.41,0,0,1-1.32-4.08,33.06,33.06,0,0,0,7.68-1.2V15.84c-4.44.12-6.66.3-6.66.48a19.62,19.62,0,0,1-1.14-3.12,48.48,48.48,0,0,0,7.8.78V8A46.58,46.58,0,0,0,626.64.3C631.68,1.14,634.38,1.92,634.86,2.52Zm36.18.6c1.32,1.08,2,1.8,2,2.28s-.3.66-.9,1a5.81,5.81,0,0,0-1.56,1.26v3.84c.18,1.5.3,2.46.3,2.88,0,1.2-1,1.86-2.88,1.86-1.44,0-2.22-.3-2.28-1v-.18H645.42v5.76c0,7.14-.42,12.48-1.2,16a28,28,0,0,1-3.3,9c-2.28,4.2-4.62,7-6.9,8.46a1,1,0,0,1-.84-.54,41.75,41.75,0,0,0,5.28-12.54c1.2-4,1.8-10.74,1.92-20.22,0-7.56-.06-12.24-.12-14,0-1.5-.06-3.24-.18-5.28l5.58,2.46H665c1.44-1.74,2.46-2.64,3-2.64A7.63,7.63,0,0,1,671,3.12ZM668.58,38.4c2.28,2,3.48,3.24,3.48,3.84s-.24.78-.6.78H660.12v7.86h5.52a18.9,18.9,0,0,1,3.66-3.72c.12,0,.24.06.42.06a12.18,12.18,0,0,1,1.38.84c2.28,2,3.48,3.24,3.48,3.84s-.24.78-.6.78H650.34q-6.48,0-8.1.72a20.57,20.57,0,0,0-1.38-3.12,43.75,43.75,0,0,0,8.52.6h5.46V43h-2.22c-3.48,0-5.58.24-6.42.72-.42-1-.9-2-1.44-3.12a21.82,21.82,0,0,0,6.3.6h3.78V41a46.46,46.46,0,0,0-.36-6.42c5.64.84,8.46,1.56,8.46,2.22s-.36.84-1,1q-1.8.72-1.8,1.26v2.22h3.06a17.53,17.53,0,0,1,3.6-3.72h.48C667.62,37.74,668.1,38,668.58,38.4Zm-23.16-25h20.34V5.64h-20.4Zm25.14,4c2.1,1.8,3.18,3,3.18,3.48s-.24.84-.66.84H659a30.11,30.11,0,0,1-5.82,7.38c5.52-.12,9.78-.24,12.72-.42a28.26,28.26,0,0,0-4.26-4.2,1.88,1.88,0,0,1,.3-.6c6.84,2.1,10.38,4.62,10.62,7.5a3.66,3.66,0,0,1-.72,2.64,1.77,1.77,0,0,1-1.5.66c-.84,0-1.74-1.08-2.7-3.3-.3-.48-.6-1-.84-1.5-3.72,1.44-9.48,2.82-17.16,4.14-.3,1.62-.66,2.4-1.08,2.4s-.78-.72-1.26-2.22-1.08-3.24-1.68-5.4a27.27,27.27,0,0,0,5.1.3h.12a30.23,30.23,0,0,0,2-7.38c-2.88.06-4.68.3-5.4.66a22.92,22.92,0,0,0-1.38-3.06,24.24,24.24,0,0,0,6.66.6h12.84a17,17,0,0,1,3.3-3.36h.42C669.66,16.86,670.08,17.1,670.56,17.46Z"/></g></g></svg>