<svg xmlns="http://www.w3.org/2000/svg" viewBox="0 0 613.74 55.32"><g id="图层_2" data-name="图层 2"><g id="图层_1-2" data-name="图层 1"><path d="M11.52,22.62a69.53,69.53,0,0,0,5-9.6h-.42c-6.84,0-11,.24-12.72.72-.42-1-.9-2-1.44-3.12a107.15,107.15,0,0,0,14,.6h1.38A96.31,96.31,0,0,0,21.12.12C27,2,30,3.12,30,3.6c0,.9-1.2,1.44-3.48,1.62-1,2.16-2,4.14-2.94,6H42.72A23.78,23.78,0,0,1,47.28,6.3c.12,0,.3.06.54.06A12.24,12.24,0,0,1,49.56,7.5C52.5,10,54,11.52,54,12.24c0,.54-.24.78-.66.78H22.56a80.21,80.21,0,0,1-6.84,10.56,3.7,3.7,0,0,1,1.2.78c0,.54-.42.9-1.14,1.14q-1.62.81-1.62,1.08V53.64c0,1-1.14,1.56-3.3,1.68-1.32,0-2-.36-2-1,.12-7,.18-14.64.18-23.16A55,55,0,0,1,1.2,37.56c-.42-.24-.84-.48-1.2-.66A71.57,71.57,0,0,0,9.06,26.4v-.66a26.39,26.39,0,0,1-.3-3.48C9.78,22.38,10.68,22.5,11.52,22.62Zm26.82-4.14c0,.54-.36.9-1,1q-1.8.72-1.8,1.26v9.42h4.26c1.14-1.56,2.28-3,3.36-4.2.36-.36.6-.54.84-.54a3.69,3.69,0,0,1,1.38.78c2.76,2.4,4.32,4,4.68,4.74,0,.54-.18.78-.48.78h-14V50.1h7.14c2.28-3.36,3.78-5,4.5-5.1.54,0,1.62.9,3.3,2.64a12,12,0,0,1,2.76,3.3c0,.6-.24.9-.72,1H26.7c-5.82.12-8.76.3-8.76.54a25.34,25.34,0,0,1-1.14-3.12A65.85,65.85,0,0,0,26,50.1h4.2V31.74H24.9a27.13,27.13,0,0,0-5.7.48c-.24-.72-.48-1.5-.84-2.4a40,40,0,0,0,6.54.36h5.34v-7.5a44.92,44.92,0,0,0-.36-6.36Q38.34,17.58,38.34,18.48Z"/><path d="M109.8,30.48c2.76,2.28,4.14,3.78,4.14,4.38s-.24.84-.66.84H92.64a26.88,26.88,0,0,0,9.48,7.14,30.88,30.88,0,0,0,12.6,2.82,10.58,10.58,0,0,0-.12,1.14A5.18,5.18,0,0,0,113,47.88a12.21,12.21,0,0,0-1.2,2.4c-.24.78-.66,1.2-1.26,1.2-2,0-5.46-1.62-10.14-4.86A25.8,25.8,0,0,1,91,35.7h-.66v8.7c.12,2.58.18,5.64.18,9.24,0,.84-1.14,1.32-3.36,1.44-1.8,0-2.76-.3-2.76-.9.12-1.92.18-5.22.18-10.08V38.46q-8.37,8.37-23.88,13.8a5.55,5.55,0,0,1-.72-1c9.12-4.68,15.6-9.48,19.38-14.52q.45-.63.72-1.08H75c-7,0-11.4.24-13.08.72-.42-1-.9-2-1.44-3.12a118,118,0,0,0,14.7.6H84.6V27.42h-5c0,.6.06,1.14.06,1.56,0,1.08-1.38,1.56-4.08,1.56-1.32,0-2-.36-2-1.2q.09-3.51.18-14.94V10.08q-8.73.09-11,.72c-.42-1-.9-2-1.38-3.12a95.81,95.81,0,0,0,12.36.6V6.12Q73.56,3.24,73.2.36c2,.3,4.2.6,6.48,1,1.62.3,2.46.72,2.46,1.26s-.42.66-1.14.78c-1.14.42-1.68.72-1.68,1v4H95.58V6.12Q95.4,3.24,95,.36c2,.3,4.14.6,6.42,1,1.62.3,2.46.72,2.46,1.26s-.36.66-1.08.78c-1.2.42-1.74.72-1.74,1v4h2.64a22.43,22.43,0,0,1,3.9-4.14c.18,0,.36.06.54.06a10,10,0,0,1,1.44,1c2.52,2.16,3.84,3.54,3.84,4.14s-.24.78-.66.78H101.1V14.4c.12,6.84.18,11.58.3,14.34,0,1.08-1.38,1.56-4,1.56-1.38,0-2-.36-2-1.2,0-.48.06-1,.06-1.68h-5V33.9h13.08a23.68,23.68,0,0,1,4.2-4.56c.18,0,.36.06.54.06Q108.9,29.85,109.8,30.48ZM95.58,16.92V10.08H79.32v4.56c0,.84.06,1.56.06,2.28Zm-.12,8.88c0-1.92.06-4.32.12-7.32H79.38c.06,3,.12,5.4.12,7.32Z"/><path d="M140.76,28.62A60.43,60.43,0,0,1,127,44.16a18,18,0,0,0,.18,2.34c0,.6-.24.9-.66.9-.84,0-2.88-2.28-6-6.84a114.38,114.38,0,0,0,19.92-13A2.43,2.43,0,0,1,140.76,28.62Zm-5-11.82c0,1.92-.36,3.18-1,3.84a2.67,2.67,0,0,1-2.22,1c-1,0-2.1-1.5-3.24-4.56a29.9,29.9,0,0,0-7.32-9.6,3.67,3.67,0,0,1,.42-.84C131,9.48,135.48,12.84,135.72,16.8Zm20.52,2c1.5.48,2.28,1,2.28,1.32a1.07,1.07,0,0,1-.9,1c-.72.36-1.56.78-2.46,1.14a36.59,36.59,0,0,0,5.16,14.64,25,25,0,0,0,14.16,11.4,2.28,2.28,0,0,1-.36,1.08,3.42,3.42,0,0,0-1.68,1,4.82,4.82,0,0,0-1.14,1.8c-.36,1.32-.9,2-1.62,2-2.58-1-5.82-4.32-9.66-10-3.06-4.8-4.86-10.68-5.46-17.64-1,7-3.24,12.72-6.6,17a32.13,32.13,0,0,1-17.1,10.86,2.66,2.66,0,0,1-.36-1.14,27.27,27.27,0,0,0,10.44-7.56A30.77,30.77,0,0,0,147.3,34c1.38-4,2.1-9.54,2.1-16.86C151.38,17.58,153.66,18.18,156.24,18.78ZM154.92,3.24c0,.6-1.08,1-3.18,1.32a63.37,63.37,0,0,1-3.48,8h16.68c1.92-2.4,3.24-3.6,3.9-3.66.18.12.54.36,1.08.66,2.82,2.7,4.26,4.5,4.26,5.34a.85.85,0,0,1-.6.78,12.19,12.19,0,0,0-3.36.6,50.05,50.05,0,0,1-8.46,8.22,5.3,5.3,0,0,1-.66-.48,41.63,41.63,0,0,0,4.5-10H147.42a33.61,33.61,0,0,1-9.48,11.34,2.43,2.43,0,0,1-.36-.66c4.08-6.12,7-14.28,8.58-24.6C152,1.38,154.92,2.4,154.92,3.24Z"/><path d="M201.6,14.28c0,.84-1.14,1.32-3.3,1.5a64,64,0,0,1-5.64,9.66c2.16.66,3.24,1.14,3.24,1.5s-.42.54-1.26.78-1.14.6-1.14.84V42.72c.12,3.84.24,7.44.24,10.86-.18,1-1.38,1.5-3.66,1.62-1.5,0-2.22-.36-2.22-1.08.12-3.78.24-7.56.24-11.4V31A40.78,40.78,0,0,1,181,36.9a3.49,3.49,0,0,0-1.08-.66q9.54-9.9,13.44-25.26C198.84,12.78,201.6,13.86,201.6,14.28Zm29-9.06c2.7,2.28,4.08,3.78,4.08,4.44s-.24.78-.6.78h-39c-7.08,0-11.52.24-13.26.72-.42-1-.9-2-1.44-3.12a123.06,123.06,0,0,0,15,.6h28.86c1.92-2.46,3.3-4,4.2-4.5.12,0,.3.06.54.06A13.76,13.76,0,0,1,230.58,5.22Zm-14.34,9.6c0,.54-1.26,1-3.72,1.26-.6,1.14-1.2,2.22-1.86,3.3h11.22c1.86-2.16,3-3.24,3.36-3.24.72,0,1.92.78,3.72,2.28s2.64,2.46,2.64,3.06-1.26,1.26-3.42,1.62c-2.7,7-5.46,12.48-8.28,16.32a36.59,36.59,0,0,1-3.66,4.32A61.61,61.61,0,0,0,235,48.48a4.93,4.93,0,0,0-.12,1.38,3.87,3.87,0,0,0-1.92.66,6.18,6.18,0,0,0-1.8,2.7c-.3.9-.66,1.38-1.14,1.38-4.08-.72-9.18-2.88-15.24-6.48a11.89,11.89,0,0,1-2-1.32,51.45,51.45,0,0,1-16.14,8,4.29,4.29,0,0,1-.54-.78,60.79,60.79,0,0,0,13.56-9.84A40.4,40.4,0,0,1,200.7,31.5a32,32,0,0,1-4.08,3.12A8.8,8.8,0,0,1,196,34c6.6-7.74,10.56-15.3,12-22.62C213.48,13,216.24,14.1,216.24,14.82ZM210.6,4.32a6.37,6.37,0,0,1-.3,2A2.31,2.31,0,0,1,208,8c-.84,0-2.1-.9-3.72-2.76a20.84,20.84,0,0,0-5.46-4.5,1.34,1.34,0,0,0,.42-.72C206.52.54,210.3,2,210.6,4.32ZM212,41.58a38,38,0,0,0,3.3-4.56,45.9,45.9,0,0,0,6.72-16.08H209.7a36.77,36.77,0,0,1-3.54,4.8,39.88,39.88,0,0,1-4.5,4.92C205.38,35.88,208.86,39.54,212,41.58Zm.6-14.82c2.4,1.32,3.66,2.88,3.66,4.68a2.86,2.86,0,0,1-1,2.34,2,2,0,0,1-1.56.48c-1.38,0-2.28-.9-2.76-2.82a14.19,14.19,0,0,0-1.86-3.72,15.93,15.93,0,0,0-1.44-1.92c.12-.12.24-.36.42-.6A15.76,15.76,0,0,1,212.64,26.76Z"/><path d="M249.06,21.6a6.39,6.39,0,0,1-.36,2.34,2.61,2.61,0,0,1-2.64,1.92c-.6,0-1.38-1-2.4-2.94a16.46,16.46,0,0,0-3.6-4.74,1.61,1.61,0,0,0,.48-.9C246,17.82,248.82,19.26,249.06,21.6Zm7.56-4.8c-1.08,3.84-2.58,8.94-4.38,15.18s-2.58,9.66-2.58,10.62a20.61,20.61,0,0,0,.66,4.92,23.74,23.74,0,0,1,.84,4.14c0,1.8-1,2.76-3,2.76-2.4,0-3.66-1.2-3.72-3.48,0-1,.18-3,.54-6.18,0-1.92-.48-3.18-1.38-3.72a12.35,12.35,0,0,0-3-1.2,2.39,2.39,0,0,1,.18-1c.54,0,1.08.06,1.62.06a5,5,0,0,0,4.86-3.24l8.46-19.2Q255.72,16.71,256.62,16.8Zm-3.48-9.18a8.22,8.22,0,0,1-.3,2.34,2.61,2.61,0,0,1-2.64,1.92c-.72,0-1.68-1-2.94-2.94A17.37,17.37,0,0,0,243,4.14c.24-.12.36-.42.48-.84C249.72,3.84,252.9,5.28,253.14,7.62Zm37.44,20.46q3.78,3.24,3.78,4.14c0,.54-.24.78-.6.78H277.44c2.4,3.72,4.92,6.36,7.62,7.8a18.82,18.82,0,0,0,9.84,3q-.09.72-.18,1.26a4,4,0,0,0-1.62,1.08,11.31,11.31,0,0,0-1.26,2.58c-.3.84-.78,1.26-1.38,1.26-1.5,0-4-1.68-7.5-5.1a28.7,28.7,0,0,1-7-11.88h-.54l.18,20.52c-.12,1.08-1.2,1.68-3.24,1.74q-2.52,0-2.52-1.26c0-5.52.06-10.68.06-15.6-3.36,4.92-8.88,8.94-16.62,11.94-.24,0-.48-.3-.66-.84,6.72-4.5,11.1-9.3,13.2-14.46a16.58,16.58,0,0,0,.9-2h-1.8c-5.28,0-8.52.24-9.84.72a27.65,27.65,0,0,0-1.38-3.12,61.39,61.39,0,0,0,10.62.6h5.58V27.78c-.12-2-.18-3.6-.24-4.68,5.76,1,8.7,1.74,8.7,2.34,0,.36-.42.72-1.2,1.08-1.2.54-1.74.9-1.74,1.08v3.6h9.3c1.8-2.28,3.06-3.66,3.9-4.14.12,0,.3.06.48.06A15.36,15.36,0,0,1,290.58,28.08ZM261.48,1.14c.18,1.08.36,2.1.48,3.18H286.5c1.56-1.92,2.7-2.94,3.3-3.12a16.77,16.77,0,0,1,2.7,2c1.56,1.44,2.4,2.4,2.4,2.76,0,.54-.54.84-1.56.84l-1.56.24a38.43,38.43,0,0,1-7,6.18,2.31,2.31,0,0,1-.66-.48,26.81,26.81,0,0,0,2.88-7h-24.9c0,.48.06.9.06,1.26,0,4.92-1.5,7.38-4.5,7.5-2.16,0-3.3-.72-3.36-2.22a3.52,3.52,0,0,1,.48-2.1,9.15,9.15,0,0,1,2.4-2.34q2.61-2.16,3.24-6.84C261.06,1.14,261.42,1.14,261.48,1.14Zm11.64,9.6c0,.36-.3.6-.84.72l-2,.54c-1.62,8.4-6.24,13.32-13.86,14.64a3.44,3.44,0,0,1-.24-.84c5.46-3.24,8.46-9.12,8.94-17.58C270.42,9.42,273.12,10.26,273.12,10.74Zm10.62-.3a1,1,0,0,1-.84,1c-1,.42-1.62.72-1.86.84v5.4q0,1.62,2.34,2a13.05,13.05,0,0,0,1.5.06,4.46,4.46,0,0,0,2.7-1,2.08,2.08,0,0,1,1.14-.66,4.43,4.43,0,0,1,.72.12c1.32.84,2,1.5,2.16,1.92a1.12,1.12,0,0,1,.42,1C291.84,23,289.08,24,283.8,24a16,16,0,0,1-5.1-.6c-1.68-.3-2.58-1.62-2.7-4V12.72a37,37,0,0,0-.48-4.5C280.62,9.06,283.38,9.84,283.74,10.44Z"/><path d="M371.7,26.4a.89.89,0,0,1-.72.72,6.72,6.72,0,0,1-2.58.36,30.94,30.94,0,0,1-7.2,11.82c2,4.5,4.38,7.26,7.08,8.22,1,0,2.4-2.52,4.38-7.62.6.06.9.12.9.24a20.29,20.29,0,0,0-1.74,7.8,4,4,0,0,0,1.08,2.34,4.88,4.88,0,0,1,1.32,2.64c0,1.08-.84,1.62-2.4,1.74-2.64,0-5.52-1.14-8.7-3.36a29.14,29.14,0,0,1-6-8.4,51.32,51.32,0,0,1-15.84,7.74,8.22,8.22,0,0,0-.48-.84,50,50,0,0,0,14.64-10.68,63,63,0,0,1-3.78-19.26H339.48V29.1c3.12-.9,6.3-1.92,9.54-3.12l.48,1a77.39,77.39,0,0,1-10,5.94V49.2c-.12,3.3-2.4,5.16-6.84,5.64a1,1,0,0,1-1.08-1.08,9.62,9.62,0,0,0-.9-2.1q-.36-1.35-5.76-2.34v-1c2.28.18,4.68.24,7.14.24,1.08,0,1.68-.18,1.74-.6V35.52c-2.28,1-4.62,1.92-7.08,2.76A5.79,5.79,0,0,0,326,41c-.12.66-.36,1-.84,1s-1.62-1.56-3.06-4.8a36.09,36.09,0,0,0-1.74-4.08,100.15,100.15,0,0,0,13.38-2.46V19.86c-6.48.06-10.5.3-12.12.66-.42-1-.9-2-1.44-3.12a113.11,113.11,0,0,0,13.56.6V9.3a87.25,87.25,0,0,1-11.52,1.32,8.18,8.18,0,0,0-.24-1C331.38,7.68,338.4,4.8,343,1c3.72,2.64,5.64,4.2,5.64,4.62s-.36.6-1,.6c-1.44-.18-2.64-.3-3.48-.42a23.49,23.49,0,0,1-4.68,2V18h12.06c-.48-8.16-.84-13.74-1.2-16.74,5.7.6,8.58,1.14,8.7,1.68,0,.36-.24.6-.72.78q-1.17.63-2.16,1.08c0,4.92.12,9.36.36,13.2h7a22.43,22.43,0,0,1,3.9-4.14c.18,0,.36.06.54.06a10,10,0,0,1,1.44,1c2.52,2.16,3.84,3.54,3.84,4.14s-.24.84-.66.84h-16c.18,2.88.42,5.46.78,7.68a65.71,65.71,0,0,0,1.8,6.66,33,33,0,0,0,4.62-11.7C369.06,24.54,371.7,25.86,371.7,26.4Zm-2-17.46a8.62,8.62,0,0,1-.24,2,2.39,2.39,0,0,1-2.34,1.74c-.66,0-1.56-1.08-2.76-3.24a17.37,17.37,0,0,0-4.08-5.22,1.57,1.57,0,0,0,.42-.78C366.42,4.14,369.42,5.94,369.66,8.94Z"/><path d="M402.9,6.36a19.41,19.41,0,0,1,3.6,3.72c0,.48-.18.72-.48.72h-8.88v2.94c5.28,2.76,7.92,5.22,8,7.44,0,1.56-.42,2.52-1.26,3a2.78,2.78,0,0,1-1.5.36c-.78,0-1.44-.9-1.92-2.82a27.25,27.25,0,0,0-3.3-6.36V31.92c0,1.08-1.14,1.62-3.36,1.68-1.32,0-1.92-.3-1.92-1,0-4.08.06-8.46.12-13.14a29.4,29.4,0,0,1-10.74,10.8c-.24,0-.42-.18-.54-.66a37.46,37.46,0,0,0,9.12-16.32q.45-1.53.72-2.52h-2a27.37,27.37,0,0,0-5.76.48c-.24-.66-.48-1.44-.84-2.4a39.59,39.59,0,0,0,6.6.42H392V3.72a26.4,26.4,0,0,1-.3-3.54q7.29.9,8.1,2.16c0,.54-.42.9-1.14,1.14-1.08.54-1.56.9-1.56,1V9.3h1.44a28.56,28.56,0,0,1,2.58-3.12,1.2,1.2,0,0,1,.66-.42A3.35,3.35,0,0,1,402.9,6.36ZM389.76,38c.12,1.14.18,2.94.18,5.34-.06,5.16-2,7.68-5.82,7.8-2,0-3.12-.72-3.24-2a5,5,0,0,1,2-3.48,10.65,10.65,0,0,0,3.6-3.12A11.16,11.16,0,0,0,388.68,38,7.35,7.35,0,0,1,389.76,38Zm12.24-.3c0,.72-1.08,1.38-3.18,2.1v6c0,1.8,1,2.7,2.88,2.82h10.68c2.16,0,3.66-.72,4.5-2.1.6-.9,1.32-3.06,2.16-6.42a10.41,10.41,0,0,0,1.08.06v6.3c0,.54.42,1,1.14,1.2.84.48,1.26,1,1.26,1.5-.12,1.86-1.86,3.12-5.28,3.72a73.56,73.56,0,0,1-8.16.48A91.42,91.42,0,0,1,398.46,53c-3.24-.24-4.8-2.94-4.8-8.22V41.58a33.33,33.33,0,0,0-.42-6.18C399.06,36.48,402,37.26,402,37.74Zm11.94,3.48a6.11,6.11,0,0,1-.3,2A2.39,2.39,0,0,1,411.3,45c-.6,0-1.38-1.14-2.46-3.48a19.37,19.37,0,0,0-3.6-5.7,1.34,1.34,0,0,0,.42-.72Q413.58,36.18,413.94,41.22ZM412.38,3.78h11.16c1.56-1.92,2.64-2.94,3.24-3A10,10,0,0,1,430,2.58c1.44,1.08,2.16,1.92,2.16,2.4s-.3.72-.84,1.08a13.53,13.53,0,0,0-1.62,1.38v14c.24,5.46.36,9,.36,10.56,0,1.32-1.08,2-3.12,2-1.56,0-2.4-.36-2.46-1.08V30.72H412.92V32c-.24,1.2-1.38,1.8-3.3,1.8-1.2,0-1.92-.18-2.16-.6,0-5,.06-9.84.24-14.64V9.06a46.38,46.38,0,0,0-.48-7.26Zm12.12,8.28V5.28H412.92v6.78Zm0,8V13.62H412.92V20.1Zm0,9.06V21.72H412.92v7.44Zm9.06,17.76a3.16,3.16,0,0,1-1.14,2.76,3.23,3.23,0,0,1-1.92.66c-1.44,0-2.46-1.44-3-4.44A16.82,16.82,0,0,0,423.3,38a8.55,8.55,0,0,1,.72-.66Q433.56,42.42,433.56,46.92Z"/><path d="M463.44,8.1c2.1,1.86,3.3,3.12,3.54,3.72,0,.48-.18.72-.42.72H457.8v8.82h2.88a28.56,28.56,0,0,1,2.58-3.12,1.2,1.2,0,0,1,.66-.42,3.35,3.35,0,0,1,1.08.6,19.41,19.41,0,0,1,3.6,3.72c0,.48-.18.72-.48.72h-9.84V33.54h2.22c1.5-2.64,2.52-4,3-4.2.24,0,1.08.9,2.52,2.58a7.72,7.72,0,0,1,1.74,2.46c0,.54-.18.78-.48.78h-9V46.08C462.84,47.4,470.52,48,481.2,48c4.74,0,9-.12,12.72-.36l.06,1.14a4.26,4.26,0,0,0-2.46,1.5,5.58,5.58,0,0,0-.84,2,1.44,1.44,0,0,1-1.56,1.38c-2.1,0-4.92-.06-8.46-.06-11.58-.24-19.86-1.56-24.9-4a15.35,15.35,0,0,1-8-8c-1.26,5.82-3.6,10-7,12.48a6,6,0,0,0-.6-.66c2.28-4.32,3.48-11.16,3.54-20.46a54,54,0,0,0-.18-5.64c4.86.84,7.32,1.5,7.32,2s-.24.66-.72.84c-.9.48-1.32.84-1.32,1a59.29,59.29,0,0,1-.6,7.92A17.74,17.74,0,0,0,453.36,44V22.86H447a27.13,27.13,0,0,0-5.7.48c-.24-.66-.48-1.44-.84-2.4a38.21,38.21,0,0,0,6.54.42h5.88V12.54h-4.44a28.2,28.2,0,0,0-5.76.48c-.24-.66-.48-1.44-.78-2.4a38.21,38.21,0,0,0,6.54.42h4.44V6.12a51,51,0,0,0-.3-5.94c5.22.78,7.86,1.44,7.86,2s-.36.78-1,.9c-1.08.48-1.68.84-1.68,1.2V11h1.32c.84-1.14,1.74-2.16,2.58-3.12a1.2,1.2,0,0,1,.66-.42A3.35,3.35,0,0,1,463.44,8.1Zm26-3.6c1.32,1,2,1.74,2,2.22s-.3.72-.9,1A6.25,6.25,0,0,0,489.06,9v8.52c.18,3.36.3,5.46.3,6.42,0,1.2-1,1.86-2.88,1.86-1.5,0-2.28-.3-2.28-1V22.62h-9.78v13c0,1.8.84,2.7,2.64,2.7a29.6,29.6,0,0,0,4.14.24,34.42,34.42,0,0,0,3.6-.18c1.32,0,2.22-1,2.7-3A40.83,40.83,0,0,0,489,28l.9-.06a71.73,71.73,0,0,0,.3,8c0,.48.24.84.84,1.2,1.2.6,1.86,1.32,1.86,2.22,0,1.8-1.68,2.94-4.92,3.36a41.1,41.1,0,0,1-6.18.42,45.93,45.93,0,0,1-6.3-.3c-3.72-.12-5.7-2.16-5.88-6.24V10.74c-.12-2.4-.24-4.8-.42-7.08l5.16,2h9.06c1.44-1.8,2.4-2.76,3-2.82A9.23,9.23,0,0,1,489.42,4.5ZM484.2,21.06V7.2h-9.78V21.06Z"/><path d="M519.72,3.48q0,.81-3.78,1.26a71.73,71.73,0,0,1-4.86,10.86c2.4.72,3.6,1.2,3.6,1.56s-.42.6-1.26.84-1.14.6-1.14.84V38.52c.12,5.4.24,10.44.24,15.18-.18,1-1.38,1.5-3.66,1.62q-2.16,0-2.16-1.08c.12-5.1.18-10.26.18-15.54V22.62a46.77,46.77,0,0,1-6.42,7.5,4,4,0,0,0-.6-.66C506.22,19.38,510.12,9.6,511.44,0,517,1.62,519.72,2.76,519.72,3.48Zm20.16-.9c0,.54-.42.9-1.14,1.14-1.08.54-1.56.9-1.56,1v11q3.6-1.08,7.56-2.52c1.26-2.52,2.28-3.84,3-3.84,3.66,1.44,5.52,2.46,5.52,3.18,0,.48-.48,1.08-1.44,1.74a4,4,0,0,0-1,1c-.18,11.4-.72,18.06-1.68,20q-1.89,4.14-5.94,4.14c-.6-.12-1-.66-1.2-1.74a4.66,4.66,0,0,0-2.22-2.46c-1-.42-1.86-.72-2.58-1v7.2c0,1.08-1.14,1.62-3.36,1.74-1.32,0-1.92-.3-1.92-1,.06-7,.12-14.64.18-22.92-2.64.84-4.86,1.56-6.78,2.16V44.94c.18,2.16,2.22,3.24,6.18,3.24H544.8c2.34,0,3.66-1.08,4-3.36a61,61,0,0,0,1.32-8.34,3.83,3.83,0,0,0,1.44.3c0,1.08-.06,3.84-.18,8.16a2.69,2.69,0,0,0,.9,2.28c1.08.78,1.68,1.56,1.68,2.28q0,3.06-5,3.6a60.2,60.2,0,0,1-8.64.36c-8.28,0-12.42-.12-12.42-.3Q520,53.07,520,45.6V23.16A25.09,25.09,0,0,0,515.4,25a15.35,15.35,0,0,0-1.86-2.82,29.82,29.82,0,0,0,6.42-1.2V11.28c-.12-1.74-.18-3.54-.3-5.4C525.18,6.78,528,7.5,528,8s-.9,1.2-2.7,1.8V19.5c2-.6,4.32-1.26,6.78-2.1V4a26.4,26.4,0,0,1-.3-3.54Q539.07,1.32,539.88,2.58Zm2.28,31c1.5,0,2.4-.48,2.64-1.56.54-2,.84-7.68.84-17-3.12,1-5.94,1.8-8.46,2.58V33.12A30.28,30.28,0,0,0,542.16,33.6Z"/><path d="M576.84,3.48c0,.48-1.2.9-3.54,1.2a91,91,0,0,1-4,11.4q4,1.08,4,1.62c0,.3-.42.54-1.14.78S571,19,571,19.2V38.7c.12,5.34.18,10.32.18,15-.12.84-1.26,1.38-3.36,1.5-1.38,0-2-.36-2-1,.12-5,.18-10.2.18-15.36V23.16a49,49,0,0,1-5.7,8.64l-.6-.6a92.11,92.11,0,0,0,9.48-31C574.26,1.8,576.84,2.88,576.84,3.48Zm4.8,1.2h5.22c1.32-2,2.28-3,2.76-3.06a9.08,9.08,0,0,1,2.76,1.56c1.26,1,1.92,1.62,1.92,2s-.3.66-.78,1a7.12,7.12,0,0,0-1.32,1.2V17.76c.18,4,.3,6.6.3,7.8s-.9,1.74-2.64,1.74c-1.38,0-2.1-.3-2.1-1V23.52h-5.28V53.28c-.24,1.08-1.26,1.68-3.06,1.68-1.14,0-1.8-.24-2-.6,0-8.1.06-16.08.24-23.88V14.88C577.5,8.16,577.38,4.2,577.2,3ZM587.76,13V6.18h-5.28V13Zm0,9V14.58h-5.28V22ZM600,4.68h5.58a11.7,11.7,0,0,1,2.82-3.36,7.91,7.91,0,0,1,2.88,1.38c1.62,1.08,2.46,1.86,2.46,2.4,0,.36-.42.78-1.14,1.2s-1.2.84-1.32,1.14V47.7c0,3.9-2,6.3-5.94,7.26-.6,0-1-.42-1.2-1.26A6.34,6.34,0,0,0,601,50.16a24.93,24.93,0,0,0-4.44-1.56,2.64,2.64,0,0,0,.12-1.08,61.53,61.53,0,0,0,8.34.42,1.22,1.22,0,0,0,1.32-1.38V23.46h-5.22v2c-.24,1.08-1.14,1.56-2.82,1.56-1,0-1.62-.12-1.86-.48,0-3.72.06-7.32.18-10.86V8.58a30.23,30.23,0,0,0-.36-5.34ZM606.3,13V6.24h-5.22V13Zm0,8.94V14.58h-5.22V21.9Z"/></g></g></svg>