<svg xmlns="http://www.w3.org/2000/svg" viewBox="0 0 675.36 55.26"><g id="图层_2" data-name="图层 2"><g id="图层_1-2" data-name="图层 1"><path d="M53.7,15.36a7.66,7.66,0,0,1,1.56,2.16c0,.54-.18.78-.42.78H42.66c.06,3.48.24,7.26.48,11.28a56,56,0,0,0,1.38,7.14,35.81,35.81,0,0,0,2.58-13.8c4.2.72,6.3,1.32,6.3,1.68s-.24.48-.6.48a4.26,4.26,0,0,0-1.38.54,32.35,32.35,0,0,1-5.34,15.9c1.38,3.42,3.06,5.4,5,6q.72-.27,2.7-7.38c.36.12.66.3,1,.42-.36,4.2-.48,7.26-.48,9.06a6.9,6.9,0,0,0,.9,2.28,3.3,3.3,0,0,1,.42,1.38c0,.84-.72,1.32-2.1,1.32a5.93,5.93,0,0,1-2.64-.66q-5-2.16-8.1-8.46A37.19,37.19,0,0,1,29.1,54a1.74,1.74,0,0,0-.3-.6A43.11,43.11,0,0,0,41.4,42.12c-1.8-5.22-2.88-11.94-3.18-20.22V18.3H17.1l.12,5.58q0,12.33-1.08,16.74a29,29,0,0,1-2,6.54A17.85,17.85,0,0,1,7.62,55C7.2,54.9,7,54.72,7,54.42,9.9,50.58,11.7,44.34,12.3,35.58H8.4c-.18,2.52-.36,4.2-.54,5.16C7,45.9,4.92,49.2,1.8,50.52q0-.18-.36-.54c1.38-2,2.34-5.34,2.82-10,.12-1.44.18-2.88.24-4.2-1.44.12-2.58.24-3.54.36a12.73,12.73,0,0,1-1-2.58A69.12,69.12,0,0,0,9.36,34h3c.12-1.86.18-3.84.18-5.88v-.6H7.62v.6c0,.9-1,1.38-2.88,1.5-1.14,0-1.68-.24-1.68-.84.12-2.76.18-6,.18-9.6a18.78,18.78,0,0,1-.3-3q6.3.72,7,1.8c0,.48-.36.78-1,1-.9.48-1.32.78-1.32.9v6h4.92V19.32a23.5,23.5,0,0,0-.36-4.5l4.68,1.86h21.3a36.71,36.71,0,0,0-.3-5c4.74.48,7.2,1.08,7.38,1.68,0,.24-.24.54-.66.78a16.93,16.93,0,0,0-1.92,1v1.62h6c1.38-2.16,2.28-3.36,2.76-3.48C51.66,13.2,52.44,13.92,53.7,15.36ZM51.24,3.24C53.76,5.4,55,6.72,55,7.32s-.24.84-.6.84H37.56l.06,3.06q-.09,1.62-3.06,1.62c-1.56,0-2.34-.36-2.34-1.2,0-1.2.06-2.4.06-3.48H21.84l.06,3.72c-.12,1-1.14,1.56-3.06,1.56-1.56,0-2.34-.36-2.34-1.14,0-1.44.06-2.82.06-4.14H15.42q-10.71,0-13.32.72c-.42-1-.9-2-1.44-3.12a128.27,128.27,0,0,0,15.3.6h.6v-2C16.5,2.46,16.44,1,16.32.06c5.4.84,8.16,1.56,8.16,2.16,0,.36-.42.66-1.14,1q-1.62.72-1.62,1.08l.06,2.1H32.34v-2C32.22,2.4,32.16,1,32.1,0q8.1,1.26,8.1,2.16c0,.36-.36.66-1.08,1Q37.5,3.84,37.5,4.2l.06,2.16h7.8c1.8-2.28,3.06-3.66,3.9-4.14.12,0,.3.06.48.06A15.36,15.36,0,0,1,51.24,3.24ZM22.86,22.68h8.46c1.2-1.74,2-2.64,2.46-2.76.24,0,.9.66,2.1,1.86a6.35,6.35,0,0,1,1.38,1.74c0,.6-.18.84-.48.84H30.36V29.7h2c1-1.26,1.68-1.92,2-2a8.3,8.3,0,0,1,2.1,1.2c.9.72,1.38,1.2,1.38,1.5s-.3.48-.78.72a13.57,13.57,0,0,0-1.38.9v3.6c.12,1.44.24,2.34.24,2.7,0,.84-.72,1.32-2,1.32-1,0-1.56-.24-1.56-.72V38H30.72v6.54h1.14c1.2-2,2-3,2.46-3.12.24,0,.9.66,2,2a7.68,7.68,0,0,1,1.38,1.92c0,.6-.18.84-.42.84H23.52v2c-.24,1-1.08,1.44-2.58,1.44-1,0-1.5-.18-1.74-.48q0-6.66.18-13V27.66a61.69,61.69,0,0,0-.3-6.42Zm.66,1.68V29.7h3.72V24.36ZM32.4,36.48V31.2H23.52v5.28Zm-4.8,8.1V38H23.52v6.54ZM47,9.66c1.56.72,2.34,1.62,2.34,2.64a2.54,2.54,0,0,1-.78,2,2,2,0,0,1-1.32.36c-.72,0-1.14-.54-1.38-1.62a9.72,9.72,0,0,0-.9-2.16,12.05,12.05,0,0,0-1.26-1.62,3.92,3.92,0,0,0,.42-.48A13.64,13.64,0,0,1,47,9.66Z"/><path d="M72,22.56A69.53,69.53,0,0,0,77,13h-.42c-6.84,0-11,.24-12.72.72-.42-1-.9-2-1.44-3.12a107.15,107.15,0,0,0,14,.6h1.38A96.31,96.31,0,0,0,81.6.06c5.88,1.86,8.88,3,8.88,3.48,0,.9-1.2,1.44-3.48,1.62-1,2.16-2,4.14-2.94,6H103.2a23.78,23.78,0,0,1,4.56-4.92c.12,0,.3.06.54.06A12.24,12.24,0,0,1,110,7.44c2.94,2.46,4.44,4,4.44,4.74,0,.54-.24.78-.66.78H83A80.21,80.21,0,0,1,76.2,23.52a3.7,3.7,0,0,1,1.2.78c0,.54-.42.9-1.14,1.14q-1.62.81-1.62,1.08V53.58c0,1-1.14,1.56-3.3,1.68-1.32,0-2-.36-2-1,.12-7,.18-14.64.18-23.16a55,55,0,0,1-7.86,6.42c-.42-.24-.84-.48-1.2-.66a71.57,71.57,0,0,0,9.06-10.5v-.66a26.39,26.39,0,0,1-.3-3.48C70.26,22.32,71.16,22.44,72,22.56Zm26.82-4.14c0,.54-.36.9-1,1Q96,20.16,96,20.7v9.42h4.26c1.14-1.56,2.28-3,3.36-4.2.36-.36.6-.54.84-.54a3.69,3.69,0,0,1,1.38.78c2.76,2.4,4.32,4,4.68,4.74,0,.54-.18.78-.48.78H96V50h7.14c2.28-3.36,3.78-5,4.5-5.1.54,0,1.62.9,3.3,2.64a12,12,0,0,1,2.76,3.3c0,.6-.24.9-.72,1H87.18c-5.82.12-8.76.3-8.76.54a25.34,25.34,0,0,1-1.14-3.12,65.85,65.85,0,0,0,9.24.78h4.2V31.68H85.38a27.13,27.13,0,0,0-5.7.48c-.24-.72-.48-1.5-.84-2.4a40,40,0,0,0,6.54.36h5.34v-7.5a44.92,44.92,0,0,0-.36-6.36Q98.82,17.52,98.82,18.42Z"/><path d="M172.2,26.34a.89.89,0,0,1-.72.72,6.72,6.72,0,0,1-2.58.36,30.94,30.94,0,0,1-7.2,11.82c2,4.5,4.38,7.26,7.08,8.22,1,0,2.4-2.52,4.38-7.62.6.06.9.12.9.24a20.29,20.29,0,0,0-1.74,7.8,4,4,0,0,0,1.08,2.34,4.88,4.88,0,0,1,1.32,2.64c0,1.08-.84,1.62-2.4,1.74-2.64,0-5.52-1.14-8.7-3.36a29.14,29.14,0,0,1-6-8.4,51.32,51.32,0,0,1-15.84,7.74,8.22,8.22,0,0,0-.48-.84,50,50,0,0,0,14.64-10.68,63,63,0,0,1-3.78-19.26H140V29c3.12-.9,6.3-1.92,9.54-3.12l.48,1a77.39,77.39,0,0,1-10,5.94V49.14c-.12,3.3-2.4,5.16-6.84,5.64a1,1,0,0,1-1.08-1.08,9.62,9.62,0,0,0-.9-2.1q-.36-1.35-5.76-2.34v-1c2.28.18,4.68.24,7.14.24,1.08,0,1.68-.18,1.74-.6V35.46c-2.28,1-4.62,1.92-7.08,2.76a5.79,5.79,0,0,0-.66,2.7c-.12.66-.36,1-.84,1s-1.62-1.56-3.06-4.8A36.09,36.09,0,0,0,120.9,33a100.15,100.15,0,0,0,13.38-2.46V19.8c-6.48.06-10.5.3-12.12.66-.42-1-.9-2-1.44-3.12a113.11,113.11,0,0,0,13.56.6V9.24a87.25,87.25,0,0,1-11.52,1.32,8.18,8.18,0,0,0-.24-1c9.36-1.92,16.38-4.8,21-8.64,3.72,2.64,5.64,4.2,5.64,4.62s-.36.6-1,.6c-1.44-.18-2.64-.3-3.48-.42a23.49,23.49,0,0,1-4.68,2v10.2H152c-.48-8.16-.84-13.74-1.2-16.74,5.7.6,8.58,1.14,8.7,1.68,0,.36-.24.6-.72.78q-1.17.63-2.16,1.08c0,4.92.12,9.36.36,13.2h7a22.43,22.43,0,0,1,3.9-4.14c.18,0,.36.06.54.06a10,10,0,0,1,1.44,1c2.52,2.16,3.84,3.54,3.84,4.14s-.24.84-.66.84h-16c.18,2.88.42,5.46.78,7.68a65.71,65.71,0,0,0,1.8,6.66,33,33,0,0,0,4.62-11.7C169.56,24.48,172.2,25.8,172.2,26.34Zm-2-17.46a8.62,8.62,0,0,1-.24,2,2.39,2.39,0,0,1-2.34,1.74c-.66,0-1.56-1.08-2.76-3.24a17.37,17.37,0,0,0-4.08-5.22,1.57,1.57,0,0,0,.42-.78C166.92,4.08,169.92,5.88,170.16,8.88Z"/><path d="M230.52,2.64c1.44,1.08,2.16,1.92,2.16,2.4s-.36.72-1.08,1.08a12.37,12.37,0,0,0-1.92,1.38v4.44c.18,1.68.3,2.82.3,3.3,0,1.32-1.08,2-3.12,2-1.56,0-2.4-.36-2.46-1.08v-.84H193.26v4.5c0,7.44-.36,13-1.08,16.62a30.46,30.46,0,0,1-3.06,9.36c-2.1,4.44-4.2,7.32-6.36,8.76a1,1,0,0,1-.84-.54,52.42,52.42,0,0,0,4.38-13c1-4.2,1.5-11.16,1.56-21,0-7.44-.06-12.06-.06-13.86,0-1.44-.12-3.18-.24-5.16l5.76,2.58H224c1.56-1.8,2.64-2.7,3.24-2.76A10,10,0,0,1,230.52,2.64ZM193.26,13.8h12.6V5.1h-12.6ZM222.6,22C224.4,20,225.54,19,226,19a7.35,7.35,0,0,1,2.7,1.44q2.52,1.89,2.52,2.52c0,.36-.36.72-1,1.08a12.21,12.21,0,0,0-1.74,1.32V41.64c.12,5.64.24,9.36.36,11.28,0,1.2-1.38,1.86-4,1.86-1.08,0-1.56-.42-1.56-1.26V50.28H202.92v3c-.24,1.2-1.38,1.8-3.3,1.8-1.2,0-1.92-.24-2.16-.6,0-5.46.06-10.8.24-16V28a55.48,55.48,0,0,0-.48-8l5.22,2Zm.66,1.5H202.92v6.9h20.34ZM202.92,39.18h20.34V32H202.92Zm20.34,1.56H202.92v8h20.34Zm-12-26.94H224.4V5.1H211.26Z"/><path d="M290.4,29.88c2.76,2.28,4.14,3.78,4.14,4.44s-.24.78-.66.78H271c2.52,5.46,8.1,9.42,16.74,11.94a35.63,35.63,0,0,0,6.84,1.56,2.3,2.3,0,0,1-.3,1.14,4.9,4.9,0,0,0-1.8.66,6.09,6.09,0,0,0-1.62,2.52c-.54,1-1,1.5-1.5,1.5a10.09,10.09,0,0,1-3.06-1c-9.06-3.42-14.7-9.48-16.92-18.3h-1.2A21.71,21.71,0,0,1,260.7,47c-5,3.9-11.58,6.54-19.68,8q-.18-.09-.36-1.08a35.12,35.12,0,0,0,12.42-5.82,22.65,22.65,0,0,0,7.68-9,19.45,19.45,0,0,0,1.5-4h-6.78c-7,0-11.4.24-13.08.72-.42-1-.9-2-1.44-3.12a119.1,119.1,0,0,0,14.76.6h6.9a41.71,41.71,0,0,0,.54-7.14c2,.54,4.32,1.08,6.84,1.68,1.56.48,2.34,1,2.34,1.38s-.3.78-.9,1c-.84.36-1.68.78-2.64,1.2-.12.72-.18,1.32-.3,1.92H284c1.92-2.46,3.3-4,4.2-4.5.18,0,.36.06.54.06A13.76,13.76,0,0,1,290.4,29.88Zm-28.32-20c0,.84-1.14,1.32-3.3,1.56A39.61,39.61,0,0,1,242.16,25a4.86,4.86,0,0,0-1.08-.6A37.59,37.59,0,0,0,253.8,6.6Q262.08,9.21,262.08,9.84Zm11-8.34a.86.86,0,0,1,.36.72,1.35,1.35,0,0,1-.84.9c-.54.3-.9.48-1,.54V19q-.36,5.58-6.12,6.3c-.54,0-.84-.48-1-1.44s-1.2-2.1-2.88-3.12a14.61,14.61,0,0,0-3.18-1.26,4.48,4.48,0,0,1,.18-1.2,27.72,27.72,0,0,0,4.86.72c1.8,0,2.7-.66,2.7-2V5.52a36.51,36.51,0,0,0-.3-5.46Q269.46.6,273.06,1.5Zm20.4,17.7a5,5,0,0,1-.84,3.36,2.35,2.35,0,0,1-2,.84c-1.38,0-2.82-1.68-4.38-5a32.82,32.82,0,0,0-9.78-10.5,5,5,0,0,1,.42-.78C287.64,10.5,293.16,14.52,293.46,19.2Z"/><path d="M312.54,5.58c1.8-1.92,2.94-2.94,3.42-2.94a9.07,9.07,0,0,1,2.7,1.5q2.52,1.89,2.52,2.52c0,.36-.3.72-.78,1.08A10,10,0,0,0,319,9.06V29.88c.12,7.14.18,11.94.3,14.4,0,1.32-1.32,1.92-4,1.92-1.08,0-1.56-.42-1.56-1.32V44h-6.18v3.84q-.36,1.8-3.24,1.8c-1.2,0-2-.24-2.22-.6,0-7.2.06-14.28.24-21.18V14a96.51,96.51,0,0,0-.48-10.56l5.46,2.1Zm1.26,1.56h-6.18v10h6.18Zm-6.18,22.32h6.18V18.72h-6.18ZM313.8,31h-6.18V42.48h6.18Zm15-26.82h14.64q2.34-3,3.24-3.06a10.7,10.7,0,0,1,3.18,1.8c1.44,1.08,2.22,1.92,2.22,2.4s-.3.72-.78,1.08A8.87,8.87,0,0,0,350,7.8V17.88c.18,4,.3,6.48.3,7.62,0,1.32-1.08,2-3.12,2-1.56,0-2.4-.36-2.46-1.14v-1h-9.48a36.07,36.07,0,0,0,5.88,12.78,23.29,23.29,0,0,0,6.6-9.06q1.44,1,4.86,2.88c1.14.78,1.74,1.32,1.74,1.56-.06.42-.36.6-.9.6-1.14.12-1.92.18-2.34.24a38.55,38.55,0,0,1-4.62,3.06,29.22,29.22,0,0,1-4.38,1.92,21.07,21.07,0,0,0,4.14,3.9,22.38,22.38,0,0,0,9.12,4.08,3.22,3.22,0,0,0-.24,1.14,19,19,0,0,0-1.62,1.08,6.42,6.42,0,0,0-1.38,2.64c-.18,1.08-.6,1.68-1.32,1.68-2.16-.48-5-2.76-8.46-6.78C338.7,43,336,36,334.26,26.16l.24-.78h-5.34v20.7a64.34,64.34,0,0,0,8.46-1.92,1,1,0,0,1,.36.54c-4.2,3.18-10.14,5.88-17.88,8.16,0,1.14-.18,1.74-.54,1.74s-.66-.6-1.26-1.68-1.44-3-2.4-5.4c2.82-.18,5.46-.42,7.86-.72V7c-.06-1.2-.18-3-.42-5.28C325.32,2.64,327.12,3.48,328.8,4.2Zm16,9.18V5.7h-15.6v7.68Zm0,10.44V15h-15.6v8.82Z"/><path d="M409.74,2.64C411.18,3.72,412,4.56,412,5s-.36.72-1,1.08a8,8,0,0,0-1.74,1.38v3.9c.18,1.5.3,2.46.3,2.88,0,1.32-1.08,2-3.12,2-1.56,0-2.4-.36-2.46-1.08V13.5H372.12v1.56c0,10.5-.42,17.64-1.2,21.42a41.81,41.81,0,0,1-2.16,8.34c-1.86,4.68-4.2,8-7,10-.48-.12-.78-.36-.84-.72,3.48-6.12,5.28-17.4,5.28-33.84V7.5a40.25,40.25,0,0,0-.48-6.6l6.18,2.52h31.38C404.88,1.74,406,.9,406.56.84A10.7,10.7,0,0,1,409.74,2.64Zm-37.68,9.3H404v-7h-32Zm33,7.8c0,.48-.36.66-1.08.66-1.56-.18-2.82-.36-3.78-.48a45.28,45.28,0,0,1-8.58,2.28V30c2.64-.36,5.28-.78,8-1.2,1.68-3.48,2.76-5.22,3.3-5.22a17,17,0,0,1,3.84,1.92c2,1.32,3.12,2.16,3.12,2.52s-.36.72-1,.72h-.12c-7.08,1.38-12.84,2.4-17.16,3.12v6.78c3.72-.54,7.62-1.14,11.58-1.74q2.52-5.22,3.24-5.22a15.79,15.79,0,0,1,3.9,1.92q3.06,2,3.06,2.52,0,.72-.9.72h-.12c-8.7,1.62-15.6,2.82-20.76,3.66v5.58c.3,1.5,1,2.22,2.22,2.22H406.5c1.68,0,2.64-1,2.88-3.12A44.37,44.37,0,0,0,410.76,39a3.32,3.32,0,0,0,1.08.12v6.3a2,2,0,0,0,1.14,2c1.2.48,1.86,1.08,1.86,1.68,0,1.32-1.08,2.28-3.24,2.94a77.85,77.85,0,0,1-11.28.84q-6.12,0-7.92-.18c-4-.3-6.06-2.16-6.12-5.64V41.34a.65.65,0,0,1-.3.06c-7.08,1.26-11.1,2.1-12.06,2.46A12.08,12.08,0,0,1,372.06,41a103.45,103.45,0,0,0,14.22-1.56V32.76a1.17,1.17,0,0,1-.42.06c-6.12,1.08-9.66,1.8-10.5,2.16a12.17,12.17,0,0,1-1.86-2.76,97.65,97.65,0,0,0,12.78-1.44V23a124.54,124.54,0,0,1-12.48,1,7,7,0,0,0-.24-1.08q17-2.7,25.38-8.1C403,17.64,405.06,19.26,405.06,19.74Z"/><path d="M451,22.62a6.91,6.91,0,0,1-.3,2.16,2.54,2.54,0,0,1-2.52,1.86c-.72,0-1.68-1-2.94-3.06a17.68,17.68,0,0,0-4.38-5,1.54,1.54,0,0,0,.42-.84Q450.66,18.66,451,22.62Zm7.5-7.86c-1.2,4.08-2.76,9.48-4.8,16.08s-2.88,10.26-2.88,11.22a21.51,21.51,0,0,0,.66,5,25.26,25.26,0,0,1,.78,4.26c0,1.68-1,2.58-2.82,2.58-2.28,0-3.42-1.08-3.48-3.24,0-1.08.18-3.24.54-6.6,0-1.8-.6-2.94-1.74-3.42a18.83,18.83,0,0,0-3.84-1.14,2.28,2.28,0,0,1,.18-1c1,0,2,.06,3,.06A5,5,0,0,0,449,35.1l8.64-20.7C457.68,14.58,457.92,14.7,458.52,14.76ZM455,8.46a7.5,7.5,0,0,1-.3,2.16,2.55,2.55,0,0,1-2.52,1.8c-.72,0-1.74-1-3.06-3a18.85,18.85,0,0,0-4.44-5,1.57,1.57,0,0,0,.42-.78C451.44,4.26,454.74,5.82,455,8.46Zm36.9,22.26q2,1.8,2,2.34c0,.36-.24.48-.66.48-8.22.6-15.06,1.14-20.46,1.62a24.38,24.38,0,0,0,4,7,34.25,34.25,0,0,0,8-7.32c4.32,1.92,6.48,3.18,6.48,3.9-.12.36-.36.48-.78.48h-1.86A42.62,42.62,0,0,1,480,45.36a18.59,18.59,0,0,0,8.1,3.72c1.56,0,3-3.12,4.38-9.42a1.6,1.6,0,0,0,.72.18c-.36,3.12-.78,5.76-1.14,8a3.63,3.63,0,0,0,.9,2.76,3,3,0,0,1,1.32,2.7c0,1.14-1.08,1.74-3.18,1.74a21.41,21.41,0,0,1-16.56-7.08A80.55,80.55,0,0,1,453.9,53.1a1.36,1.36,0,0,0-.3-.6,98,98,0,0,0,18.54-7.56,36.44,36.44,0,0,1-4.68-9.3c-6.9.72-10.74,1.26-11.58,1.62-.36-1-.6-1.8-.84-2.58,1.92-.06,5.82-.3,11.82-.78v-.06a87.09,87.09,0,0,0-2.52-8.64c5.52.54,8.28,1.08,8.28,1.56a.65.65,0,0,1-.42.6c-.84.48-1.32.84-1.38,1.2a32.37,32.37,0,0,0,1.32,4.92c4-.3,8.4-.66,13.38-1.14,1.92-2.52,3.12-3.84,3.48-4A12.86,12.86,0,0,1,491.88,30.72Zm.18-24.36C493.32,7.68,494,8.52,494,8.88s-.24.48-.66.48c-7.62.6-13.92,1.14-18.84,1.5a19.83,19.83,0,0,0,3.18,5.82,20.68,20.68,0,0,0,5.46-5.52c4.38,1.8,6.6,2.94,6.6,3.54s-1.14.78-3.3,1a28.61,28.61,0,0,1-5.88,3.9,14.92,14.92,0,0,0,8.28,3.3q1.53-.54,3.6-8.64c0,.06.18.06.6.06-.3,3.18-.54,5.46-.78,6.84A5.37,5.37,0,0,0,493.5,24a2.85,2.85,0,0,1,.9,1.74c0,1.44-1.2,2.22-3.48,2.28-6.6,0-11.88-2-15.72-6.18a70.88,70.88,0,0,1-18.06,3.3.84.84,0,0,1-.3-.66,61.41,61.41,0,0,0,16.38-5.1,29.56,29.56,0,0,1-4-8c-5.64.6-8.82,1-9.54,1.32a25.69,25.69,0,0,1-.84-2.58c1.62,0,4.86-.24,9.78-.6A13,13,0,0,1,468.24,8c-.54-2.88-1.14-5.4-1.8-7.68q7.74.9,7.74,1.44c0,.24-.18.42-.42.6a6.33,6.33,0,0,0-1.38.84,34.38,34.38,0,0,0,1.44,5.82c3.42-.24,7.38-.6,11.88-1,1.92-2.64,3.12-4,3.48-4.14A13,13,0,0,1,492.06,6.36Zm-13.32,20c2.1.84,3.18,1.8,3.18,2.94a2.86,2.86,0,0,1-1,2.34,2.31,2.31,0,0,1-1.56.42,2.11,2.11,0,0,1-2.16-1.74A9.31,9.31,0,0,0,475.8,28,17.1,17.1,0,0,0,474.3,26c.12-.12.24-.36.48-.6A19.15,19.15,0,0,1,478.74,26.4Zm2.7-25c2.1.84,3.18,1.86,3.18,3.06a3.34,3.34,0,0,1-1,2.58,2.42,2.42,0,0,1-1.74.48c-1,0-1.62-.6-1.92-1.92a8.37,8.37,0,0,0-1.32-2.46A11.21,11.21,0,0,0,477,1c.12-.12.24-.36.48-.6A14.53,14.53,0,0,1,481.44,1.44Z"/><path d="M511,22.62a6.91,6.91,0,0,1-.3,2.16,2.54,2.54,0,0,1-2.52,1.86c-.72,0-1.68-1-2.94-3.06a17.68,17.68,0,0,0-4.38-5,1.54,1.54,0,0,0,.42-.84Q510.66,18.66,511,22.62Zm7.5-7.86c-1.2,4.08-2.76,9.48-4.8,16.08s-2.88,10.26-2.88,11.22a21.51,21.51,0,0,0,.66,5,25.26,25.26,0,0,1,.78,4.26c0,1.68-1,2.58-2.82,2.58-2.28,0-3.42-1.08-3.48-3.24,0-1.08.18-3.24.54-6.6,0-1.8-.6-2.94-1.74-3.42a18.83,18.83,0,0,0-3.84-1.14,2.28,2.28,0,0,1,.18-1c1,0,2,.06,3,.06A5,5,0,0,0,509,35.1l8.64-20.7C517.68,14.58,517.92,14.7,518.52,14.76ZM515,8.46a7.5,7.5,0,0,1-.3,2.16,2.55,2.55,0,0,1-2.52,1.8c-.72,0-1.74-1-3.06-3a18.85,18.85,0,0,0-4.44-5,1.57,1.57,0,0,0,.42-.78C511.44,4.26,514.74,5.82,515,8.46Zm36.9,22.26q2,1.8,2,2.34c0,.36-.24.48-.66.48-8.22.6-15.06,1.14-20.46,1.62a24.38,24.38,0,0,0,4,7,34.25,34.25,0,0,0,8-7.32c4.32,1.92,6.48,3.18,6.48,3.9-.12.36-.36.48-.78.48h-1.86A42.62,42.62,0,0,1,540,45.36a18.59,18.59,0,0,0,8.1,3.72c1.56,0,3-3.12,4.38-9.42a1.6,1.6,0,0,0,.72.18c-.36,3.12-.78,5.76-1.14,8a3.63,3.63,0,0,0,.9,2.76,3,3,0,0,1,1.32,2.7c0,1.14-1.08,1.74-3.18,1.74a21.41,21.41,0,0,1-16.56-7.08A80.55,80.55,0,0,1,513.9,53.1a1.36,1.36,0,0,0-.3-.6,98,98,0,0,0,18.54-7.56,36.44,36.44,0,0,1-4.68-9.3c-6.9.72-10.74,1.26-11.58,1.62-.36-1-.6-1.8-.84-2.58,1.92-.06,5.82-.3,11.82-.78v-.06a87.09,87.09,0,0,0-2.52-8.64c5.52.54,8.28,1.08,8.28,1.56a.65.65,0,0,1-.42.6c-.84.48-1.32.84-1.38,1.2a32.37,32.37,0,0,0,1.32,4.92c4-.3,8.4-.66,13.38-1.14,1.92-2.52,3.12-3.84,3.48-4A12.86,12.86,0,0,1,551.88,30.72Zm.18-24.36C553.32,7.68,554,8.52,554,8.88s-.24.48-.66.48c-7.62.6-13.92,1.14-18.84,1.5a19.83,19.83,0,0,0,3.18,5.82,20.68,20.68,0,0,0,5.46-5.52c4.38,1.8,6.6,2.94,6.6,3.54s-1.14.78-3.3,1a28.61,28.61,0,0,1-5.88,3.9,14.92,14.92,0,0,0,8.28,3.3q1.53-.54,3.6-8.64c0,.06.18.06.6.06-.3,3.18-.54,5.46-.78,6.84A5.37,5.37,0,0,0,553.5,24a2.85,2.85,0,0,1,.9,1.74c0,1.44-1.2,2.22-3.48,2.28-6.6,0-11.88-2-15.72-6.18a70.88,70.88,0,0,1-18.06,3.3.84.84,0,0,1-.3-.66,61.41,61.41,0,0,0,16.38-5.1,29.56,29.56,0,0,1-4-8c-5.64.6-8.82,1-9.54,1.32a25.69,25.69,0,0,1-.84-2.58c1.62,0,4.86-.24,9.78-.6A13,13,0,0,1,528.24,8c-.54-2.88-1.14-5.4-1.8-7.68q7.74.9,7.74,1.44c0,.24-.18.42-.42.6a6.33,6.33,0,0,0-1.38.84,34.38,34.38,0,0,0,1.44,5.82c3.42-.24,7.38-.6,11.88-1,1.92-2.64,3.12-4,3.48-4.14A13,13,0,0,1,552.06,6.36Zm-13.32,20c2.1.84,3.18,1.8,3.18,2.94a2.86,2.86,0,0,1-1,2.34,2.31,2.31,0,0,1-1.56.42,2.11,2.11,0,0,1-2.16-1.74A9.31,9.31,0,0,0,535.8,28,17.1,17.1,0,0,0,534.3,26c.12-.12.24-.36.48-.6A19.15,19.15,0,0,1,538.74,26.4Zm2.7-25c2.1.84,3.18,1.86,3.18,3.06a3.34,3.34,0,0,1-1,2.58,2.42,2.42,0,0,1-1.74.48c-1,0-1.62-.6-1.92-1.92a8.37,8.37,0,0,0-1.32-2.46A11.21,11.21,0,0,0,537,1c.12-.12.24-.36.48-.6A14.53,14.53,0,0,1,541.44,1.44Z"/><path d="M569.52,21.54a6.39,6.39,0,0,1-.36,2.34,2.61,2.61,0,0,1-2.64,1.92c-.6,0-1.38-1-2.4-2.94a16.46,16.46,0,0,0-3.6-4.74,1.61,1.61,0,0,0,.48-.9C566.46,17.76,569.28,19.2,569.52,21.54Zm7.56-4.8c-1.08,3.84-2.58,8.94-4.38,15.18s-2.58,9.66-2.58,10.62a20.61,20.61,0,0,0,.66,4.92,23.74,23.74,0,0,1,.84,4.14c0,1.8-1,2.76-3,2.76-2.4,0-3.66-1.2-3.72-3.48,0-1,.18-3,.54-6.18,0-1.92-.48-3.18-1.38-3.72a12.35,12.35,0,0,0-3-1.2,2.39,2.39,0,0,1,.18-1c.54,0,1.08.06,1.62.06a5,5,0,0,0,4.86-3.24l8.46-19.2Q576.18,16.65,577.08,16.74ZM573.6,7.56a8.22,8.22,0,0,1-.3,2.34,2.61,2.61,0,0,1-2.64,1.92c-.72,0-1.68-1-2.94-2.94a17.37,17.37,0,0,0-4.26-4.8c.24-.12.36-.42.48-.84C570.18,3.78,573.36,5.22,573.6,7.56ZM611,28q3.78,3.24,3.78,4.14c0,.54-.24.78-.6.78H597.9c2.4,3.72,4.92,6.36,7.62,7.8a18.82,18.82,0,0,0,9.84,3q-.09.72-.18,1.26a4,4,0,0,0-1.62,1.08,11.31,11.31,0,0,0-1.26,2.58c-.3.84-.78,1.26-1.38,1.26-1.5,0-4-1.68-7.5-5.1a28.7,28.7,0,0,1-7-11.88h-.54L596,53.46c-.12,1.08-1.2,1.68-3.24,1.74q-2.52,0-2.52-1.26c0-5.52.06-10.68.06-15.6-3.36,4.92-8.88,8.94-16.62,11.94-.24,0-.48-.3-.66-.84,6.72-4.5,11.1-9.3,13.2-14.46a16.58,16.58,0,0,0,.9-2h-1.8c-5.28,0-8.52.24-9.84.72a27.65,27.65,0,0,0-1.38-3.12,61.39,61.39,0,0,0,10.62.6h5.58V27.72c-.12-2-.18-3.6-.24-4.68,5.76,1,8.7,1.74,8.7,2.34,0,.36-.42.72-1.2,1.08-1.2.54-1.74.9-1.74,1.08v3.6h9.3c1.8-2.28,3.06-3.66,3.9-4.14.12,0,.3.06.48.06A15.36,15.36,0,0,1,611,28ZM581.94,1.08c.18,1.08.36,2.1.48,3.18H607c1.56-1.92,2.7-2.94,3.3-3.12a16.77,16.77,0,0,1,2.7,2c1.56,1.44,2.4,2.4,2.4,2.76,0,.54-.54.84-1.56.84L612.24,7a38.43,38.43,0,0,1-7,6.18,2.31,2.31,0,0,1-.66-.48,26.81,26.81,0,0,0,2.88-7h-24.9c0,.48.06.9.06,1.26,0,4.92-1.5,7.38-4.5,7.5-2.16,0-3.3-.72-3.36-2.22a3.52,3.52,0,0,1,.48-2.1,9.15,9.15,0,0,1,2.4-2.34Q580.23,5.7,580.86,1C581.52,1.08,581.88,1.08,581.94,1.08Zm11.64,9.6c0,.36-.3.6-.84.72l-2,.54c-1.62,8.4-6.24,13.32-13.86,14.64a3.44,3.44,0,0,1-.24-.84c5.46-3.24,8.46-9.12,8.94-17.58C590.88,9.36,593.58,10.2,593.58,10.68Zm10.62-.3a1,1,0,0,1-.84,1c-1,.42-1.62.72-1.86.84v5.4q0,1.62,2.34,2a13.05,13.05,0,0,0,1.5.06,4.46,4.46,0,0,0,2.7-1,2.08,2.08,0,0,1,1.14-.66,4.43,4.43,0,0,1,.72.12c1.32.84,2,1.5,2.16,1.92a1.12,1.12,0,0,1,.42,1c-.18,1.92-2.94,2.88-8.22,2.88a16,16,0,0,1-5.1-.6c-1.68-.3-2.58-1.62-2.7-4V12.66a37,37,0,0,0-.48-4.5C601.08,9,603.84,9.78,604.2,10.38Z"/><path d="M629.52,21.54a6.39,6.39,0,0,1-.36,2.34,2.61,2.61,0,0,1-2.64,1.92c-.6,0-1.38-1-2.4-2.94a16.46,16.46,0,0,0-3.6-4.74,1.61,1.61,0,0,0,.48-.9C626.46,17.76,629.28,19.2,629.52,21.54Zm7.56-4.8c-1.08,3.84-2.58,8.94-4.38,15.18s-2.58,9.66-2.58,10.62a20.61,20.61,0,0,0,.66,4.92,23.74,23.74,0,0,1,.84,4.14c0,1.8-1,2.76-3,2.76-2.4,0-3.66-1.2-3.72-3.48,0-1,.18-3,.54-6.18,0-1.92-.48-3.18-1.38-3.72a12.35,12.35,0,0,0-3-1.2,2.39,2.39,0,0,1,.18-1c.54,0,1.08.06,1.62.06a5,5,0,0,0,4.86-3.24l8.46-19.2Q636.18,16.65,637.08,16.74ZM633.6,7.56a8.22,8.22,0,0,1-.3,2.34,2.61,2.61,0,0,1-2.64,1.92c-.72,0-1.68-1-2.94-2.94a17.37,17.37,0,0,0-4.26-4.8c.24-.12.36-.42.48-.84C630.18,3.78,633.36,5.22,633.6,7.56ZM671,28q3.78,3.24,3.78,4.14c0,.54-.24.78-.6.78H657.9c2.4,3.72,4.92,6.36,7.62,7.8a18.82,18.82,0,0,0,9.84,3q-.09.72-.18,1.26a4,4,0,0,0-1.62,1.08,11.31,11.31,0,0,0-1.26,2.58c-.3.84-.78,1.26-1.38,1.26-1.5,0-4-1.68-7.5-5.1a28.7,28.7,0,0,1-7-11.88h-.54L656,53.46c-.12,1.08-1.2,1.68-3.24,1.74q-2.52,0-2.52-1.26c0-5.52.06-10.68.06-15.6-3.36,4.92-8.88,8.94-16.62,11.94-.24,0-.48-.3-.66-.84,6.72-4.5,11.1-9.3,13.2-14.46a16.58,16.58,0,0,0,.9-2h-1.8c-5.28,0-8.52.24-9.84.72a27.65,27.65,0,0,0-1.38-3.12,61.39,61.39,0,0,0,10.62.6h5.58V27.72c-.12-2-.18-3.6-.24-4.68,5.76,1,8.7,1.74,8.7,2.34,0,.36-.42.72-1.2,1.08-1.2.54-1.74.9-1.74,1.08v3.6h9.3c1.8-2.28,3.06-3.66,3.9-4.14.12,0,.3.06.48.06A15.36,15.36,0,0,1,671,28ZM641.94,1.08c.18,1.08.36,2.1.48,3.18H667c1.56-1.92,2.7-2.94,3.3-3.12a16.77,16.77,0,0,1,2.7,2c1.56,1.44,2.4,2.4,2.4,2.76,0,.54-.54.84-1.56.84L672.24,7a38.43,38.43,0,0,1-7,6.18,2.31,2.31,0,0,1-.66-.48,26.81,26.81,0,0,0,2.88-7h-24.9c0,.48.06.9.06,1.26,0,4.92-1.5,7.38-4.5,7.5-2.16,0-3.3-.72-3.36-2.22a3.52,3.52,0,0,1,.48-2.1,9.15,9.15,0,0,1,2.4-2.34Q640.23,5.7,640.86,1C641.52,1.08,641.88,1.08,641.94,1.08Zm11.64,9.6c0,.36-.3.6-.84.72l-2,.54c-1.62,8.4-6.24,13.32-13.86,14.64a3.44,3.44,0,0,1-.24-.84c5.46-3.24,8.46-9.12,8.94-17.58C650.88,9.36,653.58,10.2,653.58,10.68Zm10.62-.3a1,1,0,0,1-.84,1c-1,.42-1.62.72-1.86.84v5.4q0,1.62,2.34,2a13.05,13.05,0,0,0,1.5.06,4.46,4.46,0,0,0,2.7-1,2.08,2.08,0,0,1,1.14-.66,4.43,4.43,0,0,1,.72.12c1.32.84,2,1.5,2.16,1.92a1.12,1.12,0,0,1,.42,1c-.18,1.92-2.94,2.88-8.22,2.88a16,16,0,0,1-5.1-.6c-1.68-.3-2.58-1.62-2.7-4V12.66a37,37,0,0,0-.48-4.5C661.08,9,663.84,9.78,664.2,10.38Z"/></g></g></svg>