<?xml version="1.0" encoding="UTF-8"?>
<svg id="Layer_1_图像" data-name="Layer 1 图像" xmlns="http://www.w3.org/2000/svg" version="1.1" viewBox="0 0 864 480">
  <defs>
    <style>
      .cls-1 {
        fill: none;
        stroke: #000;
        stroke-linecap: round;
        stroke-linejoin: round;
        stroke-opacity: .7;
        stroke-width: 4px;
      }

      .cls-2 {
        fill: #000;
        stroke-width: 0px;
      }
    </style>
  </defs>
  <path class="cls-2" d="M545.3,326.2c-1.1-2.9-4.7-5.1-7.7-5.6-7.2-1-15.2-.4-22.7.1,0-1.9,0-4,0-6-.2-4.6-.3-9.2-.2-13.8,0-1.7-.5-4.8.2-6.2,1.2-2.4,4.5-2.1,6.7-2.2h.2c2.7,0,3.6-2.3,2.5-4.5-1.3-2.6-4.7-4-7.5-4.1-3.4-.2-8.3-.1-11.3,2.2-7.4.6-15.1-.2-22.1-1.3-6.1-1-2,6.1,2,6.7,5.9,1,11.6,1.3,17.4,1.3,0,1-.1,2-.2,2.9-.3,4.5-.4,9-.5,13.5,0,2.8.8,9.4-1.4,12.4-1.7.1-3.3.2-5,.3-2.6.2-5.2.4-7.8.6l-3.9.5c-1.5,0-2.1,0-1.9.1-3.6-1.7-9,.6-5.1,4.6,3.6,3.6,7,4.2,11.9,3.8,4.6-.4,9.3-.9,13.9-1.2.9.4,1.8.6,2.5.6,1.9,0,3.5-.4,4.7-.9,4.4-.1,8.8-.1,13.1,0,6.2.1,12.7,1.5,18.9,1.1,2.8-.2,4.3-2.1,3.3-4.8h0Z"/>
  <g>
    <path class="cls-2" d="M586.5,293.8c.2-.3.4-.5.6-.8,3.1-4.2,7.4-10,7.2-15.5-.2-3.6-5.7-6.6-9-4.8-4.6,2.5-7.6,8.4-10.7,12.5-3.3,4.4-7.7,8.5-9.8,13.7-2,4.9,6.4,8.5,10,6.6,2.9-1.5,5.2-3.6,7.3-6-.3,8.1-1.2,16.2-1.6,24.3-.4.6-.5,1.4-.3,2.5l.2,1.6h0c.6,5.2,13.3,11.8,13.8,4.8.6-11.4-1.1-22.7-2.2-34-.3-1.9-3-4.1-5.5-5h0Z"/>
    <path class="cls-2" d="M678,327.4c-1.9-2.5-4.8-4-7.9-4-8,.2-16.2,1.9-24.3,3.4-.2-4.8-.4-9.6-.7-14.4,6.3.4,13.1.5,18.6-1.6,5.3-2-1.8-7.9-4.7-8.2-4.8-.4-9.6,0-14.4.5-.5-8.8-1.4-17.7-1.1-26.4,0-4.4,2-6.2,4.7-7,1-.2,2.1-.4,3.1-.6,3.4-.3,7.4-.2,10.4-1.9,2.3-1.3,0-4.5-1-5.7-2-2-4.8-2.9-7.6-2.5-10.5,1.7-20.7,4.1-30.8,6.8.2-1.4.2-2.7-.2-4.2-1.5-5.5-6.5-9.4-12.2-9.5-2.1,0-2.9,1.6-2.3,3.4.3,1.1,1.3,2,2.4,2.7v.2c0,.7-.2,1.4-.5,2-.6,1.2-1.3,2.4-2.2,3.4-2,2.8-4,5.5-3.8,9.1.2,4.2,6.7,9,10.8,7.2,5.6-2.5,11.6-4.7,17.6-6.5-.2,2.9,0,5.9,0,8.6v22.1c-1.4.6-1.8,2.1-1,3.8.3.5.6,1,1,1.4,0,18.7-.3,37.4.2,56.1-1.6.6-2.5,2.4-1.9,4,0,.3.3.7.5,1,2.1,3.1,5.1,5.4,8.7,6.6,2.2.8,8.1,1.4,8-2.5-.2-13.4-.8-26.9-1.4-40.3,10.1.9,21.2,1.4,30.8-1.6,2.7-.8,2.3-3.5,1-5.4h.2Z"/>
  </g>
  <g>
    <path class="cls-2" d="M733.3,244.4c4.6,2.8,9.9,5.9,15.2,6.9,1.5.3,3.5-.1,3.7-1.9s-1.8-3.6-3.2-4.3c-4.2-2.2-8.8-3.4-13-5.7-1.5-.8-4.3-1.6-5.4.2s1.4,4,2.7,4.8Z"/>
    <path class="cls-2" d="M720.1,254.7c.3-3.8-7.9-7.7-9.2-3.3-2.5,8.5-4.3,17.1-6.1,25.7-.9,4-1.7,8.1-2.8,12.1-1.3,4.5-3.5,8.9-4.1,13.5-.7,5,9.1,9.6,12.3,5.6,5-6.5,6.2-17.8,7.3-25.7,1.4-9.3,1.7-18.6,2.6-27.9h0Z"/>
    <path class="cls-2" d="M732.6,267.9c10.3-3.1,22.3-5.2,33.8-4.5-2.2,1.2-4.5,2.3-6.7,3.4-5.9,2.8,3.3,9.5,7.4,8.3,7.9-2.2,16.1-4.1,23.2-8.2,2.4-1.4.6-4.7-.6-6.1-2.1-2.4-5.1-3.7-8.3-3.8-9.2-.3-18.2-1.7-27.5-.9-9.1.8-18.1,2.7-26.7,5.8-4.2,1.6,2.4,6.9,5.4,6h0Z"/>
    <path class="cls-2" d="M734.7,313.5c3.8-.5,6.7-1.6,9-4.8.7-1,.8-1.9.5-2.8,2-1.9,4.1-3.7,6.2-5.5,4.3-3.6,9.5-6.6,13.1-11.1,1.8-2.2-1.8-5.6-3.3-6.6-2.1-1.4-4.7-2.2-7.1-1.5h0c-.9.3-1.8.7-2.6,1.1-3.2,1.2-7.1,1.6-10.3,2.3-4.1.8-8.2,1.4-12.3,1.6-6.1.4,0,6.9,3.1,7.3,1.1.2,2.2.3,3.3.3-3.6,3.1-6.9,6.5-9.9,10.1-3.6,4.4,7,10,10.3,9.6Z"/>
    <path class="cls-2" d="M761.1,294c-1.4,2.2,1.7,4.7,3.3,5.6,2.4,1.4,4.8,2.9,7,4.5,2.8,2,5.5,4.2,8.8,5.4,1.8.6,4.5,1,6-.6s.4-3.9-.9-5.2c-4.6-4.7-11.8-7.1-17.7-9.9-1.8-.8-5.1-2-6.5.2h0Z"/>
    <path class="cls-2" d="M725.6,318.3h0,0Z"/>
    <path class="cls-2" d="M804.8,346.8c-.9-4-5.8-7.1-9.9-7.5-12.1-2.2-24.3-2.3-36.5-1.3-.7,0-1.4.1-2.1.2.5-2.5.7-5.2.9-7.6,0-1.2.2-2.3.2-3.5,2.9-.4,5.9-1.1,7.9-3.2,1.7-1.9.9-3.7-.5-5.5-3.3-4.1-7.8-7.1-12.9-8.5-1.9-.6-6-1.1-6.2,2,0,2.5-.3,5-.6,7.5h-1.6c-2.4.3-5.8.9-8.7.9-1.8-2.8-7.1-4.4-9.1-2.1-2,2.4,0,5.6,2.2,7.3,3.6,2.9,8.3,2.8,12.7,2.9h3.2c-.7,3.3-1.5,6.7-1.2,10.1,0,.3,0,.6.2.9-7.5.6-15.1,1.3-22.5,2.3-2.6.3-3.8,2.1-2.5,4.5,1.4,2.7,4.8,4,7.6,4.2,23.7,1.5,47.8-7.9,71.1.7,3.4,1.2,9.4.9,8.3-4.2h0Z"/>
  </g>
  <g>
    <path class="cls-2" d="M490.4,139.7c6,2.8,12.4,4.9,18.9,6.2,2,.3,4.2-.3,4.2-2.6s-3.1-4.2-5-5.1c-7-3.1-18.2-2.9-22.8-9.9-1.2-1.9-3.7-3.7-6.1-3.4-2.2.3-3.2,1.7-2.1,3.7,2.8,5.2,7.5,8.7,12.9,11.1Z"/>
    <path class="cls-2" d="M497.5,172.3c-3.4,1.8-6.4,4.1-9.8,5.9-1.5.9-3.1,1.6-4.8,2.2-1,.4-2,.7-3,.9h-1.4c-1.8-3-9-5.4-8.4-.7,1,7,9.4,9,15.3,8.3,7.7-.8,15.3-4.6,21.2-9.4,4.4-3.6-5.5-9.2-9.1-7.2h0Z"/>
    <path class="cls-2" d="M506.1,198.5c-1.9,3.6-4,7.1-6.3,10.5-1.7,2.6-4.8,8.4-8.3,8.7-1.9.1-2.6,1.6-1.8,3.2,1.1,2,3.4,3,5.5,3.1,5,.3,8.4-3,11.4-6.6,3.5-4.2,6.5-8.8,8.7-13.8,1.8-3.9-7.2-8.9-9.2-5.1h0Z"/>
    <path class="cls-2" d="M579.9,179.9c-7.1-4.8-14.8-2.4-22.6-.7,0-7.6-1.9-16.4,5.4-20.5,4.5-2.6-5.2-9.4-9.2-7.3h0c0,0-.3.1-.4.2-3.7,2-7.7,3.4-11.8,4.4-2,.5-3.9.8-5.9,1.1-.5,0-4.5.8-4.8.4-1.3-1.2-3.9-3-5.8-2.1-1.9.9-1.8,2.6-.6,4,5,5.9,13.3,6.4,21.3,4.9-.5,2.9-.6,6-.6,8.8s0,6.6-1.7,9.1c-5.1,1.2-10.1,2.4-15.1,3.6h-.5c-3.3,1-2.1,4.6-.5,6.5,2.4,2.7,6,4.1,9.5,3.5,5-1,10.7-1.5,14.9-4.1,1.7-.4,3.4-.8,5.1-1.2,3.1-.7,6.2-1.3,9.3-1.9,1.9-.4,3.7-.7,5.6-1,.9,0,4-1,4.6-.8,5.8,2,9.5-3.4,3.9-7.1v.2Z"/>
  </g>
  <g>
    <path class="cls-2" d="M611.8,138.7c6.7,4.2,15.6,8.2,23.7,7.7,2,0,2.9-1.4,2.2-3.2-.7-2-3.3-3.4-5.2-3.8-6.4-1.3-12.4-1.8-18.5-4.7-4.2-2.1-6.2,1.5-2.2,4Z"/>
    <path class="cls-2" d="M624.5,167.9c-3.4,1.4-6.6,3.2-9.6,5.2l-4.1,2.6c-.7.4-3.7,1.7-3.9,2.7-.2,0-.3,0-.5-.1-2.2-.2-4.7.6-4.1,3.2,1.2,5.1,7.7,6.8,12,4.9,6-2.7,13.2-6.5,18.2-11,3.9-3.5-4.7-8.8-8-7.5h0Z"/>
    <path class="cls-2" d="M636.5,185.1c-1.3-.8-5.7-2.2-6.5.2-1,2.9-2.2,5.8-3.4,8.6-.6,1.4-1.4,4.9-2.8,6.4-.7.1-1.3.4-1.6,1-.8,1.4.6,3.1,1.6,4,3.6,3.1,7.9,2.6,10.5-1.3s4.1-8.6,5.5-13.2c.7-2.5-1.2-4.5-3.3-5.7Z"/>
    <path class="cls-2" d="M716.4,179.8c-.7-1-1.6-2-2.5-2.9,2.3-2.7,4.4-5.8,5.5-8.9,3.8-3.1,7.3-7.1,10.4-11.2,1.4-1.9,3.9-4.6,4.2-7.1.3-2.6-1.9-5.2-3.8-6.7-4.3-3.3-10.8-4-16.1-3.8-4.6.3-.3,5.5,2.3,5.8.2,0,1.6.2,3,.5-.3.3-.6.6-.9.9-2,2.2-4.1,4.6-6.2,6.7-3.4-1.4-7.2-1.5-10.7-.3-1,.4-2,.8-2.8,1.4,0-.3,0-.5-.2-.8-1.3-5.5-3-10.1-7.4-13.1,3.1-4.1,5.5-7.8,3-12.8-1.9-3.1-5.4-4.7-8.9-4.1l-1.1.3c-1.8.4-2.1,1.4-1.8,2.6-2,2.7-4.1,5.3-6.3,7.8-.9.9-1.7,1.8-2.6,2.8,0-.9,0-1.7.2-2.6.4-6.7,1-12.9,7-17,.6-.4,1.2-.7,1.8-1,5.2-1.2,10.4-2.6,15.6-4,6.1-1.6-2.8-9.2-6.4-8.8-7,.9-15.1,2.4-21.1,6.6-1.4.3-2.8.5-4.2.7-5.8.9-15.3,3-19.8-1.9-2.4-2.8-9.8-2.7-6,1.7,5.7,6.8,14.5,8.3,22.9,8.2-1.3,3.5-1.7,7.2-2.1,11-.8,6.9-1.3,13.9-2,20.9-1.2,13.3-2.3,26.6-4.2,39.8-1,6.9-2.1,13.8-3.5,20.6-.6,3-1.2,6.1-2.2,9.1-.3.9-.7,1.9-1.1,2.8-3.2-1.5-6.9-1.8-6.9,1.4,0,6.9,3.7,12.3,10.6,13.8,7.9,1.8,10.6-4.8,12.3-11.2,4-14.7,5.2-30.5,6.4-45.7.8-9.8,1.3-19.7,1.9-29.6,2.4,1,5,1.2,6.6.3,2.3-1.4,4.4-3.1,6.3-5,0,1,.4,2.1.5,2.8.3,2.8.6,5.6.7,8.4.2,5.4-.6,10.7,0,16.1h0c.8,3.7,6.6,7,10.4,6.4.5.5,1.1.9,1.4,1.1,1.8,1.2,4.5,2.4,6.9,2.1h0c.6,1.6,1.2,3.2,1.6,4.9,1,3.4,1.5,6.9,1.7,10.5,0,3.4,0,6.7-.7,10-.2,1.4-.7,2.7-1.4,3.9-.3.6-.8,1.2-1.4,1.6-1.7-.7-3.7-1.1-5.3-.5-2.3.8-2.9,3.2-1.6,5.2,3.8,6,13.4,10.3,19.8,5.6,6.4-4.7,5.5-15.5,4.8-22.4-.8-7.8-2.3-16.3-6.8-22.9h.2ZM721.7,146.2h0Z"/>
    <path class="cls-2" d="M679.5,183.8c.3,7.1.3,15.9,3.3,22.4,1,2.2,4,3.9,6.2,4.5,1.4.4,5,.8,5.6-1.3,2.3-7.4-2.1-17.2-5.2-23.9-1.1-2.3-10.1-6.6-9.9-1.7h0Z"/>
    <path class="cls-2" d="M749.8,196.5c-3.7-3.9-9.7-5.8-14.5-8.3-1.8-.9-5.6-2.2-6.9.2-1.3,2.4,1.8,5,3.4,6.1,4.6,3,9.1,7,14.5,8.3,4.5,1.1,6.5-3.1,3.5-6.3Z"/>
  </g>
  <path class="cls-1" d="M240.2,72.5c54.6.8,120.3,13.9,153.6,61.2,44.4,70.9-28.9,159.3-80,206-33.5,29.7-96.8,78.6-143.7,65.3-26.5-8.5-38.8-37.2-45.5-62-15.1-59.6-15.1-146.4,0-206.1,6.7-24.8,19-53.5,45.5-62,43.7-12.5,100.4,29,132.7,55.6,54.7,46.7,137.6,141.2,91,215.7-33.3,47.4-99.1,60.5-153.6,61.2-57-.6-130.7-16-159.2-71.1-33.3-73.5,44-160.9,96.5-205.9,32.3-26.7,89-68.1,132.7-55.6,26.5,8.5,38.8,37.2,45.5,62,15.1,59.6,15.1,146.4,0,206.1-6.7,24.8-19,53.5-45.5,62-46.9,13.4-110.3-35.6-143.7-65.3-48.9-44.9-117.2-126.2-85.5-196.2,28.5-55.1,102.2-70.4,159.2-71.1"/>
</svg>