<?xml version="1.0" encoding="utf-8"?>
<!-- Generator: Adobe Illustrator 25.3.1, SVG Export Plug-In . SVG Version: 6.00 Build 0)  -->
<svg version="1.1" id="Layer_1_图像" xmlns="http://www.w3.org/2000/svg" xmlns:xlink="http://www.w3.org/1999/xlink" x="0px"
	 y="0px" viewBox="0 0 864 480" style="enable-background:new 0 0 864 480;" xml:space="preserve">
<style type="text/css">
	.st0{fill:#FFFFFF;}
</style>
<path class="st0" d="M485.4,291.5c12.3,2,24.1,1.2,36.4,1c2.7,0,3.6-2.3,2.5-4.5c-1.3-2.6-4.7-4-7.5-4.1c-3.6-0.2-8.8-0.1-11.7,2.5
	c-2.5,2.3-2.2,6.2-2.5,9.3c-0.3,4.5-0.4,9-0.5,13.5c0,3.3,1.1,11.7-2.8,13.5c-5.7,2.6,2.7,8.3,6,8.2c9.9-0.2,9.9-8.3,9.6-16.2
	c-0.2-4.6-0.3-9.2-0.2-13.8c0-1.7-0.5-4.8,0.2-6.2c1.2-2.4,4.6-2.1,6.8-2.2l-6.2-8.4c-10.1,3.3-21.8,2.3-32.1,0.7
	C477.3,283.8,481.4,290.9,485.4,291.5L485.4,291.5z"/>
<path class="st0" d="M477,327.7c3.6,3.6,7,4.2,11.9,3.8c5.8-0.5,11.6-1.1,17.5-1.4c5.6-0.3,11.2-0.3,16.7-0.2
	c6.2,0.1,12.7,1.5,18.9,1.1c2.8-0.2,4.3-2.1,3.3-4.8c-1.1-2.9-4.7-5.1-7.7-5.6c-9.1-1.3-19.3,0-28.4,0.5c-4.5,0.2-9,0.5-13.5,0.8
	c-2.6,0.2-5.2,0.4-7.8,0.6L484,323c-2.1-0.1-2.5,0-1.3,0.5C479.2,321.2,472.8,323.5,477,327.7L477,327.7z"/>
<path class="st0" d="M585.3,272.7c-4.6,2.5-7.6,8.4-10.7,12.5c-3.3,4.4-7.7,8.5-9.8,13.7c-2,4.9,6.4,8.5,10,6.6
	c5.3-2.7,8.9-7.8,12.3-12.5c3.1-4.2,7.4-10,7.2-15.5C594.1,273.9,588.6,270.9,585.3,272.7L585.3,272.7z"/>
<path class="st0" d="M582.2,295.4c-0.1,10.9-1.6,21.7-1.8,32.6l13,2.2c-0.5-1-1-2-1.5-3c-1.7-3.7-12.7-7.8-11.7-0.9l0.2,1.6
	c0.4,5.2,13.3,11.9,13.8,4.9c0.6-11.4-1.1-22.7-2.2-34C591.5,295.2,582.2,290.5,582.2,295.4L582.2,295.4z"/>
<path class="st0" d="M613,259.5c-2-2.5-3-2.9-2.9-1c-0.1,0.7-0.2,1.4-0.5,2c-0.6,1.2-1.3,2.4-2.2,3.4c-2,2.8-4,5.5-3.8,9.1
	c0.2,4.2,6.7,9,10.8,7.2c14-6.3,29.9-10.3,45.1-12.3l-7.4-8.3c-3.7,1.8-6.8,2.4-10.7,3.3c-3.4,0.8-6.4,2.3-8,5.5
	c-2.1,4.1-1.3,9.5-1.3,13.9c0,5.9-0.1,11.7,0,17.6c0.1,23.1-0.4,46.3,0.3,69.4l2.6-3h1.2l5.1,2.3l-1-0.8c-1.9-1.6-5.3-3.1-7.9-2.2
	c-1.7,0.6-2.6,2.4-2,4c0.1,0.3,0.3,0.7,0.5,1c2.1,3.1,5.1,5.4,8.7,6.6c2.2,0.8,8.1,1.4,8-2.5c-0.3-22.1-1.7-44.2-2.6-66.3
	c-0.4-10.5-1.7-21.2-1.4-31.7c0.3-10.9,11.5-5.7,18.2-9.4c2.3-1.3,0.1-4.5-1-5.7c-2-2-4.8-2.9-7.6-2.5c-16.2,2.7-31.6,6.8-47.3,11.4
	l10.5,8.3c2.6-5.4,7.5-10.8,5.8-17.1c-1.5-5.5-6.5-9.4-12.2-9.5c-2.1,0-2.9,1.6-2.3,3.4C608.3,257.6,611,259.1,613,259.5L613,259.5z
	"/>
<path class="st0" d="M637.9,311.9c8,0.5,18.2,1.8,25.9-1.1c5.3-2-1.8-7.9-4.7-8.2c-8.5-0.7-17.2,1.1-25.7,1.5
	c-2.4,0.1-3.3,2-2.3,4.1C632.3,310.6,635.3,311.7,637.9,311.9L637.9,311.9z"/>
<path class="st0" d="M643.1,334.1c10.9,1,23.3,2,33.9-1.3c2.7-0.8,2.3-3.5,1-5.4c-1.9-2.5-4.8-4-7.9-4c-9.9,0.2-20,2.8-29.8,4.3
	C635.3,328.5,640.1,333.9,643.1,334.1L643.1,334.1z"/>
<path class="st0" d="M733.3,244.4c4.6,2.8,9.9,5.9,15.2,6.9c1.5,0.3,3.5-0.1,3.7-1.9s-1.8-3.6-3.2-4.3c-4.2-2.2-8.8-3.4-13-5.7
	c-1.5-0.8-4.3-1.6-5.4,0.2S732,243.6,733.3,244.4L733.3,244.4z"/>
<path class="st0" d="M710.9,251.4c-2.5,8.5-4.3,17.1-6.1,25.7c-0.9,4-1.7,8.1-2.8,12.1c-1.3,4.5-3.5,8.9-4.1,13.5
	c-0.7,5,9.1,9.6,12.3,5.6c5-6.5,6.2-17.8,7.3-25.7c1.4-9.3,1.7-18.6,2.6-27.9C720.4,250.9,712.2,247,710.9,251.4L710.9,251.4z"/>
<path class="st0" d="M732.6,267.9c15.8-4.7,35.8-7.2,51.6-0.8l-4.2-9.9c-7.1,2.4-13.6,6.4-20.3,9.6c-5.9,2.8,3.3,9.5,7.4,8.3
	c7.9-2.2,16.1-4.1,23.2-8.2c2.4-1.4,0.6-4.7-0.6-6.1c-2.1-2.4-5.1-3.7-8.3-3.8c-9.2-0.3-18.2-1.7-27.5-0.9
	c-9.1,0.8-18.1,2.7-26.7,5.8C723,263.5,729.6,268.8,732.6,267.9L732.6,267.9z"/>
<path class="st0" d="M731,293.5c9.9,1.6,19.5-3,29.3-2.5l-7.2-9.9c-5.7,2.2-10.8,6.4-15.6,10.1c-4.9,3.7-9.3,8-13.1,12.7
	c-3.6,4.4,7,10,10.3,9.6c3.8-0.5,6.7-1.6,9-4.8c3.6-4.9-8-9.4-11.5-7.6c-1.3,0.7-2.7,1.1-4.2,1l9.5,10.6c4-4.4,8.3-8.5,12.9-12.3
	c4.3-3.6,9.5-6.6,13.1-11.1c1.8-2.2-1.8-5.6-3.3-6.6c-2.4-1.6-5.5-2.5-8.2-1.1c-3.4,1.8-8.1,2.2-11.8,3c-4.1,0.8-8.2,1.4-12.3,1.6
	C721.8,286.6,727.9,293.1,731,293.5L731,293.5z"/>
<path class="st0" d="M764.4,299.6c2.4,1.4,4.8,2.9,7,4.5c2.8,2,5.5,4.2,8.8,5.4c1.8,0.6,4.5,1,6-0.6s0.4-3.9-0.9-5.2
	c-4.6-4.7-11.8-7.1-17.7-9.9c-1.8-0.8-5.1-2-6.5,0.2S762.8,298.7,764.4,299.6L764.4,299.6z"/>
<path class="st0" d="M725.7,318.2c-2,2.4,0.1,5.6,2.2,7.3c3.6,2.9,8.3,2.8,12.7,2.9c4.9,0,9.7-0.3,14.5-1c3.5-0.5,7.7-0.8,10.2-3.5
	c1.7-1.9,0.9-3.7-0.5-5.5c-3.3-4.1-7.8-7.1-12.9-8.5c-1.9-0.6-6-1.1-6.2,2c-0.2,4.4-0.7,8.8-1.3,13.1s-2.2,8.9-1.8,13.4
	c0.4,4.1,8.4,9.8,11.5,5.2c2.5-3.7,2.7-8.7,3.1-13c0.4-4.8,0.5-9.7,0.1-14.5l-6.2,2c2,0.6,2.8,1.7,4.1,3.2l-1.2-4.7
	c-1.5,2.8-7.7,2.7-10.5,2.9c-3.6,0.4-9.2,1.6-12.5,0.2l3.8,2.5l0.6,0.6c0.7-4.1-7.3-7.5-9.8-4.5L725.7,318.2z"/>
<path class="st0" d="M725.4,350.3c23.7,1.5,47.8-7.9,71.1,0.7c3.4,1.2,9.4,0.9,8.3-4.2c-1-4.5-7.3-7.9-11.5-7.6
	c-0.4,0-0.8,0-1.1,0.1c-2,0.2-4.4,1.6-3.5,4c0.3,0.8,0.7,1.6,1,2.4l5.5-6.4c-12.2-2.3-24.5-2.4-36.8-1.3c-12.7,1.1-25.5,2-38.1,3.6
	c-2.6,0.3-3.8,2.1-2.5,4.5C719.2,348.8,722.6,350.1,725.4,350.3L725.4,350.3z"/>
<path class="st0" d="M477.5,128.6c2.8,5.2,7.5,8.7,12.9,11.1c6,2.8,12.4,4.9,18.9,6.2c2,0.3,4.2-0.3,4.2-2.6c0-2.5-3.1-4.2-5-5.1
	c-7-3.1-18.2-2.9-22.8-9.9c-1.2-1.9-3.7-3.7-6.1-3.4C477.4,125.2,476.4,126.6,477.5,128.6L477.5,128.6z"/>
<path class="st0" d="M470.1,180.6c1,7,9.4,9,15.3,8.3c7.7-0.8,15.3-4.6,21.2-9.4c4.4-3.6-5.5-9.2-9.1-7.2c-3.4,1.8-6.4,4.1-9.8,5.9
	c-1.5,0.9-3.1,1.6-4.8,2.2c-1,0.4-2,0.7-3,0.9c-2.3-0.1-2.6,0.2-1.1,0.7C477.9,178.7,469.4,175.5,470.1,180.6z"/>
<path class="st0" d="M495.2,224c5,0.3,8.4-3,11.4-6.6c3.5-4.2,6.5-8.8,8.7-13.8c1.8-3.9-7.2-8.9-9.2-5.1c-1.9,3.6-4,7.1-6.3,10.5
	c-1.7,2.6-4.8,8.4-8.3,8.7c-1.9,0.1-2.6,1.6-1.8,3.2C490.8,222.9,493.1,223.9,495.2,224L495.2,224z"/>
<path class="st0" d="M524.1,159.5c8.7,10.2,27.3,4.2,37.5-0.4l-8.2-7.7c-8,4.3-8.4,13.8-8.6,21.8c-0.1,4.1-0.2,10.2-4.9,11.5
	c-4,1.1-8.3,0.3-12.4,1.3l8.9,10c6.6-2,13.3-3.8,20.1-5.3c3.1-0.7,6.2-1.3,9.3-1.9c1.9-0.4,3.7-0.7,5.6-1c0.9-0.1,4-1,4.6-0.8
	c5.8,2,9.5-3.4,3.9-7.1c-7.7-5.2-16.1-2-24.5-0.3c-9.3,1.9-18.6,4.1-27.8,6.4c-3.4,0.9-2.2,4.6-0.6,6.5c2.4,2.7,6,4.1,9.5,3.5
	c7.6-1.6,16.9-1.8,19.9-10.4c3-8.4-3.1-21.6,6.3-26.9c4.5-2.6-5.2-9.4-9.2-7.3c-3.9,2.1-8,3.6-12.3,4.7c-2,0.5-3.9,0.8-5.9,1.1
	c-0.5,0.1-4.5,0.8-4.8,0.4c-1.3-1.2-3.9-3-5.8-2.1S522.9,158.1,524.1,159.5L524.1,159.5z"/>
<path class="st0" d="M611.8,138.7c6.7,4.2,15.6,8.2,23.7,7.7c2-0.1,2.9-1.4,2.2-3.2c-0.7-2-3.3-3.4-5.2-3.8
	c-6.4-1.3-12.4-1.8-18.5-4.7C609.8,132.6,607.8,136.2,611.8,138.7L611.8,138.7z"/>
<path class="st0" d="M602.3,181.5c1.2,5.1,7.7,6.8,12,4.9c6-2.7,13.2-6.5,18.2-11c3.9-3.5-4.7-8.8-8-7.5c-3.4,1.4-6.6,3.2-9.6,5.2
	l-4.1,2.6c-0.9,0.6-6,2.7-2.9,3.6l4.8,4.4l-0.2-0.6c-1.1-2.5-3.4-4.3-6.1-4.8C604.2,178.1,601.7,178.9,602.3,181.5L602.3,181.5z"/>
<path class="st0" d="M623.8,205.3c3.6,3.1,7.9,2.6,10.5-1.3s4.1-8.6,5.5-13.2c0.7-2.5-1.2-4.5-3.3-5.7c-1.3-0.8-5.7-2.2-6.5,0.2
	c-1,2.9-2.2,5.8-3.4,8.6c-0.7,1.7-1.7,6.1-3.5,7l3.8-0.1l-0.5-0.2c-1.2-0.5-3.4-0.7-4.2,0.7S622.8,204.4,623.8,205.3L623.8,205.3z"
	/>
<path class="st0" d="M640.6,110.6c5.8,6.9,14.8,8.4,23.4,8.2c11.8-0.4,22.8-3.5,34.1-6.5c6.1-1.6-2.8-9.2-6.4-8.8
	c-8.9,1.1-19.7,3.3-25.6,10.7c-3.5,4.5-4.1,10.1-4.7,15.6c-0.8,6.9-1.3,13.9-2,20.9c-1.2,13.3-2.3,26.6-4.2,39.8
	c-1,6.9-2.1,13.8-3.5,20.6c-0.6,3-1.2,6.1-2.2,9.1c-0.5,1.6-1.4,3.2-1.7,4.9l-0.7,1.6c5.1,4,7.1,4.2,5.9,0.7
	c-0.7-3.7-11.4-8.5-11.5-3c-0.1,6.9,3.7,12.3,10.6,13.8c7.9,1.8,10.6-4.8,12.3-11.2c4-14.7,5.2-30.5,6.4-45.7
	c1.2-15.6,1.9-31.3,2.9-47c0.4-6.7,1-12.9,7-17c5.1-3.4,11.4-4,17.2-5l-8.6-8.1c-7,3.6-15.2,5.4-22.9,6.6c-5.8,0.9-15.3,3-19.8-1.9
	C644.2,106.1,636.8,106.2,640.6,110.6L640.6,110.6z"/>
<path class="st0" d="M687.3,131.2l1.4,0.4l-5.1-7c-2.3,3.3-4.8,6.5-7.5,9.5c-3,3.2-6,6.5-8,10.5c-2.5,5.2,7.4,9.6,11.2,7.4
	c4.8-2.8,8.4-7.2,11.8-11.5c3.2-4.2,5.7-7.9,3.1-13c-1.9-3.1-5.4-4.7-8.9-4.1l-1.1,0.3C679.3,124.9,685.1,130.5,687.3,131.2
	L687.3,131.2z"/>
<path class="st0" d="M686.4,145.2c-1.4-0.9-0.5-0.5-0.8,0.5s0.3,3,0.5,4.1c0.3,2.8,0.6,5.6,0.7,8.4c0.2,5.4-0.6,10.7,0.1,16.1
	l10.5-1.6l-1.1-1.1c-2-1.8-8.8-4-9.3,0.3l-0.1,1.1c-0.7,5.6,11.8,11.4,13.6,4.9c1.9-7.2-0.2-17.3-1.9-24.5
	c-1.5-6.6-3.7-11.9-10.2-14.6c-1.7-0.7-4.5-0.8-5.3,1.3S684.9,144.3,686.4,145.2L686.4,145.2z"/>
<path class="st0" d="M716.4,145c0.3,0,5.6,0.9,5.3,1.2c-0.2-2.4-0.7-3-1.5-1.7c-0.5,0.7-1.1,1.3-1.7,1.9c-2.1,2.3-4.2,4.7-6.4,6.9
	c-4,3.9-9.8,9.3-15.8,8.7l8.7,8c0.4-2.6,1.7-5,3.7-6.7c2-1.7,3.5-0.7,0.3-3.2c-2.9-2.4-1.8-1.5-3,0.9c-2.6,5-7.3,9.2-11,13.4
	c-2.1,2.4,2.2,6.4,3.8,7.4c2.5,1.6,6.5,3.2,9.3,1.2c-3.4-2.5-4.4-2.6-3-0.5l0.6,1.4c0.6,1.6,1.2,3.2,1.6,4.9c1,3.4,1.5,6.9,1.7,10.5
	c0.1,3.4-0.1,6.7-0.7,10c-0.2,1.4-0.7,2.7-1.4,3.9c-0.3,0.6-0.8,1.2-1.4,1.6c-2.1,0.6-1.1,1.1,2.9,1.7c-2-1.6-5.5-3.2-8.2-2.2
	c-2.3,0.8-2.9,3.2-1.6,5.2c3.8,6,13.4,10.3,19.8,5.6s5.5-15.5,4.8-22.4c-0.8-7.8-2.3-16.3-6.8-22.9c-4.4-6.4-13.3-10.8-20.5-6.4
	l12.2,9.6c6.9-6.6,18.5-19.1,8-27.6c-4.1-3.3-9.6-4.3-14.5-2.6c-5.2,1.8-8.1,6.2-10.6,10.8c-2.1,3.9,3.7,7.8,6.5,8.8
	c14.2,5.1,24.3-5.1,32.3-15.6c1.4-1.9,3.9-4.6,4.2-7.1c0.3-2.6-1.9-5.2-3.8-6.7c-4.3-3.3-10.8-4-16.1-3.8
	C709.5,139.5,713.8,144.7,716.4,145L716.4,145z"/>
<path class="st0" d="M679.5,183.8c0.3,7.1,0.3,15.9,3.3,22.4c1,2.2,4,3.9,6.2,4.5c1.4,0.4,5,0.8,5.6-1.3c2.3-7.4-2.1-17.2-5.2-23.9
	C688.3,183.2,679.3,178.9,679.5,183.8L679.5,183.8z"/>
<path class="st0" d="M731.8,194.5c4.6,3,9.1,7,14.5,8.3c4.5,1.1,6.5-3.1,3.5-6.3c-3.7-3.9-9.7-5.8-14.5-8.3
	c-1.8-0.9-5.6-2.2-6.9,0.2S730.2,193.4,731.8,194.5L731.8,194.5z"/>
<path class="st0" d="M400.8,236.4v7.2c-0.4,2.1-0.6,4.2-1.1,6.3c-1.8,7.6-5.1,14.8-9.6,21.2c-6.2,9.2-14,17.1-22.2,24.5
	c-1.5,1.3-3,2.6-4.7,4c12.2-39.8,12.2-79.3,0-119.1c1.7,1.5,3.3,2.8,4.8,4.1c8.4,7.5,16.2,15.5,22.5,24.9c4.6,6.6,7.9,14.1,9.6,22
	C400.3,233,400.5,234.7,400.8,236.4z"/>
<path class="st0" d="M362.6,299.9l0.3,0.1c-0.9,2.5-1.8,5-2.7,7.5c-5,13.2-11.9,25.6-20.6,36.7c-14.2,17.8-31.9,30.3-54.1,36.3
	c-9.1,2.5-18.5,3.8-28,3.8c-3.6,0-7.1-0.2-10.8-0.5c-1.8-0.2-3.5-0.6-5.2-1.3c-2.4-0.9-2.8-2.5-1.3-4.6c1.7-2.3,3.8-4.2,6.2-5.6
	c6.6-4.1,13.2-8.3,20-12.2c18-10.2,36.2-19.9,53.8-30.6c13.8-8.2,27-17.3,39.6-27.2L362.6,299.9z"/>
<path class="st0" d="M362.7,179.3c0.1,0.2,0.1,0.4,0.2,0.8c-0.6-0.5-1-0.8-1.5-1.2c-12.6-10.1-25.9-19.3-39.7-27.6
	c-16.8-10.3-34.2-19.7-51.5-29.4c-8-4.4-16-8.8-23.5-14.1c-2.1-1.5-4-3.1-5.8-4.9c-2.6-2.7-2-5,1.7-6c2.1-0.5,4.3-0.8,6.4-1
	c0.4-0.1,0.9-0.1,1.4-0.2h12.5c2.2,0.2,4.4,0.4,6.5,0.6c12.7,1.3,25.1,5.1,36.4,11c14.9,7.8,27,18.9,36.8,32.4
	C351.3,151.8,358,165.2,362.7,179.3z"/>
<path class="st0" d="M335.3,283.9c1.5,0.1,2,1.2,1.5,2.6c-1.1,3.4-3.6,5.7-6.1,8c-4.8,4.4-10.6,7.6-16.8,9.4
	c-8.4,2.2-16.3,1.3-23.6-3.6c-6.3-4.2-10.2-10.2-12.7-17.2c-1.5-4.5-2.7-9.1-3.3-13.8c-0.2-1.2-0.4-1.3-1.5-0.7
	c-6,3.4-12.4,6.2-19,8.3c-2.1,0.7-4.3,1.1-6.5,1.7c-0.9,0.2-1.1,0.6-0.8,1.5c4.3,12.8,9.1,25.4,14.5,37.8c1.5,3.4,3.1,6.7,4.6,10.1
	c0.4,1,0.8,2,1,3c0.4,1.8-0.7,3.7-2.5,4.2c-1.7,0.6-3.6-0.1-4.5-1.7c-1.2-2.5-2.2-5.1-3.3-7.7c-3.1-7.6-6.2-15.3-9.1-23
	c-2.6-7.1-5-14.2-7.4-21.4c-0.1-0.8-0.8-1.3-1.5-1.2c-0.1,0-0.1,0-0.2,0c-7.6,0.9-15.2,1-22.8,0.1c-4.1-0.4-8.2-1-12.3-1.9
	c-5.1-1.1-10.2-2.5-15.3-4.1c-9.1-2.9-17.8-6.9-25.9-11.8c-0.6-0.4-1.4-0.3-1.9,0.2c-5.2,4.1-10.7,7.6-16.6,10.6
	c-5.6,2.7-11.6,4.4-17.9,4.1c-0.4,0-0.8,0-1.2-0.2c-0.4-0.3-0.7-0.6-1-0.9c0.3-0.3,0.6-0.8,1-0.9c0.7-0.2,1.3-0.2,2-0.1
	c4.5,0.2,9-0.7,13.1-2.7c6.5-2.9,12.2-7.1,17.8-11.4c0.9-0.7,0.9-0.9-0.1-1.5c-5.7-4-11.4-8-17.1-11.9c-1-0.5-1.5-1.6-1.3-2.7
	c0.2-1.1,1.1-1.9,2.2-2.1c1.9-0.7,4.1-0.3,5.6,1.1c3.1,2.5,6.4,4.7,9.6,7c2,1.4,4,2.7,6,4.1c0.5,0.5,1.2,0.5,1.7,0
	c0.1-0.1,0.1-0.1,0.1-0.2c4.3-4.7,8.8-9.3,13-14.1c8.3-9.7,15.7-20.2,22.1-31.3c6.1-10.4,11.9-21,16.4-32.3
	c2.7-6.6,4.8-13.3,6.4-20.2c0.6-2.9,1.2-5.8,1.8-8.7s2.6-3.7,5.6-3.5c1.3,0.1,2.3,1.3,2.1,2.6c0,0.1,0,0.1,0,0.2
	c-0.1,2.8-0.4,5.6-0.9,8.3c-0.7,3.3-1.9,6.4-2.8,9.7c-0.4,1.5-0.6,3.1-0.6,4.7c-0.2,11.1,0.4,22.1,2,33.1c1.3,9.2,2.6,18.4,4.4,27.6
	c1.6,8.2,3.6,16.2,5.6,24.3c1.4,5.5,3.1,10.9,4.8,16.3c0.5,1.7,0.6,1.7,2.3,1.3c9.2-2.4,17.5-6.5,25.5-11.5c1-0.5,1.6-1.6,1.4-2.8
	c-0.9-9.4-1-18.9-0.3-28.3c0.4-5.4,0.6-10.8,1.2-16.2c1.1-10.1,2.6-20.1,6-29.7c1-3.1,2.5-6,4.5-8.6c4.4-5.2,12.2-5.7,17.3-1.3
	c0.2,0.2,0.4,0.3,0.5,0.5c4.2,4.1,7.2,9.2,8.9,14.9c1.9,6.2,2.7,12.7,2.5,19.2c-0.1,11.2-3.7,21.3-9.5,30.8
	c-4.4,7.1-10,13.4-16.4,18.7c-1.6,1.4-3.3,2.6-4.9,4c-0.5,0.4-0.7,1-0.7,1.6c1,7.5,2.4,14.9,6.1,21.5c2.7,4.9,6.3,8.9,11.5,11.3
	c4.3,2,9.2,2.1,13.6,0.2c5.2-2.1,9.5-5.6,13.9-9.1c1.7-1.3,3.5-2.4,5.4-3.3C333.3,284,334.3,283.8,335.3,283.9z M302.9,209.4
	c0.2-8-1.3-15.9-4.4-23.2c-1.1-2.8-2.7-5.4-4.9-7.5c-1.2-1.1-1.9-1.2-2.7,0.2c-1.4,2-2.6,4.2-3.5,6.5c-2.8,7.3-4.2,14.9-5.1,22.6
	c-1.8,14.7-2.3,29.5-1.4,44.2c0,0.3,0.1,0.7,0.1,1.2c0.4-0.2,0.7-0.4,1.1-0.7c4.1-3.8,7.7-8,10.9-12.6
	C299.2,231.1,302.7,220.4,302.9,209.4z M236.2,274.5c1.2-0.2,1.3-0.2,0.9-1.4c-2-7.3-4.3-14.5-6.1-21.9c-2.1-8.8-3.9-17.8-5.6-26.7
	c-1.3-6.8-2.3-13.7-3.1-20.6s-1.2-13.7-1.8-20.5c0-0.2-0.1-0.5-0.2-1c-0.4,0.6-0.6,0.8-0.7,1.1c-3.4,6.4-6.8,12.8-10.3,19.2
	c-5.1,8.9-10.8,17.4-17,25.5c-7.6,10.2-16.2,19.7-25.5,28.4c-0.8,0.7-0.8,1,0.1,1.5c1.4,0.8,2.7,1.6,4.1,2.3
	c12.1,6.7,25.2,11.3,38.8,13.6C218.6,275.3,227.5,275.5,236.2,274.5L236.2,274.5z"/>
<path class="st0" d="M228,378.3c1.1,1.8,0.8,3.3-1.2,4.1c-1.8,0.7-3.7,1.2-5.6,1.5c-3.3,0.4-6.7,0.6-10,0.5c-5,0-10-0.4-14.9-1
	c-10.2-1.3-20.1-4.1-29.5-8.4c-14.4-6.7-27.1-16.7-37.1-29.1c-11-13.5-18.8-28.7-24.4-45.2c0-0.1-0.1-0.3-0.1-0.4
	c0-0.1,0-0.2,0.1-0.3l3,2.4c13.5,10.7,27.8,20.4,42.8,29c15.8,9.2,31.7,18.1,47.6,27.1c7.6,4.3,15.4,8.5,22.6,13.6
	c1.8,1.3,3.5,2.7,5.1,4.1C227,376.8,227.5,377.5,228,378.3z"/>
<path class="st0" d="M226.8,97.6c1.9,0.9,2.4,2.4,1.1,4.1c-1.5,1.9-3.2,3.6-5.1,5c-5.8,3.9-11.7,7.7-17.7,11.1
	c-13.8,7.9-27.8,15.5-41.6,23.3c-18.3,10.5-36.2,21.6-52.9,34.6c-1.8,1.4-3.5,2.8-5.4,4.3c0-0.2,0-0.5,0.1-0.7
	c5.6-16.6,13.4-32,24.6-45.5c14.4-17.5,32.4-29.5,54.5-35c6.4-1.6,13-2.6,19.6-3c0.4,0,0.8-0.1,1.2-0.2h12.5
	c1.7,0.2,3.4,0.4,5.1,0.7C224.3,96.6,225.6,97,226.8,97.6z"/>
<path class="st0" d="M104.2,180.9l0.6-0.4c-12.2,39.7-12.2,79.2,0,119c-1.9-1.6-3.6-3.1-5.2-4.5c-8.1-7.2-15.6-15-21.7-24
	c-4.8-7.1-8.5-14.8-10.1-23.3c-0.5-2.6-0.7-5.2-0.7-7.8c0.1-6.1,1.3-12.2,3.7-17.9c3.5-8.8,8.9-16.4,15.1-23.4
	C91.5,192.2,97.6,186.3,104.2,180.9z"/>
</svg>
