<?xml version="1.0" encoding="UTF-8"?>
<svg id="_图层_2" data-name="图层 2" xmlns="http://www.w3.org/2000/svg" viewBox="0 0 2735.99 1224.99">
  <g id="_图层_1-2" data-name="图层 1">
    <g>
      <path d="M611.99,1224.99c-33.93-.51-92.44-3-125.97-7.64-40.92,9.71-89.04,10.4-129.44-2.06-26.92-9.12-56.81-26.3-76.43-47.02-2.24-.07-49.67-21.3-53.15-22.72C-.49,1034.3-53.9,836.07,52.87,612.49-53.9,388.74-.49,190.76,227,79.44c4.35-1.26,50.24-22.67,53.15-22.72,19.58-20.69,49.55-37.94,76.43-47.02,40.41-12.44,88.53-11.79,129.44-2.06,33.16-4.56,92.14-7.23,125.63-7.64,33.83.47,92.81,2.99,126.32,7.64,40.89-9.7,89.06-10.4,129.44,2.06,26.81,9.12,56.89,26.3,76.43,47.02,4.56.82,48,20.76,53.15,22.72,227.31,111.14,280.98,309.38,174.12,533.06,106.82,223.82,53.27,421.79-174.13,533.06-3.38,1.66-50.91,22.36-53.15,22.72-19.6,20.69-49.55,37.94-76.43,47.02-40.38,12.44-88.55,11.79-129.44,2.06-33.38,4.57-92.29,7.24-125.97,7.64ZM553.88,1198.38c30.69,1.46,88.88,1.76,119.54-.28-15.5-5.42-46.48-19.33-61.43-26.68-15.01,7.38-45.86,21.23-61.43,26.68l3.32.28ZM725.16,1188.88s13.81,3.08,13.81,3.08c24.57-2.6,75.09-12.01,99.4-17.47,23.12-5.87,69.91-19.24,91.85-27.95,0,0,6.43-6.43,6.43-6.43,73.11-88.01,93.35-218.04,106.64-328.67-111.58,136.37-249.28,259.3-403.5,345.35,23.9,11.81,59.69,24.8,85.38,32.08ZM440.1,1185.59l44.92,6.37c31.56-6.66,70.12-21.33,99.19-35.17-154.22-86.05-291.92-208.99-403.5-345.35,13.28,110.59,33.53,240.66,106.63,328.67,0,0,6.43,6.43,6.43,6.43,41.83,16.16,102.16,31.11,146.33,39.05ZM588.36,1130.72l23.64,12.45c169.56-90.5,317.87-226.29,435.55-377.42,7.98-100.17,7.98-206.33,0-306.5-117.69-151.13-265.99-286.92-435.55-377.42-169.56,90.5-317.87,226.29-435.55,377.42-7.98,100.17-7.98,206.33,0,306.5,111.93,144.62,253.12,273.63,411.92,364.98ZM1071.91,774.77c-11.36,118.72-28.68,249.39-93.89,351.81,210.42-97.77,271.85-274.64,178.76-485.09-21.89,42.57-56.23,94.96-84.87,133.27ZM238.39,1123.29l7.57,3.29c-65.21-102.41-82.52-233.09-93.89-351.81-28.65-38.33-62.98-90.7-84.87-133.27-91.44,207.56-34.48,381.33,171.19,481.8ZM1075.22,497.56c4.37,74.22,4.37,155.64,0,229.87,22.48-32.38,51.28-79.3,68-114.93-16.7-35.61-45.54-82.59-68-114.93ZM145.2,722.49l3.56,4.94c-4.37-74.22-4.37-155.64,0-229.87-22.48,32.38-51.28,79.3-68,114.93,15.41,33.42,43.94,79.34,64.44,109.99ZM1071.91,450.22c28.65,38.33,62.98,90.7,84.87,133.27,93.17-210.65,31.47-387.41-178.76-485.09,65.21,102.42,82.52,233.09,93.89,351.82ZM53.23,549.4l13.97,34.09c21.89-42.57,56.23-94.96,84.87-133.27,11.36-118.72,28.68-249.39,93.89-351.82C53.05,188.1-20.78,347.35,53.23,549.4ZM639.78,68.2c154.22,86.05,291.92,208.99,403.5,345.35-12.97-109.33-35.34-252.35-113.07-335.1-57.62-21.77-130.12-38.13-191.25-45.42-31.55,6.66-70.12,21.33-99.19,35.17ZM182.32,398.04l-1.62,15.51c111.58-136.37,249.28-259.3,403.5-345.35-29.09-13.83-67.62-28.51-99.19-35.17-61.14,7.31-133.61,23.63-191.24,45.42-75.53,80.71-97.15,213.42-111.45,319.59ZM550.56,26.88c15.5,5.42,46.48,19.33,61.43,26.68,15.01-7.38,45.86-21.23,61.43-26.68-32.27-1.98-90.59-1.97-122.86,0Z"/>
      <g>
        <path d="M1754.47,935.96c-4.16-10.96-17.77-19.28-29.11-21.17-27.22-3.78-57.46-1.51-85.82.38v-22.68c-.76-17.39-1.13-34.78-.76-52.17,0-6.43-1.89-18.15.76-23.44,4.54-9.07,17.01-7.94,25.33-8.32h.76c10.21,0,13.61-8.69,9.45-17.01-4.91-9.83-17.77-15.12-28.35-15.5-12.85-.76-31.38-.38-42.72,8.32-27.98,2.27-57.08-.76-83.55-4.91-23.06-3.78-7.56,23.06,7.56,25.33,22.3,3.78,43.85,4.91,65.78,4.91,0,3.78-.38,7.56-.76,10.96-1.13,17.01-1.51,34.02-1.89,51.04,0,10.59,3.02,35.54-5.29,46.88-6.43.38-12.48.76-18.9,1.13-9.83.76-19.66,1.51-29.49,2.27l-14.74,1.89c-5.67,0-7.94,0-7.18.38-13.61-6.43-34.02,2.27-19.28,17.39,13.61,13.61,26.46,15.88,44.99,14.37,17.39-1.51,35.16-3.4,52.55-4.54,3.4,1.51,6.8,2.27,9.45,2.27,7.18,0,13.23-1.51,17.77-3.4,16.63-.38,33.27-.38,49.52,0,23.44.38,48.01,5.67,71.45,4.16,10.59-.76,16.26-7.94,12.48-18.15h0v-.38Z"/>
        <g>
          <path d="M1910.22,813.48c.76-1.13,1.51-1.89,2.27-3.02,11.72-15.88,27.98-37.8,27.22-58.6-.76-13.61-21.55-24.95-34.02-18.15-17.39,9.45-28.73,31.76-40.45,47.26-12.48,16.63-29.11,32.13-37.05,51.79-7.56,18.52,24.19,32.13,37.8,24.95,10.96-5.67,19.66-13.61,27.6-22.68-1.13,30.62-4.54,61.24-6.05,91.86-1.51,2.27-1.89,5.29-1.13,9.45l.76,6.05h0c2.27,19.66,50.28,44.61,52.17,18.15,2.27-43.1-4.16-85.82-8.32-128.53-1.13-7.18-11.34-15.5-20.79-18.9h0v.38Z"/>
          <path d="M2256.13,940.5c-7.18-9.45-18.15-15.12-29.87-15.12-30.24.76-61.24,7.18-91.86,12.85-.76-18.15-1.51-36.29-2.65-54.44,23.82,1.51,49.52,1.89,70.32-6.05,20.04-7.56-6.8-29.87-17.77-31-18.15-1.51-36.29,0-54.44,1.89-1.89-33.27-5.29-66.91-4.16-99.8,0-16.63,7.56-23.44,17.77-26.46,3.78-.76,7.94-1.51,11.72-2.27,12.85-1.13,27.98-.76,39.32-7.18,8.69-4.91,0-17.01-3.78-21.55-7.56-7.56-18.15-10.96-28.73-9.45-39.69,6.43-78.25,15.5-116.44,25.71.76-5.29.76-10.21-.76-15.88-5.67-20.79-24.57-35.54-46.12-35.91-7.94,0-10.96,6.05-8.69,12.85,1.13,4.16,4.91,7.56,9.07,10.21v.76c0,2.65-.76,5.29-1.89,7.56-2.27,4.54-4.91,9.07-8.32,12.85-7.56,10.59-15.12,20.79-14.37,34.4.76,15.88,25.33,34.02,40.83,27.22,21.17-9.45,43.85-17.77,66.54-24.57-.76,10.96,0,22.3,0,32.51v83.55c-5.29,2.27-6.8,7.94-3.78,14.37,1.13,1.89,2.27,3.78,3.78,5.29,0,70.69-1.13,141.39.76,212.08-6.05,2.27-9.45,9.07-7.18,15.12,0,1.13,1.13,2.65,1.89,3.78,7.94,11.72,19.28,20.41,32.89,24.95,8.32,3.02,30.62,5.29,30.24-9.45-.76-50.66-3.02-101.69-5.29-152.35,38.18,3.4,80.15,5.29,116.44-6.05,10.21-3.02,8.69-13.23,3.78-20.41h.76Z"/>
        </g>
        <g>
          <path d="M2465.19,626.72c17.39,10.59,37.43,22.3,57.46,26.08,5.67,1.13,13.23-.38,13.99-7.18s-6.8-13.61-12.1-16.26c-15.88-8.32-33.27-12.85-49.15-21.55-5.67-3.02-16.26-6.05-20.41.76-4.16,6.8,5.29,15.12,10.21,18.15Z"/>
          <path d="M2415.29,665.66c1.13-14.37-29.87-29.11-34.78-12.48-9.45,32.13-16.26,64.65-23.06,97.16-3.4,15.12-6.43,30.62-10.59,45.74-4.91,17.01-13.23,33.65-15.5,51.04-2.65,18.9,34.4,36.29,46.5,21.17,18.9-24.57,23.44-67.29,27.6-97.16,5.29-35.16,6.43-70.32,9.83-105.47h0Z"/>
          <path d="M2462.54,715.56c38.94-11.72,84.3-19.66,127.78-17.01-8.32,4.54-17.01,8.69-25.33,12.85-22.3,10.59,12.48,35.91,27.98,31.38,29.87-8.32,60.86-15.5,87.71-31,9.07-5.29,2.27-17.77-2.27-23.06-7.94-9.07-19.28-13.99-31.38-14.37-34.78-1.13-68.8-6.43-103.96-3.4-34.4,3.02-68.43,10.21-100.94,21.93-15.88,6.05,9.07,26.08,20.41,22.68h0Z"/>
          <path d="M2470.48,887.95c14.37-1.89,25.33-6.05,34.02-18.15,2.65-3.78,3.02-7.18,1.89-10.59,7.56-7.18,15.5-13.99,23.44-20.79,16.26-13.61,35.91-24.95,49.52-41.96,6.8-8.32-6.8-21.17-12.48-24.95-7.94-5.29-17.77-8.32-26.84-5.67h0c-3.4,1.13-6.8,2.65-9.83,4.16-12.1,4.54-26.84,6.05-38.94,8.69-15.5,3.02-31,5.29-46.5,6.05-23.06,1.51,0,26.08,11.72,27.6,4.16.76,8.32,1.13,12.48,1.13-13.61,11.72-26.09,24.57-37.43,38.18-13.61,16.63,26.46,37.8,38.94,36.29Z"/>
          <path d="M2570.29,814.23c-5.29,8.32,6.43,17.77,12.48,21.17,9.07,5.29,18.15,10.96,26.46,17.01,10.59,7.56,20.79,15.88,33.27,20.41,6.8,2.27,17.01,3.78,22.68-2.27,5.67-6.05,1.51-14.74-3.4-19.66-17.39-17.77-44.61-26.84-66.91-37.43-6.8-3.02-19.28-7.56-24.57.76h0Z"/>
          <path d="M2735.49,1013.84c-3.4-15.12-21.93-26.84-37.43-28.35-45.74-8.32-91.86-8.69-137.99-4.91-2.65,0-5.29.38-7.94.76,1.89-9.45,2.65-19.66,3.4-28.73,0-4.54.76-8.69.76-13.23,10.96-1.51,22.3-4.16,29.87-12.1,6.43-7.18,3.4-13.99-1.89-20.79-12.48-15.5-29.49-26.84-48.77-32.13-7.18-2.27-22.68-4.16-23.44,7.56,0,9.45-1.13,18.9-2.27,28.35h-6.05c-9.07,1.13-21.93,3.4-32.89,3.4-6.8-10.59-26.84-16.63-34.4-7.94-7.56,9.07,0,21.17,8.32,27.6,13.61,10.96,31.38,10.59,48.01,10.96h12.1c-2.65,12.48-5.67,25.33-4.54,38.18,0,1.13,0,2.27.76,3.4-28.35,2.27-57.08,4.91-85.06,8.69-9.83,1.13-14.37,7.94-9.45,17.01,5.29,10.21,18.15,15.12,28.73,15.88,89.6,5.67,180.7-29.87,268.79,2.65,12.85,4.54,35.54,3.4,31.38-15.88h0v-.38Z"/>
        </g>
        <g>
          <path d="M1546.92,230.91c22.68,10.59,46.88,18.52,71.45,23.44,7.56,1.13,15.88-1.13,15.88-9.83s-11.72-15.88-18.9-19.28c-26.46-11.72-68.8-10.96-86.19-37.43-4.54-7.18-13.99-13.99-23.06-12.85-8.32,1.13-12.1,6.43-7.94,13.99,10.59,19.66,28.35,32.89,48.77,41.96Z"/>
          <path d="M1573.77,354.15c-12.85,6.8-24.19,15.5-37.05,22.3-5.67,3.4-11.72,6.05-18.15,8.32-3.78,1.51-7.56,2.65-11.34,3.4h-5.29c-6.8-11.34-34.02-20.41-31.76-2.65,3.78,26.46,35.54,34.02,57.84,31.38,29.11-3.02,57.84-17.39,80.15-35.54,16.63-13.61-20.79-34.78-34.4-27.22h0Z"/>
          <path d="M1606.28,453.2c-7.18,13.61-15.12,26.84-23.82,39.69-6.43,9.83-18.15,31.76-31.38,32.89-7.18.38-9.83,6.05-6.8,12.1,4.16,7.56,12.85,11.34,20.79,11.72,18.9,1.13,31.76-11.34,43.1-24.95,13.23-15.88,24.57-33.27,32.89-52.17,6.8-14.74-27.22-33.65-34.78-19.28h0Z"/>
          <path d="M1885.27,382.88c-26.84-18.15-55.95-9.07-85.44-2.65,0-28.73-7.18-62,20.41-77.5,17.01-9.83-19.66-35.54-34.78-27.6h0s-1.13.38-1.51.76c-13.99,7.56-29.11,12.85-44.61,16.63-7.56,1.89-14.74,3.02-22.3,4.16-1.89,0-17.01,3.02-18.15,1.51-4.91-4.54-14.74-11.34-21.93-7.94-7.18,3.4-6.8,9.83-2.27,15.12,18.9,22.3,50.28,24.19,80.52,18.52-1.89,10.96-2.27,22.68-2.27,33.27s0,24.95-6.43,34.4c-19.28,4.54-38.18,9.07-57.08,13.61h-1.89c-12.48,3.78-7.94,17.39-1.89,24.57,9.07,10.21,22.68,15.5,35.91,13.23,18.9-3.78,40.45-5.67,56.33-15.5,6.43-1.51,12.85-3.02,19.28-4.54,11.72-2.65,23.44-4.91,35.16-7.18,7.18-1.51,13.99-2.65,21.17-3.78,3.4,0,15.12-3.78,17.39-3.02,21.93,7.56,35.91-12.85,14.74-26.84v.76h-.38Z"/>
        </g>
        <g>
          <path d="M2005.87,227.13c25.33,15.88,58.97,31,89.6,29.11,7.56,0,10.96-5.29,8.32-12.1-2.65-7.56-12.48-12.85-19.66-14.37-24.19-4.91-46.88-6.8-69.94-17.77-15.88-7.94-23.44,5.67-8.32,15.12Z"/>
          <path d="M2053.88,337.52c-12.85,5.29-24.95,12.1-36.29,19.66l-15.5,9.83c-2.65,1.51-13.99,6.43-14.74,10.21-.76,0-1.13,0-1.89-.38-8.32-.76-17.77,2.27-15.5,12.1,4.54,19.28,29.11,25.71,45.37,18.52,22.68-10.21,49.9-24.57,68.8-41.58,14.74-13.23-17.77-33.27-30.24-28.35h0Z"/>
          <path d="M2099.24,402.54c-4.91-3.02-21.55-8.32-24.57.76-3.78,10.96-8.32,21.93-12.85,32.51-2.27,5.29-5.29,18.52-10.59,24.19-2.65.38-4.91,1.51-6.05,3.78-3.02,5.29,2.27,11.72,6.05,15.12,13.61,11.72,29.87,9.83,39.69-4.91s15.5-32.51,20.79-49.9c2.65-9.45-4.54-17.01-12.48-21.55Z"/>
          <path d="M2401.3,382.51c-2.65-3.78-6.05-7.56-9.45-10.96,8.69-10.21,16.63-21.93,20.79-33.65,14.37-11.72,27.6-26.84,39.32-42.34,5.29-7.18,14.74-17.39,15.88-26.84,1.13-9.83-7.18-19.66-14.37-25.33-16.26-12.48-40.83-15.12-60.86-14.37-17.39,1.13-1.13,20.79,8.69,21.93.76,0,6.05.76,11.34,1.89-1.13,1.13-2.27,2.27-3.4,3.4-7.56,8.32-15.5,17.39-23.44,25.33-12.85-5.29-27.22-5.67-40.45-1.13-3.78,1.51-7.56,3.02-10.59,5.29,0-1.13,0-1.89-.76-3.02-4.91-20.79-11.34-38.18-27.98-49.52,11.72-15.5,20.79-29.49,11.34-48.39-7.18-11.72-20.41-17.77-33.65-15.5l-4.16,1.13c-6.8,1.51-7.94,5.29-6.8,9.83-7.56,10.21-15.5,20.04-23.82,29.49-3.4,3.4-6.43,6.8-9.83,10.59,0-3.4,0-6.43.76-9.83,1.51-25.33,3.78-48.77,26.46-64.27,2.27-1.51,4.54-2.65,6.8-3.78,19.66-4.54,39.32-9.83,58.97-15.12,23.06-6.05-10.59-34.78-24.19-33.27-26.46,3.4-57.08,9.07-79.77,24.95-5.29,1.13-10.59,1.89-15.88,2.65-21.93,3.4-57.84,11.34-74.85-7.18-9.07-10.59-37.05-10.21-22.68,6.43,21.55,25.71,54.82,31.38,86.57,31-4.91,13.23-6.43,27.22-7.94,41.58-3.02,26.08-4.91,52.55-7.56,79.01-4.54,50.28-8.69,100.56-15.88,150.46-3.78,26.08-7.94,52.17-13.23,77.88-2.27,11.34-4.54,23.06-8.32,34.4-1.13,3.4-2.65,7.18-4.16,10.59-12.1-5.67-26.09-6.8-26.09,5.29,0,26.08,13.99,46.5,40.07,52.17,29.87,6.8,40.07-18.15,46.5-42.34,15.12-55.57,19.66-115.3,24.19-172.77,3.02-37.05,4.91-74.47,7.18-111.9,9.07,3.78,18.9,4.54,24.95,1.13,8.69-5.29,16.63-11.72,23.82-18.9,0,3.78,1.51,7.94,1.89,10.59,1.13,10.59,2.27,21.17,2.65,31.76.76,20.41-2.27,40.45,0,60.86h0c3.02,13.99,24.95,26.46,39.32,24.19,1.89,1.89,4.16,3.4,5.29,4.16,6.8,4.54,17.01,9.07,26.09,7.94h0c2.27,6.05,4.54,12.1,6.05,18.52,3.78,12.85,5.67,26.08,6.43,39.69,0,12.85,0,25.33-2.65,37.8-.76,5.29-2.65,10.21-5.29,14.74-1.13,2.27-3.02,4.54-5.29,6.05-6.43-2.65-13.99-4.16-20.04-1.89-8.69,3.02-10.96,12.1-6.05,19.66,14.37,22.68,50.66,38.94,74.85,21.17,24.19-17.77,20.79-58.6,18.15-84.68-3.02-29.49-8.69-61.62-25.71-86.57h.76,0Z"/>
          <path d="M2261.8,397.63c1.13,26.84,1.13,60.11,12.48,84.68,3.78,8.32,15.12,14.74,23.44,17.01,5.29,1.51,18.9,3.02,21.17-4.91,8.69-27.98-7.94-65.02-19.66-90.35-4.16-8.69-38.18-24.95-37.43-6.43h0Z"/>
          <path d="M2527.57,445.64c-13.99-14.74-36.67-21.93-54.82-31.38-6.8-3.4-21.17-8.32-26.09.76-4.91,9.07,6.8,18.9,12.85,23.06,17.39,11.34,34.4,26.46,54.82,31.38,17.01,4.16,24.57-11.72,13.23-23.82Z"/>
        </g>
      </g>
    </g>
  </g>
</svg>