<svg xmlns="http://www.w3.org/2000/svg" id="_图层_2" data-name="图层 2" viewBox="0 0 1224.99 1224.99">
  <g id="_图层_1-2" data-name="图层 1">
    <g>
      <path d="M611.99,1224.99c-33.93-.51-92.44-3-125.97-7.64-40.92,9.71-89.04,10.4-129.44-2.06-26.92-9.12-56.81-26.3-76.43-47.02-2.24-.07-49.67-21.3-53.15-22.72C-.49,1034.3-53.9,836.07,52.87,612.49-53.9,388.74-.49,190.76,227,79.44c4.35-1.26,50.24-22.67,53.15-22.72,19.58-20.69,49.55-37.94,76.43-47.02,40.41-12.44,88.53-11.79,129.44-2.06,33.16-4.56,92.14-7.23,125.63-7.64,33.83.47,92.81,2.99,126.32,7.64,40.89-9.7,89.06-10.4,129.44,2.06,26.81,9.12,56.89,26.3,76.43,47.02,4.56.82,48,20.76,53.15,22.72,227.31,111.14,280.98,309.38,174.12,533.06,106.82,223.82,53.27,421.79-174.13,533.06-3.38,1.66-50.91,22.36-53.15,22.72-19.6,20.69-49.55,37.94-76.43,47.02-40.38,12.44-88.55,11.79-129.44,2.06-33.38,4.57-92.29,7.24-125.97,7.64ZM553.88,1198.38c30.69,1.46,88.88,1.76,119.54-.28-15.5-5.42-46.48-19.33-61.43-26.68-15.01,7.38-45.86,21.23-61.43,26.68l3.32.28ZM725.16,1188.88s13.81,3.08,13.81,3.08c24.57-2.6,75.09-12.01,99.4-17.47,23.12-5.87,69.91-19.24,91.85-27.95,0,0,6.43-6.43,6.43-6.43,73.11-88.01,93.35-218.04,106.64-328.67-111.58,136.37-249.28,259.3-403.5,345.35,23.9,11.81,59.69,24.8,85.38,32.08ZM440.1,1185.59l44.92,6.37c31.56-6.66,70.12-21.33,99.19-35.17-154.22-86.05-291.92-208.99-403.5-345.35,13.28,110.59,33.53,240.66,106.63,328.67,0,0,6.43,6.43,6.43,6.43,41.83,16.16,102.16,31.11,146.33,39.05ZM588.36,1130.72l23.64,12.45c169.56-90.5,317.87-226.29,435.55-377.42,7.98-100.17,7.98-206.33,0-306.5-117.69-151.13-265.99-286.92-435.55-377.42-169.56,90.5-317.87,226.29-435.55,377.42-7.98,100.17-7.98,206.33,0,306.5,111.93,144.62,253.12,273.63,411.92,364.98ZM1071.91,774.77c-11.36,118.72-28.68,249.39-93.89,351.81,210.42-97.77,271.85-274.64,178.76-485.09-21.89,42.57-56.23,94.96-84.87,133.27ZM238.39,1123.29l7.57,3.29c-65.21-102.41-82.52-233.09-93.89-351.81-28.65-38.33-62.98-90.7-84.87-133.27-91.44,207.56-34.48,381.33,171.19,481.8ZM1075.22,497.56c4.37,74.22,4.37,155.64,0,229.87,22.48-32.38,51.28-79.3,68-114.93-16.7-35.61-45.54-82.59-68-114.93ZM145.2,722.49l3.56,4.94c-4.37-74.22-4.37-155.64,0-229.87-22.48,32.38-51.28,79.3-68,114.93,15.41,33.42,43.94,79.34,64.44,109.99ZM1071.91,450.22c28.65,38.33,62.98,90.7,84.87,133.27,93.17-210.65,31.47-387.41-178.76-485.09,65.21,102.42,82.52,233.09,93.89,351.82ZM53.23,549.4l13.97,34.09c21.89-42.57,56.23-94.96,84.87-133.27,11.36-118.72,28.68-249.39,93.89-351.82C53.05,188.1-20.78,347.35,53.23,549.4ZM639.78,68.2c154.22,86.05,291.92,208.99,403.5,345.35-12.97-109.33-35.34-252.35-113.07-335.1-57.62-21.77-130.12-38.13-191.25-45.42-31.55,6.66-70.12,21.33-99.19,35.17ZM182.32,398.04l-1.62,15.51c111.58-136.37,249.28-259.3,403.5-345.35-29.09-13.83-67.62-28.51-99.19-35.17-61.14,7.31-133.61,23.63-191.24,45.42-75.53,80.71-97.15,213.42-111.45,319.59ZM550.56,26.88c15.5,5.42,46.48,19.33,61.43,26.68,15.01-7.38,45.86-21.23,61.43-26.68-32.27-1.98-90.59-1.97-122.86,0Z"/>
      
    </g>
  </g>
</svg>